<?xml version="1.0" encoding="UTF-8"?>
<svg version="1.1" xmlns="http://www.w3.org/2000/svg" width="1000" height="1000">
<path d="M0 0 C330 0 660 0 1000 0 C1000 330 1000 660 1000 1000 C670 1000 340 1000 0 1000 C0 670 0 340 0 0 Z " fill="#FEFEFE" transform="translate(0,0)"/>
<path d="M0 0 C1.75570312 -0.01160156 1.75570312 -0.01160156 3.546875 -0.0234375 C4.6709375 -0.02085937 5.795 -0.01828125 6.953125 -0.015625 C7.97051758 -0.01336914 8.98791016 -0.01111328 10.03613281 -0.00878906 C12.8014336 0.25490461 14.3646221 0.89349438 16.75 2.25 C18.48813388 2.67663286 20.23988665 3.05076859 22 3.375 C22.89203125 3.54257812 23.7840625 3.71015625 24.703125 3.8828125 C25.71632813 4.06457031 25.71632813 4.06457031 26.75 4.25 C26.75 4.91 26.75 5.57 26.75 6.25 C27.595625 6.476875 28.44125 6.70375 29.3125 6.9375 C32.79064152 8.26551767 35.15203968 9.84504078 38.0390625 12.12890625 C39.92587649 13.36524327 41.5485287 13.82220318 43.75 14.25 C43.75 14.91 43.75 15.57 43.75 16.25 C44.3275 16.476875 44.905 16.70375 45.5 16.9375 C48.34739809 18.59848222 49.87067193 20.56524561 51.75 23.25 C51.75 23.91 51.75 24.57 51.75 25.25 C52.41 25.25 53.07 25.25 53.75 25.25 C53.75 26.57 53.75 27.89 53.75 29.25 C51.77 29.745 51.77 29.745 49.75 30.25 C49.75 30.91 49.75 31.57 49.75 32.25 C49.09 32.25 48.43 32.25 47.75 32.25 C47.4096875 33.1471875 47.4096875 33.1471875 47.0625 34.0625 C45.75 36.25 45.75 36.25 43.4296875 37.5625 C37.55102655 41.26451389 32.92135259 48.20399317 31.25 54.9375 C31.085 56.030625 30.92 57.12375 30.75 58.25 C30.09 58.25 29.43 58.25 28.75 58.25 C28.79125 58.971875 28.8325 59.69375 28.875 60.4375 C28.73882288 63.5014852 27.91745065 65.43438372 26.75 68.25 C23.94787116 82.04357787 26.3153766 93.58956645 31.75 106.25 C32.12705078 107.23613281 32.12705078 107.23613281 32.51171875 108.2421875 C35.55491506 115.39741005 41.406849 120.75527025 46.75 126.25 C47.59046875 127.1471875 48.4309375 128.044375 49.296875 128.96875 C51.68878825 131.19307697 53.55898964 132.35213015 56.5625 133.5625 C57.35269531 133.88863281 58.14289063 134.21476563 58.95703125 134.55078125 C59.54871094 134.78152344 60.14039063 135.01226563 60.75 135.25 C60.75 137.89 60.75 140.53 60.75 143.25 C60.09 143.25 59.43 143.25 58.75 143.25 C58.75 144.24 58.75 145.23 58.75 146.25 C58.09 146.25 57.43 146.25 56.75 146.25 C56.4096875 147.9515625 56.4096875 147.9515625 56.0625 149.6875 C54.34458426 156.51110938 50.55282351 162.1200546 46.625 167.875 C44.11232338 171.57011268 42.39368363 175.10165559 40.75 179.25 C38.58319631 184.51223754 36.45529691 186.17345971 31.75 189.25 C30.58999944 190.48896774 29.46718111 191.76335306 28.375 193.0625 C19.00755495 204.15388727 19.00755495 204.15388727 12.75 205.25 C12.75 205.91 12.75 206.57 12.75 207.25 C7.72308647 209.25115984 3.33112627 209.63561755 -2 209.625 C-2.79696289 209.62411377 -3.59392578 209.62322754 -4.41503906 209.62231445 C-10.70962392 209.49603816 -15.69845414 208.30833664 -21.25 205.25 C-33.21923101 199.14324949 -46.59268313 196.13963352 -59.875 200.01611328 C-64.57149182 201.7908871 -68.99329001 204.01105534 -73.43603516 206.33642578 C-78.55661868 208.91532531 -83.32274023 209.63858521 -89 209.625 C-89.70302246 209.62338867 -90.40604492 209.62177734 -91.13037109 209.62011719 C-103.4700717 209.33123735 -111.98593258 202.8742447 -120.25 194.25 C-120.75015625 193.75371094 -121.2503125 193.25742187 -121.765625 192.74609375 C-125.91577668 188.56317772 -129.16612974 184.80698735 -131.25 179.25 C-132.52063118 177.38667824 -133.85387376 175.59003738 -135.2265625 173.80078125 C-136.25 172.25 -136.25 172.25 -136.25 170.25 C-136.91 170.25 -137.57 170.25 -138.25 170.25 C-139.9765625 167.984375 -139.9765625 167.984375 -141.875 165 C-142.50664062 164.02546875 -143.13828125 163.0509375 -143.7890625 162.046875 C-145.25 159.25 -145.25 159.25 -145.25 155.25 C-145.91 155.25 -146.57 155.25 -147.25 155.25 C-147.65992188 154.05761719 -148.06984375 152.86523438 -148.4921875 151.63671875 C-149.03623569 150.07023516 -149.5805188 148.50383314 -150.125 146.9375 C-150.39441406 146.15181641 -150.66382813 145.36613281 -150.94140625 144.55664062 C-151.20566406 143.79931641 -151.46992188 143.04199219 -151.7421875 142.26171875 C-152.10352783 141.21697388 -152.10352783 141.21697388 -152.47216797 140.15112305 C-153.28765424 137.97867697 -153.28765424 137.97867697 -155.25 135.25 C-159.11716173 122.06992972 -162.18986752 108.020337 -162.25 94.25 C-162.26224609 93.42693359 -162.27449219 92.60386719 -162.28710938 91.75585938 C-162.64968708 67.25596582 -161.30979461 43.62655684 -144.25 24.25 C-143.65574219 23.57453125 -143.06148437 22.8990625 -142.44921875 22.203125 C-137.62780909 17.06286461 -132.38603178 13.64333568 -126.25 10.25 C-125.36699219 9.69957031 -124.48398438 9.14914062 -123.57421875 8.58203125 C-121.25 7.25 -121.25 7.25 -119.25 7.25 C-118.92 6.26 -118.59 5.27 -118.25 4.25 C-97.70009098 -0.12010723 -80.14660766 -1.03443599 -61.65625 10.453125 C-55.99894196 13.43748474 -50.49014903 12.96733856 -44.25 12.25 C-41.56298871 11.41777289 -39.12557112 10.40076555 -36.58203125 9.20703125 C-32.85084418 7.67580707 -29.25376114 7.50830717 -25.25 7.25 C-25.25 6.59 -25.25 5.93 -25.25 5.25 C-23.93 5.25 -22.61 5.25 -21.25 5.25 C-21.25 4.26 -21.25 3.27 -21.25 2.25 C-14.13118151 0.0407115 -7.41870352 -0.04967882 0 0 Z " fill="#1A1915" transform="translate(273.25,427.75)"/>
<path d="M0 0 C13.86 0 27.72 0 42 0 C42.495 3.465 42.495 3.465 43 7 C43.66 7 44.32 7 45 7 C46.49247954 11.13951872 47.88001645 15.05727214 48.4375 19.4375 C48.94085641 22.6254239 49.67264618 24.76717573 50.9375 27.6875 C52.53911378 31.44731674 53.33120124 34.75889488 53.8125 38.8125 C54.49658088 43.68813101 55.95199769 47.06946677 58.4375 51.3125 C62.84425147 58.90496555 65 67.17037581 65 76 C65.66 76 66.32 76 67 76 C69.38182546 79.57273819 69.83846302 82.85379787 70.5 87 C70.75627413 88.52998751 71.01278502 90.05993539 71.26953125 91.58984375 C71.39279785 92.33862793 71.51606445 93.08741211 71.64306641 93.85888672 C72.12764953 96.76572257 72.65468924 99.66416063 73.1875 102.5625 C73.34605469 103.43003906 73.50460937 104.29757812 73.66796875 105.19140625 C73.83232422 106.08666016 73.83232422 106.08666016 74 107 C74.66 107 75.32 107 76 107 C76 108.98 76 110.96 76 113 C76.66 113 77.32 113 78 113 C78.16604736 113.52843506 78.33209473 114.05687012 78.50317383 114.60131836 C79.27215544 117.04696262 80.04232254 119.49223208 80.8125 121.9375 C81.20405273 123.18370117 81.20405273 123.18370117 81.60351562 124.45507812 C83.14975752 129.36105549 84.74866273 134.2394224 86.45581055 139.09204102 C87 141 87 141 87 144 C87.99 144 88.98 144 90 144 C90.12375 143.030625 90.2475 142.06125 90.375 141.0625 C92.05950798 129.52829953 92.05950798 129.52829953 94.5 125.5625 C96.00147712 122.99747659 96.37444634 121.43143871 96.86328125 118.546875 C97.97038863 112.7363942 99.76212381 107.27182687 101.6875 101.6875 C102.40251545 99.58078743 103.11735556 97.47401535 103.83203125 95.3671875 C104.19248535 94.31112305 104.55293945 93.25505859 104.92431641 92.16699219 C106.89914805 86.35275795 108.81677773 80.51938784 110.7409668 74.68823242 C111.7895228 71.53123887 112.82847572 68.41274924 114.10546875 65.33984375 C115.24579259 62.35707529 115.82156093 59.38189357 116.4375 56.25 C117.59411048 50.64397983 119.05271955 45.37820315 121 40 C121.66 40 122.32 40 123 40 C123.12375 38.9275 123.2475 37.855 123.375 36.75 C123.57829263 35.16601158 123.78735439 33.58275995 124 32 C124.1340625 31.00097656 124.268125 30.00195312 124.40625 28.97265625 C124.5609375 27.92980469 124.715625 26.88695312 124.875 25.8125 C125.01679687 24.82894531 125.15859375 23.84539062 125.3046875 22.83203125 C126.06469007 19.73651514 127.12811218 17.57266994 129 15 C129.66 15 130.32 15 131 15 C131.1546875 13.4840625 131.1546875 13.4840625 131.3125 11.9375 C132.01399283 7.91985926 132.99434391 3.00565609 136 0 C138.8116338 -0.08861992 141.59858255 -0.11522355 144.41015625 -0.09765625 C145.25219101 -0.0962413 146.09422577 -0.09482635 146.96177673 -0.09336853 C149.66205335 -0.08775263 152.36224828 -0.07519748 155.0625 -0.0625 C156.88867068 -0.05748705 158.71484266 -0.05292379 160.54101562 -0.04882812 C165.02737542 -0.03777804 169.51367384 -0.02050279 174 0 C175.14407587 3.8447697 174.63093421 5.69343599 173.125 9.4375 C171.72346869 12.96093012 170.63848347 16.25740007 170 20 C169.34 20 168.68 20 168 20 C167.86722656 20.68707031 167.73445312 21.37414062 167.59765625 22.08203125 C167.42105469 22.98308594 167.24445313 23.88414062 167.0625 24.8125 C166.88847656 25.70582031 166.71445312 26.59914063 166.53515625 27.51953125 C165.43421829 32.62241888 165.43421829 32.62241888 163.5625 34.25 C161.70383298 36.33170706 161.20759319 38.30500688 160.53125 40.9765625 C159.94998084 43.19051416 159.23928973 45.3338811 158.5 47.5 C157.59614069 50.16211298 156.79103815 52.78012425 156.0625 55.5 C155.21987068 58.27572012 154.29372057 60.58981115 153.0625 63.1875 C150.99155228 67.67455339 149.85965172 72.18991943 148.80859375 77.0078125 C147.86083354 80.51498314 146.45488179 83.67200259 145 87 C143.99438705 89.67123359 143.05930358 92.36561837 142.125 95.0625 C141.8681543 95.79404297 141.61130859 96.52558594 141.34667969 97.27929688 C140.07239847 100.90887717 138.81299249 104.54307866 137.5703125 108.18359375 C137.13021937 109.45573299 136.69011576 110.72786859 136.25 112 C135.86328125 113.134375 135.4765625 114.26875 135.078125 115.4375 C134 118 134 118 132 119 C131.43914377 120.99970206 130.9760959 123.0272343 130.5625 125.0625 C129.66332492 129.46588883 128.49397409 133.54112687 126.86303711 137.73071289 C125.86805335 140.34694316 124.96260008 142.98636269 124.0625 145.63671875 C123.72476563 146.62607422 123.38703125 147.61542969 123.0390625 148.63476562 C122.34277851 150.68042706 121.65010464 152.72732062 120.9609375 154.77539062 C120.62320313 155.76087891 120.28546875 156.74636719 119.9375 157.76171875 C119.63714844 158.64819092 119.33679688 159.53466309 119.02734375 160.44799805 C117.93411073 163.16367409 116.51124305 165.49827835 115 168 C114.35904196 170.24994735 113.79794856 172.5239568 113.3125 174.8125 C113.06113281 175.97394531 112.80976562 177.13539063 112.55078125 178.33203125 C112.36902344 179.21246094 112.18726563 180.09289062 112 181 C111.34 181 110.68 181 110 181 C109.67 182.65 109.34 184.3 109 186 C95.47 186 81.94 186 68 186 C66.0044484 182.00889681 65.80453935 180.30013434 66 176 C65.34 176 64.68 176 64 176 C63.87882813 175.43410156 63.75765625 174.86820313 63.6328125 174.28515625 C63.46523438 173.55167969 63.29765625 172.81820312 63.125 172.0625 C62.88136719 170.96615234 62.88136719 170.96615234 62.6328125 169.84765625 C62.17038477 167.79299706 62.17038477 167.79299706 60 167 C57.7609833 161.61236607 56.12047074 155.97240414 55 150.25 C54.21916473 146.34582367 52.75443304 143.18487028 50.8046875 139.7265625 C50 138 50 138 50 135 C49.34 135 48.68 135 48 135 C47.34 131.7 46.68 128.4 46 125 C45.34 125 44.68 125 44 125 C42.68 119.06 41.36 113.12 40 107 C39.34 107 38.68 107 38 107 C36.40861915 102.82262526 35.78721942 99.46839215 36 95 C35.34 95 34.68 95 34 95 C33.82984375 94.29875 33.6596875 93.5975 33.484375 92.875 C31.82154376 86.33944857 31.82154376 86.33944857 29.125 80.1875 C24.45575548 71.47515486 19 59.03673632 19 49 C18.34 49 17.68 49 17 49 C16.8046875 47.01432292 16.609375 45.02864583 16.4140625 43.04296875 C16.07334609 40.70011858 16.07334609 40.70011858 14 38 C13.52980311 36.38789637 13.06436632 34.77417536 12.62890625 33.15234375 C11.08846801 27.88040915 9.06524882 22.73728495 7.07421875 17.62109375 C5.89978753 14.59874231 5 12.27461943 5 9 C4.01 8.67 3.02 8.34 2 8 C0.5522078 5.10441559 0 3.25811062 0 0 Z " fill="#1B1A16" transform="translate(508,449)"/>
<path d="M0 0 C11.88 0 23.76 0 36 0 C36 24.42 36 48.84 36 74 C59.65027987 73.96038559 59.65027987 73.96038559 83.30053711 73.90991211 C87.86633301 73.90539551 87.86633301 73.90539551 90.00123596 73.90455627 C91.4978617 73.90301692 92.99448617 73.89949216 94.49110413 73.89442444 C96.75312467 73.88714541 99.01506918 73.88609263 101.27709961 73.88647461 C102.55395126 73.884254 103.83080292 73.88203339 105.14634705 73.87974548 C108 74 108 74 109 75 C109.10087212 77.50924153 109.13972032 79.99036384 109.1328125 82.5 C109.13376923 83.25087891 109.13472595 84.00175781 109.13571167 84.77539062 C109.13639338 86.36588627 109.13453972 87.95638467 109.13037109 89.546875 C109.12502267 91.98964655 109.13031634 94.43223421 109.13671875 96.875 C109.13605797 98.41666707 109.1347768 99.95833403 109.1328125 101.5 C109.13483673 102.23541016 109.13686096 102.97082031 109.13894653 103.72851562 C109.11495161 108.88504839 109.11495161 108.88504839 108 110 C105.73008113 110.09439978 103.45718033 110.11742226 101.18530273 110.11352539 C100.0997376 110.11370619 100.0997376 110.11370619 98.99224186 110.11389065 C96.63932837 110.11314163 94.28649315 110.10551393 91.93359375 110.09765625 C90.48506712 110.0961868 89.03653996 110.09516611 87.5880127 110.09460449 C82.20450039 110.08935201 76.82099943 110.07539092 71.4375 110.0625 C59.413125 110.041875 47.38875 110.02125 35 110 C35 134.42 35 158.84 35 184 C23.45 184 11.9 184 0 184 C0 159.58 0 135.16 0 110 C-23.97938127 110.03961457 -23.97938127 110.03961457 -47.95874023 110.09008789 C-52.5880127 110.09460449 -52.5880127 110.09460449 -54.75257874 110.09544373 C-56.27003777 110.09698311 -57.78749555 110.10050792 -59.3049469 110.10557556 C-61.59842059 110.11285438 -63.89181929 110.11390737 -66.18530273 110.11352539 C-68.12722755 110.11685631 -68.12722755 110.11685631 -70.10838318 110.12025452 C-73 110 -73 110 -74 109 C-74.10087212 106.49075847 -74.13972032 104.00963616 -74.1328125 101.5 C-74.13376923 100.74912109 -74.13472595 99.99824219 -74.13571167 99.22460938 C-74.13639338 97.63411373 -74.13453972 96.04361533 -74.13037109 94.453125 C-74.12502267 92.01035345 -74.13031634 89.56776579 -74.13671875 87.125 C-74.13605797 85.58333293 -74.1347768 84.04166597 -74.1328125 82.5 C-74.13483673 81.76458984 -74.13686096 81.02917969 -74.13894653 80.27148438 C-74.11495161 75.11495161 -74.11495161 75.11495161 -73 74 C-70.76070114 73.90563471 -68.5183825 73.88257673 -66.27709961 73.88647461 C-65.5746965 73.88632858 -64.8722934 73.88618256 -64.14860535 73.8860321 C-61.81648722 73.88673128 -59.484448 73.89452383 -57.15234375 73.90234375 C-55.53951562 73.90420792 -53.92668693 73.90563182 -52.31385803 73.90663147 C-48.06084643 73.91045677 -43.80786876 73.92028715 -39.55487061 73.93133545 C-35.2182257 73.94154931 -30.88157533 73.94612904 -26.54492188 73.95117188 C-18.02993231 73.96190941 -9.51497037 73.97898597 -1 74 C-1.00222061 73.08767105 -1.00444122 72.1753421 -1.00672913 71.23536682 C-1.02672928 62.65616723 -1.04197272 54.07697542 -1.05181217 45.49775791 C-1.05704069 41.08662996 -1.06413777 36.6755212 -1.07543945 32.2644043 C-1.08626944 28.01098885 -1.09227707 23.75759191 -1.09487724 19.50416374 C-1.09673129 17.87778367 -1.10035152 16.25140466 -1.10573006 14.62503242 C-1.11294198 12.35489807 -1.11399088 10.08484115 -1.11352539 7.81469727 C-1.115746 6.52008072 -1.11796661 5.22546417 -1.12025452 3.89161682 C-1 1 -1 1 0 0 Z " fill="#1A1815" transform="translate(781,449)"/>
<path d="M0 0 C9.3740625 -0.0309375 9.3740625 -0.0309375 18.9375 -0.0625 C20.91226318 -0.071604 22.88702637 -0.08070801 24.92163086 -0.09008789 C26.47770113 -0.09300705 28.03377216 -0.09555561 29.58984375 -0.09765625 C30.40521606 -0.10277222 31.22058838 -0.10788818 32.06066895 -0.11315918 C34.04080523 -0.1134694 36.02084654 -0.06238096 38 0 C40.15456969 2.15456969 39.26026626 7.0711627 39.31640625 10.06640625 C39.33718735 10.97502914 39.35796844 11.88365204 39.37937927 12.81980896 C39.44497672 15.73395946 39.5038068 18.64820304 39.5625 21.5625 C39.60567554 23.53321291 39.64928951 25.50391626 39.69335938 27.47460938 C39.80149686 32.31631209 39.90049402 37.15808128 40 42 C51.22 42.33 62.44 42.66 74 43 C74 53.56 74 64.12 74 75 C62.78 75.33 51.56 75.66 40 76 C39.93220165 89.96055037 39.87717062 103.92099124 39.84456348 117.88166904 C39.82891309 124.36429019 39.80768586 130.84679278 39.77368164 137.3293457 C39.74106644 143.58630983 39.72314227 149.84315998 39.71536827 156.10020256 C39.70982869 158.4863966 39.69901128 160.87258446 39.68280983 163.25872993 C39.66100735 166.6030433 39.65803433 169.94688667 39.65942383 173.29125977 C39.648638 174.2759726 39.63785217 175.26068542 39.6267395 176.27523804 C39.65896195 183.45069259 40.97678804 187.96518206 45 194 C50.87490786 197.28464304 56.29825414 197.52866637 62.9375 197.6875 C63.90751953 197.72166016 64.87753906 197.75582031 65.87695312 197.79101562 C68.25118637 197.87288574 70.62507877 197.94223078 73 198 C73.02465622 202.25414623 73.04283899 206.50825498 73.05493164 210.76245117 C73.05997101 212.21070073 73.06680253 213.65894517 73.07543945 215.10717773 C73.08752247 217.18474588 73.09323211 219.26224697 73.09765625 221.33984375 C73.10289307 222.59144287 73.10812988 223.84304199 73.11352539 225.13256836 C73 228 73 228 72 229 C66.6763475 229.34631797 61.33398513 229.34605814 56 229.375 C54.83334808 229.3813446 54.83334808 229.3813446 53.64312744 229.38781738 C42.02753593 229.40649342 31.77161112 228.69984546 21 224 C20.15308594 223.67773438 19.30617188 223.35546875 18.43359375 223.0234375 C10.29229414 219.57500489 5.49580335 211.80222777 2 204 C-0.30382745 197.65464463 -0.27026536 191.71089963 -0.22705078 185.00610352 C-0.22734283 183.81514572 -0.22763489 182.62418793 -0.22793579 181.3971405 C-0.22678554 178.14965486 -0.21679153 174.90234414 -0.20278788 171.65489316 C-0.19024058 168.2543065 -0.18910688 164.85371598 -0.18673706 161.45310974 C-0.180534 155.02177037 -0.16413917 148.59049943 -0.14403808 142.15919012 C-0.12164243 134.83390475 -0.11067645 127.50861602 -0.10064721 120.18330491 C-0.07977182 105.12215895 -0.04311036 90.0611018 0 75 C-8.58 75 -17.16 75 -26 75 C-26 64.44 -26 53.88 -26 43 C-17.42 43 -8.84 43 0 43 C0 28.81 0 14.62 0 0 Z " fill="#1C1A16" transform="translate(416,406)"/>
<path d="M0 0 C0.64151474 11.40470641 -0.25726711 23.80794253 -6 34 C-6.66 34 -7.32 34 -8 34 C-8 35.32 -8 36.64 -8 38 C-8.66 38 -9.32 38 -10 38 C-10.10828125 39.07894531 -10.10828125 39.07894531 -10.21875 40.1796875 C-11.76363584 45.75672538 -16.61710782 49.45901932 -21 53 C-23.33290023 54.11444278 -25.47395317 54.80671473 -27.9765625 55.42578125 C-31.04400279 56.29627106 -33.37339073 58.22989375 -36 60 C-42.30487617 62.52195047 -48.3070659 62.15040301 -55 62 C-55 56.06 -55 50.12 -55 44 C-54.34 44 -53.68 44 -53 44 C-52.90203125 43.43152344 -52.8040625 42.86304688 -52.703125 42.27734375 C-50.7027186 31.94765896 -44.73559791 23.91887862 -38 16 C-37.34 16 -36.68 16 -36 16 C-36 15.34 -36 14.68 -36 14 C-34.390625 12.52734375 -34.390625 12.52734375 -32.25 10.9375 C-31.20585937 10.14666016 -31.20585937 10.14666016 -30.140625 9.33984375 C-28.04902334 8.03068432 -26.40999065 7.43966046 -24 7 C-24 6.01 -24 5.02 -24 4 C-15.83111684 0.99339717 -8.74531925 -0.05242997 0 0 Z " fill="#1F1E1B" transform="translate(276,364)"/>
<path d="M0 0 C11.88 0 23.76 0 36 0 C36 24.42 36 48.84 36 74 C59.76 74 83.52 74 108 74 C108 74.33 108 74.66 108 75 C98.49933813 75.15358747 88.9986121 75.30176918 79.49775791 75.4429636 C75.08659293 75.50869071 70.67547361 75.57631138 66.2644043 75.64819336 C62.0110492 75.71743668 57.75764616 75.78179253 53.50416374 75.84269524 C51.8777591 75.86685423 50.25138008 75.89280327 48.62503242 75.92053413 C46.3549615 75.95894151 44.08488456 75.99110193 41.81469727 76.02172852 C40.52008072 76.04171402 39.22546417 76.06169952 37.89161682 76.08229065 C35 76 35 76 34 75 C33.90560022 72.73008113 33.88257774 70.45718033 33.88647461 68.18530273 C33.88632858 67.47314606 33.88618256 66.76098938 33.8860321 66.0272522 C33.8867313 63.66266888 33.89452394 61.29816339 33.90234375 58.93359375 C33.90420791 57.29834537 33.90563182 55.66309643 33.90663147 54.02784729 C33.91045682 49.71565215 33.92028725 45.40349048 33.93133545 41.09130859 C33.94334373 35.9218032 33.94795173 30.75228664 33.95378876 25.5827713 C33.963499 17.72182423 33.98265542 9.86095065 34 2 C17.665 2.495 17.665 2.495 1 3 C0.67 27.09 0.34 51.18 0 76 C-23.76 76 -47.52 76 -72 76 C-72 86.56 -72 97.12 -72 108 C-64.81476562 107.96519531 -64.81476562 107.96519531 -57.484375 107.9296875 C-54.44921333 107.9194681 -51.41407288 107.90984015 -48.37890625 107.90234375 C-43.56164137 107.89038946 -38.74445254 107.87624927 -33.92724609 107.84912109 C-30.04339006 107.82738604 -26.15961559 107.81542997 -22.27570343 107.81024551 C-20.79413825 107.80655095 -19.31257751 107.79933638 -17.83104706 107.78853989 C-15.75543073 107.774016 -13.68015118 107.77202241 -11.60449219 107.77294922 C-10.42312683 107.768508 -9.24176147 107.76406677 -8.02459717 107.75949097 C-5.11011435 107.99124396 -3.45616988 108.4744923 -1 110 C-10.37035938 110.02312504 -19.74070901 110.04091591 -29.11109066 110.05181217 C-33.46168459 110.05704065 -37.81225907 110.06413765 -42.1628418 110.07543945 C-46.35790258 110.08626959 -50.55294459 110.0922771 -54.74801826 110.09487724 C-56.35206968 110.09673126 -57.95612003 110.10035144 -59.5601635 110.10573006 C-61.79916515 110.11294219 -64.0380883 110.11399087 -66.27709961 110.11352539 C-67.55395126 110.115746 -68.83080292 110.11796661 -70.14634705 110.12025452 C-73 110 -73 110 -74 109 C-74.10087212 106.49075847 -74.13972032 104.00963616 -74.1328125 101.5 C-74.13376923 100.74912109 -74.13472595 99.99824219 -74.13571167 99.22460938 C-74.13639338 97.63411373 -74.13453972 96.04361533 -74.13037109 94.453125 C-74.12502267 92.01035345 -74.13031634 89.56776579 -74.13671875 87.125 C-74.13605797 85.58333293 -74.1347768 84.04166597 -74.1328125 82.5 C-74.13483673 81.76458984 -74.13686096 81.02917969 -74.13894653 80.27148438 C-74.11495161 75.11495161 -74.11495161 75.11495161 -73 74 C-70.76070114 73.90563471 -68.5183825 73.88257673 -66.27709961 73.88647461 C-65.5746965 73.88632858 -64.8722934 73.88618256 -64.14860535 73.8860321 C-61.81648722 73.88673128 -59.484448 73.89452383 -57.15234375 73.90234375 C-55.53951562 73.90420792 -53.92668693 73.90563182 -52.31385803 73.90663147 C-48.06084643 73.91045677 -43.80786876 73.92028715 -39.55487061 73.93133545 C-35.2182257 73.94154931 -30.88157533 73.94612904 -26.54492188 73.95117188 C-18.02993231 73.96190941 -9.51497037 73.97898597 -1 74 C-1.00222061 73.08767105 -1.00444122 72.1753421 -1.00672913 71.23536682 C-1.02672928 62.65616723 -1.04197272 54.07697542 -1.05181217 45.49775791 C-1.05704069 41.08662996 -1.06413777 36.6755212 -1.07543945 32.2644043 C-1.08626944 28.01098885 -1.09227707 23.75759191 -1.09487724 19.50416374 C-1.09673129 17.87778367 -1.10035152 16.25140466 -1.10573006 14.62503242 C-1.11294198 12.35489807 -1.11399088 10.08484115 -1.11352539 7.81469727 C-1.115746 6.52008072 -1.11796661 5.22546417 -1.12025452 3.89161682 C-1 1 -1 1 0 0 Z " fill="#666664" transform="translate(781,449)"/>
<path d="M0 0 C9.3740625 -0.0309375 9.3740625 -0.0309375 18.9375 -0.0625 C20.91226318 -0.071604 22.88702637 -0.08070801 24.92163086 -0.09008789 C26.47770113 -0.09300705 28.03377216 -0.09555561 29.58984375 -0.09765625 C30.81290222 -0.1053302 30.81290222 -0.1053302 32.06066895 -0.11315918 C34.04080523 -0.1134694 36.02084654 -0.06238096 38 0 C40.15456969 2.15456969 39.26026626 7.0711627 39.31640625 10.06640625 C39.33718735 10.97502914 39.35796844 11.88365204 39.37937927 12.81980896 C39.44497672 15.73395946 39.5038068 18.64820304 39.5625 21.5625 C39.60567554 23.53321291 39.64928951 25.50391626 39.69335938 27.47460938 C39.80149686 32.31631209 39.90049402 37.15808128 40 42 C51.22 42.33 62.44 42.66 74 43 C74 53.56 74 64.12 74 75 C62.78 75.33 51.56 75.66 40 76 C39.67 111.31 39.34 146.62 39 183 C38.34 182.67 37.68 182.34 37 182 C36.97666971 167.80543958 36.9590866 153.61088213 36.94818783 139.4163065 C36.94295828 132.82595215 36.93585933 126.23561063 36.92456055 119.64526367 C36.91373422 113.29107982 36.90772371 106.93690835 36.90512276 100.58271599 C36.90326805 98.15250389 36.89964657 95.72229251 36.89426994 93.29208565 C36.88706289 89.90117019 36.88600892 86.51030659 36.88647461 83.11938477 C36.88287933 82.10374954 36.87928406 81.08811432 36.87557983 80.04170227 C36.8769545 79.12318481 36.87832916 78.20466736 36.87974548 77.25831604 C36.87882369 76.45543435 36.8779019 75.65255266 36.87695217 74.82534122 C37 73 37 73 38 72 C40.52094076 71.91152257 43.01430893 71.88472699 45.53515625 71.90234375 C46.66503212 71.90446617 46.66503212 71.90446617 47.81773376 71.90663147 C50.2326956 71.91224624 52.64756601 71.92480117 55.0625 71.9375 C56.69596221 71.9425131 58.32942586 71.94707634 59.96289062 71.95117188 C63.9753243 71.96137125 67.98755936 71.98094355 72 72 C72 63.09 72 54.18 72 45 C54.675 45.495 54.675 45.495 37 46 C37 31.48 37 16.96 37 2 C25.45 2 13.9 2 2 2 C2 15.53 2 29.06 2 43 C1.34 43 0.68 43 0 43 C0 28.81 0 14.62 0 0 Z " fill="#6F6D6B" transform="translate(416,406)"/>
<path d="M0 0 C10.89 0 21.78 0 33 0 C33 23.76 33 47.52 33 72 C32.01 72.495 32.01 72.495 31 73 C30.67 49.9 30.34 26.8 30 3 C20.76 3 11.52 3 2 3 C2 25.77 2 48.54 2 72 C1.34 72 0.68 72 0 72 C0 48.24 0 24.48 0 0 Z " fill="#0F0F0C" transform="translate(782,451)"/>
<path d="M0 0 C11.88 0 23.76 0 36 0 C36 24.42 36 48.84 36 74 C59.76 74 83.52 74 108 74 C108 74.33 108 74.66 108 75 C98.49933813 75.15358747 88.9986121 75.30176918 79.49775791 75.4429636 C75.08659293 75.50869071 70.67547361 75.57631138 66.2644043 75.64819336 C62.0110492 75.71743668 57.75764616 75.78179253 53.50416374 75.84269524 C51.8777591 75.86685423 50.25138008 75.89280327 48.62503242 75.92053413 C46.3549615 75.95894151 44.08488456 75.99110193 41.81469727 76.02172852 C40.52008072 76.04171402 39.22546417 76.06169952 37.89161682 76.08229065 C35 76 35 76 34 75 C33.90560022 72.73008113 33.88257774 70.45718033 33.88647461 68.18530273 C33.88632858 67.47314606 33.88618256 66.76098938 33.8860321 66.0272522 C33.8867313 63.66266888 33.89452394 61.29816339 33.90234375 58.93359375 C33.90420791 57.29834537 33.90563182 55.66309643 33.90663147 54.02784729 C33.91045682 49.71565215 33.92028725 45.40349048 33.93133545 41.09130859 C33.94334373 35.9218032 33.94795173 30.75228664 33.95378876 25.5827713 C33.963499 17.72182423 33.98265542 9.86095065 34 2 C22.78 2.33 11.56 2.66 0 3 C0 2.01 0 1.02 0 0 Z " fill="#7D7D7B" transform="translate(781,449)"/>
<path d="M0 0 C24.09 0 48.18 0 73 0 C73 11.22 73 22.44 73 34 C72 35 72 35 69.10838318 35.12025452 C67.81376663 35.11803391 66.51915009 35.11581329 65.18530273 35.11352539 C64.11706772 35.11374443 64.11706772 35.11374443 63.0272522 35.1139679 C60.66266888 35.1132687 58.29816339 35.10547606 55.93359375 35.09765625 C54.29834537 35.09579209 52.66309643 35.09436818 51.02784729 35.09336853 C46.71565215 35.08954318 42.40349048 35.07971275 38.09130859 35.06866455 C33.69434054 35.0584508 29.29736711 35.05387099 24.90039062 35.04882812 C16.26691169 35.03809049 7.63346 35.02101387 -1 35 C-1 34.34 -1 33.68 -1 33 C22.76 33 46.52 33 71 33 C71 22.44 71 11.88 71 1 C47.57 1 24.14 1 0 1 C0 0.67 0 0.34 0 0 Z " fill="#4B4A47" transform="translate(817,524)"/>
<path d="M0 0 C0.99 0.495 0.99 0.495 2 1 C2.33 37.63 2.66 74.26 3 112 C2.34 110.68 1.68 109.36 1 108 C0.67 107.67 0.34 107.34 0 107 C-0.09543095 105.60856311 -0.12188575 104.21231633 -0.12025452 102.81761169 C-0.12162918 101.91592255 -0.12300385 101.0142334 -0.12442017 100.08522034 C-0.12082489 99.08828659 -0.11722961 98.09135284 -0.11352539 97.06420898 C-0.11367142 96.02043091 -0.11381744 94.97665283 -0.1139679 93.90124512 C-0.11326826 90.43284057 -0.10547353 86.96448897 -0.09765625 83.49609375 C-0.09579225 81.09855682 -0.09436826 78.7010195 -0.09336853 76.30348206 C-0.08954194 69.97904416 -0.07971046 63.65462906 -0.06866455 57.3302002 C-0.05845345 50.88224598 -0.05387156 44.43428809 -0.04882812 37.98632812 C-0.03808832 25.324209 -0.02120119 12.66210571 0 0 Z " fill="#0B0907" transform="translate(451,482)"/>
<path d="M0 0 C11.55 0 23.1 0 35 0 C35 13.2 35 26.4 35 40 C34.01 40.495 34.01 40.495 33 41 C33 28.13 33 15.26 33 2 C22.77 2 12.54 2 2 2 C2 14.54 2 27.08 2 40 C1.67 40 1.34 40 1 40 C0.25331277 34.68792752 -0.11933785 29.5957861 -0.09765625 24.21875 C-0.09515869 22.93935547 -0.09266113 21.65996094 -0.09008789 20.34179688 C-0.08098389 18.74400391 -0.07187988 17.14621094 -0.0625 15.5 C-0.0315625 7.8275 -0.0315625 7.8275 0 0 Z " fill="#0A0907" transform="translate(418,408)"/>
<path d="M0 0 C12.54 0 25.08 0 38 0 C38 14.19 38 28.38 38 43 C37.67 43 37.34 43 37 43 C37 29.47 37 15.94 37 2 C25.45 2 13.9 2 2 2 C2 15.53 2 29.06 2 43 C1.34 43 0.68 43 0 43 C0 28.81 0 14.62 0 0 Z " fill="#4C4C49" transform="translate(416,406)"/>
<path d="M0 0 C0.99 0.33 1.98 0.66 3 1 C2.67 1.66 2.34 2.32 2 3 C1.87879701 5.30724017 1.8224643 7.61796828 1.79467773 9.92822266 C1.77982834 10.99667671 1.77982834 10.99667671 1.76467896 12.0867157 C1.73304142 14.44579726 1.7082977 16.80489897 1.68359375 19.1640625 C1.66302616 20.79788747 1.64202974 22.43170708 1.62062073 24.06552124 C1.56537987 28.36942216 1.5159795 32.67337126 1.46777344 36.97735596 C1.4175731 41.36776018 1.36187939 45.75809429 1.30664062 50.1484375 C1.1990344 58.76556737 1.09810245 67.38275668 1 76 C-10.385 75.505 -10.385 75.505 -22 75 C-22 74.67 -22 74.34 -22 74 C-12.1 73.505 -12.1 73.505 -2 73 C-1.96241577 69.84280396 -1.96241577 69.84280396 -1.92407227 66.62182617 C-1.84064951 59.67277173 -1.75195699 52.72379178 -1.66066074 45.77483654 C-1.60546249 41.56109924 -1.55204741 37.34735496 -1.50268555 33.13354492 C-1.45499634 29.06809236 -1.40265184 25.00272411 -1.34705925 20.93737221 C-1.32665636 19.38523771 -1.30793986 17.83308011 -1.29092598 16.28090477 C-1.26683622 14.10930395 -1.23678801 11.93786213 -1.20532227 9.76635742 C-1.18977798 8.52947678 -1.1742337 7.29259613 -1.15821838 6.01823425 C-1 3 -1 3 0 0 Z " fill="#13110E" transform="translate(814,556)"/>
<path d="M0 0 C0.66 0 1.32 0 2 0 C2 22.11 2 44.22 2 67 C3.98 67 5.96 67 8 67 C8 67.66 8 68.32 8 69 C5.36 69 2.72 69 0 69 C0 46.23 0 23.46 0 0 Z " fill="#0C0C09" transform="translate(782,562)"/>
<path d="M0 0 C-3.42943519 1.18771723 -5.37784675 0.80226223 -8.75 -0.4375 C-9.54921875 -0.72496094 -10.3484375 -1.01242187 -11.171875 -1.30859375 C-11.77515625 -1.53675781 -12.3784375 -1.76492188 -13 -2 C-13 -1.67 -13 -1.34 -13 -1 C-13.77077881 -1.00523682 -14.54155762 -1.01047363 -15.33569336 -1.01586914 C-18.86962042 -1.03681447 -22.40353436 -1.04971563 -25.9375 -1.0625 C-27.14986328 -1.07087891 -28.36222656 -1.07925781 -29.61132812 -1.08789062 C-36.16625712 -1.10565466 -42.50401275 -0.88995726 -49 0 C-48.67 -0.66 -48.34 -1.32 -48 -2 C-31.83601936 -6.32361691 -15.2578818 -7.54806874 0 0 Z " fill="#50504C" transform="translate(203,434)"/>
<path d="M0 0 C1.60279192 0.00015914 3.20558896 0.00585476 4.80834961 0.01586914 C5.65038437 0.01728409 6.49241913 0.01869904 7.35997009 0.02015686 C10.06024671 0.02577276 12.76044163 0.03832791 15.46069336 0.05102539 C17.28686404 0.05603834 19.11303602 0.06060161 20.93920898 0.06469727 C25.42556878 0.07574735 29.9118672 0.0930226 34.39819336 0.11352539 C34.39819336 0.44352539 34.39819336 0.77352539 34.39819336 1.11352539 C22.18819336 1.44352539 9.97819336 1.77352539 -2.60180664 2.11352539 C-2.93180664 4.42352539 -3.26180664 6.73352539 -3.60180664 9.11352539 C-3.92146803 10.78286822 -4.2491173 12.45084709 -4.60180664 14.11352539 C-5.59180664 13.78352539 -6.58180664 13.45352539 -7.60180664 13.11352539 C-7.7371582 13.69618164 -7.87250977 14.27883789 -8.01196289 14.87915039 C-8.56060302 16.95744282 -9.2440465 18.86919427 -10.03930664 20.86352539 C-11.09936925 23.63203842 -11.96873052 26.35685288 -12.66430664 29.23852539 C-13.48083874 32.61352473 -14.45570655 35.83895371 -15.60180664 39.11352539 C-17.09458986 35.23228901 -15.90211486 32.94221072 -14.60180664 29.11352539 C-14.42749718 27.5956922 -14.28322556 26.0741996 -14.16430664 24.55102539 C-13.80462794 20.74870771 -13.0575823 18.15868721 -10.60180664 15.11352539 C-9.94180664 15.11352539 -9.28180664 15.11352539 -8.60180664 15.11352539 C-8.49868164 14.10290039 -8.39555664 13.09227539 -8.28930664 12.05102539 C-6.21938662 0.19602893 -6.21938662 0.19602893 0 0 Z " fill="#585856" transform="translate(647.601806640625,448.886474609375)"/>
<path d="M0 0 C8.25 0 16.5 0 25 0 C25 0.33 25 0.66 25 1 C21.72922836 1.16789217 18.45837336 1.33410238 15.1875 1.5 C14.25873047 1.54769531 13.32996094 1.59539062 12.37304688 1.64453125 C11.48037109 1.68964844 10.58769531 1.73476563 9.66796875 1.78125 C8.84578857 1.82314453 8.0236084 1.86503906 7.17651367 1.90820312 C5.45227071 1.98092498 3.72577585 2 2 2 C2.33 9.59 2.66 17.18 3 25 C10.26 25 17.52 25 25 25 C25 25.66 25 26.32 25 27 C12.625 27.495 12.625 27.495 0 28 C0 18.76 0 9.52 0 0 Z " fill="#070705" transform="translate(391,451)"/>
<path d="M0 0 C0.66 0 1.32 0 2 0 C2 14.85 2 29.7 2 45 C1.34 44.67 0.68 44.34 0 44 C-2.45618081 36.43435665 -2.18116046 28.17035997 -2.1875 20.3125 C-2.18830566 19.31968018 -2.18911133 18.32686035 -2.18994141 17.30395508 C-2.13398919 10.13398919 -2.13398919 10.13398919 -1 9 C-0.76807135 7.48530552 -0.58784762 5.96245438 -0.4375 4.4375 C-0.35371094 3.61121094 -0.26992187 2.78492188 -0.18359375 1.93359375 C-0.12300781 1.29550781 -0.06242187 0.65742188 0 0 Z " fill="#121311" transform="translate(113,490)"/>
<path d="M0 0 C0.33 0 0.66 0 1 0 C1 9.24 1 18.48 1 28 C-8 29.125 -8 29.125 -12.59375 29.09765625 C-13.56054688 29.09443359 -14.52734375 29.09121094 -15.5234375 29.08789062 C-16.50570313 29.07951172 -17.48796875 29.07113281 -18.5 29.0625 C-19.51320313 29.05798828 -20.52640625 29.05347656 -21.5703125 29.04882812 C-24.04693827 29.03714593 -26.52343657 29.02076582 -29 29 C-29.33 28.34 -29.66 27.68 -30 27 C-29.26362305 26.97494385 -28.52724609 26.9498877 -27.76855469 26.92407227 C-24.42886622 26.80795727 -21.08944903 26.68530082 -17.75 26.5625 C-16.01169922 26.50352539 -16.01169922 26.50352539 -14.23828125 26.44335938 C-13.12324219 26.40146484 -12.00820313 26.35957031 -10.859375 26.31640625 C-9.31975098 26.26141968 -9.31975098 26.26141968 -7.74902344 26.20532227 C-5.36389113 26.02717872 -3.28700501 25.67222637 -1 25 C-1.00785522 24.07719238 -1.00785522 24.07719238 -1.01586914 23.13574219 C-1.03669371 20.34050524 -1.04967759 17.54528464 -1.0625 14.75 C-1.07087891 13.78191406 -1.07925781 12.81382812 -1.08789062 11.81640625 C-1.09272461 10.41455078 -1.09272461 10.41455078 -1.09765625 8.984375 C-1.10551147 7.69611816 -1.10551147 7.69611816 -1.11352539 6.38183594 C-1.00539986 4.11329256 -0.63582423 2.17368285 0 0 Z " fill="#0D0B07" transform="translate(487,605)"/>
<path d="M0 0 C13.86 0 27.72 0 42 0 C42.495 3.465 42.495 3.465 43 7 C42.01 7 41.02 7 40 7 C40.33 5.35 40.66 3.7 41 2 C28.79 2.33 16.58 2.66 4 3 C4 4.98 4 6.96 4 9 C1.18167487 7.59083743 0.97406539 5.92219617 0 3 C0 2.01 0 1.02 0 0 Z " fill="#5B5B59" transform="translate(508,449)"/>
<path d="M0 0 C11.88 0.33 23.76 0.66 36 1 C36 10.57 36 20.14 36 30 C24.45 30 12.9 30 1 30 C1 29.67 1 29.34 1 29 C12.22 29 23.44 29 35 29 C35 20.09 35 11.18 35 2 C17.675 2.495 17.675 2.495 0 3 C0 2.01 0 1.02 0 0 Z " fill="#2E2D2A" transform="translate(453,449)"/>
<path d="M0 0 C0.75 1.5625 0.75 1.5625 1 4 C0.05732355 5.58234975 -0.89145657 7.16147291 -1.875 8.71875 C-4.21711402 13.46803676 -4.97488338 18.83558675 -6 24 C-6.66 24 -7.32 24 -8 24 C-8.495 26.475 -8.495 26.475 -9 29 C-22.53 29 -36.06 29 -50 29 C-50 28.67 -50 28.34 -50 28 C-48.83952148 28.00636475 -47.67904297 28.01272949 -46.48339844 28.01928711 C-42.17411561 28.03372674 -37.86616602 28.00239024 -33.55712891 27.95727539 C-31.69291724 27.94414257 -29.82857524 27.94339518 -27.96435547 27.95532227 C-25.28222189 27.97032621 -22.60371154 27.9406741 -19.921875 27.90234375 C-19.08944275 27.91659897 -18.2570105 27.93085419 -17.39935303 27.94554138 C-15.06546102 27.88725582 -13.20523102 27.77115363 -11 27 C-7.78636831 23.5456134 -6.50307945 19.1437333 -5.75 14.5625 C-5.60046875 13.69753906 -5.4509375 12.83257813 -5.296875 11.94140625 C-5.19890625 11.30074219 -5.1009375 10.66007813 -5 10 C-5.66 9.67 -6.32 9.34 -7 9 C-5.68 8.67 -4.36 8.34 -3 8 C-2.690625 6.865625 -2.38125 5.73125 -2.0625 4.5625 C-1 1 -1 1 0 0 Z " fill="#5C5B57" transform="translate(626,606)"/>
<path d="M0 0 C1.12563103 0.00212242 1.12563103 0.00212242 2.27400208 0.00428772 C4.66838585 0.00988065 7.06267578 0.02243181 9.45703125 0.03515625 C11.08137886 0.04017217 12.70572793 0.04473491 14.33007812 0.04882812 C18.30993194 0.05984777 22.28971569 0.07710752 26.26953125 0.09765625 C26.26953125 0.75765625 26.26953125 1.41765625 26.26953125 2.09765625 C25.26051758 2.11747559 24.25150391 2.13729492 23.21191406 2.15771484 C19.46198929 2.23388961 15.71244654 2.32258841 11.96289062 2.41503906 C10.34122266 2.45327983 8.71947129 2.48814128 7.09765625 2.51953125 C4.76402008 2.56528882 2.43095563 2.62326441 0.09765625 2.68359375 C-0.98693878 2.70092056 -0.98693878 2.70092056 -2.09344482 2.71859741 C-5.77770083 2.82618803 -8.59338367 3.07487514 -11.73046875 5.09765625 C-11.41796875 3.16015625 -11.41796875 3.16015625 -10.73046875 1.09765625 C-7.09813773 -0.11312076 -3.77924888 -0.02678539 0 0 Z " fill="#0C0A08" transform="translate(461.73046875,475.90234375)"/>
<path d="M0 0 C1.5 1.25 1.5 1.25 3 3 C3 4.32 3 5.64 3 7 C3.99 7.33 4.98 7.66 6 8 C5.67 9.65 5.34 11.3 5 13 C5.66 13 6.32 13 7 13 C7.33 11.35 7.66 9.7 8 8 C8.33 8 8.66 8 9 8 C9.07025555 11.02098869 9.09889045 13.63140832 8.3125 16.5625 C7.88456584 19.90038642 9.1080759 21.30764647 11 24 C12.33332095 26.6666419 11.67102033 28.16680303 11 31 C8.87491756 27.81237635 8.4979837 25.73487777 8 22 C7.34 22 6.68 22 6 22 C4.40861915 17.82262526 3.78721942 14.46839215 4 10 C3.34 10 2.68 10 2 10 C0.68373308 6.38026598 0 3.90432869 0 0 Z " fill="#4B4A47" transform="translate(540,534)"/>
<path d="M0 0 C0.99 0 1.98 0 3 0 C3 10.56 3 21.12 3 32 C2.01 32 1.02 32 0 32 C0 21.44 0 10.88 0 0 Z " fill="#0D0D0C" transform="translate(709,525)"/>
<path d="M0 0 C3.87940317 3.87940317 4.63133892 8.30522174 5.625 13.5625 C5.82609375 14.57086914 5.82609375 14.57086914 6.03125 15.59960938 C6.58639857 18.45182675 7 21.08703506 7 24 C7.66 24 8.32 24 9 24 C11.18994248 27.28491373 11.35277339 28.83095639 11.625 32.6875 C11.69976563 33.68136719 11.77453125 34.67523437 11.8515625 35.69921875 C11.90054688 36.45847656 11.94953125 37.21773437 12 38 C10.10115806 35.15173709 9.02045878 32.46452928 7.859375 29.265625 C6.14596756 24.74845993 4.16054566 20.32109132 2 16 C1.96976415 13.72367276 2.06648382 11.46577282 2.16015625 9.19140625 C2.15933485 6.7053771 2.15933485 6.7053771 0 4 C0 2.68 0 1.36 0 0 Z " fill="#656261" transform="translate(566,501)"/>
<path d="M0 0 C2.62386487 3.06117568 3 3.73173127 3 8 C15.21 8 27.42 8 40 8 C40.33 6.02 40.66 4.04 41 2 C41.33 2 41.66 2 42 2 C42.125 4.875 42.125 4.875 42 8 C40 10 40 10 36.31640625 10.18286133 C34.7315677 10.16082029 33.14687215 10.12634737 31.5625 10.08203125 C30.72662354 10.06412033 29.89074707 10.04620941 29.02954102 10.02775574 C27.26077563 9.98653119 25.49212843 9.93994199 23.72363281 9.88842773 C21.01114972 9.81281083 18.29904872 9.76382085 15.5859375 9.71679688 C13.86975006 9.6734937 12.15360127 9.62862443 10.4375 9.58203125 C9.62289307 9.56936722 8.80828613 9.55670319 7.96899414 9.5436554 C5.68359375 9.46411133 5.68359375 9.46411133 2 9 C-0.29013653 5.5647952 -0.17842973 4.014669 0 0 Z " fill="#050502" transform="translate(575,624)"/>
<path d="M0 0 C3.4567313 2.68856879 4.36873324 6.35804826 5.625 10.375 C5.8415625 11.035 6.058125 11.695 6.28125 12.375 C7.41488059 15.88785528 8.36804182 19.36272961 9 23 C9.99 23 10.98 23 12 23 C12.33 26.96 12.66 30.92 13 35 C7.22659993 27.30213324 2 13.85449497 2 4 C1.34 4 0.68 4 0 4 C0 2.68 0 1.36 0 0 Z " fill="#797877" transform="translate(525,494)"/>
<path d="M0 0 C1.24193748 3.72581245 0.54831788 4.79216534 -0.875 8.375 C-2.27040552 11.91718324 -3.35789567 15.24300657 -4 19 C-4.66 19 -5.32 19 -6 19 C-6.13277344 19.68707031 -6.26554688 20.37414062 -6.40234375 21.08203125 C-6.57894531 21.98308594 -6.75554688 22.88414062 -6.9375 23.8125 C-7.19853516 25.15248047 -7.19853516 25.15248047 -7.46484375 26.51953125 C-8 29 -8 29 -9 32 C-9.66 32 -10.32 32 -11 32 C-10.85304688 31.27425781 -10.70609375 30.54851562 -10.5546875 29.80078125 C-10.21226345 28.07178096 -9.88162714 26.34034034 -9.5703125 24.60546875 C-8.01887351 16.18142719 -5.39856326 9.33093877 -1 2 C-0.67 1.34 -0.34 0.68 0 0 Z " fill="#5B5A59" transform="translate(682,450)"/>
<path d="M0 0 C1.32 0.66 2.64 1.32 4 2 C4.30372936 10.00945568 4.50848663 16.69065285 1 24 C0 21 0 21 1 18 C1.22560676 15.60745424 1.40848595 13.21071877 1.5625 10.8125 C1.64628906 9.54019531 1.73007812 8.26789063 1.81640625 6.95703125 C1.87699219 5.98121094 1.93757813 5.00539063 2 4 C-1.63 4.33 -5.26 4.66 -9 5 C-6 2 -6 2 -2.8125 1.8125 C-1.4203125 1.9053125 -1.4203125 1.9053125 0 2 C0 1.34 0 0.68 0 0 Z " fill="#9D9D9D" transform="translate(274,360)"/>
<path d="M0 0 C0.66 0.33 1.32 0.66 2 1 C1.67 1.99 1.34 2.98 1 4 C1 4.99 1 5.98 1 7 C1.99 7 2.98 7 4 7 C4 7.66 4 8.32 4 9 C1.61435923 8.42415568 -0.66682784 7.77772405 -3 7 C-6.97497544 10.40712181 -8.86793788 14.32760855 -11 19 C-11.66 19 -12.32 19 -13 19 C-12.02531845 11.83096068 -7.34710452 6.09741255 -2.0625 1.375 C-1.381875 0.92125 -0.70125 0.4675 0 0 Z " fill="#10110E" transform="translate(136,447)"/>
<path d="M0 0 C1.37575195 -0.0309375 1.37575195 -0.0309375 2.77929688 -0.0625 C9.04088772 -0.09800158 14.14006359 0.88063625 19.9375 3.25 C19.2775 3.58 18.6175 3.91 17.9375 4.25 C16.9475 3.92 15.9575 3.59 14.9375 3.25 C12.6536483 3.16621372 10.367399 3.14270085 8.08203125 3.15234375 C7.42039474 3.1537587 6.75875824 3.15517365 6.07707214 3.15663147 C3.96800172 3.16222004 1.85903823 3.17477035 -0.25 3.1875 C-1.68163909 3.19251648 -3.11327985 3.19707913 -4.54492188 3.20117188 C-8.05081588 3.2121857 -11.5566475 3.22944245 -15.0625 3.25 C-9.8580011 -0.21966593 -6.13968472 0.03352729 0 0 Z " fill="#9B9997" transform="translate(226.0625,625.75)"/>
<path d="M0 0 C0.99 0.495 0.99 0.495 2 1 C2 1.66 2 2.32 2 3 C4.35367713 3.6878236 4.35367713 3.6878236 7 4 C7.99 3.34 8.98 2.68 10 2 C9.01 5.96 8.02 9.92 7 14 C6.01 14 5.02 14 4 14 C1.77343836 9.25645564 0.53851968 5.27749285 0 0 Z " fill="#E0DEDB" transform="translate(591,579)"/>
<path d="M0 0 C3.79379058 1.49041773 5.68343758 3.69062512 8 7 C8 7.66 8 8.32 8 9 C8.66 9 9.32 9 10 9 C10 10.32 10 11.64 10 13 C8.68 13.33 7.36 13.66 6 14 C6 14.66 6 15.32 6 16 C5.34 16 4.68 16 4 16 C3.34 17.32 2.68 18.64 2 20 C1.34 19.67 0.68 19.34 0 19 C1.375 17 1.375 17 3 15 C3.66 15 4.32 15 5 15 C5 14.34 5 13.68 5 13 C4.01 13 3.02 13 2 13 C2.33 11.68 2.66 10.36 3 9 C3.66 9 4.32 9 5 9 C3.7508258 5.54074837 2.32472205 2.85306797 0 0 Z " fill="#454343" transform="translate(317,444)"/>
<path d="M0 0 C0.29519531 0.59683594 0.59039062 1.19367187 0.89453125 1.80859375 C4.06980845 8.10304784 6.43370555 10.72705192 13 13 C9.67255773 14.10914742 7.35438475 14.03211839 4 13 C1.72889884 11.27462461 1.07141924 10.34619252 0.48828125 7.51953125 C0.43027344 6.62621094 0.37226563 5.73289062 0.3125 4.8125 C0.24675781 3.91144531 0.18101562 3.01039063 0.11328125 2.08203125 C0.07589844 1.39496094 0.03851563 0.70789063 0 0 Z M5 14 C5.33 14.66 5.66 15.32 6 16 C8.32156597 16.40729228 10.6568787 16.74438677 13 17 C13 17.33 13 17.66 13 18 C9.7 18 6.4 18 3 18 C3 17.34 3 16.68 3 16 C3.66 16 4.32 16 5 16 C5 15.34 5 14.68 5 14 Z " fill="#252421" transform="translate(455,590)"/>
<path d="M0 0 C2 2 2 2 2.125 5.125 C2.08375 6.07375 2.0425 7.0225 2 8 C2.66 8 3.32 8 4 8 C4.33 8.66 4.66 9.32 5 10 C5.33 9.34 5.66 8.68 6 8 C6.66 8 7.32 8 8 8 C10.43160605 11.36683915 11 12.73350364 11 17 C10.34 17 9.68 17 9 17 C8.67 16.01 8.34 15.02 8 14 C8 16.64 8 19.28 8 22 C7.67 21.01 7.34 20.02 7 19 C6.34 19 5.68 19 5 19 C4.34 15.7 3.68 12.4 3 9 C2.34 9 1.68 9 1 9 C0.67 6.03 0.34 3.06 0 0 Z " fill="#514F4D" transform="translate(551,565)"/>
<path d="M0 0 C0.33 0 0.66 0 1 0 C1.02689216 1.47906892 1.04634621 2.95827483 1.0625 4.4375 C1.07410156 5.26121094 1.08570313 6.08492188 1.09765625 6.93359375 C1 9 1 9 0 10 C-0.07179964 11.51928038 -0.08392007 13.04167482 -0.0625 14.5625 C-0.05347656 15.38878906 -0.04445312 16.21507812 -0.03515625 17.06640625 C-0.02355469 17.70449219 -0.01195312 18.34257812 0 19 C1.65 19 3.3 19 5 19 C5 19.66 5 20.32 5 21 C2.36 21 -0.28 21 -3 21 C-3.31806054 13.2723068 -3.32270836 7.06075526 0 0 Z " fill="#0F0F0E" transform="translate(225,404)"/>
<path d="M0 0 C5.76227761 0.88115312 9.98522439 1.90057455 14.9296875 5.11328125 C19.58647473 7.10779201 24.99755934 6.84955066 30 7 C30 7.33 30 7.66 30 8 C27.2503666 8.27616405 24.50366342 8.52164742 21.75 8.75 C20.97269531 8.83121094 20.19539063 8.91242188 19.39453125 8.99609375 C13.60469664 9.44146564 13.60469664 9.44146564 10.453125 7.140625 C9 5 9 5 9 3 C5.37 3 1.74 3 -2 3 C-1.34 2.01 -0.68 1.02 0 0 Z " fill="#21211C" transform="translate(198,434)"/>
<path d="M0 0 C0.66 0.66 1.32 1.32 2 2 C2.33 1.34 2.66 0.68 3 0 C3.66 0 4.32 0 5 0 C4.75 1.875 4.75 1.875 4 4 C2.67532254 4.6837045 1.34136367 5.34964186 0 6 C-1.13350534 8.01669827 -1.13350534 8.01669827 -2 10 C-2.99 10.495 -2.99 10.495 -4 11 C-4.99024034 12.75687802 -5.97805252 14.51614234 -6.90234375 16.30859375 C-8 18 -8 18 -11 20 C-9.5399724 15.86325512 -7.44305589 12.62968304 -5 9 C-3.28787811 6.02451751 -1.63629092 3.01774965 0 0 Z " fill="#BDBCBA" transform="translate(327,582)"/>
<path d="M0 0 C0.83144531 0.05220703 1.66289063 0.10441406 2.51953125 0.15820312 C4.55508108 0.28688731 6.59010441 0.42385407 8.625 0.5625 C8.295 1.2225 7.965 1.8825 7.625 2.5625 C0.035 2.5625 -7.555 2.5625 -15.375 2.5625 C-15.375 1.9025 -15.375 1.2425 -15.375 0.5625 C-10.12418443 -0.58452282 -5.30983462 -0.36838566 0 0 Z " fill="#12100E" transform="translate(867.375,554.4375)"/>
<path d="M0 0 C0.66 0.33 1.32 0.66 2 1 C1.1875 3.9375 1.1875 3.9375 0 7 C-0.99 7.33 -1.98 7.66 -3 8 C-3 8.66 -3 9.32 -3 10 C-3.66 10 -4.32 10 -5 10 C-5.226875 10.78375 -5.45375 11.5675 -5.6875 12.375 C-7 15 -7 15 -9.625 16.3125 C-10.40875 16.539375 -11.1925 16.76625 -12 17 C-10.37940026 13.45493808 -8.27370948 10.40978743 -6 7.25 C-5.29875 6.26515625 -4.5975 5.2803125 -3.875 4.265625 C-2.946875 3.14414062 -2.946875 3.14414062 -2 2 C-1.34 2 -0.68 2 0 2 C0 1.34 0 0.68 0 0 Z " fill="#2D2D2D" transform="translate(240,378)"/>
<path d="M0 0 C1.19882812 0.00483398 1.19882812 0.00483398 2.421875 0.00976562 C3.246875 0.01814453 4.071875 0.02652344 4.921875 0.03515625 C5.76234375 0.03966797 6.6028125 0.04417969 7.46875 0.04882812 C9.53648901 0.06057664 11.60419124 0.07851103 13.671875 0.09765625 C13.671875 0.42765625 13.671875 0.75765625 13.671875 1.09765625 C12.92421875 1.23042969 12.1765625 1.36320312 11.40625 1.5 C9.92898438 1.76490234 9.92898438 1.76490234 8.421875 2.03515625 C7.44734375 2.20917969 6.4728125 2.38320313 5.46875 2.5625 C2.76778987 3.03904705 2.76778987 3.03904705 0.546875 3.69140625 C-2.48516393 4.34834802 -5.30794734 3.62037931 -8.328125 3.09765625 C-8.328125 2.43765625 -8.328125 1.77765625 -8.328125 1.09765625 C-5.47652109 0.28331482 -2.96186369 -0.02115617 0 0 Z " fill="#0D0E0B" transform="translate(266.328125,429.90234375)"/>
<path d="M0 0 C1.80597656 0.01353516 1.80597656 0.01353516 3.6484375 0.02734375 C6.5991679 0.05076225 9.54947689 0.08356007 12.5 0.125 C12.5 0.455 12.5 0.785 12.5 1.125 C4.58 1.125 -3.34 1.125 -11.5 1.125 C-11.5 1.785 -11.5 2.445 -11.5 3.125 C-14.8 3.455 -18.1 3.785 -21.5 4.125 C-21.5 3.465 -21.5 2.805 -21.5 2.125 C-14.29529332 -0.13984591 -7.50987972 -0.107284 0 0 Z " fill="#888886" transform="translate(273.5,427.875)"/>
<path d="M0 0 C0 0.66 0 1.32 0 2 C-3.74235319 4.44989101 -7.44225419 4.23086143 -11.75 4.125 C-12.44738281 4.11597656 -13.14476562 4.10695313 -13.86328125 4.09765625 C-15.57566958 4.07419888 -17.28788004 4.03833104 -19 4 C-19.33 3.34 -19.66 2.68 -20 2 C-17.41703099 1.66361334 -14.83368737 1.3307835 -12.25 1 C-11.15558594 0.85691406 -11.15558594 0.85691406 -10.0390625 0.7109375 C-6.65143196 0.27978452 -3.42145141 0 0 0 Z " fill="#0E0F0B" transform="translate(236,440)"/>
<path d="M0 0 C0.66 0 1.32 0 2 0 C1.06898067 6.15568076 0.20578207 11.60845743 -3 17 C-3.66 17 -4.32 17 -5 17 C-5 14.69 -5 12.38 -5 10 C-4.34 10 -3.68 10 -3 10 C-2.01 6.7 -1.02 3.4 0 0 Z " fill="#11100C" transform="translate(633,578)"/>
<path d="M0 0 C1.98 0.99 1.98 0.99 4 2 C4 3.32 4 4.64 4 6 C4.66 6 5.32 6 6 6 C6 5.01 6 4.02 6 3 C6.99 3.33 7.98 3.66 9 4 C10.1875 6.5625 10.1875 6.5625 11 9 C10.01 9.33 9.02 9.66 8 10 C7.67 10.66 7.34 11.32 7 12 C6.34 10.35 5.68 8.7 5 7 C4.34 7 3.68 7 3 7 C0 2.61538462 0 2.61538462 0 0 Z " fill="#32302F" transform="translate(132,591)"/>
<path d="M0 0 C0.33 0 0.66 0 1 0 C1.2475 1.11375 1.495 2.2275 1.75 3.375 C2.80281195 7.62384824 4.3743523 11.55207439 6.046875 15.58984375 C7.27049426 18.68399574 8.16067438 21.78258511 9 25 C5.06153846 21.67692308 5.06153846 21.67692308 4.75 18.25 C4.8325 17.5075 4.915 16.765 5 16 C4.34 16 3.68 16 3 16 C0.54970669 10.28264895 -0.33266291 6.20970773 0 0 Z " fill="#6F6D6A" transform="translate(298,516)"/>
<path d="M0 0 C0.33 0 0.66 0 1 0 C0.48714399 6.46198569 -0.77256655 11.93138029 -3 18 C-3.391875 19.175625 -3.78375 20.35125 -4.1875 21.5625 C-4.455625 22.366875 -4.72375 23.17125 -5 24 C-6.49278322 20.11876362 -5.30030822 17.82868532 -4 14 C-3.82569053 12.48216681 -3.68141892 10.96067421 -3.5625 9.4375 C-3.2087246 5.62959028 -2.39075012 3.08805224 0 0 Z " fill="#959692" transform="translate(637,464)"/>
<path d="M0 0 C2 1 2 1 3 3.51953125 C5.26146907 10.96647822 6.94393741 18.28796397 8 26 C4.40693538 21.49394355 3.29864906 17.12787454 2.5 11.4375 C2.01276173 8.08773693 1.11155402 5.18645486 0 2 C0 1.34 0 0.68 0 0 Z " fill="#9A9895" transform="translate(558,474)"/>
<path d="M0 0 C1 2 1 2 0.56274414 3.78759766 C0.30614014 4.48933105 0.04953613 5.19106445 -0.21484375 5.9140625 C-0.48876953 6.67460938 -0.76269531 7.43515625 -1.04492188 8.21875 C-1.33947266 9.0128125 -1.63402344 9.806875 -1.9375 10.625 C-2.22818359 11.42679688 -2.51886719 12.22859375 -2.81835938 13.0546875 C-3.53882525 15.03892138 -4.26855138 17.01978837 -5 19 C-6.125 15.25 -6.125 15.25 -5 13 C-5.04125 11.865625 -5.0825 10.73125 -5.125 9.5625 C-5 6 -5 6 -3.625 4.25 C-3.08875 3.8375 -2.5525 3.425 -2 3 C-1.34 2.01 -0.68 1.02 0 0 Z M-7 7 C-6.34 7.33 -5.68 7.66 -5 8 C-5.33 9.32 -5.66 10.64 -6 12 C-6.66 12 -7.32 12 -8 12 C-7.67 10.35 -7.34 8.7 -7 7 Z " fill="#545350" transform="translate(647,548)"/>
<path d="M0 0 C0 3.82246127 -1.17651835 7.04302114 -2.375 10.625 C-2.59671875 11.31851563 -2.8184375 12.01203125 -3.046875 12.7265625 C-3.6375596 14.50556552 -4.31316723 16.25586102 -5 18 C-5.66 18.33 -6.32 18.66 -7 19 C-6.67 17.35 -6.34 15.7 -6 14 C-6.66 13.67 -7.32 13.34 -8 13 C-6.25 9.125 -6.25 9.125 -4 8 C-2.96514123 5.68191636 -1.9644586 3.34824702 -1 1 C-0.67 0.67 -0.34 0.34 0 0 Z " fill="#575553" transform="translate(655,527)"/>
<path d="M0 0 C3.90938504 1.30312835 6.41779075 2.74832909 9 6 C9 7.32 9 8.64 9 10 C6.03 9.505 6.03 9.505 3 9 C3 8.34 3 7.68 3 7 C2.34 6.67 1.68 6.34 1 6 C2.33333333 6 3.66666667 6 5 6 C4.175 5.38125 3.35 4.7625 2.5 4.125 C1.675 3.42375 0.85 2.7225 0 2 C0 1.34 0 0.68 0 0 Z " fill="#100E0D" transform="translate(313,443)"/>
<path d="M0 0 C0.82638376 2.89234315 1 4.88742431 1 8 C-0.0828125 7.8453125 -0.0828125 7.8453125 -1.1875 7.6875 C-5.12041589 8.12449065 -6.46321923 10.10082197 -9 13 C-9.66 12.67 -10.32 12.34 -11 12 C-10.54109375 11.55269531 -10.0821875 11.10539063 -9.609375 10.64453125 C-6.16447701 7.25029352 -2.92744915 3.86423288 0 0 Z " fill="#BCBBB8" transform="translate(307,614)"/>
<path d="M0 0 C0.66 0 1.32 0 2 0 C1.25 7.625 1.25 7.625 -1 11 C-1.38499891 12.65549531 -1.72793135 14.3222433 -2 16 C-2.66 16 -3.32 16 -4 16 C-4.25 10.375 -4.25 10.375 -2 7 C-1.29187186 4.67891331 -0.61975848 2.34622853 0 0 Z " fill="#0A0B09" transform="translate(119,472)"/>
<path d="M0 0 C5.61 0.66 11.22 1.32 17 2 C17 2.66 17 3.32 17 4 C14.91695462 4.05418326 12.83350232 4.09287551 10.75 4.125 C9.00976562 4.15980469 9.00976562 4.15980469 7.234375 4.1953125 C4.17213954 4.0103949 2.55797249 3.60823023 0 2 C0 1.34 0 0.68 0 0 Z " fill="#0B0906" transform="translate(172,632)"/>
<path d="M0 0 C-1.32 0.33 -2.64 0.66 -4 1 C-4 2.65 -4 4.3 -4 6 C-2.68 6.66 -1.36 7.32 0 8 C-3.71888239 7.49287967 -6.73454239 6.88391785 -10 5 C-10 4.01 -10 3.02 -10 2 C-6.49223216 0.39644899 -3.85645121 -0.22036864 0 0 Z " fill="#23211D" transform="translate(176,628)"/>
<path d="M0 0 C0.33 0.66 0.66 1.32 1 2 C1.99 2 2.98 2 4 2 C4 3.32 4 4.64 4 6 C1.03 7.32 -1.94 8.64 -5 10 C-5 9.34 -5 8.68 -5 8 C-4.34 8 -3.68 8 -3 8 C-3 6.68 -3 5.36 -3 4 C-2.34 4 -1.68 4 -1 4 C-0.67 2.68 -0.34 1.36 0 0 Z " fill="#DFDDDC" transform="translate(271,394)"/>
<path d="M0 0 C0.99 0 1.98 0 3 0 C3 4.62 3 9.24 3 14 C2.01 14 1.02 14 0 14 C0 9.38 0 4.76 0 0 Z " fill="#101010" transform="translate(273,364)"/>
<path d="M0 0 C2.43194894 2.43194894 3.33893831 4.71418779 4.6875 7.875 C5.14511719 8.92429687 5.60273437 9.97359375 6.07421875 11.0546875 C7.00062999 14.00200428 7.12150295 15.18604713 6 18 C5.67 17.01 5.34 16.02 5 15 C4.34 14.67 3.68 14.34 3 14 C2.1484375 11.85546875 2.1484375 11.85546875 1.375 9.1875 C1.11460937 8.31480469 0.85421875 7.44210937 0.5859375 6.54296875 C0 4 0 4 0 0 Z " fill="#AAAAA8" transform="translate(515,467)"/>
<path d="M0 0 C0.33 0 0.66 0 1 0 C1.04254356 1.99954746 1.04080783 4.00041636 1 6 C0.67 6.33 0.34 6.66 0 7 C-0.3931648 8.67884238 -0.74085452 10.36850045 -1.0625 12.0625 C-1.32740234 13.44115234 -1.32740234 13.44115234 -1.59765625 14.84765625 C-1.73042969 15.55792969 -1.86320313 16.26820313 -2 17 C-2.99 17 -3.98 17 -5 17 C-3.96232949 10.93267948 -2.66038099 5.5626148 0 0 Z " fill="#13110F" transform="translate(675,460)"/>
<path d="M0 0 C1.32 0 2.64 0 4 0 C3.43179252 5.45479185 2.05362055 9.91059256 0 15 C-0.33 15 -0.66 15 -1 15 C-1.19622241 10.78121808 -0.80230168 7.82989106 1 4 C0.34 3.67 -0.32 3.34 -1 3 C-0.67 2.01 -0.34 1.02 0 0 Z " fill="#41403A" transform="translate(634,574)"/>
<path d="M0 0 C0.33 0 0.66 0 1 0 C1.08121924 1.60332791 1.13929134 3.20784026 1.1875 4.8125 C1.22230469 5.70582031 1.25710938 6.59914063 1.29296875 7.51953125 C0.94341955 10.47904783 0.20252152 11.1058315 -2 13 C-3.19027984 15.59915538 -3.19027984 15.59915538 -4 18 C-5.72251754 13.9154674 -4.07280563 10.63026304 -2.5625 6.75 C-2.31951172 6.1003125 -2.07652344 5.450625 -1.82617188 4.78125 C-1.22714006 3.18383183 -0.61485679 1.59139406 0 0 Z " fill="#6B6B6A" transform="translate(610,550)"/>
<path d="M0 0 C-1 2 -1 2 -2.890625 2.81640625 C-6.90241296 4.08503456 -10.83476665 5.32818817 -15 6 C-15 5.01 -15 4.02 -15 3 C-9.89665983 1.094753 -5.53657294 -0.42589023 0 0 Z " fill="#0A0A0A" transform="translate(270,366)"/>
<path d="M0 0 C0 0.66 0 1.32 0 2 C-0.66 2 -1.32 2 -2 2 C-2.2475 2.5775 -2.495 3.155 -2.75 3.75 C-4.18299988 6.32939979 -5.78424676 8.06121592 -8 10 C-8.66 10 -9.32 10 -10 10 C-8.52307692 5.32307692 -8.52307692 5.32307692 -5.875 3.6875 C-5.25625 3.460625 -4.6375 3.23375 -4 3 C-4 2.34 -4 1.68 -4 1 C-2 0 -2 0 0 0 Z " fill="#110F0E" transform="translate(322,457)"/>
<path d="M0 0 C0.66 0 1.32 0 2 0 C1.91266424 1.60517097 1.80447776 3.20921662 1.6875 4.8125 C1.62949219 5.70582031 1.57148437 6.59914063 1.51171875 7.51953125 C1 10 1 10 -2 13 C-2 10.03 -2 7.06 -2 4 C-1.34 4 -0.68 4 0 4 C0 2.68 0 1.36 0 0 Z " fill="#0F120D" transform="translate(619,616)"/>
<path d="M0 0 C0.75 1.5625 0.75 1.5625 1 4 C0.05560502 5.72596323 -0.89801471 7.44920517 -1.94140625 9.1171875 C-3.54330966 11.96632937 -4.22488271 14.83493774 -5 18 C-5.98120464 14.94736336 -5.98120464 13.05263664 -5 10 C-5.66 9.67 -6.32 9.34 -7 9 C-5.68 8.67 -4.36 8.34 -3 8 C-2.690625 6.865625 -2.38125 5.73125 -2.0625 4.5625 C-1 1 -1 1 0 0 Z " fill="#4C4D48" transform="translate(626,606)"/>
<path d="M0 0 C3.63 0.66 7.26 1.32 11 2 C11 2.66 11 3.32 11 4 C9.56260487 4.02712066 8.12506137 4.04645067 6.6875 4.0625 C5.48673828 4.07990234 5.48673828 4.07990234 4.26171875 4.09765625 C2 4 2 4 -1 3 C-0.67 2.01 -0.34 1.02 0 0 Z " fill="#0F0F0D" transform="translate(441,628)"/>
<path d="M0 0 C0 0.99 0 1.98 0 3 C-11.385 2.505 -11.385 2.505 -23 2 C-23 1.67 -23 1.34 -23 1 C-19.72922836 0.83210783 -16.45837336 0.66589762 -13.1875 0.5 C-12.25873047 0.45230469 -11.32996094 0.40460937 -10.37304688 0.35546875 C-9.0340332 0.28779297 -9.0340332 0.28779297 -7.66796875 0.21875 C-6.84578857 0.17685547 -6.0236084 0.13496094 -5.17651367 0.09179688 C-3.45227071 0.01907502 -1.72577585 0 0 0 Z " fill="#0A0806" transform="translate(815,629)"/>
<path d="M0 0 C0.66 0 1.32 0 2 0 C6 6.625 6 6.625 6 10 C3.13367003 8.94901234 2.16993357 8.33137046 0.75 5.5625 C0 3 0 3 0 0 Z " fill="#0F0D0B" transform="translate(130,583)"/>
<path d="M0 0 C2.57146057 2.57146057 2.80117997 4.6050417 3.625 8.125 C3.88539062 9.22070312 4.14578125 10.31640625 4.4140625 11.4453125 C4.70410156 12.70988281 4.70410156 12.70988281 5 14 C4.34 14 3.68 14 3 14 C-0.00559652 8.99067246 -0.29341888 5.67276511 0 0 Z " fill="#0F0D0B" transform="translate(119,553)"/>
<path d="M0 0 C-0.55312735 4.02992782 -1.1558062 8.02022924 -2 12 C-2.66 12 -3.32 12 -4 12 C-4.368 4.64 -4.368 4.64 -2.5625 1.5 C-1 0 -1 0 0 0 Z " fill="#11120D" transform="translate(627,508)"/>
<path d="M0 0 C-4.32547034 3.25050138 -8.09689352 3.36927717 -13.3125 3.1875 C-14.05306641 3.17396484 -14.79363281 3.16042969 -15.55664062 3.14648438 C-17.37141075 3.11135979 -19.18580288 3.05755972 -21 3 C-21 2.67 -21 2.34 -21 2 C-19.82244141 1.92652344 -19.82244141 1.92652344 -18.62109375 1.8515625 C-11.65603868 1.40435764 -11.65603868 1.40435764 -4.875 -0.125 C-2 -1 -2 -1 0 0 Z " fill="#BCBCBA" transform="translate(242,424)"/>
<path d="M0 0 C1.09570312 0.00902344 2.19140625 0.01804687 3.3203125 0.02734375 C4.16335937 0.03894531 5.00640625 0.05054688 5.875 0.0625 C3.19407309 2.74342691 1.48332637 2.44920257 -2.25 2.6875 C-3.34570312 2.76226563 -4.44140625 2.83703125 -5.5703125 2.9140625 C-6.41335937 2.96304688 -7.25640625 3.01203125 -8.125 3.0625 C-8.125 2.4025 -8.125 1.7425 -8.125 1.0625 C-5.36047967 -0.31976016 -3.0788637 -0.03275387 0 0 Z " fill="#0F0D0A" transform="translate(220.125,623.9375)"/>
<path d="M0 0 C0.99 0.495 0.99 0.495 2 1 C2 1.99 2 2.98 2 4 C2.66 4 3.32 4 4 4 C4.33 5.98 4.66 7.96 5 10 C4.01 10.495 4.01 10.495 3 11 C3 10.34 3 9.68 3 9 C2.34 9 1.68 9 1 9 C0.67 6.03 0.34 3.06 0 0 Z " fill="#100E0C" transform="translate(558,578)"/>
<path d="M0 0 C0.33 0 0.66 0 1 0 C1.50423019 5.29441695 0.18923033 7.81413519 -3 12 C-4.41116678 8.79280276 -3.89413879 7.71609948 -2.625 4.3125 C-1 1 -1 1 0 0 Z " fill="#13110F" transform="translate(647,542)"/>
<path d="M0 0 C1.32 0.66 2.64 1.32 4 2 C3.01 2 2.02 2 1 2 C0.67 2.99 0.34 3.98 0 5 C-3 7 -3 7 -7 7 C-7 6.34 -7 5.68 -7 5 C-2.61538462 2 -2.61538462 2 0 2 C0 1.34 0 0.68 0 0 Z " fill="#0F0E0B" transform="translate(248,414)"/>
<path d="M0 0 C1.2077558 3.62326739 0.54311128 4.64146369 -1 8 C-1.66 8 -2.32 8 -3 8 C-3.33 9.32 -3.66 10.64 -4 12 C-5 10 -5 10 -4.25 6.5625 C-3.1372327 3.39111319 -2.58274406 1.99575677 0 0 Z " fill="#0E0E0E" transform="translate(231,392)"/>
<path d="M0 0 C1.32 1.32 2.64 2.64 4 4 C1.73539168 6.26460832 -1.96509644 6.42582906 -5 7 C-4.34 5.35 -3.68 3.7 -3 2 C-2.01 2 -1.02 2 0 2 C0 1.34 0 0.68 0 0 Z " fill="#ECEDEA" transform="translate(157,626)"/>
<path d="M0 0 C2 3 2 3 1.75 4.9375 C0.97936717 7.05674028 0.0643413 9.01322958 -1 11 C-1.66 11 -2.32 11 -3 11 C-3 9.02 -3 7.04 -3 5 C-2.34 5 -1.68 5 -1 5 C-0.67 3.35 -0.34 1.7 0 0 Z " fill="#10110D" transform="translate(607,567)"/>
<path d="M0 0 C0.33 0 0.66 0 1 0 C1.59732819 2.76264289 2 5.16032769 2 8 C1.01 8.495 1.01 8.495 0 9 C-1.13350534 11.01669827 -1.13350534 11.01669827 -2 13 C-3.18771723 9.57056481 -2.80226223 7.62215325 -1.5625 4.25 C-1.27503906 3.45078125 -0.98757813 2.6515625 -0.69140625 1.828125 C-0.46324219 1.22484375 -0.23507812 0.6215625 0 0 Z " fill="#525351" transform="translate(618,525)"/>
<path d="M0 0 C0.66 0 1.32 0 2 0 C1.44449305 3.59905908 0.25112752 4.99909799 -2.5625 7.25 C-3.20316406 7.77078125 -3.84382813 8.2915625 -4.50390625 8.828125 C-4.99761719 9.21484375 -5.49132812 9.6015625 -6 10 C-6 9.01 -6 8.02 -6 7 C-5.34 7 -4.68 7 -4 7 C-3.71125 6.21625 -3.4225 5.4325 -3.125 4.625 C-2 2 -2 2 0 0 Z " fill="#141310" transform="translate(260,405)"/>
<path d="M0 0 C0.66 0 1.32 0 2 0 C1.67 2.97 1.34 5.94 1 9 C0.01 9.33 -0.98 9.66 -2 10 C-1.85950482 8.52031676 -1.71245174 7.04125484 -1.5625 5.5625 C-1.48128906 4.73878906 -1.40007813 3.91507813 -1.31640625 3.06640625 C-1 1 -1 1 0 0 Z " fill="#0C0B09" transform="translate(651,526)"/>
<path d="M0 0 C0.66 0.66 1.32 1.32 2 2 C1.96712417 4.72869407 1.43602229 7.2966618 1 10 C0.34 10 -0.32 10 -1 10 C-1 9.01 -1 8.02 -1 7 C-1.66 6.67 -2.32 6.34 -3 6 C-2.67 4.68 -2.34 3.36 -2 2 C-1.67 2.33 -1.34 2.66 -1 3 C-0.67 2.01 -0.34 1.02 0 0 Z " fill="#22201E" transform="translate(564,498)"/>
<path d="M0 0 C3 1 3 1 4 3 C4.66 3 5.32 3 6 3 C6.33 2.34 6.66 1.68 7 1 C7.99 1 8.98 1 10 1 C8.63016497 4.16115776 8.0109362 4.9927092 5 7 C0 1.125 0 1.125 0 0 Z " fill="#252322" transform="translate(307,457)"/>
<path d="M0 0 C0.53625 0.2475 1.0725 0.495 1.625 0.75 C1.625 1.74 1.625 2.73 1.625 3.75 C-1.70833333 3.75 -5.04166667 3.75 -8.375 3.75 C-2.95961538 -0.31153846 -2.95961538 -0.31153846 0 0 Z " fill="#E2E0DE" transform="translate(301.375,625.25)"/>
<path d="M0 0 C0.33 0 0.66 0 1 0 C0.91253716 1.43861294 0.80434652 2.87597508 0.6875 4.3125 C0.62949219 5.11300781 0.57148438 5.91351562 0.51171875 6.73828125 C-0.08206694 9.36272334 -0.95780294 10.30820672 -3 12 C-3 9.69 -3 7.38 -3 5 C-2.34 5 -1.68 5 -1 5 C-0.67 3.35 -0.34 1.7 0 0 Z " fill="#1F1E1C" transform="translate(325,579)"/>
<path d="M0 0 C2 1 2 1 3.125 4.25 C3.85463482 7.37700635 4.19234975 9.82622905 4 13 C2 12 2 12 0.875 8.75 C0.14536518 5.62299365 -0.19234975 3.17377095 0 0 Z " fill="#0A0906" transform="translate(586,572)"/>
<path d="M0 0 C0.99 0 1.98 0 3 0 C3.25532751 3.06393013 3.21861333 4.63233212 1.625 7.3125 C0.820625 8.1478125 0.820625 8.1478125 0 9 C-0.66 9 -1.32 9 -2 9 C-1.34 6.03 -0.68 3.06 0 0 Z " fill="#11100E" transform="translate(330,564)"/>
<path d="M0 0 C0.33 0 0.66 0 1 0 C0.67 3.63 0.34 7.26 0 11 C-0.99 11.33 -1.98 11.66 -3 12 C-2.40075776 7.80530429 -1.42500059 3.99000166 0 0 Z " fill="#100E0A" transform="translate(658,508)"/>
<path d="M0 0 C0 0.66 0 1.32 0 2 C-0.99 2 -1.98 2 -3 2 C-3 2.99 -3 3.98 -3 5 C-5.26216255 6.54779543 -7.55224566 7.77612283 -10 9 C-8.42687618 3.85159477 -5.71561212 0 0 0 Z " fill="#090A07" transform="translate(250,374)"/>
<path d="M0 0 C6.75 1.875 6.75 1.875 9 3 C9 3.66 9 4.32 9 5 C5.7 4.34 2.4 3.68 -1 3 C-0.67 2.01 -0.34 1.02 0 0 Z " fill="#0E0E0B" transform="translate(462,603)"/>
<path d="M0 0 C2.31459868 1.81817001 2.95377187 2.75615543 3.51171875 5.69921875 C3.56972656 6.68535156 3.62773438 7.67148437 3.6875 8.6875 C3.75324219 9.68136719 3.81898438 10.67523437 3.88671875 11.69921875 C3.92410156 12.45847656 3.96148438 13.21773437 4 14 C1.01520806 9.52281208 0 5.36175907 0 0 Z " fill="#A4A3A1" transform="translate(574,525)"/>
<path d="M0 0 C1.65 0 3.3 0 5 0 C4.50168276 3.68754757 3.89932357 5.60490662 1 8 C1.33 6.02 1.66 4.04 2 2 C1.34 2 0.68 2 0 2 C0 1.34 0 0.68 0 0 Z " fill="#0B0B0B" transform="translate(676,451)"/>
<path d="M0 0 C1.125 3.75 1.125 3.75 0 6 C-0.66 6 -1.32 6 -2 6 C-2.33 7.65 -2.66 9.3 -3 11 C-4.65 11 -6.3 11 -8 11 C-7.4225 10.67 -6.845 10.34 -6.25 10 C-3.09067229 7.1917087 -1.70407923 3.81604975 0 0 Z " fill="#767772" transform="translate(620,624)"/>
<path d="M0 0 C0.99 0.33 1.98 0.66 3 1 C3.33 3.64 3.66 6.28 4 9 C3.34 9 2.68 9 2 9 C-0.29013653 5.5647952 -0.17842973 4.014669 0 0 Z " fill="#0D0D0B" transform="translate(568,606)"/>
<path d="M0 0 C0.66 0 1.32 0 2 0 C1.4739075 3.78786597 0.61896089 6.17152224 -2 9 C-2.66 9 -3.32 9 -4 9 C-2.80100302 5.9168649 -1.52299523 2.93720508 0 0 Z " fill="#0B0907" transform="translate(316,595)"/>
<path d="M0 0 C3 3.625 3 3.625 3 7 C3.99 7 4.98 7 6 7 C6 7.99 6 8.98 6 10 C4.68 10 3.36 10 2 10 C0.68373308 6.38026598 0 3.90432869 0 0 Z " fill="#5E5C58" transform="translate(592,586)"/>
<path d="M0 0 C2.475 0.99 2.475 0.99 5 2 C5 4.64 5 7.28 5 10 C4.34 10 3.68 10 3 10 C2.67 10.99 2.34 11.98 2 13 C2.66666667 9.66666667 3.33333333 6.33333333 4 3 C2.68 3 1.36 3 0 3 C0 2.01 0 1.02 0 0 Z " fill="#7F7D7C" transform="translate(329,561)"/>
<path d="M0 0 C0.99 0 1.98 0 3 0 C3.33 3.96 3.66 7.92 4 12 C0.49718958 7.32958611 0.4655008 5.58600962 0 0 Z " fill="#4A4A4A" transform="translate(534,517)"/>
<path d="M0 0 C0.66 0 1.32 0 2 0 C3.19287411 3.87684087 4 6.91621923 4 11 C3.34 11 2.68 11 2 11 C0.80712589 7.12315913 0 4.08378077 0 0 Z " fill="#0B0C0A" transform="translate(520,472)"/>
<path d="M0 0 C0.99 0.66 1.98 1.32 3 2 C3 2.99 3 3.98 3 5 C2.34 5 1.68 5 1 5 C0.67 4.34 0.34 3.68 0 3 C-1.485 5.475 -1.485 5.475 -3 8 C-3.75 6.25 -3.75 6.25 -4 4 C-2.0625 1.75 -2.0625 1.75 0 0 Z " fill="#383836" transform="translate(122,465)"/>
<path d="M0 0 C0.99 0.33 1.98 0.66 3 1 C3 1.66 3 2.32 3 3 C2.01 3 1.02 3 0 3 C0 3.99 0 4.98 0 6 C-1.32 6 -2.64 6 -4 6 C-4 5.01 -4 4.02 -4 3 C-2.1875 1.25 -2.1875 1.25 0 0 Z " fill="#232120" transform="translate(314,451)"/>
<path d="M0 0 C0.66 0.33 1.32 0.66 2 1 C0.92892883 1.86949317 -0.15745944 2.72014205 -1.25 3.5625 C-1.85328125 4.03816406 -2.4565625 4.51382812 -3.078125 5.00390625 C-5 6 -5 6 -7.234375 5.65234375 C-7.81703125 5.43707031 -8.3996875 5.22179687 -9 5 C-3.375 1.125 -3.375 1.125 0 0 Z " fill="#989695" transform="translate(251,417)"/>
<path d="M0 0 C0.66 0.33 1.32 0.66 2 1 C1.34 2.98 0.68 4.96 0 7 C-1.98 7.33 -3.96 7.66 -6 8 C-4.7260411 5.96166576 -3.38938077 3.96147874 -2 2 C-1.34 2 -0.68 2 0 2 C0 1.34 0 0.68 0 0 Z " fill="#3F3F3D" transform="translate(240,378)"/>
<path d="M0 0 C0.66 0 1.32 0 2 0 C2.36923077 5.41538462 2.36923077 5.41538462 0.5 8.375 C0.005 8.91125 -0.49 9.4475 -1 10 C-1.125 2.25 -1.125 2.25 0 0 Z " fill="#10110F" transform="translate(614,542)"/>
<path d="M0 0 C0.66 0 1.32 0 2 0 C2.36630156 3.93774177 2.30233203 5.56539771 0 8.875 C-0.66 9.57625 -1.32 10.2775 -2 11 C-2 9.35 -2 7.7 -2 6 C-1.34 6 -0.68 6 0 6 C0 4.02 0 2.04 0 0 Z " fill="#0E0D09" transform="translate(662,496)"/>
<path d="M0 0 C0.66 0 1.32 0 2 0 C1.33333333 3.33333333 0.66666667 6.66666667 0 10 C-0.66 10 -1.32 10 -2 10 C-2.17942163 6.05272412 -2.09350689 3.4019487 0 0 Z " fill="#0B0C09" transform="translate(640,462)"/>
<path d="M0 0 C0 0.66 0 1.32 0 2 C-1.2065625 2.4021875 -1.2065625 2.4021875 -2.4375 2.8125 C-3.283125 3.204375 -4.12875 3.59625 -5 4 C-5.33 4.99 -5.66 5.98 -6 7 C-6.66 6.67 -7.32 6.34 -8 6 C-6.98565881 3.46414701 -6.34981128 2.21863205 -4 0.75 C-2 0 -2 0 0 0 Z " fill="#0B0C0A" transform="translate(148,440)"/>
<path d="M0 0 C0.33 0.66 0.66 1.32 1 2 C2.32467746 2.6837045 3.65863633 3.34964186 5 4 C5.66 4.66 6.32 5.32 7 6 C6.67 6.99 6.34 7.98 6 9 C3.69 6.69 1.38 4.38 -1 2 C-0.67 1.34 -0.34 0.68 0 0 Z " fill="#110F0D" transform="translate(159,623)"/>
<path d="M0 0 C2.31 0 4.62 0 7 0 C6.67 0.66 6.34 1.32 6 2 C6.66 2.33 7.32 2.66 8 3 C8 3.66 8 4.32 8 5 C2.25 3.375 2.25 3.375 0 0 Z " fill="#BCBCBB" transform="translate(321,556)"/>
<path d="M0 0 C1.125 1.75 1.125 1.75 2 4 C1.125 6.25 1.125 6.25 0 8 C0 7.01 0 6.02 0 5 C-0.66 5 -1.32 5 -2 5 C-2.33 5.66 -2.66 6.32 -3 7 C-2.625 4.0625 -2.625 4.0625 -2 1 C-1.34 0.67 -0.68 0.34 0 0 Z " fill="#363733" transform="translate(616,537)"/>
<path d="M0 0 C0 0.66 0 1.32 0 2 C-3.21451269 3.60725635 -6.43612536 3.05748185 -10 3 C-6.84916414 -0.15083586 -4.41812253 0 0 0 Z " fill="#0F0E0A" transform="translate(288,631)"/>
<path d="M0 0 C0 0.66 0 1.32 0 2 C0.66 2.33 1.32 2.66 2 3 C0.02 3.66 -1.96 4.32 -4 5 C-3.67 4.01 -3.34 3.02 -3 2 C-4.32 1.67 -5.64 1.34 -7 1 C-4.50935112 0.31292445 -2.62113708 0 0 0 Z " fill="#272521" transform="translate(200,630)"/>
<path d="M0 0 C1.66666667 3.33333333 3.33333333 6.66666667 5 10 C4.01 10.33 3.02 10.66 2 11 C0.57741188 7.17679443 -0.24042276 4.08718695 0 0 Z " fill="#403E3C" transform="translate(455,590)"/>
<path d="M0 0 C1.04449911 3.13349732 0.93423645 3.98968256 0 7 C-0.99 7 -1.98 7 -3 7 C-3.33 5.35 -3.66 3.7 -4 2 C-2.68 2 -1.36 2 0 2 C0 1.34 0 0.68 0 0 Z " fill="#D5D4D0" transform="translate(598,586)"/>
<path d="M0 0 C2.125 0.9375 2.125 0.9375 4 2 C3.67 3.32 3.34 4.64 3 6 C1 6 1 6 -0.625 4.625 C-2 3 -2 3 -2 1 C-1.34 0.67 -0.68 0.34 0 0 Z " fill="#110F0D" transform="translate(309,547)"/>
<path d="M0 0 C0.33 0 0.66 0 1 0 C1.36630156 3.93774177 1.30233203 5.56539771 -1 8.875 C-1.66 9.57625 -2.32 10.2775 -3 11 C-2.69217504 9.35328588 -2.37860766 7.70764424 -2.0625 6.0625 C-1.88847656 5.14597656 -1.71445313 4.22945313 -1.53515625 3.28515625 C-1 1 -1 1 0 0 Z " fill="#424340" transform="translate(117,473)"/>
<path d="M0 0 C-0.33 0.66 -0.66 1.32 -1 2 C-3.28515625 2.6328125 -3.28515625 2.6328125 -6.0625 3.125 C-6.98160156 3.29257812 -7.90070313 3.46015625 -8.84765625 3.6328125 C-9.91306641 3.81457031 -9.91306641 3.81457031 -11 4 C-11 3.34 -11 2.68 -11 2 C-9.54494642 1.47007308 -8.08581873 0.9513211 -6.625 0.4375 C-5.81289063 0.14746094 -5.00078125 -0.14257812 -4.1640625 -0.44140625 C-2 -1 -2 -1 0 0 Z " fill="#7F7F7F" transform="translate(263,366)"/>
<path d="M0 0 C0.33 1.32 0.66 2.64 1 4 C-2.73487777 3.5020163 -4.81237635 3.12508244 -8 1 C-2.25 0 -2.25 0 0 0 Z " fill="#42403D" transform="translate(260,631)"/>
<path d="M0 0 C0.33 0 0.66 0 1 0 C1.33 2.97 1.66 5.94 2 9 C1.34 8.67 0.68 8.34 0 8 C-0.66 8.66 -1.32 9.32 -2 10 C-1.54177532 6.53058454 -1.10868317 3.32604951 0 0 Z " fill="#E3E3E1" transform="translate(654,530)"/>
<path d="M0 0 C0 0.99 0 1.98 0 3 C-3.3 2.67 -6.6 2.34 -10 2 C-6.00889681 0.0044484 -4.30013434 -0.19546065 0 0 Z " fill="#0E0E0D" transform="translate(888,525)"/>
<path d="M0 0 C0.33 0 0.66 0 1 0 C1 1.98 1 3.96 1 6 C0.34 6 -0.32 6 -1 6 C-1 6.99 -1 7.98 -1 9 C-1.66 9 -2.32 9 -3 9 C-2.69181644 7.68647977 -2.37832335 6.37420428 -2.0625 5.0625 C-1.88847656 4.33160156 -1.71445312 3.60070312 -1.53515625 2.84765625 C-1 1 -1 1 0 0 Z " fill="#C0BEBB" transform="translate(662,508)"/>
<path d="M0 0 C1.52453435 2.94017338 2.95157395 5.85472185 4 9 C3.67 9.99 3.34 10.98 3 12 C2.67 10.68 2.34 9.36 2 8 C1.34 8 0.68 8 0 8 C0 5.36 0 2.72 0 0 Z " fill="#6D6D6B" transform="translate(552,456)"/>
<path d="M0 0 C0.99 0.33 1.98 0.66 3 1 C3 3.64 3 6.28 3 9 C0.90250005 6.64031256 0.03094296 5.45383006 -0.1875 2.25 C-0.125625 1.5075 -0.06375 0.765 0 0 Z " fill="#10100E" transform="translate(549,455)"/>
<path d="M0 0 C-2.93828597 2.50298434 -5.17902761 3.46930939 -9 4 C-8.67 3.01 -8.34 2.02 -8 1 C-5.07175348 0.02391783 -3.04386724 -0.08226668 0 0 Z " fill="#0C0A09" transform="translate(248,436)"/>
<path d="M0 0 C2.34765625 0.171875 2.34765625 0.171875 5.0625 0.75 C5.96097656 0.93046875 6.85945312 1.1109375 7.78515625 1.296875 C8.51605469 1.52890625 9.24695313 1.7609375 10 2 C10.33 2.66 10.66 3.32 11 4 C9.58297487 3.85769192 8.1663904 3.71099254 6.75 3.5625 C5.56664062 3.44068359 5.56664062 3.44068359 4.359375 3.31640625 C2.17635361 3.02365007 0.1226818 2.57935581 -2 2 C-1.34 1.34 -0.68 0.68 0 0 Z " fill="#2C2D29" transform="translate(198,434)"/>
<path d="M0 0 C-0.33 0.66 -0.66 1.32 -1 2 C-0.34 2 0.32 2 1 2 C1 2.66 1 3.32 1 4 C-4.75 2.25 -4.75 2.25 -7 0 C-3.98968256 -0.93423645 -3.13349732 -1.04449911 0 0 Z " fill="#C7CAC7" transform="translate(307,433)"/>
<path d="M0 0 C2.97 0 5.94 0 9 0 C7.71034824 1.37562854 6.37310707 2.70766393 5 4 C4.34 4 3.68 4 3 4 C3 3.01 3 2.02 3 1 C2.01 0.67 1.02 0.34 0 0 Z " fill="#23211D" transform="translate(285,628)"/>
<path d="M0 0 C0.66 0.66 1.32 1.32 2 2 C1.875 4 1.875 4 1 6 C-1.0625 7.25 -1.0625 7.25 -3 8 C-2.01 5.36 -1.02 2.72 0 0 Z " fill="#100E0B" transform="translate(310,603)"/>
<path d="M0 0 C1.98 0.99 1.98 0.99 4 2 C4 4.64 4 7.28 4 10 C3.34 10 2.68 10 2 10 C1.34 6.7 0.68 3.4 0 0 Z " fill="#262521" transform="translate(551,563)"/>
<path d="M0 0 C2 3 2 3 1.8125 5.5625 C1 8 1 8 -2 10 C-2 8.68 -2 7.36 -2 6 C-1.34 6 -0.68 6 0 6 C0 4.02 0 2.04 0 0 Z " fill="#070806" transform="translate(611,554)"/>
<path d="M0 0 C2.31 0 4.62 0 7 0 C7 0.99 7 1.98 7 3 C4.69 2.67 2.38 2.34 0 2 C0 1.34 0 0.68 0 0 Z " fill="#10110A" transform="translate(190,433)"/>
<path d="M0 0 C-0.99 1.485 -0.99 1.485 -2 3 C-2.33 2.67 -2.66 2.34 -3 2 C-5.67058851 1.85884839 -8.32432238 1.95752893 -11 2 C-10.67 1.34 -10.34 0.68 -10 0 C-6.35526801 -0.89093449 -3.57257469 -1.23666047 0 0 Z " fill="#272727" transform="translate(273,365)"/>
<path d="M0 0 C4.95 0.99 4.95 0.99 10 2 C10 2.33 10 2.66 10 3 C7.03 3 4.06 3 1 3 C0.67 2.01 0.34 1.02 0 0 Z " fill="#100E0A" transform="translate(260,632)"/>
<path d="M0 0 C1.98 0.66 3.96 1.32 6 2 C6 3.65 6 5.3 6 7 C3.95880212 5.38405168 1.95927063 3.7143618 0 2 C0 1.34 0 0.68 0 0 Z " fill="#5C5B59" transform="translate(144,610)"/>
<path d="M0 0 C0.99 0.495 0.99 0.495 2 1 C2.73075648 3.3140622 3.40138258 5.64828869 4 8 C3.01 7.67 2.02 7.34 1 7 C0.67 4.69 0.34 2.38 0 0 Z " fill="#0B0A07" transform="translate(421,608)"/>
<path d="M0 0 C0.8125 1.6875 0.8125 1.6875 1 4 C-1.4375 6.75 -1.4375 6.75 -4 9 C-4 5.00095031 -2.27413033 3.19799578 0 0 Z " fill="#E2E1DE" transform="translate(319,598)"/>
<path d="M0 0 C4.42857143 5.14285714 4.42857143 5.14285714 5 9 C4.34 9 3.68 9 3 9 C0 3.375 0 3.375 0 0 Z " fill="#0B0B08" transform="translate(302,535)"/>
<path d="M0 0 C1 3 1 3 -0.4375 6.1875 C-1.2109375 7.5796875 -1.2109375 7.5796875 -2 9 C-3.35439668 6.29120665 -3.06501451 3.99066732 -3 1 C-2.01 0.67 -1.02 0.34 0 0 Z " fill="#44423E" transform="translate(657,519)"/>
<path d="M0 0 C2.7558573 4.13378595 3.10756445 6.05203546 3 11 C0.2441427 6.86621405 -0.10756445 4.94796454 0 0 Z " fill="#0C0A07" transform="translate(561,491)"/>
<path d="M0 0 C1.0326802 2.78823655 1.04509293 3.8677274 0.0625 6.75 C-0.288125 7.4925 -0.63875 8.235 -1 9 C-1.66 9 -2.32 9 -3 9 C-2.44271087 5.65626525 -1.64826111 2.96687001 0 0 Z " fill="#8D8B8A" transform="translate(674,473)"/>
<path d="M0 0 C0.66 0 1.32 0 2 0 C2 1.65 2 3.3 2 5 C2.66 5.33 3.32 5.66 4 6 C2.35 5.67 0.7 5.34 -1 5 C-0.67 3.35 -0.34 1.7 0 0 Z " fill="#13110F" transform="translate(308,447)"/>
<path d="M0 0 C1.98 0 3.96 0 6 0 C6 0.66 6 1.32 6 2 C3.69 2.33 1.38 2.66 -1 3 C-0.67 2.01 -0.34 1.02 0 0 Z " fill="#0D0D0B" transform="translate(233,421)"/>
<path d="M0 0 C0.99 0 1.98 0 3 0 C3 0.66 3 1.32 3 2 C2.34 2 1.68 2 1 2 C0.71125 2.639375 0.4225 3.27875 0.125 3.9375 C-1 6 -1 6 -3 7 C-3 5.68 -3 4.36 -3 3 C-2.01 3 -1.02 3 0 3 C0 2.01 0 1.02 0 0 Z " fill="#2F2E2A" transform="translate(265,400)"/>
</svg>
