<?xml version="1.0" encoding="UTF-8"?>
<svg version="1.1" xmlns="http://www.w3.org/2000/svg" width="600" height="315">
<path d="M0 0 C198 0 396 0 600 0 C600 103.95 600 207.9 600 315 C402 315 204 315 0 315 C0 211.05 0 107.1 0 0 Z " fill="#ED192D" transform="translate(0,0)"/>
<path d="M0 0 C9.32332127 8.70934646 15.7361503 21.24181221 16.375 33.9921875 C16.73126466 49.45772767 13.40429613 63.10408264 2.5625 74.6875 C-9.53135914 85.81165485 -23.90741047 89.95634095 -40.09765625 89.60546875 C-46.01320084 89.03941769 -51.29934851 87.41157716 -56.8125 85.25 C-57.91851562 84.83427734 -57.91851562 84.83427734 -59.046875 84.41015625 C-69.68154776 79.79470827 -78.42792056 69.82402838 -83.09375 59.3828125 C-88.35144862 45.52502115 -88.62447696 30.9955038 -82.8125 17.25 C-81.02265471 13.75166603 -79.03868332 10.48587302 -76.8125 7.25 C-76.19375 6.3425 -75.575 5.435 -74.9375 4.5 C-55.36511511 -16.22370165 -22.14809859 -17.45151518 0 0 Z " fill="#EC1A2D" transform="translate(200.8125,166.75)"/>
<path d="M0 0 C14.98002157 12.31586797 24.6328551 27.71523862 26.73779297 47.2265625 C27.03908941 51.86717105 26.86000358 56.41943691 26.50390625 61.05859375 C26.43171875 62.08210938 26.35953125 63.105625 26.28515625 64.16015625 C24.35118244 80.46707181 14.92630995 96.5456408 2.50390625 107.05859375 C-16.56557752 121.31530305 -37.31090931 124.01155745 -60.49609375 122.05859375 C-77.91595954 119.1172697 -93.21239695 108.61342549 -103.80859375 94.68359375 C-114.73485916 78.86694341 -118.60531939 60.27582623 -115.49609375 41.37109375 C-113.32028534 29.59521817 -107.45125349 18.01080017 -99.49609375 9.05859375 C-99.02300781 8.49398437 -98.54992187 7.929375 -98.0625 7.34765625 C-73.86952598 -19.31891362 -28.21805648 -21.06163124 0 0 Z M-77.49609375 14.05859375 C-78.40681641 14.65994141 -78.40681641 14.65994141 -79.3359375 15.2734375 C-88.49811112 22.10253773 -94.84778506 34.92410033 -96.49609375 46.05859375 C-97.45349412 61.83728836 -94.79429043 75.98504102 -84.30859375 88.24609375 C-75.04730721 97.99723346 -63.79470079 104.42707539 -50.18359375 105.26171875 C-33.73189141 105.47085056 -19.53014579 101.91016885 -7.12109375 90.49609375 C3.49935431 79.14916553 7.24571774 65.36322922 6.81640625 50.12890625 C6.18534468 38.9643753 1.43596073 28.62296291 -5.93359375 20.30859375 C-7.20203125 19.19484375 -7.20203125 19.19484375 -8.49609375 18.05859375 C-9.24632812 17.33929688 -9.24632812 17.33929688 -10.01171875 16.60546875 C-20.97260837 6.46408489 -34.99932724 3.2677119 -49.60546875 3.78125 C-60.4134784 4.55170049 -68.5200398 8.07901682 -77.49609375 14.05859375 Z " fill="#FEF8F8" transform="translate(210.49609375,150.94140625)"/>
<path d="M0 0 C15 0 15 0 18.875 2.8125 C19.95599062 4.17810588 20.99473035 5.57772961 22 7 C23.38774282 8.71491205 24.78429796 10.42271404 26.1875 12.125 C26.94417969 13.06601563 27.70085937 14.00703125 28.48046875 14.9765625 C31.21611755 18.25934106 34.07856903 21.38359186 37 24.5 C41.45897099 29.26066903 45.63799464 34.16469857 49.72265625 39.25390625 C52.66143336 42.79757744 55.78362348 46.15602502 58.91870117 49.52416992 C61.86946347 52.71341919 64.66000223 55.98373905 67.375 59.375 C70.90717974 63.76806943 74.63899098 67.89913537 78.5 72 C83.17624727 76.96741746 87.59591026 82.05239226 91.85546875 87.38671875 C94.87225704 91.06291431 98.09869216 94.53279077 101.34765625 98.00390625 C103 100 103 100 103 102 C103.66 102 104.32 102 105 102 C105 68.67 105 35.34 105 1 C110.61 1 116.22 1 122 1 C122 44.23 122 87.46 122 132 C107 132 107 132 103 130 C101.02734375 127.8203125 101.02734375 127.8203125 98.9375 125.125 C95.59920551 120.92609428 92.16069724 116.91948279 88.5 113 C84.22992783 108.41327079 80.2423502 103.66549239 76.3125 98.78125 C73.8002899 95.75980812 71.17599173 92.87558227 68.5 90 C64.23081848 85.41239887 60.24241483 80.66557272 56.3125 75.78125 C53.80028867 72.75980664 51.17597543 69.87559922 48.5 67 C44.21612691 62.39611426 40.20636967 57.63509033 36.26171875 52.734375 C33.09204319 48.90229747 29.7373572 45.25391031 26.359375 41.60546875 C23.82587544 38.80771344 21.41630855 35.89957027 19 33 C18.67 66 18.34 99 18 133 C12.06 133 6.12 133 0 133 C0 89.11 0 45.22 0 0 Z " fill="#FEF9FA" transform="translate(257,139)"/>
<path d="M0 0 C25.08 0 50.16 0 76 0 C76 5.61 76 11.22 76 17 C57.19 17 38.38 17 19 17 C19 30.53 19 44.06 19 58 C36.82 58 54.64 58 73 58 C73 63.28 73 68.56 73 74 C55.18 74 37.36 74 19 74 C19 87.86 19 101.72 19 116 C38.14 116 57.28 116 77 116 C77 121.61 77 127.22 77 133 C51.59 133 26.18 133 0 133 C0 89.11 0 45.22 0 0 Z " fill="#FEF9FA" transform="translate(406,139)"/>
<path d="M0 0 C24.75 0 49.5 0 75 0 C75 23.1 75 46.2 75 70 C50.25 70 25.5 70 0 70 C0 46.9 0 23.8 0 0 Z " fill="#FEF9FA" transform="translate(349,34)"/>
<path d="M0 0 C24.75 0 49.5 0 75 0 C75 23.1 75 46.2 75 70 C50.25 70 25.5 70 0 70 C0 46.9 0 23.8 0 0 Z " fill="#FEF9F9" transform="translate(176,34)"/>
<path d="M0 0 C24.42 0 48.84 0 74 0 C74 23.1 74 46.2 74 70 C49.58 70 25.16 70 0 70 C0 46.9 0 23.8 0 0 Z " fill="#FEFBFC" transform="translate(263,34)"/>
<path d="M0 0 C23.19875776 0 23.19875776 0 29 4 C32.02598114 7.17007548 33.22603296 9.69978715 33.5625 14 C33.35778522 18.62833422 31.19270665 20.80729335 28 24 C28.928125 24.5775 29.85625 25.155 30.8125 25.75 C34.33209413 28.23441938 36.63883737 30.02824724 37.43359375 34.3671875 C37.44002265 38.49454006 37.19751236 41.51519693 35.625 45.375 C33 48 33 48 23 52 C15.41 52 7.82 52 0 52 C0 34.84 0 17.68 0 0 Z " fill="#E81A2D" transform="translate(282,43)"/>
<path d="M0 0 C24.86363636 0 24.86363636 0 30.875 5.75 C33.42368077 9.64798236 33.73485393 11.42757556 33 16 C31.125 19.4375 31.125 19.4375 29 22 C28.34 22 27.68 22 27 22 C27 22.66 27 23.32 27 24 C27.9075 24.20625 28.815 24.4125 29.75 24.625 C33.94718374 26.40073158 35.05874368 27.89349624 37 32 C37.85198394 36.03957903 37.8884011 39.3935761 35.859375 43.0625 C32.40156888 47.4302551 30.71098455 48.09633848 25 50 C16.75 50 8.5 50 0 50 C0 33.5 0 17 0 0 Z " fill="#E71B2E" transform="translate(196,44)"/>
<path d="M0 0 C0 2.97 0 5.94 0 9 C-1.07314453 8.566875 -1.07314453 8.566875 -2.16796875 8.125 C-10.30301272 5.09409099 -18.99240212 2.75550795 -27.45703125 5.91796875 C-31.82771735 8.42361254 -34.96409463 11.33438353 -37 16 C-37.74032568 21.60642469 -37.77623105 26.32811774 -35.375 31.5 C-30.18688726 36.96117131 -25.43828242 39.08662354 -18.0625 39.375 C-11.10604219 39.35619876 -5.2744943 36.79309762 1 34 C1 37.3 1 40.6 1 44 C-10.610156 47.98557594 -22.19833347 50.65595309 -33.85546875 45.17578125 C-41.59928774 40.93008086 -44.97110603 35.25968016 -48 27 C-49.35657351 20.46728076 -47.891105 15.15512478 -44.6796875 9.39453125 C-40.70195971 3.72395651 -35.16797795 -1.5362762 -28.41796875 -3.59765625 C-18.29159485 -5.28265869 -9.28505419 -4.32401692 0 0 Z " fill="#E32133" transform="translate(408,47)"/>
<path d="M0 0 C4.88258495 1.39502427 7.22366818 3.79584039 10 8 C10.720791 12.48492177 10.3064302 14.4382113 8.125 18.4375 C7.42375 19.283125 6.7225 20.12875 6 21 C5.34 21 4.68 21 4 21 C3.67 21.66 3.34 22.32 3 23 C3 21.35 3 19.7 3 18 C1.576875 18.7734375 1.576875 18.7734375 0.125 19.5625 C-4.7074877 21.68601616 -8.88217551 20.77117903 -14 20 C-14 15.38 -14 10.76 -14 6 C-9.71 6 -5.42 6 -1 6 C-0.67 4.02 -0.34 2.04 0 0 Z " fill="#E52133" transform="translate(219,45)"/>
<path d="M0 0 C13.125 -0.53571429 13.125 -0.53571429 16.8125 1.5625 C19 4 19 4 19.75 7.5 C19 11 19 11 16.8125 13.4375 C11.80931949 16.28434605 5.50464955 15.22467957 0 15 C0 10.05 0 5.1 0 0 Z " fill="#FEFAFB" transform="translate(291,72)"/>
<path d="M0 0 C2.24973447 -0.054138 4.49984383 -0.09285491 6.75 -0.125 C8.00296875 -0.14820312 9.2559375 -0.17140625 10.546875 -0.1953125 C13.74027425 -0.01469037 15.46323512 0.10358353 18 2 C19 5.375 19 5.375 19 9 C17.484375 11.2109375 17.484375 11.2109375 15 13 C12.26317029 13.2911521 9.96059961 13.38322418 7.25 13.25 C6.55261719 13.23195313 5.85523438 13.21390625 5.13671875 13.1953125 C3.42388461 13.14838554 1.71176176 13.07664605 0 13 C0 8.71 0 4.42 0 0 Z " fill="#FEFCFC" transform="translate(205,73)"/>
<path d="M0 0 C19 0 19 0 22 2 C15.4 2 8.8 2 2 2 C2 17.84 2 33.68 2 50 C9.92 50 17.84 50 26 50 C18.76759429 54.8216038 8.69226987 52 0 52 C0 34.84 0 17.68 0 0 Z " fill="#E04B59" transform="translate(282,43)"/>
<path d="M0 0 C9.01875902 -0.48100048 9.01875902 -0.48100048 13.1875 1.5625 C15 4 15 4 15.1875 7.5625 C14 11 14 11 11.4375 12.9375 C7.3362966 14.20514469 4.27109537 14.22091873 0 14 C0 9.38 0 4.76 0 0 Z " fill="#FEF7F8" transform="translate(291,51)"/>
<path d="M0 0 C7.97122862 -0.35692068 7.97122862 -0.35692068 12.0625 1.0625 C14 3 14 3 14.5 6.5 C14 10 14 10 12.6875 11.875 C9.75520708 13.82986195 7.23175012 14.11855328 3.8125 14.0625 C1.9253125 14.0315625 1.9253125 14.0315625 0 14 C0 9.38 0 4.76 0 0 Z " fill="#FEE9EC" transform="translate(205,51)"/>
<path d="M0 0 C4.83766699 0.41465717 6.85646376 2.4198615 10 6 C11.60646029 9.21292058 11.62441428 12.5258652 11 16 C8.5 19 8.5 19 6 21 C6 19.35 6 17.7 6 16 C4.68 16 3.36 16 2 16 C2 16.66 2 17.32 2 18 C1.34 17.67 0.68 17.34 0 17 C0.2475 15.9275 0.495 14.855 0.75 13.75 C1.42428622 9.97254504 1.42428622 9.97254504 -0.9375 7.5625 C-1.618125 7.046875 -2.29875 6.53125 -3 6 C-2.21625 6.061875 -1.4325 6.12375 -0.625 6.1875 C0.24125 6.125625 1.1075 6.06375 2 6 C2.66 5.01 3.32 4.02 4 3 C2.68 2.34 1.36 1.68 0 1 C0 0.67 0 0.34 0 0 Z " fill="#DF2032" transform="translate(304,45)"/>
<path d="M0 0 C3.30379595 1.26528356 5.52367052 2.46015993 7.875 5.125 C9.43773024 9.11864395 9.2491731 12.76405738 9 17 C8.34 17.33 7.68 17.66 7 18 C6.505 13.05 6.505 13.05 6 8 C4.68 8 3.36 8 2 8 C1.67 10.97 1.34 13.94 1 17 C0.01 16.67 -0.98 16.34 -2 16 C-1.814375 14.88625 -1.62875 13.7725 -1.4375 12.625 C-0.68319343 9.17431139 -0.68319343 9.17431139 -2 7 C-5.46712111 5.84429296 -8.5414956 5.67164707 -12.1875 5.4375 C-13.45980469 5.35371094 -14.73210937 5.26992187 -16.04296875 5.18359375 C-17.01878906 5.12300781 -17.99460938 5.06242187 -19 5 C-19 9.29 -19 13.58 -19 18 C-19.33 18 -19.66 18 -20 18 C-20 13.38 -20 8.76 -20 4 C-18.14375 3.87625 -16.2875 3.7525 -14.375 3.625 C-9.14232688 3.19305764 -4.72238383 2.36119191 0 0 Z " fill="#DB2D3D" transform="translate(224,68)"/>
<path d="M0 0 C1.98 1.65 3.96 3.3 6 5 C5.34 5.66 4.68 6.32 4 7 C3.34 6.34 2.68 5.68 2 5 C1.67 36.68 1.34 68.36 1 101 C0.67 101 0.34 101 0 101 C0 67.67 0 34.34 0 0 Z " fill="#C41B28" transform="translate(275,171)"/>
<path d="M0 0 C4.43888167 1.35632495 6.70741409 2.92429172 9 7 C9.32430895 10.36148801 9.2352436 13.63470965 9 17 C8.67 17 8.34 17 8 17 C7.67 14.03 7.34 11.06 7 8 C4.46255685 8.54708727 4.46255685 8.54708727 2 10 C1.10169161 13.05272465 1.10169161 13.05272465 1 16 C0.01 16 -0.98 16 -2 16 C-1.67 15.67 -1.34 15.34 -1 15 C-0.49389093 10.2045846 -0.49389093 10.2045846 -2.5 6.0625 C-2.995 5.711875 -3.49 5.36125 -4 5 C-3.34 5 -2.68 5 -2 5 C-1.34 3.35 -0.68 1.7 0 0 Z " fill="#DE1E2F" transform="translate(310,68)"/>
<path d="M0 0 C2.0625 -0.061875 4.125 -0.12375 6.25 -0.1875 C7.99023438 -0.23970703 7.99023438 -0.23970703 9.765625 -0.29296875 C13 0 13 0 17 3 C12.05 2.67 7.1 2.34 2 2 C2 5.63 2 9.26 2 13 C6.29 13 10.58 13 15 13 C13 15 13 15 9.9609375 15.1953125 C6.640625 15.13020833 3.3203125 15.06510417 0 15 C0 10.05 0 5.1 0 0 Z " fill="#F9BAC1" transform="translate(291,72)"/>
<path d="M0 0 C1.03382813 0.32613281 2.06765625 0.65226562 3.1328125 0.98828125 C9.31120256 2.52812197 15.54761901 2.25084048 21.875 2.1875 C23.69837891 2.1865332 23.69837891 2.1865332 25.55859375 2.18554688 C32.43032316 2.15218897 39.18001869 1.85569791 46 1 C45.67 1.66 45.34 2.32 45 3 C42.67284 3.37400786 40.33882138 3.70764733 38 4 C37.67 4.33 37.34 4.66 37 5 C32.8824547 5.28528027 28.75122066 5.23200122 24.625 5.25 C23.48160156 5.270625 22.33820313 5.29125 21.16015625 5.3125 C13.63473078 5.34674539 7.13757527 4.39787809 0 2 C0 1.34 0 0.68 0 0 Z " fill="#D43241" transform="translate(142,270)"/>
<path d="M0 0 C0.5775 0.20625 1.155 0.4125 1.75 0.625 C-8.59153096 6.08239328 -21.58343728 6.14817062 -32.6875 3.125 C-34.21470989 2.64482921 -35.73861888 2.15288364 -37.25 1.625 C-34.11320554 0.65374483 -31.74452957 0.65441476 -28.5 1.0625 C-23.59369082 1.5657112 -18.74029585 1.77268736 -13.8125 1.8125 C-13.12639648 1.82531006 -12.44029297 1.83812012 -11.73339844 1.85131836 C-7.5664133 1.86005525 -3.72861802 -0.62143634 0 0 Z " fill="#D83442" transform="translate(183.25,251.375)"/>
<path d="M0 0 C2.24973447 -0.054138 4.49984383 -0.09285491 6.75 -0.125 C8.00296875 -0.14820312 9.2559375 -0.17140625 10.546875 -0.1953125 C13.72820492 -0.01537302 15.36521896 0.31001418 18 2 C15.44925089 3.27537455 14.70184116 2.70461685 12 2 C10.41788427 1.93451508 8.83329919 1.91421619 7.25 1.9375 C5.8475 1.958125 4.445 1.97875 3 2 C2.67 5.3 2.34 8.6 2 12 C3.72945653 11.85764543 5.45855654 11.71095618 7.1875 11.5625 C8.15042969 11.48128906 9.11335937 11.40007812 10.10546875 11.31640625 C12.78649602 11.02333849 15.3662986 10.57296246 18 10 C16.98046875 11.48828125 16.98046875 11.48828125 15 13 C12.35003674 13.2172101 9.94923442 13.28351554 7.3125 13.1875 C6.2596582 13.16719727 6.2596582 13.16719727 5.18554688 13.14648438 C3.45670171 13.11120182 1.72825235 13.05739583 0 13 C0 8.71 0 4.42 0 0 Z " fill="#FEE2E7" transform="translate(205,73)"/>
<path d="M0 0 C1.60875 -0.04125 3.2175 -0.0825 4.875 -0.125 C5.77992188 -0.14820313 6.68484375 -0.17140625 7.6171875 -0.1953125 C10 0 10 0 12 2 C8.7 2 5.4 2 2 2 C2 5.3 2 8.6 2 12 C4.97 12 7.94 12 11 12 C7.91111478 14.05925681 7.29064073 14.2390374 3.8125 14.125 C1.9253125 14.063125 1.9253125 14.063125 0 14 C0 9.38 0 4.76 0 0 Z " fill="#FEC0C7" transform="translate(291,51)"/>
<path d="M0 0 C0.33 0 0.66 0 1 0 C1.30029389 5.80568182 0.84824075 8.83097049 -2 14 C-2.80941282 16.30127173 -3.54079017 18.61648309 -4.25390625 20.94921875 C-5 23 -5 23 -7 26 C-7.66 26 -8.32 26 -9 26 C-7.69732627 21.9351755 -6.20221398 18.03801629 -4.5 14.125 C-2.52065127 9.44229297 -1.05091415 4.9679578 0 0 Z " fill="#D53040" transform="translate(236,216)"/>
<path d="M0 0 C4.875 1.75 4.875 1.75 6 4 C4.02 4.33 2.04 4.66 0 5 C0.33 5.66 0.66 6.32 1 7 C1.039992 8.99960012 1.04346799 11.00047242 1 13 C0.67 13 0.34 13 0 13 C-0.433125 11.576875 -0.433125 11.576875 -0.875 10.125 C-1.76825109 6.94788422 -1.76825109 6.94788422 -4 5 C-3.34 5 -2.68 5 -2 5 C-1.34 3.35 -0.68 1.7 0 0 Z " fill="#E02B3D" transform="translate(310,68)"/>
<path d="M0 0 C1.98 1.65 3.96 3.3 6 5 C5.34 5.66 4.68 6.32 4 7 C3.34 6.34 2.68 5.68 2 5 C1.67 10.61 1.34 16.22 1 22 C0.67 22 0.34 22 0 22 C0 14.74 0 7.48 0 0 Z " fill="#C62432" transform="translate(275,171)"/>
<path d="M0 0 C0.66 0 1.32 0 2 0 C2.45374191 5.67177385 1.65083143 8.5975268 -2 13 C-2.66 13 -3.32 13 -4 13 C-4.33 13.66 -4.66 14.32 -5 15 C-4.67 13.35 -4.34 11.7 -4 10 C-3.34 10 -2.68 10 -2 10 C-1.34 6.7 -0.68 3.4 0 0 Z " fill="#D8313F" transform="translate(227,53)"/>
<path d="M0 0 C0.61875 0.639375 1.2375 1.27875 1.875 1.9375 C6.07201536 6.14668062 10.56422757 10.04656399 15 14 C11.28151944 14 10.72513871 13.15593473 8.0625 10.6875 C6.00243129 8.79414206 4.0876794 7.05759184 1.74609375 5.51953125 C1.16988281 5.01808594 0.59367187 4.51664063 0 4 C0 2.68 0 1.36 0 0 Z " fill="#D12634" transform="translate(107,246)"/>
<path d="M0 0 C4.10110762 1.40398279 6.98089159 3.37087038 10.3125 6.125 C11.19550781 6.84945312 12.07851562 7.57390625 12.98828125 8.3203125 C13.65214844 8.87460938 14.31601563 9.42890625 15 10 C14.34 10.66 13.68 11.32 13 12 C12.56429687 11.54109375 12.12859375 11.0821875 11.6796875 10.609375 C8.00836276 6.82679799 4.44365055 3.81792474 0 1 C0 0.67 0 0.34 0 0 Z " fill="#D4313F" transform="translate(205,147)"/>
<path d="M0 0 C0 3.3 0 6.6 0 10 C-0.66 10 -1.32 10 -2 10 C-2.33 8.02 -2.66 6.04 -3 4 C-4.32 3.67 -5.64 3.34 -7 3 C-1.125 0 -1.125 0 0 0 Z " fill="#CB3644" transform="translate(409,81)"/>
<path d="M0 0 C-0.33 1.65 -0.66 3.3 -1 5 C-4.63 5 -8.26 5 -12 5 C-8.45976076 2.63984051 -4.36489861 0 0 0 Z " fill="#DB3040" transform="translate(202,265)"/>
<path d="M0 0 C0.33 0.99 0.66 1.98 1 3 C-1.89380576 7.17048478 -3.98990293 9.56854369 -9 11 C-8.60167969 10.54109375 -8.20335937 10.0821875 -7.79296875 9.609375 C-5.08857938 6.47728415 -2.42008229 3.36122541 0 0 Z " fill="#FFDCE0" transform="translate(209,233)"/>
<path d="M0 0 C3.91939465 3.80411834 7.49102731 7.81576108 11 12 C7.612801 10.5611898 5.6405896 8.77880501 3.25 6 C2.63640625 5.29875 2.0228125 4.5975 1.390625 3.875 C0 2 0 2 0 0 Z " fill="#D12E3E" transform="translate(329,233)"/>
<path d="M0 0 C2.0625 1.625 2.0625 1.625 4 4 C3.75 7.25 3.75 7.25 3 10 C2.34 10 1.68 10 1 10 C0.67 6.7 0.34 3.4 0 0 Z " fill="#E42033" transform="translate(297,196)"/>
<path d="M0 0 C0.721875 0.309375 1.44375 0.61875 2.1875 0.9375 C4.80307309 1.92560539 7.25118982 2.5287754 10 3 C10 4.32 10 5.64 10 7 C5.56541027 5.6062718 3.12621626 3.39417765 0 0 Z " fill="#D72938" transform="translate(131,243)"/>
<path d="M0 0 C1.65 1.65 3.3 3.3 5 5 C3.35 6.32 1.7 7.64 0 9 C0 6.03 0 3.06 0 0 Z " fill="#E02535" transform="translate(282,179)"/>
<path d="M0 0 C0.33 0.66 0.66 1.32 1 2 C-0.98 4.31 -2.96 6.62 -5 9 C-5.66 8.67 -6.32 8.34 -7 8 C-4.69 5.36 -2.38 2.72 0 0 Z " fill="#FEDBDF" transform="translate(114,157)"/>
<path d="M0 0 C4.95 0 9.9 0 15 0 C15.33 1.32 15.66 2.64 16 4 C15.01 3.34 14.02 2.68 13 2 C9.80193335 1.5396236 9.80193335 1.5396236 6.3125 1.375 C4.54326172 1.26285156 4.54326172 1.26285156 2.73828125 1.1484375 C1.83464844 1.09945312 0.93101562 1.05046875 0 1 C0 0.67 0 0.34 0 0 Z " fill="#C82938" transform="translate(259,138)"/>
<path d="M0 0 C0.99 0.99 1.98 1.98 3 3 C-1.875 7 -1.875 7 -3 7 C-3 5.35 -3 3.7 -3 2 C-2.01 2.495 -2.01 2.495 -1 3 C-0.67 2.01 -0.34 1.02 0 0 Z " fill="#E02337" transform="translate(124,144)"/>
<path d="M0 0 C0.66 0 1.32 0 2 0 C2.33 1.32 2.66 2.64 3 4 C0 6 0 6 -3 6 C-3 5.34 -3 4.68 -3 4 C-2.34 4 -1.68 4 -1 4 C-0.67 2.68 -0.34 1.36 0 0 Z " fill="#DE2536" transform="translate(225,87)"/>
<path d="M0 0 C-1.15173355 2.46800047 -2.04783565 4.04783565 -4 6 C-4.99 5.67 -5.98 5.34 -7 5 C-2.25 0 -2.25 0 0 0 Z " fill="#FEE3E6" transform="translate(379,54)"/>
</svg>
