<?xml version="1.0" encoding="UTF-8"?>
<svg version="1.1" xmlns="http://www.w3.org/2000/svg" width="200" height="147">
<path d="M0 0 C66 0 132 0 200 0 C200 48.51 200 97.02 200 147 C134 147 68 147 0 147 C0 98.49 0 49.98 0 0 Z " fill="#4090CB" transform="translate(0,0)"/>
<path d="M0 0 C0 21.45 0 42.9 0 65 C-3.3 65 -6.6 65 -10 65 C-10 56.42 -10 47.84 -10 39 C-11.65 39 -13.3 39 -15 39 C-15 47.58 -15 56.16 -15 65 C-17.97 65 -20.94 65 -24 65 C-24 48.5 -24 32 -24 15 C-25.98 15 -27.96 15 -30 15 C-30 31.5 -30 48 -30 65 C-32.64 65 -35.28 65 -38 65 C-38 49.16 -38 33.32 -38 17 C-41.63 17.33 -45.26 17.66 -49 18 C-49 14.37 -49 10.74 -49 7 C-44.80148069 6.28373718 -40.60226012 5.57178296 -36.40234375 4.86376953 C-34.97441001 4.62243318 -33.54667269 4.37993152 -32.11914062 4.13623047 C-30.06431098 3.7856502 -28.00880569 3.43930052 -25.953125 3.09375 C-24.71723633 2.88427734 -23.48134766 2.67480469 -22.20800781 2.45898438 C-19 2 -19 2 -15 2 C-15 9.59 -15 17.18 -15 25 C-13.35 25 -11.7 25 -10 25 C-10 17.08 -10 9.16 -10 1 C-5 0 -5 0 0 0 Z " fill="#F7FAFC" transform="translate(71,61)"/>
<path d="M0 0 C0 5.61 0 11.22 0 17 C-12.71428571 19.28571429 -12.71428571 19.28571429 -19 19 C-19 23.29 -19 27.58 -19 32 C-10.585 31.505 -10.585 31.505 -2 31 C-2 36.61 -2 42.22 -2 48 C-7.61 48 -13.22 48 -19 48 C-19 53.28 -19 58.56 -19 64 C-12.73 64 -6.46 64 0 64 C0 69.28 0 74.56 0 80 C-10.56 80 -21.12 80 -32 80 C-32 54.92 -32 29.84 -32 4 C-25.73 3.01 -19.46 2.02 -13 1 C-7 0 -7 0 0 0 Z " fill="#FCFDFE" transform="translate(174,45)"/>
<path d="M0 0 C2.61182885 2.30812782 3.4843437 3.96868741 5 7 C5.15173086 9.92957281 5.23145226 12.81945745 5.25 15.75 C5.270625 16.54921875 5.29125 17.3484375 5.3125 18.171875 C5.34569133 23.21695667 4.76956565 26.61709514 2 31 C1.34 31.66 0.68 32.32 0 33 C0.639375 33.78375 1.27875 34.5675 1.9375 35.375 C4.7797507 38.99240998 5.1396919 40.77407523 5.28125 45.3046875 C5.31863281 46.36300781 5.35601562 47.42132813 5.39453125 48.51171875 C5.44673828 50.17654297 5.44673828 50.17654297 5.5 51.875 C5.56900073 54.06002301 5.64176588 56.2449312 5.71875 58.4296875 C5.74904297 59.40147949 5.77933594 60.37327148 5.81054688 61.37451172 C5.94305305 64.25978208 5.94305305 64.25978208 7 68 C3.04 68 -0.92 68 -5 68 C-5.99455909 65.01632274 -6.19559632 62.7995808 -6.31640625 59.67578125 C-6.35830078 58.64775391 -6.40019531 57.61972656 -6.44335938 56.56054688 C-6.48267578 55.48869141 -6.52199219 54.41683594 -6.5625 53.3125 C-6.60568359 52.22904297 -6.64886719 51.14558594 -6.69335938 50.02929688 C-6.79946838 47.35299209 -6.90152361 44.67659474 -7 42 C-8.65 41.67 -10.3 41.34 -12 41 C-12 49.91 -12 58.82 -12 68 C-15.3 68 -18.6 68 -22 68 C-22 46.22 -22 24.44 -22 2 C-6.80274443 -1.03945111 -6.80274443 -1.03945111 0 0 Z " fill="#FBFCFD" transform="translate(98,58)"/>
<path d="M0 0 C0 5.28 0 10.56 0 16 C-5.66033437 16.8086192 -10.37223197 17.08658105 -16 17 C-16 21.29 -16 25.58 -16 30 C-11.05 29.67 -6.1 29.34 -1 29 C-1 33.95 -1 38.9 -1 44 C-5.95 44.33 -10.9 44.66 -16 45 C-16 49.62 -16 54.24 -16 59 C-10.39 59 -4.78 59 1 59 C1 64.28 1 69.56 1 75 C-8.57 75 -18.14 75 -28 75 C-28 51.57 -28 28.14 -28 4 C-22.50349325 2.77855406 -17.28338863 1.65662216 -11.75 0.875 C-10.58984375 0.70742188 -9.4296875 0.53984375 -8.234375 0.3671875 C-5 0 -5 0 0 0 Z " fill="#F7FAFC" transform="translate(136,51)"/>
<path d="M0 0 C7.59 0 15.18 0 23 0 C23 7.26 23 14.52 23 22 C15.41 22 7.82 22 0 22 C0 14.74 0 7.48 0 0 Z " fill="#FBFCFD" transform="translate(113,21)"/>
<path d="M0 0 C7.59 0 15.18 0 23 0 C23 7.26 23 14.52 23 22 C15.41 22 7.82 22 0 22 C0 14.74 0 7.48 0 0 Z " fill="#FDFDFE" transform="translate(86,21)"/>
<path d="M0 0 C7.59 0 15.18 0 23 0 C23 7.26 23 14.52 23 22 C15.41 22 7.82 22 0 22 C0 14.74 0 7.48 0 0 Z " fill="#FCFDFE" transform="translate(59,21)"/>
<path d="M0 0 C2.64 0 5.28 0 8 0 C10.70165032 2.70165032 10 4.29811832 10 8 C10.66 8.66 11.32 9.32 12 10 C11.8125 12 11.8125 12 11 14 C8 16 8 16 0 16 C0 10.72 0 5.44 0 0 Z " fill="#63A5D5" transform="translate(65,24)"/>
<path d="M0 0 C7 0 7 0 10 2 C10.04165763 3.99956611 10.04165763 6.00043389 10 8 C10.66 8.66 11.32 9.32 12 10 C11.8125 12 11.8125 12 11 14 C8 16 8 16 0 16 C0 10.72 0 5.44 0 0 Z " fill="#559DD1" transform="translate(92,24)"/>
<path d="M0 0 C0.66 0.33 1.32 0.66 2 1 C2 1.66 2 2.32 2 3 C1.37351563 3.04898437 0.74703125 3.09796875 0.1015625 3.1484375 C-0.71570313 3.22320313 -1.53296875 3.29796875 -2.375 3.375 C-3.18710938 3.44460937 -3.99921875 3.51421875 -4.8359375 3.5859375 C-7.20334191 3.82892588 -7.20334191 3.82892588 -9 6 C-8.71016731 9.30683466 -8.71016731 9.30683466 -7 12 C-5.31391034 12.07205511 -3.62499341 12.08386068 -1.9375 12.0625 C-1.01839844 12.05347656 -0.09929687 12.04445313 0.84765625 12.03515625 C1.55792969 12.02355469 2.26820313 12.01195312 3 12 C3 12.99 3 13.98 3 15 C-0.5011671 16.75058355 -4.1895035 16.68864394 -8 16 C-10.69955941 14.24680299 -11.36466821 12.94359722 -13 10 C-13.15901321 6.02466977 -12.52188711 4.58328559 -9.875 1.625 C-6.32164891 -0.38341583 -4.02377473 -0.37960139 0 0 Z " fill="#539CD0" transform="translate(129,24)"/>
<path d="M0 0 C1.65 0 3.3 0 5 0 C6.80271782 1.80271782 6.21502284 4.44408749 6.25 6.875 C6.27578125 7.94492188 6.3015625 9.01484375 6.328125 10.1171875 C6 13 6 13 4.671875 14.8828125 C3 16 3 16 0 16 C0 10.72 0 5.44 0 0 Z " fill="#4493CC" transform="translate(86,71)"/>
<path d="M0 0 C0.99 0.33 1.98 0.66 3 1 C3 3.31 3 5.62 3 8 C0.3333581 9.33332095 -1.16680303 8.67102033 -4 8 C-4 9.65 -4 11.3 -4 13 C-2.68 13.33 -1.36 13.66 0 14 C-1.98 14 -3.96 14 -6 14 C-6 10.04 -6 6.08 -6 2 C-5.34 2 -4.68 2 -4 2 C-4 3.32 -4 4.64 -4 6 C-3.01 5.67 -2.02 5.34 -1 5 C-0.67 3.35 -0.34 1.7 0 0 Z " fill="#4694CD" transform="translate(99,25)"/>
<path d="M0 0 C2.31 0 4.62 0 7 0 C7 1.98 7 3.96 7 6 C5.68 6.33 4.36 6.66 3 7 C3 5.68 3 4.36 3 3 C2.01 2.67 1.02 2.34 0 2 C0 1.34 0 0.68 0 0 Z " fill="#96C2E2" transform="translate(92,24)"/>
<path d="M0 0 C0.99 0.33 1.98 0.66 3 1 C2.6875 2.875 2.6875 2.875 2 5 C-1.6441774 7.4294516 -3.71241272 7.16179575 -8 7 C-7.34 6.01 -6.68 5.02 -6 4 C-2.875 3.8125 -2.875 3.8125 0 4 C0 2.68 0 1.36 0 0 Z " fill="#559CD0" transform="translate(74,33)"/>
<path d="M0 0 C1.65 0 3.3 0 5 0 C5.33 1.32 5.66 2.64 6 4 C4.02 4 2.04 4 0 4 C0 2.68 0 1.36 0 0 Z " fill="#ECF4F9" transform="translate(95,33)"/>
<path d="M0 0 C1.65 0 3.3 0 5 0 C5.33 1.32 5.66 2.64 6 4 C4.02 4 2.04 4 0 4 C0 2.68 0 1.36 0 0 Z " fill="#EEF5FA" transform="translate(68,33)"/>
<path d="M0 0 C0 0.99 0 1.98 0 3 C-1.32 3.33 -2.64 3.66 -4 4 C-4 3.34 -4 2.68 -4 2 C-5.65 2 -7.3 2 -9 2 C-9 1.67 -9 1.34 -9 1 C-2.25 0 -2.25 0 0 0 Z " fill="#74AFD9" transform="translate(132,36)"/>
</svg>
