<?xml version="1.0" encoding="UTF-8" standalone="no"?>
<!-- Created with Inkscape (http://www.inkscape.org/) -->
<svg
   xmlns:dc="http://purl.org/dc/elements/1.1/"
   xmlns:cc="http://web.resource.org/cc/"
   xmlns:rdf="http://www.w3.org/1999/02/22-rdf-syntax-ns#"
   xmlns:svg="http://www.w3.org/2000/svg"
   xmlns="http://www.w3.org/2000/svg"
   xmlns:xlink="http://www.w3.org/1999/xlink"
   xmlns:sodipodi="http://sodipodi.sourceforge.net/DTD/sodipodi-0.dtd"
   xmlns:inkscape="http://www.inkscape.org/namespaces/inkscape"
   width="200"
   height="147"
   id="svg2"
   sodipodi:version="0.32"
   inkscape:version="0.45.1"
   version="1.0"
   inkscape:output_extension="org.inkscape.output.svg.inkscape">
  <g
     inkscape:label="Layer 1"
     inkscape:groupmode="layer"
     id="layer1"
     transform="translate(-38.37547,-775.22202)">
    <g
       id="g3894"
       clip-path="url(#id282)"
       transform="matrix(1,0,0,-1,83.242583,942.18102)">
      <g
         id="g3896"
         clip-path="url(#id283)">
        <use
           id="use3898"
           xlink:href="#id285"
           x="0"
           y="0"
           width="744.09448"
           height="1052.3622" />
      </g>
    </g>
    <g
       clip-path="url(#id310)"
       id="use4176"
       transform="matrix(7.2607602,0,0,-7.2607602,-1158.5605,4055.5767)">
      <g
         transform="matrix(0.89044,0,0,0.89044,155.9055,426.52516)"
         id="g3290">
        <path
           d="M 10.04498,28.3692 L 40.97949,28.3692 L 40.97949,5.64551 L 10.04498,5.64551 L 10.04498,28.3692"
           id="path3293"
           style="fill:#3f90cb;fill-rule:nonzero;stroke:none" />
        <path
           d="M 29.78229,24.65244 C 29.76657,24.65439 29.75,24.65732 29.7334,24.66025 L 29.71387,24.66217 C 29.68661,24.66611 29.65829,24.67001 29.62988,24.67194 C 29.61041,24.67389 29.59088,24.6749 29.5723,24.67682 C 29.53809,24.6788 29.504,24.67975 29.47168,24.67975 C 29.45609,24.67975 29.4483,24.6788 29.43359,24.6788 C 29.40628,24.6788 29.37988,24.67682 29.35358,24.67587 C 29.33887,24.6749 29.32428,24.67389 29.30957,24.67194 C 29.28809,24.67001 29.26761,24.66803 29.24609,24.6651 L 29.22861,24.66318 L 29.20898,24.66025 L 29.1846,24.65631 C 29.1749,24.65439 29.16409,24.65244 29.15427,24.65045 C 29.13968,24.64853 29.12598,24.6456 29.11139,24.64267 C 29.0264,24.62408 28.9473,24.5997 28.87408,24.57135 C 28.836,24.5567 28.79889,24.54111 28.76468,24.52448 C 28.73538,24.50983 28.7081,24.49615 28.68268,24.48053 C 28.65628,24.46588 28.6319,24.45029 28.60748,24.43463 C 28.59479,24.42487 28.58109,24.41608 28.56741,24.40729 C 28.55569,24.3985 28.54498,24.39072 28.53418,24.38193 C 28.5108,24.36435 28.48929,24.34576 28.46878,24.32819 C 28.44928,24.31061 28.43069,24.29404 28.41309,24.27646 C 28.39847,24.2608 28.3829,24.24615 28.36917,24.22955 C 28.35361,24.21393 28.33987,24.19736 28.32516,24.17978 C 28.31058,24.16119 28.29691,24.14267 28.28128,24.12311 C 28.27148,24.10846 28.26077,24.09381 28.25198,24.07822 C 28.2442,24.06845 28.23828,24.05771 28.23148,24.04791 C 28.19339,23.98642 28.16119,23.91992 28.13379,23.84961 C 28.10059,23.76172 28.07617,23.66699 28.06158,23.56741 C 28.05771,23.53522 28.05569,23.50391 28.0528,23.4707 C 28.05179,23.44531 28.0499,23.41992 28.0499,23.39459 C 28.0499,23.375 28.05078,23.3555 28.05179,23.336 C 28.0528,23.31641 28.05469,23.29691 28.0567,23.27832 L 28.05859,23.26471 C 28.06158,23.24121 28.06448,23.21881 28.0694,23.19632 C 28.07037,23.1875 28.0723,23.17871 28.07428,23.17093 C 28.07819,23.1524 28.0831,23.13281 28.08789,23.1153 C 28.09479,23.09183 28.10059,23.0694 28.10837,23.04691 C 28.11719,23.01859 28.12799,22.99222 28.1387,22.96582 C 28.15628,22.92484 28.1749,22.88382 28.19629,22.84671 C 28.20807,22.82422 28.21979,22.8028 28.2334,22.78232 C 28.24319,22.76572 28.254,22.75101 28.26468,22.73441 C 28.27838,22.7139 28.29297,22.69531 28.30768,22.67581 C 28.3233,22.65631 28.3389,22.63773 28.35361,22.62012 C 28.37411,22.59772 28.39359,22.57721 28.4122,22.5596 L 28.42099,22.54892 C 28.43759,22.53421 28.45419,22.51761 28.47369,22.50101 C 28.4874,22.49033 28.5,22.47852 28.51569,22.46683 C 28.5293,22.45609 28.54401,22.44531 28.55957,22.43359 C 28.57718,22.42093 28.59579,22.40732 28.6163,22.39459 C 28.6377,22.38089 28.66119,22.36621 28.6846,22.35263 C 28.7334,22.3262 28.78519,22.30081 28.8428,22.2774 C 28.8653,22.26859 28.88681,22.2608 28.91019,22.25201 C 28.93359,22.2442 28.95709,22.2373 28.98148,22.2305 C 29.02249,22.2178 29.06647,22.20801 29.1124,22.19919 C 29.14951,22.19141 29.18851,22.18561 29.22861,22.18069 C 29.26761,22.17581 29.30768,22.17291 29.35059,22.1709 C 29.37109,22.16989 29.39157,22.16803 29.41309,22.16803 C 29.42291,22.16803 29.43268,22.16699 29.44238,22.16699 C 29.51859,22.16699 29.5889,22.1709 29.6543,22.17581 L 29.66699,22.1778 C 29.69241,22.17972 29.7178,22.18262 29.74219,22.1846 C 29.7793,22.18948 29.81549,22.19531 29.84869,22.2012 C 29.87018,22.20511 29.89069,22.20901 29.91119,22.2139 C 29.94238,22.2207 29.97168,22.2276 30,22.23441 C 30.0206,22.2403 30.0401,22.24609 30.06058,22.25201 C 30.08307,22.2598 30.1055,22.26761 30.12698,22.27441 L 30.14648,22.28131 C 30.15729,22.28522 30.17191,22.2901 30.18848,22.29691 C 30.20999,22.30472 30.23538,22.31549 30.26569,22.32809 C 30.28421,22.336 30.3028,22.34479 30.32327,22.35263 C 30.34088,22.36142 30.35837,22.37012 30.37799,22.37991 C 30.3858,22.38281 30.39359,22.38669 30.4014,22.39072 L 30.4014,22.85452 C 30.39648,22.85159 30.39069,22.84772 30.38477,22.84482 L 30.35257,22.82523 C 30.32129,22.8067 30.2901,22.78812 30.2598,22.77151 C 30.22659,22.75302 30.19339,22.73642 30.16119,22.7207 C 30.10358,22.69339 30.04889,22.6709 29.99518,22.6524 C 29.89459,22.61621 29.80179,22.5928 29.71979,22.57813 C 29.70999,22.57721 29.7002,22.57523 29.6915,22.5733 C 29.66901,22.57031 29.64648,22.56741 29.62598,22.56552 C 29.59378,22.56152 29.56351,22.5596 29.5372,22.55862 C 29.51859,22.55762 29.50299,22.55762 29.4874,22.55762 C 29.45419,22.55762 29.42001,22.55762 29.38678,22.56061 C 29.34579,22.56351 29.30469,22.56839 29.26266,22.57419 C 29.19629,22.586 29.129,22.60352 29.06348,22.62701 C 29.0538,22.63092 29.04398,22.63382 29.03418,22.6387 C 29.0274,22.64069 29.02148,22.64359 29.01468,22.64551 C 29.00488,22.65039 28.99319,22.6553 28.9834,22.66022 C 28.95999,22.6709 28.93759,22.68262 28.91611,22.69531 C 28.9043,22.7012 28.89459,22.70804 28.8829,22.7149 C 28.87109,22.72171 28.86139,22.72852 28.84967,22.73642 C 28.83701,22.74612 28.82327,22.75589 28.8096,22.76572 C 28.79788,22.77542 28.78519,22.78622 28.77347,22.79593 L 28.75879,22.8096 L 28.75098,22.81644 L 28.74609,22.82031 L 28.7403,22.8262 C 28.71979,22.84671 28.7012,22.86722 28.68359,22.8887 C 28.67389,22.90042 28.66507,22.91211 28.6553,22.92392 C 28.64648,22.93561 28.63968,22.94733 28.6319,22.95901 C 28.625,22.96881 28.61819,22.9805 28.61139,22.99121 C 28.60159,23.0069 28.59381,23.02353 28.58499,23.0401 C 28.57819,23.05472 28.5723,23.06839 28.5665,23.08212 C 28.55569,23.10449 28.54788,23.12802 28.5401,23.15042 C 28.53519,23.168 28.53027,23.18561 28.5264,23.20221 C 28.5137,23.25101 28.5079,23.29489 28.50488,23.33209 C 28.50299,23.34671 28.50198,23.36041 28.50098,23.37311 C 28.5,23.3916 28.5,23.40732 28.5,23.41992 C 28.5,23.42871 28.5,23.43851 28.50098,23.44922 C 28.50198,23.47562 28.50397,23.50983 28.50977,23.54791 C 28.51266,23.57132 28.51761,23.59573 28.5235,23.6221 C 28.52737,23.63971 28.53329,23.65729 28.53809,23.67484 C 28.54401,23.69141 28.5499,23.70801 28.55569,23.72562 C 28.56058,23.7373 28.56451,23.74811 28.5704,23.7598 C 28.57718,23.77539 28.58398,23.79102 28.5928,23.8067 C 28.59869,23.8194 28.6055,23.83112 28.6124,23.8428 C 28.62799,23.8692 28.6456,23.89551 28.66507,23.92191 C 28.67099,23.93069 28.6788,23.94052 28.68658,23.94922 C 28.69629,23.96191 28.70709,23.97369 28.71777,23.98538 C 28.72269,23.99121 28.72861,23.9971 28.73441,24.00299 C 28.8194,24.08795 28.9151,24.15146 29.01367,24.19635 C 29.0293,24.20419 29.04501,24.21005 29.06058,24.21591 C 29.0762,24.22272 29.0918,24.22763 29.10748,24.23349 C 29.12411,24.23935 29.1416,24.2442 29.15921,24.25009 C 29.1749,24.254 29.1915,24.25787 29.2081,24.26181 C 29.22467,24.26474 29.2413,24.26865 29.2569,24.27158 C 29.27539,24.27545 29.293,24.27744 29.31058,24.28036 C 29.32919,24.28232 29.34579,24.28424 29.36429,24.28525 C 29.39749,24.28915 29.43069,24.2901 29.4639,24.2901 C 29.4747,24.2901 29.48441,24.2901 29.49518,24.2901 C 29.51959,24.28915 29.543,24.28915 29.56549,24.28717 C 29.58209,24.28622 29.59769,24.28525 29.6124,24.28329 C 29.6416,24.28131 29.66998,24.27744 29.6973,24.27353 C 29.72079,24.26959 29.7442,24.26572 29.76468,24.2608 C 29.79889,24.25494 29.82919,24.24713 29.85651,24.23935 C 29.87411,24.23541 29.89069,24.23056 29.9053,24.22565 C 29.9278,24.21979 29.9473,24.21393 29.96201,24.20807 C 29.9874,24.20026 30.00198,24.19443 30.00198,24.19443 C 30.02448,24.18661 30.04691,24.17783 30.06839,24.16806 C 30.09869,24.15634 30.12698,24.14362 30.15338,24.1319 C 30.17581,24.12115 30.19727,24.11044 30.21777,24.10165 C 30.23441,24.09381 30.24911,24.08502 30.2637,24.07724 C 30.28909,24.06451 30.31061,24.0528 30.32819,24.04306 L 30.375,24.01669 L 30.375,24.47275 C 30.375,24.47275 30.34668,24.48444 30.29788,24.50302 C 30.27637,24.5108 30.25098,24.5206 30.22168,24.53134 C 30.20511,24.53619 30.18848,24.54306 30.17001,24.54892 C 30.1553,24.55377 30.14069,24.55963 30.125,24.56454 C 30.10748,24.56943 30.08987,24.57626 30.07129,24.58112 C 30.05768,24.58505 30.04401,24.58893 30.03027,24.59283 L 30.01761,24.59677 C 30.00488,24.60065 29.9913,24.60455 29.97659,24.60849 C 29.95999,24.61237 29.94339,24.61627 29.92679,24.62115 C 29.91608,24.62408 29.9053,24.62701 29.89359,24.629 C 29.87497,24.63287 29.85748,24.63779 29.8389,24.64072 C 29.8204,24.64459 29.80179,24.64853 29.78229,24.65244 z M 27.50589,25.12506 L 31.1192,25.12506 L 31.1192,21.72461 L 27.50589,21.72461 L 27.50589,25.12506"
           id="path3296"
           style="fill:#ffffff;fill-rule:nonzero;stroke:none" />
        <path
           d="M 24.72949,23.25003 L 24.72949,22.58209 L 25.16309,22.58209 C 25.16309,22.58209 25.1709,22.58209 25.18661,22.58209 C 25.2002,22.58301 25.22079,22.58301 25.24609,22.586 C 25.29297,22.5899 25.35449,22.59872 25.4151,22.6192 C 25.46979,22.63773 25.5235,22.6651 25.56348,22.70612 C 25.57919,22.7207 25.59177,22.73734 25.60159,22.75391 C 25.63577,22.80762 25.64459,22.8623 25.64648,22.89261 C 25.64749,22.90631 25.64749,22.91409 25.64749,22.91409 C 25.64749,22.91409 25.64749,22.91989 25.64749,22.93069 C 25.64648,22.94339 25.6456,22.96881 25.63867,22.99512 C 25.62988,23.02643 25.6153,23.06351 25.58789,23.09769 C 25.58307,23.10352 25.57718,23.11041 25.5704,23.11621 C 25.55957,23.12802 25.5459,23.13971 25.53229,23.15042 C 25.50879,23.16702 25.48148,23.18262 25.45117,23.19531 C 25.41309,23.21191 25.36917,23.22461 25.32129,23.2334 C 25.29691,23.23831 25.2706,23.24222 25.2442,23.2442 C 25.2276,23.24612 25.21097,23.2471 25.1944,23.24811 C 25.17969,23.24902 25.16409,23.25003 25.1485,23.25003 C 24.99417,23.25003 24.72949,23.25003 24.72949,23.25003"
           id="path3298"
           style="fill:#ffffff;fill-rule:nonzero;stroke:none" />
        <path
           d="M 24.72949,24.26572 L 24.72949,23.63281 L 24.93848,23.63281 C 24.93848,23.63281 24.95221,23.63281 24.97168,23.63281 C 24.98639,23.63281 25.00299,23.63382 25.01859,23.6348 C 25.06259,23.6387 25.12109,23.64462 25.18167,23.66119 C 25.19339,23.66409 25.20508,23.66803 25.21677,23.67191 C 25.26367,23.68851 25.30859,23.71292 25.34378,23.7471 C 25.37109,23.77441 25.38968,23.80573 25.40137,23.83502 C 25.41608,23.87112 25.42188,23.90631 25.42389,23.93069 C 25.42578,23.95221 25.42578,23.96579 25.42578,23.96579 C 25.42578,23.96579 25.42578,23.97659 25.4249,23.99323 C 25.42389,24.02057 25.418,24.06552 25.39648,24.10846 C 25.3858,24.12897 25.37109,24.14948 25.35159,24.16806 C 25.32819,24.19247 25.29889,24.21005 25.26862,24.22272 C 25.20898,24.25009 25.14169,24.25986 25.08499,24.26373 C 25.06061,24.26572 25.03809,24.26572 25.01758,24.26572 C 24.97559,24.26572 24.72949,24.26572 24.72949,24.26572"
           id="path3300"
           style="fill:#ffffff;fill-rule:nonzero;stroke:none" />
        <path
           d="M 24.2901,24.64853 L 24.2901,22.19919 L 25.21201,22.19919 C 25.21201,22.19919 25.66217,22.18652 25.91019,22.4346 C 26.1124,22.63672 26.09769,22.87112 26.09769,22.87112 C 26.09769,22.87112 26.1124,23.1153 25.9249,23.30182 C 25.76468,23.461 25.56259,23.50391 25.56259,23.50391 C 25.56259,23.50391 25.6543,23.54691 25.7247,23.61722 C 25.7579,23.65042 25.875,23.7569 25.875,24.01471 C 25.875,24.27545 25.70221,24.42487 25.70221,24.42487 C 25.70221,24.42487 25.51266,24.64853 25.08499,24.64853 L 24.2901,24.64853 z M 23.34177,25.12506 L 26.95508,25.12506 L 26.95508,21.72461 L 23.34177,21.72461 L 23.34177,25.12506"
           id="path3303"
           style="fill:#ffffff;fill-rule:nonzero;stroke:none" />
        <path
           d="M 20.56549,23.25003 L 20.56549,22.58209 L 21,22.58209 C 21,22.58209 21.00879,22.58209 21.02249,22.58209 C 21.03619,22.58301 21.05768,22.58301 21.08209,22.586 C 21.12988,22.5899 21.19147,22.59872 21.25201,22.6192 C 21.3067,22.63773 21.35941,22.6651 21.39948,22.70612 C 21.41611,22.7207 21.42877,22.73734 21.43848,22.75391 C 21.47269,22.80762 21.48148,22.8623 21.4834,22.89261 C 21.48438,22.90631 21.48438,22.91409 21.48438,22.91409 C 21.48438,22.91409 21.48438,22.91989 21.48438,22.93069 C 21.48438,22.94339 21.48148,22.96881 21.47559,22.99512 C 21.46677,23.02643 21.45218,23.06351 21.4249,23.09769 C 21.41901,23.10352 21.41309,23.11041 21.40829,23.11621 C 21.3956,23.12802 21.3829,23.13971 21.3692,23.15042 C 21.34579,23.16702 21.31839,23.18262 21.28909,23.19531 C 21.24997,23.21191 21.20511,23.22461 21.15829,23.2334 C 21.13287,23.23831 21.10748,23.24222 21.08109,23.2442 C 21.06451,23.24612 21.04788,23.2471 21.03128,23.24811 C 21.01569,23.24902 21,23.25003 20.98541,23.25003 C 20.83109,23.25003 20.56549,23.25003 20.56549,23.25003"
           id="path3306"
           style="fill:#ffffff;fill-rule:nonzero;stroke:none" />
        <path
           d="M 20.56549,24.26572 L 20.56549,23.63281 L 20.77539,23.63281 C 20.77539,23.63281 20.78909,23.63281 20.80768,23.63281 C 20.8233,23.63281 20.83987,23.63382 20.8555,23.6348 C 20.89847,23.6387 20.9581,23.64462 21.01859,23.66119 C 21.03027,23.66409 21.04199,23.66803 21.05377,23.67191 C 21.0997,23.68851 21.14459,23.71292 21.17969,23.7471 C 21.2081,23.77441 21.22659,23.80573 21.23828,23.83502 C 21.25299,23.87112 21.25879,23.90631 21.2608,23.93069 C 21.2627,23.95221 21.26178,23.96579 21.26178,23.96579 C 21.26178,23.96579 21.2627,23.97659 21.26178,23.99323 C 21.2608,24.02057 21.25491,24.06552 21.2334,24.10846 C 21.22168,24.12897 21.2081,24.14948 21.18848,24.16806 C 21.16507,24.19247 21.13678,24.21005 21.10449,24.22272 C 21.04691,24.25009 20.97861,24.25986 20.92188,24.26373 C 20.89648,24.26572 20.87411,24.26572 20.85449,24.26572 C 20.81158,24.26572 20.56549,24.26572 20.56549,24.26572"
           id="path3309"
           style="fill:#ffffff;fill-rule:nonzero;stroke:none" />
        <path
           d="M 20.12701,24.64853 L 20.12701,22.19919 L 21.04889,22.19919 C 21.04889,22.19919 21.49811,22.18652 21.74609,22.4346 C 21.9483,22.63672 21.93359,22.87112 21.93359,22.87112 C 21.93359,22.87112 21.94931,23.1153 21.76181,23.30182 C 21.6026,23.461 21.3985,23.50391 21.3985,23.50391 C 21.3985,23.50391 21.4903,23.54691 21.56158,23.61722 C 21.59378,23.65042 21.71201,23.7569 21.71201,24.01471 C 21.71201,24.27545 21.53909,24.42487 21.53909,24.42487 C 21.53909,24.42487 21.34967,24.64853 20.92188,24.64853 L 20.12701,24.64853 z M 19.17877,25.12506 L 22.793,25.12506 L 22.793,21.72461 L 19.17877,21.72461 L 19.17877,25.12506"
           id="path3311"
           style="fill:#ffffff;fill-rule:nonzero;stroke:none" />
        <path
           d="M 21.80179,8.94241 L 23.35358,8.94241 L 23.35358,13.09961 L 23.77451,13.12701 C 24.16611,13.1514 24.3067,12.85062 24.3067,11.65631 L 24.3067,10.9483 C 24.3067,10.50491 24.3067,9.50302 24.46487,8.94141 L 26.26266,8.94141 L 26.26266,9.09381 C 26.15039,9.18362 26.11328,9.30469 26.06738,9.42581 C 25.9834,9.63773 25.9834,10.36331 25.9834,10.92291 L 25.9834,11.8457 C 25.9834,13.28232 25.73538,14.125 24.91797,14.1817 L 24.91797,14.21191 C 25.68848,14.4678 26.0303,15.4346 26.0303,16.8721 C 26.0303,18.53711 25.53418,19.66901 24.2627,19.46683 L 21.80179,19.07422 L 21.80179,8.94241 z M 23.35358,17.37399 L 23.6622,17.41409 C 24.1485,17.47659 24.35059,17.13382 24.35059,16.2774 C 24.35059,15.52542 24.13089,15.00201 23.6709,14.96103 L 23.35358,14.9317 L 23.35358,17.37399"
           id="path3314"
           style="fill:#ffffff;fill-rule:evenodd;stroke:none" />
        <path
           d="M 26.8389,8.94141 L 31.17389,8.93951 L 31.17389,11.40921 L 28.64069,11.32419 L 28.64069,13.55081 L 30.91898,13.7002 L 30.91898,16.06451 L 28.64069,15.84082 L 28.64069,17.75394 L 31.07718,18.0596 L 31.07718,20.52542 L 26.8389,19.85062 L 26.8389,8.94141"
           id="path3316"
           style="fill:#ffffff;fill-rule:nonzero;stroke:none" />
        <path
           d="M 31.94629,8.93851 L 37.00491,8.9375 L 37.00491,11.6123 L 34.04199,11.5137 L 34.04199,13.91699 L 36.70508,14.09183 L 36.70508,16.65042 L 34.04199,16.38971 L 34.04199,18.45612 L 36.89258,18.8125 L 36.89258,21.48343 L 31.94629,20.69531 L 31.94629,8.93851"
           id="path3318"
           style="fill:#ffffff;fill-rule:nonzero;stroke:none" />
        <path
           d="M 15.17001,8.94531 L 16.4053,8.94342 L 16.4053,16.51761 L 17.3721,16.6709 L 17.3692,18.3916 L 13.3858,17.74222 L 13.3858,16.03232 L 15.17001,16.33112 L 15.17001,8.94531"
           id="path3320"
           style="fill:#ffffff;fill-rule:nonzero;stroke:none" />
        <path
           d="M 17.34177,8.94342 L 18.68851,8.94342 L 18.68851,12.92191 L 19.54401,12.97763 L 19.54401,8.94342 L 20.99319,8.94342 L 20.99319,18.97269 L 19.54401,18.74222 L 19.54401,15.14551 L 18.68851,15.0596 L 18.68851,18.60449 L 17.34177,18.39072 L 17.34177,8.94342"
           id="path3322"
           style="fill:#ffffff;fill-rule:nonzero;stroke:none" />
      </g>
    </g>
  </g>
</svg>
