<?xml version="1.0" encoding="UTF-8"?>
<svg version="1.1" xmlns="http://www.w3.org/2000/svg" width="866" height="650">
<path d="M0 0 C285.78 0 571.56 0 866 0 C866 214.5 866 429 866 650 C580.22 650 294.44 650 0 650 C0 435.5 0 221 0 0 Z " fill="#5B3291" transform="translate(0,0)"/>
<path d="M0 0 C285.78 0 571.56 0 866 0 C866 214.5 866 429 866 650 C580.22 650 294.44 650 0 650 C0 435.5 0 221 0 0 Z M51 54 C51 232.53 51 411.06 51 595 C303.12 595 555.24 595 815 595 C815 416.47 815 237.94 815 54 C562.88 54 310.76 54 51 54 Z " fill="#000000" transform="translate(0,0)"/>
<path d="M0 0 C3.41602015 -0.17446934 6.83089637 -0.28089623 10.25 -0.375 C11.21808594 -0.42527344 12.18617188 -0.47554688 13.18359375 -0.52734375 C20.28638769 -0.67429811 20.28638769 -0.67429811 23.33984375 2.2109375 C24.16064453 3.88037109 24.16064453 3.88037109 25 6 C25.57983643 7.33345459 25.57983643 7.33345459 26.17138672 8.69384766 C27.61242227 12.10648913 28.96782259 15.5487241 30.3125 19 C30.83269914 20.31999294 31.35354986 21.63972927 31.875 22.95922852 C32.99673605 25.80095563 34.11429988 28.64427689 35.22900391 31.48876953 C37.04119073 36.11025537 38.86925329 40.72537452 40.69921875 45.33984375 C48.19516124 64.25423815 55.59981513 83.20252486 62.90942383 102.18969727 C63.92249602 104.80028022 64.95472964 107.40216506 66 110 C66.66 110 67.32 110 68 110 C68.32871094 109.11183594 68.65742188 108.22367187 68.99609375 107.30859375 C71.93613977 99.3986282 74.94674155 91.51797778 78.0234375 83.66015625 C78.60192192 82.18246765 78.60192192 82.18246765 79.1920929 80.67492676 C84.12839689 68.09184246 89.15975595 55.54675105 94.1875 43 C95.63160602 39.39349121 97.07546972 35.78688564 98.51907349 32.18017578 C99.4393206 29.8825593 100.36057756 27.58534697 101.28292847 25.28857422 C103.19006502 20.53769709 105.09111696 15.78563139 106.93994141 11.01171875 C107.21848465 10.29733643 107.49702789 9.5829541 107.78401184 8.84692383 C108.48537211 7.04321465 109.1792318 5.23659355 109.87231445 3.4296875 C111 1 111 1 113 0 C114.52148326 -0.08372659 116.04655778 -0.10730027 117.5703125 -0.09765625 C118.46621094 -0.09443359 119.36210937 -0.09121094 120.28515625 -0.08789062 C121.69087891 -0.07532227 121.69087891 -0.07532227 123.125 -0.0625 C124.06988281 -0.05798828 125.01476562 -0.05347656 125.98828125 -0.04882812 C128.32558387 -0.03702357 130.66276061 -0.02055759 133 0 C136.39982376 5.60740164 138.93610154 11.35740689 141.375 17.4375 C141.76856689 18.40816406 142.16213379 19.37882812 142.56762695 20.37890625 C145.11558855 26.69697582 147.55130598 33.0493957 149.90185547 39.44311523 C151.47396002 43.68976129 153.19102853 47.84918173 155 52 C157.31376504 57.31154802 159.396722 62.66906736 161.3918457 68.10742188 C164.43859055 76.32030163 167.79976502 84.4073744 171.12963867 92.50854492 C171.5857251 93.6194751 172.04181152 94.73040527 172.51171875 95.875 C172.94532715 96.92945313 173.37893555 97.98390625 173.82568359 99.0703125 C174.84525994 101.61395412 175.79099777 104.16787678 176.70703125 106.75 C177.616349 110.08557353 177.616349 110.08557353 180 111 C180.11666016 110.30277832 180.23332031 109.60555664 180.35351562 108.88720703 C181.06839666 105.69453968 182.13296457 102.84477244 183.34375 99.8046875 C183.58449249 99.19663773 183.82523499 98.58858795 184.07327271 97.96211243 C184.87828246 95.93150258 185.68919673 93.90330274 186.5 91.875 C187.07644029 90.42375518 187.65243818 88.97233456 188.22802734 87.52075195 C189.47784111 84.37030413 190.72988848 81.22075627 191.98339844 78.07177734 C195.17974239 70.03827869 198.35374843 61.99593742 201.53097534 53.9548645 C202.62190569 51.19532713 203.71420201 48.43633414 204.80688477 45.67749023 C208.04593739 37.49667961 211.27570728 29.31282983 214.45703125 21.109375 C214.97244659 19.78359179 215.48790706 18.45782613 216.00341797 17.13208008 C216.93276183 14.73784095 217.85783877 12.34193945 218.77783203 9.9440918 C219.1798584 8.90937744 219.58188477 7.87466309 219.99609375 6.80859375 C220.50934204 5.47526001 220.50934204 5.47526001 221.03295898 4.11499023 C222 2 222 2 224 0 C226.06298828 -0.22705078 226.06298828 -0.22705078 228.5703125 -0.1953125 C229.46621094 -0.18886719 230.36210938 -0.18242187 231.28515625 -0.17578125 C232.22230469 -0.15902344 233.15945313 -0.14226562 234.125 -0.125 C235.06988281 -0.11597656 236.01476562 -0.10695313 236.98828125 -0.09765625 C239.32577292 -0.07404522 241.66276123 -0.04111516 244 0 C245.38182987 3.71679593 244.59999288 5.73134303 243.078125 9.3125 C242.41417725 10.90312256 242.41417725 10.90312256 241.73681641 12.52587891 C241.24616699 13.67233887 240.75551758 14.81879883 240.25 16 C239.48288348 17.8357145 238.71580664 19.67144691 237.95120239 21.50820923 C237.42253655 22.77774102 236.89263128 24.04675732 236.36154175 25.3152771 C233.686157 31.7141491 231.14592797 38.16384491 228.625 44.625 C227.71101193 46.96096662 226.79694787 49.29690352 225.8828125 51.6328125 C225.41649414 52.82551758 224.95017578 54.01822266 224.46972656 55.24707031 C222.10137242 61.29935366 219.71542283 67.3447194 217.33154297 73.39089966 C213.52682485 83.04107118 209.7258036 92.69267462 205.93579102 102.34863281 C204.61587913 105.71073283 203.29436682 109.07220047 201.97265625 112.43359375 C200.02232347 117.3942081 198.07722415 122.35683486 196.13500977 127.32063293 C194.78159924 130.77721913 193.42497922 134.23254067 192.06781006 137.68765259 C191.40473643 139.3777033 190.74296391 141.06826515 190.08258057 142.7593689 C189.1535675 145.13782837 188.21985215 147.51439406 187.28515625 149.890625 C187.01263535 150.59159805 186.74011444 151.29257111 186.45933533 152.01478577 C184.56056886 156.82310556 182.3626971 161.40124199 180 166 C177.68139648 165.3894043 177.68139648 165.3894043 175 164 C173.42602539 161.25708008 173.42602539 161.25708008 172.09765625 157.76953125 C171.85260849 157.1420549 171.60756073 156.51457855 171.35508728 155.86808777 C170.57358231 153.85573463 169.81765623 151.8348688 169.0625 149.8125 C168.55964054 148.50260216 168.05509722 147.19334944 167.54882812 145.88476562 C166.53259856 143.25254464 165.52533666 140.61713991 164.52392578 137.97924805 C162.10042447 131.6193866 159.54513283 125.31191132 157 119 C156.29165168 117.24089145 155.58331649 115.48177762 154.875 113.72265625 C154.5646582 112.95195801 154.25431641 112.18125977 153.93457031 111.38720703 C151.05138972 104.21540828 148.2440281 97.02879472 145.56811523 89.77709961 C142.85951236 82.51000788 139.95135343 75.32175016 137.0625 68.125 C129.68793888 49.74248823 129.68793888 49.74248823 126.75 42.25 C126.46261963 41.52441895 126.17523926 40.79883789 125.87915039 40.05126953 C124 35.23449393 124 35.23449393 124 33 C121.57211141 35.16948521 120.42121365 36.9632316 119.3515625 40.02734375 C119.06796875 40.82076172 118.784375 41.61417969 118.4921875 42.43164062 C118.20601563 43.25857422 117.91984375 44.08550781 117.625 44.9375 C114.99909739 52.40794979 112.07726379 59.70419251 109 67 C101.79821883 84.42281807 94.81622697 101.93473569 87.82492065 119.44268799 C81.61618755 134.98924027 75.35595767 150.51297839 69 166 C66.59936523 165.66235352 66.59936523 165.66235352 64 165 C62.41015625 162.40234375 62.41015625 162.40234375 61.0625 158.9375 C60.81072998 158.30537598 60.55895996 157.67325195 60.29956055 157.02197266 C59.51062784 155.02249138 58.75197031 153.01364228 58 151 C57.34257812 149.26556641 57.34257812 149.26556641 56.671875 147.49609375 C55.97294188 145.63428052 55.27448165 143.77227526 54.58422852 141.90722656 C47.72411664 123.39411693 40.25093068 105.10372262 32.89730835 86.78231812 C29.14049268 77.41811141 25.45237254 68.03562361 21.90771484 58.58862305 C19.21686255 51.46252861 16.33219084 44.42035669 13.4375 37.375 C10.1375817 29.33198099 6.89186268 21.27898774 3.875 13.125 C3.59197021 12.36493652 3.30894043 11.60487305 3.01733398 10.82177734 C1.70851194 7.23127655 0.69842705 3.75212773 0 0 Z " fill="#F5F0F6" transform="translate(299,299)"/>
<path d="M0 0 C12.75903904 10.01180774 21.74596292 23.38990408 24.5078125 39.55078125 C25.68796467 54.29923262 25.20457998 67.25337213 18.5078125 80.55078125 C18.11335937 81.41445313 17.71890625 82.278125 17.3125 83.16796875 C10.46861972 96.99930722 -2.33136387 106.24047239 -16.4921875 111.55078125 C-22.68309068 113.43900672 -29.0512091 114.14241951 -35.4921875 114.55078125 C-36.95785156 114.66679687 -36.95785156 114.66679687 -38.453125 114.78515625 C-54.34041239 115.49125791 -69.69795107 108.98176093 -81.4921875 98.55078125 C-90.83738009 89.51310871 -99.8595305 75.43248161 -100.63745117 62.05224609 C-100.66220453 59.00997863 -100.6778481 55.96815707 -100.6796875 52.92578125 C-100.69193359 51.88292969 -100.70417969 50.84007812 -100.71679688 49.765625 C-100.74609349 34.12123299 -96.32007738 20.19795932 -85.4921875 8.55078125 C-82.62501325 5.69938961 -79.64275068 3.08411315 -76.4921875 0.55078125 C-75.82832031 0.00421875 -75.16445313 -0.54234375 -74.48046875 -1.10546875 C-53.83890484 -16.51783647 -20.32904034 -14.91290915 0 0 Z " fill="#5B3391" transform="translate(667.4921875,329.44921875)"/>
<path d="M0 0 C1.33711409 1.1597148 2.64935609 2.34862284 3.9375 3.5625 C4.74058594 4.27664063 5.54367187 4.99078125 6.37109375 5.7265625 C21.74766058 20.09674824 31.16222502 40.53331066 32.2890625 61.5703125 C32.58043966 71.90580604 31.60310942 81.54908026 28.9375 91.5625 C28.68226563 92.573125 28.42703125 93.58375 28.1640625 94.625 C22.74541269 113.31685623 9.11978334 130.03487297 -7.78027344 139.52734375 C-11.80379903 141.69469447 -15.904885 143.66346757 -20.0625 145.5625 C-21.13951172 146.05556641 -21.13951172 146.05556641 -22.23828125 146.55859375 C-24.15987719 147.35274368 -26.06718265 147.97715783 -28.0625 148.5625 C-28.94679688 148.83964844 -29.83109375 149.11679687 -30.7421875 149.40234375 C-47.86808 153.94552061 -67.34320889 153.32387734 -84.0625 147.5625 C-85.2071875 147.18867188 -86.351875 146.81484375 -87.53125 146.4296875 C-106.55576988 139.71776577 -122.69380647 125.40648071 -132.0625 107.5625 C-142.85227838 84.26171668 -145.17199815 61.62944101 -136.89453125 37.1015625 C-128.58693387 16.18469919 -112.36137324 -0.55690219 -91.8984375 -9.87890625 C-62.43904993 -21.88486104 -25.96829858 -19.22565263 0 0 Z M-107.625 30.625 C-118.07857095 45.97542645 -119.66679705 66.49363439 -116.34375 84.4453125 C-115.42556654 87.28131465 -114.36376925 89.88316528 -113.0625 92.5625 C-112.70027344 93.41328125 -112.33804688 94.2640625 -111.96484375 95.140625 C-105.62790046 109.14634372 -94.48569197 119.92233175 -80.29296875 125.6875 C-77.56557319 126.70234486 -74.82346037 127.64359141 -72.0625 128.5625 C-70.94875 128.975 -69.835 129.3875 -68.6875 129.8125 C-51.53437987 133.36142141 -31.61194331 129.10992357 -17.0625 119.5625 C-6.32798442 111.19794241 -0.14968051 102.11657851 4.9375 89.5625 C5.21037842 88.90781738 5.48325684 88.25313477 5.7644043 87.57861328 C8.20298816 81.1651015 8.43991183 75.12669643 8.375 68.3125 C8.36742676 67.20366455 8.35985352 66.0948291 8.35205078 64.95239258 C8.18767946 56.78601763 7.33045238 50.06716103 3.9375 42.5625 C3.51339844 41.54414063 3.08929687 40.52578125 2.65234375 39.4765625 C-4.14878342 24.43451522 -16.33241111 14.23984181 -31.58666992 8.44189453 C-59.9420161 -1.77021006 -88.53397498 7.80889692 -107.625 30.625 Z " fill="#F5F0F6" transform="translate(684.0625,313.4375)"/>
<path d="M0 0 C0.81919418 0.00202423 1.63838837 0.00404846 2.48240662 0.00613403 C3.77027069 0.00350555 3.77027069 0.00350555 5.08415222 0.00082397 C7.93933602 -0.0035981 10.79445845 -0.00065402 13.64964294 0.00271606 C15.62924206 0.00204282 17.6088411 0.00107262 19.58843994 -0.00018311 C23.74727665 -0.00166081 27.90609193 0.00049565 32.06492615 0.00515747 C37.39020857 0.01083626 42.7154404 0.00758799 48.04072094 0.00158501 C52.13370136 -0.0020345 56.22666986 -0.0008753 60.31965065 0.0017128 C62.28240782 0.00237919 64.24516608 0.00156372 66.20792198 -0.00076675 C68.95829998 -0.00331398 71.70859711 0.00057734 74.45896912 0.00613403 C75.67257866 0.00309769 75.67257866 0.00309769 76.91070557 0 C81.15003993 0.01581947 85.11797584 0.29627459 89.29417419 1.13552856 C89.31729674 12.46164486 89.33508883 23.78775559 89.34598637 35.11389065 C89.35121539 40.3724952 89.35831338 45.63108366 89.36961365 50.88967896 C89.38044185 55.96005983 89.38645088 61.03042518 89.38905144 66.10081673 C89.39090581 68.03979805 89.39452665 69.97877847 89.39990425 71.91775322 C89.4071138 74.62374616 89.40816517 77.32967412 89.40769958 80.03567505 C89.41129486 80.84559402 89.41489014 81.655513 89.41859436 82.48997498 C89.40822636 88.0214764 89.40822636 88.0214764 88.29417419 89.13552856 C85.3775979 89.236111 82.48466474 89.27168067 79.56761169 89.2649231 C78.65223633 89.26667542 77.73686096 89.26842773 76.79374695 89.27023315 C73.7522037 89.27465317 70.71071808 89.27171315 67.66917419 89.26834106 C65.56549569 89.26901406 63.46181727 89.26998405 61.35813904 89.27124023 C56.94292971 89.27271741 52.52774056 89.27056202 48.11253357 89.26589966 C42.43924859 89.26020236 36.76601091 89.26348126 31.09272766 89.26947212 C26.74688864 89.2730772 22.40106091 89.27193939 18.05522156 89.26934433 C15.96273289 89.26867491 13.87024322 89.26950399 11.77775574 89.27182388 C8.85872154 89.27434954 5.93976507 89.27051104 3.02073669 89.2649231 C1.71003204 89.26795944 1.71003204 89.26795944 0.37284851 89.27105713 C-5.59156345 89.24979092 -5.59156345 89.24979092 -6.70582581 88.13552856 C-6.80629384 85.43252557 -6.84199033 82.7550451 -6.83522034 80.05154419 C-6.83697266 79.20444382 -6.83872498 78.35734344 -6.8405304 77.48457336 C-6.8449499 74.6702879 -6.84201058 71.85606472 -6.83863831 69.04177856 C-6.83931132 67.09504179 -6.84028132 65.14830509 -6.84153748 63.2015686 C-6.84301458 59.11590782 -6.84085948 55.03026885 -6.8361969 50.9446106 C-6.83049961 45.69506341 -6.83377854 40.44556734 -6.83976936 35.19602203 C-6.84337463 31.1744447 -6.84223655 27.15287957 -6.83964157 23.13130188 C-6.83897221 21.19511408 -6.83980105 19.25892518 -6.84212112 17.32273865 C-6.84464709 14.62163332 -6.84080785 11.92061198 -6.83522034 9.21951294 C-6.83724457 8.41116501 -6.8392688 7.60281708 -6.84135437 6.76997375 C-6.81600549 0.18999238 -6.57287751 0.02499363 0 0 Z " fill="#F4EFF6" transform="translate(501.70582580566406,159.86447143554688)"/>
<path d="M0 0 C1.32708733 0.00539291 1.32708733 0.00539291 2.6809845 0.01089478 C4.07108734 0.01067574 4.07108734 0.01067574 5.48927307 0.01045227 C8.56809285 0.01115178 11.64685295 0.01894595 14.72566223 0.02676392 C16.85415616 0.02862796 18.98265051 0.03005193 21.11114502 0.03105164 C26.72537919 0.03487789 32.33958766 0.04470909 37.95381165 0.05575562 C43.67788851 0.06596743 49.40196951 0.07054876 55.12605286 0.07559204 C66.36629855 0.08633126 77.60652513 0.10340896 88.84675598 0.12442017 C88.87012169 9.21844779 88.88779273 18.31246478 88.89856815 27.40651608 C88.90374473 31.63109855 88.91074506 35.85566021 88.92219543 40.08023071 C88.93321304 44.17162335 88.93907194 48.2629962 88.94163322 52.35440254 C88.94345402 53.90057244 88.94700759 55.44674149 88.95248604 56.99290276 C88.95994887 59.19032856 88.9607367 61.38767674 88.96028137 63.58511353 C88.96250198 64.82643539 88.9647226 66.06775726 88.9670105 67.34669495 C88.78411298 74.61323334 88.27359695 81.86812369 87.84675598 89.12442017 C56.49675598 89.12442017 25.14675598 89.12442017 -7.15324402 89.12442017 C-7.17386902 74.62504517 -7.19449402 60.12567017 -7.21574402 45.18692017 C-7.22484802 40.60180542 -7.23395203 36.01669067 -7.24333191 31.29263306 C-7.24784851 25.71121216 -7.24784851 25.71121216 -7.24868774 23.10169983 C-7.25022744 21.27174131 -7.25375289 19.44178382 -7.25881958 17.61183167 C-7.26609588 14.84655992 -7.26715148 12.08135038 -7.26676941 9.31607056 C-7.27036752 8.49525277 -7.27396563 7.67443499 -7.27767277 6.82874393 C-7.26485759 -0.05818271 -6.843795 0.01174934 0 0 Z " fill="#F4F0F6" transform="translate(392.1532440185547,159.87557983398438)"/>
<path d="M0 0 C31.35 0 62.7 0 95 0 C95 29.37 95 58.74 95 89 C63.65 89 32.3 89 0 89 C0 59.63 0 30.26 0 0 Z " fill="#F5F0F6" transform="translate(275,160)"/>
<path d="M0 0 C1.52006905 -0.00422974 1.52006905 -0.00422974 3.07084656 -0.00854492 C4.18716461 -0.00652069 5.30348267 -0.00449646 6.45362854 -0.00241089 C7.62618698 -0.00416321 8.79874542 -0.00591553 10.00683594 -0.00772095 C13.23050759 -0.01137692 16.45413841 -0.01050621 19.67780948 -0.00734186 C23.0572714 -0.00481086 26.43673059 -0.00715836 29.81619263 -0.00872803 C35.50165801 -0.0105498 41.18711043 -0.00814556 46.87257385 -0.00338745 C53.42301274 0.00203166 59.97342039 0.00030975 66.52385849 -0.00521386 C72.1579971 -0.00977299 77.79212638 -0.01038119 83.42626625 -0.00777519 C86.78622488 -0.00622472 90.14615727 -0.00638292 93.50611687 -0.00931168 C97.26598551 -0.01186762 101.02579548 -0.00795521 104.78565979 -0.00241089 C105.88375977 -0.00443512 106.98185974 -0.00645935 108.11323547 -0.00854492 C114.8613579 0.00977361 121.49315375 0.39743379 128.20191956 1.12698364 C128.22881404 4.0853772 128.24870697 7.04352791 128.26441956 10.00198364 C128.27279846 10.84374146 128.28117737 11.68549927 128.28981018 12.55276489 C128.29303284 13.35842896 128.29625549 14.16409302 128.29957581 14.99417114 C128.30481262 15.73779907 128.31004944 16.481427 128.31544495 17.24758911 C128.20191956 19.12698364 128.20191956 19.12698364 127.20191956 21.12698364 C109.05191956 21.12698364 90.90191956 21.12698364 72.20191956 21.12698364 C72.20191956 68.31698364 72.20191956 115.50698364 72.20191956 164.12698364 C64.61191956 164.12698364 57.02191956 164.12698364 49.20191956 164.12698364 C49.20191956 117.26698364 49.20191956 70.40698364 49.20191956 22.12698364 C30.72191956 21.79698364 12.24191956 21.46698364 -6.79808044 21.12698364 C-6.79808044 14.52698364 -6.79808044 7.92698364 -6.79808044 1.12698364 C-4.34177583 -0.10116867 -2.74698631 0.0011722 0 0 Z " fill="#F4EFF6" transform="translate(156.79808044433594,298.8730163574219)"/>
<path d="M0 0 C252.12 0 504.24 0 764 0 C764 177.54 764 355.08 764 538 C763.67 538 763.34 538 763 538 C763 360.79 763 183.58 763 1 C631.21945417 1.14496731 631.21945417 1.14496731 499.4389199 1.29914629 C480.37333544 1.32222701 461.30775092 1.34526113 442.24216623 1.36815169 C439.93588454 1.37092078 437.62960285 1.37369134 435.32332116 1.37646339 C398.52213479 1.42068458 361.72094569 1.46167412 324.91975378 1.50098413 C287.11356955 1.54138471 249.30739045 1.58503985 211.50121479 1.63282111 C206.16781671 1.63956019 200.83441859 1.64626185 195.50102043 1.65294075 C194.45127664 1.65425648 193.40153285 1.65557221 192.31997864 1.6569278 C175.38605752 1.67805605 158.45213445 1.69572843 141.51820817 1.71212531 C124.51567672 1.72866176 107.51315261 1.74879882 90.51062984 1.77266841 C80.39505363 1.78675854 70.27948318 1.79803091 60.16389977 1.80536438 C53.4198578 1.81052472 46.67582679 1.81926009 39.93179305 1.83098774 C36.08072385 1.83757974 32.22967048 1.84253665 28.3785953 1.84316199 C24.2445869 1.84386919 20.11063039 1.85217415 15.97663212 1.8613348 C14.76156094 1.86031213 13.54648977 1.85928946 12.29459825 1.85823581 C10.65928183 1.86375687 10.65928183 1.86375687 8.99092871 1.86938947 C8.04397034 1.87048134 7.09701197 1.8715732 6.12135789 1.87269815 C4.01517517 1.76366483 4.01517517 1.76366483 3 3 C2.89586783 5.83912397 2.85794757 8.654159 2.8613348 11.49395847 C2.85849206 12.40041261 2.85564932 13.30686675 2.85272044 14.2407892 C2.8443132 17.31683082 2.84309964 20.39283506 2.84178162 23.46888733 C2.83722908 25.67527863 2.83223827 27.88166907 2.82684326 30.08805847 C2.81319893 36.19450698 2.80584266 42.30094994 2.79942851 48.40740974 C2.79215623 54.39150772 2.78017539 60.3755958 2.76832329 66.35968605 C2.74436614 78.53506867 2.72494905 90.7104544 2.70826721 102.885849 C2.68569669 119.34867367 2.656922 135.81147759 2.6270752 152.27429199 C2.5584492 191.87035228 2.4985109 231.46642724 2.4375 271.0625 C2.293125 359.481875 2.14875 447.90125 2 539 C253.46 539 504.92 539 764 539 C764 539.66 764 540.32 764 541 C511.88 541 259.76 541 0 541 C0 362.47 0 183.94 0 0 Z " fill="#54387C" transform="translate(51,54)"/>
<path d="M0 0 C23.66192315 0.03362024 23.66192315 0.03362024 31.24145508 7.43725586 C34.887276 11.63462405 35.1788245 14.32903909 35.10083008 19.68725586 C34.62676654 23.22068294 32.89377251 25.3970072 30.76489258 28.19116211 C30.76489258 29.51116211 30.76489258 30.83116211 30.76489258 32.19116211 C31.32176758 32.39741211 31.87864258 32.60366211 32.45239258 32.81616211 C36.11289341 34.99267612 38.87618645 38.14030182 40.57739258 42.06616211 C41.50494563 52.57843001 41.50494563 52.57843001 37.76489258 57.19116211 C30.0776021 64.69967839 22.3737281 65.56730687 12.04223633 65.45483398 C10.61644917 65.42977708 9.19066792 65.40438236 7.76489258 65.37866211 C6.30787514 65.36358952 4.85084265 65.34990566 3.39379883 65.33764648 C-0.14948667 65.30484114 -3.69219913 65.25320118 -7.23510742 65.19116211 C-7.25823427 56.86387263 -7.27602425 48.53659648 -7.28691959 40.20928288 C-7.29214768 36.34296093 -7.29924396 32.4766609 -7.31054688 28.61035156 C-7.32137842 24.8821281 -7.32738482 21.15392576 -7.32998466 17.42568779 C-7.33183843 16.00026555 -7.33545813 14.57484452 -7.34083748 13.14943123 C-7.34805135 11.15952803 -7.34851551 9.16960377 -7.34863281 7.1796875 C-7.35085342 6.04495499 -7.35307404 4.91022247 -7.35536194 3.74110413 C-7.12354698 -1.17442608 -4.26618357 0.04117519 0 0 Z " fill="#5C3690" transform="translate(417.235107421875,171.808837890625)"/>
<path d="M0 0 C28 0 28 0 36 4 C40.45502974 8.73939334 42.3055503 11.36152632 42.22265625 17.91015625 C41.88729252 21.05786841 40.61429299 23.30951168 39 26 C38.443125 26.94875 37.88625 27.8975 37.3125 28.875 C36.879375 29.57625 36.44625 30.2775 36 31 C36.70125 31.185625 37.4025 31.37125 38.125 31.5625 C42.05108917 33.52554458 44.57471602 36.36207403 47 40 C48.40367918 44.4067019 49.08377889 48.74676801 47.01171875 53.0546875 C42.73949907 59.43293097 39.48649597 60.25675202 32 64 C21.44 64 10.88 64 0 64 C0 42.88 0 21.76 0 0 Z " fill="#5B3790" transform="translate(300,173)"/>
<path d="M0 0 C1 1 1 1 1.09765625 3.50390625 C1.08605469 4.51324219 1.07445312 5.52257812 1.0625 6.5625 C1.05347656 7.57441406 1.04445313 8.58632812 1.03515625 9.62890625 C1.02355469 10.41136719 1.01195312 11.19382813 1 12 C-2.21683447 11.42276315 -5.08030384 10.60032676 -8.125 9.4375 C-16.6540132 6.87238325 -27.55519072 6.09675681 -36.05078125 9.06640625 C-38.40644169 10.51939344 -40.13332833 11.96283607 -42 14 C-42.54011719 14.58007812 -43.08023438 15.16015625 -43.63671875 15.7578125 C-47.28496578 20.53551683 -47.6896346 25.19950718 -47.421875 31.09765625 C-46.43995519 37.85290086 -43.22694104 42.6442158 -38 47 C-33.01451982 50.05657416 -29.05928986 50.51095444 -23.375 50.4375 C-22.58536865 50.43282715 -21.7957373 50.4281543 -20.98217773 50.42333984 C-12.97877249 50.22307154 -5.71779637 48.47853091 1 44 C2.73749107 45.73749107 2.294321 48.01048482 2.375 50.375 C2.29263006 55.68786127 2.29263006 55.68786127 0.125 58 C-1.421875 58.495 -1.421875 58.495 -3 59 C-3.63550781 59.27199219 -4.27101563 59.54398438 -4.92578125 59.82421875 C-14.85961333 63.61588868 -28.75579754 63.78149159 -38.765625 60.10546875 C-47.29245341 55.88677567 -55.24932491 49.97662546 -58.875 40.9375 C-61.34989236 32.25314715 -61.26156475 22.5270588 -57.375 14.30859375 C-51.9369137 5.17817045 -44.35987699 -0.6040656 -34.06884766 -3.5534668 C-22.80244824 -5.98516901 -10.59372395 -4.07702823 0 0 Z " fill="#5D3A90" transform="translate(570,176)"/>
<path d="M0 0 C0.99 0 1.98 0 3 0 C3 178.53 3 357.06 3 541 C-0.46683966 536.37754712 -0.41996038 533.60868673 -0.36914349 528.12128067 C-0.37260502 527.21000862 -0.37606655 526.29873658 -0.37963298 525.35985023 C-0.38762003 522.28386596 -0.37407659 519.20834586 -0.36076355 516.13238525 C-0.3620709 513.91391411 -0.36469601 511.69544342 -0.36853105 509.4769752 C-0.37526187 503.36330859 -0.36320766 497.24979866 -0.34819686 491.13615203 C-0.33660376 485.22576235 -0.33907605 479.31539027 -0.34124239 473.40499208 C-0.34518658 461.31226331 -0.33515044 449.21958367 -0.31719017 437.1268692 C-0.29944872 425.15082812 -0.28789428 413.17480749 -0.28463173 401.19875336 C-0.28442551 400.45456009 -0.28421929 399.71036683 -0.28400682 398.94362226 C-0.28299185 395.16435399 -0.28208769 391.38508571 -0.2812262 387.60581741 C-0.2749223 360.82622762 -0.25470283 334.04666457 -0.22631836 307.26708984 C-0.19877232 281.2485366 -0.17751793 255.22999068 -0.16479492 229.21142578 C-0.16440034 228.40964386 -0.16400576 227.60786194 -0.16359923 226.7817836 C-0.15964372 218.73007637 -0.15581627 210.67836909 -0.15208265 202.62666176 C-0.14447369 186.22390611 -0.13600993 169.82115095 -0.12702942 153.418396 C-0.12661755 152.6641976 -0.12620568 151.90999921 -0.12578133 151.13294632 C-0.09817195 100.7552862 -0.05057317 50.37764172 0 0 Z " fill="#060017" transform="translate(48,54)"/>
<path d="M0 0 C3 2 3 2 4 5.3125 C4 9 4 9 1.875 11.875 C-2.75447134 15.29678316 -7.10778069 15.1377652 -12.75 15.125 C-13.89984375 15.12757813 -15.0496875 15.13015625 -16.234375 15.1328125 C-19 15 -19 15 -20 14 C-20.07319621 11.30345146 -20.09242537 8.63308542 -20.0625 5.9375 C-20.05798828 5.17888672 -20.05347656 4.42027344 -20.04882812 3.63867188 C-20.0370068 1.75908129 -20.01907078 -0.12046899 -20 -2 C-12.86698099 -4.377673 -6.69811673 -3.00260405 0 0 Z " fill="#F4EEF7" transform="translate(442,212)"/>
<path d="M0 0 C5.89120163 0.04614518 10.95701453 1.32514157 16.0625 4.3125 C18.0625 7.3125 18.0625 7.3125 18 10.8125 C17.0625 14.3125 17.0625 14.3125 14.75 16.1875 C9.95541944 18.19453372 6.03671292 18.42337234 0.8125 18.375 C-0.45078125 18.36597656 -1.7140625 18.35695312 -3.015625 18.34765625 C-3.97984375 18.33605469 -4.9440625 18.32445312 -5.9375 18.3125 C-5.96434312 15.49993719 -5.98426188 12.68762759 -6 9.875 C-6.00837891 9.07255859 -6.01675781 8.27011719 -6.02539062 7.44335938 C-6.0340143 5.39954779 -5.9897815 3.35566098 -5.9375 1.3125 C-4.26551674 -0.35948326 -2.29582392 0.06117904 0 0 Z " fill="#F2EBF6" transform="translate(317.9375,208.6875)"/>
<path d="M0 0 C12.24185013 -0.40357748 12.24185013 -0.40357748 17 3 C17.33 3.33 17.66 3.66 18 4 C17.85646107 8.37793747 17.76804302 10.94063031 15.1875 14.5 C10.1430968 16.8738368 5.53268639 16.24319501 0 16 C0 10.72 0 5.44 0 0 Z " fill="#F4ECF8" transform="translate(422,183)"/>
<path d="M0 0 C4.78884209 0.09935357 9.11298354 1.49606011 13 4.3125 C14.375 7.75 14.375 7.75 14 11.3125 C11.33396123 14.81643666 9.29857726 16.56044689 5 17.3125 C3.41788427 17.37798492 1.83329919 17.39828381 0.25 17.375 C-0.54921875 17.36597656 -1.3484375 17.35695312 -2.171875 17.34765625 C-2.77515625 17.33605469 -3.3784375 17.32445312 -4 17.3125 C-4.02684679 14.66659986 -4.04676357 12.02096904 -4.0625 9.375 C-4.07087891 8.62025391 -4.07925781 7.86550781 -4.08789062 7.08789062 C-4.09652441 5.16255687 -4.05224333 3.23714419 -4 1.3125 C-3 0.3125 -3 0.3125 0 0 Z " fill="#F4EBF6" transform="translate(316,181.6875)"/>
<path d="M0 0 C12.87 0 25.74 0 39 0 C38.67 0.66 38.34 1.32 38 2 C37.08710205 1.99476318 36.1742041 1.98952637 35.23364258 1.98413086 C31.83243167 1.96704369 28.43126669 1.9545278 25.0300293 1.94506836 C23.56062091 1.94005331 22.09121748 1.93323967 20.62182617 1.92456055 C18.50438205 1.91237072 16.38700417 1.90674331 14.26953125 1.90234375 C12.99698486 1.89710693 11.72443848 1.89187012 10.41333008 1.88647461 C7.4494875 1.98505031 4.88324911 2.37849848 2 3 C1.99576806 3.62523591 1.99153612 4.25047182 1.98717594 4.89465427 C1.88346363 20.1716739 1.77476898 35.44864947 1.66066074 50.72559452 C1.60559458 58.11367902 1.5521592 65.50176833 1.50268555 72.88989258 C1.45951471 79.33615085 1.41315917 85.78237739 1.36312145 92.22858614 C1.33678223 95.63563162 1.31194115 99.04267189 1.29092598 102.44975471 C1.11674166 129.7575339 1.11674166 129.7575339 0 142 C-0.33 142 -0.66 142 -1 142 C-0.67 95.14 -0.34 48.28 0 0 Z " fill="#563685" transform="translate(230,321)"/>
<path d="M0 0 C0.33 0 0.66 0 1 0 C1.33 27.72 1.66 55.44 2 84 C13.88 84.66 25.76 85.32 38 86 C37.67 86.66 37.34 87.32 37 88 C36.38068604 87.96447021 35.76137207 87.92894043 35.12329102 87.89233398 C32.2700644 87.73303836 29.41634908 87.5852072 26.5625 87.4375 C25.58861328 87.38142578 24.61472656 87.32535156 23.61132812 87.26757812 C18.98617725 87.03554714 14.5665961 86.95294062 9.96484375 87.52734375 C6.06776864 87.99192118 4.36263743 87.89148355 1 86 C-0.7772169 84.2227831 -0.11988099 81.847528 -0.12442017 79.48136902 C-0.12082489 78.69015152 -0.11722961 77.89893402 -0.11352539 77.08374023 C-0.11367142 76.25454071 -0.11381744 75.42534119 -0.1139679 74.5710144 C-0.11326851 71.81684802 -0.10547493 69.06274839 -0.09765625 66.30859375 C-0.09579216 64.40430234 -0.09436822 62.50001045 -0.09336853 60.59571838 C-0.08954263 55.57332037 -0.07971173 50.55095108 -0.06866455 45.52856445 C-0.05845198 40.4077188 -0.05387124 35.28686852 -0.04882812 30.16601562 C-0.03808953 20.11066443 -0.02101224 10.0553346 0 0 Z " fill="#573787" transform="translate(273,164)"/>
<path d="M0 0 C1.75511277 0.09596065 3.51313905 0.14565064 5.27082825 0.15821838 C6.83354965 0.17290161 6.83354965 0.17290161 8.42784119 0.18788147 C10.12608788 0.19651466 10.12608788 0.19651466 11.85864258 0.20532227 C13.65927155 0.22017166 13.65927155 0.22017166 15.49627686 0.23532104 C18.7789215 0.26145623 22.06156124 0.2833399 25.34424806 0.30332303 C28.77824623 0.32523598 32.2122009 0.35259862 35.64616394 0.37937927 C42.14480359 0.42923453 48.64346748 0.47419985 55.1421544 0.51740164 C62.54240007 0.56683538 69.94260209 0.62173069 77.3428055 0.67708123 C92.56182997 0.79079121 107.78089462 0.89765403 123 1 C123 1.33 123 1.66 123 2 C79.44 2 35.88 2 -9 2 C-9 1.34 -9 0.68 -9 0 C-5.60480117 -1.13173294 -3.46012193 -0.69235082 0 0 Z " fill="#583B82" transform="translate(159,297)"/>
<path d="M0 0 C0.85376221 0.00064453 1.70752441 0.00128906 2.5871582 0.00195312 C3.87650269 0.00098633 3.87650269 0.00098633 5.19189453 0 C11.53073877 0.05249066 17.54696236 0.63776339 23.7121582 2.18945312 C23.3821582 2.84945312 23.0521582 3.50945312 22.7121582 4.18945312 C13.8021582 3.52945313 4.8921582 2.86945313 -4.2878418 2.18945312 C-4.2878418 2.84945312 -4.2878418 3.50945312 -4.2878418 4.18945312 C-4.9478418 4.18945312 -5.6078418 4.18945312 -6.2878418 4.18945312 C-5.9578418 24.31945312 -5.6278418 44.44945312 -5.2878418 65.18945312 C-5.9478418 65.18945312 -6.6078418 65.18945312 -7.2878418 65.18945312 C-7.31096864 56.86216365 -7.32875862 48.5348875 -7.33965397 40.20757389 C-7.34488205 36.34125195 -7.35197834 32.47495191 -7.36328125 28.60864258 C-7.3741128 24.88041912 -7.3801192 21.15221678 -7.38271904 17.42397881 C-7.38457281 15.99855657 -7.3881925 14.57313554 -7.39357185 13.14772224 C-7.40078573 11.15781905 -7.40124988 9.16789478 -7.40136719 7.17797852 C-7.4035878 6.043246 -7.40580841 4.90851349 -7.40809631 3.73939514 C-7.17543301 -1.19412386 -4.27618657 0.03795304 0 0 Z " fill="#624686" transform="translate(417.287841796875,171.810546875)"/>
<path d="M0 0 C0.83265381 0.00523682 1.66530762 0.01047363 2.52319336 0.01586914 C3.42231445 0.0190918 4.32143555 0.02231445 5.24780273 0.02563477 C6.66609375 0.03820312 6.66609375 0.03820312 8.11303711 0.05102539 C9.06243164 0.05553711 10.01182617 0.06004883 10.98999023 0.06469727 C13.34356776 0.07652429 15.69702188 0.09300514 18.05053711 0.11352539 C18.98477356 3.12384283 19.09503622 3.98002807 18.05053711 7.11352539 C17.06053711 6.78352539 16.07053711 6.45352539 15.05053711 6.11352539 C15.38053711 4.79352539 15.71053711 3.47352539 16.05053711 2.11352539 C13.27817217 2.20044278 10.50906633 2.307299 7.73803711 2.42602539 C6.95235352 2.44858398 6.16666992 2.47114258 5.35717773 2.49438477 C4.59985352 2.52983398 3.8425293 2.5652832 3.06225586 2.60180664 C2.01751099 2.64108276 2.01751099 2.64108276 0.95166016 2.68115234 C-1.44296648 3.22576308 -2.38218836 4.27181701 -3.94946289 6.11352539 C-2.88228999 0.16784782 -2.88228999 0.16784782 0 0 Z " fill="#E8D8F3" transform="translate(524.949462890625,298.886474609375)"/>
<path d="M0 0 C20.53191489 -0.38297872 20.53191489 -0.38297872 30 2 C29.67 2.66 29.34 3.32 29 4 C20.09 3.34 11.18 2.68 2 2 C2 2.66 2 3.32 2 4 C1.34 4 0.68 4 0 4 C0 2.68 0 1.36 0 0 Z " fill="#705498" transform="translate(411,172)"/>
<path d="M0 0 C0.33 0 0.66 0 1 0 C1.33 4.62 1.66 9.24 2 14 C6.95 14.33 11.9 14.66 17 15 C12.77746115 17.11126943 10.85998477 17.2171997 6.25 17.125 C3.15625 17.063125 3.15625 17.063125 0 17 C0 11.39 0 5.78 0 0 Z " fill="#5D4088" transform="translate(421,212)"/>
<path d="M0 0 C1.98 0 3.96 0 6 0 C6 5.94 6 11.88 6 18 C5.34 18.33 4.68 18.66 4 19 C2.7937748 15.38132441 2.89183082 12.07493749 2.9375 8.3125 C2.94201172 7.61060547 2.94652344 6.90871094 2.95117188 6.18554688 C2.96293073 4.45699462 2.98086546 2.72848635 3 1 C2.01 0.67 1.02 0.34 0 0 Z " fill="#E6DAF5" transform="translate(279,300)"/>
<path d="M0 0 C0.76183594 -0.01417969 1.52367187 -0.02835938 2.30859375 -0.04296875 C4.79597315 0.21137334 6.41058106 0.94732804 8.5625 2.1875 C7.63566406 2.24808594 6.70882813 2.30867187 5.75390625 2.37109375 C4.55636719 2.45488281 3.35882813 2.53867188 2.125 2.625 C0.93003906 2.70621094 -0.26492188 2.78742188 -1.49609375 2.87109375 C-4.32320244 2.86406114 -4.32320244 2.86406114 -5.4375 4.1875 C-5.67231693 6.37042774 -5.85113323 8.55953174 -6 10.75 C-6.08378906 11.94753906 -6.16757812 13.14507812 -6.25390625 14.37890625 C-6.31449219 15.30574219 -6.37507813 16.23257813 -6.4375 17.1875 C-6.7675 17.1875 -7.0975 17.1875 -7.4375 17.1875 C-7.4375 11.9075 -7.4375 6.6275 -7.4375 1.1875 C-4.66697819 0.26399273 -2.87061242 0.02420415 0 0 Z " fill="#E6D5F3" transform="translate(429.4375,208.8125)"/>
<path d="M0 0 C6.93 0 13.86 0 21 0 C21 0.33 21 0.66 21 1 C20.09636719 1.06058594 19.19273437 1.12117188 18.26171875 1.18359375 C16.49248047 1.30927734 16.49248047 1.30927734 14.6875 1.4375 C13.51574219 1.51871094 12.34398437 1.59992188 11.13671875 1.68359375 C7.97409042 1.8867371 7.97409042 1.8867371 5 3 C4.34 2.67 3.68 2.34 3 2 C3 2.99 3 3.98 3 5 C3.66 5.33 4.32 5.66 5 6 C3.68 5.67 2.36 5.34 1 5 C0.67 3.35 0.34 1.7 0 0 Z " fill="#E2D1F1" transform="translate(299,299)"/>
<path d="M0 0 C-3.79163027 2.52775351 -6.80874031 2.22443035 -11.1875 2.125 C-11.93708984 2.11597656 -12.68667969 2.10695312 -13.45898438 2.09765625 C-15.30612654 2.07412578 -17.15310412 2.03825561 -19 2 C-19 1.34 -19 0.68 -19 0 C-16.77156512 -0.19600577 -14.54220107 -0.38146569 -12.3125 -0.5625 C-10.45044922 -0.71912109 -10.45044922 -0.71912109 -8.55078125 -0.87890625 C-5.44164467 -0.98493841 -2.99189028 -0.77228525 0 0 Z " fill="#583B82" transform="translate(331,227)"/>
<path d="M0 0 C1.0589856 3.28361721 0.94917046 5.6855999 0.3125 9.0625 C0.09013672 10.34833984 0.09013672 10.34833984 -0.13671875 11.66015625 C-1.18671491 14.50607344 -2.46174014 15.42328053 -5 17 C-4.35083537 10.99522721 -2.14204997 5.599219 0 0 Z " fill="#5C3F8B" transform="translate(389,410)"/>
<path d="M0 0 C0.99 0 1.98 0 3 0 C1.85882749 3.42351754 0.4345989 6.6930138 -1 10 C-1.56311498 11.31223627 -2.12564282 12.62472469 -2.6875 13.9375 C-3.120625 14.948125 -3.55375 15.95875 -4 17 C-4.66 17 -5.32 17 -6 17 C-4.13236819 11.27789404 -2.14710968 5.62338249 0 0 Z " fill="#664B8E" transform="translate(529,338)"/>
<path d="M0 0 C0 0.99 0 1.98 0 3 C-1 4 -1 4 -3.72265625 4.09765625 C-5.37587891 4.08025391 -5.37587891 4.08025391 -7.0625 4.0625 C-8.16722656 4.05347656 -9.27195312 4.04445312 -10.41015625 4.03515625 C-11.69212891 4.01775391 -11.69212891 4.01775391 -13 4 C-13 3.34 -13 2.68 -13 2 C-8.71 1.34 -4.42 0.68 0 0 Z " fill="#5A3B84" transform="translate(325,197)"/>
<path d="M0 0 C8.25 0 16.5 0 25 0 C25 0.33 25 0.66 25 1 C24.34926514 1.02505615 23.69853027 1.0501123 23.02807617 1.07592773 C20.08101954 1.19193702 17.1342787 1.31464115 14.1875 1.4375 C12.65125977 1.49647461 12.65125977 1.49647461 11.08398438 1.55664062 C10.10107422 1.59853516 9.11816406 1.64042969 8.10546875 1.68359375 C7.19949951 1.72025146 6.29353027 1.75690918 5.36010742 1.79467773 C2.84951218 1.9208205 2.84951218 1.9208205 0 3 C0 2.01 0 1.02 0 0 Z " fill="#553982" transform="translate(301,173)"/>
<path d="M0 0 C0.66 0 1.32 0 2 0 C2.67305018 1.60149886 3.33822227 3.20631029 4 4.8125 C4.37125 5.70582031 4.7425 6.59914063 5.125 7.51953125 C6 10 6 10 6 13 C5.01 12.67 4.02 12.34 3 12 C2.05078125 10.0390625 2.05078125 10.0390625 1.3125 7.625 C1.06113281 6.83351563 0.80976563 6.04203125 0.55078125 5.2265625 C0 3 0 3 0 0 Z " fill="#5E4289" transform="translate(425,342)"/>
<path d="M0 0 C0.66 0 1.32 0 2 0 C3.35439668 2.70879335 3.06501451 5.00933268 3 8 C2.34 7.34 1.68 6.68 1 6 C0.67 6.66 0.34 7.32 0 8 C-0.66 8 -1.32 8 -2 8 C-1.125 1.125 -1.125 1.125 0 0 Z " fill="#654B8F" transform="translate(421,332)"/>
<path d="M0 0 C-0.33 0.99 -0.66 1.98 -1 3 C-5.29 3 -9.58 3 -14 3 C-14 2.34 -14 1.68 -14 1 C-12.04175306 0.83232136 -10.08339945 0.66588795 -8.125 0.5 C-6.48917969 0.36078125 -6.48917969 0.36078125 -4.8203125 0.21875 C-3.21670436 0.09437042 -1.60842449 0 0 0 Z " fill="#5B4086" transform="translate(436,198)"/>
<path d="M0 0 C6.27 0.66 12.54 1.32 19 2 C19 2.33 19 2.66 19 3 C12.73 3 6.46 3 0 3 C0 2.01 0 1.02 0 0 Z " fill="#EBE0F5" transform="translate(533,236)"/>
<path d="M0 0 C0.66 0.99 1.32 1.98 2 3 C-0.67478244 4.6627026 -2.9995144 5.99983813 -6 7 C-6.33 7.99 -6.66 8.98 -7 10 C-7.66 10 -8.32 10 -9 10 C-7.61811547 6.78956118 -6.07578097 4.95063635 -3.375 2.75 C-2.74335937 2.22921875 -2.11171875 1.7084375 -1.4609375 1.171875 C-0.73777344 0.59179688 -0.73777344 0.59179688 0 0 Z " fill="#664B8E" transform="translate(525,177)"/>
<path d="M0 0 C0.66 0 1.32 0 2 0 C1.01 3.3 0.02 6.6 -1 10 C-1.66 10 -2.32 10 -3 10 C-3 10.99 -3 11.98 -3 13 C-3.66 12.67 -4.32 12.34 -5 12 C-3.35 8.04 -1.7 4.08 0 0 Z " fill="#6C5394" transform="translate(373,451)"/>
<path d="M0 0 C0.99 0.33 1.98 0.66 3 1 C1.68 2.32 0.36 3.64 -1 5 C-1.66 4.67 -2.32 4.34 -3 4 C-3.33 4.99 -3.66 5.98 -4 7 C-5.32 6.67 -6.64 6.34 -8 6 C-6.7391988 4.96680187 -5.46596742 3.94875621 -4.1875 2.9375 C-3.47980469 2.36902344 -2.77210938 1.80054688 -2.04296875 1.21484375 C-1.36878906 0.81394531 -0.69460938 0.41304688 0 0 Z " fill="#60448B" transform="translate(595,327)"/>
<path d="M0 0 C0.33 0.66 0.66 1.32 1 2 C-0.09346881 3.34212062 -1.2001575 4.67347975 -2.3125 6 C-3.23482422 7.11375 -3.23482422 7.11375 -4.17578125 8.25 C-6 10 -6 10 -9 10 C-6.03 6.7 -3.06 3.4 0 0 Z " fill="#F2E5F9" transform="translate(567,321)"/>
<path d="M0 0 C1.44849798 4.34549395 0.40571462 6.15611359 -1.5625 10.25 C-2.036875 11.1575 -2.51125 12.065 -3 13 C-3.66 13 -4.32 13 -5 13 C-4.54554036 11.58208592 -4.08625056 10.16571954 -3.625 8.75 C-3.24214844 7.56664062 -3.24214844 7.56664062 -2.8515625 6.359375 C-2.04826333 4.13372042 -1.10288338 2.09068328 0 0 Z " fill="#60488B" transform="translate(539,314)"/>
<path d="M0 0 C0.99 0.33 1.98 0.66 3 1 C1.55873214 4.36295835 -0.20592655 6.62927102 -3 9 C-3.99 9 -4.98 9 -6 9 C-5.67 8.01 -5.34 7.02 -5 6 C-4.34 5.690625 -3.68 5.38125 -3 5.0625 C-0.79394438 4.17972859 -0.79394438 4.17972859 -0.25 1.875 C-0.1675 1.25625 -0.085 0.6375 0 0 Z " fill="#5D4083" transform="translate(454,224)"/>
<path d="M0 0 C4.74452555 3.28467153 4.74452555 3.28467153 5.9375 6.625 C5.958125 7.40875 5.97875 8.1925 6 9 C5.34 9.66 4.68 10.32 4 11 C3.32880451 9.5437455 2.66318193 8.08492133 2 6.625 C1.62875 5.81289062 1.2575 5.00078125 0.875 4.1640625 C0 2 0 2 0 0 Z " fill="#62448C" transform="translate(341,207)"/>
<path d="M0 0 C0 3 0 3 -1 5 C-4.78468721 6.54828113 -7.91781703 7.24012841 -12 7 C-11.14148438 6.58621094 -11.14148438 6.58621094 -10.265625 6.1640625 C-8.01035733 5.00532152 -5.89143622 3.73124294 -3.75 2.375 C-2.69039063 1.70597656 -2.69039063 1.70597656 -1.609375 1.0234375 C-1.07828125 0.68570313 -0.5471875 0.34796875 0 0 Z " fill="#E5D6F1" transform="translate(453,230)"/>
<path d="M0 0 C0.33 0 0.66 0 1 0 C1.34934248 2.93447681 1.51495218 5.14367502 -0.04296875 7.734375 C-1.375 9.375 -1.375 9.375 -4 12 C-4.66 12 -5.32 12 -6 12 C-6 11.01 -6 10.02 -6 9 C-4.68 8.67 -3.36 8.34 -2 8 C-1.34 5.36 -0.68 2.72 0 0 Z " fill="#594082" transform="translate(346,220)"/>
<path d="M0 0 C0.66 0.33 1.32 0.66 2 1 C2 4.63 2 8.26 2 12 C1.67 12 1.34 12 1 12 C1 9.03 1 6.06 1 3 C-0.65 3.66 -2.3 4.32 -4 5 C-4.33 4.34 -4.66 3.68 -5 3 C-2.625 1.4375 -2.625 1.4375 0 0 Z " fill="#6B5593" transform="translate(570,220)"/>
<path d="M0 0 C0.66 0.99 1.32 1.98 2 3 C1.11728545 6.5308582 0.02559537 8.96160695 -2 12 C-2.66 12 -3.32 12 -4 12 C-2.66666667 8 -1.33333333 4 0 0 Z " fill="#694F90" transform="translate(398,388)"/>
<path d="M0 0 C-0.268125 0.515625 -0.53625 1.03125 -0.8125 1.5625 C-2.32349407 4.66401415 -3.65572726 7.82262806 -5 11 C-5.33 11 -5.66 11 -6 11 C-5.54177532 7.53058454 -5.10868317 4.32604951 -4 1 C-2 0 -2 0 0 0 Z " fill="#583C85" transform="translate(575,354)"/>
<path d="M0 0 C0.33 0.66 0.66 1.32 1 2 C1.66 2 2.32 2 3 2 C3.33 4.31 3.66 6.62 4 9 C3.01 9.495 3.01 9.495 2 10 C1.01 7.03 0.02 4.06 -1 1 C-0.67 0.67 -0.34 0.34 0 0 Z " fill="#623E88" transform="translate(448,334)"/>
<path d="M0 0 C1.32 0.66 2.64 1.32 4 2 C3.34 2 2.68 2 2 2 C1.34 4.64 0.68 7.28 0 10 C-0.66 10 -1.32 10 -2 10 C-1.34 6.7 -0.68 3.4 0 0 Z " fill="#5D4291" transform="translate(408,298)"/>
<path d="M0 0 C1.98 0 3.96 0 6 0 C4.58480285 2.0343459 3.45017877 2.90410393 1.01953125 3.421875 C-0.98176954 3.66273952 -2.9909944 3.83532741 -5 4 C-4.360625 3.71125 -3.72125 3.4225 -3.0625 3.125 C-0.84793921 2.17176549 -0.84793921 2.17176549 0 0 Z " fill="#5C3E85" transform="translate(653,436)"/>
<path d="M0 0 C0.66 0 1.32 0 2 0 C1.54917531 1.46067199 1.08906463 2.91848032 0.625 4.375 C0.36976563 5.18710937 0.11453125 5.99921875 -0.1484375 6.8359375 C-1 9 -1 9 -3 11 C-3.39253254 6.55129785 -2.15305957 3.85756507 0 0 Z " fill="#EBDCF6" transform="translate(501,405)"/>
<path d="M0 0 C2 2 2 2 2.1875 5 C2 8 2 8 1 10 C0.34 10 -0.32 10 -1 10 C-0.67 6.7 -0.34 3.4 0 0 Z " fill="#664A92" transform="translate(715,390)"/>
<path d="M0 0 C0.90105469 0.00902344 1.80210937 0.01804688 2.73046875 0.02734375 C3.41753906 0.03894531 4.10460937 0.05054688 4.8125 0.0625 C4.8125 0.3925 4.8125 0.7225 4.8125 1.0625 C0.3575 1.5575 0.3575 1.5575 -4.1875 2.0625 C-4.1875 2.7225 -4.1875 3.3825 -4.1875 4.0625 C-5.5075 3.7325 -6.8275 3.4025 -8.1875 3.0625 C-8.1875 2.4025 -8.1875 1.7425 -8.1875 1.0625 C-5.17259443 0.05753148 -3.14568308 -0.04085303 0 0 Z " fill="#543681" transform="translate(547.1875,171.9375)"/>
<path d="M0 0 C0.66 0 1.32 0 2 0 C2.33 1.65 2.66 3.3 3 5 C3.99 5 4.98 5 6 5 C5.67 5.99 5.34 6.98 5 8 C4.01 7.67 3.02 7.34 2 7 C0.8125 3.4375 0.8125 3.4375 0 0 Z " fill="#664E91" transform="translate(362,402)"/>
<path d="M0 0 C0.66 0.99 1.32 1.98 2 3 C0.625 5.5 0.625 5.5 -1 8 C-1.66 8 -2.32 8 -3 8 C-1.125 2.25 -1.125 2.25 0 0 Z " fill="#E6DAF2" transform="translate(551,342)"/>
<path d="M0 0 C0.33 0 0.66 0 1 0 C1.08131463 1.43655854 1.13933559 2.8744483 1.1875 4.3125 C1.22230469 5.11300781 1.25710938 5.91351563 1.29296875 6.73828125 C0.93801608 9.47851584 0.10633718 10.29171079 -2 12 C-2.66 11.67 -3.32 11.34 -4 11 C-3.525625 10.29875 -3.05125 9.5975 -2.5625 8.875 C-0.91260143 5.83918663 -0.39631536 3.40831214 0 0 Z " fill="#E5D6F2" transform="translate(452,188)"/>
<path d="M0 0 C1.00000429 4.00001715 0.80688405 6.05523353 0 10 C-0.99 10 -1.98 10 -3 10 C-2.01 6.7 -1.02 3.4 0 0 Z " fill="#6D5394" transform="translate(389,410)"/>
<path d="M0 0 C0.99 0.33 1.98 0.66 3 1 C3 1.99 3 2.98 3 4 C3.66 4 4.32 4 5 4 C5 4.99 5 5.98 5 7 C4.01 6.67 3.02 6.34 2 6 C0.8125 2.9375 0.8125 2.9375 0 0 Z " fill="#664F8E" transform="translate(474,403)"/>
<path d="M0 0 C0.66 0.99 1.32 1.98 2 3 C1.1875 4.9375 1.1875 4.9375 0 7 C-0.99 7.33 -1.98 7.66 -3 8 C-1.125 1.125 -1.125 1.125 0 0 Z " fill="#674A91" transform="translate(575,347)"/>
<path d="M0 0 C2.3431213 0.25561323 4.67843403 0.59270772 7 1 C7.33 1.66 7.66 2.32 8 3 C5.36 2.67 2.72 2.34 0 2 C0 1.34 0 0.68 0 0 Z " fill="#64488C" transform="translate(560,183)"/>
</svg>
