<?xml version="1.0" encoding="UTF-8"?>
<svg version="1.1" xmlns="http://www.w3.org/2000/svg" width="256" height="256">
<path d="M0 0 C3.65524228 1.21841409 3.38107832 1.76215663 5 5 C7.36451679 7.05941785 8.9962485 7.9987495 12 9 C12.495 9.99 12.495 9.99 13 11 C14.32026871 11.69217971 15.6580109 12.35093338 17 13 C19.44971628 14.44822321 21.84908746 15.97259019 24.25 17.5 C25.22453125 18.10521484 25.22453125 18.10521484 26.21875 18.72265625 C27.84875019 19.76024041 29.42939066 20.87453662 31 22 C31 22.66 31 23.32 31 24 C32.1446875 24.26554687 33.289375 24.53109375 34.46875 24.8046875 C38.94829314 25.92457328 43.19834238 27.46009918 47.5 29.125 C48.22703125 29.40214844 48.9540625 29.67929687 49.703125 29.96484375 C51.47030687 30.63916315 53.23538366 31.31899515 55 32 C55 32.66 55 33.32 55 34 C58.35288912 34.81783278 61.70751977 35.62829214 65.0625 36.4375 C66.00544922 36.66759766 66.94839844 36.89769531 67.91992188 37.13476562 C76.70687684 39.2473088 85.20778045 40.19897169 94.2109375 40.60546875 C99.89571255 40.89571255 99.89571255 40.89571255 101 42 C101.1056436 44.33887922 101.14678386 46.64836796 101.14526367 48.98803711 C101.14862228 49.72004837 101.1519809 50.45205963 101.15544128 51.20625305 C101.16499879 53.6466336 101.16689835 56.08694559 101.16796875 58.52734375 C101.17118364 60.23157275 101.17454789 61.93580148 101.17805481 63.64002991 C101.1840619 67.23064816 101.18589366 70.82124231 101.18530273 74.41186523 C101.1852023 78.96252138 101.19872255 83.51301728 101.21607494 88.06363583 C101.22733827 91.59608126 101.22921743 95.12849009 101.22869301 98.66095161 C101.22985677 100.33468732 101.23418582 102.0084245 101.24202538 103.68214226 C101.30464078 118.46224037 100.66969415 133.43592761 96.9375 147.8125 C96.62268677 149.03598145 96.62268677 149.03598145 96.30151367 150.28417969 C91.12607157 169.23853689 82.0211582 187.21040211 69.27734375 202.203125 C67.86603031 203.9326191 67.86603031 203.9326191 67.56640625 206.109375 C67.37949219 206.73328125 67.19257813 207.3571875 67 208 C65.68044262 208.69353481 64.34313399 209.35330586 63 210 C60.8899348 211.91976755 58.87383782 213.84698207 56.875 215.875 C56.33746094 216.40480469 55.79992187 216.93460938 55.24609375 217.48046875 C52.57553024 220.16435178 50.5783356 222.56671327 49 226 C47.66666667 226.33333333 46.33333333 226.66666667 45 227 C44.690625 227.639375 44.38125 228.27875 44.0625 228.9375 C42.60115732 231.77422403 40.9235646 231.84417214 38 233 C37.278125 233.7425 36.55625 234.485 35.8125 235.25 C31.09636079 239.86133611 25.45681894 243.49387377 19 245 C18.071875 245.7425 18.071875 245.7425 17.125 246.5 C14.46637638 248.37667549 12.18210443 248.51576672 9 249 C8.34 249.66 7.68 250.32 7 251 C4.11788698 251.96070434 2.30149956 252.10581883 -0.6875 252.0625 C-1.49574219 252.05347656 -2.30398437 252.04445312 -3.13671875 252.03515625 C-4.05904297 252.01775391 -4.05904297 252.01775391 -5 252 C-5 251.34 -5 250.68 -5 250 C-5.9075 249.71125 -6.815 249.4225 -7.75 249.125 C-10.33396288 248.23055131 -12.57095736 247.21452132 -15 246 C-15.93658447 245.7841626 -15.93658447 245.7841626 -16.89208984 245.56396484 C-20.48666254 244.60224804 -23.46213593 242.539684 -26.625 240.625 C-27.305625 240.22539062 -27.98625 239.82578125 -28.6875 239.4140625 C-29.33976562 239.0221875 -29.99203125 238.6303125 -30.6640625 238.2265625 C-31.25654785 237.87158691 -31.8490332 237.51661133 -32.45947266 237.15087891 C-34 236 -34 236 -36 233 C-36.99 232.67 -37.98 232.34 -39 232 C-39.33 231.34 -39.66 230.68 -40 230 C-40.99 229.67 -41.98 229.34 -43 229 C-43.33 228.01 -43.66 227.02 -44 226 C-44.8971875 225.8453125 -44.8971875 225.8453125 -45.8125 225.6875 C-48.6144403 224.80689019 -49.12509966 223.38562907 -50.59765625 220.9609375 C-54.15412217 215.98782917 -59.13128545 209.95623818 -65 208 C-65.33826147 206.66790839 -65.67046358 205.33427682 -66 204 C-67.25583172 202.22924866 -68.57874937 200.50556537 -69.9375 198.8125 C-92.28676179 169.93770756 -99.2139077 136.79048193 -99.09765625 100.984375 C-99.09578689 99.27516725 -99.09436544 97.56595897 -99.09336853 95.85675049 C-99.08958414 91.39840161 -99.07978959 86.94008628 -99.06866455 82.48175049 C-99.05836184 77.91622369 -99.05385209 73.35069137 -99.04882812 68.78515625 C-99.03816291 59.85675625 -99.02113663 50.92838093 -99 42 C-98.03589958 41.96536148 -98.03589958 41.96536148 -97.05232239 41.93002319 C-94.08284616 41.82041942 -91.11371391 41.70321549 -88.14453125 41.5859375 C-87.13394653 41.54976318 -86.12336182 41.51358887 -85.08215332 41.47631836 C-72.21628907 40.95518249 -59.16958596 39.41108386 -47 35 C-47 34.34 -47 33.68 -47 33 C-45.89205078 32.56300781 -45.89205078 32.56300781 -44.76171875 32.1171875 C-36.8495226 28.92013747 -28.71146793 25.58556567 -21.875 20.3828125 C-20 19 -20 19 -17 18 C-16.01 16.515 -16.01 16.515 -15 15 C-14.40574219 14.87238281 -13.81148438 14.74476562 -13.19921875 14.61328125 C-9.89348585 13.69143389 -8.20447115 11.6006703 -5.8125 9.1875 C-4.49185547 7.87845703 -4.49185547 7.87845703 -3.14453125 6.54296875 C-1.15875656 4.18825231 -0.35634004 2.99744858 0 0 Z " fill="#24B375" transform="translate(127,1)"/>
<path d="M0 0 C0.93352295 0.00966797 1.8670459 0.01933594 2.82885742 0.02929688 C19.72932382 0.3244242 34.00518476 5.80949479 46.6875 17.25 C47.285625 17.75660156 47.88375 18.26320313 48.5 18.78515625 C58.42284518 27.7998839 66.80277755 43.15289269 67.88037109 56.66918945 C68.27340202 69.81190551 68.28008385 81.16878295 62.6875 93.25 C62.11128906 94.51457031 62.11128906 94.51457031 61.5234375 95.8046875 C52.30542454 113.92717556 36.48797797 124.8557995 17.6875 131.25 C2.61775098 135.6858935 -15.09398541 132.66021177 -28.67480469 125.56494141 C-46.01859729 116.03931106 -57.6016145 101.24631885 -63.484375 82.51953125 C-66.48451395 69.52625933 -65.878846 53.40981538 -60.3125 41.25 C-59.6009375 39.64511719 -59.6009375 39.64511719 -58.875 38.0078125 C-50.5134858 20.92298781 -36.01793478 8.95628048 -18.3125 2.25 C-12.09896388 0.34710456 -6.47947446 -0.07025725 0 0 Z " fill="#FDD643" transform="translate(126.3125,61.75)"/>
<path d="M0 0 C0.928125 0.639375 1.85625 1.27875 2.8125 1.9375 C5.84219943 4.08622093 5.84219943 4.08622093 9 5 C9.33 5.66 9.66 6.32 10 7 C11.32026871 7.69217971 12.6580109 8.35093338 14 9 C16.44971628 10.44822321 18.84908746 11.97259019 21.25 13.5 C22.22453125 14.10521484 22.22453125 14.10521484 23.21875 14.72265625 C24.84875019 15.76024041 26.42939066 16.87453662 28 18 C28 18.66 28 19.32 28 20 C29.1446875 20.26554687 30.289375 20.53109375 31.46875 20.8046875 C35.94829314 21.92457328 40.19834238 23.46009918 44.5 25.125 C45.22703125 25.40214844 45.9540625 25.67929687 46.703125 25.96484375 C48.47030687 26.63916315 50.23538366 27.31899515 52 28 C52 28.66 52 29.32 52 30 C55.35288912 30.81783278 58.70751977 31.62829214 62.0625 32.4375 C63.00544922 32.66759766 63.94839844 32.89769531 64.91992188 33.13476562 C73.70687684 35.2473088 82.20778045 36.19897169 91.2109375 36.60546875 C96.89571255 36.89571255 96.89571255 36.89571255 98 38 C98.1056436 40.33887922 98.14678386 42.64836796 98.14526367 44.98803711 C98.14862228 45.72004837 98.1519809 46.45205963 98.15544128 47.20625305 C98.16499879 49.6466336 98.16689835 52.08694559 98.16796875 54.52734375 C98.17118364 56.23157275 98.17454789 57.93580148 98.17805481 59.64002991 C98.1840619 63.23064816 98.18589366 66.82124231 98.18530273 70.41186523 C98.1852023 74.96252138 98.19872255 79.51301728 98.21607494 84.06363583 C98.22733827 87.59608126 98.22921743 91.12849009 98.22869301 94.66095161 C98.22985677 96.33468732 98.23418582 98.0084245 98.24202538 99.68214226 C98.30464078 114.46224037 97.66969415 129.43592761 93.9375 143.8125 C93.72762451 144.6281543 93.51774902 145.44380859 93.30151367 146.28417969 C88.12607157 165.23853689 79.0211582 183.21040211 66.27734375 198.203125 C64.86603031 199.9326191 64.86603031 199.9326191 64.56640625 202.109375 C64.37949219 202.73328125 64.19257813 203.3571875 64 204 C62.68044262 204.69353481 61.34313399 205.35330586 60 206 C57.8899348 207.91976755 55.87383782 209.84698207 53.875 211.875 C53.33746094 212.40480469 52.79992187 212.93460938 52.24609375 213.48046875 C49.57553024 216.16435178 47.5783356 218.56671327 46 222 C44.66666667 222.33333333 43.33333333 222.66666667 42 223 C41.690625 223.639375 41.38125 224.27875 41.0625 224.9375 C39.60115732 227.77422403 37.9235646 227.84417214 35 229 C34.278125 229.7425 33.55625 230.485 32.8125 231.25 C28.09636079 235.86133611 22.45681894 239.49387377 16 241 C15.38125 241.495 14.7625 241.99 14.125 242.5 C11.46637638 244.37667549 9.18210443 244.51576672 6 245 C5.01 245.99 5.01 245.99 4 247 C1.11788698 247.96070434 -0.69850044 248.10581883 -3.6875 248.0625 C-4.49574219 248.05347656 -5.30398437 248.04445312 -6.13671875 248.03515625 C-7.05904297 248.01775391 -7.05904297 248.01775391 -8 248 C-8 247.34 -8 246.68 -8 246 C-8.9075 245.71125 -9.815 245.4225 -10.75 245.125 C-15.57924647 243.45333776 -18.12051853 242.31922221 -21 238 C-18.67814039 235.67814039 -17.32662721 235.4250774 -14.1875 234.625 C-9.93761641 233.41771599 -7.32977223 231.95979754 -4 229 C-2.02477154 227.95191959 -0.02518491 226.9479589 2 226 C2.78375 225.608125 3.5675 225.21625 4.375 224.8125 C5.179375 224.4103125 5.179375 224.4103125 6 224 C6 223.34 6 222.68 6 222 C6.86625 221.773125 7.7325 221.54625 8.625 221.3125 C11.56815358 220.16794028 12.95761683 219.36813118 15.25 217.375 C18 215 18 215 20 215 C20 214.34 20 213.68 20 213 C20.66 213 21.32 213 22 213 C22 212.34 22 211.68 22 211 C22.66 211 23.32 211 24 211 C24 210.34 24 209.68 24 209 C24.66 209 25.32 209 26 209 C26 208.34 26 207.68 26 207 C26.99 206.67 27.98 206.34 29 206 C30.58558381 204.36497064 30.58558381 204.36497064 32.0625 202.4375 C33.59765625 200.49609375 33.59765625 200.49609375 35 199 C35.66 199 36.32 199 37 199 C37.1546875 198.11634766 37.1546875 198.11634766 37.3125 197.21484375 C38.11402908 194.63264495 39.13347841 193.50247267 41 191.5625 C45.15829389 187.00040484 48.52872327 182.0520237 51.984375 176.953125 C54 174 54 174 55.5078125 172.16796875 C57.88717972 168.71103471 59.44362371 164.89640747 61.125 161.0625 C61.48464844 160.26392578 61.84429687 159.46535156 62.21484375 158.64257812 C63.91935805 154.7898651 65.43815387 151.21384597 66 147 C66.66 147 67.32 147 68 147 C67.95875 146.319375 67.9175 145.63875 67.875 144.9375 C67.99379325 142.14585859 68.5949426 139.95431399 69.42578125 137.30859375 C70.51855783 132.91518587 70.96380814 128.39985345 71.53515625 123.9140625 C72 121 72 121 73 120 C73.10945858 118.21111813 73.14908939 116.41791949 73.16113281 114.62573242 C73.17074036 113.47751511 73.1803479 112.32929779 73.19024658 111.14628601 C73.19449646 109.89531631 73.19874634 108.64434662 73.203125 107.35546875 C73.20882507 106.07899979 73.21452515 104.80253082 73.22039795 103.48738098 C73.22986656 100.77955556 73.23675355 98.07184148 73.24023438 95.36401367 C73.24571197 91.89700198 73.26971941 88.43038446 73.29820633 84.96349621 C73.32133581 81.65666111 73.32328312 78.34988058 73.328125 75.04296875 C73.3466452 73.17562325 73.3466452 73.17562325 73.36553955 71.27055359 C73.36253845 70.11287979 73.35953735 68.95520599 73.35644531 67.76245117 C73.36009094 66.74398605 73.36373657 65.72552094 73.36749268 64.67619324 C72.9460524 61.60713723 71.95749319 60.33783838 70 58 C70 57.34 70 56.68 70 56 C64.69905784 54.19695845 59.39691512 52.49276376 54 51 C54 50.34 54 49.68 54 49 C52.88625 48.731875 51.7725 48.46375 50.625 48.1875 C38.90832044 45.2170742 28.97557513 41.30210881 19.0078125 34.33203125 C17.03676252 32.96103826 17.03676252 32.96103826 14.90234375 31.9765625 C12.06284657 30.51891507 10.18581116 28.29790404 8 26 C7.52046875 25.56816406 7.0409375 25.13632812 6.546875 24.69140625 C2.01194233 19.73275512 -1.39367114 12.62464508 -1.4375 5.875 C-1 2 -1 2 0 0 Z " fill="#17A455" transform="translate(130,5)"/>
<path d="M0 0 C0 2.64 0 5.28 0 8 C2.64 8 5.28 8 8 8 C7.95875 6.88625 7.9175 5.7725 7.875 4.625 C8 1 8 1 10 -1 C12.625 -1.125 12.625 -1.125 15 -1 C16.4783226 1.95664519 16.06032783 4.74229737 16 8 C16.928125 8.268125 17.85625 8.53625 18.8125 8.8125 C21.76366897 9.9119551 23.19132029 10.48794485 25 13 C25 13.99 25 14.98 25 16 C25.66 16 26.32 16 27 16 C28.54911821 19.09823641 28.22564397 22.35233391 28.25 25.75 C28.270625 26.45382813 28.29125 27.15765625 28.3125 27.8828125 C28.34858159 32.73578691 27.35159539 35.66811376 25 40 C25 41.32 25 42.64 25 44 C25.66 44.66 26.32 45.32 27 46 C29.26415118 52.16025548 29.36002218 62.38832285 27.05859375 68.5 C24.70666279 71.92099049 21.7487753 74.27758973 18 76 C17.34 76 16.68 76 16 76 C16.061875 77.093125 16.12375 78.18625 16.1875 79.3125 C16 83 16 83 14.5 84.9375 C14.005 85.288125 13.51 85.63875 13 86 C9.125 84.125 9.125 84.125 8 83 C7.95907063 80.66702567 7.95758277 78.33294775 8 76 C5.36 76 2.72 76 0 76 C0.020625 77.11375 0.04125 78.2275 0.0625 79.375 C0 83 0 83 -1 85 C-2.66611905 85.042721 -4.33382885 85.04063832 -6 85 C-7.96822886 83.03177114 -7.66248381 79.65191291 -8 77 C-12.29 76.67 -16.58 76.34 -21 76 C-21.495 73.03 -21.495 73.03 -22 70 C-21.505 69.505 -21.505 69.505 -21 69 C-19.02 69 -17.04 69 -15 69 C-15 51.18 -15 33.36 -15 15 C-17.31 14.67 -19.62 14.34 -22 14 C-21.67 12.02 -21.34 10.04 -21 8 C-16.38 8 -11.76 8 -7 8 C-7 5.36 -7 2.72 -7 0 C-4.3333581 -1.33332095 -2.83319697 -0.67102033 0 0 Z " fill="#FDFBEB" transform="translate(125,86)"/>
<path d="M0 0 C5.56875 -0.12375 5.56875 -0.12375 11.25 -0.25 C12.4143457 -0.28641602 13.57869141 -0.32283203 14.77832031 -0.36035156 C15.70225586 -0.3703418 16.62619141 -0.38033203 17.578125 -0.390625 C18.99206543 -0.4220459 18.99206543 -0.4220459 20.43457031 -0.45410156 C23.78271642 0.13854706 24.93847691 1.34705148 27 4 C27.53125 7.27734375 27.53125 7.27734375 27.5 10.9375 C27.5103125 12.14277344 27.520625 13.34804687 27.53125 14.58984375 C26.87171577 18.82347153 26.4277752 20.36477398 23 23 C19.06138777 23.61037652 15.22313674 23.46782952 11.25 23.3125 C7.5375 23.209375 3.825 23.10625 0 23 C0 15.41 0 7.82 0 0 Z " fill="#FCDA4E" transform="translate(118,132)"/>
<path d="M0 0 C3.77102285 -0.05382903 7.54128134 -0.09359187 11.3125 -0.125 C12.38435547 -0.14175781 13.45621094 -0.15851563 14.56054688 -0.17578125 C15.58857422 -0.18222656 16.61660156 -0.18867187 17.67578125 -0.1953125 C18.62364502 -0.20578613 19.57150879 -0.21625977 20.5480957 -0.22705078 C23 0 23 0 26 2 C27.09869546 5.29608637 27.27260673 7.9679434 27.375 11.4375 C27.42398438 12.57058594 27.47296875 13.70367187 27.5234375 14.87109375 C27 18 27 18 25.18359375 20.39453125 C20.39600929 22.80888366 15.95983443 22.4240629 10.6875 22.25 C7.160625 22.1675 3.63375 22.085 0 22 C0 14.74 0 7.48 0 0 Z " fill="#FBD94A" transform="translate(118,102)"/>
<path d="M0 0 C0.33 0 0.66 0 1 0 C1 1.65 1 3.3 1 5 C0.34 5 -0.32 5 -1 5 C-0.979375 6.134375 -0.95875 7.26875 -0.9375 8.4375 C-1 12 -1 12 -2 13 C-2.165 14.155 -2.33 15.31 -2.5 16.5 C-3 20 -3 20 -4 21 C-4.23701239 23.85877909 -4.42219182 26.69883297 -4.5625 29.5625 C-4.60568359 30.36880859 -4.64886719 31.17511719 -4.69335938 32.00585938 C-4.79975262 34.00368805 -4.90040888 36.0018207 -5 38 C-4.34 38 -3.68 38 -3 38 C-2.8046875 39.98567708 -2.609375 41.97135417 -2.4140625 43.95703125 C-2.07334609 46.29988142 -2.07334609 46.29988142 0 49 C-0.375 51.1875 -0.375 51.1875 -1 53 C-0.34 53 0.32 53 1 53 C2.25664978 55.90600261 3 57.79604584 3 61 C3.66 61 4.32 61 5 61 C4.67 62.32 4.34 63.64 4 65 C2.69796813 62.50494359 1.40839734 60.00462318 0.125 57.5 C-0.23980469 56.80390625 -0.60460937 56.1078125 -0.98046875 55.390625 C-5.40710554 46.69832004 -6.38865638 38.97211452 -6.375 29.3125 C-6.37483887 28.25192383 -6.37467773 27.19134766 -6.37451172 26.09863281 C-6.23432746 16.46280927 -4.46128997 8.60104552 0 0 Z " fill="#BCD963" transform="translate(68,99)"/>
<path d="M0 0 C2.64 0 5.28 0 8 0 C8.12375 1.670625 8.12375 1.670625 8.25 3.375 C8.5859843 7.02613455 8.5859843 7.02613455 10.9375 8.4375 C12.96528312 9.0877058 12.96528312 9.0877058 15 9 C15 9.66 15 10.32 15 11 C11.625 11.125 11.625 11.125 8 11 C7.34 10.34 6.68 9.68 6 9 C5.60167969 9.50144531 5.20335937 10.00289062 4.79296875 10.51953125 C3 12 3 12 0.73828125 12.07421875 C-0.06222656 11.94660156 -0.86273438 11.81898438 -1.6875 11.6875 C-2.49574219 11.56761719 -3.30398437 11.44773438 -4.13671875 11.32421875 C-4.75160156 11.21722656 -5.36648437 11.11023438 -6 11 C-6 10.34 -6 9.68 -6 9 C-4.35 9 -2.7 9 -1 9 C-0.67 6.03 -0.34 3.06 0 0 Z " fill="#FBD951" transform="translate(125,162)"/>
<path d="M0 0 C5 0 5 0 7.25 1.1875 C9.38918764 3.40308719 9.67372714 4.98197607 10 8 C10.99 8 11.98 8 13 8 C13.99 5.69 14.98 3.38 16 1 C18.31 1 20.62 1 23 1 C23.495 2.98 23.495 2.98 24 5 C23.505 4.01 23.505 4.01 23 3 C21.02 3.66 19.04 4.32 17 5 C16.67 7.31 16.34 9.62 16 12 C13.36 12 10.72 12 8 12 C7.67 9.36 7.34 6.72 7 4 C5.02 4 3.04 4 1 4 C1 6.64 1 9.28 1 12 C-2.96 12 -6.92 12 -11 12 C-11 11.67 -11 11.34 -11 11 C-7.37 11 -3.74 11 0 11 C0 7.37 0 3.74 0 0 Z " fill="#F7DD6B" transform="translate(117,82)"/>
<path d="M0 0 C9.17085721 9.85017997 11.39119245 22.82033092 11.375 35.75 C11.37693359 37.34038086 11.37693359 37.34038086 11.37890625 38.96289062 C11.27513538 46.63721788 10.4227317 53.03229618 7 60 C6.67 60 6.34 60 6 60 C6 57.69 6 55.38 6 53 C6.66 53 7.32 53 8 53 C8 50.03 8 47.06 8 44 C8.66 44 9.32 44 10 44 C9.85946128 41.37461716 9.71281053 38.74982573 9.5625 36.125 C9.52318359 35.37863281 9.48386719 34.63226563 9.44335938 33.86328125 C9.28426376 29.80013136 9.28426376 29.80013136 8 26 C7.86584528 23.3276379 7.95681459 20.67749512 8 18 C7.34 18 6.68 18 6 18 C6 16.02 6 14.04 6 12 C5.34 12 4.68 12 4 12 C4 11.01 4 10.02 4 9 C3.01 8.67 2.02 8.34 1 8 C1.33 6.68 1.66 5.36 2 4 C1.34 4 0.68 4 0 4 C0 2.68 0 1.36 0 0 Z " fill="#D1DE5E" transform="translate(183,92)"/>
<path d="M0 0 C1.65 0 3.3 0 5 0 C5 0.66 5 1.32 5 2 C5.825 2.12375 6.65 2.2475 7.5 2.375 C11 3 11 3 14.66015625 4.02734375 C19.12408979 5.1564382 23.35347933 5.26343408 27.9375 5.1875 C29.08702148 5.1865332 29.08702148 5.1865332 30.25976562 5.18554688 C33.93082818 5.4931888 33.93082818 5.4931888 37 4 C38.68608966 3.92794489 40.37500659 3.91613932 42.0625 3.9375 C42.98160156 3.94652344 43.90070313 3.95554688 44.84765625 3.96484375 C45.55792969 3.97644531 46.26820313 3.98804688 47 4 C47 3.34 47 2.68 47 2 C48.98 2 50.96 2 53 2 C53 1.34 53 0.68 53 0 C54.65 0 56.3 0 58 0 C46.82008755 9.11633048 30.59315113 8.19242411 17 7 C10.62274546 5.99285047 5.03409292 4.10490287 0 0 Z " fill="#C6DC64" transform="translate(99,187)"/>
<path d="M0 0 C0.33 0 0.66 0 1 0 C1 25.41 1 50.82 1 77 C0.67 77 0.34 77 0 77 C0 51.59 0 26.18 0 0 Z " fill="#24DE21" transform="translate(229,43)"/>
<path d="M0 0 C0.33 0 0.66 0 1 0 C1 25.08 1 50.16 1 76 C0.67 76 0.34 76 0 76 C0 50.92 0 25.84 0 0 Z " fill="#26D826" transform="translate(26,43)"/>
<path d="M0 0 C12.80131443 0 25.86341002 7.21938106 35 16 C35.495 16.99 35.495 16.99 36 18 C34.68 18.33 33.36 18.66 32 19 C31.505 16.525 31.505 16.525 31 14 C30.01 14 29.02 14 28 14 C28 13.34 28 12.68 28 12 C25.03 11.505 25.03 11.505 22 11 C22 10.01 22 9.02 22 8 C21.05125 7.7525 20.1025 7.505 19.125 7.25 C15.09288367 6.11084518 11.28449819 4.53417256 7.4296875 2.90234375 C4.96370858 1.986522 2.58840691 1.44675351 0 1 C0 0.67 0 0.34 0 0 Z " fill="#D2DF63" transform="translate(138,63)"/>
<path d="M0 0 C0.66 0.33 1.32 0.66 2 1 C1.01 2.485 1.01 2.485 0 4 C-0.99 4 -1.98 4 -3 4 C-2.67 4.99 -2.34 5.98 -2 7 C-2.928125 7.763125 -3.85625 8.52625 -4.8125 9.3125 C-6.98276101 11.11848552 -9.05568065 12.9476629 -11 15 C-11.66 14.67 -12.32 14.34 -13 14 C-13 14.99 -13 15.98 -13 17 C-14.98 17.99 -14.98 17.99 -17 19 C-13.40714907 11.13409821 -6.53396433 5.4308275 0 0 Z " fill="#DDDD5B" transform="translate(90,73)"/>
<path d="M0 0 C0.93457031 0.00322266 1.86914062 0.00644531 2.83203125 0.00976562 C3.80011719 0.01814453 4.76820312 0.02652344 5.765625 0.03515625 C6.74917969 0.03966797 7.73273438 0.04417969 8.74609375 0.04882812 C11.16933291 0.06059142 13.59244773 0.07702941 16.015625 0.09765625 C16.015625 0.42765625 16.015625 0.75765625 16.015625 1.09765625 C14.19224609 1.18853516 14.19224609 1.18853516 12.33203125 1.28125 C10.74738272 1.36563957 9.16274798 1.45028835 7.578125 1.53515625 C6.77568359 1.57447266 5.97324219 1.61378906 5.14648438 1.65429688 C1.26322939 1.50308585 1.26322939 1.50308585 -1.984375 3.09765625 C-3.56475265 3.25569401 -5.14917174 3.37416729 -6.734375 3.47265625 C-10.97294082 3.84044077 -13.40724937 4.74697369 -16.984375 7.09765625 C-19.796875 7.28515625 -19.796875 7.28515625 -21.984375 7.09765625 C-19.62453509 4.73781634 -17.74413564 4.14030645 -14.609375 3.03515625 C-13.65289062 2.69355469 -12.69640625 2.35195312 -11.7109375 2 C-7.66012515 0.65940164 -4.28426408 -0.02612356 0 0 Z " fill="#CADC63" transform="translate(120.984375,61.90234375)"/>
<path d="M0 0 C0.66 1.32 1.32 2.64 2 4 C1.01 4 0.02 4 -1 4 C-1.165 4.680625 -1.33 5.36125 -1.5 6.0625 C-3.3780326 9.74031385 -5.81729681 11.67936228 -8.97265625 14.28125 C-10.72849127 15.76981919 -12.22249392 17.28690907 -13.75 19 C-14.4925 19.66 -15.235 20.32 -16 21 C-18.140625 20.625 -18.140625 20.625 -20 20 C-19.443125 19.59910156 -18.88625 19.19820312 -18.3125 18.78515625 C-11.08890014 13.40406244 -5.33015506 7.24312482 0 0 Z " fill="#46AF5E" transform="translate(184,163)"/>
<path d="M0 0 C2.625 0.375 2.625 0.375 5 1 C5.38218767 2.65614657 5.71395102 4.32457024 6 6 C5 7 5 7 1.9375 7.0625 C0.968125 7.041875 -0.00125 7.02125 -1 7 C-1.625 4.625 -1.625 4.625 -2 2 C-1.34 1.34 -0.68 0.68 0 0 Z " fill="#D4F6E6" transform="translate(126,226)"/>
<path d="M0 0 C2.64 0 5.28 0 8 0 C8.12375 1.670625 8.12375 1.670625 8.25 3.375 C8.5859843 7.02613455 8.5859843 7.02613455 10.9375 8.4375 C12.96528312 9.0877058 12.96528312 9.0877058 15 9 C15 9.66 15 10.32 15 11 C11.625 11.1875 11.625 11.1875 8 11 C5.5705484 7.3558226 5.83820425 5.28758728 6 1 C4.35 1 2.7 1 1 1 C1 3.31 1 5.62 1 8 C0.01 8.495 0.01 8.495 -1 9 C-0.67 6.03 -0.34 3.06 0 0 Z " fill="#F6DE70" transform="translate(125,162)"/>
<path d="M0 0 C0.66 0 1.32 0 2 0 C2.1953125 1.98567708 2.390625 3.97135417 2.5859375 5.95703125 C2.92665391 8.29988142 2.92665391 8.29988142 5 11 C4.625 13.1875 4.625 13.1875 4 15 C4.66 15 5.32 15 6 15 C7.25664978 17.90600261 8 19.79604584 8 23 C8.66 23 9.32 23 10 23 C9.67 24.32 9.34 25.64 9 27 C-0.34042553 10.04255319 -0.34042553 10.04255319 0 0 Z " fill="#D5DF60" transform="translate(63,137)"/>
<path d="M0 0 C1.67542976 0.28604898 3.34385343 0.61781233 5 1 C5.38218767 2.65614657 5.71395102 4.32457024 6 6 C5 7 5 7 2.5625 7.1875 C0 7 0 7 -2 5 C-1.46428571 1.46428571 -1.46428571 1.46428571 0 0 Z " fill="#D8F8EA" transform="translate(42,55)"/>
<path d="M0 0 C1.67542976 0.28604898 3.34385343 0.61781233 5 1 C5.33 2.65 5.66 4.3 6 6 C3.125 6.625 3.125 6.625 0 7 C-0.66 6.34 -1.32 5.68 -2 5 C-1.46428571 1.46428571 -1.46428571 1.46428571 0 0 Z " fill="#CBF7E4" transform="translate(126,31)"/>
<path d="M0 0 C4.62 0 9.24 0 14 0 C14 0.33 14 0.66 14 1 C12.93458984 1.18175781 12.93458984 1.18175781 11.84765625 1.3671875 C10.92855469 1.53476563 10.00945312 1.70234375 9.0625 1.875 C8.14597656 2.03742188 7.22945312 2.19984375 6.28515625 2.3671875 C5.53105469 2.57601562 4.77695313 2.78484375 4 3 C3.67 3.66 3.34 4.32 3 5 C3.99 5.33 4.98 5.66 6 6 C2.98968256 6.93423645 2.13349732 7.04449911 -1 6 C-0.67 4.02 -0.34 2.04 0 0 Z " fill="#FEFBDF" transform="translate(104,94)"/>
<path d="M0 0 C2.625 0.375 2.625 0.375 5 1 C5.625 2.875 5.625 2.875 6 5 C5.34 5.66 4.68 6.32 4 7 C1.375 6.625 1.375 6.625 -1 6 C-1.625 4.125 -1.625 4.125 -2 2 C-1.34 1.34 -0.68 0.68 0 0 Z " fill="#DCF9E7" transform="translate(210,55)"/>
<path d="M0 0 C0.66 0 1.32 0 2 0 C2 2.31 2 4.62 2 7 C3.32 7 4.64 7 6 7 C6 4.69 6 2.38 6 0 C6.66 0 7.32 0 8 0 C8.36923077 6.52307692 8.36923077 6.52307692 6.5 8.9375 C6.005 9.288125 5.51 9.63875 5 10 C1.125 8.125 1.125 8.125 0 7 C-0.04092937 4.66702567 -0.04241723 2.33294775 0 0 Z " fill="#FEF6C5" transform="translate(133,162)"/>
<path d="M0 0 C1.65 0.33 3.3 0.66 5 1 C1.29909479 4.9252025 -2.54959656 7.94580156 -7 11 C-6.6875 7.625 -6.6875 7.625 -6 4 C-5.01 3.34 -4.02 2.68 -3 2 C-3 2.99 -3 3.98 -3 5 C-2.34 5 -1.68 5 -1 5 C-0.67 3.35 -0.34 1.7 0 0 Z " fill="#35AD5F" transform="translate(88,70)"/>
<path d="M0 0 C1.65 0 3.3 0 5 0 C6.4783226 2.95664519 6.06032783 5.74229737 6 9 C6.969375 9.28875 7.93875 9.5775 8.9375 9.875 C12 11 12 11 13 13 C10.36 12.67 7.72 12.34 5 12 C3.71682108 8.15046324 3.93356363 5.05261865 4 1 C2.68 0.67 1.36 0.34 0 0 Z " fill="#FEF9C8" transform="translate(135,85)"/>
<path d="M0 0 C1.65 0 3.3 0 5 0 C-0.01060674 4.0827166 -4.39613668 5.2361295 -10.8125 5.625 C-12.55466797 5.73714844 -12.55466797 5.73714844 -14.33203125 5.8515625 C-15.65267578 5.92503906 -15.65267578 5.92503906 -17 6 C-16.67 5.34 -16.34 4.68 -16 4 C-12.7 4 -9.4 4 -6 4 C-6 3.34 -6 2.68 -6 2 C-4.02 2 -2.04 2 0 2 C0 1.34 0 0.68 0 0 Z " fill="#D9DB5C" transform="translate(152,187)"/>
<path d="M0 0 C2.14576637 -0.02685938 4.29162645 -0.04633088 6.4375 -0.0625 C7.63246094 -0.07410156 8.82742187 -0.08570313 10.05859375 -0.09765625 C13 0 13 0 14 1 C14.04080783 2.99958364 14.04254356 5.00045254 14 7 C13.34 6.67 12.68 6.34 12 6 C12 4.68 12 3.36 12 2 C8.37 2 4.74 2 1 2 C0.67 1.34 0.34 0.68 0 0 Z " fill="#F5DD6C" transform="translate(104,162)"/>
<path d="M0 0 C0.33 0 0.66 0 1 0 C1 1.65 1 3.3 1 5 C0.34 5 -0.32 5 -1 5 C-0.979375 6.134375 -0.95875 7.26875 -0.9375 8.4375 C-1 12 -1 12 -2 13 C-2.36760731 15.32817964 -2.70241581 17.6618385 -3 20 C-3.33 20 -3.66 20 -4 20 C-4.51778074 12.30520289 -3.7505733 6.78117047 0 0 Z " fill="#D6DC5F" transform="translate(68,99)"/>
<path d="M0 0 C0.66 0 1.32 0 2 0 C1.52467862 5.07009471 -1.04362294 8.97493258 -4 13 C-4.33 13 -4.66 13 -5 13 C-5.1875 10.625 -5.1875 10.625 -5 8 C-4.01 7.34 -3.02 6.68 -2 6 C-0.78715124 2.94570927 -0.78715124 2.94570927 0 0 Z " fill="#D8E05E" transform="translate(187,152)"/>
<path d="M0 0 C0.8125 1.6875 0.8125 1.6875 1 4 C-1.40123201 7.03685225 -3.06049508 8.72858747 -6.8125 9.8125 C-7.534375 9.874375 -8.25625 9.93625 -9 10 C-7.625 8.5 -7.625 8.5 -6 7 C-5.34 7 -4.68 7 -4 7 C-3.71125 6.21625 -3.4225 5.4325 -3.125 4.625 C-2 2 -2 2 0 0 Z " fill="#F5E16D" transform="translate(152,152)"/>
<path d="M0 0 C0.33 0 0.66 0 1 0 C1.1234711 4.44495972 0.39748841 7.80753477 -1 12 C-1.99 11.01 -2.98 10.02 -4 9 C-3.71125 8.443125 -3.4225 7.88625 -3.125 7.3125 C-1.9586747 4.91505355 -0.9660119 2.48403061 0 0 Z " fill="#F4DC61" transform="translate(152,120)"/>
<path d="M0 0 C0.66 0 1.32 0 2 0 C0.44499019 3.81684226 -2.03595495 6.19195732 -5 9 C-4.67 7.02 -4.34 5.04 -4 3 C-3.01 3 -2.02 3 -1 3 C-0.67 2.01 -0.34 1.02 0 0 Z " fill="#DEE05C" transform="translate(180,165)"/>
<path d="M0 0 C1.98 0 3.96 0 6 0 C6 1.32 6 2.64 6 4 C4.125 4.625 4.125 4.625 2 5 C1.34 4.34 0.68 3.68 0 3 C0 2.01 0 1.02 0 0 Z " fill="#E2FAEE" transform="translate(124,33)"/>
<path d="M0 0 C6.93 0 13.86 0 21 0 C21 0.33 21 0.66 21 1 C14.07 1 7.14 1 0 1 C0 0.67 0 0.34 0 0 Z " fill="#29BE83" transform="translate(30,41)"/>
<path d="M0 0 C2.88437779 1.29299694 4.87219421 2.65941363 7 5 C6.67 5.66 6.34 6.32 6 7 C3.5625 6.3125 3.5625 6.3125 1 5 C0.1875 2.375 0.1875 2.375 0 0 Z " fill="#118F4A" transform="translate(144,15)"/>
<path d="M0 0 C3.82601307 1.45124634 5.22329124 3.35774704 7 7 C7 7.99 7 8.98 7 10 C6.01524786 8.90081184 5.03739527 7.7954398 4.0625 6.6875 C3.51722656 6.07261719 2.97195312 5.45773438 2.41015625 4.82421875 C1 3 1 3 0 0 Z " fill="#D6E062" transform="translate(73,164)"/>
<path d="M0 0 C3.465 1.98 3.465 1.98 7 4 C4.92446352 4.5534764 3.15634036 5 1 5 C0.67 3.35 0.34 1.7 0 0 Z " fill="#40AA66" transform="translate(85,179)"/>
<path d="M0 0 C5.61 0 11.22 0 17 0 C17 0.33 17 0.66 17 1 C11.39 1 5.78 1 0 1 C0 0.67 0 0.34 0 0 Z " fill="#239C4E" transform="translate(210,40)"/>
<path d="M0 0 C1.32 0.66 2.64 1.32 4 2 C3.67 2.99 3.34 3.98 3 5 C0.9375 5.6875 0.9375 5.6875 -1 6 C-1.042721 4.33388095 -1.04063832 2.66617115 -1 1 C-0.67 0.67 -0.34 0.34 0 0 Z " fill="#25B78A" transform="translate(101,24)"/>
<path d="M0 0 C0.33 0 0.66 0 1 0 C1 3.63 1 7.26 1 11 C0.67 11 0.34 11 0 11 C0 7.37 0 3.74 0 0 Z " fill="#12C34D" transform="translate(228,121)"/>
<path d="M0 0 C0.33 0 0.66 0 1 0 C1 3.63 1 7.26 1 11 C0.67 11 0.34 11 0 11 C0 7.37 0 3.74 0 0 Z " fill="#1EAE6F" transform="translate(27,121)"/>
<path d="M0 0 C2.64 0 5.28 0 8 0 C8 0.33 8 0.66 8 1 C5.36 1 2.72 1 0 1 C0 0.67 0 0.34 0 0 Z " fill="#31A671" transform="translate(51,40)"/>
<path d="M0 0 C0.33 0 0.66 0 1 0 C1 2.31 1 4.62 1 7 C0.67 7 0.34 7 0 7 C0 4.69 0 2.38 0 0 Z " fill="#2B9E7A" transform="translate(28,132)"/>
<path d="M0 0 C2.31 0 4.62 0 7 0 C7 0.33 7 0.66 7 1 C4.69 1 2.38 1 0 1 C0 0.67 0 0.34 0 0 Z " fill="#10C35C" transform="translate(203,39)"/>
<path d="M0 0 C0.33 0 0.66 0 1 0 C1 1.98 1 3.96 1 6 C0.67 6 0.34 6 0 6 C0 4.02 0 2.04 0 0 Z " fill="#1D9253" transform="translate(227,133)"/>
<path d="M0 0 C0.33 0 0.66 0 1 0 C1 1.65 1 3.3 1 5 C0.67 5 0.34 5 0 5 C0 3.35 0 1.7 0 0 Z " fill="#117142" transform="translate(226,139)"/>
<path d="M0 0 C0.33 0 0.66 0 1 0 C1 1.65 1 3.3 1 5 C0.67 5 0.34 5 0 5 C0 3.35 0 1.7 0 0 Z " fill="#33A57B" transform="translate(29,139)"/>
<path d="M0 0 C1.65 0 3.3 0 5 0 C5 0.33 5 0.66 5 1 C3.35 1 1.7 1 0 1 C0 0.67 0 0.34 0 0 Z " fill="#21AC6E" transform="translate(60,39)"/>
<path d="M0 0 C1 4 1 4 1 4 Z " fill="#1FC65D" transform="translate(224,148)"/>
<path d="M0 0 C1 4 1 4 1 4 Z " fill="#23C772" transform="translate(31,148)"/>
<path d="M0 0 C1 4 1 4 1 4 Z " fill="#1EC056" transform="translate(225,144)"/>
<path d="M0 0 C1 4 1 4 1 4 Z " fill="#29C566" transform="translate(30,144)"/>
<path d="M0 0 C4 1 4 1 4 1 Z " fill="#2CB565" transform="translate(198,38)"/>
<path d="M0 0 C4 1 4 1 4 1 Z " fill="#36C3A4" transform="translate(66,38)"/>
<path d="M0 0 C4 1 4 1 4 1 Z " fill="#0AB644" transform="translate(193,37)"/>
<path d="M0 0 C4 1 4 1 4 1 Z " fill="#24965D" transform="translate(70,37)"/>
<path d="" fill="#10693E" transform="translate(0,0)"/>
<path d="" fill="#45D5BB" transform="translate(0,0)"/>
<path d="" fill="#21B797" transform="translate(0,0)"/>
<path d="" fill="#1DA381" transform="translate(0,0)"/>
<path d="" fill="#1EBE9D" transform="translate(0,0)"/>
<path d="M0 0 C3 1 3 1 3 1 Z " fill="#1B8543" transform="translate(189,36)"/>
<path d="M0 0 C3 1 3 1 3 1 Z " fill="#259761" transform="translate(74,36)"/>
<path d="M0 0 C3 1 3 1 3 1 Z " fill="#0E9739" transform="translate(185,35)"/>
<path d="M0 0 C3 1 3 1 3 1 Z " fill="#19936C" transform="translate(77,35)"/>
<path d="M0 0 C3 1 3 1 3 1 Z " fill="#24904A" transform="translate(182,34)"/>
<path d="M0 0 C2 1 2 1 2 1 Z " fill="#1AF987" transform="translate(127,254)"/>
<path d="M0 0 C2 1 2 1 2 1 Z " fill="#119141" transform="translate(129,253)"/>
<path d="M0 0 C2 1 2 1 2 1 Z " fill="#129447" transform="translate(125,253)"/>
<path d="M0 0 C2 1 2 1 2 1 Z " fill="#2CBA79" transform="translate(134,251)"/>
<path d="M0 0 C2 1 2 1 2 1 Z " fill="#28BB79" transform="translate(120,251)"/>
<path d="M0 0 C2 1 2 1 2 1 Z " fill="#159666" transform="translate(136,250)"/>
<path d="M0 0 C2 1 2 1 2 1 Z " fill="#139662" transform="translate(118,250)"/>
<path d="M0 0 C2 1 2 1 2 1 Z " fill="#158A62" transform="translate(138,249)"/>
<path d="M0 0 C2 1 2 1 2 1 Z " fill="#198C61" transform="translate(116,249)"/>
<path d="M0 0 C2 1 2 1 2 1 Z " fill="#24B786" transform="translate(110,246)"/>
<path d="M0 0 C2 1 2 1 2 1 Z " fill="#2CA676" transform="translate(146,245)"/>
<path d="" fill="#12C844" transform="translate(0,0)"/>
<path d="" fill="#03D457" transform="translate(0,0)"/>
<path d="" fill="#18B252" transform="translate(0,0)"/>
<path d="" fill="#21B35C" transform="translate(0,0)"/>
<path d="" fill="#0F7E37" transform="translate(0,0)"/>
<path d="" fill="#148875" transform="translate(0,0)"/>
<path d="" fill="#3CCE84" transform="translate(0,0)"/>
<path d="" fill="#028868" transform="translate(0,0)"/>
<path d="" fill="#097D64" transform="translate(0,0)"/>
<path d="" fill="#38E0B6" transform="translate(0,0)"/>
<path d="" fill="#2FB176" transform="translate(0,0)"/>
<path d="" fill="#257E6A" transform="translate(0,0)"/>
<path d="" fill="#00844A" transform="translate(0,0)"/>
<path d="" fill="#17F2C3" transform="translate(0,0)"/>
<path d="" fill="#2BB361" transform="translate(0,0)"/>
<path d="" fill="#29D793" transform="translate(0,0)"/>
<path d="" fill="#075E2C" transform="translate(0,0)"/>
<path d="" fill="#12602D" transform="translate(0,0)"/>
<path d="" fill="#19C56F" transform="translate(0,0)"/>
<path d="" fill="#0E9875" transform="translate(0,0)"/>
<path d="" fill="#039B3C" transform="translate(0,0)"/>
<path d="" fill="#14958A" transform="translate(0,0)"/>
<path d="" fill="#0DB631" transform="translate(0,0)"/>
<path d="" fill="#1EBDAA" transform="translate(0,0)"/>
<path d="" fill="#2EBC90" transform="translate(0,0)"/>
<path d="" fill="#239C57" transform="translate(0,0)"/>
<path d="" fill="#176F6C" transform="translate(0,0)"/>
<path d="" fill="#2C9E7A" transform="translate(0,0)"/>
<path d="" fill="#088552" transform="translate(0,0)"/>
<path d="M0 0 C2 1 2 1 2 1 Z " fill="#26B679" transform="translate(160,25)"/>
<path d="M0 0 C2 1 2 1 2 1 Z " fill="#2DA465" transform="translate(158,24)"/>
<path d="" fill="#0B5B32" transform="translate(0,0)"/>
<path d="" fill="#09AA5B" transform="translate(0,0)"/>
<path d="" fill="#07A798" transform="translate(0,0)"/>
<path d="" fill="#0B8772" transform="translate(0,0)"/>
<path d="" fill="#05A05C" transform="translate(0,0)"/>
<path d="" fill="#09B96D" transform="translate(0,0)"/>
<path d="" fill="#048439" transform="translate(0,0)"/>
<path d="" fill="#16AE6D" transform="translate(0,0)"/>
<path d="" fill="#2A935B" transform="translate(0,0)"/>
<path d="" fill="#097C41" transform="translate(0,0)"/>
<path d="" fill="#10A76D" transform="translate(0,0)"/>
<path d="" fill="#14AA57" transform="translate(0,0)"/>
<path d="" fill="#067649" transform="translate(0,0)"/>
<path d="" fill="#12AA57" transform="translate(0,0)"/>
<path d="" fill="#56C196" transform="translate(0,0)"/>
<path d="" fill="#14AD55" transform="translate(0,0)"/>
<path d="" fill="#27B27C" transform="translate(0,0)"/>
<path d="" fill="#14AF4B" transform="translate(0,0)"/>
<path d="" fill="#29B079" transform="translate(0,0)"/>
<path d="" fill="#10B146" transform="translate(0,0)"/>
<path d="" fill="#25B07A" transform="translate(0,0)"/>
<path d="" fill="#12AE45" transform="translate(0,0)"/>
<path d="" fill="#22B17A" transform="translate(0,0)"/>
<path d="" fill="#1BA84B" transform="translate(0,0)"/>
<path d="" fill="#24B07A" transform="translate(0,0)"/>
<path d="" fill="#1AA550" transform="translate(0,0)"/>
<path d="" fill="#25B27B" transform="translate(0,0)"/>
<path d="" fill="#0E743F" transform="translate(0,0)"/>
<path d="" fill="#248D61" transform="translate(0,0)"/>
<path d="" fill="#0E743F" transform="translate(0,0)"/>
<path d="" fill="#0B7447" transform="translate(0,0)"/>
<path d="" fill="#1BA05F" transform="translate(0,0)"/>
<path d="" fill="#0D9B60" transform="translate(0,0)"/>
<path d="" fill="#1C9F63" transform="translate(0,0)"/>
<path d="" fill="#47D895" transform="translate(0,0)"/>
<path d="" fill="#0E6B44" transform="translate(0,0)"/>
<path d="" fill="#0BAB97" transform="translate(0,0)"/>
<path d="" fill="#129C4E" transform="translate(0,0)"/>
<path d="" fill="#1CBA79" transform="translate(0,0)"/>
<path d="" fill="#00A15B" transform="translate(0,0)"/>
<path d="" fill="#15E66B" transform="translate(0,0)"/>
<path d="" fill="#008736" transform="translate(0,0)"/>
<path d="" fill="#009936" transform="translate(0,0)"/>
<path d="" fill="#19A065" transform="translate(0,0)"/>
<path d="" fill="#32D2A7" transform="translate(0,0)"/>
<path d="" fill="#10A248" transform="translate(0,0)"/>
<path d="" fill="#12A045" transform="translate(0,0)"/>
<path d="" fill="#00A547" transform="translate(0,0)"/>
<path d="" fill="#05A05C" transform="translate(0,0)"/>
<path d="" fill="#14A256" transform="translate(0,0)"/>
<path d="" fill="#1F9C7F" transform="translate(0,0)"/>
<path d="" fill="#0CA25D" transform="translate(0,0)"/>
<path d="" fill="#00B092" transform="translate(0,0)"/>
<path d="" fill="#007C3F" transform="translate(0,0)"/>
<path d="" fill="#34958D" transform="translate(0,0)"/>
<path d="" fill="#08A852" transform="translate(0,0)"/>
<path d="" fill="#04B87B" transform="translate(0,0)"/>
<path d="" fill="#108345" transform="translate(0,0)"/>
<path d="" fill="#14A493" transform="translate(0,0)"/>
<path d="" fill="#0FA892" transform="translate(0,0)"/>
<path d="" fill="#1D905C" transform="translate(0,0)"/>
<path d="" fill="#308B6E" transform="translate(0,0)"/>
<path d="" fill="#098254" transform="translate(0,0)"/>
<path d="" fill="#4DC99A" transform="translate(0,0)"/>
<path d="" fill="#25AA77" transform="translate(0,0)"/>
<path d="" fill="#24A975" transform="translate(0,0)"/>
<path d="" fill="#279A68" transform="translate(0,0)"/>
<path d="" fill="#2AA675" transform="translate(0,0)"/>
<path d="" fill="#2CA575" transform="translate(0,0)"/>
<path d="" fill="#209867" transform="translate(0,0)"/>
<path d="" fill="#14AE5F" transform="translate(0,0)"/>
<path d="" fill="#1F9967" transform="translate(0,0)"/>
<path d="" fill="#05B867" transform="translate(0,0)"/>
<path d="" fill="#1D9F73" transform="translate(0,0)"/>
<path d="" fill="#1AAF66" transform="translate(0,0)"/>
<path d="" fill="#1B9F79" transform="translate(0,0)"/>
<path d="" fill="#1CB36A" transform="translate(0,0)"/>
<path d="" fill="#1BA478" transform="translate(0,0)"/>
<path d="" fill="#47D193" transform="translate(0,0)"/>
<path d="" fill="#038567" transform="translate(0,0)"/>
</svg>
