<?xml version="1.0" encoding="UTF-8"?>
<svg version="1.1" xmlns="http://www.w3.org/2000/svg" width="474" height="248">
<path d="M0 0 C156.42 0 312.84 0 474 0 C474 81.84 474 163.68 474 248 C317.58 248 161.16 248 0 248 C0 166.16 0 84.32 0 0 Z " fill="#11026D" transform="translate(0,0)"/>
<path d="M0 0 C0.99 0.66 1.98 1.32 3 2 C3 2.66 3 3.32 3 4 C3.56976563 4.23847656 4.13953125 4.47695312 4.7265625 4.72265625 C13.73884625 9.78625897 19.49631794 20.59022979 23.13671875 29.91015625 C25.74003857 39.22792086 24.73823702 49.56239077 20 58 C11.39332584 69.59741036 1.12631171 76.04306032 -13.23144531 78.56835938 C-17.12357793 79.0141543 -20.89277111 79.04221772 -24.796875 78.921875 C-26.26430145 78.89465071 -27.73175092 78.86864408 -29.19921875 78.84375 C-31.48647561 78.8003242 -33.77252026 78.7492952 -36.05908203 78.67773438 C-38.28437318 78.61126526 -40.50832822 78.57642457 -42.734375 78.546875 C-43.41876648 78.51793152 -44.10315796 78.48898804 -44.80828857 78.45916748 C-46.9744255 78.39134814 -46.9744255 78.39134814 -50 79 C-51.78943342 81.39445616 -51.78943342 81.39445616 -53 84 C-56.4375 85.125 -56.4375 85.125 -60 85 C-63.06587068 82.35994469 -64.02762873 79.90398835 -65 76.125 C-66.81023537 70.86154389 -71.05102619 69.33692131 -75.73046875 66.8359375 C-84.74536606 61.77380879 -94.54253083 54.09096576 -97.66796875 43.80078125 C-97.95730575 40.93470723 -97.50360971 38.7148554 -95.8359375 36.34765625 C-89.20780803 29.93175752 -77.24927466 25.16933144 -68.125 24.875 C-67.09375 24.91625 -66.0625 24.9575 -65 25 C-65.02320313 24.16597656 -65.04640625 23.33195312 -65.0703125 22.47265625 C-65.33665193 5.86449065 -65.33665193 5.86449065 -61.58203125 1.26171875 C-60 0 -60 0 -57.5 -0.0625 C-55 1 -55 1 -53.25 3.8125 C-51.33399756 8.69830621 -50.88467806 12.46780587 -50.9375 17.75 C-50.94652344 18.92046875 -50.95554687 20.0909375 -50.96484375 21.296875 C-50.97644531 22.18890625 -50.98804687 23.0809375 -51 24 C-50.2471875 23.96519531 -49.494375 23.93039063 -48.71875 23.89453125 C-35.06969122 23.54667902 -20.9565746 24.81967658 -10.4375 34.3125 C-8.48675289 37.95954894 -8.04190369 40.95470445 -9 45 C-11.47950681 48.1682587 -14.09425084 50.81643965 -18 52 C-21.25 51.625 -21.25 51.625 -24 51 C-23.4213888 47.64405503 -22.35999139 46.35999139 -20 44 C-20 43.01 -20 42.02 -20 41 C-21.39449109 40.516941 -22.79066707 40.03874483 -24.1875 39.5625 C-24.96480469 39.29566406 -25.74210937 39.02882813 -26.54296875 38.75390625 C-31.94486611 37.09640833 -37.20349693 36.72463201 -42.8125 36.4375 C-45.514375 36.293125 -48.21625 36.14875 -51 36 C-50.67 45.9 -50.34 55.8 -50 66 C-33.52308603 69.29538279 -16.02161992 69.57494274 -1.20703125 60.53515625 C4.1581764 56.80325075 7.0432991 53.28203973 9 47 C10.40093355 37.00553507 6.98625307 28.51926813 1.375 20.375 C-13.64921898 0.93189308 -36.91402261 -9.51178413 -60 -16 C-61.17949219 -16.350625 -62.35898438 -16.70125 -63.57421875 -17.0625 C-78.68047554 -21.19648133 -94.49146684 -20.21104463 -110 -20 C-109.24783203 -19.32517578 -109.24783203 -19.32517578 -108.48046875 -18.63671875 C-107.99191406 -18.09660156 -107.50335938 -17.55648437 -107 -17 C-107.3125 -14.8125 -107.3125 -14.8125 -108 -13 C-114.0546875 -12.8046875 -114.0546875 -12.8046875 -116 -13 C-118 -15 -118 -15 -118.5 -17.8125 C-117.92513974 -21.47723416 -116.80629211 -22.72934706 -113.84375 -24.90234375 C-79.83057272 -45.15171412 -27.97732954 -20.02459009 0 0 Z " fill="#F7F7FA" transform="translate(178,93)"/>
<path d="M0 0 C-0.13350465 6.94224199 -2.66106792 11.1677576 -6.27734375 17.01171875 C-8.5254808 20.91154832 -9.77635465 24.68125172 -11 29 C-8.23613195 26.29243297 -5.56263119 23.5454653 -2.984375 20.66015625 C11.71290111 4.24733263 11.71290111 4.24733263 19.25 3.8125 C22.69843792 5.30159819 24.60467339 7.12560807 27 10 C29.22798069 16.68394206 29.42814406 27.15216434 26.375 33.5625 C25.2578125 35.3359375 25.2578125 35.3359375 24 37 C23.56429687 37.61101562 23.12859375 38.22203125 22.6796875 38.8515625 C16.26209172 47.09273741 7.41587847 50.73763256 -2.61328125 52.7109375 C-6.15665541 53.66686082 -6.15665541 53.66686082 -7.6015625 56.58984375 C-7.93929688 57.69457031 -8.27703125 58.79929688 -8.625 59.9375 C-9.01300781 61.17628906 -9.40101563 62.41507813 -9.80078125 63.69140625 C-10.20643729 65.12594428 -10.60573362 66.56228994 -11 68 C-11.22993652 68.83128418 -11.45987305 69.66256836 -11.69677734 70.51904297 C-13.19696269 75.99670009 -14.61980633 81.49097167 -16 87 C-18.328125 87.1796875 -18.328125 87.1796875 -21 87 C-25.18498402 82.62478943 -27.36989899 79.76585526 -27.28125 73.66015625 C-26.39360255 65.26449075 -23.63169042 57.15803234 -20.1875 49.5 C-18.06302192 44.66632509 -17.52427442 42.05963055 -19 37 C-21.18832676 29.46243005 -20.0798345 23.80721118 -16.5 17.0625 C-16.14196289 16.37027344 -15.78392578 15.67804688 -15.41503906 14.96484375 C-7.39315419 0 -7.39315419 0 0 0 Z " fill="#F6F6F9" transform="translate(379,115)"/>
<path d="M0 0 C0.99 0.66 1.98 1.32 3 2 C3 2.66 3 3.32 3 4 C3.56976563 4.23847656 4.13953125 4.47695312 4.7265625 4.72265625 C13.73884625 9.78625897 19.49631794 20.59022979 23.13671875 29.91015625 C25.73767736 39.21946965 24.65588023 49.52169959 20 58 C18.046875 60.3046875 18.046875 60.3046875 16 62 C15.01 62 14.02 62 13 62 C13 61.01 13 60.02 13 59 C12.34 59 11.68 59 11 59 C11.875 53.125 11.875 53.125 13 52 C13.04063832 50.33382885 13.042721 48.66611905 13 47 C11.02 47.99 11.02 47.99 9 49 C9.04640625 48.26136719 9.0928125 47.52273437 9.140625 46.76171875 C9.60101426 33.82149192 5.36511147 24.75929672 -3 15 C-18.20329933 -1.04792707 -39.07625917 -10.11947153 -60 -16 C-61.17949219 -16.350625 -62.35898438 -16.70125 -63.57421875 -17.0625 C-78.68047554 -21.19648133 -94.49146684 -20.21104463 -110 -20 C-109.24783203 -19.32517578 -109.24783203 -19.32517578 -108.48046875 -18.63671875 C-107.99191406 -18.09660156 -107.50335938 -17.55648437 -107 -17 C-107.3125 -14.8125 -107.3125 -14.8125 -108 -13 C-114.0546875 -12.8046875 -114.0546875 -12.8046875 -116 -13 C-118 -15 -118 -15 -118.5 -17.8125 C-117.92513974 -21.47723416 -116.80629211 -22.72934706 -113.84375 -24.90234375 C-79.83057272 -45.15171412 -27.97732954 -20.02459009 0 0 Z " fill="#F5F5F9" transform="translate(178,93)"/>
<path d="M0 0 C1.28390625 -0.01224609 2.5678125 -0.02449219 3.890625 -0.03710938 C5.73914063 -0.04000977 5.73914063 -0.04000977 7.625 -0.04296875 C8.75164062 -0.04707764 9.87828125 -0.05118652 11.0390625 -0.05541992 C13.91815781 0.18078554 15.56613237 0.68970676 18 2.1875 C17.6875 4.5625 17.6875 4.5625 17 7.1875 C13.49548496 9.52384336 10.55841181 9.81312933 6.48828125 10.2578125 C5.39594429 10.38674393 5.39594429 10.38674393 4.28153992 10.51828003 C1.95933578 10.79061222 -0.36397651 11.05168899 -2.6875 11.3125 C-4.26375798 11.49535305 -5.83993122 11.67893815 -7.41601562 11.86328125 C-11.27641247 12.31318268 -15.13784114 12.75299527 -19 13.1875 C-19 13.8475 -19 14.5075 -19 15.1875 C-18.41621582 15.23237549 -17.83243164 15.27725098 -17.23095703 15.32348633 C-14.52794858 15.53775245 -11.82661048 15.76879749 -9.125 16 C-7.74828125 16.10538086 -7.74828125 16.10538086 -6.34375 16.21289062 C9.80831632 17.63472745 9.80831632 17.63472745 15.625 23.3125 C18.21835036 26.79731455 18.77114842 29.75150527 18.45703125 34.046875 C17.27093123 39.60228362 13.53410924 43.09103515 9 46.1875 C4.32600494 48.62992599 -0.16060923 48.55448149 -5.3125 48.5625 C-6.53743164 48.59923828 -6.53743164 48.59923828 -7.78710938 48.63671875 C-14.32405667 48.66797109 -19.5388179 47.15739313 -24.56347656 42.84594727 C-26.94970178 40.29139734 -28.0860998 37.92920061 -29.1875 34.625 C-29 31.1875 -29 31.1875 -26.25 28.3125 C-19.29108125 23.76243774 -10.88042531 24.40609357 -2.9375 26.0625 C0.01980882 26.75639369 1.36610294 27.43156863 4 29.1875 C3.875 31.0625 3.875 31.0625 3 33.1875 C-1.34220098 35.25521475 -5.24193083 35.60487449 -10 35.1875 C-12.34570085 34.21686517 -14.68020619 33.21851947 -17 32.1875 C-19.79340157 31.93359778 -19.79340157 31.93359778 -22 32.1875 C-22.66 33.5075 -23.32 34.8275 -24 36.1875 C-14.18942549 38.36762767 -4.39561714 37.70078394 5 34.1875 C5.99 33.5275 6.98 32.8675 8 32.1875 C8 30.8675 8 29.5475 8 28.1875 C0.29858396 24.77289626 -6.99996029 24.46216717 -15.33203125 24.015625 C-25.34455441 23.36236126 -25.34455441 23.36236126 -30 20.1875 C-32.22038744 16.85691883 -32.70223318 16.04978249 -32 12.1875 C-28.28084417 6.10285168 -22.99125965 2.73780478 -16.27783203 0.65258789 C-10.97741894 -0.4296508 -5.38810928 0.00270487 0 0 Z " fill="#F4F4F9" transform="translate(254,115.8125)"/>
<path d="M0 0 C1.98997382 1.24890607 3.86950839 2.58261802 5.75390625 3.984375 C6.70265625 4.54125 7.65140625 5.098125 8.62890625 5.671875 C10.75390625 6.984375 10.75390625 6.984375 12.75390625 8.984375 C13.2026503 13.47181549 13.27617476 15.93983798 11.25390625 19.984375 C4.91641327 27.58936658 -1.72193909 35.10645084 -12.20410156 36.18603516 C-16.5640346 36.39369973 -20.88899369 36.24897622 -25.24609375 35.984375 C-25.24609375 36.644375 -25.24609375 37.304375 -25.24609375 37.984375 C-27.22609375 37.984375 -29.20609375 37.984375 -31.24609375 37.984375 C-31.45105469 37.21351562 -31.65601563 36.44265625 -31.8671875 35.6484375 C-32.13660156 34.64554688 -32.40601563 33.64265625 -32.68359375 32.609375 C-33.08384766 31.11277344 -33.08384766 31.11277344 -33.4921875 29.5859375 C-34.14793731 27.03019799 -34.14793731 27.03019799 -35.24609375 24.984375 C-35.83935104 20.87663151 -36.13644535 16.82346191 -34.29296875 13.015625 C-27.0518262 3.86015741 -11.7488241 -5.31251177 0 0 Z " fill="#F5F5F9" transform="translate(230.24609375,73.015625)"/>
<path d="M0 0 C3.86953946 0.53743604 6.10461663 1.3678333 9 4 C16.05922339 16.30617671 20.50383227 29.39156716 16.75 43.4375 C15.47901629 47.13865165 14.45678528 49.8875201 11 52 C7.5625 52.5625 7.5625 52.5625 4 52 C-1.70334638 47.82681972 -4.83506394 40.91380949 -8.19921875 34.83203125 C-9.96894485 31.31314044 -9.96894485 31.31314044 -13 29 C-13.03738281 30.29035156 -13.07476562 31.58070313 -13.11328125 32.91015625 C-13.17897702 34.62763149 -13.2454231 36.34507815 -13.3125 38.0625 C-13.34633789 39.33383789 -13.34633789 39.33383789 -13.38085938 40.63085938 C-13.61373106 46.11392914 -14.51774114 50.09537592 -17 55 C-19.3125 55.25 -19.3125 55.25 -22 55 C-24.07077562 53.20959068 -24.90023269 51.70289438 -25.28540039 48.98925781 C-25.40672787 46.48514255 -25.41478987 44.00676161 -25.375 41.5 C-25.36629883 40.6037793 -25.35759766 39.70755859 -25.34863281 38.78417969 C-25.1230937 28.53878807 -22.99629053 19.95886577 -18 11 C-14.57340398 11.29121213 -12.55480454 11.50637162 -9.9453125 13.828125 C-9.34460938 14.62734375 -8.74390625 15.4265625 -8.125 16.25 C-7.4546875 17.14074219 -6.784375 18.03148438 -6.09375 18.94921875 C-3.08964841 23.32646379 -0.34691771 27.8300628 2.3359375 32.41015625 C3.74255965 35.08408625 3.74255965 35.08408625 6 36 C5.04349304 27.01386883 3.61148975 18.82354523 0.8046875 10.21875 C-0.07380058 6.70479767 -0.13666451 3.60794302 0 0 Z " fill="#F4F4F9" transform="translate(299,109)"/>
<path d="M0 0 C1.75376953 -0.05607422 1.75376953 -0.05607422 3.54296875 -0.11328125 C7.47411561 0.39866022 9.07087443 1.49527814 11.8125 4.3125 C12.625 7.5625 12.625 7.5625 12.8125 10.3125 C5.85817778 12.35788889 -0.96625787 12.89419634 -8.1875 13.3125 C-8.8475 14.9625 -9.5075 16.6125 -10.1875 18.3125 C-9.35605469 18.28929687 -8.52460938 18.26609375 -7.66796875 18.2421875 C-6.58128906 18.22414062 -5.49460937 18.20609375 -4.375 18.1875 C-3.29605469 18.16429687 -2.21710938 18.14109375 -1.10546875 18.1171875 C1.8125 18.3125 1.8125 18.3125 4.8125 20.3125 C4.5 22.6875 4.5 22.6875 3.8125 25.3125 C-0.57953179 28.24052119 -4.85363421 27.70532782 -10.03515625 27.87109375 C-11.59556641 28.08958984 -11.59556641 28.08958984 -13.1875 28.3125 C-15.3394437 31.54041555 -15.38836443 32.59650809 -15.1875 36.3125 C-14.40246094 36.168125 -13.61742187 36.02375 -12.80859375 35.875 C-1.39996459 33.85924221 -1.39996459 33.85924221 3.8125 34.3125 C5.8125 36.3125 5.8125 36.3125 5.91015625 39.6640625 C4.65109067 43.84899933 4.65109067 43.84899933 1.49609375 45.7109375 C0.09367538 46.3969174 -1.32261924 47.05509991 -2.75 47.6875 C-3.44158203 48.02910156 -4.13316406 48.37070313 -4.84570312 48.72265625 C-10.60379347 51.43802784 -16.27820178 53.35545596 -22.5 51.125 C-26.76346984 48.24963662 -27.87772276 46.64011675 -29.0625 41.5625 C-29.44573332 36.89331039 -28.7837011 32.46656645 -28 27.875 C-27.8870459 27.1644043 -27.7740918 26.45380859 -27.65771484 25.72167969 C-27.26953125 23.69140625 -27.26953125 23.69140625 -26.1875 20.3125 C-24.15234375 19.03515625 -24.15234375 19.03515625 -22.1875 18.3125 C-20.89518358 15.27050528 -20.89518358 15.27050528 -20.1875 12.3125 C-22.4975 10.6625 -24.8075 9.0125 -27.1875 7.3125 C-26.4765625 5.38671875 -26.4765625 5.38671875 -25.1875 3.3125 C-23.0859375 2.51953125 -23.0859375 2.51953125 -20.5625 2.125 C-19.65757812 1.97933594 -18.75265625 1.83367187 -17.8203125 1.68359375 C-16.51707031 1.49990234 -16.51707031 1.49990234 -15.1875 1.3125 C-13.95 1.10625 -12.7125 0.9 -11.4375 0.6875 C-7.63335647 0.27518996 -3.82377876 0.11538979 0 0 Z " fill="#F4F3F9" transform="translate(347.1875,115.6875)"/>
<path d="M0 0 C3.0789175 3.44944626 4.12716122 7.16405766 5.1875 11.5625 C5.3618457 12.26761719 5.53619141 12.97273438 5.71582031 13.69921875 C7.06454139 19.50584571 7.45442429 25.04199258 7 31 C3.81404107 29.65497638 2.32221273 28.4469395 0.5625 25.48046875 C0.14226562 24.78759766 -0.27796875 24.09472656 -0.7109375 23.38085938 C-1.34902344 22.29514648 -1.34902344 22.29514648 -2 21.1875 C-5.97281605 14.19354276 -5.97281605 14.19354276 -11 8 C-14.13863704 7.11406002 -14.13863704 7.11406002 -17 7 C-17.81974263 9.03876949 -18.6304807 11.08116075 -19.4375 13.125 C-19.88996094 14.26195312 -20.34242188 15.39890625 -20.80859375 16.5703125 C-23.079844 23.10853454 -23.18254111 29.33927835 -23.1875 36.1875 C-23.20586914 37.54004883 -23.20586914 37.54004883 -23.22460938 38.91992188 C-23.22654297 39.78552734 -23.22847656 40.65113281 -23.23046875 41.54296875 C-23.23457764 42.32696045 -23.23868652 43.11095215 -23.24291992 43.91870117 C-23.12405789 46.30629004 -23.12405789 46.30629004 -21 49 C-18.43717258 49.72965366 -18.43717258 49.72965366 -16 50 C-15.34 48.35 -14.68 46.7 -14 45 C-13.67 45 -13.34 45 -13 45 C-12.61866701 46.9914056 -12.28674418 48.99279077 -12 51 C-13.57960269 52.57960269 -15.19536816 52.16986544 -17.375 52.1875 C-18.56222656 52.20876953 -18.56222656 52.20876953 -19.7734375 52.23046875 C-22 52 -22 52 -25 50 C-25.6875 46.875 -25.6875 46.875 -26 44 C-28.475 44.495 -28.475 44.495 -31 45 C-30.34 44.030625 -29.68 43.06125 -29 42.0625 C-26.55540678 37.73408046 -26.01389093 33.87724217 -27 29 C-29.52950252 24.44689546 -31.55705316 22.89193337 -36.5 21.41015625 C-42.00429229 19.85352837 -47.43636959 19.2479359 -53.125 18.8125 C-54.08148438 18.73064453 -55.03796875 18.64878906 -56.0234375 18.56445312 C-58.34834548 18.36683595 -60.67358492 18.17883152 -63 18 C-63 16.68 -63 15.36 -63 14 C-61.53977417 13.83395264 -61.53977417 13.83395264 -60.05004883 13.66455078 C-56.42437425 13.25038382 -52.7998247 12.82699855 -49.17553711 12.40087891 C-47.60942091 12.2180386 -46.04301403 12.0376699 -44.47631836 11.85986328 C-42.21907122 11.60324389 -39.963033 11.33763318 -37.70703125 11.0703125 C-37.01100296 10.99313995 -36.31497467 10.91596741 -35.59785461 10.8364563 C-31.75662555 10.37146526 -28.53738585 9.54535057 -25 8 C-23.0075675 7.62406934 -21.0081326 7.28020455 -19 7 C-18.67 5.68 -18.34 4.36 -18 3 C-12.08807536 3.34776027 -9.9612654 4.70862915 -6 9 C-5.01 9 -4.02 9 -3 9 C-0.23776722 6.23776722 -0.42143709 3.79293383 0 0 Z " fill="#1C1260" transform="translate(298,114)"/>
<path d="M0 0 C1 1 1 1 1.11352539 3.40844727 C1.10828857 4.45057373 1.10305176 5.4927002 1.09765625 6.56640625 C1.09443359 7.69111328 1.09121094 8.81582031 1.08789062 9.97460938 C1.07951172 11.15861328 1.07113281 12.34261719 1.0625 13.5625 C1.05798828 14.75037109 1.05347656 15.93824219 1.04882812 17.16210938 C1.03699675 20.10812226 1.02051287 23.05403681 1 26 C-9.56291036 24.39216344 -19.56321675 18.70182584 -27 11 C-27.76953125 8.7578125 -27.76953125 8.7578125 -28 7 C-24.33765811 3.62755325 -20.40695754 2.86081512 -15.6875 1.8125 C-14.95337891 1.63525391 -14.21925781 1.45800781 -13.46289062 1.27539062 C-8.90704093 0.22839411 -4.7052806 -0.27391672 0 0 Z " fill="#12036B" transform="translate(113,129)"/>
<path d="M0 0 C2.3125 0 2.3125 0 5 1 C9.52513658 10.21188517 9.20489564 20.12358908 9.25 30.1875 C9.270625 31.34958984 9.29125 32.51167969 9.3125 33.70898438 C9.31765625 34.82982422 9.3228125 35.95066406 9.328125 37.10546875 C9.34214355 38.62370239 9.34214355 38.62370239 9.35644531 40.17260742 C8.9461626 43.42704858 7.85482038 45.3276507 6 48 C2.625 47.75 2.625 47.75 -1 47 C-3.6166405 43.5825522 -3.30618522 39.60810801 -3.30078125 35.48828125 C-3.30506638 34.76062057 -3.3093515 34.0329599 -3.31376648 33.2832489 C-3.31950009 31.74426307 -3.32001717 30.20525015 -3.31567383 28.66625977 C-3.3125338 26.33756831 -3.33591339 24.0101733 -3.36132812 21.68164062 C-3.39276238 13.95472636 -3.12074504 7.20488631 0 0 Z " fill="#F2F2F8" transform="translate(210,117)"/>
<path d="M0 0 C0.103125 0.78375 0.20625 1.5675 0.3125 2.375 C0.77595022 5.33045181 0.77595022 5.33045181 4 7 C2.02 7.99 0.04 8.98 -2 10 C-1.67663516 12.96307779 -1.08801675 13.91965077 1.15234375 15.96484375 C7.20570847 20.25229001 13.23335123 23.94693505 20 27 C18.68 27.33 17.36 27.66 16 28 C16 28.66 16 29.32 16 30 C16.99 30 17.98 30 19 30 C19 30.99 19 31.98 19 33 C19.66 33.33 20.32 33.66 21 34 C21 34.66 21 35.32 21 36 C21.66 36.33 22.32 36.66 23 37 C22.01 37.495 22.01 37.495 21 38 C10.06760766 32.40094489 -1.39795182 24.18631207 -7 13 C-7.93310791 9.71981083 -7.76734189 8.48255166 -7 5 C-5.30900196 2.95588178 -2.82459696 0 0 0 Z " fill="#EFEEF9" transform="translate(88,126)"/>
<path d="M0 0 C4.00845508 0.01166253 8.00412571 0.38792205 12 0.6875 C13.11246094 0.75388672 14.22492188 0.82027344 15.37109375 0.88867188 C22.3205755 1.40845055 27.86918041 2.63854449 34 6 C34.0625 8.25 34.0625 8.25 33 11 C24.96623028 16.03559999 16.24104333 16.53625488 7 16 C3.25 15 3.25 15 1 14 C1.875 10.125 1.875 10.125 3 9 C10.20527523 9.59059633 10.20527523 9.59059633 13.0625 11.0625 C17.13229228 13.03175433 21.24428308 12.21984492 25.4375 11 C26.283125 10.67 27.12875 10.34 28 10 C28 9.01 28 8.02 28 7 C21.39094618 3.03456771 12.44626754 3.39624858 5 4 C2.38908217 4.75348636 0.39998209 5.69091886 -2 7 C-2.33 6.34 -2.66 5.68 -3 5 C-2.18789963 3.08576342 -1.47927983 1.47927983 0 0 Z " fill="#1C115A" transform="translate(229,138)"/>
<path d="M0 0 C1 1 1 1 1.375 3.25 C0.8263981 7.27308061 -0.88010946 8.46508893 -4 11 C-10.07344864 14.53299833 -14.88788137 16.13419092 -22 16 C-20.95767661 10.07590885 -16.47832573 6.0303207 -11.96875 2.3359375 C-7.75127796 -0.56762979 -5.11636875 -1.74705274 0 0 Z " fill="#1C0F70" transform="translate(235,84)"/>
<path d="M0 0 C1.32 0.33 2.64 0.66 4 1 C4.71186306 7.52541138 3.40906072 10.71328566 -0.39453125 16.01953125 C-3.3162933 19.62374867 -5.50584229 21.57502316 -10 23 C-11.32 23 -12.64 23 -14 23 C-11.38025389 14.2244958 -6.05390038 6.78770649 0 0 Z " fill="#180C65" transform="translate(396,130)"/>
<path d="M0 0 C3.22899426 -0.0875127 6.45768116 -0.14056146 9.6875 -0.1875 C11.05551758 -0.22520508 11.05551758 -0.22520508 12.45117188 -0.26367188 C21.31564245 -0.36037519 21.31564245 -0.36037519 25 3 C26.03591533 5.7533539 25.90478134 8.00061227 26 11 C25.67 11.66 25.34 12.32 25 13 C24.34 13 23.68 13 23 13 C23 13.66 23 14.32 23 15 C18.38 15.33 13.76 15.66 9 16 C9 16.66 9 17.32 9 18 C9.763125 17.95875 10.52625 17.9175 11.3125 17.875 C14 18 14 18 17 20 C17.29296875 22.6015625 17.29296875 22.6015625 17.1875 25.625 C17.16042969 26.62789062 17.13335937 27.63078125 17.10546875 28.6640625 C17.07066406 29.43492187 17.03585937 30.20578125 17 31 C15.35 31.33 13.7 31.66 12 32 C12 30.68 12 29.36 12 28 C12.99 27.34 13.98 26.68 15 26 C15 24.68 15 23.36 15 22 C12.29816945 20.64908472 9.88191794 20.66141942 6.875 20.4375 C5.23144531 20.31181641 5.23144531 20.31181641 3.5546875 20.18359375 C2.29011719 20.09271484 2.29011719 20.09271484 1 20 C1.875 15.125 1.875 15.125 3 14 C4.55753051 13.77329092 6.12377359 13.60564908 7.69140625 13.46484375 C8.63564453 13.37783203 9.57988281 13.29082031 10.55273438 13.20117188 C12.04256836 13.0706543 12.04256836 13.0706543 13.5625 12.9375 C14.55958984 12.84662109 15.55667969 12.75574219 16.58398438 12.66210938 C19.05565702 12.43741186 21.52763256 12.21689649 24 12 C22.07608351 6.68588506 22.07608351 6.68588506 18 3 C15.97078331 2.72598982 15.97078331 2.72598982 13.76953125 2.8046875 C12.96708984 2.81113281 12.16464844 2.81757812 11.33789062 2.82421875 C10.50451172 2.84097656 9.67113281 2.85773438 8.8125 2.875 C7.5450293 2.88853516 7.5450293 2.88853516 6.25195312 2.90234375 C4.16784757 2.92589297 2.08388783 2.96176353 0 3 C0 2.01 0 1.02 0 0 Z " fill="#180D5C" transform="translate(336,114)"/>
<path d="M0 0 C0.99 0 1.98 0 3 0 C3.61875 1.670625 3.61875 1.670625 4.25 3.375 C5.35546516 5.99320695 5.74880787 6.83493089 8.1875 8.4375 C8.785625 8.623125 9.38375 8.80875 10 9 C9.690625 9.825 9.38125 10.65 9.0625 11.5 C7.39199769 17.00283114 6.19982786 21.0517548 8.4375 26.5 C8.953125 27.325 9.46875 28.15 10 29 C9.01 29 8.02 29 7 29 C5.96986723 27.35178756 4.96885372 25.68496298 4 24 C3.34 24 2.68 24 2 24 C1.89042969 24.91523438 1.78085938 25.83046875 1.66796875 26.7734375 C1.50941406 27.96195313 1.35085937 29.15046875 1.1875 30.375 C1.03667969 31.55835938 0.88585937 32.74171875 0.73046875 33.9609375 C0 37 0 37 -3 39 C-3.495 37.515 -3.495 37.515 -4 36 C-3.5361792 35.26305908 -3.0723584 34.52611816 -2.59448242 33.7668457 C-0.57157312 30.25656686 -0.5713188 27.76609351 -0.48828125 23.73046875 C-0.46135445 22.70896477 -0.46135445 22.70896477 -0.43388367 21.66682434 C-0.38001369 19.5071112 -0.34596218 17.34761601 -0.3125 15.1875 C-0.27930609 13.71676669 -0.24481451 12.24606207 -0.20898438 10.77539062 C-0.12430284 7.18380313 -0.05738039 3.59213924 0 0 Z " fill="#110658" transform="translate(219,129)"/>
<path d="M0 0 C3.91894024 2.61262683 4.07812826 4.46746393 5 9 C4.43671308 13.62874902 2.66179686 17.89901396 1.0625 22.25 C-4.39992261 35.96102894 -4.39992261 35.96102894 -3.1015625 50.0546875 C-2.14276542 51.74788235 -1.07934462 53.38098307 0 55 C-0.99 55.495 -0.99 55.495 -2 56 C-4.56083888 53.77318358 -5.38691344 52.31413771 -6 49 C-6.5948712 39.68957398 -5.9453139 30.41542765 -2.3125 21.75 C-0.7831067 17.38030486 -0.99010302 15.40682319 -2 11 C-2.99 11.33 -3.98 11.66 -5 12 C-4.979375 11.05125 -4.95875 10.1025 -4.9375 9.125 C-4.77448174 6.09333717 -4.77448174 6.09333717 -6 4 C-5.34 4 -4.68 4 -4 4 C-4 3.34 -4 2.68 -4 2 C-3 2 -2 2 -1 2 C-0.67 1.34 -0.34 0.68 0 0 Z " fill="#190E61" transform="translate(357,146)"/>
<path d="M0 0 C3.375 0.3125 3.375 0.3125 7 1 C9.45058519 4.67587779 9.82568312 7.72980044 9 12 C6.52049319 15.1682587 3.90574916 17.81643965 0 19 C-3.25 18.625 -3.25 18.625 -6 18 C-5.60196439 15.11424181 -5.20990931 14.17810487 -2.9375 12.25 C-1.9784375 11.63125 -1.9784375 11.63125 -1 11 C-1 11.99 -1 12.98 -1 14 C0.65 14 2.3 14 4 14 C3.71125 13.360625 3.4225 12.72125 3.125 12.0625 C1.6752275 8.11589708 0.84221938 4.1125393 0 0 Z " fill="#F6F8F5" transform="translate(160,126)"/>
<path d="M0 0 C2.33944736 0.28730055 4.6739143 0.61936779 7 1 C7.2954439 6.02254631 6.98514628 8.89542386 4 13 C1 12 1 12 -1 9 C-1.66 9 -2.32 9 -3 9 C-3 8.01 -3 7.02 -3 6 C-3.763125 6.226875 -4.52625 6.45375 -5.3125 6.6875 C-6.199375 6.790625 -7.08625 6.89375 -8 7 C-9.8125 5.5625 -9.8125 5.5625 -11 4 C-9.9375 2.5 -9.9375 2.5 -8 1 C-4.375 0.875 -4.375 0.875 -1 1 C-0.67 0.67 -0.34 0.34 0 0 Z " fill="#120370" transform="translate(269,126)"/>
<path d="M0 0 C5.75 1.625 5.75 1.625 8 5 C6.75 7.9375 6.75 7.9375 5 11 C2.8125 11.875 2.8125 11.875 1 12 C1.061875 13.134375 1.12375 14.26875 1.1875 15.4375 C1.21380222 20.33847991 -0.23987606 24.473967 -2 29 C-2.33 29 -2.66 29 -3 29 C-3.06058594 27.865625 -3.12117188 26.73125 -3.18359375 25.5625 C-3.26808494 24.04165865 -3.35272851 22.52082575 -3.4375 21 C-3.47681641 20.25621094 -3.51613281 19.51242188 -3.55664062 18.74609375 C-3.83661727 13.79266082 -4.33510571 8.91686531 -5 4 C-4.34 4 -3.68 4 -3 4 C-2.34 5.32 -1.68 6.64 -1 8 C-0.67 7.67 -0.34 7.34 0 7 C1.66617115 6.95936168 3.33388095 6.957279 5 7 C5 6.34 5 5.68 5 5 C4.34 5 3.68 5 3 5 C3 4.34 3 3.68 3 3 C2.01 3 1.02 3 0 3 C0 2.01 0 1.02 0 0 Z " fill="#150C55" transform="translate(320,124)"/>
<path d="M0 0 C2 2 2 2 2 5 C1.34 5 0.68 5 0 5 C0 5.99 0 6.98 0 8 C0.99 8 1.98 8 3 8 C2.55982484 12.91379205 0.36717883 15.27075669 -2.9375 18.8125 C-3.62102539 19.56563477 -3.62102539 19.56563477 -4.31835938 20.33398438 C-5.49727089 21.60265196 -6.74445239 22.80712532 -8 24 C-8.66 24 -9.32 24 -10 24 C-9.45157182 19.08668451 -7.84516137 15.1985745 -5.5625 10.875 C-5.24990234 10.26785156 -4.93730469 9.66070312 -4.61523438 9.03515625 C-3.7489815 7.35392975 -2.87476993 5.67681071 -2 4 C-1.32991015 2.66838376 -0.66134403 1.3359814 0 0 Z " fill="#1E1464" transform="translate(378,120)"/>
<path d="M0 0 C-2.40921705 2.40921705 -4.94334509 3.53812156 -8 5 C-6.68 5.66 -5.36 6.32 -4 7 C-4.66 7 -5.32 7 -6 7 C-5.484375 7.4125 -4.96875 7.825 -4.4375 8.25 C-3.963125 8.8275 -3.48875 9.405 -3 10 C-3.3125 12.1875 -3.3125 12.1875 -4 14 C-10.0546875 14.1953125 -10.0546875 14.1953125 -12 14 C-14 12 -14 12 -14.5 9.1875 C-13.91861371 5.4811624 -12.7183685 4.23683468 -9.7265625 2.0390625 C-3.46201232 -1.73100616 -3.46201232 -1.73100616 0 0 Z " fill="#EEEDF8" transform="translate(74,66)"/>
<path d="M0 0 C2.86310501 4.29465752 2.58480489 7.96168095 2 13 C-0.11622984 20.50056147 -5.68914101 25.30869025 -12.12109375 29.32421875 C-15.8177828 31.31581871 -18.70481835 32.53689771 -23 32 C-23 31.34 -23 30.68 -23 30 C-23.66 29.67 -24.32 29.34 -25 29 C-21.32589215 27.82428549 -17.83070817 27.92633254 -14 28 C-14 27.34 -14 26.68 -14 26 C-12.68 26 -11.36 26 -10 26 C-10 25.34 -10 24.68 -10 24 C-9.01 23.67 -8.02 23.34 -7 23 C-6.9175 22.21625 -6.835 21.4325 -6.75 20.625 C-6.5025 19.75875 -6.255 18.8925 -6 18 C-5.3503125 17.7834375 -4.700625 17.566875 -4.03125 17.34375 C-1.56236419 16.04785747 -1.56236419 16.04785747 -1.171875 12.3046875 C-1.01245322 10.83003605 -0.87254284 9.35317301 -0.75 7.875 C-0.63398438 6.74384766 -0.63398438 6.74384766 -0.515625 5.58984375 C-0.32710141 3.72817329 -0.16136762 1.86422062 0 0 Z " fill="#1B1256" transform="translate(186,127)"/>
<path d="M0 0 C0.33 0 0.66 0 1 0 C1.12117188 1.26457031 1.24234375 2.52914062 1.3671875 3.83203125 C1.53602147 5.49223198 1.70531633 7.15238589 1.875 8.8125 C1.95363281 9.64587891 2.03226562 10.47925781 2.11328125 11.33789062 C2.19707031 12.14033203 2.28085937 12.94277344 2.3671875 13.76953125 C2.44050293 14.50792236 2.51381836 15.24631348 2.58935547 16.00708008 C2.9331578 18.30638653 2.9331578 18.30638653 5 21 C7.56282742 21.72965366 7.56282742 21.72965366 10 22 C10.66 20.35 11.32 18.7 12 17 C12.33 17 12.66 17 13 17 C13.38133299 18.9914056 13.71325582 20.99279077 14 23 C12.42039731 24.57960269 10.80463184 24.16986544 8.625 24.1875 C7.83351563 24.20167969 7.04203125 24.21585938 6.2265625 24.23046875 C4 24 4 24 1 22 C0.3125 18.875 0.3125 18.875 0 16 C-1.65 16.33 -3.3 16.66 -5 17 C-4.360625 16.05125 -3.72125 15.1025 -3.0625 14.125 C-0.44562504 9.6217558 -0.20600549 5.11923637 0 0 Z " fill="#150D50" transform="translate(272,142)"/>
<path d="M0 0 C0.33 0.66 0.66 1.32 1 2 C0.28972656 2.18175781 -0.42054687 2.36351562 -1.15234375 2.55078125 C-2.07144531 2.80214844 -2.99054688 3.05351562 -3.9375 3.3125 C-5.31228516 3.67794922 -5.31228516 3.67794922 -6.71484375 4.05078125 C-7.46894531 4.36402344 -8.22304687 4.67726562 -9 5 C-9.33 5.99 -9.66 6.98 -10 8 C-9.484375 8.2475 -8.96875 8.495 -8.4375 8.75 C-6.39282538 9.79855108 -4.42172398 10.9064373 -2.4375 12.0625 C0.83523224 14.05081818 0.83523224 14.05081818 4 15 C3.67 15.99 3.34 16.98 3 18 C-3.31506393 15.18077503 -7.98601602 11.74728271 -13 7 C-12.66796875 5.109375 -12.66796875 5.109375 -12 3 C-7.91068936 0.33719307 -4.83960066 -0.34568576 0 0 Z " fill="#1A1357" transform="translate(98,132)"/>
<path d="M0 0 C3.04317386 -0.13558695 6.08025562 -0.23437239 9.125 -0.3125 C10.40890625 -0.3753418 10.40890625 -0.3753418 11.71875 -0.43945312 C16.08398261 -0.52339991 19.0993533 -0.42577704 22.6171875 2.33203125 C25 5 25 5 25 8 C22.32397917 7.0060494 20.11510297 6.08550507 17.8125 4.375 C11.78750884 1.42944877 4.42736854 2.88219678 -2 4 C-1.34 2.68 -0.68 1.36 0 0 Z " fill="#1C125E" transform="translate(213,70)"/>
<path d="M0 0 C0.33 0 0.66 0 1 0 C1 8.91 1 17.82 1 27 C1.99 27.33 2.98 27.66 4 28 C4 28.66 4 29.32 4 30 C6.64 30 9.28 30 12 30 C12 30.66 12 31.32 12 32 C16.29 32 20.58 32 25 32 C25 32.33 25 32.66 25 33 C16.83433114 33.21178968 8.89714001 33.35709844 1 31 C0 30 0 30 -0.11352539 27.13256836 C-0.10828857 25.88096924 -0.10305176 24.62937012 -0.09765625 23.33984375 C-0.0962413 22.67537735 -0.09482635 22.01091095 -0.09336853 21.3263092 C-0.08775518 19.19666101 -0.07520054 17.06711661 -0.0625 14.9375 C-0.05748671 13.49674631 -0.05292351 12.05599097 -0.04882812 10.61523438 C-0.03778145 7.07678898 -0.02050792 3.53840461 0 0 Z " fill="#443C7A" transform="translate(127,129)"/>
<path d="M0 0 C3.17962936 3.32415797 3.64222371 6.58182385 4.27734375 10.9765625 C4.83120196 13.19310504 4.83120196 13.19310504 7.06640625 14.2734375 C8.02353516 14.63308594 8.02353516 14.63308594 9 15 C7.35 15 5.7 15 4 15 C4 16.65 4 18.3 4 20 C1.00027651 16.21087559 -1.47510809 12.11168168 -4 8 C-3.34 7.67 -2.68 7.34 -2 7 C-1.34 7.33 -0.68 7.66 0 8 C-0.2784375 6.2984375 -0.2784375 6.2984375 -0.5625 4.5625 C-0.706875 3.386875 -0.85125 2.21125 -1 1 C-0.67 0.67 -0.34 0.34 0 0 Z " fill="#1D125C" transform="translate(195,98)"/>
<path d="M0 0 C1 1 1 1 1.11352539 3.40844727 C1.10828857 4.45057373 1.10305176 5.4927002 1.09765625 6.56640625 C1.09443359 7.69111328 1.09121094 8.81582031 1.08789062 9.97460938 C1.07951172 11.15861328 1.07113281 12.34261719 1.0625 13.5625 C1.05798828 14.75037109 1.05347656 15.93824219 1.04882812 17.16210938 C1.03699675 20.10812226 1.02051287 23.05403681 1 26 C0.67 26 0.34 26 0 26 C-0.02505615 25.40461426 -0.0501123 24.80922852 -0.07592773 24.19580078 C-0.19177494 21.50530864 -0.31455196 18.8151766 -0.4375 16.125 C-0.47681641 15.18785156 -0.51613281 14.25070313 -0.55664062 13.28515625 C-0.59853516 12.38925781 -0.64042969 11.49335938 -0.68359375 10.5703125 C-0.72025146 9.74289551 -0.75690918 8.91547852 -0.79467773 8.06298828 C-0.88238327 5.93820571 -0.88238327 5.93820571 -2 4 C-4.8159849 3.53101037 -4.8159849 3.53101037 -8.0625 3.375 C-9.71958984 3.26285156 -9.71958984 3.26285156 -11.41015625 3.1484375 C-12.26480469 3.09945312 -13.11945313 3.05046875 -14 3 C-13.67 2.34 -13.34 1.68 -13 1 C-8.65863092 -0.0336593 -4.44945931 -0.1744886 0 0 Z " fill="#312866" transform="translate(113,129)"/>
<path d="M0 0 C4.13414187 0.06712102 8.25478831 0.47898066 12.375 0.8125 C13.53773438 0.89564453 14.70046875 0.97878906 15.8984375 1.06445312 C17.0121875 1.15275391 18.1259375 1.24105469 19.2734375 1.33203125 C20.29872559 1.41171143 21.32401367 1.4913916 22.38037109 1.57348633 C25 2 25 2 28 4 C24.84113809 5.13719029 22.44783527 4.7965251 19.1875 4.26953125 C11.55155153 3.32867331 4.83016308 3.2744565 -2 7 C-2.33 6.34 -2.66 5.68 -3 5 C-2.18789963 3.08576342 -1.47927983 1.47927983 0 0 Z " fill="#2D2559" transform="translate(229,138)"/>
<path d="M0 0 C-2.6569876 2.26625413 -5.01409769 4.00663421 -8.1875 5.5 C-11.22335397 7.11912212 -11.76651138 7.91627845 -13 11 C-13.99 11.495 -13.99 11.495 -15 12 C-13.68 12.66 -12.36 13.32 -11 14 C-12 15 -12 15 -15.5625 15.0625 C-16.696875 15.041875 -17.83125 15.02125 -19 15 C-18.40632048 11.46167007 -17.06937798 9.5845978 -14.6875 6.9375 C-13.79611328 5.93009766 -13.79611328 5.93009766 -12.88671875 4.90234375 C-8.5554879 0.53524349 -6.26676917 -0.36154438 0 0 Z " fill="#231B53" transform="translate(232,85)"/>
<path d="M0 0 C2.31 0.33 4.62 0.66 7 1 C7.33 2.65 7.66 4.3 8 6 C2.69249572 9.29065265 -1.43990659 11.54175334 -7.875 10.5625 C-8.57625 10.376875 -9.2775 10.19125 -10 10 C-10 9.67 -10 9.34 -10 9 C-6.04 8.01 -2.08 7.02 2 6 C2 5.01 2 4.02 2 3 C1.34 2.67 0.68 2.34 0 2 C0 1.34 0 0.68 0 0 Z " fill="#201A55" transform="translate(255,142)"/>
<path d="M0 0 C7.15129696 1.87150963 13.49405457 4.49786342 20 8 C20 8.99 20 9.98 20 11 C19.34 11 18.68 11 18 11 C18 10.34 18 9.68 18 9 C16.9275 9.04125 15.855 9.0825 14.75 9.125 C11.34252515 9.0114175 9.79260369 8.78726636 7 7 C7 6.34 7 5.68 7 5 C5.824375 4.7834375 5.824375 4.7834375 4.625 4.5625 C2 4 2 4 0 3 C0 2.01 0 1.02 0 0 Z " fill="#180E5D" transform="translate(129,80)"/>
<path d="M0 0 C2.88250984 2.38120378 3.61038985 4.29870356 4 8 C2.27758081 9.72241919 -0.0246348 9.49090462 -2.375 9.75 C-3.35210937 9.86859375 -4.32921875 9.9871875 -5.3359375 10.109375 C-8 10 -8 10 -9.8515625 8.515625 C-10.23054688 8.01546875 -10.60953125 7.5153125 -11 7 C-9.9275 6.773125 -8.855 6.54625 -7.75 6.3125 C-3.62781299 4.86973455 -2.35585477 3.58089925 0 0 Z " fill="#150A5D" transform="translate(314,155)"/>
<path d="M0 0 C1.83935859 3.10391762 2.55472439 5.39429145 2 9 C0.0625 10.625 0.0625 10.625 -2 12 C-2.33 12.99 -2.66 13.98 -3 15 C-4.65 15 -6.3 15 -8 15 C-8.33 15.66 -8.66 16.32 -9 17 C-10.98 16.67 -12.96 16.34 -15 16 C-15 15.34 -15 14.68 -15 14 C-14.39671875 13.82984375 -13.7934375 13.6596875 -13.171875 13.484375 C-6.71087067 11.59630827 -6.71087067 11.59630827 -2 7 C-0.72234735 3.36456099 -0.72234735 3.36456099 0 0 Z " fill="#180E5F" transform="translate(170,131)"/>
<path d="M0 0 C0.55800293 0.06566162 1.11600586 0.13132324 1.69091797 0.19897461 C9.16033451 1.01746873 16.61760176 1.31734406 24.125 1.5625 C25.98898438 1.62727539 25.98898438 1.62727539 27.890625 1.69335938 C30.92699671 1.79846455 33.96343665 1.90061343 37 2 C33.24350344 4.50433104 31.32893413 4.20501786 26.84765625 4.125 C25.8028434 4.11364014 25.8028434 4.11364014 24.73692322 4.10205078 C21.76060219 4.06938951 18.7848328 4.01314613 15.80883789 3.95898438 C13.63430326 3.92277786 11.45985826 3.8986123 9.28515625 3.875 C7.98457275 3.85179687 6.68398926 3.82859375 5.34399414 3.8046875 C2.22925677 3.98660981 0.58580364 4.3390697 -2 6 C-1.34 4.02 -0.68 2.04 0 0 Z " fill="#10025A" transform="translate(128,171)"/>
<path d="M0 0 C0.99 0.66 1.98 1.32 3 2 C2.875 3.8125 2.875 3.8125 2 6 C-1.41106312 8.30048443 -3.24545576 9.06986521 -7.375 8.6875 C-8.24125 8.460625 -9.1075 8.23375 -10 8 C-9.60196439 5.11424181 -9.20990931 4.17810487 -6.9375 2.25 C-6.298125 1.8375 -5.65875 1.425 -5 1 C-5 1.99 -5 2.98 -5 4 C-3.35 4 -1.7 4 0 4 C0 2.68 0 1.36 0 0 Z " fill="#E3E1F4" transform="translate(164,136)"/>
<path d="M0 0 C0.99 0 1.98 0 3 0 C2.67 1.65 2.34 3.3 2 5 C3.98 4.67 5.96 4.34 8 4 C5.78963777 7.49004562 3.96684959 8.83897085 0 10 C-1.32 10 -2.64 10 -4 10 C-2.8905928 6.51329166 -1.73662334 3.22515763 0 0 Z " fill="#1C135F" transform="translate(386,143)"/>
<path d="M0 0 C2.31 0 4.62 0 7 0 C6.67 1.98 6.34 3.96 6 6 C6.66 6.33 7.32 6.66 8 7 C1.84765625 7.87890625 1.84765625 7.87890625 0 8 C-0.33 7.67 -0.66 7.34 -1 7 C-0.71269945 4.66055264 -0.38063221 2.3260857 0 0 Z " fill="#14016B" transform="translate(332,145)"/>
<path d="M0 0 C2.68826864 0.11490912 5.37513469 0.24163199 8.0625 0.375 C8.81466797 0.4059375 9.56683594 0.436875 10.34179688 0.46875 C15.18961281 0.72058459 19.38308043 1.49168365 24 3 C24 3.33 24 3.66 24 4 C18.39 4 12.78 4 7 4 C7 3.34 7 2.68 7 2 C5.35 2.33 3.7 2.66 2 3 C1.34 2.01 0.68 1.02 0 0 Z " fill="#1C125E" transform="translate(94,73)"/>
<path d="M0 0 C3.41538462 4.55384615 3.41538462 4.55384615 4.25 8 C4.50523437 8.99 4.50523437 8.99 4.765625 10 C5.03512614 12.29974305 4.80130594 13.83230532 4 16 C1.9375 17.25 1.9375 17.25 0 18 C0 16.68 0 15.36 0 14 C0.99 14 1.98 14 3 14 C2.34 13.34 1.68 12.68 1 12 C0.67 11.34 0.34 10.68 0 10 C-0.66 10 -1.32 10 -2 10 C-1.34 6.7 -0.68 3.4 0 0 Z " fill="#1B1161" transform="translate(298,114)"/>
<path d="M0 0 C1.45880109 0.14107747 2.91703551 0.28802415 4.375 0.4375 C5.59316406 0.55931641 5.59316406 0.55931641 6.8359375 0.68359375 C9 1 9 1 11 2 C11 2.66 11 3.32 11 4 C11.88751953 4.05607422 11.88751953 4.05607422 12.79296875 4.11328125 C17.53612478 4.50789945 21.1656695 4.90779798 25 8 C25 8.66 25 9.32 25 10 C16.55823333 7.286575 8.28889147 4.14265947 0 1 C0 0.67 0 0.34 0 0 Z " fill="#28205D" transform="translate(126,67)"/>
<path d="M0 0 C1.32 0.66 2.64 1.32 4 2 C3.195625 2.763125 2.39125 3.52625 1.5625 4.3125 C-1.16799024 6.79430898 -1.16799024 6.79430898 -2 10 C-5.62326739 11.2077558 -6.64146369 10.54311128 -10 9 C-9.278125 8.443125 -8.55625 7.88625 -7.8125 7.3125 C-5.02542701 5.02090666 -2.51358472 2.58540143 0 0 Z " fill="#190F5C" transform="translate(193,156)"/>
<path d="M0 0 C0.99 0.33 1.98 0.66 3 1 C3.33 1.99 3.66 2.98 4 4 C4.99 4 5.98 4 7 4 C6.67 6.64 6.34 9.28 6 12 C5.01 12.33 4.02 12.66 3 13 C0.41073669 10.41073669 0.62601957 8.97294721 0.375 5.375 C0.30023438 4.37210937 0.22546875 3.36921875 0.1484375 2.3359375 C0.09945312 1.56507812 0.05046875 0.79421875 0 0 Z " fill="#0E085A" transform="translate(201,120)"/>
<path d="M0 0 C-0.38728235 5.71241466 -0.87010523 8.73688282 -5 13 C-5.12375 11.88625 -5.2475 10.7725 -5.375 9.625 C-5.6465813 5.96896323 -5.6465813 5.96896323 -8 4 C-4.5 0 -4.5 0 0 0 Z " fill="#E2E0F2" transform="translate(379,115)"/>
<path d="M0 0 C1.23556641 0.01740234 1.23556641 0.01740234 2.49609375 0.03515625 C3.32238281 0.04417969 4.14867187 0.05320312 5 0.0625 C5.63808594 0.07410156 6.27617188 0.08570312 6.93359375 0.09765625 C6.10859375 0.77828125 5.28359375 1.45890625 4.43359375 2.16015625 C1.57290671 4.94243632 1.57290671 4.94243632 1.62109375 8.91015625 C1.72421875 9.96203125 1.82734375 11.01390625 1.93359375 12.09765625 C-0.015625 11.3828125 -0.015625 11.3828125 -2.06640625 10.09765625 C-2.7109375 7.96875 -2.7109375 7.96875 -2.87890625 5.53515625 C-2.94722656 4.72949219 -3.01554687 3.92382812 -3.0859375 3.09375 C-3.05884382 0.32477578 -2.75589447 0.13024076 0 0 Z " fill="#1A0F64" transform="translate(59.06640625,66.90234375)"/>
<path d="M0 0 C2.475 0.495 2.475 0.495 5 1 C5 8.92 5 16.84 5 25 C4.67 25 4.34 25 4 25 C3.67 19.39 3.34 13.78 3 8 C2.34 8.66 1.68 9.32 1 10 C-0.60725635 6.78548731 -0.05748185 3.56387464 0 0 Z " fill="#322A6F" transform="translate(202,131)"/>
<path d="M0 0 C0.33 0 0.66 0 1 0 C1 6.93 1 13.86 1 21 C-1.97 20.01 -4.94 19.02 -8 18 C-8 17.34 -8 16.68 -8 16 C-5.36 16 -2.72 16 0 16 C0 10.72 0 5.44 0 0 Z " fill="#120659" transform="translate(112,134)"/>
<path d="M0 0 C2.64 0 5.28 0 8 0 C8.12375 0.804375 8.2475 1.60875 8.375 2.4375 C8.58125 3.283125 8.7875 4.12875 9 5 C9.66 5.33 10.32 5.66 11 6 C11 6.66 11 7.32 11 8 C11.99 8.33 12.98 8.66 14 9 C14 9.66 14 10.32 14 11 C14.66 11.33 15.32 11.66 16 12 C11.68381834 12 10.07210341 9.86729652 7 7 C7 6.34 7 5.68 7 5 C6.401875 4.731875 5.80375 4.46375 5.1875 4.1875 C3.02775192 3.01506533 1.64209744 1.80630718 0 0 Z " fill="#1B1160" transform="translate(174,90)"/>
<path d="M0 0 C3.32368224 1.10789408 3.61563093 1.48436217 5.25 4.375 C5.60578125 4.98085937 5.9615625 5.58671875 6.328125 6.2109375 C7 8 7 8 6 11 C5.34 11 4.68 11 4 11 C2.375 9 2.375 9 1 7 C0.34 7.99 -0.32 8.98 -1 10 C-1.125 2.25 -1.125 2.25 0 0 Z " fill="#261E61" transform="translate(286,138)"/>
<path d="M0 0 C2.8453918 4.2680877 2.63487857 7.9874122 2 13 C0.92002977 15.92531066 -0.39986491 18.29977204 -2 21 C-2.99 20.67 -3.98 20.34 -5 20 C-5.33 20.66 -5.66 21.32 -6 22 C-6 20.68 -6 19.36 -6 18 C-5.04867187 17.75636719 -5.04867187 17.75636719 -4.078125 17.5078125 C-1.58271826 16.0469013 -1.58271826 16.0469013 -1.171875 12.3046875 C-1.01245322 10.83003605 -0.87254284 9.35317301 -0.75 7.875 C-0.67265625 7.12089844 -0.5953125 6.36679688 -0.515625 5.58984375 C-0.32710141 3.72817329 -0.16136762 1.86422062 0 0 Z " fill="#221862" transform="translate(186,127)"/>
<path d="M0 0 C0 0.33 0 0.66 0 1 C-0.70382813 0.93941406 -1.40765625 0.87882812 -2.1328125 0.81640625 C-10.08399921 0.14169719 -18.03951074 -0.44653403 -26 -1 C-26 -1.33 -26 -1.66 -26 -2 C-16.50548482 -3.08953453 -8.9595864 -3.83982274 0 0 Z " fill="#0F0456" transform="translate(114,63)"/>
<path d="M0 0 C2 3 2 3 2 5 C3.65 4.67 5.3 4.34 7 4 C6.67 9.61 6.34 15.22 6 21 C5.67 21 5.34 21 5 21 C4.98582031 20.26394531 4.97164063 19.52789062 4.95703125 18.76953125 C4.78060889 12.34780766 4.78060889 12.34780766 1.375 7.125 C0.59125 6.42375 -0.1925 5.7225 -1 5 C-0.8125 2.1875 -0.8125 2.1875 0 0 Z " fill="#32296F" transform="translate(268,133)"/>
<path d="M0 0 C3.96 0 7.92 0 12 0 C10.02 0.99 10.02 0.99 8 2 C8 2.66 8 3.32 8 4 C10.31 4 12.62 4 15 4 C12.44931155 6.35448165 11.28982642 6.98327924 7.75 7.1875 C6.8425 7.125625 5.935 7.06375 5 7 C5.33 5.02 5.66 3.04 6 1 C4.02 1 2.04 1 0 1 C0 0.67 0 0.34 0 0 Z " fill="#110357" transform="translate(333,144)"/>
<path d="M0 0 C0.99 0 1.98 0 3 0 C3.3125 2.1875 3.3125 2.1875 3 5 C0.75 7.8125 0.75 7.8125 -2 10 C-3.32 10 -4.64 10 -6 10 C-5.75 8.125 -5.75 8.125 -5 6 C-3.66666667 5.33333333 -2.33333333 4.66666667 -1 4 C-0.19471111 1.94999129 -0.19471111 1.94999129 0 0 Z " fill="#1A115D" transform="translate(233,85)"/>
<path d="M0 0 C2.53833449 1.26916725 2.89400901 2.41624809 4.125 4.9375 C4.47820312 5.64777344 4.83140625 6.35804687 5.1953125 7.08984375 C6 9 6 9 6 11 C4.68 11.33 3.36 11.66 2 12 C-0.31509559 8.52735662 -0.62582455 6.11592992 -1 2 C-0.67 1.34 -0.34 0.68 0 0 Z " fill="#E8E9EE" transform="translate(306,112)"/>
<path d="M0 0 C4.875 1.875 4.875 1.875 6 3 C6.04092937 5.33297433 6.04241723 7.66705225 6 10 C5.34 10 4.68 10 4 10 C4 7.69 4 5.38 4 3 C0.54074837 4.2491742 -2.14693203 5.67527795 -5 8 C-5.33 6.68 -5.66 5.36 -6 4 C-5.01 4.33 -4.02 4.66 -3 5 C-2.5359375 4.0409375 -2.5359375 4.0409375 -2.0625 3.0625 C-1 1 -1 1 0 0 Z " fill="#100853" transform="translate(375,112)"/>
<path d="M0 0 C2.4375 0.6875 2.4375 0.6875 5 2 C5.875 4.5625 5.875 4.5625 6 7 C5 8 5 8 2.4375 8.0625 C1.633125 8.041875 0.82875 8.02125 0 8 C0 5.36 0 2.72 0 0 Z " fill="#12026F" transform="translate(221,136)"/>
<path d="M0 0 C6.625 0.75 6.625 0.75 10 3 C9.67 4.65 9.34 6.3 9 8 C8.67 7.34 8.34 6.68 8 6 C5.47266765 5.34444881 5.47266765 5.34444881 3 5 C2.67 4.01 2.34 3.02 2 2 C1.34 1.34 0.68 0.68 0 0 Z " fill="#211767" transform="translate(149,131)"/>
<path d="M0 0 C0.99 0.33 1.98 0.66 3 1 C2.34 1.66 1.68 2.32 1 3 C1.99 3.66 2.98 4.32 4 5 C0.62902617 6.49821059 -1.20442119 7 -5 7 C-5.33 7.99 -5.66 8.98 -6 10 C-6.375 7.8125 -6.375 7.8125 -6 5 C-4.17212359 2.80074553 -2.43487461 1.62324974 0 0 Z " fill="#DCD7EE" transform="translate(231,142)"/>
<path d="M0 0 C2.97 0 5.94 0 9 0 C9.33 2.31 9.66 4.62 10 7 C9.113125 6.34 8.22625 5.68 7.3125 5 C4.01888014 3.01139933 2.71748127 2.56264926 -1 3 C-0.67 2.01 -0.34 1.02 0 0 Z " fill="#1C125F" transform="translate(299,107)"/>
<path d="M0 0 C1.99390001 3.98780002 2.22686963 5.47147572 2.125 9.75 C2.10695313 10.73484375 2.08890625 11.7196875 2.0703125 12.734375 C2.03550781 13.85585937 2.03550781 13.85585937 2 15 C-1.36748512 13.48052501 -2.60840337 12.47899158 -4 9 C-2.68 9 -1.36 9 0 9 C0 6.03 0 3.06 0 0 Z " fill="#22195E" transform="translate(303,130)"/>
<path d="M0 0 C0.8971875 0.5259375 0.8971875 0.5259375 1.8125 1.0625 C-1.46028139 3.24435426 -2.1226248 3.27682326 -5.85546875 3.0390625 C-6.74814453 2.9875 -7.64082031 2.9359375 -8.56054688 2.8828125 C-9.48931641 2.81835938 -10.41808594 2.75390625 -11.375 2.6875 C-12.31537109 2.63078125 -13.25574219 2.5740625 -14.22460938 2.515625 C-16.54634909 2.37419923 -18.8669993 2.2227967 -21.1875 2.0625 C-21.1875 1.7325 -21.1875 1.4025 -21.1875 1.0625 C-20.06730469 1.00191406 -18.94710937 0.94132813 -17.79296875 0.87890625 C-16.32030016 0.79448576 -14.84764456 0.70983851 -13.375 0.625 C-12.63701172 0.58568359 -11.89902344 0.54636719 -11.13867188 0.50585938 C-0.30643858 -0.13133082 -0.30643858 -0.13133082 0 0 Z " fill="#473F7E" transform="translate(263.1875,162.9375)"/>
<path d="M0 0 C0.66 0.66 1.32 1.32 2 2 C1.67 2.99 1.34 3.98 1 5 C-2.07617188 5.29296875 -2.07617188 5.29296875 -5.15234375 5.5859375 C-5.76207031 5.72257813 -6.37179687 5.85921875 -7 6 C-7.33 6.66 -7.66 7.32 -8 8 C-9.32 7.34 -10.64 6.68 -12 6 C-8.04 4.02 -4.08 2.04 0 0 Z " fill="#241A65" transform="translate(350,159)"/>
<path d="M0 0 C2 2 2 2 2 6 C1.04867188 6.70576172 1.04867188 6.70576172 0.078125 7.42578125 C-2.63453527 9.4806724 -2.73482029 10.88176353 -3.25 14.1875 C-3.39953125 15.08855469 -3.5490625 15.98960937 -3.703125 16.91796875 C-3.80109375 17.60503906 -3.8990625 18.29210937 -4 19 C-4.33 19 -4.66 19 -5 19 C-5.70048208 11.57488991 -3.37081613 6.5490142 0 0 Z " fill="#CECCE4" transform="translate(364,129)"/>
<path d="M0 0 C4.35453922 0.25614937 6.49609768 0.57277847 9.875 3.4375 C12 6 12 6 13 8 C12.01 8.33 11.02 8.66 10 9 C9.278125 8.195625 8.55625 7.39125 7.8125 6.5625 C4.97484311 3.97707928 3.72833853 3.31957187 0 3 C0 2.01 0 1.02 0 0 Z " fill="#1A1258" transform="translate(280,117)"/>
<path d="M0 0 C1.91619141 -0.02126953 1.91619141 -0.02126953 3.87109375 -0.04296875 C7.46531971 0.18143266 10.22446958 0.88221144 13.5625 2.1875 C10.07723882 4.30355143 10.07723882 4.30355143 7.69238281 3.76586914 C6.98952148 3.57500732 6.28666016 3.38414551 5.5625 3.1875 C4.122765 3.04716422 2.67912851 2.94333143 1.234375 2.87109375 C0.03554688 2.80825195 0.03554688 2.80825195 -1.1875 2.74414062 C-2.425 2.68516602 -2.425 2.68516602 -3.6875 2.625 C-4.52796875 2.58181641 -5.3684375 2.53863281 -6.234375 2.49414062 C-8.30190671 2.38841457 -10.36968281 2.28748705 -12.4375 2.1875 C-12.4375 1.8575 -12.4375 1.5275 -12.4375 1.1875 C-8.25686147 0.18446772 -4.29337757 0.02161822 0 0 Z " fill="#0E0553" transform="translate(258.4375,112.8125)"/>
<path d="M0 0 C0.33 1.32 0.66 2.64 1 4 C-1.97 4 -4.94 4 -8 4 C-7.67 2.68 -7.34 1.36 -7 0 C-4.3333581 -1.33332095 -2.83319697 -0.67102033 0 0 Z " fill="#11064F" transform="translate(345,130)"/>
<path d="M0 0 C1.33901367 0.14018555 1.33901367 0.14018555 2.70507812 0.28320312 C3.63384766 0.38697266 4.56261719 0.49074219 5.51953125 0.59765625 C6.45990234 0.69755859 7.40027344 0.79746094 8.36914062 0.90039062 C10.69078833 1.14787591 13.01162308 1.40134758 15.33203125 1.66015625 C15.33203125 1.99015625 15.33203125 2.32015625 15.33203125 2.66015625 C8.07203125 2.66015625 0.81203125 2.66015625 -6.66796875 2.66015625 C-6.99796875 2.00015625 -7.32796875 1.34015625 -7.66796875 0.66015625 C-4.59311229 -0.3647959 -3.15332421 -0.34144275 0 0 Z " fill="#31296B" transform="translate(86.66796875,60.33984375)"/>
<path d="M0 0 C4.29 0 8.58 0 13 0 C13 1.32 13 2.64 13 4 C11.02 4.33 9.04 4.66 7 5 C6.67 4.01 6.34 3.02 6 2 C3.03 1.505 3.03 1.505 0 1 C0 0.67 0 0.34 0 0 Z " fill="#2C216B" transform="translate(334,143)"/>
<path d="M0 0 C4.455 2.97 4.455 2.97 9 6 C8.34 6.66 7.68 7.32 7 8 C5.68 7.34 4.36 6.68 3 6 C3.33 7.32 3.66 8.64 4 10 C1.2027092 7.93243723 0.97307727 6.85559629 0.3125 3.3125 C0.209375 2.219375 0.10625 1.12625 0 0 Z M5 8 C7 9 7 9 7 9 Z " fill="#E1DFF0" transform="translate(86,140)"/>
<path d="M0 0 C-4.35483909 2.25250298 -7.28174086 3.13590042 -12.1875 2.5625 C-13.08855469 2.46066406 -13.98960937 2.35882813 -14.91796875 2.25390625 C-15.60503906 2.17011719 -16.29210937 2.08632812 -17 2 C-17 1.34 -17 0.68 -17 0 C-14.72979256 -0.19493195 -12.45879711 -0.38070418 -10.1875 -0.5625 C-8.92292969 -0.66691406 -7.65835938 -0.77132812 -6.35546875 -0.87890625 C-3 -1 -3 -1 0 0 Z " fill="#140857" transform="translate(223,109)"/>
<path d="M0 0 C4.13937592 3.30015998 7.58662205 6.17324411 10 11 C9.34 11.66 8.68 12.32 8 13 C7.731875 12.360625 7.46375 11.72125 7.1875 11.0625 C6.11332248 8.66868314 6.11332248 8.66868314 3 8 C0 2.77777778 0 2.77777778 0 0 Z " fill="#2D256A" transform="translate(170,103)"/>
<path d="M0 0 C-2.20146825 2.20146825 -4.332317 3.03558396 -7.1796875 4.203125 C-9.58948868 5.25805942 -11.78356859 6.58954365 -14 8 C-12.49235345 3.77858966 -9.78707131 2.19650136 -6 0 C-2.51612903 -1.25806452 -2.51612903 -1.25806452 0 0 Z " fill="#E0DFEF" transform="translate(74,66)"/>
<path d="M0 0 C0.68707031 0.34933594 1.37414062 0.69867188 2.08203125 1.05859375 C2.98308594 1.51363281 3.88414062 1.96867188 4.8125 2.4375 C6.15248047 3.11619141 6.15248047 3.11619141 7.51953125 3.80859375 C10.03999478 5.0831605 10.03999478 5.0831605 13 6 C13 6.66 13 7.32 13 8 C10.36 7.67 7.72 7.34 5 7 C5 6.34 5 5.68 5 5 C4.360625 4.731875 3.72125 4.46375 3.0625 4.1875 C1 3 1 3 0 0 Z " fill="#191059" transform="translate(229,158)"/>
<path d="M0 0 C0.66 0 1.32 0 2 0 C1.34 1.65 0.68 3.3 0 5 C-2.31 4.67 -4.62 4.34 -7 4 C-7.33 3.01 -7.66 2.02 -8 1 C-6.865625 1.020625 -5.73125 1.04125 -4.5625 1.0625 C-1.18424326 1.41577477 -1.18424326 1.41577477 0 0 Z " fill="#E5E3F6" transform="translate(216,160)"/>
<path d="M0 0 C0.66 0.33 1.32 0.66 2 1 C3.28571429 7.42857143 3.28571429 7.42857143 2 10 C1.34 10 0.68 10 0 10 C0 9.01 0 8.02 0 7 C-0.66 7 -1.32 7 -2 7 C-1.125 2.25 -1.125 2.25 0 0 Z " fill="#110563" transform="translate(301,129)"/>
<path d="M0 0 C0.99 0.33 1.98 0.66 3 1 C2.030625 1.70125 1.06125 2.4025 0.0625 3.125 C-2.55157225 5.27161462 -2.96258406 5.85835394 -3.875 9.3125 C-3.91625 10.199375 -3.9575 11.08625 -4 12 C-4.66 12 -5.32 12 -6 12 C-6 9.69 -6 7.38 -6 5 C-4.68 4.34 -3.36 3.68 -2 3 C-2 2.34 -2 1.68 -2 1 C-1.34 0.67 -0.68 0.34 0 0 Z " fill="#2C2369" transform="translate(85,125)"/>
<path d="M0 0 C-1.55603771 3.81936528 -3.95604931 6.26044438 -7 9 C-7.66 9 -8.32 9 -9 9 C-7.67183131 4.6532661 -5.0855272 0 0 0 Z " fill="#322F4E" transform="translate(211,84)"/>
<path d="M0 0 C3.3 0.33 6.6 0.66 10 1 C6.99163894 3.00557404 4.42851156 3.92859014 1 5 C0.01 5.33 -0.98 5.66 -2 6 C-1.34 4.02 -0.68 2.04 0 0 Z " fill="#1E135B" transform="translate(128,171)"/>
<path d="M0 0 C-0.99 1.485 -0.99 1.485 -2 3 C-5.0390625 3.51171875 -5.0390625 3.51171875 -8.625 3.6875 C-9.81351562 3.75324219 -11.00203125 3.81898438 -12.2265625 3.88671875 C-13.14179688 3.92410156 -14.05703125 3.96148437 -15 4 C-15.33 3.34 -15.66 2.68 -16 2 C-10.61972975 0.80911014 -5.54708616 -0.2919519 0 0 Z " fill="#140B53" transform="translate(342,166)"/>
<path d="M0 0 C0 1.65 0 3.3 0 5 C0.66 5.33 1.32 5.66 2 6 C1.34 6 0.68 6 0 6 C0 6.66 0 7.32 0 8 C-0.99 8.33 -1.98 8.66 -3 9 C-3.33 6.69 -3.66 4.38 -4 2 C-1 0 -1 0 0 0 Z " fill="#EFEEF1" transform="translate(230,147)"/>
<path d="M0 0 C0.66 0.33 1.32 0.66 2 1 C1.4739075 4.78786597 0.61896089 7.17152224 -2 10 C-2.66 10 -3.32 10 -4 10 C-3.5205537 5.78087253 -2.83374881 3.20336822 0 0 Z " fill="#140B54" transform="translate(397,137)"/>
<path d="M0 0 C0.33 1.32 0.66 2.64 1 4 C-3.455 7.96 -3.455 7.96 -8 12 C-8.66 11.67 -9.32 11.34 -10 11 C-6.7 7.37 -3.4 3.74 0 0 Z " fill="#E1E0ED" transform="translate(383,128)"/>
<path d="M0 0 C0.33 0 0.66 0 1 0 C1.05437607 1.58294782 1.09296271 3.16644256 1.125 4.75 C1.14820313 5.63171875 1.17140625 6.5134375 1.1953125 7.421875 C0.99139502 10.1135858 0.36551721 11.69904974 -1 14 C-1.66 14 -2.32 14 -3 14 C-2.68872484 12.41642541 -2.37592711 10.83315007 -2.0625 9.25 C-1.80146484 7.92742187 -1.80146484 7.92742187 -1.53515625 6.578125 C-1.07631512 4.36764947 -0.56663926 2.18487932 0 0 Z " fill="#2A205F" transform="translate(367,183)"/>
<path d="M0 0 C0.66 0.33 1.32 0.66 2 1 C1.6875 3.375 1.6875 3.375 1 6 C-2 8 -2 8 -5 8 C-5 7.01 -5 6.02 -5 5 C-3.68 4.67 -2.36 4.34 -1 4 C-0.67 2.68 -0.34 1.36 0 0 Z " fill="#DDDAEF" transform="translate(350,135)"/>
<path d="M0 0 C1.74565111 3.21639654 2.204437 5.32013404 2 9 C-0.31 10.32 -2.62 11.64 -5 13 C-4.70351562 12.43796875 -4.40703125 11.8759375 -4.1015625 11.296875 C-2.99056497 8.98032695 -2.16535294 6.69290908 -1.375 4.25 C-1.11460937 3.45078125 -0.85421875 2.6515625 -0.5859375 1.828125 C-0.39257812 1.22484375 -0.19921875 0.6215625 0 0 Z " fill="#11094F" transform="translate(170,131)"/>
<path d="M0 0 C5.61 0 11.22 0 17 0 C17 0.33 17 0.66 17 1 C11.06 1.495 11.06 1.495 5 2 C5 2.33 5 2.66 5 3 C3.02 3 1.04 3 -1 3 C-0.67 2.01 -0.34 1.02 0 0 Z " fill="#120B4F" transform="translate(235,128)"/>
<path d="M0 0 C3.21365891 1.10815825 3.9914224 1.98529554 5.75 5 C7 8 7 8 7 10 C6.01 10.33 5.02 10.66 4 11 C3.32880451 9.5437455 2.66318193 8.08492133 2 6.625 C1.62875 5.81289062 1.2575 5.00078125 0.875 4.1640625 C0 2 0 2 0 0 Z " fill="#170D56" transform="translate(309,115)"/>
<path d="M0 0 C0.66 0.66 1.32 1.32 2 2 C0.39658445 2.33692785 -1.20776555 2.66941093 -2.8125 3 C-3.70582031 3.185625 -4.59914063 3.37125 -5.51953125 3.5625 C-8 4 -8 4 -11 4 C-11 3.01 -11 2.02 -11 1 C-7.26779887 0.12183503 -3.83453269 -0.25563551 0 0 Z " fill="#201761" transform="translate(330,116)"/>
<path d="M0 0 C7.75 0.875 7.75 0.875 10 2 C10 2.66 10 3.32 10 4 C10.99 4 11.98 4 13 4 C13.33 5.32 13.66 6.64 14 8 C9.38 5.69 4.76 3.38 0 1 C0 0.67 0 0.34 0 0 Z " fill="#241B63" transform="translate(153,78)"/>
<path d="M0 0 C3.5625 0.25 3.5625 0.25 6.5625 2.25 C6.5625 2.91 6.5625 3.57 6.5625 4.25 C3.4375 3.72916667 0.3125 3.20833333 -2.8125 2.6875 C-3.67875 2.543125 -4.545 2.39875 -5.4375 2.25 C-3.4375 0.25 -3.4375 0.25 0 0 Z " fill="#201761" transform="translate(117.4375,62.75)"/>
<path d="M0 0 C-0.33 1.32 -0.66 2.64 -1 4 C-8.625 6.125 -8.625 6.125 -12 5 C-10.37750059 4.16180842 -8.75191503 3.3295884 -7.125 2.5 C-6.22007812 2.0359375 -5.31515625 1.571875 -4.3828125 1.09375 C-2 0 -2 0 0 0 Z " fill="#190F53" transform="translate(394,161)"/>
<path d="M0 0 C0.66 0 1.32 0 2 0 C1.67 1.98 1.34 3.96 1 6 C1.78375 5.79375 2.5675 5.5875 3.375 5.375 C4.674375 5.189375 4.674375 5.189375 6 5 C6.66 5.66 7.32 6.32 8 7 C1.84765625 7.87890625 1.84765625 7.87890625 0 8 C-0.33 7.67 -0.66 7.34 -1 7 C-0.71269945 4.66055264 -0.38063221 2.3260857 0 0 Z " fill="#362D65" transform="translate(332,145)"/>
<path d="M0 0 C1.97265625 0.36328125 1.97265625 0.36328125 4.97265625 3.36328125 C0.68265625 3.03328125 -3.60734375 2.70328125 -8.02734375 2.36328125 C-5.4339847 -0.2300778 -3.53987343 0.08601562 0 0 Z " fill="#241A63" transform="translate(148.02734375,115.63671875)"/>
<path d="M0 0 C1.44977894 2.34112451 2.04314411 3.5796929 1.7578125 6.359375 C1.54898438 7.14828125 1.34015625 7.9371875 1.125 8.75 C0.92132813 9.54921875 0.71765625 10.3484375 0.5078125 11.171875 C0.34023437 11.77515625 0.17265625 12.3784375 0 13 C-1.32 11.35 -2.64 9.7 -4 8 C-3.34 7.67 -2.68 7.34 -2 7 C-1.34 7.33 -0.68 7.66 0 8 C-0.2784375 6.2984375 -0.2784375 6.2984375 -0.5625 4.5625 C-0.706875 3.386875 -0.85125 2.21125 -1 1 C-0.67 0.67 -0.34 0.34 0 0 Z " fill="#231663" transform="translate(195,98)"/>
<path d="M0 0 C3.3 0 6.6 0 10 0 C7.14521674 1.90318884 5.58058692 2.4619099 2.3125 3.125 C1.50425781 3.29257813 0.69601563 3.46015625 -0.13671875 3.6328125 C-0.75160156 3.75398438 -1.36648437 3.87515625 -2 4 C-1.34 2.68 -0.68 1.36 0 0 Z " fill="#150B59" transform="translate(213,70)"/>
<path d="M0 0 C0.28571429 7.42857143 0.28571429 7.42857143 -2 11 C-2.33 11 -2.66 11 -3 11 C-3 7.7 -3 4.4 -3 1 C-1 0 -1 0 0 0 Z " fill="#13085B" transform="translate(276,127)"/>
<path d="M0 0 C0.66 0 1.32 0 2 0 C1.125 3.875 1.125 3.875 0 5 C-0.23075082 6.34747084 -0.41153063 7.70377565 -0.5625 9.0625 C-0.7790625 11.0115625 -0.7790625 11.0115625 -1 13 C-2.91903365 10.1778917 -2.99110212 8.87098068 -2.75 5.375 C-2 2 -2 2 0 0 Z " fill="#2A2167" transform="translate(196,83)"/>
<path d="M0 0 C1.64666203 0.1135629 3.29236082 0.24117381 4.9375 0.375 C5.85402344 0.44460937 6.77054687 0.51421875 7.71484375 0.5859375 C8.84599609 0.79089844 8.84599609 0.79089844 10 1 C10.33 1.66 10.66 2.32 11 3 C10.01 3.99 9.02 4.98 8 6 C7.34 5.01 6.68 4.02 6 3 C4.02 3.33 2.04 3.66 0 4 C0 2.68 0 1.36 0 0 Z " fill="#20175F" transform="translate(116,91)"/>
<path d="M0 0 C0.66 0.33 1.32 0.66 2 1 C1.67 2.65 1.34 4.3 1 6 C1.66 6 2.32 6 3 6 C2.34 7.32 1.68 8.64 1 10 C0.34 10 -0.32 10 -1 10 C-1.125 2.25 -1.125 2.25 0 0 Z " fill="#110555" transform="translate(372,170)"/>
<path d="M0 0 C1.32 0.66 2.64 1.32 4 2 C2.35 3.65 0.7 5.3 -1 7 C-1.99 6.01 -2.98 5.02 -4 4 C-2.68 2.68 -1.36 1.36 0 0 Z " fill="#241868" transform="translate(193,156)"/>
<path d="M0 0 C2.14553974 2.14553974 2.72963853 3.02602384 3 6 C1.6875 7.75 1.6875 7.75 0 9 C-0.66 9 -1.32 9 -2 9 C-1.51421457 5.87709365 -1.0013988 3.00419641 0 0 Z " fill="#302963" transform="translate(370,135)"/>
<path d="M0 0 C0 0.66 0 1.32 0 2 C-5.29411765 6 -5.29411765 6 -9 6 C-8.67 5.01 -8.34 4.02 -8 3 C-7.34 3 -6.68 3 -6 3 C-6 2.34 -6 1.68 -6 1 C-3.92446352 0.4465236 -2.15634036 0 0 0 Z " fill="#1C145C" transform="translate(395,118)"/>
<path d="M0 0 C0.66 0 1.32 0 2 0 C2 0.99 2 1.98 2 3 C4.31 3 6.62 3 9 3 C9 3.66 9 4.32 9 5 C6.03 5 3.06 5 0 5 C0 3.35 0 1.7 0 0 Z " fill="#1F1759" transform="translate(127,112)"/>
<path d="M0 0 C2.31 0.66 4.62 1.32 7 2 C5.9375 3.5625 5.9375 3.5625 4 5 C0.3125 4.6875 0.3125 4.6875 -3 4 C-2.67 3.34 -2.34 2.68 -2 2 C-1.34 2 -0.68 2 0 2 C0 1.34 0 0.68 0 0 Z " fill="#160B5D" transform="translate(219,94)"/>
<path d="M0 0 C2.64 0.33 5.28 0.66 8 1 C7.67 1.99 7.34 2.98 7 4 C5.02 4 3.04 4 1 4 C0.67 2.68 0.34 1.36 0 0 Z " fill="#11064F" transform="translate(356,201)"/>
<path d="M0 0 C0.99 0.66 1.98 1.32 3 2 C2.6875 3.9375 2.6875 3.9375 2 6 C-1 7 -1 7 -4 6 C-4 5.34 -4 4.68 -4 4 C-2.68 4 -1.36 4 0 4 C0 2.68 0 1.36 0 0 Z " fill="#ECECF4" transform="translate(164,136)"/>
<path d="M0 0 C0.66 0 1.32 0 2 0 C2.33 2.31 2.66 4.62 3 7 C2.01 7.66 1.02 8.32 0 9 C-1.125 2.25 -1.125 2.25 0 0 Z " fill="#150E54" transform="translate(372,131)"/>
<path d="M0 0 C2 3 2 3 1.875 5.0625 C0.7413007 7.57283417 -0.48618938 8.02691202 -3 9 C-3 7.68 -3 6.36 -3 5 C-2.01 5 -1.02 5 0 5 C-0.2784375 4.0409375 -0.2784375 4.0409375 -0.5625 3.0625 C-0.706875 2.381875 -0.85125 1.70125 -1 1 C-0.67 0.67 -0.34 0.34 0 0 Z " fill="#221672" transform="translate(301,123)"/>
<path d="M0 0 C0 0.66 0 1.32 0 2 C-1.4609375 3.2890625 -1.4609375 3.2890625 -3.375 4.625 C-4.00148437 5.07101563 -4.62796875 5.51703125 -5.2734375 5.9765625 C-7 7 -7 7 -9 7 C-8.67 6.01 -8.34 5.02 -8 4 C-7.34 4 -6.68 4 -6 4 C-6 3.01 -6 2.02 -6 1 C-3.92446352 0.4465236 -2.15634036 0 0 0 Z " fill="#231D5A" transform="translate(210,74)"/>
<path d="M0 0 C0.33 0 0.66 0 1 0 C1.33 1.98 1.66 3.96 2 6 C-0.60582371 6.93065133 -1.64198224 7.14917407 -4.25 6.0625 C-4.8275 5.711875 -5.405 5.36125 -6 5 C-4.68 5 -3.36 5 -2 5 C-1.34 3.35 -0.68 1.7 0 0 Z " fill="#221961" transform="translate(284,159)"/>
<path d="M0 0 C1.32 0.33 2.64 0.66 4 1 C1.58443874 4.19199167 -0.68003538 6.74716687 -4 9 C-4 5.00095031 -2.27413033 3.19799578 0 0 Z " fill="#251C65" transform="translate(242,90)"/>
<path d="M0 0 C1.093125 0.0825 2.18625 0.165 3.3125 0.25 C-0.99519231 4.18846154 -0.99519231 4.18846154 -4.5 4.5 C-5.221875 4.4175 -5.94375 4.335 -6.6875 4.25 C-4.79150483 0.68106792 -4.16790733 0.28256999 0 0 Z " fill="#170F54" transform="translate(228.6875,84.75)"/>
<path d="M0 0 C-0.33 1.65 -0.66 3.3 -1 5 C-2.32 5 -3.64 5 -5 5 C-5.33 4.34 -5.66 3.68 -6 3 C-2.25 0 -2.25 0 0 0 Z " fill="#F8FDEC" transform="translate(401,148)"/>
<path d="M0 0 C0.6875 1.6875 0.6875 1.6875 1 4 C-0.4375 6.75 -0.4375 6.75 -2 9 C-2.66 8.01 -3.32 7.02 -4 6 C-2.68 4.02 -1.36 2.04 0 0 Z " fill="#1B1162" transform="translate(219,159)"/>
<path d="M0 0 C0.99 0.33 1.98 0.66 3 1 C3 5.29 3 9.58 3 14 C2.67 14 2.34 14 2 14 C1.34 9.38 0.68 4.76 0 0 Z " fill="#1B115A" transform="translate(216,120)"/>
<path d="M0 0 C1.32 0.33 2.64 0.66 4 1 C2.35 2.98 0.7 4.96 -1 7 C-1.33 6.34 -1.66 5.68 -2 5 C-1.0625 2.375 -1.0625 2.375 0 0 Z " fill="#0F0651" transform="translate(383,123)"/>
<path d="M0 0 C1.65 0 3.3 0 5 0 C5.33 1.32 5.66 2.64 6 4 C3.69 4 1.38 4 -1 4 C-0.67 2.68 -0.34 1.36 0 0 Z " fill="#150A59" transform="translate(210,114)"/>
<path d="M0 0 C0.99 0 1.98 0 3 0 C2.125 3.875 2.125 3.875 1 5 C-1.33297433 5.04092937 -3.66705225 5.04241723 -6 5 C-6 4.67 -6 4.34 -6 4 C-4.35 3.67 -2.7 3.34 -1 3 C-0.67 2.01 -0.34 1.02 0 0 Z " fill="#E8E6F7" transform="translate(309,156)"/>
<path d="M0 0 C2.12046792 3.53411321 2.53199289 6.94393835 3 11 C2.34 11 1.68 11 1 11 C-0.28317892 7.15046324 -0.06643637 4.05261865 0 0 Z " fill="#352F63" transform="translate(359,148)"/>
<path d="M0 0 C-1 1.5625 -1 1.5625 -3 3 C-5.76614782 2.96726452 -8.26030547 2.49404328 -11 2 C-11 1.67 -11 1.34 -11 1 C-9.5437328 0.63743142 -8.08488815 0.28520207 -6.625 -0.0625 C-5.40683594 -0.35833984 -5.40683594 -0.35833984 -4.1640625 -0.66015625 C-2 -1 -2 -1 0 0 Z " fill="#322E5F" transform="translate(256,150)"/>
<path d="M0 0 C0.66 0.33 1.32 0.66 2 1 C2.625 3.0625 2.625 3.0625 3 5 C1.35 5.33 -0.3 5.66 -2 6 C-1.34 4.02 -0.68 2.04 0 0 Z " fill="#2C275A" transform="translate(384,147)"/>
<path d="M0 0 C0.75 1.75 0.75 1.75 1 4 C-0.9375 6.25 -0.9375 6.25 -3 8 C-3.66 7.34 -4.32 6.68 -5 6 C-3.35 4.02 -1.7 2.04 0 0 Z " fill="#E4E2F5" transform="translate(397,143)"/>
<path d="M0 0 C2.1640625 0.0234375 2.1640625 0.0234375 4.625 0.375 C5.85089844 0.54128906 5.85089844 0.54128906 7.1015625 0.7109375 C7.72804687 0.80632812 8.35453125 0.90171875 9 1 C5.01647791 3.30903272 2.49885947 2.86516528 -2 2 C-1.34 1.34 -0.68 0.68 0 0 Z " fill="#4B4569" transform="translate(248,140)"/>
<path d="M0 0 C-0.33 1.32 -0.66 2.64 -1 4 C-2.65 4.33 -4.3 4.66 -6 5 C-4.87312259 1.61936778 -3.78825335 0 0 0 Z " fill="#140958" transform="translate(234,102)"/>
<path d="M0 0 C0.66 0 1.32 0 2 0 C2.33 1.32 2.66 2.64 3 4 C1.68 4.99 0.36 5.98 -1 7 C-1.04254356 5.00045254 -1.04080783 2.99958364 -1 1 C-0.67 0.67 -0.34 0.34 0 0 Z " fill="#FDFEED" transform="translate(369,162)"/>
<path d="M0 0 C0.99 0.66 1.98 1.32 3 2 C0.6875 4.0625 0.6875 4.0625 -2 6 C-2.99 5.67 -3.98 5.34 -5 5 C-3.35 3.35 -1.7 1.7 0 0 Z " fill="#29235B" transform="translate(221,88)"/>
<path d="M0 0 C2.31 0 4.62 0 7 0 C6.67 0.99 6.34 1.98 6 3 C4.35 3 2.7 3 1 3 C0.67 2.01 0.34 1.02 0 0 Z " fill="#10074F" transform="translate(118,178)"/>
<path d="M0 0 C2.64 0 5.28 0 8 0 C6.25 1.5625 6.25 1.5625 4 3 C1.75 2.6875 1.75 2.6875 0 2 C0 1.34 0 0.68 0 0 Z " fill="#170E59" transform="translate(340,148)"/>
<path d="M0 0 C0.33 0.66 0.66 1.32 1 2 C0.0625 4.625 0.0625 4.625 -1 7 C-1.66 6.67 -2.32 6.34 -3 6 C-3 4.35 -3 2.7 -3 1 C-2.01 0.67 -1.02 0.34 0 0 Z " fill="#150866" transform="translate(377,130)"/>
<path d="M0 0 C2.375 0.3125 2.375 0.3125 5 1 C5.66 1.99 6.32 2.98 7 4 C5.35 4 3.7 4 2 4 C1.34 2.68 0.68 1.36 0 0 Z " fill="#E9E7F7" transform="translate(180,98)"/>
<path d="M0 0 C0.99 0 1.98 0 3 0 C3 1.65 3 3.3 3 5 C2.01 5.33 1.02 5.66 0 6 C-1 3 -1 3 0 0 Z " fill="#150F4C" transform="translate(233,85)"/>
</svg>
