<?xml version="1.0" encoding="UTF-8"?>
<svg version="1.1" xmlns="http://www.w3.org/2000/svg" width="1200" height="630">
<path d="M0 0 C396 0 792 0 1200 0 C1200 207.9 1200 415.8 1200 630 C804 630 408 630 0 630 C0 422.1 0 214.2 0 0 Z " fill="#020F41" transform="translate(0,0)"/>
<path d="M0 0 C2.1806258 0.01066084 4.36041561 0.00007397 6.54101562 -0.01269531 C19.63097073 -0.02633884 32.42301147 1.41371901 45.25976562 4.01074219 C46.50234131 4.26126343 46.50234131 4.26126343 47.77001953 4.5168457 C56.15039358 6.28635304 64.25045453 8.7869045 72.3515625 11.54785156 C74.18527519 12.17162149 76.02664809 12.77277942 77.86914062 13.37011719 C128.29274636 30.34196497 178.55289609 62.18585873 203.20117188 110.71386719 C209.84606361 124.48400427 212.31149698 139.34548541 207.32226562 154.13574219 C199.26076269 175.36436659 185.94093659 189.48295358 165.23852539 198.87060547 C152.36746075 204.429646 139.29978699 207.36369901 125.44726562 209.26074219 C124.77679199 209.35572998 124.10631836 209.45071777 123.41552734 209.54858398 C105.58181823 211.95403076 86.79359314 209.85121633 69.44726562 205.26074219 C69.42148437 205.86402344 69.39570313 206.46730469 69.36914062 207.08886719 C69.2840625 208.28769531 69.2840625 208.28769531 69.19726562 209.51074219 C69.15085937 210.29964844 69.10445313 211.08855469 69.05664062 211.90136719 C68.23500307 215.08257926 67.06170259 216.29331235 64.44726562 218.26074219 C59.7720416 219.3221092 54.79447144 219.44118162 50.43554688 217.24902344 C46.77056018 213.73174401 46.31117346 210.51634325 45.94628906 205.55224609 C45.41981905 198.93956044 45.41981905 198.93956044 41.69238281 193.71337891 C37.01202906 190.75931574 31.92443755 188.6310337 26.86962891 186.40527344 C15.58782692 181.07478687 6.31732165 171.82619464 -2.55273438 163.26074219 C-3.26429688 162.61234375 -3.97585938 161.96394531 -4.70898438 161.29589844 C-10.22636086 156.15360675 -15.89605486 148.91249209 -16.79101562 141.20996094 C-16.97346215 135.65014325 -16.3245836 132.61287591 -12.55273438 128.26074219 C-0.41856582 115.57502052 22.26366924 108.10981193 39.44726562 106.26074219 C41.44712221 106.23679181 43.44746909 106.23221442 45.44726562 106.26074219 C45.39505859 104.94589844 45.39505859 104.94589844 45.34179688 103.60449219 C45.15574509 94.88663716 45.70930871 86.41953695 46.75976562 77.76074219 C46.87747314 76.74689453 46.99518066 75.73304688 47.11645508 74.68847656 C47.87371542 68.81643856 48.93193662 63.64354626 51.44726562 58.26074219 C54.13476562 57.26074219 54.13476562 57.26074219 56.44726562 57.26074219 C64.63440585 65.44788241 67.45432458 76.02008016 67.54492188 87.44042969 C67.53832999 89.33889191 67.52648595 91.23734215 67.50976562 93.13574219 C67.50525391 94.11027344 67.50074219 95.08480469 67.49609375 96.08886719 C67.48437468 98.47955652 67.46796782 100.87011658 67.44726562 103.26074219 C68.04861328 103.23455811 68.64996094 103.20837402 69.26953125 103.18139648 C91.31147654 102.35878042 121.81048253 103.93523107 139.44726562 119.26074219 C144.38351293 124.26243216 147.58262874 127.65435796 147.88476562 134.82324219 C147.81312659 141.46179257 146.02149504 145.49186471 141.44726562 150.26074219 C137.77186582 153.48238893 134.34109791 155.5256813 129.38476562 155.69824219 C125.45370176 155.26145731 122.18300268 154.50598787 118.44726562 153.26074219 C118.44726562 151.94074219 118.44726562 150.62074219 118.44726562 149.26074219 C120.63538939 147.53234543 122.95213666 146.28539211 125.38085938 144.92089844 C127.6878109 143.3921919 127.6878109 143.3921919 128.23242188 140.56933594 C128.33876953 139.42658203 128.33876953 139.42658203 128.44726562 138.26074219 C112.93679913 130.64156566 95.09118773 127.39102045 77.92773438 126.67871094 C77.01133179 126.63693726 76.0949292 126.59516357 75.15075684 126.55212402 C72.91640954 126.45086081 70.68196662 126.35381221 68.44726562 126.26074219 C68.56690907 132.39487324 68.69122272 138.52888688 68.81958008 144.6628418 C68.86248268 146.7428948 68.90418172 148.82297303 68.94458008 150.90307617 C69.17486157 162.71566387 69.49346686 174.48161996 70.44726562 186.26074219 C79.21549729 188.09503035 87.76317632 188.57455199 96.68261719 188.52148438 C98.81279176 188.51078975 100.94211686 188.52143018 103.07226562 188.53417969 C126.79068741 188.55816036 153.63581936 183.73422867 171.38476562 166.69824219 C180.14500679 157.24969636 183.15807108 147.18766844 183.05126953 134.52050781 C182.70565891 126.27128536 180.34462003 119.4946122 176.44726562 112.26074219 C176.10405273 111.61540527 175.76083984 110.97006836 175.40722656 110.30517578 C169.32573851 99.16665052 161.45201173 90.13182196 152.44726562 81.26074219 C151.20009766 80.01550781 151.20009766 80.01550781 149.92773438 78.74511719 C117.14936572 47.69780377 70.08758373 29.76456612 26.38476562 21.94824219 C25.49394287 21.78864014 24.60312012 21.62903809 23.68530273 21.46459961 C11.58180524 19.44381654 -0.63502116 19.05463951 -12.8840332 19.02050781 C-14.98558609 19.01076374 -17.08617257 18.97956511 -19.1875 18.94824219 C-28.67235097 18.87691193 -37.31853441 20.04553655 -46.55273438 22.26074219 C-46.55273438 22.92074219 -46.55273438 23.58074219 -46.55273438 24.26074219 C-45.31523437 24.19886719 -44.07773438 24.13699219 -42.80273438 24.07324219 C-39.77062136 24.05711393 -38.73025142 24.15423196 -36.05273438 25.76074219 C-35.55773437 26.25574219 -35.06273437 26.75074219 -34.55273438 27.26074219 C-34.88273437 28.91074219 -35.21273437 30.56074219 -35.55273438 32.26074219 C-38.30332818 32.34181864 -41.05152459 32.40127031 -43.80273438 32.44824219 C-44.96869141 32.48594727 -44.96869141 32.48594727 -46.15820312 32.52441406 C-49.62055407 32.56880318 -51.94029749 32.57459224 -55.06054688 30.97558594 C-57.09251436 28.64041911 -57.22949466 26.54405171 -57.05664062 23.51074219 C-55.68429154 17.38304396 -51.5387856 12.65023051 -46.61523438 8.94824219 C-40.48306003 5.22144936 -33.52448255 3.67159853 -26.55273438 2.26074219 C-25.70630371 2.08124023 -24.85987305 1.90173828 -23.98779297 1.71679688 C-15.98539892 0.18306144 -8.11492089 -0.04696971 0 0 Z " fill="#F9FAFB" transform="translate(266.552734375,260.7392578125)"/>
<path d="M0 0 C0.11103224 1.4773457 0.18691823 2.95733137 0.25 4.4375 C0.29640625 5.26121094 0.3428125 6.08492188 0.390625 6.93359375 C-0.78308542 16.14722055 -7.10846742 24.75851483 -11.66601562 32.65234375 C-16.5723531 41.40618552 -19.06004551 50.03648238 -20 60 C-19.34 60 -18.68 60 -18 60 C-17.92523437 59.47277344 -17.85046875 58.94554687 -17.7734375 58.40234375 C-16.68581111 55.02411026 -14.69566692 52.39880483 -12.625 49.5625 C-12.17946777 48.94777832 -11.73393555 48.33305664 -11.27490234 47.69970703 C-6.49561161 41.19006967 -1.40147902 35.00102653 4 29 C4.70745361 28.20650146 4.70745361 28.20650146 5.42919922 27.39697266 C12.96716188 19.05237396 23.07330975 8.89143544 35 8.25 C40.29873459 8.81034856 43.60172536 11.52182395 47.1875 15.3125 C51.67507914 21.96649665 52.49834414 27.30623498 52.375 35.1875 C52.36484863 36.11933105 52.35469727 37.05116211 52.34423828 38.01123047 C51.91602586 57.08162091 43.38638069 71.15549428 29.8125 84.25 C21.02469933 91.78018256 10.70869605 95.90183794 -0.75 96.5625 C-1.44738281 96.60568359 -2.14476562 96.64886719 -2.86328125 96.69335938 C-4.57531922 96.79889596 -6.28763561 96.8998991 -8 97 C-16.72584036 120.89550714 -24.42785529 144.34110735 -27.54296875 169.70703125 C-28 172 -28 172 -30 175 C-34.89306146 174.76131408 -37.73582228 173.29878231 -41.2578125 170.08203125 C-49.20173428 160.58851037 -50.99161737 149.96759994 -50 138 C-47.55171574 119.50185229 -40.9310115 100.36654048 -32.0546875 84.0234375 C-30.71291223 80.17701505 -31.36043932 78.66201277 -33 75 C-33.36351562 74.2575 -33.72703125 73.515 -34.1015625 72.75 C-38.58675847 59.02140017 -34.47719656 42.90918374 -28.41601562 30.47607422 C-23.39891825 20.66469467 -12.20337615 0 0 0 Z " fill="#FAFAFB" transform="translate(807,358)"/>
<path d="M0 0 C-0.28567982 3.3329312 -0.9814475 4.97507008 -3 7.6875 C-9.08312709 12.37657713 -16.95466574 12.3009573 -24.3984375 12.4921875 C-26.19663101 12.55814756 -27.99480763 12.62456925 -29.79296875 12.69140625 C-32.56741214 12.7852327 -35.34180909 12.87404831 -38.11669922 12.95361328 C-51.15740722 13.34410965 -63.32336527 14.88142027 -76 18 C-76 18.66 -76 19.32 -76 20 C-69.27315095 21.89523075 -62.62843314 22.71194031 -55.6875 23.4375 C-15.35073652 27.91967841 -15.35073652 27.91967841 -8 37 C-2.51107867 44.62350185 -2.45738194 50.78554145 -3 60 C-4.28567862 67.46347335 -7.91424443 72.65117295 -13.7109375 77.40234375 C-26.7764458 86.47101934 -43.67491278 86.9254927 -58.8828125 84.33984375 C-70.82107202 81.01726791 -82.04107339 74.5183726 -88.9375 64.0625 C-90.60178942 59.26543051 -91.1782203 55.45462562 -88.96875 50.8515625 C-85.3403194 45.42907455 -81.19213812 42.94553334 -75 41 C-71.58047295 40.49678071 -68.26321484 40.47442109 -64.8125 40.5625 C-63.89557373 40.57571289 -62.97864746 40.58892578 -62.03393555 40.60253906 C-51.27441993 40.88560972 -35.99136171 42.00863829 -28 50 C-28.17347005 52.68878572 -28.74180664 53.75136936 -30.6875 55.625 C-37.64728123 59.7632483 -45.13325109 59.95450947 -53 59 C-56.32907985 57.97849242 -59.47057523 56.57015159 -62.6472168 55.15454102 C-67.68389211 52.96107522 -72.5549704 51.59518236 -78 53 C-79.90118274 54.1767399 -79.90118274 54.1767399 -81 56 C-80.7299582 58.43248829 -80.43100142 59.62495187 -78.56323242 61.25024414 C-72.49518652 64.36360583 -67.05261891 64.58405883 -60.3125 64.4375 C-59.24684814 64.42356201 -58.18119629 64.40962402 -57.08325195 64.39526367 C-43.58002345 64.07903122 -29.2660919 61.55808557 -19 52 C-18.87184635 49.6147267 -18.87184635 49.6147267 -20 47 C-32.91786508 38.5537036 -50.65613737 38.76141597 -65.60546875 37.5390625 C-66.53681641 37.45922119 -67.46816406 37.37937988 -68.42773438 37.29711914 C-70.2159287 37.14509731 -72.00500791 37.003024 -73.79492188 36.87280273 C-80.28496166 36.32033746 -86.32126426 35.26662255 -91.4375 30.9375 C-95.05226319 26.45519364 -94.52273491 21.53484025 -94 16 C-90.69511895 7.52226166 -83.44146238 1.79564415 -75.25 -1.8125 C-53.24224891 -10.17094255 -20.50193607 -14.00132219 0 0 Z " fill="#F8F9FA" transform="translate(607,368)"/>
<path d="M0 0 C0.639375 0.66 1.27875 1.32 1.9375 2 C4.22912784 4.22218457 5.97028359 4.88293029 8.9375 6 C14.1892814 7.99258765 17.61331629 9.94388277 20.8125 14.6875 C23.30609033 21.6433046 22.40783901 27.76120645 19.44921875 34.45703125 C10.70424748 49.80198084 -5.94668231 59.02667249 -22 65 C-30.75295833 67.0840377 -39.39849588 66.25613223 -48 64 C-48.433125 65.175625 -48.433125 65.175625 -48.875 66.375 C-50 69 -50 69 -52 71 C-55.26902738 70.91397296 -56.73344332 70.22213056 -59.25 68.125 C-61.07831896 64.86014472 -61.2503204 63.33497274 -61.4375 59.6875 C-61.70231149 54.65608178 -62.89661636 51.69999151 -65.84375 47.65625 C-68.89246696 43.28916894 -68.50526966 38.08156915 -68 33 C-64.85440253 20.56920517 -55.89706647 11.4904104 -45.22998047 4.90771484 C-31.81163425 -3.00602435 -14.47525473 -9.4983694 0 0 Z " fill="#F8F9FA" transform="translate(531,282)"/>
<path d="M0 0 C2.79458147 -0.0993406 5.58795799 -0.16129683 8.38378906 -0.21386719 C9.28025146 -0.24375732 10.17671387 -0.27364746 11.1003418 -0.30444336 C17.15697682 -0.35702126 20.65206503 0.49661217 25.57128906 4.09863281 C29.03259339 7.82410714 31.374808 11.5267843 32.00878906 16.59863281 C31.57128906 19.09863281 31.57128906 19.09863281 30.57128906 20.09863281 C23.14294413 21.83873723 15.46203924 22.48274616 7.88378906 23.22363281 C7.00561523 23.3112085 6.12744141 23.39878418 5.22265625 23.48901367 C-0.35335273 24.00881999 -5.82871224 24.17806542 -11.42871094 24.09863281 C-12.41871094 27.72863281 -13.40871094 31.35863281 -14.42871094 35.09863281 C-13.6160376 35.093396 -12.80336426 35.08815918 -11.96606445 35.08276367 C-8.30778772 35.06206287 -4.64952326 35.04899478 -0.99121094 35.03613281 C0.28818359 35.02775391 1.56757812 35.019375 2.88574219 35.01074219 C4.10068359 35.00751953 5.315625 35.00429688 6.56738281 35.00097656 C7.69329834 34.99573975 8.81921387 34.99050293 9.97924805 34.98510742 C12.57128906 35.09863281 12.57128906 35.09863281 13.57128906 36.09863281 C13.72283875 38.24072941 13.79306652 40.38886743 13.82128906 42.53613281 C13.84707031 43.71046875 13.87285156 44.88480469 13.89941406 46.09472656 C13.79113281 47.08601563 13.68285156 48.07730469 13.57128906 49.09863281 C10.03070015 51.45902542 8.16041612 51.47998949 3.94628906 51.72363281 C3.29909912 51.76157959 2.65190918 51.79952637 1.98510742 51.83862305 C-5.81480724 52.24816732 -13.6212296 52.18463934 -21.42871094 52.09863281 C-21.55117188 52.7934375 -21.67363281 53.48824219 -21.79980469 54.20410156 C-22.48729664 57.36827261 -23.44728895 60.34671665 -24.49121094 63.41113281 C-24.8534375 64.47976563 -25.21566406 65.54839844 -25.58886719 66.64941406 C-25.86601563 67.45765625 -26.14316406 68.26589844 -26.42871094 69.09863281 C-25.57229004 68.94716797 -24.71586914 68.79570312 -23.83349609 68.63964844 C-20.61032139 68.07379737 -17.3859983 67.51564272 -14.16064453 66.96240234 C-12.77340429 66.72289041 -11.38666556 66.48045236 -10.00048828 66.23486328 C11.08197825 62.50547389 11.08197825 62.50547389 16.69628906 66.09863281 C18.59299392 69.13336058 19.57041452 71.36966786 19.27832031 74.99707031 C16.57766424 83.02443478 6.14227368 87.35545593 -0.91357422 91.00439453 C-10.73160541 95.87363925 -21.29220532 100.13902755 -32.42871094 98.09863281 C-38.86606895 95.33418316 -42.86266405 91.00489798 -46.42871094 85.09863281 C-49.47663579 75.95485825 -47.84877763 65.32081177 -44.20605469 56.64941406 C-43.29192639 53.64978703 -43.66115714 52.10292314 -44.42871094 49.09863281 C-44.5632667 47.37269638 -44.64728785 45.64202114 -44.67871094 43.91113281 C-44.70449219 43.05132812 -44.73027344 42.19152344 -44.75683594 41.30566406 C-44.64855469 40.57734375 -44.54027344 39.84902344 -44.42871094 39.09863281 C-41.42871094 37.09863281 -41.42871094 37.09863281 -38.97949219 36.91503906 C-36.07377058 36.28422608 -36.07377058 36.28422608 -34.40917969 32.93847656 C-33.79295337 31.64638911 -33.1958215 30.34505468 -32.61621094 29.03613281 C-32.30490234 28.37291016 -31.99359375 27.7096875 -31.67285156 27.02636719 C-30.90830114 25.39140551 -30.16628044 23.74594221 -29.42871094 22.09863281 C-30.52828125 21.958125 -31.62785156 21.81761719 -32.76074219 21.67285156 C-38.06769654 20.8420504 -40.42435281 19.37443908 -43.74121094 15.16113281 C-45.42871094 12.09863281 -45.42871094 12.09863281 -45.42871094 8.09863281 C-39.42868519 4.09861565 -31.70873932 3.55832711 -24.67871094 2.53613281 C-23.79111084 2.40682373 -22.90351074 2.27751465 -21.98901367 2.14428711 C-14.65011559 1.09683047 -7.4103586 0.30094339 0 0 Z " fill="#F9FAFB" transform="translate(742.4287109375,360.9013671875)"/>
<path d="M0 0 C6.22223755 0.69135973 10.92179119 7.14757049 14.76953125 11.70703125 C28.52992203 30.28506432 30.95477634 54.42170139 28.26953125 76.78515625 C26.79298383 85.60023275 24.13390834 92.2789434 17.4921875 98.3671875 C13.11819076 99.85832275 9.29330184 100.22050313 4.7421875 99.3046875 C-7.83091124 92.9826209 -15.34636815 73.72868446 -21.23535156 61.8984375 C-21.71584961 60.94324219 -22.19634766 59.98804688 -22.69140625 59.00390625 C-23.11478271 58.14627686 -23.53815918 57.28864746 -23.97436523 56.4050293 C-25.22980817 54.01947856 -25.22980817 54.01947856 -28.2578125 52.3046875 C-28.27763184 53.34286621 -28.29745117 54.38104492 -28.31787109 55.45068359 C-28.39462478 59.34608991 -28.48322723 63.24115614 -28.57519531 67.13623047 C-28.61319964 68.81389596 -28.64809922 70.49163504 -28.6796875 72.16943359 C-29.1484478 96.76470069 -29.1484478 96.76470069 -34.2578125 103.3046875 C-37.2578125 105.3046875 -37.2578125 105.3046875 -40.6953125 105.2421875 C-45.00890304 104.10703209 -46.02376131 103.11084878 -48.2578125 99.3046875 C-56.23737841 78.13147108 -49.68642612 48.02888233 -42.015625 27.44921875 C-39.85701657 23.58770812 -37.85787682 21.84423089 -34.2578125 19.3046875 C-30.59141389 19.02265684 -28.68592544 20.62134502 -25.984375 22.87109375 C-22.04962278 26.31163084 -19.07084008 30.17075284 -16.0703125 34.4296875 C-15.51931885 35.20086914 -14.9683252 35.97205078 -14.40063477 36.76660156 C-9.13195754 44.26003163 -4.43179169 52.0693035 0.18359375 59.9765625 C3.28427341 65.2569746 3.28427341 65.2569746 6.7421875 70.3046875 C7.4021875 70.3046875 8.0621875 70.3046875 8.7421875 70.3046875 C8.9839642 63.20524431 8.12277134 56.80985887 6.6796875 49.8671875 C6.3544812 48.2574707 6.3544812 48.2574707 6.02270508 46.61523438 C4.08499145 37.32067472 1.65891657 28.17927402 -1.02172852 19.07250977 C-2.77811945 12.92879354 -3.69694781 7.70164371 -3.2578125 1.3046875 C-2.2578125 0.3046875 -2.2578125 0.3046875 0 0 Z " fill="#F9FAFB" transform="translate(661.2578125,347.6953125)"/>
<path d="M0 0 C2.62527189 -0.05382106 5.24944713 -0.09358313 7.875 -0.125 C8.62136719 -0.14175781 9.36773438 -0.15851563 10.13671875 -0.17578125 C12.09194461 -0.1933959 14.04742021 -0.10320189 16 0 C18.39594762 2.39594762 18.47332383 3.54842466 19.03515625 6.83984375 C19.20466797 7.82146484 19.37417969 8.80308594 19.54882812 9.81445312 C19.71833984 10.84505859 19.88785156 11.87566406 20.0625 12.9375 C20.23587891 13.93330078 20.40925781 14.92910156 20.58789062 15.95507812 C22.63422531 28.03707718 23.13801171 39.77829607 23 52 C23.64923935 51.99777939 24.2984787 51.99555878 24.96739197 51.99327087 C31.69887748 51.97121998 38.43035281 51.95609423 45.16186523 51.94506836 C47.67716895 51.94002637 50.19246972 51.93319297 52.70776367 51.92456055 C56.31429775 51.91248906 59.92079323 51.90677051 63.52734375 51.90234375 C65.22575661 51.89460182 65.22575661 51.89460182 66.95848083 51.88670349 C68.51998619 51.88659019 68.51998619 51.88659019 70.11303711 51.88647461 C71.03459091 51.884254 71.95614471 51.88203339 72.90562439 51.87974548 C75 52 75 52 76 53 C76.12653198 55.49238569 76.18519825 57.94470441 76.1875 60.4375 C76.19974609 61.13166016 76.21199219 61.82582031 76.22460938 62.54101562 C76.22989842 64.36220901 76.12169207 66.1828692 76 68 C74 70 74 70 71.86129761 70.24050903 C70.9774942 70.23606781 70.0936908 70.23162659 69.18310547 70.22705078 C68.18221893 70.22689972 67.1813324 70.22674866 66.15011597 70.22659302 C64.52506638 70.21110916 64.52506638 70.21110916 62.8671875 70.1953125 C61.76021515 70.1924826 60.6532428 70.18965271 59.51272583 70.18673706 C55.96670863 70.17551519 52.42094125 70.15040691 48.875 70.125 C46.47526406 70.1149728 44.07552417 70.1058465 41.67578125 70.09765625 C35.78376849 70.07556932 29.89190209 70.04207207 24 70 C24.00523682 70.99217529 24.01047363 71.98435059 24.01586914 73.0065918 C24.03421468 76.7508857 24.04553795 80.49517579 24.05493164 84.23950195 C24.05990528 85.84823275 24.06668657 87.45695916 24.07543945 89.06567383 C24.21988437 116.33177634 24.21988437 116.33177634 21.66479492 119.82592773 C18.90445744 121.77261537 16.17469981 121.31775564 12.875 121.25 C11.61429688 121.23453125 10.35359375 121.2190625 9.0546875 121.203125 C6 121 6 121 5 120 C4.17116654 103.42333074 5.44849913 86.5787615 6 70 C5.39056549 70.00444122 4.78113098 70.00888245 4.15322876 70.01345825 C-2.17288882 70.05760407 -8.49896285 70.08782987 -14.82519531 70.10986328 C-17.18816911 70.11993924 -19.55113039 70.13360029 -21.9140625 70.15087891 C-25.30471888 70.17505724 -28.69521084 70.18646699 -32.0859375 70.1953125 C-33.14743011 70.20563507 -34.20892273 70.21595764 -35.30258179 70.22659302 C-36.28344757 70.22674408 -37.26431335 70.22689514 -38.27490234 70.22705078 C-39.57396011 70.23371262 -39.57396011 70.23371262 -40.89926147 70.24050903 C-43 70 -43 70 -45 68 C-45.265625 64.8125 -45.265625 64.8125 -45.25 61 C-45.25515625 59.741875 -45.2603125 58.48375 -45.265625 57.1875 C-45 54 -45 54 -43 52 C-40.89926147 51.75949097 -40.89926147 51.75949097 -38.27490234 51.77294922 C-37.29403656 51.77310028 -36.31317078 51.77325134 -35.30258179 51.77340698 C-34.24108917 51.78372955 -33.17959656 51.79405212 -32.0859375 51.8046875 C-30.45877304 51.80893234 -30.45877304 51.80893234 -28.79873657 51.81326294 C-25.32404687 51.82448422 -21.84961218 51.84959238 -18.375 51.875 C-16.02344121 51.88502728 -13.6718784 51.89415357 -11.3203125 51.90234375 C-5.54678756 51.92442989 0.22658801 51.95792655 6 52 C5.47136044 47.50117729 4.93811531 43.00293117 4.40087891 38.50512695 C4.21932113 36.97988097 4.03895034 35.45449314 3.85986328 33.92895508 C2.63160537 23.3875919 2.63160537 23.3875919 0.8671875 12.92578125 C0.01034081 8.52654332 -0.16889161 4.47562757 0 0 Z " fill="#F9FAFB" transform="translate(927,335)"/>
<path d="M0 0 C0.82780472 -0.00409882 1.65560944 -0.00819763 2.50849915 -0.01242065 C5.18148976 -0.02195973 7.85433863 -0.0219537 10.52734375 -0.01953125 C11.43035217 -0.01992401 12.3333606 -0.02031677 13.26373291 -0.02072144 C47.12295443 -0.00297591 47.12295443 -0.00297591 53.46484375 3.16796875 C56.57753666 3.48229398 59.69101953 3.67886749 62.8125 3.88671875 C65.46484375 4.16796875 65.46484375 4.16796875 66.46484375 5.16796875 C68.33308266 5.51863189 70.21004517 5.82326574 72.08984375 6.10546875 C76.68105265 6.83268151 80.99763222 7.87935004 85.46484375 9.16796875 C87.45146042 9.38870394 89.43811191 9.60926653 91.42578125 9.8203125 C94.30672781 10.31150837 96.8490642 11.39245868 99.546875 12.48828125 C101.64188191 13.31122565 101.64188191 13.31122565 104.71484375 13.54296875 C109.38270492 14.32094561 113.27935056 16.08875316 117.6015625 17.97265625 C120.57541718 19.28325848 120.57541718 19.28325848 124.27734375 20.23046875 C127.4067023 21.15086832 129.87161257 22.48565268 132.65625 24.16015625 C138.45799961 27.39309664 145.17719956 29.11575155 151.46484375 31.16796875 C151.46484375 31.82796875 151.46484375 32.48796875 151.46484375 33.16796875 C154.44725922 33.94118757 157.4406485 34.57993078 160.46484375 35.16796875 C160.46484375 36.15796875 160.46484375 37.14796875 160.46484375 38.16796875 C161.55796875 38.45671875 162.65109375 38.74546875 163.77734375 39.04296875 C167.46484375 40.16796875 167.46484375 40.16796875 170.46484375 42.16796875 C170.46484375 42.82796875 170.46484375 43.48796875 170.46484375 44.16796875 C171.16609375 44.12671875 171.86734375 44.08546875 172.58984375 44.04296875 C175.84856003 44.18465207 178.42083845 45.03531561 181.46484375 46.16796875 C181.46484375 46.82796875 181.46484375 47.48796875 181.46484375 48.16796875 C182.12484375 48.49796875 182.78484375 48.82796875 183.46484375 49.16796875 C183.46484375 49.82796875 183.46484375 50.48796875 183.46484375 51.16796875 C186.59982667 53.0257364 188.83955807 53.36937351 192.46484375 53.16796875 C193.67112383 55.50011023 194.63031755 57.66439014 195.46484375 60.16796875 C196.78484375 60.16796875 198.10484375 60.16796875 199.46484375 60.16796875 C201.15301308 61.81285169 202.8183769 63.48134417 204.46484375 65.16796875 C207.1301741 66.48698675 207.1301741 66.48698675 209.46484375 67.16796875 C209.46484375 67.82796875 209.46484375 68.48796875 209.46484375 69.16796875 C210.12484375 69.49796875 210.78484375 69.82796875 211.46484375 70.16796875 C213.13151042 71.83463542 214.79817708 73.50130208 216.46484375 75.16796875 C217.12484375 75.49796875 217.78484375 75.82796875 218.46484375 76.16796875 C218.46484375 76.82796875 218.46484375 77.48796875 218.46484375 78.16796875 C219.30015625 78.26078125 219.30015625 78.26078125 220.15234375 78.35546875 C223.45427241 79.51560585 225.09392366 81.6235667 227.46484375 84.16796875 C230.10045643 86.93874106 232.43261434 89.14711443 235.65234375 91.23046875 C238.59822007 93.25985022 238.98090569 94.1073465 240.46484375 97.16796875 C241.94134351 98.41978376 243.42084336 99.66928064 244.94140625 100.8671875 C247.10329268 102.71310591 248.72498155 104.93100307 250.46484375 107.16796875 C251.12484375 107.49796875 251.78484375 107.82796875 252.46484375 108.16796875 C252.46484375 109.48796875 252.46484375 110.80796875 252.46484375 112.16796875 C253.45484375 112.49796875 254.44484375 112.82796875 255.46484375 113.16796875 C255.46484375 113.82796875 255.46484375 114.48796875 255.46484375 115.16796875 C256.12484375 115.16796875 256.78484375 115.16796875 257.46484375 115.16796875 C258.12484375 115.82796875 258.78484375 116.48796875 259.46484375 117.16796875 C260.12484375 116.50796875 260.78484375 115.84796875 261.46484375 115.16796875 C262.12484375 116.81796875 262.78484375 118.46796875 263.46484375 120.16796875 C262.80484375 120.16796875 262.14484375 120.16796875 261.46484375 120.16796875 C261.91859375 120.62171875 262.37234375 121.07546875 262.83984375 121.54296875 C264.04817708 122.75130208 265.25651042 123.95963542 266.46484375 125.16796875 C266.46484375 126.48796875 266.46484375 127.80796875 266.46484375 129.16796875 C267.78484375 129.16796875 269.10484375 129.16796875 270.46484375 129.16796875 C270.46484375 131.14796875 270.46484375 133.12796875 270.46484375 135.16796875 C273.47577995 133.16067795 274.09500872 132.32912651 275.46484375 129.16796875 C276.12484375 129.16796875 276.78484375 129.16796875 277.46484375 129.16796875 C277.79484375 129.82796875 278.12484375 130.48796875 278.46484375 131.16796875 C279.45484375 130.17796875 280.44484375 129.18796875 281.46484375 128.16796875 C280.68354304 125.67244391 280.68354304 125.67244391 279.46484375 123.16796875 C278.47484375 122.83796875 277.48484375 122.50796875 276.46484375 122.16796875 C276.46484375 121.50796875 276.46484375 120.84796875 276.46484375 120.16796875 C275.80484375 119.50796875 275.14484375 118.84796875 274.46484375 118.16796875 C273.80484375 117.17796875 273.14484375 116.18796875 272.46484375 115.16796875 C270.4148042 113.97564262 270.4148042 113.97564262 268.46484375 113.16796875 C268.79484375 111.84796875 269.12484375 110.52796875 269.46484375 109.16796875 C268.80484375 109.16796875 268.14484375 109.16796875 267.46484375 109.16796875 C262.46484375 103.12630208 262.46484375 103.12630208 262.46484375 100.16796875 C261.14484375 99.50796875 259.82484375 98.84796875 258.46484375 98.16796875 C258.46484375 97.50796875 258.46484375 96.84796875 258.46484375 96.16796875 C257.47484375 95.83796875 256.48484375 95.50796875 255.46484375 95.16796875 C254.09410589 93.53192679 252.76429119 91.86118814 251.46484375 90.16796875 C250.80484375 89.50796875 250.14484375 88.84796875 249.46484375 88.16796875 C247.46484375 86.16796875 247.46484375 86.16796875 245.40234375 83.48046875 C243.60337471 80.9229805 243.60337471 80.9229805 240.46484375 80.16796875 C239.11097439 78.51794047 237.77806233 76.85053005 236.46484375 75.16796875 C235.47484375 74.50796875 234.48484375 73.84796875 233.46484375 73.16796875 C233.46484375 72.50796875 233.46484375 71.84796875 233.46484375 71.16796875 C232.62953125 70.79671875 232.62953125 70.79671875 231.77734375 70.41796875 C229.04073462 68.93872057 226.78833506 67.23329436 224.46484375 65.16796875 C224.46484375 64.50796875 224.46484375 63.84796875 224.46484375 63.16796875 C222.97984375 63.66296875 222.97984375 63.66296875 221.46484375 64.16796875 C221.37203125 63.23984375 221.37203125 63.23984375 221.27734375 62.29296875 C220.63592475 59.89035734 220.63592475 59.89035734 217.90234375 58.91796875 C217.09796875 58.67046875 216.29359375 58.42296875 215.46484375 58.16796875 C215.46484375 57.50796875 215.46484375 56.84796875 215.46484375 56.16796875 C214.72234375 55.89984375 213.97984375 55.63171875 213.21484375 55.35546875 C209.82873869 53.89328702 207.14688277 52.53204679 205.46484375 49.16796875 C204.14484375 49.16796875 202.82484375 49.16796875 201.46484375 49.16796875 C201.27921875 48.59046875 201.09359375 48.01296875 200.90234375 47.41796875 C197.53193126 42.1425405 190.17034939 40.06980396 184.46484375 38.16796875 C184.13484375 37.17796875 183.80484375 36.18796875 183.46484375 35.16796875 C180.25200037 33.28216938 178.21850792 32.16796875 174.46484375 32.16796875 C174.46484375 31.50796875 174.46484375 30.84796875 174.46484375 30.16796875 C173.10359375 29.51828125 173.10359375 29.51828125 171.71484375 28.85546875 C169.03265926 27.46279604 166.8034477 26.05684118 164.46484375 24.16796875 C164.13484375 24.82796875 163.80484375 25.48796875 163.46484375 26.16796875 C163.46484375 25.50796875 163.46484375 24.84796875 163.46484375 24.16796875 C162.80484375 23.83796875 162.14484375 23.50796875 161.46484375 23.16796875 C160.37171875 22.50796875 159.27859375 21.84796875 158.15234375 21.16796875 C155.2517365 19.50102226 152.80876153 18.61984953 149.46484375 18.16796875 C148.74296875 17.96171875 148.02109375 17.75546875 147.27734375 17.54296875 C145.37580882 16.95450516 145.37580882 16.95450516 143.46484375 18.16796875 C143.46484375 17.17796875 143.46484375 16.18796875 143.46484375 15.16796875 C141.48484375 14.67296875 141.48484375 14.67296875 139.46484375 14.16796875 C139.46484375 13.50796875 139.46484375 12.84796875 139.46484375 12.16796875 C138.14484375 12.16796875 136.82484375 12.16796875 135.46484375 12.16796875 C135.46484375 11.50796875 135.46484375 10.84796875 135.46484375 10.16796875 C134.74296875 10.20921875 134.02109375 10.25046875 133.27734375 10.29296875 C130.25755006 10.1587557 128.19548646 9.41626256 125.46484375 8.16796875 C125.79484375 7.50796875 126.12484375 6.84796875 126.46484375 6.16796875 C151.79712298 9.6284202 179.77609471 28.70839347 200.46484375 43.16796875 C201.53476562 43.90144531 202.6046875 44.63492188 203.70703125 45.390625 C219.44742224 56.2963223 233.72202718 68.8663341 247.46484375 82.16796875 C248.03106445 82.71227539 248.59728516 83.25658203 249.18066406 83.81738281 C255.28027237 89.69849768 260.9809782 95.75247862 266.2578125 102.3984375 C268.58026895 105.31281205 270.98619001 108.14346086 273.40234375 110.98046875 C291.45635514 132.67866426 305.98041554 157.62529017 317.71484375 183.23046875 C318.09793701 184.05732178 318.48103027 184.8841748 318.87573242 185.73608398 C322.16682227 193.13159227 322.16682227 193.13159227 321.46484375 197.16796875 C318.60547519 200.02733731 316.50893163 199.50187909 312.52734375 199.54296875 C311.28082031 199.57132813 310.03429687 199.5996875 308.75 199.62890625 C305.46484375 199.16796875 305.46484375 199.16796875 303.734375 197.6328125 C302.00661053 194.27829133 300.53898324 190.83584161 299.08984375 187.35546875 C285.76843681 156.51393062 265.27058531 125.05330992 240.9375 101.640625 C239.46484375 100.16796875 239.46484375 100.16796875 237.02734375 97.16796875 C234.46704781 94.17054911 231.79580154 91.73940966 228.80078125 89.1953125 C226.13714412 86.88356054 223.59220899 84.46377992 221.02734375 82.04296875 C213.62809362 75.17189429 205.59362144 69.1426798 197.46484375 63.16796875 C196.9018457 62.75305176 196.33884766 62.33813477 195.75878906 61.91064453 C188.93463324 56.92539674 181.81892045 52.47222276 174.58984375 48.10546875 C173.42328247 47.39958618 173.42328247 47.39958618 172.2331543 46.67944336 C159.61317445 39.15860182 146.86041074 32.82096349 133.21484375 27.41796875 C131.83434121 26.86271007 130.45413206 26.3067214 129.07421875 25.75 C117.2804198 21.00767324 105.60965712 16.7467101 93.27734375 13.60546875 C91.50919312 13.14986572 91.50919312 13.14986572 89.70532227 12.68505859 C81.91481338 10.70765277 74.13715965 9.00101204 66.2109375 7.67578125 C63.46484375 7.16796875 63.46484375 7.16796875 61.46484375 6.16796875 C35.7929433 1.70779453 -11.52384135 -4.8376887 -35.53515625 7.16796875 C-36.98168045 7.31864089 -38.43394965 7.41657911 -39.88671875 7.484375 C-40.7375 7.52626953 -41.58828125 7.56816406 -42.46484375 7.61132812 C-43.35429688 7.65064453 -44.24375 7.68996094 -45.16015625 7.73046875 C-46.5059375 7.79524414 -46.5059375 7.79524414 -47.87890625 7.86132812 C-50.09749908 7.96753736 -52.31620505 8.06958069 -54.53515625 8.16796875 C-51.70624936 6.60730304 -49.31661181 5.82144591 -46.12109375 5.38671875 C-44.86268677 5.20846558 -44.86268677 5.20846558 -43.57885742 5.02661133 C-42.69818604 4.90825928 -41.81751465 4.78990723 -40.91015625 4.66796875 C-32.78160718 3.52810219 -32.78160718 3.52810219 -24.72265625 1.98046875 C-20.94276445 1.16859058 -17.40847315 1.09202136 -13.53515625 1.16796875 C-12.82045166 1.00772217 -12.10574707 0.84747559 -11.36938477 0.68237305 C-7.57997909 -0.00539315 -3.83772307 0.005853 0 0 Z " fill="#B7F2F8" transform="translate(616.53515625,116.83203125)"/>
<path d="M0 0 C0 17.16 0 34.32 0 52 C-6.70661414 49.98801576 -12.24880044 48.19983434 -18.25 44.9375 C-18.97525879 44.5468335 -19.70051758 44.15616699 -20.44775391 43.75366211 C-32.30787713 37.21645352 -46.37097289 28.44354066 -54 17 C-54.5 14.0625 -54.5 14.0625 -54 11 C-45.64781249 4.48603396 -34.77911736 2.96989586 -24.5625 1.25 C-23.83716064 1.12230225 -23.11182129 0.99460449 -22.36450195 0.86303711 C-14.73849436 -0.3220463 -7.98914527 0 0 0 Z " fill="#050F40" transform="translate(311,388)"/>
<path d="M0 0 C3.25 0.125 3.25 0.125 7 1 C11.31187233 5.90524926 11.94401373 10.77571849 12.6875 17.125 C12.86249023 18.43597656 12.86249023 18.43597656 13.04101562 19.7734375 C13.3954384 22.51270502 13.70454358 25.25377979 14 28 C14.09643799 28.8350708 14.19287598 29.6701416 14.29223633 30.53051758 C15.28767574 40.41747 15.25712383 50.35647683 15.29516602 60.28393555 C15.30679126 62.39891188 15.32740479 64.51385658 15.35668945 66.62866211 C15.39921399 69.709672 15.41550044 72.78982758 15.42578125 75.87109375 C15.44328934 76.81383652 15.46079742 77.75657928 15.47883606 78.72789001 C15.46467655 82.99594746 15.38034777 85.36876228 13.13720703 89.09155273 C9.75344136 92.11313102 6.98549444 91.69899571 2.6328125 91.47265625 C0 91 0 91 -3.0625 89.0625 C-7.34318593 82.2962545 -7.30857367 74.41590904 -7.30078125 66.61328125 C-7.30506638 65.63497849 -7.3093515 64.65667572 -7.31376648 63.64872742 C-7.31948294 61.58215096 -7.32002996 59.51555439 -7.31567383 57.44897461 C-7.31255414 54.36599994 -7.33586634 51.28402543 -7.36132812 48.20117188 C-7.39539608 38.04861568 -7.02141309 28.05762454 -5.73046875 17.98046875 C-5.62237381 17.09216873 -5.51427887 16.20386871 -5.40290833 15.28865051 C-4.56801502 9.48875745 -2.86557364 5.11395249 0 0 Z " fill="#F8F9FA" transform="translate(492,364)"/>
<path d="M0 0 C3.0625 2.0625 3.0625 2.0625 5 5 C5.11196412 11.15802646 2.72224967 15.16190992 -1.46875 19.53125 C-13.42777162 30.58770395 -27.45946221 32.52058873 -43 32 C-41.57010429 27.53055457 -39.11127542 24.53588443 -35.9375 21.1875 C-35.44580322 20.66269043 -34.95410645 20.13788086 -34.44750977 19.59716797 C-13.6835412 -2.31158851 -13.6835412 -2.31158851 0 0 Z " fill="#081241" transform="translate(536,299)"/>
<path d="M0 0 C0.82780472 -0.00409882 1.65560944 -0.00819763 2.50849915 -0.01242065 C5.18148976 -0.02195973 7.85433863 -0.0219537 10.52734375 -0.01953125 C11.43035217 -0.01992401 12.3333606 -0.02031677 13.26373291 -0.02072144 C47.12295443 -0.00297591 47.12295443 -0.00297591 53.46484375 3.16796875 C56.57753666 3.48229398 59.69101953 3.67886749 62.8125 3.88671875 C65.46484375 4.16796875 65.46484375 4.16796875 66.46484375 5.16796875 C68.33308266 5.51863189 70.21004517 5.82326574 72.08984375 6.10546875 C76.68105265 6.83268151 80.99763222 7.87935004 85.46484375 9.16796875 C87.45146042 9.38870394 89.43811191 9.60926653 91.42578125 9.8203125 C94.30672781 10.31150837 96.8490642 11.39245868 99.546875 12.48828125 C101.64188191 13.31122565 101.64188191 13.31122565 104.71484375 13.54296875 C109.38270492 14.32094561 113.27935056 16.08875316 117.6015625 17.97265625 C120.57541718 19.28325848 120.57541718 19.28325848 124.27734375 20.23046875 C127.4067023 21.15086832 129.87161257 22.48565268 132.65625 24.16015625 C138.45799961 27.39309664 145.17719956 29.11575155 151.46484375 31.16796875 C151.46484375 31.82796875 151.46484375 32.48796875 151.46484375 33.16796875 C154.44725922 33.94118757 157.4406485 34.57993078 160.46484375 35.16796875 C160.46484375 36.15796875 160.46484375 37.14796875 160.46484375 38.16796875 C161.55796875 38.45671875 162.65109375 38.74546875 163.77734375 39.04296875 C167.46484375 40.16796875 167.46484375 40.16796875 170.46484375 42.16796875 C170.46484375 42.82796875 170.46484375 43.48796875 170.46484375 44.16796875 C171.16609375 44.12671875 171.86734375 44.08546875 172.58984375 44.04296875 C175.84856003 44.18465207 178.42083845 45.03531561 181.46484375 46.16796875 C181.46484375 46.82796875 181.46484375 47.48796875 181.46484375 48.16796875 C182.12484375 48.49796875 182.78484375 48.82796875 183.46484375 49.16796875 C183.46484375 49.82796875 183.46484375 50.48796875 183.46484375 51.16796875 C186.59982667 53.0257364 188.83955807 53.36937351 192.46484375 53.16796875 C193.67112383 55.50011023 194.63031755 57.66439014 195.46484375 60.16796875 C196.78484375 60.16796875 198.10484375 60.16796875 199.46484375 60.16796875 C201.15301308 61.81285169 202.8183769 63.48134417 204.46484375 65.16796875 C207.1301741 66.48698675 207.1301741 66.48698675 209.46484375 67.16796875 C209.46484375 67.82796875 209.46484375 68.48796875 209.46484375 69.16796875 C210.12484375 69.49796875 210.78484375 69.82796875 211.46484375 70.16796875 C213.13151042 71.83463542 214.79817708 73.50130208 216.46484375 75.16796875 C217.12484375 75.49796875 217.78484375 75.82796875 218.46484375 76.16796875 C218.46484375 76.82796875 218.46484375 77.48796875 218.46484375 78.16796875 C219.30015625 78.26078125 219.30015625 78.26078125 220.15234375 78.35546875 C223.45427241 79.51560585 225.09392366 81.6235667 227.46484375 84.16796875 C230.10045643 86.93874106 232.43261434 89.14711443 235.65234375 91.23046875 C238.59822007 93.25985022 238.98090569 94.1073465 240.46484375 97.16796875 C241.94134351 98.41978376 243.42084336 99.66928064 244.94140625 100.8671875 C247.10329268 102.71310591 248.72498155 104.93100307 250.46484375 107.16796875 C251.12484375 107.49796875 251.78484375 107.82796875 252.46484375 108.16796875 C252.46484375 109.48796875 252.46484375 110.80796875 252.46484375 112.16796875 C253.45484375 112.49796875 254.44484375 112.82796875 255.46484375 113.16796875 C255.46484375 113.82796875 255.46484375 114.48796875 255.46484375 115.16796875 C256.12484375 115.16796875 256.78484375 115.16796875 257.46484375 115.16796875 C258.12484375 115.82796875 258.78484375 116.48796875 259.46484375 117.16796875 C260.12484375 116.50796875 260.78484375 115.84796875 261.46484375 115.16796875 C262.12484375 116.81796875 262.78484375 118.46796875 263.46484375 120.16796875 C262.80484375 120.16796875 262.14484375 120.16796875 261.46484375 120.16796875 C261.91859375 120.62171875 262.37234375 121.07546875 262.83984375 121.54296875 C264.04817708 122.75130208 265.25651042 123.95963542 266.46484375 125.16796875 C266.46484375 126.48796875 266.46484375 127.80796875 266.46484375 129.16796875 C267.78484375 129.16796875 269.10484375 129.16796875 270.46484375 129.16796875 C270.46484375 131.14796875 270.46484375 133.12796875 270.46484375 135.16796875 C273.47577995 133.16067795 274.09500872 132.32912651 275.46484375 129.16796875 C276.12484375 129.16796875 276.78484375 129.16796875 277.46484375 129.16796875 C277.79484375 130.15796875 278.12484375 131.14796875 278.46484375 132.16796875 C277.51391078 133.86311012 276.51376613 135.53164983 275.46484375 137.16796875 C275.46484375 137.82796875 275.46484375 138.48796875 275.46484375 139.16796875 C275.13484375 140.15796875 274.80484375 141.14796875 274.46484375 142.16796875 C271.58424142 138.61406901 268.80695732 134.99234806 266.04931641 131.34326172 C258.21635158 120.9976174 250.30898102 110.6576292 240.9375 101.640625 C239.46484375 100.16796875 239.46484375 100.16796875 237.02734375 97.16796875 C234.46704781 94.17054911 231.79580154 91.73940966 228.80078125 89.1953125 C226.13714412 86.88356054 223.59220899 84.46377992 221.02734375 82.04296875 C213.62809362 75.17189429 205.59362144 69.1426798 197.46484375 63.16796875 C196.9018457 62.75305176 196.33884766 62.33813477 195.75878906 61.91064453 C188.93463324 56.92539674 181.81892045 52.47222276 174.58984375 48.10546875 C173.42328247 47.39958618 173.42328247 47.39958618 172.2331543 46.67944336 C159.61317445 39.15860182 146.86041074 32.82096349 133.21484375 27.41796875 C131.83434121 26.86271007 130.45413206 26.3067214 129.07421875 25.75 C117.2804198 21.00767324 105.60965712 16.7467101 93.27734375 13.60546875 C91.50919312 13.14986572 91.50919312 13.14986572 89.70532227 12.68505859 C81.91481338 10.70765277 74.13715965 9.00101204 66.2109375 7.67578125 C63.46484375 7.16796875 63.46484375 7.16796875 61.46484375 6.16796875 C35.7929433 1.70779453 -11.52384135 -4.8376887 -35.53515625 7.16796875 C-36.98168045 7.31864089 -38.43394965 7.41657911 -39.88671875 7.484375 C-40.7375 7.52626953 -41.58828125 7.56816406 -42.46484375 7.61132812 C-43.35429688 7.65064453 -44.24375 7.68996094 -45.16015625 7.73046875 C-46.5059375 7.79524414 -46.5059375 7.79524414 -47.87890625 7.86132812 C-50.09749908 7.96753736 -52.31620505 8.06958069 -54.53515625 8.16796875 C-51.70624936 6.60730304 -49.31661181 5.82144591 -46.12109375 5.38671875 C-44.86268677 5.20846558 -44.86268677 5.20846558 -43.57885742 5.02661133 C-42.69818604 4.90825928 -41.81751465 4.78990723 -40.91015625 4.66796875 C-32.78160718 3.52810219 -32.78160718 3.52810219 -24.72265625 1.98046875 C-20.94276445 1.16859058 -17.40847315 1.09202136 -13.53515625 1.16796875 C-12.82045166 1.00772217 -12.10574707 0.84747559 -11.36938477 0.68237305 C-7.57997909 -0.00539315 -3.83772307 0.005853 0 0 Z " fill="#16D2E6" transform="translate(616.53515625,116.83203125)"/>
<path d="M0 0 C46.85763046 2.27988471 46.85763046 2.27988471 58 11 C58.875 13.75 58.875 13.75 59 16 C47.41014226 27.32645188 32.41503351 29.35521239 16.8125 29.375 C15.27045898 29.41173828 15.27045898 29.41173828 13.69726562 29.44921875 C6.98641082 29.47498019 2.72363949 28.55169325 -3 25 C-3.66 24.34 -4.32 23.68 -5 23 C-4.8125 20.5 -4.8125 20.5 -4 18 C0.36725086 15.08849942 3.86624141 15.21422062 9 16 C11.46272073 16.94550885 13.84600002 17.92695139 16.25 19 C24.39061225 22.56551797 32.09770057 23.60750383 40.83984375 21.2265625 C43.15492107 20.31223496 45.05991021 19.55977443 47 18 C47.77751753 15.93609161 47.77751753 15.93609161 48 14 C36.65328735 7.79142138 25.18914723 5.8219027 12.375 5.875 C11.43398438 5.87113281 10.49296875 5.86726563 9.5234375 5.86328125 C8.1621875 5.86521484 8.1621875 5.86521484 6.7734375 5.8671875 C5.54246338 5.86887939 5.54246338 5.86887939 4.28662109 5.87060547 C1.99890003 5.91105916 1.99890003 5.91105916 -0.11083984 6.63330078 C-2 7 -2 7 -5 5 C-5 3.68 -5 2.36 -5 1 C-2.525 1.495 -2.525 1.495 0 2 C0 1.34 0 0.68 0 0 Z " fill="#171D47" transform="translate(530,404)"/>
<path d="M0 0 C1.875 0.75 1.875 0.75 2.875 2.75 C3.70491904 13.2069799 0.52449529 21.68703948 -6.21875 29.6875 C-14.22165003 38.34637544 -23.09812332 44.0692334 -35.125 44.75 C-31.55616649 35.08588153 -11.49570966 -1.35243643 0 0 Z " fill="#071140" transform="translate(845.125,385.25)"/>
<path d="M0 0 C25.33227923 3.46045145 53.31125096 22.54042472 74 37 C75.06992187 37.73347656 76.13984375 38.46695313 77.2421875 39.22265625 C92.98257849 50.12835355 107.25718343 62.69836535 121 76 C121.5662207 76.54430664 122.13244141 77.08861328 122.71582031 77.64941406 C128.81542862 83.53052893 134.51613445 89.58450987 139.79296875 96.23046875 C142.1154252 99.1448433 144.52134626 101.97549211 146.9375 104.8125 C155.89744274 115.56165731 163.55606569 127.16881939 171 139 C169.02 139.99 169.02 139.99 167 141 C166.34 140.34 165.68 139.68 165 139 C165.33 138.01 165.66 137.02 166 136 C165.360625 135.608125 164.72125 135.21625 164.0625 134.8125 C162 133 162 133 161.5625 130.625 C160.77578153 126.95364714 158.73751043 125.47043624 156 123 C154 121 154 121 153 118.9375 C152.15410058 116.83134399 152.15410058 116.83134399 150 116 C150 115.34 150 114.68 150 114 C149.34 113.34 148.68 112.68 148 112 C147.34 111.01 146.68 110.02 146 109 C143.94996045 107.80767387 143.94996045 107.80767387 142 107 C142.33 105.68 142.66 104.36 143 103 C142.34 103 141.68 103 141 103 C136 96.95833333 136 96.95833333 136 94 C134.68 93.34 133.36 92.68 132 92 C132 91.34 132 90.68 132 90 C131.01 89.67 130.02 89.34 129 89 C127.62926214 87.36395804 126.29944744 85.69321939 125 84 C124.34 83.34 123.68 82.68 123 82 C121 80 121 80 118.9375 77.3125 C117.13853096 74.75501175 117.13853096 74.75501175 114 74 C112.64613064 72.34997172 111.31321858 70.6825613 110 69 C108.515 68.01 108.515 68.01 107 67 C107 66.34 107 65.68 107 65 C106.443125 64.7525 105.88625 64.505 105.3125 64.25 C102.57589087 62.77075182 100.32349131 61.06532561 98 59 C98 58.34 98 57.68 98 57 C96.515 57.495 96.515 57.495 95 58 C94.938125 57.38125 94.87625 56.7625 94.8125 56.125 C94.171081 53.72238859 94.171081 53.72238859 91.4375 52.75 C90.633125 52.5025 89.82875 52.255 89 52 C89 51.34 89 50.68 89 50 C88.2575 49.731875 87.515 49.46375 86.75 49.1875 C83.36389494 47.72531827 80.68203902 46.36407804 79 43 C77.68 43 76.36 43 75 43 C74.814375 42.4225 74.62875 41.845 74.4375 41.25 C71.06708751 35.97457175 63.70550564 33.90183521 58 32 C57.505 30.515 57.505 30.515 57 29 C53.78715662 27.11420063 51.75366417 26 48 26 C48 25.34 48 24.68 48 24 C46.63875 23.3503125 46.63875 23.3503125 45.25 22.6875 C42.56781551 21.29482729 40.33860395 19.88887243 38 18 C37.67 18.66 37.34 19.32 37 20 C37 19.34 37 18.68 37 18 C36.34 17.67 35.68 17.34 35 17 C33.906875 16.34 32.81375 15.68 31.6875 15 C28.78689275 13.33305351 26.34391778 12.45188078 23 12 C22.278125 11.79375 21.55625 11.5875 20.8125 11.375 C18.91096507 10.78653641 18.91096507 10.78653641 17 12 C17 11.01 17 10.02 17 9 C15.68 8.67 14.36 8.34 13 8 C13 7.34 13 6.68 13 6 C11.68 6 10.36 6 9 6 C9 5.34 9 4.68 9 4 C7.9171875 4.061875 7.9171875 4.061875 6.8125 4.125 C3.79270631 3.99078695 1.73064271 3.24829381 -1 2 C-0.67 1.34 -0.34 0.68 0 0 Z " fill="#15D5EA" transform="translate(743,123)"/>
<path d="M0 0 C1.8538539 0.24457006 3.70801475 0.48682669 5.5625 0.7265625 C15.91370027 2.11239722 25.94845527 4.17847053 36 7 C36.69722168 7.19352051 37.39444336 7.38704102 38.11279297 7.58642578 C47.89797716 10.32133289 57.47841852 13.45392766 67 17 C66.01 17.99 65.02 18.98 64 20 C63.67 19.34 63.34 18.68 63 18 C62.34 18 61.68 18 61 18 C61 17.34 61 16.68 61 16 C60.01 16.33 59.02 16.66 58 17 C57.01 16.34 56.02 15.68 55 15 C50.39110912 13.49203859 45.68724246 12.30269246 41 11.0625 C40.32748199 10.88258514 39.65496399 10.70267029 38.96206665 10.51730347 C29.1154265 7.89344316 19.31210501 5.78561032 9.19921875 4.47265625 C6 4 6 4 5 3 C-3.22491219 1.39513908 -11.51710814 0.72989261 -19.87304688 0.34179688 C-23.27368323 0.18080056 -26.60949067 -0.06756294 -29.984375 -0.51953125 C-36.37842587 -1.26468966 -42.8131941 -1.14915097 -49.2409668 -1.13037109 C-51.45693618 -1.12495247 -53.67270818 -1.13037418 -55.88867188 -1.13671875 C-57.29947961 -1.13605894 -58.71028723 -1.13477979 -60.12109375 -1.1328125 C-61.3939624 -1.13168457 -62.66683105 -1.13055664 -63.97827148 -1.12939453 C-66.92147129 -1.20948878 -66.92147129 -1.20948878 -69 0 C-70.51110226 0.12834712 -72.02706348 0.20211369 -73.54296875 0.24609375 C-74.90711914 0.29540039 -74.90711914 0.29540039 -76.29882812 0.34570312 C-78.20497665 0.40627715 -80.11123036 0.4636373 -82.01757812 0.51757812 C-87.378992 0.71754641 -91.89744753 1.36533014 -97 3 C-99 3 -101 3 -103 3 C-105.34119555 3.63850788 -107.67451993 4.30643577 -110 5 C-112.331248 5.34761805 -114.66487693 5.67944456 -117 6 C-125.54392636 7.40711583 -133.74469898 9.392682 -142 12 C-142.78858398 12.24903076 -143.57716797 12.49806152 -144.38964844 12.75463867 C-149.05405844 14.26764799 -153.51003142 16.03217426 -158 18 C-162.14005136 19.35622372 -165.63649456 20.26445487 -170 20 C-167.1440473 17.63645294 -164.76157944 16.44558322 -161.1875 15.5 C-158.15649514 14.65167211 -155.46050059 13.76458207 -152.5625 12.5 C-143.32191689 8.60922817 -133.18781807 6.80238844 -123.43530273 4.56567383 C-121.63823391 4.14824942 -119.8438413 3.71926372 -118.05102539 3.28393555 C-79.90776344 -5.84424313 -38.66515778 -5.68060024 0 0 Z " fill="#093FA3" transform="translate(676,105)"/>
<path d="M0 0 C3.85708667 1.2591615 7.59815598 2.79763325 11.31469727 4.42163086 C16.62136064 6.69074728 21.23335484 7.59422021 27 8 C26.67 9.32 26.34 10.64 26 12 C20.07016871 13.26188451 14.16014348 13.25736775 8.125 13.3125 C6.54912109 13.35600586 6.54912109 13.35600586 4.94140625 13.40039062 C-1.87473377 13.45584108 -6.19464947 12.63002777 -12 9 C-12.66 8.34 -13.32 7.68 -14 7 C-13.8125 4.5 -13.8125 4.5 -13 2 C-8.56635994 -0.95576004 -5.21527105 -0.84437722 0 0 Z " fill="#07103F" transform="translate(539,420)"/>
<path d="M0 0 C0.82780472 -0.00409882 1.65560944 -0.00819763 2.50849915 -0.01242065 C5.18148976 -0.02195973 7.85433863 -0.0219537 10.52734375 -0.01953125 C11.43035217 -0.01992401 12.3333606 -0.02031677 13.26373291 -0.02072144 C47.12295443 -0.00297591 47.12295443 -0.00297591 53.46484375 3.16796875 C56.57753666 3.48229398 59.69101953 3.67886749 62.8125 3.88671875 C65.46484375 4.16796875 65.46484375 4.16796875 66.46484375 5.16796875 C68.33308266 5.51863189 70.21004517 5.82326574 72.08984375 6.10546875 C78.83495792 7.18436734 84.99792917 8.95975402 91.46484375 11.16796875 C87.41416682 12.79862587 83.85278061 11.47017343 79.83984375 10.35546875 C50.59028127 2.45865705 -6.95231585 -7.12345145 -35.53515625 7.16796875 C-36.98168045 7.31864089 -38.43394965 7.41657911 -39.88671875 7.484375 C-40.7375 7.52626953 -41.58828125 7.56816406 -42.46484375 7.61132812 C-43.35429688 7.65064453 -44.24375 7.68996094 -45.16015625 7.73046875 C-46.5059375 7.79524414 -46.5059375 7.79524414 -47.87890625 7.86132812 C-50.09749908 7.96753736 -52.31620505 8.06958069 -54.53515625 8.16796875 C-51.70624936 6.60730304 -49.31661181 5.82144591 -46.12109375 5.38671875 C-44.86268677 5.20846558 -44.86268677 5.20846558 -43.57885742 5.02661133 C-42.69818604 4.90825928 -41.81751465 4.78990723 -40.91015625 4.66796875 C-32.78160718 3.52810219 -32.78160718 3.52810219 -24.72265625 1.98046875 C-20.94276445 1.16859058 -17.40847315 1.09202136 -13.53515625 1.16796875 C-12.82045166 1.00772217 -12.10574707 0.84747559 -11.36938477 0.68237305 C-7.57997909 -0.00539315 -3.83772307 0.005853 0 0 Z " fill="#0C66D8" transform="translate(616.53515625,116.83203125)"/>
<path d="M0 0 C0.33 0.66 0.66 1.32 1 2 C1.66 2.33 2.32 2.66 3 3 C2.01 3.66 1.02 4.32 0 5 C0 6.32 0 7.64 0 9 C-1.5 10.75 -1.5 10.75 -3 12 C-0.36 11.34 2.28 10.68 5 10 C5.33 11.32 5.66 12.64 6 14 C4.15625 16.6640625 4.15625 16.6640625 1.5 19.625 C0.5711838 20.68615327 -0.35456716 21.74999678 -1.27734375 22.81640625 C-1.73866699 23.34766113 -2.19999023 23.87891602 -2.67529297 24.42626953 C-6.36881092 28.81410896 -10.17640649 33.52921947 -12 39 C-12.66 39 -13.32 39 -14 39 C-15.1484019 24.35787579 -7.16041047 12.11746034 0 0 Z " fill="#0D1542" transform="translate(801,379)"/>
<path d="M0 0 C8.79833043 7.26818601 16.604187 15.24017632 23.72265625 24.16015625 C26.07429638 27.09264745 28.50100812 29.95028722 30.9375 32.8125 C39.89744274 43.56165731 47.55606569 55.16881939 55 67 C53.02 67.99 53.02 67.99 51 69 C50.01 68.01 50.01 68.01 49 67 C49.495 65.515 49.495 65.515 50 64 C49.360625 63.608125 48.72125 63.21625 48.0625 62.8125 C46 61 46 61 45.5625 58.625 C44.77578153 54.95364714 42.73751043 53.47043624 40 51 C38 49 38 49 37 46.9375 C36.15410058 44.83134399 36.15410058 44.83134399 34 44 C34 43.34 34 42.68 34 42 C33.34 41.34 32.68 40.68 32 40 C31.34 39.01 30.68 38.02 30 37 C27.94996045 35.80767387 27.94996045 35.80767387 26 35 C26.33 33.68 26.66 32.36 27 31 C26.34 31 25.68 31 25 31 C20 24.95833333 20 24.95833333 20 22 C18.68 21.34 17.36 20.68 16 20 C16 19.34 16 18.68 16 18 C15.01 17.67 14.02 17.34 13 17 C11.62926214 15.36395804 10.29944744 13.69321939 9 12 C8.360625 11.360625 7.72125 10.72125 7.0625 10.0625 C4.49797598 7.49797598 2.2368386 4.85818265 0 2 C0 1.34 0 0.68 0 0 Z " fill="#1DD5E8" transform="translate(859,195)"/>
<path d="M0 0 C20.25358344 -0.38674586 39.88497406 0.28977823 60 3 C60.95390625 3.1227832 61.9078125 3.24556641 62.890625 3.37207031 C74.15058649 4.83184389 85.06897291 6.9315945 96 10 C96.69722168 10.19352051 97.39444336 10.38704102 98.11279297 10.58642578 C107.89797716 13.32133289 117.47841852 16.45392766 127 20 C126.01 20.99 125.02 21.98 124 23 C123.505 22.01 123.505 22.01 123 21 C122.34 21 121.68 21 121 21 C121 20.34 121 19.68 121 19 C119.515 19.495 119.515 19.495 118 20 C117.01 19.34 116.02 18.68 115 18 C110.39110912 16.49203859 105.68724246 15.30269246 101 14.0625 C100.32748199 13.88258514 99.65496399 13.70267029 98.96206665 13.51730347 C89.1154265 10.89344316 79.31210501 8.78561032 69.19921875 7.47265625 C66 7 66 7 65 6 C56.77508781 4.39513908 48.48289186 3.72989261 40.12695312 3.34179688 C36.66346099 3.17782478 33.2469983 2.92971241 29.8046875 2.5078125 C23.86601891 1.81414737 17.90936606 1.64770417 11.9375 1.4375 C10.78572266 1.39431641 9.63394531 1.35113281 8.44726562 1.30664062 C5.63160509 1.20149148 2.81587024 1.09934607 0 1 C0 0.67 0 0.34 0 0 Z " fill="#0E6BDE" transform="translate(616,102)"/>
<path d="M0 0 C-3.33238678 4.0159533 -6.7397175 7.75469418 -10.5 11.375 C-14.25673128 15.05570974 -17.10707866 18.8451311 -19.80859375 23.34765625 C-20.20175781 23.89292969 -20.59492188 24.43820312 -21 25 C-21.66 25 -22.32 25 -23 25 C-24.48731668 22.02536663 -24.4313052 20.32721157 -24 17 C-19.37533094 8.70862904 -10.15585552 -0.8961049 0 0 Z " fill="#171D47" transform="translate(499,298)"/>
<path d="M0 0 C2.375 0.25 2.375 0.25 5 1 C5.70394612 2.31403276 6.36345658 3.6520257 7 5 C8.47649976 6.25181501 9.95599961 7.50131189 11.4765625 8.69921875 C13.63844893 10.54513716 15.2601378 12.76303432 17 15 C17.66 15.33 18.32 15.66 19 16 C19 17.32 19 18.64 19 20 C19.99 20.33 20.98 20.66 22 21 C22 21.66 22 22.32 22 23 C22.66 23 23.32 23 24 23 C24.66 23.66 25.32 24.32 26 25 C26.66 24.34 27.32 23.68 28 23 C28.66 24.65 29.32 26.3 30 28 C29.34 28 28.68 28 28 28 C28.45375 28.45375 28.9075 28.9075 29.375 29.375 C30.58333333 30.58333333 31.79166667 31.79166667 33 33 C33 34.32 33 35.64 33 37 C34.32 37 35.64 37 37 37 C37 38.98 37 40.96 37 43 C40.0109362 40.9927092 40.63016497 40.16115776 42 37 C42.66 37 43.32 37 44 37 C44.33 37.99 44.66 38.98 45 40 C44.04906703 41.69514137 43.04892238 43.36368108 42 45 C42 45.66 42 46.32 42 47 C41.67 47.99 41.34 48.98 41 50 C38.11939767 46.44610026 35.34211357 42.82437931 32.58447266 39.17529297 C24.78010376 28.86741765 16.90976691 18.61132182 7.5703125 9.6328125 C4.7265539 6.67586948 2.36923468 3.3412284 0 0 Z " fill="#18DCED" transform="translate(850,209)"/>
<path d="M0 0 C1.2310421 -0.01038551 1.2310421 -0.01038551 2.48695374 -0.02098083 C5.14369502 -0.03824894 7.80023637 -0.04457632 10.45703125 -0.046875 C11.3653772 -0.04821442 12.27372314 -0.04955383 13.20959473 -0.05093384 C33.89556969 -0.04433842 54.12013926 1.18220537 74.26953125 6.203125 C74.26953125 6.533125 74.26953125 6.863125 74.26953125 7.203125 C72.20676018 7.06117736 70.14432094 6.91440284 68.08203125 6.765625 C66.93347656 6.68441406 65.78492188 6.60320312 64.6015625 6.51953125 C61.26953125 6.203125 61.26953125 6.203125 58.7890625 5.66796875 C55.53797266 5.06815528 52.44733571 5.14702641 49.14453125 5.203125 C42.6015232 5.31378898 42.6015232 5.31378898 39.26953125 4.203125 C39.26953125 3.543125 39.26953125 2.883125 39.26953125 2.203125 C20.78953125 2.203125 2.30953125 2.203125 -16.73046875 2.203125 C-16.73046875 1.873125 -16.73046875 1.543125 -16.73046875 1.203125 C-11.11838696 0.4114284 -5.66414375 0.03253559 0 0 Z " fill="#001963" transform="translate(616.73046875,118.796875)"/>
<path d="M0 0 C4.22805953 -0.39638058 7.14320747 0.73898889 10.9765625 2.28515625 C13.15881172 3.14063225 13.15881172 3.14063225 16.25 3.375 C20.91786117 4.15297686 24.81450681 5.92078441 29.13671875 7.8046875 C32.11057343 9.11528973 32.11057343 9.11528973 35.8125 10.0625 C38.93839212 10.98188003 41.40006157 12.31178041 44.1796875 13.98828125 C49.0910075 16.7179634 54.6789309 18.27065254 60 20 C60 20.99 60 21.98 60 23 C55.79659943 21.63454654 51.6800324 20.1289122 47.5703125 18.50390625 C46.36246094 18.02759766 45.15460937 17.55128906 43.91015625 17.06054688 C42.64839783 16.56129817 41.38667934 16.06194853 40.125 15.5625 C35.41900207 13.70237126 30.7112501 11.84679257 26 10 C24.80697266 9.53182861 24.80697266 9.53182861 23.58984375 9.05419922 C18.21251003 6.98569391 12.73862823 5.52103796 7.171875 4.0625 C4.19697938 3.06598324 2.34371125 2.04204544 0 0 Z " fill="#1194E2" transform="translate(705,127)"/>
<path d="M0 0 C1.03330948 0.0028299 2.06661896 0.00565979 3.13124084 0.00857544 C6.41183347 0.01971603 9.69214698 0.04480946 12.97265625 0.0703125 C15.20507417 0.0803502 17.43749639 0.08947467 19.66992188 0.09765625 C25.12509425 0.11963529 30.5801053 0.15305166 36.03515625 0.1953125 C36.03515625 0.5253125 36.03515625 0.8553125 36.03515625 1.1953125 C35.19670166 1.20989502 34.35824707 1.22447754 33.49438477 1.23950195 C4.42747027 0.1324887 4.42747027 0.1324887 -22.96484375 6.1953125 C-24.41136795 6.34598464 -25.86363715 6.44392286 -27.31640625 6.51171875 C-28.1671875 6.55361328 -29.01796875 6.59550781 -29.89453125 6.63867188 C-30.78398438 6.67798828 -31.6734375 6.71730469 -32.58984375 6.7578125 C-33.935625 6.82258789 -33.935625 6.82258789 -35.30859375 6.88867188 C-37.52718658 6.99488111 -39.74589255 7.09692444 -41.96484375 7.1953125 C-39.1001373 5.60883114 -36.68506883 4.8439123 -33.4453125 4.4140625 C-32.58744141 4.29417969 -31.72957031 4.17429687 -30.84570312 4.05078125 C-29.95689453 3.93347656 -29.06808594 3.81617187 -28.15234375 3.6953125 C-26.39521065 3.46033952 -24.63867711 3.22083387 -22.8828125 2.9765625 C-22.10703857 2.87408203 -21.33126465 2.77160156 -20.53198242 2.66601562 C-17.83838455 2.23350167 -17.83838455 2.23350167 -14.84277344 1.15869141 C-9.82413329 -0.08806974 -5.14880455 -0.05358083 0 0 Z " fill="#0E50BF" transform="translate(603.96484375,117.8046875)"/>
<path d="M0 0 C14.85 0 29.7 0 45 0 C45 5.61 45 11.22 45 17 C44.67 17 44.34 17 44 17 C43.93941406 16.24074219 43.87882813 15.48148437 43.81640625 14.69921875 C43.73261719 13.70535156 43.64882813 12.71148437 43.5625 11.6875 C43.48128906 10.70136719 43.40007813 9.71523438 43.31640625 8.69921875 C43.08187441 5.90624401 43.08187441 5.90624401 42 3 C40.86981445 2.98018066 39.73962891 2.96036133 38.57519531 2.93994141 C34.37803036 2.8638112 30.18120874 2.77510521 25.984375 2.68261719 C24.16868879 2.64435809 22.35292759 2.60949983 20.53710938 2.578125 C17.92550877 2.5324077 15.31442312 2.47442464 12.703125 2.4140625 C11.48728729 2.39673569 11.48728729 2.39673569 10.24688721 2.37905884 C6.07792449 2.27013382 3.81327912 1.90663956 0 0 Z " fill="#060E35" transform="translate(888,405)"/>
<path d="M0 0 C0 0.66 0 1.32 0 2 C-1.12535156 2.30292969 -2.25070312 2.60585937 -3.41015625 2.91796875 C-19.66803366 6.9167028 -19.66803366 6.9167028 -35.1171875 13.10546875 C-37.36539174 14.17359898 -39.27773908 14.40685933 -41.75 14.625 C-42.54921875 14.69976562 -43.3484375 14.77453125 -44.171875 14.8515625 C-45.07679688 14.92503906 -45.07679688 14.92503906 -46 15 C-43.1440473 12.63645294 -40.76157944 11.44558322 -37.1875 10.5 C-34.15649514 9.65167211 -31.46050059 8.76458207 -28.5625 7.5 C-23.82085629 5.50351844 -18.97032327 4.29573935 -14 3 C-11.1032771 2.18668934 -8.20720942 1.37122941 -5.3125 0.55078125 C-3 0 -3 0 0 0 Z " fill="#08348A" transform="translate(552,110)"/>
<path d="M0 0 C0.33 1.32 0.66 2.64 1 4 C1.66 4 2.32 4 3 4 C3 5.32 3 6.64 3 8 C1.11157486 8.87042243 -0.78611902 9.72075474 -2.6875 10.5625 C-3.74324219 11.03816406 -4.79898438 11.51382812 -5.88671875 12.00390625 C-9.16633893 13.05322011 -10.75895539 13.00418265 -14 12 C-14 11.67 -14 11.34 -14 11 C-16.64 10.67 -19.28 10.34 -22 10 C-22 9.67 -22 9.34 -22 9 C-21.31035156 8.97421875 -20.62070312 8.9484375 -19.91015625 8.921875 C-13.4802053 8.53378468 -7.41524065 7.74901276 -2 4 C-0.73976593 1.95605015 -0.73976593 1.95605015 0 0 Z " fill="#121841" transform="translate(579,418)"/>
<path d="M0 0 C3.78363132 2.77561483 6.24788681 5.47495327 8.76953125 9.421875 C9.43017578 10.44667969 10.09082031 11.47148437 10.77148438 12.52734375 C11.44501953 13.59082031 12.11855469 14.65429688 12.8125 15.75 C13.50537109 16.82894531 14.19824219 17.90789062 14.91210938 19.01953125 C16.61577259 21.67489598 18.31137604 24.33505592 20 27 C18.02 27.99 18.02 27.99 16 29 C15.34 28.34 14.68 27.68 14 27 C14.33 26.01 14.66 25.02 15 24 C14.360625 23.608125 13.72125 23.21625 13.0625 22.8125 C11 21 11 21 10.5625 18.625 C9.77578153 14.95364714 7.73751043 13.47043624 5 11 C3 9 3 9 2 6.9375 C1.15410058 4.83134399 1.15410058 4.83134399 -1 4 C-0.67 2.68 -0.34 1.36 0 0 Z " fill="#4BDAEA" transform="translate(894,235)"/>
<path d="M0 0 C4.16993335 0.57113962 7.69918024 1.52718594 11.5625 3.1875 C12.58988281 3.62835938 13.61726562 4.06921875 14.67578125 4.5234375 C20.14634418 6.95337027 25.5811624 9.45664235 31 12 C27.12591263 13.29136246 24.65974327 12.47421236 20.8125 11.375 C18.91096507 10.78653641 18.91096507 10.78653641 17 12 C17 11.01 17 10.02 17 9 C15.68 8.67 14.36 8.34 13 8 C13 7.34 13 6.68 13 6 C11.68 6 10.36 6 9 6 C9 5.34 9 4.68 9 4 C7.9171875 4.061875 7.9171875 4.061875 6.8125 4.125 C3.79270631 3.99078695 1.73064271 3.24829381 -1 2 C-0.67 1.34 -0.34 0.68 0 0 Z " fill="#0FB5EA" transform="translate(743,123)"/>
<path d="M0 0 C-2.98297144 2.54104975 -5.18916138 3.29800341 -9 4 C-9.66 4.66 -10.32 5.32 -11 6 C-12.66505997 6.34126849 -14.33192287 6.67379825 -16 7 C-18.13367968 7.99220253 -18.13367968 7.99220253 -20.1875 9.25 C-23.54146466 11.1681537 -26.8954586 13.0707215 -30.3125 14.875 C-31.11300781 15.30554688 -31.91351563 15.73609375 -32.73828125 16.1796875 C-35.31318258 17.11358954 -36.47036972 16.93775768 -39 16 C-34.4938377 13.71894956 -29.97845671 11.45762545 -25.45263672 9.21582031 C-23.78103185 8.38717287 -22.11083831 7.55567374 -20.44189453 6.72167969 C-17.88389966 5.44773758 -15.31811793 4.19088857 -12.75 2.9375 C-11.94071045 2.53152588 -11.1314209 2.12555176 -10.29760742 1.70727539 C-9.53424072 1.33852295 -8.77087402 0.96977051 -7.984375 0.58984375 C-7.31116211 0.25847412 -6.63794922 -0.07289551 -5.94433594 -0.41430664 C-3.59949257 -1.12064507 -2.28657764 -0.78270331 0 0 Z " fill="#07368A" transform="translate(506,126)"/>
<path d="M0 0 C0.66 0.33 1.32 0.66 2 1 C-2.75 5 -2.75 5 -5 5 C-5 5.66 -5 6.32 -5 7 C-5.59425781 7.1959375 -6.18851562 7.391875 -6.80078125 7.59375 C-13.11864473 9.87329017 -18.03885005 12.96937735 -23.37109375 17.02734375 C-26.78782675 19.59116272 -30.34513996 21.79329205 -34 24 C-34.33 23.34 -34.66 22.68 -35 22 C-25.78958821 15.78329052 -16.52362177 9.7299799 -7 4 C-5.86498047 3.29810547 -5.86498047 3.29810547 -4.70703125 2.58203125 C-3.17528184 1.65666511 -1.59349468 0.81445284 0 0 Z " fill="#072870" transform="translate(465,143)"/>
<path d="M0 0 C0.99 0.33 1.98 0.66 3 1 C-0.96 2.98 -4.92 4.96 -9 7 C-8.67 7.66 -8.34 8.32 -8 9 C-11 11 -11 11 -15 11 C-15 11.66 -15 12.32 -15 13 C-19.43076923 15.09230769 -19.43076923 15.09230769 -22.3125 14.625 C-22.869375 14.41875 -23.42625 14.2125 -24 14 C-20.79748983 11.34649157 -17.56988651 9.12263522 -14 7 C-13.34 6.34 -12.68 5.68 -12 5 C-10.16604287 4.26027604 -8.30810683 3.57892059 -6.4375 2.9375 C-2.9435519 1.93984292 -2.9435519 1.93984292 0 0 Z " fill="#031D62" transform="translate(486,150)"/>
<path d="M0 0 C5.87969686 0.49473177 10.29003599 2.98365166 15.375 5.75 C16.18710937 6.18054688 16.99921875 6.61109375 17.8359375 7.0546875 C23.02657017 9.83300691 28.05077198 12.81236161 33 16 C29.22705078 17.09716797 29.22705078 17.09716797 27.18359375 16.22265625 C26.60738281 15.83980469 26.03117188 15.45695313 25.4375 15.0625 C22.86819282 13.37442512 22.21609341 13 19 13 C19 12.34 19 11.68 19 11 C18.0925 10.566875 17.185 10.13375 16.25 9.6875 C13.56781551 8.29482729 11.33860395 6.88887243 9 5 C8.67 5.66 8.34 6.32 8 7 C8 6.34 8 5.68 8 5 C7.34 4.67 6.68 4.34 6 4 C4 3 2 2 0 1 C0 0.67 0 0.34 0 0 Z " fill="#15C2E5" transform="translate(772,136)"/>
<path d="M0 0 C0.33 0 0.66 0 1 0 C1 16.83 1 33.66 1 51 C-3.95 49.515 -3.95 49.515 -9 48 C-9 47.67 -9 47.34 -9 47 C-6.36 47 -3.72 47 -1 47 C-0.67 31.49 -0.34 15.98 0 0 Z " fill="#2A2F4E" transform="translate(310,389)"/>
<path d="M0 0 C0.99 0.33 1.98 0.66 3 1 C3 1.66 3 2.32 3 3 C4.32 3 5.64 3 7 3 C7 4.98 7 6.96 7 9 C10.0109362 6.9927092 10.63016497 6.16115776 12 3 C12.66 3 13.32 3 14 3 C14.33 3.99 14.66 4.98 15 6 C14.04906703 7.69514137 13.04892238 9.36368108 12 11 C12 11.66 12 12.32 12 13 C11.67 13.99 11.34 14.98 11 16 C9.66014102 14.33857487 8.32917292 12.66998649 7 11 C6.39800781 10.25234375 5.79601562 9.5046875 5.17578125 8.734375 C4.54027344 7.93515625 3.90476562 7.1359375 3.25 6.3125 C2.63640625 5.54550781 2.0228125 4.77851563 1.390625 3.98828125 C0 2 0 2 0 0 Z " fill="#4DE5F3" transform="translate(880,243)"/>
<path d="M0 0 C0.66 0 1.32 0 2 0 C2 0.66 2 1.32 2 2 C4.98241547 2.77321882 7.97580475 3.41196203 11 4 C11 4.99 11 5.98 11 7 C12.6396875 7.433125 12.6396875 7.433125 14.3125 7.875 C18 9 18 9 21 11 C21 11.66 21 12.32 21 13 C21.78375 12.979375 22.5675 12.95875 23.375 12.9375 C26 13 26 13 28 14 C27.67 15.32 27.34 16.64 27 18 C17.61703221 12.74887209 8.26509365 7.45728054 -1 2 C-0.67 1.34 -0.34 0.68 0 0 Z " fill="#15C1E8" transform="translate(766,148)"/>
<path d="M0 0 C3.43927579 1.2419607 6.25207819 2.55740284 9 5 C9 5.66 9 6.32 9 7 C9.556875 7.061875 10.11375 7.12375 10.6875 7.1875 C13.98942866 8.3476371 15.62907991 10.45559795 18 13 C18.886875 13.86625 19.77375 14.7325 20.6875 15.625 C23 18 23 18 25 21 C22 21 22 21 19.90625 19.12890625 C19.1121875 18.28199219 18.318125 17.43507812 17.5 16.5625 C12.97772718 11.88038248 8.27778753 7.83809399 3.15234375 3.8125 C1 2 1 2 0 0 Z " fill="#1DCBE0" transform="translate(826,188)"/>
<path d="M0 0 C5.55310325 0.44424826 8.47488832 1.86012659 13 5 C15.6154356 6.15773809 18.28937232 7.09107921 21 8 C22.7325 8.5878125 22.7325 8.5878125 24.5 9.1875 C25.325 9.455625 26.15 9.72375 27 10 C27 10.99 27 11.98 27 13 C21.47823832 11.23266998 16.08549439 9.17139387 10.6875 7.0625 C9.76904297 6.71509766 8.85058594 6.36769531 7.90429688 6.00976562 C7.03224609 5.66751953 6.16019531 5.32527344 5.26171875 4.97265625 C4.07002075 4.51258179 4.07002075 4.51258179 2.85424805 4.04321289 C1 3 1 3 0 0 Z " fill="#1198D6" transform="translate(738,137)"/>
<path d="M0 0 C0 0.33 0 0.66 0 1 C-4.455 1.495 -4.455 1.495 -9 2 C-9 2.66 -9 3.32 -9 4 C-11.22907395 4.47959778 -13.45826297 4.9586608 -15.6875 5.4375 C-16.92886719 5.70433594 -18.17023437 5.97117188 -19.44921875 6.24609375 C-22.29612015 6.85055136 -25.14455626 7.43764684 -28 8 C-28 8.66 -28 9.32 -28 10 C-30.64 10 -33.28 10 -36 10 C-35.01 9.67 -34.02 9.34 -33 9 C-32.67 8.34 -32.34 7.68 -32 7 C-28.78432632 5.67289658 -25.35680286 4.89704164 -22 4 C-21.35885254 3.82645996 -20.71770508 3.65291992 -20.05712891 3.47412109 C-17.95738989 2.90966446 -15.85449825 2.35892772 -13.75 1.8125 C-13.07702881 1.63348145 -12.40405762 1.45446289 -11.71069336 1.27001953 C-7.71838364 0.25899607 -4.11392852 -0.18525455 0 0 Z " fill="#083387" transform="translate(562,125)"/>
<path d="M0 0 C0.33 0.99 0.66 1.98 1 3 C-2.40322874 5.09429461 -5.03952054 5.33706208 -9 5 C-9.99 4.34 -10.98 3.68 -12 3 C-11.67 2.01 -11.34 1.02 -11 0 C-7.38357376 -1.6691198 -3.79425988 -0.65669883 0 0 Z " fill="#061040" transform="translate(542,385)"/>
<path d="M0 0 C0 0.33 0 0.66 0 1 C-1.20398438 1.13277344 -2.40796875 1.26554687 -3.6484375 1.40234375 C-5.22398085 1.5805302 -6.79950047 1.7589265 -8.375 1.9375 C-9.1690625 2.02451172 -9.963125 2.11152344 -10.78125 2.20117188 C-15.02255001 2.6038935 -15.02255001 2.6038935 -19 4 C-20.4465242 4.15067214 -21.8987934 4.24861036 -23.3515625 4.31640625 C-24.20234375 4.35830078 -25.053125 4.40019531 -25.9296875 4.44335938 C-26.81914063 4.48267578 -27.70859375 4.52199219 -28.625 4.5625 C-29.97078125 4.62727539 -29.97078125 4.62727539 -31.34375 4.69335938 C-33.56234283 4.79956861 -35.7810488 4.90161194 -38 5 C-33.66755618 2.63296462 -29.46228319 2.08039957 -24.625 1.375 C-23.73973633 1.24311279 -22.85447266 1.11122559 -21.94238281 0.9753418 C-14.57699181 -0.05488061 -7.43895675 -0.33253615 0 0 Z " fill="#083793" transform="translate(600,120)"/>
<path d="M0 0 C10.06394247 -0.1176305 19.96557967 0.12198822 30 1 C30 1.66 30 2.32 30 3 C31.423125 2.938125 31.423125 2.938125 32.875 2.875 C36 3 36 3 38 5 C37.01644531 4.87882812 36.03289063 4.75765625 35.01953125 4.6328125 C23.36437885 3.21877351 11.69128117 2.07082563 0 1 C0 0.67 0 0.34 0 0 Z " fill="#012678" transform="translate(648,102)"/>
<path d="M0 0 C-0.81082031 0.30292969 -1.62164063 0.60585937 -2.45703125 0.91796875 C-9.02227478 3.40190838 -15.43397597 6.03270355 -21.7578125 9.08203125 C-24 10 -24 10 -27 10 C-27 10.66 -27 11.32 -27 12 C-28.32 11.67 -29.64 11.34 -31 11 C-28.11942542 8.65286516 -25.47235321 7.2920384 -22 6 C-20.39125 5.2884375 -20.39125 5.2884375 -18.75 4.5625 C-14.59095059 2.76571769 -10.309513 1.38639372 -6 0 C-3 -1 -3 -1 0 0 Z " fill="#09368B" transform="translate(520,138)"/>
<path d="M0 0 C0 0.33 0 0.66 0 1 C-8.64024562 3.513526 -17.08810018 3.18417244 -26 3 C-20.60187111 -2.39812889 -7.2663709 -0.0793657 0 0 Z " fill="#0848B4" transform="translate(616,102)"/>
<path d="M0 0 C2.31 0 4.62 0 7 0 C5.91801129 3.48640807 4.86630682 4.07292355 1.5625 5.875 C0.386875 6.24625 -0.78875 6.6175 -2 7 C-2.99 6.34 -3.98 5.68 -5 5 C-5 3.68 -5 2.36 -5 1 C-2.525 1.495 -2.525 1.495 0 2 C0 1.34 0 0.68 0 0 Z " fill="#0D1644" transform="translate(530,404)"/>
<path d="M0 0 C-1.00101006 2.58639357 -1.62366948 3.7814855 -4.05859375 5.1953125 C-4.84363281 5.50210937 -5.62867188 5.80890625 -6.4375 6.125 C-9.27474903 7.25616024 -11.42764268 8.28509512 -14 10 C-14.99 9.01 -15.98 8.02 -17 7 C-14.54379149 5.82866942 -12.08525083 4.66278278 -9.625 3.5 C-8.92632813 3.16613281 -8.22765625 2.83226562 -7.5078125 2.48828125 C-2.2265625 0 -2.2265625 0 0 0 Z " fill="#20274C" transform="translate(749,448)"/>
<path d="M0 0 C-0.309375 0.721875 -0.61875 1.44375 -0.9375 2.1875 C-1.92560539 4.80307309 -2.5287754 7.25118982 -3 10 C-2.34 10 -1.68 10 -1 10 C-0.34 11.32 0.32 12.64 1 14 C-2 14 -2 14 -4.1875 11.875 C-6.30269678 8.51986027 -6.67678396 6.89150777 -6 3 C-3.95959224 0.95959224 -2.91674756 0 0 0 Z " fill="#171C44" transform="translate(263,396)"/>
<path d="M0 0 C-0.33 0.99 -0.66 1.98 -1 3 C-3.0625 3.6875 -3.0625 3.6875 -5 4 C-5 4.99 -5 5.98 -5 7 C-4.01 7 -3.02 7 -2 7 C-2 7.66 -2 8.32 -2 9 C-0.68 9.33 0.64 9.66 2 10 C2 10.66 2 11.32 2 12 C-5.15291751 9.93360161 -5.15291751 9.93360161 -7 7 C-6.875 4.4375 -6.875 4.4375 -6 2 C-3 0 -3 0 0 0 Z " fill="#20264A" transform="translate(532,420)"/>
<path d="M0 0 C1.9375 0.75 1.9375 0.75 4 2 C4.75 4.125 4.75 4.125 5 6 C3.68 6.33 2.36 6.66 1 7 C0.67 11.29 0.34 15.58 0 20 C-0.33 20 -0.66 20 -1 20 C-1.02689449 17.04160645 -1.04678741 14.08345573 -1.0625 11.125 C-1.07087891 10.28324219 -1.07925781 9.44148438 -1.08789062 8.57421875 C-1.09111328 7.76855469 -1.09433594 6.96289062 -1.09765625 6.1328125 C-1.10289307 5.38918457 -1.10812988 4.64555664 -1.11352539 3.87939453 C-1 2 -1 2 0 0 Z " fill="#292E53" transform="translate(633,400)"/>
<path d="M0 0 C-0.92652701 1.17539996 -1.86663387 2.34010577 -2.8125 3.5 C-3.33457031 4.1496875 -3.85664063 4.799375 -4.39453125 5.46875 C-6 7 -6 7 -9 7 C-9.66 5.68 -10.32 4.36 -11 3 C-7.14243493 0.84694043 -4.44870215 -0.39253254 0 0 Z " fill="#181D42" transform="translate(499,298)"/>
<path d="M0 0 C7.625 0.625 7.625 0.625 11 4 C4.565 4.495 4.565 4.495 -2 5 C-2.33 4.34 -2.66 3.68 -3 3 C-2.34 3 -1.68 3 -1 3 C-0.67 2.01 -0.34 1.02 0 0 Z " fill="#121945" transform="translate(554,428)"/>
<path d="M0 0 C4.48993869 0.58652352 8.22543184 1.7643538 12.375 3.5625 C13.43460938 4.01753906 14.49421875 4.47257812 15.5859375 4.94140625 C16.38257813 5.29074219 17.17921875 5.64007813 18 6 C14.61682513 6.97591583 12.4342662 6.85856655 9 6 C9 5.34 9 4.68 9 4 C7.9171875 4.061875 7.9171875 4.061875 6.8125 4.125 C3.79270631 3.99078695 1.73064271 3.24829381 -1 2 C-0.67 1.34 -0.34 0.68 0 0 Z " fill="#13A5E6" transform="translate(743,123)"/>
<path d="M0 0 C3.68006822 3.38168431 5.9785845 6.42521756 8 11 C6.125 11.625 6.125 11.625 4 12 C3.34 11.34 2.68 10.68 2 10 C2.33 9.01 2.66 8.02 3 7 C1.68 6.01 0.36 5.02 -1 4 C-0.67 2.68 -0.34 1.36 0 0 Z " fill="#74E3F2" transform="translate(906,252)"/>
<path d="M0 0 C6.83981276 0.51621228 12.63876684 2.48590969 19 5 C18.01 5.99 17.02 6.98 16 8 C15.67 7.34 15.34 6.68 15 6 C14.34 6 13.68 6 13 6 C13 5.34 13 4.68 13 4 C12.01 4.33 11.02 4.66 10 5 C9.01 4.34 8.02 3.68 7 3 C4.67891331 2.29187186 2.34622853 1.61975848 0 1 C0 0.67 0 0.34 0 0 Z " fill="#119AE7" transform="translate(724,117)"/>
<path d="M0 0 C0.99 0.33 1.98 0.66 3 1 C0.21526125 2.53378536 -2.57878338 4.0497558 -5.375 5.5625 C-6.1690625 6.00013672 -6.963125 6.43777344 -7.78125 6.88867188 C-8.54179687 7.29794922 -9.30234375 7.70722656 -10.0859375 8.12890625 C-11.1385376 8.70233765 -11.1385376 8.70233765 -12.21240234 9.28735352 C-12.80230957 9.52252686 -13.3922168 9.7577002 -14 10 C-14.66 9.67 -15.32 9.34 -16 9 C-13.03486956 5.64045791 -10.55394673 4.19988912 -6.3125 2.8125 C-2.88097868 1.88065698 -2.88097868 1.88065698 0 0 Z " fill="#0A3689" transform="translate(486,150)"/>
<path d="M0 0 C0.33 1.32 0.66 2.64 1 4 C-0.98 4.33 -2.96 4.66 -5 5 C-5.33 4.34 -5.66 3.68 -6 3 C-7.89533342 2.53476937 -7.89533342 2.53476937 -10.0625 2.375 C-11.361875 2.25125 -12.66125 2.1275 -14 2 C-14 1.67 -14 1.34 -14 1 C-12.22932584 0.83165067 -10.45845388 0.66538091 -8.6875 0.5 C-7.70136719 0.4071875 -6.71523438 0.314375 -5.69921875 0.21875 C-3 0 -3 0 0 0 Z " fill="#2B3155" transform="translate(571,426)"/>
<path d="M0 0 C0.33 0 0.66 0 1 0 C1 3.3 1 6.6 1 10 C-1.64 10.33 -4.28 10.66 -7 11 C-6.34 9.35 -5.68 7.7 -5 6 C-3.35 6 -1.7 6 0 6 C0 4.02 0 2.04 0 0 Z " fill="#0E153E" transform="translate(311,357)"/>
<path d="M0 0 C2.97 0.99 5.94 1.98 9 3 C7.35 4.65 5.7 6.3 4 8 C3.67 7.01 3.34 6.02 3 5 C2.34 5 1.68 5 1 5 C0.67 3.35 0.34 1.7 0 0 Z " fill="#09103B" transform="translate(579,417)"/>
<path d="M0 0 C2.375 0.25 2.375 0.25 5 1 C6 2.75 6 2.75 7 5 C8.62746694 6.70496537 10.28891311 8.37897032 12 10 C11.34 10.66 10.68 11.32 10 12 C8.33032474 10.19019128 6.66417692 8.3773524 5 6.5625 C4.28457031 5.7880957 4.28457031 5.7880957 3.5546875 4.99804688 C0 1.11328125 0 1.11328125 0 0 Z " fill="#16D3EA" transform="translate(850,209)"/>
<path d="M0 0 C0.66 0 1.32 0 2 0 C2.02708567 1.60407328 2.04643483 3.2082785 2.0625 4.8125 C2.07410156 5.70582031 2.08570313 6.59914063 2.09765625 7.51953125 C2 10 2 10 1 13 C0.34 13 -0.32 13 -1 13 C-1.07654536 8.48382401 -1.10228696 4.40914783 0 0 Z " fill="#303354" transform="translate(788,405)"/>
<path d="M0 0 C0.97582031 0.00902344 1.95164062 0.01804687 2.95703125 0.02734375 C3.69308594 0.03894531 4.42914062 0.05054688 5.1875 0.0625 C5.1875 1.0525 5.1875 2.0425 5.1875 3.0625 C-0.0925 2.7325 -5.3725 2.4025 -10.8125 2.0625 C-10.8125 1.7325 -10.8125 1.4025 -10.8125 1.0625 C-7.13862505 0.20951624 -3.7677607 -0.04539471 0 0 Z " fill="#030733" transform="translate(547.8125,405.9375)"/>
<path d="M0 0 C1.65 0 3.3 0 5 0 C4.01 0.495 4.01 0.495 3 1 C3.33 1.99 3.66 2.98 4 4 C3.67 4.66 3.34 5.32 3 6 C2.01 6 1.02 6 0 6 C0 6.66 0 7.32 0 8 C-0.66 8 -1.32 8 -2 8 C-1.125 2.25 -1.125 2.25 0 0 Z " fill="#121843" transform="translate(731,385)"/>
<path d="M0 0 C-4.96284034 2.37113483 -9.45949887 4.43174347 -15 5 C-15 4.34 -15 3.68 -15 3 C-13.06643218 2.30151736 -11.12797702 1.61655186 -9.1875 0.9375 C-8.10855469 0.55464844 -7.02960938 0.17179687 -5.91796875 -0.22265625 C-3 -1 -3 -1 0 0 Z " fill="#181E45" transform="translate(415,442)"/>
<path d="M0 0 C0.66 0 1.32 0 2 0 C2 2.97 2 5.94 2 9 C0.35 9 -1.3 9 -3 9 C-3 8.01 -3 7.02 -3 6 C-2.34 5.67 -1.68 5.34 -1 5 C-0.34444881 2.47266765 -0.34444881 2.47266765 0 0 Z " fill="#212854" transform="translate(846,388)"/>
<path d="M0 0 C5.43059731 -0.19054727 9.83451546 0.03711588 15 2 C15.99 3.485 15.99 3.485 17 5 C8.585 3.02 8.585 3.02 0 1 C0 0.67 0 0.34 0 0 Z " fill="#2F3457" transform="translate(316,266)"/>
<path d="M0 0 C6.10435119 -0.57228292 11.72669601 2.14362701 17 5 C14.16480859 6.41759571 12.64634952 5.57621354 9.625 4.75 C8.66851563 4.49734375 7.71203125 4.2446875 6.7265625 3.984375 C4.00972496 3.00351102 2.19497718 1.85168691 0 0 Z " fill="#1086DD" transform="translate(705,127)"/>
<path d="M0 0 C0.66 1.32 1.32 2.64 2 4 C-0.95600447 6.49618156 -3.77886965 8.85257977 -7 11 C-9.1875 10.625 -9.1875 10.625 -11 10 C-9.9275 9.46375 -8.855 8.9275 -7.75 8.375 C-3.87374779 6.18920261 -2.17850011 3.83416019 0 0 Z " fill="#1F244C" transform="translate(412,404)"/>
<path d="M0 0 C0.99 0 1.98 0 3 0 C3.25 2.3125 3.25 2.3125 3 5 C1 6.8125 1 6.8125 -1 8 C-1.625 5.125 -1.625 5.125 -2 2 C-1.34 1.34 -0.68 0.68 0 0 Z " fill="#09103D" transform="translate(484,306)"/>
<path d="M0 0 C0.99 0.33 1.98 0.66 3 1 C3 1.66 3 2.32 3 3 C4.32 3 5.64 3 7 3 C7 5.31 7 7.62 7 10 C4.4000702 7.48972295 2.00908773 5.0136316 0 2 C0 1.34 0 0.68 0 0 Z " fill="#3ED7E8" transform="translate(880,243)"/>
<path d="M0 0 C8.415 1.98 8.415 1.98 17 4 C17 4.33 17 4.66 17 5 C10.29873464 5.48736475 5.93438408 4.07708804 0 1 C0 0.67 0 0.34 0 0 Z " fill="#1182D7" transform="translate(710,112)"/>
<path d="M0 0 C0.33 1.32 0.66 2.64 1 4 C1.66 4 2.32 4 3 4 C3 5.32 3 6.64 3 8 C0.03 7.505 0.03 7.505 -3 7 C-2.690625 6.401875 -2.38125 5.80375 -2.0625 5.1875 C-0.89790296 2.91043228 -0.89790296 2.91043228 0 0 Z " fill="#1C214E" transform="translate(579,418)"/>
<path d="M0 0 C0.66 0.33 1.32 0.66 2 1 C-2.75 5 -2.75 5 -5 5 C-5 5.66 -5 6.32 -5 7 C-6.65 7.33 -8.3 7.66 -10 8 C-8.7820245 4.34607349 -7.85603494 4.04168301 -4.5625 2.25 C-3.75941406 1.80140625 -2.95632813 1.3528125 -2.12890625 0.890625 C-1.07509766 0.44976562 -1.07509766 0.44976562 0 0 Z " fill="#0A3284" transform="translate(465,143)"/>
<path d="M0 0 C0.99 0 1.98 0 3 0 C3 0.99 3 1.98 3 3 C4.65 3 6.3 3 8 3 C8 3.66 8 4.32 8 5 C2.375 5.25 2.375 5.25 -1 3 C-0.67 2.01 -0.34 1.02 0 0 Z " fill="#24294D" transform="translate(531,385)"/>
<path d="M0 0 C0.99 0 1.98 0 3 0 C4.6875 2 4.6875 2 6 4 C6.66 3.67 7.32 3.34 8 3 C8.33 3.99 8.66 4.98 9 6 C7.02 6.99 7.02 6.99 5 8 C4.16382818 6.8562364 3.33113541 5.70992861 2.5 4.5625 C2.0359375 3.92441406 1.571875 3.28632813 1.09375 2.62890625 C0 1 0 1 0 0 Z " fill="#101641" transform="translate(453,345)"/>
<path d="M0 0 C0.99 0.33 1.98 0.66 3 1 C-2 7.57142857 -2 7.57142857 -7 9 C-2.85714286 2.57142857 -2.85714286 2.57142857 0 0 Z " fill="#141A40" transform="translate(503,317)"/>
<path d="M0 0 C4 1.33333333 8 2.66666667 12 4 C12 4.99 12 5.98 12 7 C9.99538701 6.34733531 7.99620166 5.67795528 6 5 C4.6078125 4.5359375 4.6078125 4.5359375 3.1875 4.0625 C2.465625 3.711875 1.74375 3.36125 1 3 C0.67 2.01 0.34 1.02 0 0 Z " fill="#11ABDE" transform="translate(753,143)"/>
<path d="M0 0 C1.29608947 0.93137592 2.58671632 1.8703566 3.875 2.8125 C4.59429688 3.33457031 5.31359375 3.85664063 6.0546875 4.39453125 C8 6 8 6 10 9 C6.11624195 8.42462844 3.82218799 6.66963729 1 4 C0.35546875 1.86328125 0.35546875 1.86328125 0 0 Z " fill="#1BD0E2" transform="translate(840,178)"/>
<path d="M0 0 C-1.10699901 3.21029714 -2.01603825 4.00968977 -5 5.8125 C-5.99 6.204375 -6.98 6.59625 -8 7 C-8.66 6.67 -9.32 6.34 -10 6 C-8.6875 4.5 -8.6875 4.5 -7 3 C-6.01 3 -5.02 3 -4 3 C-4 2.34 -4 1.68 -4 1 C-2 0 -2 0 0 0 Z " fill="#041E60" transform="translate(451,172)"/>
<path d="M0 0 C0.33 0 0.66 0 1 0 C1.16808419 2.10405391 1.33441948 4.20824758 1.5 6.3125 C1.5928125 7.48425781 1.685625 8.65601563 1.78125 9.86328125 C1.92364989 11.905194 2 13.9531279 2 16 C1.01 16.33 0.02 16.66 -1 17 C-0.67 11.39 -0.34 5.78 0 0 Z " fill="#020A35" transform="translate(1004,388)"/>
<path d="M0 0 C0.66 0.33 1.32 0.66 2 1 C-0.31 3.31 -2.62 5.62 -5 8 C-5.99 7.67 -6.98 7.34 -8 7 C-5.42215154 4.35247996 -3.08351902 2.05567935 0 0 Z " fill="#141B41" transform="translate(539,329)"/>
<path d="M0 0 C0.66 0.33 1.32 0.66 2 1 C0.62845496 3.95409701 -0.98863724 6.44008376 -3 9 C-3.75 6.75 -3.75 6.75 -4 4 C-2.0625 1.6875 -2.0625 1.6875 0 0 Z " fill="#0F163F" transform="translate(469,298)"/>
<path d="M0 0 C4.24822374 0.47202486 6.19989709 2.96655518 9 6 C8.34 6.66 7.68 7.32 7 8 C5.83035398 6.8572081 4.66435444 5.71068285 3.5 4.5625 C2.8503125 3.92441406 2.200625 3.28632813 1.53125 2.62890625 C0 1 0 1 0 0 Z " fill="#18C5DB" transform="translate(842,202)"/>
<path d="M0 0 C-0.99 0 -1.98 0 -3 0 C-3 0.66 -3 1.32 -3 2 C-2.34 2.33 -1.68 2.66 -1 3 C-3.64 3 -6.28 3 -9 3 C-9 2.34 -9 1.68 -9 1 C-5.57367167 -0.61798838 -3.61944899 -1.34053666 0 0 Z " fill="#232648" transform="translate(229,282)"/>
<path d="M0 0 C-2.96178773 1.67110042 -5.37071192 2.32682752 -8.75 2.625 C-9.54921875 2.69976562 -10.3484375 2.77453125 -11.171875 2.8515625 C-11.77515625 2.90054688 -12.3784375 2.94953125 -13 3 C-9.46107841 -0.25580786 -4.56810887 -2.28405443 0 0 Z " fill="#063991" transform="translate(519,122)"/>
<path d="M0 0 C0.33 0 0.66 0 1 0 C1 2.97 1 5.94 1 9 C-0.32 9 -1.64 9 -3 9 C-3.66 7.68 -4.32 6.36 -5 5 C-2.525 5.99 -2.525 5.99 0 7 C0 4.69 0 2.38 0 0 Z " fill="#363955" transform="translate(670,409)"/>
<path d="M0 0 C0.33 0 0.66 0 1 0 C1.3403125 1.60875 1.3403125 1.60875 1.6875 3.25 C3.13026545 7.37218701 4.41910075 8.64414523 8 11 C6.35 11 4.7 11 3 11 C2.67 10.01 2.34 9.02 2 8 C1.34 8 0.68 8 0 8 C0 5.36 0 2.72 0 0 Z " fill="#050A35" transform="translate(208,283)"/>
<path d="M0 0 C0.99 0 1.98 0 3 0 C3 1.65 3 3.3 3 5 C2.01 5.495 2.01 5.495 1 6 C0.01 5.01 -0.98 4.02 -2 3 C-1.34 2.01 -0.68 1.02 0 0 Z " fill="#D4F2F6" transform="translate(923,283)"/>
<path d="M0 0 C3.91862013 0.97965503 4.5460502 1.21142068 7 4 C7.66 4.66 8.32 5.32 9 6 C7.68 6.33 6.36 6.66 5 7 C3.35 4.69 1.7 2.38 0 0 Z " fill="#2BDCEC" transform="translate(874,236)"/>
<path d="M0 0 C-0.639375 0.309375 -1.27875 0.61875 -1.9375 0.9375 C-3.93610821 1.8345163 -3.93610821 1.8345163 -5 3 C-6.99958364 3.04080783 -9.00045254 3.04254356 -11 3 C-10 1 -10 1 -6.625 -0.1875 C-3 -1 -3 -1 0 0 Z " fill="#1D2348" transform="translate(824,452)"/>
<path d="M0 0 C0.99 0.33 1.98 0.66 3 1 C3.33 1.99 3.66 2.98 4 4 C2.02 4.33 0.04 4.66 -2 5 C-1.34 3.35 -0.68 1.7 0 0 Z " fill="#161943" transform="translate(812,425)"/>
<path d="M0 0 C0 0.99 0 1.98 0 3 C-1.98 3.99 -3.96 4.98 -6 6 C-5.625 3.5625 -5.625 3.5625 -5 1 C-3 0 -3 0 0 0 Z " fill="#141A46" transform="translate(514,345)"/>
<path d="M0 0 C-5.41538462 4.06153846 -5.41538462 4.06153846 -8.375 3.75 C-8.91125 3.5025 -9.4475 3.255 -10 3 C-3.375 -1.125 -3.375 -1.125 0 0 Z " fill="#001454" transform="translate(486,154)"/>
<path d="M0 0 C0.53625 0.2475 1.0725 0.495 1.625 0.75 C-3.79038462 4.81153846 -3.79038462 4.81153846 -6.75 4.5 C-7.28625 4.2525 -7.8225 4.005 -8.375 3.75 C-2.95961538 -0.31153846 -2.95961538 -0.31153846 0 0 Z " fill="#151B43" transform="translate(595.375,444.25)"/>
<path d="M0 0 C2.97 0 5.94 0 9 0 C9 0.66 9 1.32 9 2 C5.52176885 3.15941038 3.54104422 2.70820884 0 2 C0 1.34 0 0.68 0 0 Z " fill="#2C3157" transform="translate(346,387)"/>
<path d="M0 0 C6.875 3.75 6.875 3.75 8 6 C5.125 5.8125 5.125 5.8125 2 5 C0.625 2.4375 0.625 2.4375 0 0 Z " fill="#16CEE3" transform="translate(823,165)"/>
<path d="M0 0 C1.32 0 2.64 0 4 0 C4 0.66 4 1.32 4 2 C5.32 2.33 6.64 2.66 8 3 C8 3.66 8 4.32 8 5 C2.25 3.375 2.25 3.375 0 0 Z " fill="#1A2045" transform="translate(526,427)"/>
<path d="M0 0 C3.3 0 6.6 0 10 0 C10 0.99 10 1.98 10 3 C8.35 3 6.7 3 5 3 C5 2.67 5 2.34 5 2 C3.35 1.67 1.7 1.34 0 1 C0 0.67 0 0.34 0 0 Z " fill="#010736" transform="translate(556,428)"/>
<path d="M0 0 C1.0625 1.875 1.0625 1.875 2 4 C1.67 4.66 1.34 5.32 1 6 C0.01 6 -0.98 6 -2 6 C-2 6.66 -2 7.32 -2 8 C-2.66 7.67 -3.32 7.34 -4 7 C-2.68 4.69 -1.36 2.38 0 0 Z " fill="#1A2047" transform="translate(819,413)"/>
<path d="M0 0 C2.475 0.99 2.475 0.99 5 2 C5 3.32 5 4.64 5 6 C3.2925002 4.71937515 1.62626404 3.38232443 0 2 C0 1.34 0 0.68 0 0 Z " fill="#0D133E" transform="translate(438,328)"/>
<path d="M0 0 C3.7952131 1.49097658 5.61042731 3.75700849 8 7 C4.65980694 6.40353695 2.49529367 5.31705841 0 3 C0 2.01 0 1.02 0 0 Z " fill="#14D7E8" transform="translate(836,195)"/>
<path d="M0 0 C0.66 0.33 1.32 0.66 2 1 C0.02 2.98 -1.96 4.96 -4 7 C-4.99 6.67 -5.98 6.34 -7 6 C-4.69 4.02 -2.38 2.04 0 0 Z " fill="#061E5D" transform="translate(426,168)"/>
<path d="M0 0 C-0.75 1.9375 -0.75 1.9375 -2 4 C-4.125 4.75 -4.125 4.75 -6 5 C-6 4.01 -6 3.02 -6 2 C-2.25 0 -2.25 0 0 0 Z " fill="#151C43" transform="translate(749,448)"/>
<path d="M0 0 C1.98 0.66 3.96 1.32 6 2 C5.67 3.32 5.34 4.64 5 6 C3.2925002 4.71937515 1.62626404 3.38232443 0 2 C0 1.34 0 0.68 0 0 Z " fill="#1E244C" transform="translate(406,379)"/>
<path d="M0 0 C0.99 0.33 1.98 0.66 3 1 C3.33 1.99 3.66 2.98 4 4 C2.125 4.625 2.125 4.625 0 5 C-0.66 4.34 -1.32 3.68 -2 3 C-1.34 2.01 -0.68 1.02 0 0 Z " fill="#84E4F1" transform="translate(910,259)"/>
<path d="M0 0 C1.32 0.33 2.64 0.66 4 1 C4 1.66 4 2.32 4 3 C4.66 3.33 5.32 3.66 6 4 C3.50907189 5.24546405 2.58919267 4.7767578 0 4 C0 2.68 0 1.36 0 0 Z " fill="#05DCF6" transform="translate(794,162)"/>
</svg>
