<?xml version="1.0" encoding="UTF-8"?>
<svg version="1.1" xmlns="http://www.w3.org/2000/svg" width="1200" height="675">
<path d="M0 0 C396 0 792 0 1200 0 C1200 222.75 1200 445.5 1200 675 C804 675 408 675 0 675 C0 452.25 0 229.5 0 0 Z " fill="#F6F7F6" transform="translate(0,0)"/>
<path d="M0 0 C13.5651968 10.74336388 24.30800508 26.80113452 27.58984375 44.046875 C30.02795149 66.67630217 26.42299632 88.01408071 11.96142578 106.16894531 C7.22456009 111.80846261 2.16242137 116.72915612 -4.0078125 120.78125 C-4.89855469 121.37421875 -5.78929687 121.9671875 -6.70703125 122.578125 C-23.88532454 133.31169143 -44.70576625 136.91721262 -64.56640625 132.47265625 C-76.06382696 129.21658671 -85.70454983 124.2461434 -95.0078125 116.78125 C-95.96107422 116.06582031 -95.96107422 116.06582031 -96.93359375 115.3359375 C-111.22609897 103.93630408 -119.73351527 85.79817175 -121.80712891 67.9074707 C-123.67726091 48.09362693 -119.57699889 29.7916972 -107.3828125 13.71875 C-104.74996581 10.55119714 -102.0265795 7.58940535 -99.0078125 4.78125 C-98.358125 4.11480469 -97.7084375 3.44835937 -97.0390625 2.76171875 C-70.15358195 -23.54124306 -28.98022767 -21.37762249 0 0 Z " fill="#17557E" transform="translate(647.0078125,228.21875)"/>
<path d="M0 0 C6.72540794 -0.22858025 13.44981242 -0.38595529 20.17822266 -0.49438477 C22.46571274 -0.53959016 24.75294355 -0.60096912 27.03955078 -0.67895508 C30.33170462 -0.78840739 33.62041876 -0.83922209 36.9140625 -0.87890625 C37.93303619 -0.92535782 38.95200989 -0.97180939 40.00186157 -1.01966858 C46.96629449 -1.02459733 46.96629449 -1.02459733 49.94302368 1.92590332 C51.49858184 4.22590275 52.77891442 6.50865707 54 9 C54.72829686 10.30662991 55.45939976 11.61170676 56.1953125 12.9140625 C56.84349641 14.14845257 57.48682031 15.38540817 58.125 16.625 C58.77237072 17.86774379 59.42080518 19.10993405 60.0703125 20.3515625 C60.38258789 20.9487207 60.69486328 21.54587891 61.01660156 22.16113281 C62.61258919 25.14548703 64.30560266 28.07057526 66 31 C72.14769206 20.75384657 78.07165292 10.3746074 84 0 C100.17 0 116.34 0 133 0 C131.46043831 3.84890422 129.87546331 7.19953023 127.875 10.796875 C127.25616943 11.91143066 126.63733887 13.02598633 125.99975586 14.17431641 C125.33337812 15.36632699 124.66678819 16.55821897 124 17.75 C123.31321754 18.98225082 122.62645007 20.21451 121.93969727 21.44677734 C118.34547166 27.88307849 114.70535442 34.28840982 110.9375 40.625 C106.672938 47.82196481 102.46473529 55.0500942 98.3125 62.3125 C97.67497803 63.40578613 97.03745605 64.49907227 96.38061523 65.62548828 C95.79739502 66.65270996 95.2141748 67.67993164 94.61328125 68.73828125 C94.08516846 69.65649658 93.55705566 70.57471191 93.01293945 71.52075195 C91.86232399 74.33697274 91.86147112 75.23505162 93 78 C93.62712969 79.328679 94.30188987 80.63547595 95.01171875 81.921875 C95.43251709 82.68741699 95.85331543 83.45295898 96.28686523 84.24169922 C96.74907471 85.06943848 97.21128418 85.89717773 97.6875 86.75 C98.17226807 87.62543457 98.65703613 88.50086914 99.15649414 89.40283203 C103.55635062 97.30243229 108.13020522 105.09749752 112.7109375 112.89306641 C119.83229941 125.05545846 126.73034645 137.37441846 133 150 C88.72739369 154.048638 88.72739369 154.048638 80.35351562 147.74121094 C75.32839054 142.22706361 72.75788294 135.86860787 70.77050781 128.74511719 C69.87120434 125.54113484 68.6143648 122.89367275 67 120 C64.08196819 123.47983678 61.74586063 126.98664053 59.546875 130.95703125 C58.70914551 132.46100464 58.70914551 132.46100464 57.85449219 133.99536133 C57.16000977 135.25501709 56.46552734 136.51467285 55.75 137.8125 C52.40875 143.8453125 52.40875 143.8453125 49 150 C32.83 150 16.66 150 0 150 C1.48822355 146.27944113 2.98190686 143.05933896 4.9140625 139.58984375 C5.50251953 138.53095947 6.09097656 137.4720752 6.69726562 136.38110352 C7.33341797 135.24471436 7.96957031 134.1083252 8.625 132.9375 C9.29108817 131.74344867 9.95710248 130.54935613 10.62304688 129.35522461 C16.79128382 118.31181589 23.05416399 107.32230886 29.34375 96.34765625 C29.94316406 95.29336426 30.54257812 94.23907227 31.16015625 93.15283203 C32.41738931 90.99838568 33.71936485 88.86959389 35.05859375 86.76513672 C38.76660402 81.00437334 38.76660402 81.00437334 40.328125 74.46875 C38.30206353 69.17715415 35.59991768 64.38837427 32.75 59.5 C31.80761475 57.85209473 31.80761475 57.85209473 30.84619141 56.17089844 C29.54201231 53.89079189 28.23353996 51.61313593 26.92089844 49.33789062 C24.0377773 44.32797296 21.20941701 39.28756941 18.375 34.25 C15.1154473 28.47331767 11.83736363 22.70827937 8.51953125 16.96484375 C7.96023926 15.99450195 7.40094727 15.02416016 6.82470703 14.02441406 C5.75526257 12.17130571 4.6821753 10.32029358 3.60498047 8.47167969 C3.1307666 7.64958008 2.65655273 6.82748047 2.16796875 5.98046875 C1.74797607 5.25754639 1.3279834 4.53462402 0.89526367 3.78979492 C0 2 0 2 0 0 Z " fill="#16537B" transform="translate(653,212)"/>
<path d="M0 0 C31.02 0 62.04 0 94 0 C96 37 96 37 96 41 C79.17 41 62.34 41 45 41 C45 47.6 45 54.2 45 61 C58.86 61 72.72 61 87 61 C87 74.53 87 88.06 87 102 C73.47 102 59.94 102 46 102 C46 117.84 46 133.68 46 150 C30.82 150 15.64 150 0 150 C0 100.5 0 51 0 0 Z " fill="#1A5882" transform="translate(431,212)"/>
<path d="M0 0 C2.97 0 5.94 0 9 0 C11.01839524 5.04598811 12.52717637 9.88020899 13.5703125 15.21484375 C13.83876694 17.01276612 13.83876694 17.01276612 15 18 C15.27714844 16.78441406 15.55429687 15.56882812 15.83984375 14.31640625 C16.20553898 12.73172693 16.57143475 11.14709388 16.9375 9.5625 C17.11990234 8.76005859 17.30230469 7.95761719 17.49023438 7.13085938 C18.88671875 1.11328125 18.88671875 1.11328125 20 0 C23.3 0 26.6 0 30 0 C30 13.2 30 26.4 30 40 C27.36 40 24.72 40 22 40 C21.67 34.39 21.34 28.78 21 23 C19.68 28.61 18.36 34.22 17 40 C15.35 40 13.7 40 12 40 C10.68 33.73 9.36 27.46 8 21 C7.67 27.27 7.34 33.54 7 40 C4.69 40 2.38 40 0 40 C0 26.8 0 13.6 0 0 Z " fill="#E45C22" transform="translate(673,422)"/>
<path d="M0 0 C2.64 0 5.28 0 8 0 C11.26549728 6.18111986 13.68987729 12.39964941 16 19 C16.33 12.73 16.66 6.46 17 0 C19.64 0 22.28 0 25 0 C25 13.2 25 26.4 25 40 C22.36 40 19.72 40 17 40 C16.2272795 38.16746128 15.45693039 36.33392258 14.6875 34.5 C14.25824219 33.4790625 13.82898438 32.458125 13.38671875 31.40625 C11.85073513 27.63335501 10.43032634 23.81420357 9 20 C8.67 26.6 8.34 33.2 8 40 C5.36 40 2.72 40 0 40 C0 26.8 0 13.6 0 0 Z " fill="#DD6938" transform="translate(455,422)"/>
<path d="M0 0 C2.64 0 5.28 0 8 0 C10.93937169 5.57467045 13.11994266 10.98381653 15 17 C15.33 11.39 15.66 5.78 16 0 C18.64 0 21.28 0 24 0 C24 13.2 24 26.4 24 40 C21.69 40 19.38 40 17 40 C16.22377806 38.5027814 15.4543539 37.00203832 14.6875 35.5 C14.25824219 34.6646875 13.82898438 33.829375 13.38671875 32.96875 C11.72019336 29.40097734 10.38265566 25.68708177 9 22 C8.67 27.94 8.34 33.88 8 40 C5.36 40 2.72 40 0 40 C0 26.8 0 13.6 0 0 Z " fill="#E06128" transform="translate(737,422)"/>
<path d="M0 0 C2.64 0 5.28 0 8 0 C11.58719576 5.38079365 13.18132788 11.61435743 14 18 C14.66 18 15.32 18 16 18 C16 12.06 16 6.12 16 0 C18.64 0 21.28 0 24 0 C24 13.2 24 26.4 24 40 C21.69 40 19.38 40 17 40 C16.22099321 38.52512154 15.45232941 37.04478001 14.6875 35.5625 C14.25824219 34.73878906 13.82898438 33.91507812 13.38671875 33.06640625 C11.62326033 29.16692778 10.35335575 25.06006726 9 21 C8.67 27.27 8.34 33.54 8 40 C5.36 40 2.72 40 0 40 C0 26.8 0 13.6 0 0 Z " fill="#E95B19" transform="translate(639,422)"/>
<path d="M0 0 C16 0 16 0 21 4 C21.55859375 7.34765625 21.55859375 7.34765625 21.4375 11.0625 C21.41558594 12.29097656 21.39367187 13.51945312 21.37109375 14.78515625 C21 18 21 18 19 21 C18.34 21 17.68 21 17 21 C17.3609375 22.03640625 17.721875 23.0728125 18.09375 24.140625 C18.5628193 25.51030736 19.03155166 26.88010514 19.5 28.25 C19.73847656 28.93191406 19.97695313 29.61382812 20.22265625 30.31640625 C21.39421287 33.76413003 22 36.31702904 22 40 C19.36 40 16.72 40 14 40 C13.34956281 38.27255984 12.70485156 36.5429631 12.0625 34.8125 C11.70285156 33.84957031 11.34320312 32.88664062 10.97265625 31.89453125 C10 29 10 29 9 24 C8.67 29.28 8.34 34.56 8 40 C5.36 40 2.72 40 0 40 C0 26.8 0 13.6 0 0 Z " fill="#E26128" transform="translate(538,422)"/>
<path d="M0 0 C1.79244141 0.01740234 1.79244141 0.01740234 3.62109375 0.03515625 C5.41740234 0.04869141 5.41740234 0.04869141 7.25 0.0625 C8.17683594 0.07410156 9.10367188 0.08570313 10.05859375 0.09765625 C10.27793579 1.58930298 10.27793579 1.58930298 10.50170898 3.11108398 C11.04359418 6.78863088 11.5909071 10.46535261 12.13989258 14.1418457 C12.37706064 15.73537451 12.6127417 17.32912535 12.84692383 18.9230957 C13.18313278 21.20974305 13.52462257 23.49554736 13.8671875 25.78125 C13.97139511 26.49792343 14.07560272 27.21459686 14.18296814 27.95298767 C14.45218867 31.31460503 14.45218867 31.31460503 16.05859375 34.09765625 C16.09940158 36.09723989 16.10113731 38.09810879 16.05859375 40.09765625 C13.41859375 40.09765625 10.77859375 40.09765625 8.05859375 40.09765625 C7.72859375 38.11765625 7.39859375 36.13765625 7.05859375 34.09765625 C4.41859375 34.09765625 1.77859375 34.09765625 -0.94140625 34.09765625 C-0.94140625 36.07765625 -0.94140625 38.05765625 -0.94140625 40.09765625 C-3.91140625 40.09765625 -6.88140625 40.09765625 -9.94140625 40.09765625 C-9.32000326 35.65964496 -8.69361859 31.22234994 -8.06640625 26.78515625 C-7.89238281 25.54185547 -7.71835937 24.29855469 -7.5390625 23.01757812 C-4.29694826 0.14266096 -4.29694826 0.14266096 0 0 Z " fill="#DF6531" transform="translate(597.94140625,421.90234375)"/>
<path d="M0 0 C5.61 0 11.22 0 17 0 C17 2.31 17 4.62 17 7 C14.03 7 11.06 7 8 7 C8.33 9.64 8.66 12.28 9 15 C11.31 15.33 13.62 15.66 16 16 C16 17.98 16 19.96 16 22 C13.69 22 11.38 22 9 22 C9 25.3 9 28.6 9 32 C11.64 32 14.28 32 17 32 C17 34.64 17 37.28 17 40 C11.39 40 5.78 40 0 40 C0 26.8 0 13.6 0 0 Z " fill="#E85919" transform="translate(430,422)"/>
<path d="M0 0 C5.28 0 10.56 0 16 0 C16 2.31 16 4.62 16 7 C13.36 7 10.72 7 8 7 C8 9.64 8 12.28 8 15 C10.64 15 13.28 15 16 15 C16 17.31 16 19.62 16 22 C13.36 22 10.72 22 8 22 C8 25.63 8 29.26 8 33 C10.64 33 13.28 33 16 33 C16 35.31 16 37.62 16 40 C10.72 40 5.44 40 0 40 C0 26.8 0 13.6 0 0 Z " fill="#E15F26" transform="translate(513,422)"/>
<path d="M0 0 C5.28 0 10.56 0 16 0 C16 2.31 16 4.62 16 7 C13.36 7 10.72 7 8 7 C8 9.97 8 12.94 8 16 C10.64 16 13.28 16 16 16 C16 17.98 16 19.96 16 22 C13.36 22 10.72 22 8 22 C8 25.63 8 29.26 8 33 C10.64 33 13.28 33 16 33 C16 35.31 16 37.62 16 40 C10.72 40 5.44 40 0 40 C0 26.8 0 13.6 0 0 Z " fill="#DF5D24" transform="translate(712,422)"/>
<path d="M0 0 C5.61 0 11.22 0 17 0 C17 2.31 17 4.62 17 7 C15.68 7 14.36 7 13 7 C13 17.89 13 28.78 13 40 C10.03 40 7.06 40 4 40 C4 29.11 4 18.22 4 7 C2.68 7 1.36 7 0 7 C0 4.69 0 2.38 0 0 Z " fill="#E9652A" transform="translate(567,422)"/>
<path d="M0 0 C2.7225 -0.0825 5.445 -0.165 8.25 -0.25 C9.10110352 -0.28641602 9.95220703 -0.32283203 10.82910156 -0.36035156 C14.53936465 -0.41483671 16.42015035 -0.41637179 19.5078125 1.80078125 C21.74199482 5.09356828 21.6812433 7.11691321 21 11 C19.16837359 13.11748718 17.33874136 14.39211532 15 16 C15.5053125 16.48210937 16.010625 16.96421875 16.53125 17.4609375 C17.1809375 18.09257812 17.830625 18.72421875 18.5 19.375 C19.1496875 20.00148438 19.799375 20.62796875 20.46875 21.2734375 C22 23 22 23 22 25 C19.4375 25.5 19.4375 25.5 16 25 C14.00307928 23.11902952 12.37466258 21.12455802 10.7109375 18.9453125 C8.89394268 16.63341424 8.89394268 16.63341424 5 15 C5 18.3 5 21.6 5 25 C3.35 25 1.7 25 0 25 C0 16.75 0 8.5 0 0 Z " fill="#D87E55" transform="translate(563,381)"/>
<path d="M0 0 C5.94 0 11.88 0 18 0 C18 2.31 18 4.62 18 7 C16.35 7 14.7 7 13 7 C13 17.89 13 28.78 13 40 C10.36 40 7.72 40 5 40 C5 29.11 5 18.22 5 7 C3.35 7 1.7 7 0 7 C0 4.69 0 2.38 0 0 Z " fill="#E16129" transform="translate(769,422)"/>
<path d="M0 0 C5.94 0 11.88 0 18 0 C18 2.31 18 4.62 18 7 C16.35 7 14.7 7 13 7 C13 17.89 13 28.78 13 40 C10.36 40 7.72 40 5 40 C5 29.11 5 18.22 5 7 C3.35 7 1.7 7 0 7 C0 4.69 0 2.38 0 0 Z " fill="#DF6129" transform="translate(487,422)"/>
<path d="M0 0 C5 0 5 0 7.31640625 2.1953125 C8.05761719 3.16210938 8.79882812 4.12890625 9.5625 5.125 C10.30628906 6.07632812 11.05007813 7.02765625 11.81640625 8.0078125 C13.96079018 10.94627063 15.98216272 13.97324409 18 17 C18.33 11.39 18.66 5.78 19 0 C20.65 0 22.3 0 24 0 C24 8.25 24 16.5 24 25 C18 25 18 25 16.21728516 23.53125 C15.74597168 22.8609375 15.2746582 22.190625 14.7890625 21.5 C14.26699219 20.778125 13.74492188 20.05625 13.20703125 19.3125 C12.68496094 18.549375 12.16289063 17.78625 11.625 17 C11.07972656 16.236875 10.53445313 15.47375 9.97265625 14.6875 C8.63076038 12.80413737 7.31299195 10.90362587 6 9 C5.67 14.28 5.34 19.56 5 25 C3.35 25 1.7 25 0 25 C0 16.75 0 8.5 0 0 Z " fill="#D78055" transform="translate(600,381)"/>
<path d="M0 0 C2.31 0 4.62 0 7 0 C9.66697215 5.1434463 11.98694989 10.29671295 14.0703125 15.703125 C14.9559702 18.00380817 14.9559702 18.00380817 16.1171875 20.109375 C17 22 17 22 17 25 C15.35 25 13.7 25 12 25 C11.34 23.02 10.68 21.04 10 19 C3.565 19.495 3.565 19.495 -3 20 C-3.99 22.475 -3.99 22.475 -5 25 C-6.65 25 -8.3 25 -10 25 C-7.37589493 16.35588919 -3.68616238 8.23074615 0 0 Z " fill="#DE6A36" transform="translate(648,381)"/>
<path d="M0 0 C2.64 0 5.28 0 8 0 C10.28422322 5.65313345 12.53248109 11.3203718 14.75 17 C15.17796875 18.093125 15.6059375 19.18625 16.046875 20.3125 C17 23 17 23 17 25 C15.35 25 13.7 25 12 25 C11.67 23.02 11.34 21.04 11 19 C6.38 19.33 1.76 19.66 -3 20 C-3.99 22.475 -3.99 22.475 -5 25 C-6.65 25 -8.3 25 -10 25 C-7.37589493 16.35588919 -3.68616238 8.23074615 0 0 Z " fill="#DB6D3B" transform="translate(440,381)"/>
<path d="M0 0 C2.64 0 5.28 0 8 0 C8 13.2 8 26.4 8 40 C5.36 40 2.72 40 0 40 C0 26.8 0 13.6 0 0 Z " fill="#DB6430" transform="translate(622,422)"/>
<path d="M0 0 C31.02 0 62.04 0 94 0 C94 4.62 94 9.24 94 14 C93.34 14 92.68 14 92 14 C92 10.04 92 6.08 92 2 C90.26148018 2.24447876 90.26148018 2.24447876 88.48783875 2.49389648 C84.37383275 3.00572582 80.34376859 3.11415118 76.19458008 3.09765625 C75.46017197 3.09619598 74.72576385 3.09473572 73.96910095 3.0932312 C72.39009224 3.08945401 70.81108764 3.08336853 69.23209572 3.07516479 C66.73070552 3.06230032 64.22936889 3.05586049 61.72795105 3.05102539 C56.42277648 3.03965157 51.11764654 3.02039564 45.8125 3 C39.65124003 2.97636434 33.49000524 2.95599742 27.32871056 2.94406128 C24.86866731 2.93759628 22.40870228 2.92509249 19.94868469 2.91235352 C18.43820259 2.90872045 16.92771977 2.90536879 15.41723633 2.90234375 C14.10233719 2.89710693 12.78743805 2.89187012 11.43269348 2.88647461 C8.47490178 2.98429414 5.86697056 3.30466958 3 4 C2.17316975 10.59404481 1.80194876 17.0808328 1.68359375 23.72265625 C1.66281265 24.70874374 1.64203156 25.69483124 1.62062073 26.71080017 C1.55579082 29.82796985 1.49655316 32.94521608 1.4375 36.0625 C1.39425131 38.1894607 1.35063511 40.31641397 1.30664062 42.44335938 C1.20017873 47.62882994 1.09872843 52.81437666 1 58 C0.67 58 0.34 58 0 58 C0 38.86 0 19.72 0 0 Z " fill="#4D80A1" transform="translate(431,212)"/>
<path d="M0 0 C1.65 0 3.3 0 5 0 C5 12.87 5 25.74 5 39 C2.69 39 0.38 39 -2 39 C-2.31453125 38.23816406 -2.6290625 37.47632813 -2.953125 36.69140625 C-5.31320272 30.99736333 -7.70918356 25.33512166 -10.30078125 19.7421875 C-11 18 -11 18 -11 16 C-10.01 16 -9.02 16 -8 16 C-7.34 17.98 -6.68 19.96 -6 22 C-4.35 21.34 -2.7 20.68 -1 20 C-0.67 13.4 -0.34 6.8 0 0 Z " fill="#E35D20" transform="translate(474,423)"/>
<path d="M0 0 C2.64 0 5.28 0 8 0 C8 12.54 8 25.08 8 38 C6.02 38 4.04 38 2 38 C2 30.74 2 23.48 2 16 C0.35 16.33 -1.3 16.66 -3 17 C-3.0272415 15.58344207 -3.04650467 14.16672955 -3.0625 12.75 C-3.07410156 11.96109375 -3.08570313 11.1721875 -3.09765625 10.359375 C-3.00385306 8.09308998 -2.63241063 6.1711105 -2 4 C-1.34 4 -0.68 4 0 4 C0 2.68 0 1.36 0 0 Z " fill="#E65819" transform="translate(694,423)"/>
<path d="M0 0 C1.98 0 3.96 0 6 0 C6 12.54 6 25.08 6 38 C1 37 1 37 -0.625 34.9375 C-5 25.59090909 -5 25.59090909 -5 22 C-4.34 22 -3.68 22 -3 22 C-3 21.34 -3 20.68 -3 20 C-3.66 20 -4.32 20 -5 20 C-5 19.01 -5 18.02 -5 17 C-2.525 17.99 -2.525 17.99 0 19 C0 12.73 0 6.46 0 0 Z " fill="#E6591A" transform="translate(754,423)"/>
<path d="M0 0 C6.27 0 12.54 0 19 0 C19 1.32 19 2.64 19 4 C14.38 4 9.76 4 5 4 C5 6.31 5 8.62 5 11 C9.29 11 13.58 11 18 11 C18 11.99 18 12.98 18 14 C13.71 14 9.42 14 5 14 C5 16.31 5 18.62 5 21 C9.62 21 14.24 21 19 21 C19 22.32 19 23.64 19 25 C12.73 25 6.46 25 0 25 C0 16.75 0 8.5 0 0 Z " fill="#D77448" transform="translate(768,381)"/>
<path d="M0 0 C1.98 0 3.96 0 6 0 C6 11.88 6 23.76 6 36 C4.02 36 2.04 36 0 36 C-3.1533333 32.41172418 -3.54394476 28.65176347 -4 24 C-4.66 24 -5.32 24 -6 24 C-5.67 22.68 -5.34 21.36 -5 20 C-3.35 19.67 -1.7 19.34 0 19 C0 12.73 0 6.46 0 0 Z " fill="#E95817" transform="translate(657,424)"/>
<path d="M0 0 C5.94 0 11.88 0 18 0 C18 1.32 18 2.64 18 4 C13.71 4 9.42 4 5 4 C5 5.98 5 7.96 5 10 C9.29 10 13.58 10 18 10 C18 11.32 18 12.64 18 14 C13.38 14 8.76 14 4 14 C4 16.31 4 18.62 4 21 C8.62 21 13.24 21 18 21 C18 22.32 18 23.64 18 25 C12.06 25 6.12 25 0 25 C0 16.75 0 8.5 0 0 Z " fill="#D7693A" transform="translate(529,381)"/>
<path d="M0 0 C5.61 0 11.22 0 17 0 C17 2.31 17 4.62 17 7 C16.67 7 16.34 7 16 7 C16 5.02 16 3.04 16 1 C11.38 1 6.76 1 2 1 C2.33 11.56 2.66 22.12 3 33 C5.40932954 28.98445076 6.38489368 27.30574422 7 23 C7.66 23 8.32 23 9 23 C9 25.97 9 28.94 9 32 C11.64 32 14.28 32 17 32 C17 34.64 17 37.28 17 40 C11.39 40 5.78 40 0 40 C0 26.8 0 13.6 0 0 Z " fill="#DA7548" transform="translate(430,422)"/>
<path d="M0 0 C0.33 0 0.66 0 1 0 C1.62816396 5.02531165 -0.39693218 8.83857385 -3 13 C-3.50144531 13.50015625 -4.00289062 14.0003125 -4.51953125 14.515625 C-6.13402555 16.13437918 -6.91437666 17.55923476 -7.875 19.625 C-10.90969353 25.93855781 -14.34773998 32.02357452 -18 38 C-19.485 40.475 -19.485 40.475 -21 43 C-6.15 43 8.7 43 24 43 C24.33 41.35 24.66 39.7 25 38 C26.19140625 35.98046875 26.19140625 35.98046875 27.5625 34.1875 C28.01753906 33.58292969 28.47257813 32.97835937 28.94140625 32.35546875 C29.46541016 31.68451172 29.46541016 31.68451172 30 31 C30.495 31.99 30.495 31.99 31 33 C28.69 37.29 26.38 41.58 24 46 C7.83 46 -8.34 46 -25 46 C-23.44412307 42.11030767 -21.83272507 38.73100744 -19.8046875 35.09765625 C-19.1744165 33.96561768 -18.54414551 32.8335791 -17.89477539 31.66723633 C-17.22163387 30.46559204 -16.54837349 29.26401432 -15.875 28.0625 C-15.1930965 26.84084022 -14.51137478 25.61907896 -13.82983398 24.3972168 C-9.27231753 16.23490126 -4.68162888 8.09188889 0 0 Z " fill="#233E56" transform="translate(678,316)"/>
<path d="M0 0 C1.65 0 3.3 0 5 0 C5.4125 0.969375 5.825 1.93875 6.25 2.9375 C7.84696808 6.68158785 9.53082794 10.38356192 11.23046875 14.08203125 C12 16 12 16 12 18 C12.66 18 13.32 18 14 18 C14.17015625 17.45472656 14.3403125 16.90945313 14.515625 16.34765625 C16.32540814 10.71615022 18.50345378 5.36060431 21 0 C22.65 0 24.3 0 26 0 C24.36702618 5.29220311 22.19887641 10.26789108 19.9375 15.3125 C19.57333984 16.13556641 19.20917969 16.95863281 18.83398438 17.80664062 C16.12948754 23.87051246 16.12948754 23.87051246 15 25 C13.33382885 25.04063832 11.66611905 25.042721 10 25 C7.33302785 19.8565537 5.01305011 14.70328705 2.9296875 9.296875 C2.0440298 6.99619183 2.0440298 6.99619183 0.8828125 4.890625 C0 3 0 3 0 0 Z " fill="#DB6C3C" transform="translate(728,381)"/>
<path d="M0 0 C2.72695083 2.72695083 2.77925288 4.97391183 3.5 8.75 C3.62673096 9.41378662 3.75346191 10.07757324 3.8840332 10.76147461 C7.16928572 28.34038437 7.16928572 28.34038437 7 37 C1.125 36.125 1.125 36.125 0 35 C-0.04063832 33.33382885 -0.042721 31.66611905 0 30 C-2.64 30 -5.28 30 -8 30 C-8 29.67 -8 29.34 -8 29 C-5.69 29 -3.38 29 -1 29 C-1 28.34 -1 27.68 -1 27 C-1.66 26.67 -2.32 26.34 -3 26 C-2.01 26 -1.02 26 0 26 C-0.28875 24.845 -0.5775 23.69 -0.875 22.5 C-2.46559739 15.4218416 -3.16975266 8.19842111 -4 1 C-2.125 0.375 -2.125 0.375 0 0 Z " fill="#E95B19" transform="translate(606,424)"/>
<path d="M0 0 C0.33 0 0.66 0 1 0 C2.34862385 40.66972477 2.34862385 40.66972477 1 60 C14.53 59.67 28.06 59.34 42 59 C41.979375 54.936875 41.95875 50.87375 41.9375 46.6875 C41.90946751 35.42390878 42.23359321 24.23607104 43 13 C43.33 13 43.66 13 44 13 C44 29.17 44 45.34 44 62 C29.48 62 14.96 62 0 62 C0 41.54 0 21.08 0 0 Z " fill="#082F51" transform="translate(432,300)"/>
<path d="M0 0 C6.27 0 12.54 0 19 0 C19 1.32 19 2.64 19 4 C16.69 4 14.38 4 12 4 C12 10.93 12 17.86 12 25 C10.35 25 8.7 25 7 25 C7 18.07 7 11.14 7 4 C4.69 4 2.38 4 0 4 C0 2.68 0 1.36 0 0 Z " fill="#DA764C" transform="translate(495,381)"/>
<path d="M0 0 C6.27 0 12.54 0 19 0 C19 1.32 19 2.64 19 4 C16.69 4 14.38 4 12 4 C12 10.93 12 17.86 12 25 C10.35 25 8.7 25 7 25 C7 18.07 7 11.14 7 4 C4.69 4 2.38 4 0 4 C0 2.68 0 1.36 0 0 Z " fill="#DF6D3A" transform="translate(675,381)"/>
<path d="M0 0 C15.84 0 31.68 0 48 0 C48.66 1.32 49.32 2.64 50 4 C49.01 3.67 48.02 3.34 47 3 C45.57281363 2.91389486 44.14193352 2.88228172 42.7121582 2.88647461 C41.85149246 2.88655014 40.99082672 2.88662567 40.1040802 2.88670349 C39.17899155 2.89186478 38.25390289 2.89702606 37.30078125 2.90234375 C36.35059616 2.9037587 35.40041107 2.90517365 34.4214325 2.90663147 C31.38508971 2.91223125 28.34882052 2.92478368 25.3125 2.9375 C23.25455836 2.94251503 21.19661556 2.94707793 19.13867188 2.95117188 C14.09241954 2.9622006 9.04622225 2.97946507 4 3 C4.28875 3.55429688 4.5775 4.10859375 4.875 4.6796875 C5.431875 5.76636719 5.431875 5.76636719 6 6.875 C6.556875 7.95394531 6.556875 7.95394531 7.125 9.0546875 C8 11 8 11 8 13 C8.66 13 9.32 13 10 13 C11.70400669 15.92821855 13.38524739 18.868888 15.0625 21.8125 C15.54783203 22.64587891 16.03316406 23.47925781 16.53320312 24.33789062 C17.21479492 25.54155273 17.21479492 25.54155273 17.91015625 26.76953125 C18.33433838 27.50792236 18.75852051 28.24631348 19.19555664 29.00708008 C20 31 20 31 19 34 C14.71341355 29.20728647 11.94309764 23.63503459 8.9375 18 C7.88501906 16.04118042 6.83166227 14.08283113 5.77734375 12.125 C5.08499634 10.82949219 5.08499634 10.82949219 4.37866211 9.5078125 C3.40997742 7.7457567 2.3871096 6.012938 1.32641602 4.3046875 C0 2 0 2 0 0 Z " fill="#5185A1" transform="translate(653,212)"/>
<path d="M0 0 C2.375 0.4375 2.375 0.4375 5 2 C6.07001562 4.94119871 6.57343918 7.90584243 7 11 C7.66 11 8.32 11 9 11 C9.33773437 11.69867188 9.67546875 12.39734375 10.0234375 13.1171875 C10.46945312 14.02726562 10.91546875 14.93734375 11.375 15.875 C11.81585937 16.77992188 12.25671875 17.68484375 12.7109375 18.6171875 C13.90502699 21.09534472 13.90502699 21.09534472 16 23 C16.4640625 24.2375 16.4640625 24.2375 16.9375 25.5 C17.8583474 28.30191747 17.8583474 28.30191747 21 30 C23.11967649 30.28868253 23.11967649 30.28868253 25.47143555 30.22705078 C26.37214279 30.22689972 27.27285004 30.22674866 28.20085144 30.22659302 C29.16968765 30.21627045 30.13852386 30.20594788 31.13671875 30.1953125 C32.13129593 30.1924826 33.12587311 30.18965271 34.15058899 30.18673706 C37.3296813 30.17553489 40.50849272 30.15043014 43.6875 30.125 C45.84179281 30.11497025 47.99609003 30.10584439 50.15039062 30.09765625 C55.43368972 30.07559546 60.71682479 30.04211756 66 30 C66.495 31.485 66.495 31.485 67 33 C22.7360847 37.04784323 22.7360847 37.04784323 14.36962891 30.75732422 C9.3574632 25.25382509 6.8528356 18.91652829 4.85302734 11.81982422 C3.7395044 8.13888833 1.9948717 5.2680033 0 2 C0 1.34 0 0.68 0 0 Z " fill="#1C364E" transform="translate(719,329)"/>
<path d="M0 0 C3.51716303 3.51716303 3.54676163 5.19567333 4 10 C7.63 10.33 11.26 10.66 15 11 C14.67 12.32 14.34 13.64 14 15 C15.41436888 16.94555636 15.41436888 16.94555636 17.4375 18.625 C18.65561636 19.71677552 19.85051634 20.83618362 21 22 C21 22.66 21 23.32 21 24 C18.4375 24.5 18.4375 24.5 15 24 C13.02418989 22.1021824 11.38376277 20.05741051 9.6796875 17.9140625 C7.69628726 15.65390874 5.91774628 14.70733243 3 14 C3 16.97 3 19.94 3 23 C2.01 23 1.02 23 0 23 C0 15.41 0 7.82 0 0 Z " fill="#E15719" transform="translate(564,382)"/>
<path d="M0 0 C0.99 0 1.98 0 3 0 C3 1.65 3 3.3 3 5 C4.79093191 5.08086147 6.58289628 5.13912702 8.375 5.1875 C9.37273437 5.22230469 10.37046875 5.25710938 11.3984375 5.29296875 C12.68621094 5.14794922 12.68621094 5.14794922 14 5 C14.66 4.01 15.32 3.02 16 2 C19.33773709 5.64116773 19.97864902 9.28607242 21 14 C19.35 14 17.7 14 16 14 C15.67 12.02 15.34 10.04 15 8 C10.38 8.33 5.76 8.66 1 9 C0.34 10.65 -0.32 12.3 -1 14 C-2.65 14 -4.3 14 -6 14 C-2.81715576 3.63882619 -2.81715576 3.63882619 0 0 Z " fill="#DE622B" transform="translate(436,392)"/>
<path d="M0 0 C16.17 0 32.34 0 49 0 C47 5 47 5 45 7 C45.33 5.35 45.66 3.7 46 2 C39.98490935 1.92032235 33.97353653 1.89963434 27.95800781 1.93286133 C25.91337231 1.93593767 23.86864682 1.92308441 21.82421875 1.89379883 C18.87852276 1.85439871 15.93790255 1.87288001 12.9921875 1.90234375 C12.0825827 1.87776596 11.17297791 1.85318817 10.23580933 1.8278656 C7.54545747 1.8883394 5.5205287 2.04591443 3 3 C0.41538299 5.72245031 -1.23845004 8.7087802 -3 12 C-4.30799504 13.68662519 -5.62842462 15.36466012 -7 17 C-7.33 16.01 -7.66 15.02 -8 14 C-5.36 9.38 -2.72 4.76 0 0 Z " fill="#5784A1" transform="translate(737,212)"/>
<path d="M0 0 C0.66 0 1.32 0 2 0 C2 5.61 2 11.22 2 17 C2.99 17.33 3.98 17.66 5 18 C5 23.94 5 29.88 5 36 C3.02 36 1.04 36 -1 36 C-1.0248456 31.83740639 -1.04292862 27.67485287 -1.05493164 23.51220703 C-1.0599392 22.09813687 -1.06674718 20.68407184 -1.07543945 19.27001953 C-1.08766256 17.22947927 -1.0932642 15.18900788 -1.09765625 13.1484375 C-1.10289307 11.92302246 -1.10812988 10.69760742 -1.11352539 9.43505859 C-1.00646676 6.19567151 -0.61478618 3.17816803 0 0 Z " fill="#EB5918" transform="translate(458,425)"/>
<path d="M0 0 C1.32 0 2.64 0 4 0 C4 6.93 4 13.86 4 21 C7.3 21 10.6 21 14 21 C14 22.32 14 23.64 14 25 C9.38 25 4.76 25 0 25 C0 16.75 0 8.5 0 0 Z " fill="#D66639" transform="translate(472,381)"/>
<path d="M0 0 C3.3 0 6.6 0 10 0 C10 13.2 10 26.4 10 40 C7.36 40 4.72 40 2 40 C1.96132813 38.22882813 1.96132813 38.22882813 1.921875 36.421875 C1.86558603 34.86454677 1.80823886 33.30725653 1.75 31.75 C1.73582031 30.97269531 1.72164062 30.19539063 1.70703125 29.39453125 C1.50650929 24.53383509 1.50650929 24.53383509 -1.046875 20.453125 C-2.01367188 19.73382813 -2.01367188 19.73382813 -3 19 C-2.67 19.99 -2.34 20.98 -2 22 C-2.99 22.66 -3.98 23.32 -5 24 C-7 21 -7 21 -6.625 18.8125 C-6.41875 18.214375 -6.2125 17.61625 -6 17 C-5.67 17.33 -5.34 17.66 -5 18 C-4.58427734 16.17662109 -4.58427734 16.17662109 -4.16015625 14.31640625 C-3.79446102 12.73172693 -3.42856525 11.14709388 -3.0625 9.5625 C-2.88009766 8.76005859 -2.69769531 7.95761719 -2.50976562 7.13085938 C-1.11328125 1.11328125 -1.11328125 1.11328125 0 0 Z M1 1 C1 2.32 1 3.64 1 5 C0.34 5 -0.32 5 -1 5 C-1.8723412 7.99480917 -2.10829766 10.63575911 -2.0625 13.75 C-2.05347656 14.54921875 -2.04445313 15.3484375 -2.03515625 16.171875 C-2.02355469 16.77515625 -2.01195312 17.3784375 -2 18 C-0.35 17.67 1.3 17.34 3 17 C3 24.26 3 31.52 3 39 C4.98 39 6.96 39 9 39 C9 26.46 9 13.92 9 1 C6.36 1 3.72 1 1 1 Z " fill="#D77D53" transform="translate(693,422)"/>
<path d="M0 0 C0.66 0 1.32 0 2 0 C2.96189997 1.72718516 3.91936508 3.45684058 4.875 5.1875 C5.67550781 6.63189453 5.67550781 6.63189453 6.4921875 8.10546875 C8 11 8 11 9.0625 13.6953125 C10.23291201 16.57257536 12.05365774 18.59951121 14 21 C14 21.66 14 22.32 14 23 C14.66 23 15.32 23 16 23 C16 23.66 16 24.32 16 25 C16.66 25 17.32 25 18 25 C20.125 26.875 20.125 26.875 22 29 C22 29.66 22 30.32 22 31 C22.61875 31.309375 23.2375 31.61875 23.875 31.9375 C25.25 32.625 26.625 33.3125 28 34 C28 34.66 28 35.32 28 36 C29.0725 36.268125 30.145 36.53625 31.25 36.8125 C34.60594493 37.87521589 36.38424318 38.77176271 39 41 C39.99 41.495 39.99 41.495 41 42 C41 42.66 41 43.32 41 44 C23.81045708 38.79790148 10.84897492 24.62117802 2.484375 9.20703125 C0.95297808 5.90158649 0 3.67305713 0 0 Z " fill="#1C3A54" transform="translate(530,312)"/>
<path d="M0 0 C0.33 0 0.66 0 1 0 C1.66 3.3 2.32 6.6 3 10 C3.66 9.34 4.32 8.68 5 8 C5 7.34 5 6.68 5 6 C5.99 6.33 6.98 6.66 8 7 C8.38614349 13.8218683 7.00865708 19.49577707 5 26 C3.68 26 2.36 26 1 26 C0.92652344 25.00419922 0.92652344 25.00419922 0.8515625 23.98828125 C0.73941406 22.66376953 0.73941406 22.66376953 0.625 21.3125 C0.55539062 20.44238281 0.48578125 19.57226562 0.4140625 18.67578125 C0.11397321 15.96785412 0.11397321 15.96785412 -1.09375 13.53125 C-2.23118835 10.35426702 -1.83461089 8.45959467 -1.125 5.1875 C-0.92132812 4.21167969 -0.71765625 3.23585938 -0.5078125 2.23046875 C-0.34023438 1.49441406 -0.17265625 0.75835937 0 0 Z " fill="#EA5A1B" transform="translate(685,435)"/>
<path d="M0 0 C1.65 0 3.3 0 5 0 C5 8.25 5 16.5 5 25 C3.35 25 1.7 25 0 25 C0 16.75 0 8.5 0 0 Z " fill="#D87242" transform="translate(708,381)"/>
<path d="M0 0 C4.62 0 9.24 0 14 0 C14 3.63 14 7.26 14 11 C9.71 11 5.42 11 1 11 C1 12.65 1 14.3 1 16 C5.29 16 9.58 16 14 16 C14 16.33 14 16.66 14 17 C9.38 17 4.76 17 0 17 C0 14.69 0 12.38 0 10 C4.29 10 8.58 10 13 10 C13 9.01 13 8.02 13 7 C8.71 7 4.42 7 0 7 C0 4.69 0 2.38 0 0 Z " fill="#F9E1D5" transform="translate(773,385)"/>
<path d="M0 0 C1.38094849 0.00519653 1.38094849 0.00519653 2.78979492 0.01049805 C9.76284403 0.12162967 16.07995953 0.98781857 22.6875 3.3125 C23.51121094 3.59867188 24.33492187 3.88484375 25.18359375 4.1796875 C27.03251293 4.85260436 28.86308972 5.57571892 30.6875 6.3125 C30.3575 6.9725 30.0275 7.6325 29.6875 8.3125 C28.97980469 8.01601562 28.27210938 7.71953125 27.54296875 7.4140625 C9.672496 0.52011815 -10.47804407 2.0212042 -28.3125 8.3125 C-28.9725 7.6525 -29.6325 6.9925 -30.3125 6.3125 C-28.6695741 5.67989676 -27.02295109 5.05689451 -25.375 4.4375 C-24.00021484 3.91542969 -24.00021484 3.91542969 -22.59765625 3.3828125 C-15.02241301 0.91477844 -7.96191698 -0.04890881 0 0 Z " fill="#487B9A" transform="translate(599.3125,211.6875)"/>
<path d="M0 0 C5.28 0.33 10.56 0.66 16 1 C16 1.33 16 1.66 16 2 C11.71 2 7.42 2 3 2 C3 3.98 3 5.96 3 8 C7.29 8 11.58 8 16 8 C16 9.32 16 10.64 16 12 C11.38 12 6.76 12 2 12 C2 14.97 2 17.94 2 21 C1.34 21 0.68 21 0 21 C0 14.07 0 7.14 0 0 Z " fill="#E76C36" transform="translate(531,383)"/>
<path d="M0 0 C1.65 0 3.3 0 5 0 C5 11.88 5 23.76 5 36 C4.67 36 4.34 36 4 36 C3.67 30.06 3.34 24.12 3 18 C2.01 18.33 1.02 18.66 0 19 C0 12.73 0 6.46 0 0 Z " fill="#E95515" transform="translate(474,423)"/>
<path d="M0 0 C-1.02621072 2.70546462 -1.72080394 3.83316333 -4.2421875 5.33984375 C-12.54959446 10.34076154 -21.36525197 18.52783101 -25.625 27.375 C-27 30 -27 30 -29.1875 30.875 C-29.785625 30.91625 -30.38375 30.9575 -31 31 C-28.29917561 23.44301353 -22.81696328 17.41112863 -17 12 C-16.22269531 11.27554688 -15.44539062 10.55109375 -14.64453125 9.8046875 C-3.97286977 0 -3.97286977 0 0 0 Z " fill="#3E6F8F" transform="translate(565,221)"/>
<path d="M0 0 C0.66 0 1.32 0 2 0 C2 11.55 2 23.1 2 35 C1.01 35 0.02 35 -1 35 C-1.0246519 30.17619198 -1.04283693 25.35242033 -1.05493164 20.52856445 C-1.05997174 18.88630536 -1.06680378 17.24405077 -1.07543945 15.60180664 C-1.08751926 13.24624521 -1.09323139 10.89074291 -1.09765625 8.53515625 C-1.10281754 7.79660904 -1.10797882 7.05806183 -1.11329651 6.2971344 C-1.1134925 4.53101912 -1.06194719 2.76502854 -1 1 C-0.67 0.67 -0.34 0.34 0 0 Z " fill="#E45B1A" transform="translate(626,425)"/>
<path d="M0 0 C1.65 0 3.3 0 5 0 C3.36368504 5.3223297 1.16119959 10.30981576 -1.125 15.375 C-1.49753906 16.20644531 -1.87007812 17.03789062 -2.25390625 17.89453125 C-3.16673546 19.93084255 -4.08215598 21.96594539 -5 24 C-6.65 24 -8.3 24 -10 24 C-10 22.68 -10 21.36 -10 20 C-8.68 19.67 -7.36 19.34 -6 19 C-5.81824219 18.13117188 -5.63648438 17.26234375 -5.44921875 16.3671875 C-2.95254833 4.92091388 -2.95254833 4.92091388 0 0 Z " fill="#E0622A" transform="translate(749,381)"/>
<path d="M0 0 C2.64 0 5.28 0 8 0 C8 0.66 8 1.32 8 2 C6.02 2 4.04 2 2 2 C2 14.21 2 26.42 2 39 C3.98 39 5.96 39 8 39 C8 39.33 8 39.66 8 40 C5.36 40 2.72 40 0 40 C0 26.8 0 13.6 0 0 Z " fill="#BE7251" transform="translate(639,422)"/>
<path d="M0 0 C0.33 0 0.66 0 1 0 C1 5.28 1 10.56 1 16 C1.66 16 2.32 16 3 16 C3 20.95 3 25.9 3 31 C3.66 31 4.32 31 5 31 C5 21.1 5 11.2 5 1 C5.33 1 5.66 1 6 1 C6 11.23 6 21.46 6 32 C4.02 32 2.04 32 0 32 C0 21.44 0 10.88 0 0 Z " fill="#EB5613" transform="translate(573,429)"/>
<path d="M0 0 C2.64 0 5.28 0 8 0 C8 13.2 8 26.4 8 40 C7.67 40 7.34 40 7 40 C7 27.13 7 14.26 7 1 C5.35 1 3.7 1 2 1 C2.01571045 1.59538574 2.0314209 2.19077148 2.04760742 2.80419922 C2.10985801 5.49437003 2.14895783 8.18438957 2.1875 10.875 C2.22520508 12.28072266 2.22520508 12.28072266 2.26367188 13.71484375 C2.27333984 14.61074219 2.28300781 15.50664062 2.29296875 16.4296875 C2.3086792 17.25710449 2.32438965 18.08452148 2.34057617 18.93701172 C2.22818604 19.61779785 2.1157959 20.29858398 2 21 C1.01 21.66 0.02 22.32 -1 23 C-1.33 21.68 -1.66 20.36 -2 19 C-1.67 19 -1.34 19 -1 19 C-0.67 12.73 -0.34 6.46 0 0 Z " fill="#E28250" transform="translate(472,422)"/>
<path d="M0 0 C1.65 0 3.3 0 5 0 C6.8125 2.5 6.8125 2.5 8 5 C6.35 5.33 4.7 5.66 3 6 C3 11.61 3 17.22 3 23 C2.01 23 1.02 23 0 23 C0 15.41 0 7.82 0 0 Z " fill="#E75A19" transform="translate(601,382)"/>
<path d="M0 0 C2.64 0 5.28 0 8 0 C8 13.2 8 26.4 8 40 C5.69 40 3.38 40 1 40 C-0.06775224 38.03533587 -1.06553465 36.03144641 -2 34 C-1.67 33.34 -1.34 32.68 -1 32 C1.2477975 34.05233685 2.0022242 35.00667261 3 38 C4.32 38.33 5.64 38.66 7 39 C7 26.46 7 13.92 7 1 C5.02 1 3.04 1 1 1 C1 7.27 1 13.54 1 20 C0.34 20 -0.32 20 -1 20 C-0.67 13.4 -0.34 6.8 0 0 Z " fill="#D87D52" transform="translate(753,422)"/>
<path d="M0 0 C5.61 0 11.22 0 17 0 C17 2.31 17 4.62 17 7 C15.68 6.67 14.36 6.34 13 6 C13.99 6 14.98 6 16 6 C16 4.68 16 3.36 16 2 C11.38 2 6.76 2 2 2 C2 3.32 2 4.64 2 6 C2.99 6 3.98 6 5 6 C5 17.22 5 28.44 5 40 C4.67 40 4.34 40 4 40 C4 29.11 4 18.22 4 7 C2.68 7 1.36 7 0 7 C0 4.69 0 2.38 0 0 Z " fill="#CB7751" transform="translate(567,422)"/>
<path d="M0 0 C4.62 0 9.24 0 14 0 C12.68 1.65 11.36 3.3 10 5 C11.32 5.66 12.64 6.32 14 7 C9.38 7 4.76 7 0 7 C0 4.69 0 2.38 0 0 Z " fill="#F8E8DB" transform="translate(533,395)"/>
<path d="M0 0 C1.64574566 -0.02688151 3.29161413 -0.04634123 4.9375 -0.0625 C5.85402344 -0.07410156 6.77054688 -0.08570313 7.71484375 -0.09765625 C10 0 10 0 11 1 C11.125 3.5 11.125 3.5 11 6 C10 7 10 7 7.71484375 7.09765625 C6.34005859 7.08025391 6.34005859 7.08025391 4.9375 7.0625 C4.01839844 7.05347656 3.09929688 7.04445313 2.15234375 7.03515625 C1.44207031 7.02355469 0.73179687 7.01195312 0 7 C0 4.69 0 2.38 0 0 Z " fill="#F6F3EB" transform="translate(568,385)"/>
<path d="M0 0 C4.42679007 1.47559669 4.91432696 3.90057368 7 8 C7 8.66 7 9.32 7 10 C7.66 10 8.32 10 9 10 C10.70400669 12.92821855 12.38524739 15.868888 14.0625 18.8125 C14.54783203 19.64587891 15.03316406 20.47925781 15.53320312 21.33789062 C16.21479492 22.54155273 16.21479492 22.54155273 16.91015625 23.76953125 C17.33433838 24.50792236 17.75852051 25.24631348 18.19555664 26.00708008 C19 28 19 28 18 31 C13.69783396 26.18864039 10.90166805 20.58948961 7.875 14.9375 C7.33746094 13.94427734 6.79992187 12.95105469 6.24609375 11.92773438 C4.11200563 7.9762121 1.98874143 4.02705559 0 0 Z " fill="#426E8D" transform="translate(654,215)"/>
<path d="M0 0 C1 2 1 2 0.39038086 4.79394531 C-1.17441352 8.56425053 -2.60798645 11.65628206 -6 14 C-13.48870944 16.12624241 -21.7588907 15.11616897 -29.4375 14.75 C-31.62159915 14.68977579 -33.80585663 14.63502832 -35.99023438 14.5859375 C-41.33028726 14.45399939 -46.66441255 14.25355312 -52 14 C-52 13.67 -52 13.34 -52 13 C-29.23 12.505 -29.23 12.505 -6 12 C-5.67 10.35 -5.34 8.7 -5 7 C-3.80859375 4.98046875 -3.80859375 4.98046875 -2.4375 3.1875 C-1.98246094 2.58292969 -1.52742187 1.97835938 -1.05859375 1.35546875 C-0.53458984 0.68451172 -0.53458984 0.68451172 0 0 Z " fill="#002748" transform="translate(708,347)"/>
<path d="M0 0 C3.63 0 7.26 0 11 0 C11 0.99 11 1.98 11 3 C12.3094328 4.59759452 12.3094328 4.59759452 14 6.0625 C15.6875 7.59765625 15.6875 7.59765625 17 9 C17 9.66 17 10.32 17 11 C14.4375 11.5 14.4375 11.5 11 11 C9.00077034 9.15554941 7.37739879 7.1905914 5.7109375 5.04296875 C3.82025598 2.62759673 3.82025598 2.62759673 0 0 Z " fill="#DB6D3E" transform="translate(568,395)"/>
<path d="M0 0 C5.28 0 10.56 0 16 0 C16 0.66 16 1.32 16 2 C11.71 2 7.42 2 3 2 C3 4.64 3 7.28 3 10 C2.67 10 2.34 10 2 10 C1.67 13.63 1.34 17.26 1 21 C0.67 21 0.34 21 0 21 C0 14.07 0 7.14 0 0 Z " fill="#E5591D" transform="translate(770,382)"/>
<path d="M0 0 C3.28670403 3.28670403 5 7.35868331 5 12 C3.35 12 1.7 12 0 12 C-0.66 10.02 -1.32 8.04 -2 6 C-6.29 6 -10.58 6 -15 6 C-15 5.67 -15 5.34 -15 5 C-14.08476563 4.97421875 -13.16953125 4.9484375 -12.2265625 4.921875 C-11.03804687 4.86515625 -9.84953125 4.8084375 -8.625 4.75 C-7.44164062 4.70359375 -6.25828125 4.6571875 -5.0390625 4.609375 C-1.88708247 4.34351201 -1.88708247 4.34351201 -0.5859375 1.953125 C-0.39257812 1.30859375 -0.19921875 0.6640625 0 0 Z " fill="#E17543" transform="translate(660,394)"/>
<path d="M0 0 C0.66 0 1.32 0 2 0 C3.32 3.63 4.64 7.26 6 11 C2.7 11 -0.6 11 -4 11 C-1.125 2.25 -1.125 2.25 0 0 Z " fill="#F4E8D9" transform="translate(443,385)"/>
<path d="M0 0 C3.28220895 1.64110448 3.74570789 4.69322988 5 8 C5 8.99 5 9.98 5 11 C2.03 11 -0.94 11 -4 11 C-3.39301257 6.87248551 -1.96189209 3.6678852 0 0 Z " fill="#F4E8D7" transform="translate(651,385)"/>
<path d="M0 0 C0.33 0 0.66 0 1 0 C1.33 1.65 1.66 3.3 2 5 C6.29 5.33 10.58 5.66 15 6 C15 6.33 15 6.66 15 7 C8.565 7.495 8.565 7.495 2 8 C1.34 9.65 0.68 11.3 0 13 C-1.65 13 -3.3 13 -5 13 C-4.54554036 11.58208592 -4.08625056 10.16571954 -3.625 8.75 C-3.24214844 7.56664062 -3.24214844 7.56664062 -2.8515625 6.359375 C-2.04826333 4.13372042 -1.10288338 2.09068328 0 0 Z " fill="#D8754A" transform="translate(435,393)"/>
<path d="M0 0 C5.94 0 11.88 0 18 0 C18 0.66 18 1.32 18 2 C15.36 2 12.72 2 10 2 C10 8.6 10 15.2 10 22 C9.67 22 9.34 22 9 22 C9 15.73 9 9.46 9 3 C6.03 2.67 3.06 2.34 0 2 C0 1.34 0 0.68 0 0 Z " fill="#E55618" transform="translate(496,382)"/>
<path d="M0 0 C2.64 0 5.28 0 8 0 C8 0.66 8 1.32 8 2 C6.02 2 4.04 2 2 2 C2 8.27 2 14.54 2 21 C1.01 21 0.02 21 -1 21 C-0.67 14.07 -0.34 7.14 0 0 Z " fill="#D07654" transform="translate(655,422)"/>
<path d="M0 0 C0.33 0 0.66 0 1 0 C1.16721165 5.82055788 1.32781152 11.64124546 1.48217773 17.4621582 C1.53567894 19.44397949 1.5910143 21.42575212 1.64819336 23.4074707 C1.72987855 26.24940493 1.80505172 29.09144662 1.87890625 31.93359375 C1.90594131 32.82525742 1.93297638 33.71692108 1.96083069 34.63560486 C2.01275915 36.75647446 2.01188911 38.87852809 2 41 C1.505 41.495 1.505 41.495 1 42 C-0.52519276 41.91062197 -2.04681929 41.75462854 -3.5625 41.5625 C-4.38878906 41.46066406 -5.21507812 41.35882813 -6.06640625 41.25390625 C-6.70449219 41.17011719 -7.34257813 41.08632813 -8 41 C-8 40.67 -8 40.34 -8 40 C-5.36 40 -2.72 40 0 40 C0 26.8 0 13.6 0 0 Z " fill="#FEEED5" transform="translate(703,422)"/>
<path d="M0 0 C0.66 0 1.32 0 2 0 C2.33895656 1.72807318 2.67091525 3.45751974 3 5.1875 C3.185625 6.15042969 3.37125 7.11335938 3.5625 8.10546875 C3.96877612 10.7934206 4.07933572 13.28771019 4 16 C2.35 16 0.7 16 -1 16 C-1.11138159 10.54230189 -0.91657981 5.38490641 0 0 Z " fill="#F2DECD" transform="translate(600,433)"/>
<path d="M0 0 C2.97 0 5.94 0 9 0 C9 0.33 9 0.66 9 1 C6.69 1 4.38 1 2 1 C2.33 2.65 2.66 4.3 3 6 C5.97 6.495 5.97 6.495 9 7 C9 9.97 9 12.94 9 16 C6.36 16 3.72 16 1 16 C1 15.67 1 15.34 1 15 C3.31 15 5.62 15 8 15 C8 13.02 8 11.04 8 9 C6.2984375 9.0309375 6.2984375 9.0309375 4.5625 9.0625 C1 9 1 9 0 8 C-0.14115161 5.32941149 -0.04247107 2.67567762 0 0 Z " fill="#F5C6A7" transform="translate(438,429)"/>
<path d="M0 0 C2.23530964 4.47061927 3.30554174 7.15415167 2.56640625 12.05859375 C1.88357707 17.40614361 1.88879429 22.67864581 1.9375 28.0625 C1.94426758 29.50399414 1.94426758 29.50399414 1.95117188 30.97460938 C1.96282294 33.31647422 1.97917975 35.65820181 2 38 C1.01 38.495 1.01 38.495 0 39 C0 26.13 0 13.26 0 0 Z " fill="#E7F6FD" transform="translate(518,272)"/>
<path d="M0 0 C1.90161011 4.93230123 -0.52665707 8.89104236 -2.3984375 13.5234375 C-5.22198684 19.65260559 -8.28833374 26.19222249 -14 30 C-12.65284221 26.2770664 -10.94205938 23.30686593 -8.6875 20.0625 C-4.54416379 13.71747467 -2.2767356 7.18693035 0 0 Z " fill="#194264" transform="translate(671,305)"/>
<path d="M0 0 C0.66 0 1.32 0 2 0 C2 7.26 2 14.52 2 22 C0.35 21.67 -1.3 21.34 -3 21 C-2.67 20.34 -2.34 19.68 -2 19 C-1.34 19 -0.68 19 0 19 C0 12.73 0 6.46 0 0 Z " fill="#EB5614" transform="translate(621,382)"/>
<path d="M0 0 C2.45862401 -0.05383848 4.9160755 -0.09359038 7.375 -0.125 C8.42300781 -0.15013672 8.42300781 -0.15013672 9.4921875 -0.17578125 C11.32897486 -0.19344267 13.16601963 -0.10303261 15 0 C17 2 17 2 17.125 5.625 C17.08375 6.73875 17.0425 7.8525 17 9 C16.01 8.67 15.02 8.34 14 8 C13.67 6.35 13.34 4.7 13 3 C12.22914063 2.95101563 11.45828125 2.90203125 10.6640625 2.8515625 C9.15972656 2.73941406 9.15972656 2.73941406 7.625 2.625 C6.12839844 2.52058594 6.12839844 2.52058594 4.6015625 2.4140625 C2 2 2 2 0 0 Z " fill="#E05A1D" transform="translate(566,382)"/>
<path d="M0 0 C0.33 0 0.66 0 1 0 C1 2.64 1 5.28 1 8 C-1.64 8 -4.28 8 -7 8 C-6.67 9.65 -6.34 11.3 -6 13 C-3.69 13.33 -1.38 13.66 1 14 C1 16.64 1 19.28 1 22 C0.67 22 0.34 22 0 22 C0 20.02 0 18.04 0 16 C-2.64 16 -5.28 16 -8 16 C-8 13.03 -8 10.06 -8 7 C-5.36 7 -2.72 7 0 7 C0 4.69 0 2.38 0 0 Z " fill="#F7CDAF" transform="translate(728,422)"/>
<path d="M0 0 C1.79244141 0.01740234 1.79244141 0.01740234 3.62109375 0.03515625 C5.41740234 0.04869141 5.41740234 0.04869141 7.25 0.0625 C8.17683594 0.07410156 9.10367188 0.08570313 10.05859375 0.09765625 C9.72859375 1.41765625 9.39859375 2.73765625 9.05859375 4.09765625 C9.05859375 3.43765625 9.05859375 2.77765625 9.05859375 2.09765625 C5.42859375 2.09765625 1.79859375 2.09765625 -1.94140625 2.09765625 C-1.87953125 3.00515625 -1.81765625 3.91265625 -1.75390625 4.84765625 C-1.96242329 8.46195167 -2.70554372 9.39818968 -4.94140625 12.09765625 C-4.80103104 10.28472536 -4.65395736 8.47231195 -4.50390625 6.66015625 C-4.42269531 5.65082031 -4.34148438 4.64148438 -4.2578125 3.6015625 C-3.80299014 0.00228923 -3.69689974 0.12273904 0 0 Z " fill="#D0724D" transform="translate(597.94140625,421.90234375)"/>
<path d="M0 0 C2.64 0 5.28 0 8 0 C8 0.66 8 1.32 8 2 C5.69 2.66 3.38 3.32 1 4 C1.04125 5.11375 1.0825 6.2275 1.125 7.375 C1 11 1 11 -1 13 C-1 12.34 -1 11.68 -1 11 C-1.99 11 -2.98 11 -4 11 C-3.52269162 9.5410574 -3.04308958 8.08286504 -2.5625 6.625 C-2.29566406 5.81289063 -2.02882813 5.00078125 -1.75390625 4.1640625 C-1 2 -1 2 0 0 Z " fill="#D07247" transform="translate(440,381)"/>
<path d="M0 0 C0.99 1.32 1.98 2.64 3 4 C2.71875 5.83203125 2.71875 5.83203125 2 8 C1.70132273 11.39745391 1.49328176 14.7953517 1.28125 18.19921875 C1 21 1 21 0 22 C-2.9375 22.1875 -2.9375 22.1875 -6 22 C-6.66 21.34 -7.32 20.68 -8 20 C-5.36 20 -2.72 20 0 20 C0 13.4 0 6.8 0 0 Z " fill="#F7EADA" transform="translate(745,442)"/>
<path d="M0 0 C0.66 0 1.32 0 2 0 C2 0.99 2 1.98 2 3 C2.66 3.33 3.32 3.66 4 4 C4.38133299 5.9914056 4.71325582 7.99279077 5 10 C5.33 10.66 5.66 11.32 6 12 C6.06996014 13.70702735 6.08440154 15.41668003 6.0625 17.125 C6.05347656 18.03507812 6.04445313 18.94515625 6.03515625 19.8828125 C6.01775391 20.93082031 6.01775391 20.93082031 6 22 C7.32 22.33 8.64 22.66 10 23 C8.35 23 6.7 23 5 23 C3.35 15.41 1.7 7.82 0 0 Z " fill="#CB693F" transform="translate(680,439)"/>
<path d="M0 0 C2.31 0 4.62 0 7 0 C7 0.99 7 1.98 7 3 C7.15127402 4.56406528 7.31902522 6.12659252 7.5 7.6875 C7.5928125 8.49574219 7.685625 9.30398438 7.78125 10.13671875 C7.8534375 10.75160156 7.925625 11.36648438 8 12 C4.75267068 10.37633534 4.29844864 7.24612161 3 4 C2.34 4 1.68 4 1 4 C0.67 4.66 0.34 5.32 0 6 C-0.66 6 -1.32 6 -2 6 C-1.34 4.02 -0.68 2.04 0 0 Z " fill="#CF704A" transform="translate(648,381)"/>
<path d="M0 0 C2.475 0.495 2.475 0.495 5 1 C5 3.31 5 5.62 5 8 C3.35 8.33 1.7 8.66 0 9 C0 6.03 0 3.06 0 0 Z " fill="#F4EBDF" transform="translate(546,429)"/>
<path d="M0 0 C0.66 0 1.32 0 2 0 C2 1.32 2 2.64 2 4 C2.66 4 3.32 4 4 4 C4.13535156 4.69867188 4.27070312 5.39734375 4.41015625 6.1171875 C5.39941742 11.35580225 5.39941742 11.35580225 8.7578125 15.109375 C10.89349214 15.73098301 10.89349214 15.73098301 14 16 C14 16.66 14 17.32 14 18 C11.69 18 9.38 18 7 18 C3.81535981 12.06830376 1.34656975 6.6104333 0 0 Z " fill="#C86C47" transform="translate(649,444)"/>
<path d="M0 0 C0.33 0 0.66 0 1 0 C1.62816396 5.02531165 -0.39693218 8.83857385 -3 13 C-4.51171875 14.7421875 -4.51171875 14.7421875 -6 16 C-6.66 16 -7.32 16 -8 16 C-6.57250019 12.20950293 -4.83763458 8.72877544 -2.875 5.1875 C-2.33617187 4.21167969 -1.79734375 3.23585938 -1.2421875 2.23046875 C-0.83226562 1.49441406 -0.42234375 0.75835937 0 0 Z " fill="#2A485D" transform="translate(678,316)"/>
<path d="M0 0 C0.33 0 0.66 0 1 0 C1.33402841 4.23608762 0.46868054 6.53337357 -1.75 10.125 C-2.51570312 11.39730469 -2.51570312 11.39730469 -3.296875 12.6953125 C-4.99910597 14.99879019 -6.62806117 16.42214504 -9 18 C-7.6510689 13.48548686 -5.83381706 9.67722719 -3.4375 5.625 C-2.81746094 4.56539062 -2.19742188 3.50578125 -1.55859375 2.4140625 C-0.78708984 1.21910156 -0.78708984 1.21910156 0 0 Z " fill="#4A7390" transform="translate(728,228)"/>
<path d="M0 0 C1.5625 1.25 1.5625 1.25 3 3 C2.6875 5.1875 2.6875 5.1875 2 7 C1.34 6.67 0.68 6.34 0 6 C0 4.02 0 2.04 0 0 Z M-7.3984375 6.8046875 C-6.40070312 6.82789063 -5.40296875 6.85109375 -4.375 6.875 C-2.87066406 6.90207031 -2.87066406 6.90207031 -1.3359375 6.9296875 C-0.56507813 6.95289063 0.20578125 6.97609375 1 7 C1.33 7.66 1.66 8.32 2 9 C-2.62 9 -7.24 9 -12 9 C-10 7 -10 7 -7.3984375 6.8046875 Z " fill="#E45718" transform="translate(657,390)"/>
<path d="M0 0 C1.32 0.33 2.64 0.66 4 1 C0.84577733 5.82596069 -2.28919117 10.57557408 -6 15 C-7 12 -7 12 -5.56640625 9.08203125 C-4.90511719 8.00308594 -4.24382813 6.92414063 -3.5625 5.8125 C-2.90378906 4.72582031 -2.24507812 3.63914063 -1.56640625 2.51953125 C-1.04949219 1.68808594 -0.53257812 0.85664063 0 0 Z " fill="#4E7894" transform="translate(736,214)"/>
<path d="M0 0 C1.0326802 2.78823655 1.04509293 3.8677274 0.0625 6.75 C-0.288125 7.4925 -0.63875 8.235 -1 9 C-2.32 9 -3.64 9 -5 9 C-5 10.32 -5 11.64 -5 13 C-3.68 13.33 -2.36 13.66 -1 14 C-2.65 14 -4.3 14 -6 14 C-6.66 12.02 -7.32 10.04 -8 8 C-7.01 8 -6.02 8 -5 8 C-4.67 7.01 -4.34 6.02 -4 5 C-4 5.66 -4 6.32 -4 7 C-3.34 7 -2.68 7 -2 7 C-1.34 4.69 -0.68 2.38 0 0 Z " fill="#CF7A57" transform="translate(744,392)"/>
<path d="M0 0 C0.66 0.99 1.32 1.98 2 3 C1.00769103 4.67125722 0.00509214 6.33639922 -1 8 C-1.40992188 8.69738281 -1.81984375 9.39476562 -2.2421875 10.11328125 C-2.67789063 10.83902344 -3.11359375 11.56476563 -3.5625 12.3125 C-3.97628906 13.00988281 -4.39007812 13.70726562 -4.81640625 14.42578125 C-5.20699219 14.94527344 -5.59757813 15.46476562 -6 16 C-6.66 16 -7.32 16 -8 16 C-6.57250019 12.20950293 -4.83763458 8.72877544 -2.875 5.1875 C-2.33617187 4.21167969 -1.79734375 3.23585938 -1.2421875 2.23046875 C-0.83226562 1.49441406 -0.42234375 0.75835937 0 0 Z " fill="#2E4152" transform="translate(661,346)"/>
<path d="M0 0 C0.33 0 0.66 0 1 0 C1.13277344 0.68707031 1.26554688 1.37414062 1.40234375 2.08203125 C1.57894531 2.98308594 1.75554688 3.88414062 1.9375 4.8125 C2.11152344 5.70582031 2.28554688 6.59914063 2.46484375 7.51953125 C2.97741153 10.11397171 2.97741153 10.11397171 4 13 C4.03954234 15.33299825 4.04401732 17.66708189 4 20 C0.63641561 16.63641561 0.07304938 12.69839798 -0.125 8.09375 C-0.125 5.39286838 -0.08786317 2.69935172 0 0 Z " fill="#1F4461" transform="translate(526,291)"/>
<path d="M0 0 C2 2 2 2 2.4375 5.3125 C2 9 2 9 -0.375 11.9375 C-3 14 -3 14 -5 14 C-5 12.35 -5 10.7 -5 9 C-3.35 9 -1.7 9 0 9 C0 6.03 0 3.06 0 0 Z " fill="#DA5B27" transform="translate(551,430)"/>
<path d="M0 0 C0.66 0 1.32 0 2 0 C1.57228451 1.41965142 1.13234457 2.8356224 0.6875 4.25 C0.44386719 5.03890625 0.20023438 5.8278125 -0.05078125 6.640625 C-1 9 -1 9 -4 13 C-3.67 9.7 -3.34 6.4 -3 3 C-2.34 3 -1.68 3 -1 3 C-0.67 2.01 -0.34 1.02 0 0 Z " fill="#E75B1B" transform="translate(649,384)"/>
<path d="M0 0 C4.29 0 8.58 0 13 0 C13 0.99 13 1.98 13 3 C11.39667209 3.08121924 9.79215974 3.13929134 8.1875 3.1875 C7.29417969 3.22230469 6.40085937 3.25710938 5.48046875 3.29296875 C3 3 3 3 0 0 Z " fill="#DB6835" transform="translate(534,402)"/>
<path d="M0 0 C0.66 0 1.32 0 2 0 C1.51421457 3.12290635 1.0013988 5.99580359 0 9 C-1.65 9 -3.3 9 -5 9 C-5 7.68 -5 6.36 -5 5 C-3.68 4.67 -2.36 4.34 -1 4 C-0.67 2.68 -0.34 1.36 0 0 Z " fill="#E6591D" transform="translate(744,396)"/>
<path d="M0 0 C0.99 0.495 0.99 0.495 2 1 C3.49023391 5.47070174 2.832677 9.45812547 2 14 C1.01 14.495 1.01 14.495 0 15 C0 10.05 0 5.1 0 0 Z " fill="#E5F6F2" transform="translate(648,445)"/>
<path d="M0 0 C0.33 0.66 0.66 1.32 1 2 C1.66 2 2.32 2 3 2 C3 4.97 3 7.94 3 11 C-0.5166506 7.4833494 -0.6422393 5.82976947 -1 1 C-0.67 0.67 -0.34 0.34 0 0 Z " fill="#F2EEDC" transform="translate(750,429)"/>
<path d="M0 0 C3.61569144 1.20523048 3.94669545 2.07185564 5.75 5.3125 C6.19859375 6.09238281 6.6471875 6.87226563 7.109375 7.67578125 C8.11611108 10.30300917 7.97226335 11.40927388 7 14 C5.82807953 12.04480616 4.6626071 10.0857461 3.5 8.125 C2.8503125 7.03445312 2.200625 5.94390625 1.53125 4.8203125 C0 2 0 2 0 0 Z " fill="#416A86" transform="translate(672,246)"/>
<path d="M0 0 C1.65 0 3.3 0 5 0 C4.34 1.98 3.68 3.96 3 6 C1.35 6 -0.3 6 -2 6 C-1.34 4.02 -0.68 2.04 0 0 Z " fill="#D96D3D" transform="translate(749,381)"/>
<path d="M0 0 C1.40309836 3.18885991 0.90389952 4.25335581 -0.375 7.625 C-1.23999119 9.42152016 -2.10829439 11.21658879 -3 13 C-2.01 13.33 -1.02 13.66 0 14 C-1.65 14 -3.3 14 -5 14 C-3.45730076 9.27934033 -1.92205381 4.58335908 0 0 Z " fill="#C28265" transform="translate(643,392)"/>
<path d="M0 0 C0.33 0.66 0.66 1.32 1 2 C-0.1875 5.5625 -0.1875 5.5625 -2 9 C-4.1875 9.9375 -4.1875 9.9375 -6 10 C-4.6302836 6.00499382 -2.74277578 3.19990508 0 0 Z " fill="#3C6A89" transform="translate(540,242)"/>
<path d="M0 0 C0.99 0.33 1.98 0.66 3 1 C4.1875 4.5625 4.1875 4.5625 5 8 C4.01 8.99 3.02 9.98 2 11 C0.80712589 7.12315913 0 4.08378077 0 0 Z " fill="#EB6A2D" transform="translate(654,383)"/>
<path d="M0 0 C1.4540625 0.0309375 1.4540625 0.0309375 2.9375 0.0625 C2.9375 1.0525 2.9375 2.0425 2.9375 3.0625 C1.9475 3.3925 0.9575 3.7225 -0.0625 4.0625 C-0.0625 3.4025 -0.0625 2.7425 -0.0625 2.0625 C-0.7225 2.0625 -1.3825 2.0625 -2.0625 2.0625 C-2.3925 3.3825 -2.7225 4.7025 -3.0625 6.0625 C-3.7225 6.0625 -4.3825 6.0625 -5.0625 6.0625 C-3.98897059 0.08140756 -3.98897059 0.08140756 0 0 Z " fill="#E45E21" transform="translate(445.0625,382.9375)"/>
<path d="M0 0 C3 1 3 1 4.1875 2.8125 C5 5 5 5 5 9 C4.01 9 3.02 9 2 9 C1.34 6.03 0.68 3.06 0 0 Z " fill="#E75A1A" transform="translate(734,391)"/>
<path d="M0 0 C0.33 0 0.66 0 1 0 C2.10228696 4.40914783 2.07654536 8.48382401 2 13 C1.01 13 0.02 13 -1 13 C-0.67 8.71 -0.34 4.42 0 0 Z " fill="#EDF7F5" transform="translate(601,435)"/>
<path d="M0 0 C0.33 0.66 0.66 1.32 1 2 C-0.21484375 4.6015625 -0.21484375 4.6015625 -1.9375 7.625 C-2.78634766 9.12933594 -2.78634766 9.12933594 -3.65234375 10.6640625 C-4.09707031 11.43492187 -4.54179688 12.20578125 -5 13 C-5.68359375 11.296875 -5.68359375 11.296875 -6 9 C-4.78515625 6.640625 -4.78515625 6.640625 -3.0625 4.25 C-2.49660156 3.45078125 -1.93070313 2.6515625 -1.34765625 1.828125 C-0.90292969 1.22484375 -0.45820312 0.6215625 0 0 Z " fill="#143457" transform="translate(708,347)"/>
<path d="M0 0 C0.33 0.99 0.66 1.98 1 3 C-0.43359375 5.69921875 -0.43359375 5.69921875 -2.4375 8.6875 C-3.42556641 10.17830078 -3.42556641 10.17830078 -4.43359375 11.69921875 C-5.20896484 12.83810547 -5.20896484 12.83810547 -6 14 C-6.33 13.34 -6.66 12.68 -7 12 C-5.8203125 9.43359375 -5.8203125 9.43359375 -4.125 6.4375 C-3.57070313 5.44621094 -3.01640625 4.45492188 -2.4453125 3.43359375 C-1 1 -1 1 0 0 Z " fill="#173B5A" transform="translate(717,331)"/>
<path d="M0 0 C4.60853797 0.72008406 8.67237409 2.31295939 13 4 C12.67 4.66 12.34 5.32 12 6 C11.319375 5.71125 10.63875 5.4225 9.9375 5.125 C6.67106907 3.87402645 3.37153877 2.92552045 0 2 C0 1.34 0 0.68 0 0 Z " fill="#3C7397" transform="translate(617,214)"/>
<path d="M0 0 C3.875 2.625 3.875 2.625 5 6 C6.65 6.33 8.3 6.66 10 7 C10 7.33 10 7.66 10 8 C7.69 8 5.38 8 3 8 C0 2.25 0 2.25 0 0 Z " fill="#CC6A43" transform="translate(751,454)"/>
<path d="M0 0 C0.99 0 1.98 0 3 0 C3 0.66 3 1.32 3 2 C3.66 2 4.32 2 5 2 C6.38232443 3.62626404 7.71937515 5.2925002 9 7 C8.01 7.33 7.02 7.66 6 8 C4.9970458 6.85675161 3.99770973 5.71032809 3 4.5625 C2.443125 3.92441406 1.88625 3.28632813 1.3125 2.62890625 C0 1 0 1 0 0 Z " fill="#264359" transform="translate(543,335)"/>
<path d="M0 0 C0.66 0.66 1.32 1.32 2 2 C0.02 5.63 -1.96 9.26 -4 13 C-5 10 -5 10 -4.00390625 7.51953125 C-3.52824219 6.62621094 -3.05257812 5.73289062 -2.5625 4.8125 C-2.08941406 3.91144531 -1.61632812 3.01039063 -1.12890625 2.08203125 C-0.75636719 1.39496094 -0.38382813 0.70789063 0 0 Z " fill="#386E91" transform="translate(761,252)"/>
<path d="M0 0 C0.99 0.99 1.98 1.98 3 3 C-2.28 2.67 -7.56 2.34 -13 2 C-13 1.67 -13 1.34 -13 1 C-3.05232558 -0.34883721 -3.05232558 -0.34883721 0 0 Z " fill="#E1F1F8" transform="translate(611,210)"/>
<path d="M0 0 C1.32 0.33 2.64 0.66 4 1 C4.66 3.31 5.32 5.62 6 8 C5.01 8.495 5.01 8.495 4 9 C0 2.25 0 2.25 0 0 Z " fill="#406783" transform="translate(681,262)"/>
<path d="M0 0 C0.66 0 1.32 0 2 0 C1.34 2.64 0.68 5.28 0 8 C-1.32 8.33 -2.64 8.66 -4 9 C-2.80100302 5.9168649 -1.52299523 2.93720508 0 0 Z " fill="#D8EDF5" transform="translate(784,215)"/>
<path d="M0 0 C3.32368224 1.10789408 3.61563093 1.48436217 5.25 4.375 C5.60578125 4.98085937 5.9615625 5.58671875 6.328125 6.2109375 C7 8 7 8 6 11 C4.02 7.37 2.04 3.74 0 0 Z " fill="#487390" transform="translate(654,215)"/>
<path d="M0 0 C0.99 0.33 1.98 0.66 3 1 C3.33 1.99 3.66 2.98 4 4 C3.34 4 2.68 4 2 4 C1.67 4.99 1.34 5.98 1 7 C-2 3.25 -2 3.25 -2 1 C-1.34 0.67 -0.68 0.34 0 0 Z " fill="#D56B3E" transform="translate(608,387)"/>
<path d="M0 0 C0.66 0 1.32 0 2 0 C3.06775224 1.96466413 4.06553465 3.96855359 5 6 C4.67 6.66 4.34 7.32 4 8 C3.34 8 2.68 8 2 8 C0.74335022 5.09399739 0 3.20395416 0 0 Z " fill="#1F4562" transform="translate(530,312)"/>
<path d="M0 0 C4.30764815 1.56641751 8.06171464 3.68336156 12 6 C9 7 9 7 6.73828125 6.00390625 C5.93777344 5.52824219 5.13726563 5.05257812 4.3125 4.5625 C3.50425781 4.08941406 2.69601562 3.61632812 1.86328125 3.12890625 C1.24839844 2.75636719 0.63351562 2.38382813 0 2 C0 1.34 0 0.68 0 0 Z " fill="#3A7297" transform="translate(631,219)"/>
<path d="M0 0 C3 4 3 4 3 6 C2.34 6 1.68 6 1 6 C1 8.64 1 11.28 1 14 C0.67 14 0.34 14 0 14 C0 9.38 0 4.76 0 0 Z " fill="#ECF6EA" transform="translate(464,444)"/>
<path d="M0 0 C0.99 0 1.98 0 3 0 C3.66 3.63 4.32 7.26 5 11 C2.09591658 7.12788877 1.14920536 4.59682146 0 0 Z " fill="#CC673E" transform="translate(463,439)"/>
<path d="M0 0 C2.64 0 5.28 0 8 0 C8 0.66 8 1.32 8 2 C5.36 2.66 2.72 3.32 0 4 C0 2.68 0 1.36 0 0 Z " fill="#DC6F42" transform="translate(440,381)"/>
<path d="M0 0 C0.66 0.99 1.32 1.98 2 3 C0.7260411 5.03833424 -0.61061923 7.03852126 -2 9 C-2.66 9 -3.32 9 -4 9 C-2.80100302 5.9168649 -1.52299523 2.93720508 0 0 Z " fill="#D8E6EE" transform="translate(715,337)"/>
<path d="M0 0 C-0.99766109 2.49415272 -1.68616685 3.78740335 -3.9375 5.3125 C-6 6 -6 6 -9 5 C-7.87926138 4.16094435 -6.75325453 3.32892169 -5.625 2.5 C-4.99851562 2.0359375 -4.37203125 1.571875 -3.7265625 1.09375 C-2 0 -2 0 0 0 Z " fill="#467796" transform="translate(565,221)"/>
<path d="M0 0 C0.99 0.33 1.98 0.66 3 1 C3.66 4.3 4.32 7.6 5 11 C3 10 3 10 2.1484375 7.71484375 C1.89320313 6.79832031 1.63796875 5.88179688 1.375 4.9375 C1.11460937 4.01839844 0.85421875 3.09929687 0.5859375 2.15234375 C0.39257812 1.44207031 0.19921875 0.73179687 0 0 Z " fill="#C76F4A" transform="translate(731,388)"/>
<path d="M0 0 C0.66 0.33 1.32 0.66 2 1 C1.45773019 4.79588866 -0.20127563 6.47211993 -3 9 C-2.01 6.03 -1.02 3.06 0 0 Z " fill="#D4E7ED" transform="translate(670,313)"/>
<path d="M0 0 C2.97 0.33 5.94 0.66 9 1 C9 1.66 9 2.32 9 3 C6.08517222 3.80967438 4.53886783 4.21845993 1.6875 3.0625 C1.130625 2.711875 0.57375 2.36125 0 2 C0 1.34 0 0.68 0 0 Z " fill="#FBEADC" transform="translate(655,461)"/>
<path d="M0 0 C1.32 0.33 2.64 0.66 4 1 C3.67 1.99 3.34 2.98 3 4 C2.67 3.67 2.34 3.34 2 3 C1.67 5.31 1.34 7.62 1 10 C0.67 10 0.34 10 0 10 C0 6.7 0 3.4 0 0 Z " fill="#E16A2E" transform="translate(646,440)"/>
<path d="M0 0 C2.475 0.495 2.475 0.495 5 1 C4.01 2.485 4.01 2.485 3 4 C4.32 4.66 5.64 5.32 7 6 C5.35 6 3.7 6 2 6 C1.34 4.02 0.68 2.04 0 0 Z " fill="#DB5E2C" transform="translate(616,399)"/>
<path d="M0 0 C0.99 0 1.98 0 3 0 C3 1.98 3 3.96 3 6 C2.01 6 1.02 6 0 6 C0 4.02 0 2.04 0 0 Z " fill="#E35A1F" transform="translate(436,392)"/>
<path d="M0 0 C2.64752004 2.57784846 4.94432065 4.91648098 7 8 C4.13792848 6.71700242 1.9754912 5.469364 0 3 C0 2.01 0 1.02 0 0 Z " fill="#43799F" transform="translate(652,233)"/>
<path d="M0 0 C1.32 0.33 2.64 0.66 4 1 C2.35 2.98 0.7 4.96 -1 7 C-1.625 5.1875 -1.625 5.1875 -2 3 C-1.34 2.01 -0.68 1.02 0 0 Z " fill="#417396" transform="translate(736,214)"/>
<path d="M0 0 C2.31 0 4.62 0 7 0 C7 1.65 7 3.3 7 5 C3.535 3.02 3.535 3.02 0 1 C0 0.67 0 0.34 0 0 Z " fill="#D27149" transform="translate(568,395)"/>
<path d="M0 0 C0.99 0 1.98 0 3 0 C3 1.98 3 3.96 3 6 C2.01 5.67 1.02 5.34 0 5 C0 3.35 0 1.7 0 0 Z " fill="#E75514" transform="translate(580,385)"/>
<path d="M0 0 C0.66 0 1.32 0 2 0 C1.125 4.75 1.125 4.75 0 7 C-0.66 7 -1.32 7 -2 7 C-1.125 2.25 -1.125 2.25 0 0 Z " fill="#1E374B" transform="translate(664,341)"/>
<path d="M0 0 C0.33 0 0.66 0 1 0 C1 2.97 1 5.94 1 9 C0.01 9 -0.98 9 -2 9 C-1.34 6.03 -0.68 3.06 0 0 Z " fill="#476984" transform="translate(529,261)"/>
</svg>
