<?xml version="1.0" encoding="UTF-8"?>
<svg version="1.1" xmlns="http://www.w3.org/2000/svg" width="90" height="51">
<path d="M0 0 C29.7 0 59.4 0 90 0 C90 16.83 90 33.66 90 51 C60.3 51 30.6 51 0 51 C0 34.17 0 17.34 0 0 Z " fill="#F8F8F8" transform="translate(0,0)"/>
<path d="M0 0 C3.01125 -0.0825 6.0225 -0.165 9.125 -0.25 C10.06230957 -0.28641602 10.99961914 -0.32283203 11.96533203 -0.36035156 C17.49220328 -0.43333687 20.63285684 0.28792831 25 4 C26.875 6.25 26.875 6.25 28 8 C28.53625 7.236875 29.0725 6.47375 29.625 5.6875 C32.80622862 2.08768866 35.50669753 0.34303826 40.328125 -0.3203125 C46.32945421 -0.59644728 51.16628585 0.30489407 56 4 C60.59731599 9.03188815 62.43233412 13.77993919 62.34375 20.58984375 C61.54950843 26.15856019 58.01113918 30.32871856 53.875 33.9375 C48.90847099 37.50044473 43.94803426 37.93285717 38 37 C34.12627407 35.1237542 29.97527074 32.95054149 28 29 C27.2575 29.94875 26.515 30.8975 25.75 31.875 C23.73629759 34.44806419 22.01832535 35.73563911 19 37 C16.80175781 37.22705078 16.80175781 37.22705078 14.453125 37.1953125 C13.69161133 37.19031738 12.93009766 37.18532227 12.14550781 37.18017578 C11.18999023 37.16196777 10.23447266 37.14375977 9.25 37.125 C4.67125 37.063125 4.67125 37.063125 0 37 C0 24.79 0 12.58 0 0 Z " fill="#0D0D0D" transform="translate(28,7)"/>
<path d="M0 0 C29.7 0 59.4 0 90 0 C90 6.93 90 13.86 90 21 C88 18 88 18 86.375 15.0625 C82.86113659 10.53146561 79.18921947 8.54166108 73.5390625 7.58203125 C67.12149523 7.21672357 62.92921898 8.95872347 58 13 C56.98400311 13.98374302 55.97882697 14.97926607 55 16 C54.4225 15.05125 53.845 14.1025 53.25 13.125 C51.04609571 10.06402181 50.34359276 9.29554699 47 8 C44.78395837 7.63991339 44.78395837 7.63991339 42.453125 7.5859375 C41.69161133 7.55032715 40.93009766 7.5147168 40.14550781 7.47802734 C39.18999023 7.44402832 38.23447266 7.4100293 37.25 7.375 C34.1975 7.25125 31.145 7.1275 28 7 C28 18.55 28 30.1 28 42 C27.67 42 27.34 42 27 42 C27 30.45 27 18.9 27 7 C23.7 7 20.4 7 17 7 C17 11.62 17 16.24 17 21 C15.02 21 13.04 21 11 21 C11 16.38 11 11.76 11 7 C7.37 7 3.74 7 0 7 C0 4.69 0 2.38 0 0 Z " fill="#FAFAFA" transform="translate(0,0)"/>
<path d="M0 0 C3.63 0 7.26 0 11 0 C11 4.62 11 9.24 11 14 C12.98 14 14.96 14 17 14 C17 9.38 17 4.76 17 0 C20.3 0 23.6 0 27 0 C27 12.21 27 24.42 27 37 C23.7 37 20.4 37 17 37 C17 32.38 17 27.76 17 23 C14.69 23 12.38 23 10 23 C10 27.62 10 32.24 10 37 C6.7 37 3.4 37 0 37 C0 24.79 0 12.58 0 0 Z " fill="#111111" transform="translate(0,7)"/>
<path d="M0 0 C2 2 2 2 2.3125 5.9375 C2.23081662 8.43791894 2.12109418 9.77205801 0.9375 12 C-2.17909511 13.60856522 -4.56262469 13.42213381 -8 13 C-10.5 11.4375 -10.5 11.4375 -12 9 C-12 5.22315121 -11.78395245 2.96486456 -9.375 0 C-5.95223815 -1.44116288 -3.55394628 -0.85557966 0 0 Z " fill="#0C0C0C" transform="translate(76,19)"/>
<path d="M0 0 C4.10794604 0.68465767 6.77805275 1.94479441 9.375 5.25 C10.31697802 8.64112087 9.84752199 11.10991203 9 14.5 C6.77716931 17.74875254 5.38018818 18.39631231 1.5625 19.4375 C-2.44403151 19.50779003 -3.94354518 19.03249114 -7 16.5 C-9.0691993 13.86647362 -8.99930722 12.4618969 -8.9375 9.0625 C-7.57773097 3.89537769 -5.43439947 0.90573325 0 0 Z M-7 7.5 C-7.75021244 10.04367668 -7.75021244 10.04367668 -7 12.5 C-5.54331238 14.95714369 -5.54331238 14.95714369 -3 16.5 C0.43737531 16.92213381 2.82090489 17.10856522 5.9375 15.5 C7.65750013 12.2623527 7.66976495 9.07207973 7 5.5 C4.95605162 3.07754266 3.6345575 2.63016564 0.5625 2 C-3.21865767 2.73778686 -4.67306119 4.50822153 -7 7.5 Z " fill="#C2C2C2" transform="translate(71,15.5)"/>
<path d="M0 0 C0.99 0.66 1.98 1.32 3 2 C2.67 2.66 2.34 3.32 2 4 C0.9275 3.7525 -0.145 3.505 -1.25 3.25 C-4.96598456 2.62006479 -4.96598456 2.62006479 -7.4375 4.625 C-9.27152121 7.41271224 -9.419605 8.727081 -9 12 C-8.67 12.99 -8.34 13.98 -8 15 C-7.34 15.33 -6.68 15.66 -6 16 C-7.32 16 -8.64 16 -10 16 C-11.820991 13.32207206 -11.9974456 11.8595082 -11.9375 8.5625 C-10.22727744 2.06365427 -6.7926207 -1.03365967 0 0 Z " fill="#CACACA" transform="translate(74,16)"/>
<path d="M0 0 C1.99954746 -0.04254356 4.00041636 -0.04080783 6 0 C7 1 7 1 7.0625 3.5625 C7.041875 4.366875 7.02125 5.17125 7 6 C4.69 6 2.38 6 0 6 C0 4.02 0 2.04 0 0 Z " fill="#EEEEEE" transform="translate(38,29)"/>
<path d="M0 0 C2.31 0 4.62 0 7 0 C7.042721 1.66611905 7.04063832 3.33382885 7 5 C6 6 6 6 2.9375 6.0625 C1.4834375 6.0315625 1.4834375 6.0315625 0 6 C0 4.02 0 2.04 0 0 Z " fill="#ECECEC" transform="translate(38,16)"/>
<path d="M0 0 C5.625 -0.25 5.625 -0.25 9 2 C8.67 2.66 8.34 3.32 8 4 C6.906875 3.814375 5.81375 3.62875 4.6875 3.4375 C1.06375867 2.7421932 1.06375867 2.7421932 -2 4 C-1.34 2.68 -0.68 1.36 0 0 Z " fill="#DEDEDE" transform="translate(68,16)"/>
</svg>
