<?xml version="1.0" encoding="UTF-8"?>
<svg version="1.1" xmlns="http://www.w3.org/2000/svg" width="100" height="100">
<path d="M0 0 C33 0 66 0 100 0 C100 33 100 66 100 100 C67 100 34 100 0 100 C0 67 0 34 0 0 Z " fill="#36B56F" transform="translate(0,0)"/>
<path d="M0 0 C2.38164192 2.84260487 3 4.28405267 3 8 C3.99 7.67 4.98 7.34 6 7 C6.495 7.495 6.495 7.495 7 8 C8.66617115 8.04063832 10.33388095 8.042721 12 8 C12.495 8.99 12.495 8.99 13 10 C12.34 10.33 11.68 10.66 11 11 C11 15.29 11 19.58 11 24 C13.31 24 15.62 24 18 24 C18 19.71 18 15.42 18 11 C24.0546875 10.8046875 24.0546875 10.8046875 26 11 C28 13 28 13 28.1171875 16.3359375 C28.0479743 17.68293278 27.96674874 19.02935186 27.875 20.375 C27.85179688 21.04789063 27.82859375 21.72078125 27.8046875 22.4140625 C27.59555516 25.73403837 27.20268621 27.72887428 25.1953125 30.4140625 C21.41730973 33.14336699 18.02081374 33.17517039 13.4375 33.25 C12.48746094 33.27578125 11.53742188 33.3015625 10.55859375 33.328125 C7.62522798 32.95193763 6.78834148 32.28811367 5 30 C4.505 30.33 4.01 30.66 3.5 31 C-0.09090894 32.43636358 -3.14456127 32.12851462 -7 32 C-7.99 29.36 -8.98 26.72 -10 24 C-10.33 24 -10.66 24 -11 24 C-11 19.71 -11 15.42 -11 11 C-13.64 11 -16.28 11 -19 11 C-17.87465895 12.35618499 -17.87465895 12.35618499 -14.9375 12.0625 C-13.968125 12.041875 -12.99875 12.02125 -12 12 C-11.86463371 14.41854446 -11.76579721 16.82949783 -11.6875 19.25 C-11.64560547 19.93191406 -11.60371094 20.61382812 -11.56054688 21.31640625 C-11.4710675 25.00295642 -11.6839192 26.64703365 -14.17578125 29.4296875 C-17.15314938 31.0851536 -19.12216263 31.63779232 -22.5 31.875 C-23.4178125 31.95492187 -24.335625 32.03484375 -25.28125 32.1171875 C-28.2929095 31.98737459 -30.32292619 31.36681585 -33 30 C-33.33 29.34 -33.66 28.68 -34 28 C-34.66 29.32 -35.32 30.64 -36 32 C-39.3 32 -42.6 32 -46 32 C-46 31.34 -46 30.68 -46 30 C-46.66 30 -47.32 30 -48 30 C-48 30.66 -48 31.32 -48 32 C-48.556875 31.855625 -49.11375 31.71125 -49.6875 31.5625 C-52.10940438 30.97338812 -54.55587958 30.48882408 -57 30 C-57 21.09 -57 12.18 -57 3 C-54.69 3 -52.38 3 -50 3 C-50 5.64 -50 8.28 -50 11 C-49.34 10.67 -48.68 10.34 -48 10 C-48.33 8.02 -48.66 6.04 -49 4 C-48.34 4 -47.68 4 -47 4 C-47 5.65 -47 7.3 -47 9 C-45.88625 9 -44.7725 9 -43.625 9 C-41.75 9 -39.875 9 -38 9 C-36.49893938 8.84317277 -34.999026 8.67521083 -33.5 8.5 C-31.31010819 8.24403862 -29.20469728 8 -27 8 C-27 8.66 -27 9.32 -27 10 C-26.67 9.67 -26.34 9.34 -26 9 C-24 8.375 -24 8.375 -22 8 C-21.505 8.495 -21.505 8.495 -21 9 C-19.13676682 8.74711188 -17.28291568 8.42309847 -15.4375 8.0625 C-14.42558594 7.86785156 -13.41367187 7.67320313 -12.37109375 7.47265625 C-11.58863281 7.31667969 -10.80617187 7.16070312 -10 7 C-10.2784375 6.071875 -10.2784375 6.071875 -10.5625 5.125 C-11 3 -11 3 -10 1 C-6.39076038 -0.20307987 -3.78613423 -0.40565724 0 0 Z M2 28 C3 30 3 30 3 30 Z " fill="#45A46B" transform="translate(67,32)"/>
<path d="M0 0 C2.31 0 4.62 0 7 0 C7 2.64 7 5.28 7 8 C7.66 7.67 8.32 7.34 9 7 C8.67 5.02 8.34 3.04 8 1 C8.66 1 9.32 1 10 1 C10 2.65 10 4.3 10 6 C11.11375 6 12.2275 6 13.375 6 C15.25 6 17.125 6 19 6 C20.50106062 5.84317277 22.000974 5.67521083 23.5 5.5 C25.68989181 5.24403862 27.79530272 5 30 5 C30 5.66 30 6.32 30 7 C30.33 6.67 30.66 6.34 31 6 C32.32 5.67 33.64 5.34 35 5 C35 8.96 35 12.92 35 17 C35.66 17 36.32 17 37 17 C37 17.66 37 18.32 37 19 C36.01 19.33 35.02 19.66 34 20 C33.505 19.01 33.505 19.01 33 18 C32.34 18.99 31.68 19.98 31 21 C31 17.04 31 13.08 31 9 C29.02 9 27.04 9 25 9 C25.11402064 11.27141109 25.24158505 13.54214552 25.375 15.8125 C25.44460937 17.07707031 25.51421875 18.34164062 25.5859375 19.64453125 C25.76102939 23.12755234 25.76102939 23.12755234 28 26 C30.88595946 26.58481121 30.88595946 26.58481121 34.125 26.6875 C35.22070312 26.75324219 36.31640625 26.81898437 37.4453125 26.88671875 C38.28835937 26.92410156 39.13140625 26.96148437 40 27 C40 27.33 40 27.66 40 28 C38.27277272 28.22384382 36.54303993 28.42839969 34.8125 28.625 C33.36810547 28.79902344 33.36810547 28.79902344 31.89453125 28.9765625 C28.72230157 29.00224857 26.79889628 28.4615906 24 27 C23.67 26.34 23.34 25.68 23 25 C22.34 26.32 21.68 27.64 21 29 C17.7 29 14.4 29 11 29 C11 28.34 11 27.68 11 27 C10.34 27 9.68 27 9 27 C9 27.66 9 28.32 9 29 C8.443125 28.855625 7.88625 28.71125 7.3125 28.5625 C4.89059562 27.97338812 2.44412042 27.48882408 0 27 C0 18.09 0 9.18 0 0 Z " fill="#41AE7C" transform="translate(10,35)"/>
<path d="M0 0 C1.98 0 3.96 0 6 0 C6 2.97 6 5.94 6 9 C6.75925781 8.96519531 7.51851562 8.93039063 8.30078125 8.89453125 C9.79158203 8.85392578 9.79158203 8.85392578 11.3125 8.8125 C12.79169922 8.76029297 12.79169922 8.76029297 14.30078125 8.70703125 C17 9 17 9 18.84375 10.03125 C20.64814328 13.10359531 20.31315622 16.23678696 20.1875 19.6875 C20.16719727 20.7403418 20.16719727 20.7403418 20.14648438 21.81445312 C20.11120182 23.54329829 20.05739583 25.27174765 20 27 C18.02 27 16.04 27 14 27 C14 23.04 14 19.08 14 15 C11.36 15 8.72 15 6 15 C6 18.96 6 22.92 6 27 C4.02 27 2.04 27 0 27 C0 18.09 0 9.18 0 0 Z " fill="#F2FCF7" transform="translate(10,35)"/>
<path d="M0 0 C1.98 0 3.96 0 6 0 C6 4.29 6 8.58 6 13 C8.31 13 10.62 13 13 13 C13 8.71 13 4.42 13 0 C15.31 0 17.62 0 20 0 C20.10853983 2.22808159 20.18583307 4.45769932 20.25 6.6875 C20.29640625 7.92886719 20.3428125 9.17023437 20.390625 10.44921875 C19.92796006 14.65484309 19.19007365 16.23665725 16 19 C12.87109375 19.59375 12.87109375 19.59375 9.4375 19.5 C7.73400391 19.48453125 7.73400391 19.48453125 5.99609375 19.46875 C3 19 3 19 1.16015625 17.65625 C-1.262142 14.19815418 -1.13482813 10.9536721 -1.125 6.875 C-1.12757812 5.79992188 -1.13015625 4.72484375 -1.1328125 3.6171875 C-1 1 -1 1 0 0 Z " fill="#D0F6DD" transform="translate(72,43)"/>
<path d="M0 0 C1.98 0 3.96 0 6 0 C6 3.96 6 7.92 6 12 C9.465 11.505 9.465 11.505 13 11 C13.33 7.37 13.66 3.74 14 0 C15.98 0 17.96 0 20 0 C20.1079859 2.43868168 20.18726589 4.87259133 20.25 7.3125 C20.30027344 8.34793945 20.30027344 8.34793945 20.3515625 9.40429688 C20.41220105 12.54234167 20.42772142 14.47965764 18.39453125 16.953125 C15.29125639 18.30985854 12.82058252 18.43365121 9.4375 18.4375 C8.30183594 18.45683594 7.16617188 18.47617187 5.99609375 18.49609375 C3 18 3 18 1.109375 16.42578125 C-0.41429493 13.09409453 -0.28878732 10.39634364 -0.1875 6.75 C-0.16042969 5.48671875 -0.13335937 4.2234375 -0.10546875 2.921875 C-0.07066406 1.95765625 -0.03585938 0.9934375 0 0 Z " fill="#CEFAE4" transform="translate(35,44)"/>
<path d="M0 0 C2.31 0 4.62 0 7 0 C7 8.91 7 17.82 7 27 C4.69 27 2.38 27 0 27 C0 18.09 0 9.18 0 0 Z " fill="#EDFCF6" transform="translate(60,35)"/>
<path d="M0 0 C2.6875 0.3125 2.6875 0.3125 5 1 C5.33 1.99 5.66 2.98 6 4 C3.69 4 1.38 4 -1 4 C-1 8.29 -1 12.58 -1 17 C-3.31 17 -5.62 17 -8 17 C-8 12.71 -8 8.42 -8 4 C-6.35 3.67 -4.7 3.34 -3 3 C-2.505 2.46375 -2.01 1.9275 -1.5 1.375 C-1.005 0.92125 -0.51 0.4675 0 0 Z " fill="#4DB371" transform="translate(86,39)"/>
<path d="M0 0 C1.65 0 3.3 0 5 0 C5.02685095 2.47923801 5.04676547 4.9581884 5.0625 7.4375 C5.07087891 8.14455078 5.07925781 8.85160156 5.08789062 9.58007812 C5.09653588 11.38693559 5.05220011 13.19387603 5 15 C4 16 4 16 1.71484375 16.09765625 C0.34005859 16.08025391 0.34005859 16.08025391 -1.0625 16.0625 C-1.98160156 16.05347656 -2.90070313 16.04445313 -3.84765625 16.03515625 C-4.55792969 16.02355469 -5.26820312 16.01195313 -6 16 C-6 15.01 -6 14.02 -6 13 C-4.02 13 -2.04 13 0 13 C0 8.71 0 4.42 0 0 Z " fill="#F4FDF5" transform="translate(86,44)"/>
<path d="M0 0 C1.98 0 3.96 0 6 0 C6 2.97 6 5.94 6 9 C5.67 9 5.34 9 5 9 C5 6.69 5 4.38 5 2 C4.01 2 3.02 2 2 2 C2 9.59 2 17.18 2 25 C2.99 25 3.98 25 5 25 C5 21.37 5 17.74 5 14 C7.64 14 10.28 14 13 14 C13 14.33 13 14.66 13 15 C10.69 15 8.38 15 6 15 C6 18.96 6 22.92 6 27 C4.02 27 2.04 27 0 27 C0 18.09 0 9.18 0 0 Z " fill="#D4FAEC" transform="translate(10,35)"/>
<path d="M0 0 C-0.33 5.28 -0.66 10.56 -1 16 C-1.33 16 -1.66 16 -2 16 C-2 11.71 -2 7.42 -2 3 C-4.64 3 -7.28 3 -10 3 C-10 7.29 -10 11.58 -10 16 C-11.98 16 -13.96 16 -16 16 C-16 12.04 -16 8.08 -16 4 C-15.67 4 -15.34 4 -15 4 C-14.67 6.97 -14.34 9.94 -14 13 C-13.01 13.33 -12.02 13.66 -11 14 C-11.33 13.34 -11.66 12.68 -12 12 C-12.07033769 10.12620395 -12.0843022 8.24998898 -12.0625 6.375 C-12.05347656 5.37210938 -12.04445312 4.36921875 -12.03515625 3.3359375 C-12.01775391 2.17964844 -12.01775391 2.17964844 -12 1 C-10.56496445 0.63597631 -9.12683494 0.28413409 -7.6875 -0.0625 C-6.88699219 -0.25972656 -6.08648437 -0.45695312 -5.26171875 -0.66015625 C-3 -1 -3 -1 0 0 Z " fill="#419F70" transform="translate(58,40)"/>
<path d="M0 0 C2.31 0 4.62 0 7 0 C7 8.91 7 17.82 7 27 C4.69 27 2.38 27 0 27 C0 18.09 0 9.18 0 0 Z M2 2 C0.76078789 3.01636977 0.76078789 3.01636977 0.88647461 5.13305664 C0.89171143 6.04949951 0.89694824 6.96594238 0.90234375 7.91015625 C0.90556641 8.89951172 0.90878906 9.88886719 0.91210938 10.90820312 C0.92048828 11.94912109 0.92886719 12.99003906 0.9375 14.0625 C0.94201172 15.10728516 0.94652344 16.15207031 0.95117188 17.22851562 C0.96300087 19.8190666 0.97948311 22.40950559 1 25 C1.99 25 2.98 25 4 25 C4 24.01 4 23.02 4 22 C4.66 22 5.32 22 6 22 C6 15.73 6 9.46 6 3 C4.68 2.67 3.36 2.34 2 2 Z " fill="#BBF2D4" transform="translate(60,35)"/>
<path d="M0 0 C0.99 0 1.98 0 3 0 C3 3.96 3 7.92 3 12 C2.34 12 1.68 12 1 12 C1 12.66 1 13.32 1 14 C-2.96 14 -6.92 14 -11 14 C-11 13.01 -11 12.02 -11 11 C-8.03 11 -5.06 11 -2 11 C-2 10.34 -2 9.68 -2 9 C-1.34 9 -0.68 9 0 9 C0 6.03 0 3.06 0 0 Z " fill="#F1FCF6" transform="translate(51,46)"/>
<path d="M0 0 C1.32 0 2.64 0 4 0 C4 3.96 4 7.92 4 12 C4.66 12 5.32 12 6 12 C6 12.66 6 13.32 6 14 C5.01 14.33 4.02 14.66 3 15 C2.67 14.34 2.34 13.68 2 13 C1.01 14.485 1.01 14.485 0 16 C0 12.04 0 8.08 0 4 C-1.98 4 -3.96 4 -6 4 C-6 7.96 -6 11.92 -6 16 C-6.33 16 -6.66 16 -7 16 C-7 11.71 -7 7.42 -7 3 C-4.36 2.67 -1.72 2.34 1 2 C0.67 1.34 0.34 0.68 0 0 Z " fill="#5BBE8F" transform="translate(41,40)"/>
<path d="M0 0 C1.77007714 -0.08114106 3.54122098 -0.13925505 5.3125 -0.1875 C6.29863281 -0.22230469 7.28476562 -0.25710937 8.30078125 -0.29296875 C11 0 11 0 12.84375 1.03125 C14.64814328 4.10359531 14.31315622 7.23678696 14.1875 10.6875 C14.17396484 11.38939453 14.16042969 12.09128906 14.14648438 12.81445312 C14.11120182 14.54329829 14.05739583 16.27174765 14 18 C12.02 18 10.04 18 8 18 C8 17.34 8 16.68 8 16 C9.65 16 11.3 16 13 16 C12.01 12.04 11.02 8.08 10 4 C8.535625 3.71125 7.07125 3.4225 5.5625 3.125 C3.06640625 2.6328125 3.06640625 2.6328125 1 2 C0.67 1.34 0.34 0.68 0 0 Z " fill="#D3FCEA" transform="translate(16,44)"/>
<path d="M0 0 C0.99 0.495 0.99 0.495 2 1 C2 1.99 2 2.98 2 4 C2.99 3.67 3.98 3.34 5 3 C5.33 3.33 5.66 3.66 6 4 C7.66617115 4.04063832 9.33388095 4.042721 11 4 C11.33 4.66 11.66 5.32 12 6 C9.36 6 6.72 6 4 6 C4 6.66 4 7.32 4 8 C3.34 8 2.68 8 2 8 C2 12.95 2 17.9 2 23 C1.34 22.67 0.68 22.34 0 22 C0 14.74 0 7.48 0 0 Z " fill="#4FB675" transform="translate(68,36)"/>
<path d="M0 0 C1.98 0 3.96 0 6 0 C6 3.96 6 7.92 6 12 C5.01 11.01 4.02 10.02 3 9 C2.67 9.66 2.34 10.32 2 11 C1.34 11 0.68 11 0 11 C0 7.37 0 3.74 0 0 Z " fill="#30A775" transform="translate(17,50)"/>
<path d="M0 0 C0 0.99 0 1.98 0 3 C-2.31 3 -4.62 3 -7 3 C-7 10.59 -7 18.18 -7 26 C-7.33 26 -7.66 26 -8 26 C-8.04898438 24.75863281 -8.09796875 23.51726563 -8.1484375 22.23828125 C-8.22349799 20.59633306 -8.29904439 18.95440703 -8.375 17.3125 C-8.4059375 16.49587891 -8.436875 15.67925781 -8.46875 14.83789062 C-8.68298633 10.42819275 -9.2035411 7.08499131 -11 3 C-8.89427904 -1.21144191 -4.11694326 -0.07767817 0 0 Z " fill="#53B679" transform="translate(67,32)"/>
<path d="M0 0 C0.33 0 0.66 0 1 0 C1 3.63 1 7.26 1 11 C1.66 11 2.32 11 3 11 C3.33 10.01 3.66 9.02 4 8 C4.66 8 5.32 8 6 8 C6.33 5.36 6.66 2.72 7 0 C7.33 0 7.66 0 8 0 C8 3.96 8 7.92 8 12 C9.98 12 11.96 12 14 12 C14 12.33 14 12.66 14 13 C9.545 13.495 9.545 13.495 5 14 C5 13.34 5 12.68 5 12 C4.34 12 3.68 12 3 12 C3 12.66 3 13.32 3 14 C1.68 13.67 0.36 13.34 -1 13 C-0.67 8.71 -0.34 4.42 0 0 Z " fill="#5BBE93" transform="translate(16,50)"/>
<path d="M0 0 C0.99 0.66 1.98 1.32 3 2 C2.93981939 4.41926039 2.85277783 6.83248672 2.75 9.25 C2.73582031 9.93191406 2.72164063 10.61382812 2.70703125 11.31640625 C2.53447223 14.87112206 2.2454103 16.70213559 -0.046875 19.484375 C-0.69140625 19.98453125 -1.3359375 20.4846875 -2 21 C-2.66 20.01 -3.32 19.02 -4 18 C-3.51917969 17.48953125 -3.03835937 16.9790625 -2.54296875 16.453125 C-0.48262506 13.17743934 -0.49039226 10.59247281 -0.3125 6.75 C-0.24675781 5.48671875 -0.18101563 4.2234375 -0.11328125 2.921875 C-0.05720703 1.47554687 -0.05720703 1.47554687 0 0 Z " fill="#54AB70" transform="translate(92,43)"/>
<path d="M0 0 C0.33 0 0.66 0 1 0 C1 2.64 1 5.28 1 8 C1.66 7.67 2.32 7.34 3 7 C2.67 5.02 2.34 3.04 2 1 C2.66 1 3.32 1 4 1 C4 2.65 4 4.3 4 6 C5.11375 5.938125 6.2275 5.87625 7.375 5.8125 C9.169375 5.9053125 9.169375 5.9053125 11 6 C11.99 7.485 11.99 7.485 13 9 C10.27157939 10.36421031 8.39046682 9.87807211 5.375 9.5625 C4.37210938 9.46066406 3.36921875 9.35882813 2.3359375 9.25390625 C1.56507812 9.17011719 0.79421875 9.08632813 0 9 C0 6.03 0 3.06 0 0 Z " fill="#57B890" transform="translate(16,35)"/>
<path d="M0 0 C0.33 0 0.66 0 1 0 C1.03738281 0.80824219 1.07476562 1.61648437 1.11328125 2.44921875 C1.17902344 3.51785156 1.24476562 4.58648437 1.3125 5.6875 C1.37050781 6.74324219 1.42851563 7.79898438 1.48828125 8.88671875 C2.06111621 12.37182914 2.7001777 14.31037731 5 17 C7.9477007 17.81928716 7.9477007 17.81928716 11.1875 17.8125 C12.81751953 17.88404297 12.81751953 17.88404297 14.48046875 17.95703125 C15.31191406 17.97121094 16.14335938 17.98539063 17 18 C17 18.33 17 18.66 17 19 C15.27277272 19.22384382 13.54303993 19.42839969 11.8125 19.625 C10.36810547 19.79902344 10.36810547 19.79902344 8.89453125 19.9765625 C5.67782011 20.00260874 3.7826261 19.61125419 1 18 C-0.65096752 14.58640533 -0.09691264 10.46656506 -0.0625 6.75 C-0.05347656 5.48671875 -0.04445312 4.2234375 -0.03515625 2.921875 C-0.02355469 1.95765625 -0.01195312 0.9934375 0 0 Z " fill="#46A577" transform="translate(33,44)"/>
<path d="M0 0 C0.99 0 1.98 0 3 0 C3.13277344 0.61488281 3.26554687 1.22976562 3.40234375 1.86328125 C3.57894531 2.67152344 3.75554687 3.47976562 3.9375 4.3125 C4.19853516 5.51326172 4.19853516 5.51326172 4.46484375 6.73828125 C4.99886159 9.145401 4.99886159 9.145401 6 12 C4.35 12 2.7 12 1 12 C0.03929566 9.11788698 -0.10581883 7.30149956 -0.0625 4.3125 C-0.05347656 3.50425781 -0.04445313 2.69601563 -0.03515625 1.86328125 C-0.02355469 1.24839844 -0.01195313 0.63351563 0 0 Z " fill="#F5FEF7" transform="translate(73,47)"/>
<path d="M0 0 C1.65 0 3.3 0 5 0 C5 4.95 5 9.9 5 15 C4.01 15 3.02 15 2 15 C2 14.34 2 13.68 2 13 C2.66 13 3.32 13 4 13 C4 9.37 4 5.74 4 2 C3.01 2 2.02 2 1 2 C1.33 4.31 1.66 6.62 2 9 C1.01 9.495 1.01 9.495 0 10 C0 6.7 0 3.4 0 0 Z " fill="#E1FCE8" transform="translate(86,44)"/>
<path d="M0 0 C0.99 0 1.98 0 3 0 C3.33 3.3 3.66 6.6 4 10 C2.68 10.33 1.36 10.66 0 11 C0 7.37 0 3.74 0 0 Z " fill="#F3FEF4" transform="translate(37,46)"/>
<path d="M0 0 C0.99 0 1.98 0 3 0 C3.33 2.31 3.66 4.62 4 7 C2.68 7 1.36 7 0 7 C-1.125 2.25 -1.125 2.25 0 0 Z " fill="#2FB169" transform="translate(55,57)"/>
<path d="M0 0 C0.33 0 0.66 0 1 0 C1 3.63 1 7.26 1 11 C-0.98 11 -2.96 11 -5 11 C-5 8.36 -5 5.72 -5 3 C-4.67 3 -4.34 3 -4 3 C-4 4.98 -4 6.96 -4 9 C-3.01 8.67 -2.02 8.34 -1 8 C-0.67 5.36 -0.34 2.72 0 0 Z " fill="#4EA06D" transform="translate(84,45)"/>
<path d="M0 0 C0.33 0 0.66 0 1 0 C1 3.63 1 7.26 1 11 C1.66 11 2.32 11 3 11 C3 11.99 3 12.98 3 14 C1.68 13.67 0.36 13.34 -1 13 C-0.67 8.71 -0.34 4.42 0 0 Z M3 8 C3.99 8.495 3.99 8.495 5 9 C5 9.66 5 10.32 5 11 C4.34 11 3.68 11 3 11 C3 10.01 3 9.02 3 8 Z " fill="#4CB989" transform="translate(16,50)"/>
<path d="M0 0 C1.32 0 2.64 0 4 0 C4 0.66 4 1.32 4 2 C3.34 2 2.68 2 2 2 C2 4.97 2 7.94 2 11 C1.34 11 0.68 11 0 11 C0 7.37 0 3.74 0 0 Z " fill="#DFFDEB" transform="translate(49,44)"/>
<path d="M0 0 C0.99 0 1.98 0 3 0 C3 6.93 3 13.86 3 21 C2.67 21 2.34 21 2 21 C1.93941406 19.73542969 1.87882812 18.47085938 1.81640625 17.16796875 C1.73199096 15.50780129 1.64734345 13.84764563 1.5625 12.1875 C1.52318359 11.35412109 1.48386719 10.52074219 1.44335938 9.66210938 C1.40146484 8.85966797 1.35957031 8.05722656 1.31640625 7.23046875 C1.26141968 6.12288208 1.26141968 6.12288208 1.20532227 4.99291992 C1.05157859 2.792505 1.05157859 2.792505 0 0 Z " fill="#5AA77F" transform="translate(57,37)"/>
<path d="M0 0 C0 0.66 0 1.32 0 2 C-0.78375 2.144375 -1.5675 2.28875 -2.375 2.4375 C-4.96421018 2.87798925 -4.96421018 2.87798925 -7 4 C-7.46523063 5.89533342 -7.46523063 5.89533342 -7.625 8.0625 C-7.74875 9.361875 -7.8725 10.66125 -8 12 C-8.33 12 -8.66 12 -9 12 C-9 8.37 -9 4.74 -9 1 C-4 0 -4 0 0 0 Z " fill="#43B47B" transform="translate(55,40)"/>
<path d="M0 0 C1.4540625 0.0309375 1.4540625 0.0309375 2.9375 0.0625 C2.6075 1.0525 2.2775 2.0425 1.9375 3.0625 C0.6175 3.0625 -0.7025 3.0625 -2.0625 3.0625 C-2.3925 6.3625 -2.7225 9.6625 -3.0625 13.0625 C-3.3925 13.0625 -3.7225 13.0625 -4.0625 13.0625 C-4.08936553 11.08340602 -4.10883375 9.10421029 -4.125 7.125 C-4.13660156 6.02285156 -4.14820312 4.92070313 -4.16015625 3.78515625 C-4.02168594 -0.07539595 -3.9087853 0.07977113 0 0 Z " fill="#A4E7BE" transform="translate(75.0625,42.9375)"/>
<path d="M0 0 C2.97 0 5.94 0 9 0 C9.33 0.99 9.66 1.98 10 3 C2.25 3.125 2.25 3.125 0 2 C0 1.34 0 0.68 0 0 Z " fill="#33B083" transform="translate(6,32)"/>
<path d="M0 0 C0.66 0.66 1.32 1.32 2 2 C1.625 5.625 1.625 5.625 1 9 C0.34 9 -0.32 9 -1 9 C-1.09765625 2.84765625 -1.09765625 2.84765625 -1 1 C-0.67 0.67 -0.34 0.34 0 0 Z " fill="#40BD68" transform="translate(95,47)"/>
<path d="M0 0 C2.64 0 5.28 0 8 0 C7.67 0.99 7.34 1.98 7 3 C4.69 2.67 2.38 2.34 0 2 C0 1.34 0 0.68 0 0 Z " fill="#3AA878" transform="translate(8,62)"/>
<path d="M0 0 C0.99 0.495 0.99 0.495 2 1 C2 5.1274515 1.54466387 8.915021 1 13 C0.67 13 0.34 13 0 13 C0 8.71 0 4.42 0 0 Z " fill="#63B47D" transform="translate(78,43)"/>
<path d="M0 0 C0.99 0 1.98 0 3 0 C2.34 3.96 1.68 7.92 1 12 C0.67 12 0.34 12 0 12 C0 8.04 0 4.08 0 0 Z " fill="#2FB579" transform="translate(0,64)"/>
</svg>
