<?xml version="1.0" encoding="UTF-8"?>
<svg version="1.1" xmlns="http://www.w3.org/2000/svg" width="1200" height="1183">
<path d="M0 0 C12.88236016 11.57159538 22.65203836 25.90156556 30.84814453 41.06689453 C31.18273682 41.68209961 31.5173291 42.29730469 31.86206055 42.93115234 C33.59814592 46.24155046 34.77469252 49.23224294 35.28564453 52.94189453 C35.94564453 52.94189453 36.60564453 52.94189453 37.28564453 52.94189453 C37.36943359 52.28060547 37.45322266 51.61931641 37.53955078 50.93798828 C38.53243971 46.95083744 40.29098383 43.6143236 42.22314453 40.00439453 C42.62428467 39.25440186 43.0254248 38.50440918 43.4387207 37.73168945 C61.23648324 5.19262427 90.3703899 -20.07954939 126.04345703 -30.87841797 C136.99608317 -34.00845061 148.0473737 -36.19382265 159.46533203 -36.26123047 C160.23636261 -36.26693054 161.00739319 -36.27263062 161.80178833 -36.27850342 C163.43050793 -36.28790505 165.05924614 -36.29446803 166.68798828 -36.29833984 C169.11934 -36.30794234 171.54980678 -36.33896789 173.98095703 -36.37060547 C206.40762087 -36.59071413 238.69949491 -25.4157708 263.28564453 -4.05810547 C264.09259766 -3.37232422 264.89955078 -2.68654297 265.73095703 -1.97998047 C296.23415725 24.60274574 312.58577643 61.88357635 317.03564453 101.75439453 C317.14718882 103.48197077 317.22822017 105.21167366 317.28564453 106.94189453 C317.32560547 108.13427734 317.36556641 109.32666016 317.40673828 110.55517578 C317.65329824 122.09076147 316.71996325 133.64753293 314.28564453 144.94189453 C315.14609375 144.23226562 315.14609375 144.23226562 316.02392578 143.50830078 C333.37789637 129.99906419 355.55979341 122.45374218 377.28564453 119.94189453 C378.14416016 119.83232422 379.00267578 119.72275391 379.88720703 119.60986328 C415.64532837 115.65431889 454.07280191 125.04492184 482.45751953 147.60205078 C483.39080078 148.37419922 484.32408203 149.14634766 485.28564453 149.94189453 C486.3739301 150.81591142 487.46248195 151.68959684 488.55126953 152.56298828 C518.25341599 176.70570157 537.27800782 211.67514273 541.3918457 249.69726562 C545.02710677 289.35165748 533.47495528 330.00940604 508.24169922 361.08666992 C496.2183042 375.4755647 496.2183042 375.4755647 489.28564453 378.94189453 C490.56955078 378.96767578 491.85345703 378.99345703 493.17626953 379.02001953 C535.42984388 380.22519159 571.32802667 396.75100035 600.70361328 427.05126953 C605.90175403 432.57951619 610.260345 438.52045972 614.28564453 444.94189453 C614.67445801 445.5614502 615.06327148 446.18100586 615.46386719 446.81933594 C624.60787933 461.65998853 630.99388032 477.80774303 634.28564453 494.94189453 C634.46297119 495.86123779 634.64029785 496.78058105 634.82299805 497.7277832 C636.38625711 506.70869609 636.64516247 515.54638286 636.59814453 524.62939453 C636.59598938 525.37956848 636.59383423 526.12974243 636.59161377 526.90264893 C636.5398031 538.14736088 636.1414655 549.01748846 633.28564453 559.94189453 C633.08165039 560.73660156 632.87765625 561.53130859 632.66748047 562.35009766 C625.82427644 588.30845238 613.92629969 611.49498266 595.28564453 630.94189453 C594.54056641 631.75013672 593.79548828 632.55837891 593.02783203 633.39111328 C573.17588041 654.25859378 546.48652653 666.47729021 518.28564453 670.94189453 C517.21689726 671.11538256 516.14814999 671.2888706 515.04701644 671.46761584 C508.29279441 672.29241213 501.46724588 672.08182235 494.67400646 672.0733223 C493.06732952 672.0749732 491.46065298 672.07706005 489.85397711 672.0795424 C485.43014112 672.08510256 481.00632451 672.08443782 476.58248614 672.08276481 C471.77278809 672.08203341 466.96309549 672.08705737 462.15339977 672.09133983 C452.60990821 672.09891939 443.06642225 672.10111287 433.522928 672.10166888 C422.09315129 672.10258257 410.66337975 672.10925028 399.23360526 672.11601571 C371.60690048 672.1320779 343.98019626 672.1379793 316.35348765 672.14276445 C303.28405348 672.14510025 290.21461974 672.14870289 277.14518591 672.15245983 C233.10810037 672.16509459 189.07101507 672.17590784 145.03392777 672.17930029 C142.92943039 672.17946253 140.82493301 672.17962809 138.72043562 672.17979467 C134.49990517 672.18012847 130.27937472 672.18045895 126.05884427 672.18078923 C121.11773681 672.18117613 116.17662934 672.18156574 111.23552188 672.1819603 C109.82134222 672.18207272 108.40716255 672.18218413 106.99298289 672.18229455 C61.58610693 672.18584306 16.1792468 672.20091764 -29.22762312 672.22423229 C-61.85772001 672.24097979 -94.48781391 672.25645146 -127.11791515 672.26096725 C-127.78933866 672.26106074 -128.46076218 672.26115423 -129.15253185 672.26125055 C-144.55537419 672.26336046 -159.95821642 672.26444691 -175.36105889 672.26483035 C-180.63140913 672.2650018 -185.90175937 672.26521723 -191.1721096 672.26546478 C-192.46981802 672.26552055 -193.76752643 672.26557632 -195.10455934 672.26563378 C-215.98442671 672.26678421 -236.8642777 672.27780558 -257.74413954 672.29235184 C-278.73394505 672.30672176 -299.72372955 672.30995102 -320.71353862 672.30191186 C-333.18048906 672.2974579 -345.64737169 672.30130692 -358.11431321 672.31715037 C-366.44839867 672.32691115 -374.78243669 672.3257116 -383.11652173 672.31571414 C-387.86088474 672.31033007 -392.60511767 672.30958629 -397.34946982 672.32222286 C-433.4448887 672.41240879 -433.4448887 672.41240879 -448.71435547 668.94189453 C-449.76795881 668.71046792 -450.82156215 668.47904131 -451.90709287 668.24060178 C-454.35285018 667.67760079 -456.74588047 667.02973846 -459.15185547 666.31689453 C-460.44289185 665.93839355 -460.44289185 665.93839355 -461.76000977 665.55224609 C-482.18415752 659.29536302 -500.66841913 649.01333091 -516.71435547 634.94189453 C-517.54193359 634.24708984 -518.36951172 633.55228516 -519.22216797 632.83642578 C-544.83897233 610.79312548 -561.29911527 577.32698451 -563.88967896 543.66363525 C-564.11709782 539.0554142 -564.14310185 534.45303711 -564.10546875 529.84008789 C-564.08938167 527.50819247 -564.10543633 525.17803521 -564.12451172 522.84619141 C-564.14533078 508.60240444 -562.30802538 494.56379879 -558.02685547 480.94189453 C-557.77194336 480.11850586 -557.51703125 479.29511719 -557.25439453 478.44677734 C-550.66855091 457.88667055 -540.35900681 439.79435216 -525.71435547 423.94189453 C-525.01487793 423.1766748 -525.01487793 423.1766748 -524.30126953 422.39599609 C-496.61102853 392.42515871 -458.65509475 379.28360752 -418.71435547 376.94189453 C-419.34341797 376.38501953 -419.97248047 375.82814453 -420.62060547 375.25439453 C-423.33485466 372.83446151 -426.02611398 370.39066623 -428.71435547 367.94189453 C-429.40529297 367.33087891 -430.09623047 366.71986328 -430.80810547 366.09033203 C-441.65668789 355.99759347 -448.64752967 342.26885568 -454.71435547 328.94189453 C-455.25962891 327.75208984 -455.80490234 326.56228516 -456.36669922 325.33642578 C-472.36414835 288.00904447 -471.48608074 245.34668468 -457.15576172 207.76220703 C-451.14251522 192.80970713 -442.41366809 178.96424043 -431.71435547 166.94189453 C-430.97443359 166.08208984 -430.23451172 165.22228516 -429.47216797 164.33642578 C-406.59126795 138.16986019 -371.38569847 120.80994766 -336.71435547 117.94189453 C-320.8771501 117.28837168 -305.18190223 117.2398857 -289.71435547 120.94189453 C-288.62453369 121.19132812 -288.62453369 121.19132812 -287.51269531 121.44580078 C-271.08597721 125.28664416 -255.98889828 131.98531865 -241.71435547 140.94189453 C-241.85873047 140.20712891 -242.00310547 139.47236328 -242.15185547 138.71533203 C-245.42001422 118.97020625 -245.53138323 97.43073193 -240.71435547 77.94189453 C-240.51567871 77.11963379 -240.31700195 76.29737305 -240.11230469 75.45019531 C-234.34811445 52.19913581 -224.48104696 31.12469984 -208.71435547 12.94189453 C-208.00666016 12.11302734 -207.29896484 11.28416016 -206.56982422 10.43017578 C-182.48380489 -17.11478152 -147.32305349 -33.08378762 -111.02441406 -35.91748047 C-69.52838447 -38.44355456 -31.42978746 -27.56877941 0 0 Z " fill="#FEFEFE" transform="translate(563.71435546875,36.05810546875)"/>
<path d="M0 0 C212.2147651 0 212.2147651 0 242 28 C242.92039062 28.83015625 243.84078125 29.6603125 244.7890625 30.515625 C262.07518205 46.8017211 271.66266684 69.52535017 273.20629883 93.15844727 C273.3021935 96.37946745 273.32931575 99.59012164 273.3125 102.8125 C273.30686035 103.95251465 273.3012207 105.0925293 273.29541016 106.26708984 C272.91897383 132.46482167 262.48227998 156.46500387 244 175 C239.49922124 179.19888321 234.78701431 183.13356536 230 187 C230.96679688 187.556875 231.93359375 188.11375 232.9296875 188.6875 C240.79113085 193.27173896 248.1040563 198.01965219 255 204 C255.81855469 204.68578125 256.63710938 205.3715625 257.48046875 206.078125 C280.95788646 226.31602305 292.69320508 254.50144033 295 285 C296.65573629 316.76310438 285.27196268 343.62595311 264.3515625 366.953125 C248.83450828 383.24375671 225.31822021 398.37974789 202.16758251 399.12304783 C200.63778404 399.12723276 199.10796449 399.12591807 197.57817078 399.12025452 C196.73472107 399.12111053 195.89127136 399.12196655 195.02226257 399.12284851 C192.18889245 399.12450287 189.35558151 399.11898139 186.5222168 399.11352539 C184.45907245 399.11321905 182.395928 399.11335255 180.3327837 399.11389065 C174.80532518 399.11411651 169.27788829 399.10831853 163.75043488 399.10128021 C158.56462027 399.0955874 153.37881095 399.09531721 148.19299316 399.09460449 C133.02449258 399.08935612 117.85599602 399.07539498 102.6875 399.0625 C68.800625 399.041875 34.91375 399.02125 0 399 C0 267.33 0 135.66 0 0 Z M83 68 C83 98.69 83 129.38 83 161 C93.4775 161.0825 103.955 161.165 114.75 161.25 C119.67631348 161.30462402 119.67631348 161.30462402 124.70214844 161.36035156 C127.337884 161.37204628 129.97362684 161.38223624 132.609375 161.390625 C133.27712952 161.40107849 133.94488403 161.41153198 134.63287354 161.42230225 C149.53187054 161.64347975 162.13155708 158.14201756 173.2890625 147.8984375 C182.57927093 138.05151246 186.93242953 125.86377811 187.375 112.375 C186.92781495 99.53706248 181.56491621 88.60104203 172.265625 79.81640625 C159.23394888 69.36859695 145.25893844 67.83708915 129.19140625 67.90234375 C128.01896362 67.90335083 126.846521 67.90435791 125.6385498 67.90539551 C121.27985652 67.91060774 116.92117722 67.92456896 112.5625 67.9375 C102.806875 67.958125 93.05125 67.97875 83 68 Z M84 230 C84 263.66 84 297.32 84 332 C95.4675 332.061875 106.935 332.12375 118.75 332.1875 C124.14617676 332.22846802 124.14617676 332.22846802 129.65136719 332.27026367 C132.92568543 332.28030775 132.92568543 332.28030775 136.20001221 332.28633118 C137.63868 332.29088525 139.07733762 332.30132464 140.51593018 332.31672668 C159.38875224 332.50837526 175.7233632 328.1963235 189.58984375 314.73828125 C198.46914871 304.6501244 203 292.39337109 203 279 C202.40754371 270.7241262 201.12455917 263.25212226 197 256 C196.59007812 255.26394531 196.18015625 254.52789063 195.7578125 253.76953125 C188.11654001 241.22834674 176.1212192 233.48080788 162 230 C159.3098067 229.82986536 156.73047516 229.74556039 154.04516602 229.77294922 C153.27117179 229.77270815 152.49717756 229.77246708 151.69972897 229.7722187 C149.21766725 229.77370028 146.73591357 229.78887941 144.25390625 229.8046875 C142.71220036 229.80763153 141.17049247 229.80966975 139.62878418 229.81079102 C133.93999211 229.82123668 128.25124297 229.84915923 122.5625 229.875 C103.4740625 229.936875 103.4740625 229.936875 84 230 Z " fill="#000000" transform="translate(500,767)"/>
<path d="M0 0 C17.02644942 15.34290466 29.19005343 34.96559553 35.3359375 57.06030273 C35.51930664 57.68001953 35.70267578 58.29973633 35.89160156 58.93823242 C44.065785 87.55479002 39.32466088 118.66357387 34.52935791 147.42207336 C33.52945374 153.54078406 32.76937888 159.6659889 32.07421875 165.82592773 C30.67359144 178.05812583 28.89423166 190.22663227 27.0859375 202.40405273 C26.93614756 203.41362785 26.78635761 204.42320297 26.63202858 205.46337128 C25.37951276 213.89729302 24.11832739 222.32991467 22.85693359 230.76251221 C21.76270612 238.0799489 20.67160975 245.39784154 19.5859375 252.71655273 C19.43547974 253.73045578 19.28502197 254.74435883 19.13000488 255.78898621 C17.56432197 266.3653742 16.02498522 276.93366208 14.8359375 287.56030273 C13.5317906 299.2155965 11.80723619 310.80458494 10.0859375 322.40405273 C9.935802 323.41614304 9.7856665 324.42823334 9.63098145 325.47099304 C8.37881715 333.90237442 7.11794801 342.3324509 5.85693359 350.76251221 C4.76270612 358.07994886 3.67155777 365.39783385 2.5859375 372.71655273 C2.43550051 373.73049732 2.28506351 374.74444191 2.13006783 375.78911209 C0.4300417 387.27546999 -1.18177485 398.75368362 -2.47523499 410.29391479 C-3.71296848 421.03180022 -5.31080176 431.71830776 -6.87890625 442.41186523 C-7.02779926 443.42748787 -7.17669228 444.4431105 -7.3300972 445.48950958 C-8.41608896 452.88877197 -9.50844046 460.28709097 -10.6015625 467.68530273 C-11.84335386 476.09364242 -13.08253775 484.502359 -14.31640625 492.91186523 C-14.46451122 493.92073036 -14.6126162 494.92959549 -14.7652092 495.96903229 C-17.25751716 512.97630089 -19.56955511 529.9993192 -21.6640625 547.06030273 C-22.3240625 547.06030273 -22.9840625 547.06030273 -23.6640625 547.06030273 C-24.13489258 545.94324951 -24.60572266 544.82619629 -25.09082031 543.67529297 C-34.24709139 521.955431 -43.4250979 500.24513211 -52.6640625 478.56030273 C-59.58776411 462.30940713 -66.47826514 446.0449105 -73.34130859 429.76831055 C-79.83762951 414.36344181 -86.37427942 398.97605426 -92.92733765 383.59524536 C-98.97134336 369.40765727 -104.98612551 355.20808662 -110.9765625 340.99780273 C-118.00077879 324.33557106 -125.07143672 307.69352442 -132.1640625 291.06030273 C-139.64551534 273.51522598 -147.0980308 255.95845995 -154.50665283 238.38250732 C-160.22605409 224.81502698 -165.97643017 211.26105628 -171.74795532 197.71566772 C-183.90322557 169.18596388 -183.90322557 169.18596388 -189.34014893 156.26702881 C-190.12791821 154.3961424 -190.91814826 152.52629271 -191.70849609 150.65649414 C-195.70841307 141.12772381 -199.54673134 131.6548797 -201.8515625 121.56030273 C-202.01591797 120.8912793 -202.18027344 120.22225586 -202.34960938 119.53295898 C-209.55522584 88.66841557 -204.1898278 55.92546609 -187.6640625 29.06030273 C-185.15612489 25.25618351 -182.48172417 21.63963854 -179.6640625 18.06030273 C-178.93058594 17.11155273 -178.19710938 16.16280273 -177.44140625 15.18530273 C-172.93786548 9.49987219 -168.30853042 4.60134084 -162.6640625 0.06030273 C-161.91640625 -0.57391602 -161.16875 -1.20813477 -160.3984375 -1.86157227 C-114.01584765 -40.46385672 -45.52032095 -39.70783693 0 0 Z " fill="#CC004C" transform="translate(547.6640625,52.939697265625)"/>
<path d="M0 0 C7.77464789 6.6639839 7.77464789 6.6639839 10.4375 9.4375 C12.7086289 11.74856084 15.0249572 13.90984506 17.5 16 C21.71534396 19.62256122 25.59188912 23.55361184 29.5 27.5 C35.08543913 33.17500865 35.08543913 33.17500865 41 38.5 C45.79514352 42.5380156 50.1045078 47.08125059 54.51171875 51.53125 C57.59207796 54.63005448 60.65516604 57.68329772 64 60.5 C68.74660873 64.49714419 73.03021627 68.98123309 77.37109375 73.40820312 C80.47525776 76.55502478 83.61881865 79.58335991 86.96875 82.46875 C91.91227222 86.73139913 96.4321549 91.38200168 101 96.0390625 C104.87539047 99.95986771 108.85496085 103.65675095 113.03125 107.25390625 C116.33755551 110.18628435 119.40718115 113.34584132 122.5 116.5 C128.08451207 122.17600394 128.08451207 122.17600394 134 127.5 C138.79514352 131.5380156 143.1045078 136.08125059 147.51171875 140.53125 C150.59207796 143.63005448 153.65516604 146.68329772 157 149.5 C161.79514352 153.5380156 166.1045078 158.08125059 170.51171875 162.53125 C173.59207796 165.63005448 176.65516604 168.68329772 180 171.5 C184.79514352 175.5380156 189.1045078 180.08125059 193.51171875 184.53125 C196.59207796 187.63005448 199.65516604 190.68329772 203 193.5 C207.74660873 197.49714419 212.03021627 201.98123309 216.37109375 206.40820312 C219.46888032 209.5485597 222.60519265 212.57090476 225.94921875 215.44921875 C230.2910066 219.1922847 234.29900311 223.22320524 238.3125 227.3125 C239.70206438 228.72758439 241.093897 230.14044599 242.48828125 231.55078125 C243.39380737 232.47370972 243.39380737 232.47370972 244.31762695 233.4152832 C246.11691651 235.19836134 246.11691651 235.19836134 249 237 C249.33 164.07 249.66 91.14 250 16 C278.05 16 306.1 16 335 16 C335 152.95 335 289.9 335 431 C327.1386704 424.26171749 327.1386704 424.26171749 323.66015625 420.72265625 C322.90669922 419.96146484 322.15324219 419.20027344 321.37695312 418.41601562 C319.83785767 416.85094387 318.298795 415.28583987 316.75976562 413.72070312 C316.00501953 412.95822266 315.25027344 412.19574219 314.47265625 411.41015625 C313.47117554 410.39127319 313.47117554 410.39127319 312.44946289 409.35180664 C310.42123883 407.4044447 308.35832179 405.56499308 306.23022461 403.73022461 C301.90688722 399.9730464 297.86847273 395.97873979 293.84375 391.90625 C292.72389709 390.78071716 292.72389709 390.78071716 291.5814209 389.63244629 C288.42298888 386.45783496 285.27060721 383.27724084 282.11767578 380.09716797 C279.79930255 377.76059639 277.4778448 375.42712001 275.15625 373.09375 C274.45705444 372.3862561 273.75785889 371.67876221 273.03747559 370.9498291 C269.15195103 367.04527037 265.15673863 363.35816644 260.98620605 359.76135254 C257.53121636 356.69749375 254.30668269 353.40892942 251.0625 350.125 C249.97594116 349.03276123 249.97594116 349.03276123 248.86743164 347.91845703 C245.80457576 344.83943049 242.74777689 341.75441677 239.69042969 338.66992188 C237.44155883 336.40284542 235.18959762 334.13887034 232.9375 331.875 C232.26017822 331.18937988 231.58285645 330.50375977 230.88500977 329.79736328 C227.68175061 326.57793203 224.43910294 323.46741388 221 320.5 C216.8229225 316.89582823 212.93835424 313.04834002 209.0625 309.125 C207.97594116 308.03276123 207.97594116 308.03276123 206.86743164 306.91845703 C203.80457576 303.83943049 200.74777689 300.75441677 197.69042969 297.66992188 C195.44155883 295.40284542 193.18959762 293.13887034 190.9375 290.875 C190.26017822 290.18937988 189.58285645 289.50375977 188.88500977 288.79736328 C185.68175061 285.57793203 182.43910294 282.46741388 179 279.5 C174.8229225 275.89582823 170.93835424 272.04834002 167.0625 268.125 C165.97594116 267.03276123 165.97594116 267.03276123 164.86743164 265.91845703 C161.80457576 262.83943049 158.74777689 259.75441677 155.69042969 256.66992188 C153.44155883 254.40284542 151.18959762 252.13887034 148.9375 249.875 C148.26017822 249.18937988 147.58285645 248.50375977 146.88500977 247.79736328 C143.68623674 244.58244081 140.44865151 241.47611907 137.01367188 238.51367188 C132.75398793 234.83815242 128.79701345 230.9064324 124.84375 226.90625 C124.0971814 226.15589478 123.35061279 225.40553955 122.5814209 224.63244629 C119.42298888 221.45783496 116.27060721 218.27724084 113.11767578 215.09716797 C110.79930255 212.76059639 108.4778448 210.42712001 106.15625 208.09375 C105.45705444 207.3862561 104.75785889 206.67876221 104.03747559 205.9498291 C100.11156582 202.00468732 96.09134751 198.24683927 91.85388184 194.6373291 C89.8234251 192.84405089 87.91554187 190.91554187 86 189 C85.67 263.58 85.34 338.16 85 415 C56.95 415 28.9 415 0 415 C0 278.05 0 141.1 0 0 Z " fill="#000000" transform="translate(120,751)"/>
<path d="M0 0 C0.65758301 0.23847656 1.31516602 0.47695313 1.99267578 0.72265625 C33.73808618 12.44585118 59.69654323 37.18202672 73.87548828 67.89648438 C77.30048976 75.70588255 80.12849346 83.67117618 82 92 C82.20496094 92.825 82.40992188 93.65 82.62109375 94.5 C89.36595374 126.50319774 78.79615487 157.28400588 66.1875 186.25 C65.35028157 188.19912244 64.51445803 190.14884453 63.67993164 192.09912109 C61.96591769 196.10336846 60.24717876 200.10553524 58.52539062 204.10644531 C54.97646319 212.36975628 51.50979636 220.66725043 48.04681396 228.96685791 C46.93242965 231.63714959 45.81635126 234.30672685 44.69970703 236.97607422 C42.46549733 242.31697585 40.232621 247.65843409 38 253 C35.02178788 260.12539941 32.04294506 267.25053426 29.0625 274.375 C28.69277069 275.25883362 28.32304138 276.14266724 27.94210815 277.05328369 C21.76064344 291.82645812 15.53848381 306.58221829 9.30252075 321.3324585 C3.50655051 335.04314925 -2.25948141 348.76600414 -8 362.5 C-14.13583851 377.17978535 -20.30443778 391.84532196 -26.5 406.5 C-32.71314519 421.1976572 -38.90442004 435.9041814 -45.0625 450.625 C-45.43230988 451.50899475 -45.80211975 452.3929895 -46.18313599 453.30377197 C-48.78977895 459.53542099 -51.3950534 465.76764172 -54 472 C-56.97821212 479.12539941 -59.95707457 486.25052605 -62.9375 493.375 C-63.30290894 494.24853119 -63.66831787 495.12206238 -64.0447998 496.02206421 C-70.90061733 512.40739247 -77.80261269 528.77309804 -84.72045898 545.13232422 C-88.50328293 554.07877972 -92.2810178 563.02676052 -96 572 C-96.66 571.67 -97.32 571.34 -98 571 C-98.45483398 569.29008484 -98.45483398 569.29008484 -98.74609375 567.0378418 C-98.91637085 565.77468391 -98.91637085 565.77468391 -99.09008789 564.48600769 C-99.20473389 563.56636734 -99.31937988 562.64672699 -99.4375 561.69921875 C-99.56310303 560.7524678 -99.68870605 559.80571686 -99.81811523 558.83027649 C-100.22067352 555.78374026 -100.61076779 552.73576487 -101 549.6875 C-101.51752735 545.71180381 -102.03975441 541.73673177 -102.5625 537.76171875 C-102.68788651 536.80225845 -102.81327301 535.84279816 -102.94245911 534.85426331 C-103.70147186 529.09297298 -104.5492926 523.35975157 -105.54833984 517.63452148 C-106.39993158 512.66720993 -107.08990128 507.67489973 -107.8125 502.6875 C-109.29353203 492.54452402 -110.89746034 482.42677028 -112.5625 472.3125 C-114.27120032 461.90119882 -115.7980868 451.4919706 -117.01196289 441.01098633 C-117.65890133 435.46066932 -118.47178819 429.96518464 -119.41333008 424.45727539 C-120.52429532 417.91030127 -121.56141155 411.35129122 -122.60449219 404.79321289 C-122.86677232 403.14813363 -123.13042954 401.50327329 -123.39550781 399.85864258 C-124.89350738 390.56119486 -126.25287281 381.27629937 -127.30047607 371.91685486 C-127.87585722 366.84470249 -128.64011538 361.83119691 -129.51757812 356.80371094 C-130.35699004 351.92526638 -131.03999657 347.023644 -131.75 342.125 C-132.95569075 333.87138094 -134.20738675 325.62727 -135.5234375 317.390625 C-135.72144958 316.14918228 -135.72144958 316.14918228 -135.92346191 314.88265991 C-136.57534869 310.80004816 -137.23146588 306.71817631 -137.89355469 302.63720703 C-139.21454461 294.42725682 -140.36810761 286.22672735 -141.29443359 277.96272278 C-141.87060001 272.89155623 -142.63154631 267.87866888 -143.50878906 262.85205078 C-144.59239708 256.56044599 -145.46925492 250.23446454 -146.38574219 243.91674805 C-147.25283352 237.96290787 -148.15187999 232.01959994 -149.1484375 226.0859375 C-152.86093707 203.57820175 -156.58845573 178.93173926 -143 159 C-134.70092574 148.23602975 -121.88736009 142.89729681 -110 137 C-110.25799535 135.0437021 -110.25799535 135.0437021 -111 133 C-117.97625047 129.30669093 -124.91192348 128.85037821 -132.6796875 128.68359375 C-133.49245148 128.66281265 -134.30521545 128.64203156 -135.14260864 128.62062073 C-137.71999257 128.55562421 -140.29747194 128.49647407 -142.875 128.4375 C-144.63021791 128.39426723 -146.38542643 128.35065148 -148.140625 128.30664062 C-152.42698738 128.19999451 -156.71344504 128.09858886 -161 128 C-161.67882137 89.55782387 -152.51368543 56.78327521 -125.75 28.4375 C-93.2196185 -2.75295732 -42.78659685 -15.54110215 0 0 Z " fill="#6460AA" transform="translate(774,28)"/>
<path d="M0 0 C0.77730469 0.67546875 1.55460938 1.3509375 2.35546875 2.046875 C3.16371094 2.72234375 3.97195313 3.3978125 4.8046875 4.09375 C19.52391015 16.75644076 29.84854818 32.27012685 38.0703125 49.71875 C38.50085938 50.6282843 38.93140625 51.5378186 39.375 52.47491455 C43.64265304 61.55292683 47.66229203 70.73359982 51.62838745 79.9465332 C53.78103647 84.94684204 55.94642212 89.9416419 58.109375 94.9375 C58.54766129 95.95086426 58.98594757 96.96422852 59.43751526 98.00830078 C63.84996497 108.2051739 68.3179473 118.37734631 72.79296875 128.546875 C78.386733 141.26608492 83.95006424 153.99750399 89.46582031 166.75073242 C93.8097547 176.7935465 98.17139501 186.82856069 102.54296875 196.859375 C102.89783356 197.67366974 103.25269836 198.48796448 103.61831665 199.32693481 C109.63962513 213.1403047 115.69506758 226.93855338 121.75888062 240.73330688 C127.00428999 252.66784576 132.21333301 264.61701801 137.38378906 276.58422852 C142.00025888 287.2563951 146.67535766 297.90248784 151.35546875 308.546875 C157.06934642 321.54244817 162.7524233 334.55005625 168.3828125 347.58203125 C173.38177031 359.13822549 178.44958466 370.66391692 183.51763916 382.18994141 C189.15003513 395.0010447 194.74825594 407.82621517 200.296875 420.67382812 C201.01810547 422.34348633 201.01810547 422.34348633 201.75390625 424.046875 C202.41664551 425.58988281 202.41664551 425.58988281 203.09277344 427.1640625 C203.91209469 429.03462423 204.75525195 430.8949931 205.62597656 432.7421875 C206.00334961 433.54398438 206.38072266 434.34578125 206.76953125 435.171875 C207.10162598 435.85507812 207.4337207 436.53828125 207.77587891 437.2421875 C208.35546875 439.046875 208.35546875 439.046875 207.35546875 442.046875 C206.88052979 441.71179932 206.40559082 441.37672363 205.91625977 441.03149414 C193.43158149 432.23368584 180.84713983 423.59225401 168.20703125 415.01953125 C162.82610833 411.36985429 157.46252728 407.69589889 152.10839844 404.00708008 C147.03144557 400.50955001 141.94475813 397.02642707 136.85546875 393.546875 C127.69823409 387.28493571 118.55571341 381.00180407 109.41699219 374.71289062 C100.76101705 368.756745 92.09597617 362.81409202 83.42260742 356.88330078 C77.74693344 353.00142716 72.07867862 349.10892284 66.4140625 345.2109375 C61.23378975 341.64756897 56.0456064 338.09585623 50.85546875 334.546875 C41.69827816 328.28487101 32.55571363 322.00180423 23.41699219 315.71289062 C14.76101705 309.756745 6.09597617 303.81409202 -2.57739258 297.88330078 C-8.25306656 294.00142716 -13.92132138 290.10892284 -19.5859375 286.2109375 C-24.76621025 282.64756897 -29.9543936 279.09585623 -35.14453125 275.546875 C-44.30172184 269.28487101 -53.44428637 263.00180423 -62.58300781 256.71289062 C-71.23898295 250.756745 -79.90402383 244.81409202 -88.57739258 238.88330078 C-94.25172598 235.00234404 -99.91939172 231.11184062 -105.58154297 227.21313477 C-109.17245476 224.74186873 -112.76861504 222.27859872 -116.37109375 219.82421875 C-121.13697514 216.57678928 -125.89477043 213.31783783 -130.64453125 210.046875 C-131.30259766 209.59425293 -131.96066406 209.14163086 -132.63867188 208.67529297 C-141.41394674 202.6130023 -149.67621781 196.13920166 -157.64453125 189.046875 C-158.42183594 188.36625 -159.19914062 187.685625 -160 186.984375 C-181.58650408 166.85269907 -195.45583581 135.9615814 -196.75439453 106.55932617 C-197.53202629 71.10519926 -186.64621881 38.6044827 -162.64453125 12.046875 C-146.73197005 -3.8656862 -125.29189237 -15.78690698 -103.64453125 -21.953125 C-102.99613281 -22.14519531 -102.34773438 -22.33726562 -101.6796875 -22.53515625 C-67.58284951 -31.92022651 -26.94030331 -22.67731894 0 0 Z " fill="#F37021" transform="translate(314.64453125,202.953125)"/>
<path d="M0 0 C19.87386124 17.55648003 34.35157841 38.69232974 41.5703125 64.38720703 C41.79074219 65.14001953 42.01117187 65.89283203 42.23828125 66.66845703 C42.75294753 68.5568566 43.16234938 70.47291855 43.5703125 72.38720703 C43.75464844 73.14646484 43.93898438 73.90572266 44.12890625 74.68798828 C50.41875587 104.6623751 42.47697132 136.69430002 26.5703125 162.38720703 C23.53073035 166.9638366 20.13634525 171.21322127 16.5703125 175.38720703 C16.13992676 175.89590332 15.70954102 176.40459961 15.26611328 176.92871094 C2.18059726 192.23638726 -13.89488414 203.12176744 -30.4296875 214.38720703 C-32.14496538 215.56235486 -33.85983233 216.7381028 -35.57421875 217.91455078 C-39.47226463 220.58764222 -43.37481815 223.25405789 -47.27880859 225.91845703 C-57.13532226 232.64907976 -66.94916025 239.43957285 -76.7421875 246.26220703 C-86.22027745 252.86486889 -95.73792673 259.40698684 -105.27880859 265.91845703 C-116.13763101 273.3335167 -126.94079124 280.82686026 -137.72949219 288.34350586 C-144.53759119 293.08242186 -151.37280189 297.7795128 -158.22583008 302.453125 C-164.48598037 306.72806147 -170.71097349 311.05226593 -176.9296875 315.38720703 C-186.34453419 321.94935439 -195.79991671 328.44929382 -205.27880859 334.91845703 C-215.13532226 341.64907976 -224.94916025 348.43957285 -234.7421875 355.26220703 C-244.22027745 361.86486889 -253.73792673 368.40698684 -263.27880859 374.91845703 C-274.13763101 382.3335167 -284.94079124 389.82686026 -295.72949219 397.34350586 C-302.53025037 402.07731214 -309.35766021 406.76998263 -316.20385742 411.43774414 C-323.64663994 416.51933554 -331.04078036 421.67018865 -338.42773438 426.83251953 C-344.04927331 430.75526361 -349.70779137 434.61223493 -355.4296875 438.38720703 C-356.4296875 436.38720703 -356.4296875 436.38720703 -355.7935791 434.37736511 C-355.43437378 433.54683121 -355.07516846 432.7162973 -354.70507812 431.8605957 C-354.29781998 430.90852737 -353.89056183 429.95645905 -353.47096252 428.97554016 C-353.01390427 427.92931992 -352.55684601 426.88309967 -352.0859375 425.80517578 C-351.61465927 424.70985031 -351.14338104 423.61452484 -350.65782166 422.48600769 C-349.36106022 419.47651217 -348.05731603 416.47015867 -346.75049973 413.46501923 C-345.37100145 410.28806556 -344.00063993 407.10717484 -342.62915039 403.92675781 C-339.51157614 396.7024113 -336.38067253 389.48388634 -333.24607086 382.26691437 C-331.96423072 379.31550155 -330.68311469 376.36377441 -329.40185547 373.41210938 C-326.08298276 365.76797115 -322.76389534 358.12392499 -319.44064331 350.48168945 C-311.24477428 331.63358178 -303.16239057 312.73885104 -295.12255859 293.82373047 C-294.16245677 291.56493211 -293.20233302 289.30614307 -292.2421875 287.04736328 C-291.7653653 285.92558685 -291.28854309 284.80381042 -290.79727173 283.64804077 C-282.89440484 265.06438299 -274.92158553 246.51058477 -266.95986938 227.9520874 C-263.43215814 219.72801118 -259.9101949 211.50148901 -256.390625 203.27392578 C-246.1417924 179.32112007 -235.85279479 155.38714999 -225.4468689 131.50210571 C-219.98441933 118.96307373 -214.57419668 106.4046604 -209.26171875 93.80126953 C-208.49467873 91.98518692 -208.49467873 91.98518692 -207.71214294 90.13241577 C-205.26512187 84.33823272 -202.82626491 78.54092617 -200.40405273 72.73632812 C-186.09808592 38.68103961 -168.42286863 6.24911757 -135.4296875 -12.61279297 C-134.49382812 -13.14864014 -134.49382812 -13.14864014 -133.5390625 -13.6953125 C-92.70090655 -36.59414639 -35.71892115 -30.35869535 0 0 Z " fill="#0089D0" transform="translate(1036.4296875,205.61279296875)"/>
<path d="M0 0 C4.24152156 3.03547537 8.52010678 6.01716358 12.79736328 9.00195312 C14.43290822 10.14760336 16.06832364 11.29343852 17.70361328 12.43945312 C23.22658502 16.30553335 28.76163181 20.15417507 34.29736328 24.00195312 C45.62861608 31.87872857 56.93489328 39.79077071 68.23583984 47.7109375 C77.91150318 54.49124653 87.59616342 61.258219 97.29736328 68.00195312 C108.62857836 75.8787831 119.93489304 83.79077053 131.23583984 91.7109375 C140.91150318 98.49124653 150.59616342 105.258219 160.29736328 112.00195312 C171.62857836 119.8787831 182.93489304 127.79077053 194.23583984 135.7109375 C203.91150318 142.49124653 213.59616342 149.258219 223.29736328 156.00195312 C234.62857836 163.8787831 245.93489304 171.79077053 257.23583984 179.7109375 C259.69362877 181.43325543 262.15165454 183.15523442 264.60986328 184.87695312 C265.41794434 185.44293213 266.22602539 186.00891113 267.05859375 186.59204102 C274.70054691 191.9408085 282.35865103 197.26629505 290.02124023 202.58544922 C292.61556182 204.38770424 295.20695987 206.19407287 297.79736328 208.00195312 C298.53003418 208.50968262 299.26270508 209.01741211 300.01757812 209.54052734 C301.62901359 210.66881495 303.21659118 211.83109158 304.79736328 213.00195312 C304.79736328 213.33195313 304.79736328 213.66195312 304.79736328 214.00195312 C253.96766463 214.04775494 203.13796807 214.08298472 152.30825284 214.10408378 C146.30405329 214.10658512 140.29985378 214.10917378 134.2956543 214.11181641 C132.5027015 214.11260334 132.5027015 214.11260334 130.67352743 214.11340617 C111.33257416 214.12210305 91.99163281 214.13786909 72.65068661 214.15625872 C52.79742706 214.17497769 32.94417374 214.18607408 13.09090573 214.19013011 C0.84553529 214.19287102 -11.39980144 214.20152054 -23.6451615 214.21778606 C-32.04817884 214.22837759 -40.45117882 214.23154884 -48.85420234 214.22895588 C-53.69849612 214.22767797 -58.54273112 214.22960369 -63.38701439 214.24036407 C-67.83069579 214.25016205 -72.27427939 214.25054595 -76.71796548 214.24375091 C-78.31714703 214.24291222 -79.91633492 214.24539351 -81.51550419 214.25171949 C-95.80467672 214.30491206 -109.39081526 212.95069496 -123.20263672 209.00195312 C-123.94513672 208.79771729 -124.68763672 208.59348145 -125.45263672 208.38305664 C-131.43322287 206.68102355 -136.97833577 204.50965857 -142.57763672 201.81445312 C-143.40126709 201.41935547 -144.22489746 201.02425781 -145.07348633 200.6171875 C-155.08431863 195.71424289 -163.702329 189.83643478 -171.85107422 182.17773438 C-173.55925929 180.59723756 -175.33875723 179.09275616 -177.15576172 177.63867188 C-180.42839795 174.93155466 -182.99402085 171.85877476 -185.57763672 168.50195312 C-186.05168945 167.88884277 -186.52574219 167.27573242 -187.01416016 166.64404297 C-204.93736511 143.09941417 -213.66554646 116.45334436 -213.57763672 86.93945312 C-213.57676056 86.21717529 -213.5758844 85.49489746 -213.57498169 84.75073242 C-213.44011276 50.92989952 -200.21136032 21.01067673 -176.20263672 -2.99804688 C-172.66559669 -6.17971711 -168.98794283 -9.11781396 -165.20263672 -11.99804688 C-163.754375 -13.11179687 -163.754375 -13.11179687 -162.27685547 -14.24804688 C-109.64521015 -52.76879364 -48.68419756 -34.92579855 0 0 Z " fill="#FCB711" transform="translate(236.20263671875,472.998046875)"/>
<path d="M0 0 C0.9266748 0.43868408 0.9266748 0.43868408 1.87207031 0.88623047 C31.22119531 15.00760008 54.50566728 41.13281467 65.60595703 71.73657227 C66.86988601 75.45653593 67.97614105 79.20745581 69 83 C69.17789063 83.65307129 69.35578125 84.30614258 69.5390625 84.97900391 C75.38664582 107.73700922 72.90539254 131.84772726 66 154 C65.75975098 154.78181641 65.51950195 155.56363281 65.27197266 156.36914062 C56.02922079 185.54300711 35.15749715 210.61642067 8.33666992 225.23266602 C1.74321501 228.65207194 -5.02973309 231.1970439 -12.125 233.375 C-13.28636475 233.73319824 -13.28636475 233.73319824 -14.47119141 234.09863281 C-27.22098404 237.76111741 -39.97494149 238.29167741 -53.13485718 238.24050903 C-54.82573436 238.24138302 -56.51661127 238.24313754 -58.20748675 238.24568737 C-62.81633174 238.25012699 -67.42508252 238.24220421 -72.03391552 238.23213124 C-77.01803758 238.22344984 -82.00215484 238.22642021 -86.98628235 238.22793579 C-95.60918804 238.22898169 -104.23206334 238.22273603 -112.8549614 238.21146011 C-125.32203871 238.19516794 -137.78910142 238.18999331 -150.25618823 238.18748413 C-170.48590464 238.18311285 -190.71560487 238.16981916 -210.9453125 238.15087891 C-230.59016845 238.13250541 -250.23502 238.1183561 -269.87988281 238.10986328 C-271.69792642 238.10907511 -271.69792642 238.10907511 -273.55269818 238.10827102 C-279.63342627 238.10566084 -285.71415439 238.10313345 -291.79488254 238.10064721 C-342.19659954 238.07993238 -392.59829898 238.04472232 -443 238 C-432.85207067 229.86490661 -422.22192327 222.40152781 -411.484375 215.0703125 C-406.21851902 211.47301197 -400.98406852 207.83083496 -395.75 204.1875 C-394.76926514 203.50486084 -393.78853027 202.82222168 -392.77807617 202.11889648 C-383.17342064 195.42967203 -373.58489836 188.71748984 -364 182 C-352.5368725 173.96617016 -341.06130673 165.95079591 -329.56713867 157.96142578 C-323.36992974 153.65253858 -317.1812148 149.33179533 -311 145 C-303.84377239 139.98491569 -296.67546271 134.98752299 -289.5 130 C-278.98375687 122.6897681 -268.48811959 115.35050432 -258 108 C-246.53903383 99.96768491 -235.06538576 91.95417939 -223.57373047 83.96582031 C-214.85313321 77.90199382 -206.15003556 71.81341689 -197.45166016 65.71777344 C-192.46665744 62.22499519 -187.47944619 58.7353709 -182.49267578 55.24511719 C-178.36290341 52.35451808 -174.2336153 49.46323311 -170.10546875 46.5703125 C-158.29872767 38.29784161 -146.47576442 30.04901459 -134.63134766 21.83056641 C-132.24267763 20.1688251 -129.86044098 18.4983803 -127.48046875 16.82421875 C-89.07855273 -10.09025495 -44.00404106 -20.91428019 0 0 Z " fill="#0DB14B" transform="translate(1105,449)"/>
<path d="M0 0 C0 26.73 0 53.46 0 81 C-7.425 77.04 -7.425 77.04 -15 73 C-46.09762406 57.60214731 -80.85267143 54.11691565 -114.10131836 64.89038086 C-133.68844967 71.58976867 -151.76559266 81.29585975 -166.23828125 96.32421875 C-168 98 -168 98 -170 98 C-170.37125 98.85851562 -170.37125 98.85851562 -170.75 99.734375 C-172.193294 102.35034537 -173.9099761 104.11518987 -176 106.25 C-200.68687729 133.23886907 -209.47863988 170.37573178 -208 206 C-205.5408028 241.55143784 -191.17521866 276.45991683 -164.23608398 300.43603516 C-137.17767998 323.55397451 -101.55151877 335.42275737 -65.99169922 332.85498047 C-43.68908546 331.02553026 -23.78869571 324.52551043 -4.25390625 313.7578125 C-1 312 -1 312 0 312 C0 339.39 0 366.78 0 395 C-38.75870987 407.91956996 -79.12639788 416.26384338 -120 409 C-120.85754883 408.84934082 -121.71509766 408.69868164 -122.59863281 408.54345703 C-142.68192422 404.87690032 -162.15362568 398.85246202 -180.10839844 389.03417969 C-182.06506803 387.9644259 -184.03563595 386.923657 -186.0078125 385.8828125 C-234.35183096 359.96199172 -269.30482935 312.77894298 -285.3203125 260.84375 C-301.57943482 205.50761843 -298.61386017 149.17226733 -271 98 C-264.5655334 86.70470183 -257.27782865 76.02085359 -249 66 C-248.525625 65.42411133 -248.05125 64.84822266 -247.5625 64.25488281 C-237.96338015 52.67469461 -227.80055399 42.37203418 -216 33 C-214.85144531 32.03320312 -214.85144531 32.03320312 -213.6796875 31.046875 C-187.11612955 8.89556905 -154.5885684 -4.89139979 -121 -12 C-120.17725586 -12.17934082 -119.35451172 -12.35868164 -118.50683594 -12.54345703 C-78.74328822 -20.83370394 -37.60282041 -13.42957872 0 0 Z " fill="#000000" transform="translate(1103,772)"/>
</svg>
