<?xml version="1.0" encoding="UTF-8"?>
<svg version="1.1" xmlns="http://www.w3.org/2000/svg" width="474" height="474">
<path d="M0 0 C156.42 0 312.84 0 474 0 C474 156.42 474 312.84 474 474 C317.58 474 161.16 474 0 474 C0 317.58 0 161.16 0 0 Z " fill="#010000" transform="translate(0,0)"/>
<path d="M0 0 C156.42 0 312.84 0 474 0 C474 156.42 474 312.84 474 474 C317.58 474 161.16 474 0 474 C0 317.58 0 161.16 0 0 Z M73.7109375 78.73046875 C68.17365994 86.07557893 67.42122835 93.20761595 67.49879456 102.18983459 C67.49326016 103.39244429 67.48772576 104.59505398 67.48202366 105.83410639 C67.47081217 109.15072188 67.47740532 112.46641322 67.49176037 115.7829572 C67.50290833 119.36787571 67.49091503 122.95272921 67.48191833 126.53764343 C67.4680102 133.55165303 67.47552383 140.56548216 67.49059392 147.5794831 C67.50748299 155.75217694 67.50424014 163.92482619 67.50049984 172.09753209 C67.4946258 186.68167563 67.5087754 201.26573274 67.53344727 215.84985352 C67.55737111 229.99344115 67.56444922 244.13691334 67.55395508 258.28051758 C67.54253997 273.69290846 67.54062279 289.105246 67.55505317 304.51763624 C67.55657897 306.1617304 67.55809933 307.80582457 67.55961418 309.44991875 C67.560372 310.25878658 67.56112981 311.06765441 67.56191059 311.90103339 C67.56664849 317.59457887 67.56480552 323.28810048 67.56054878 328.98164558 C67.55561685 335.92165051 67.56163008 342.86154639 67.58144308 349.80152638 C67.59129916 353.34077305 67.59643847 356.87985388 67.58855057 360.41910934 C67.58016881 364.25856092 67.59510386 368.09772241 67.61231995 371.93714905 C67.6063099 373.05164604 67.60029986 374.16614303 67.59410769 375.31441265 C67.67256307 384.93080856 69.84752872 392.64845596 76.71875 399.78515625 C85.0671492 407.58693407 92.82522514 409.59913728 104.10044861 409.50793457 C105.29348006 409.51417453 106.48651152 409.5204145 107.71569544 409.52684355 C111.00551864 409.5399821 114.2947454 409.53532959 117.58455312 409.52289867 C121.14088794 409.51381557 124.69714465 409.52783406 128.25346375 409.53881836 C135.21198876 409.55657411 142.17034087 409.55277664 149.12887257 409.5411678 C154.78648142 409.53212139 160.44404194 409.53091469 166.10165596 409.53526306 C167.31110423 409.53618246 167.31110423 409.53618246 168.54498579 409.53712043 C170.18315868 409.53839938 171.82133157 409.53969624 173.45950443 409.5410108 C188.80916255 409.55240816 204.158725 409.53931654 219.50836743 409.51780933 C232.66700315 409.49994251 245.82549769 409.50304064 258.98413086 409.52148438 C274.27861925 409.5429119 289.57302385 409.55130602 304.86752516 409.53903532 C306.49985952 409.53776118 308.13219389 409.53650369 309.76452827 409.53526306 C310.56758646 409.53464596 311.37064465 409.53402886 312.19803793 409.53339306 C317.84557159 409.52994554 323.49305192 409.53575564 329.14057732 409.54518127 C336.02784723 409.55642373 342.91493489 409.55331434 349.80218404 409.5320583 C353.3133744 409.52157738 356.8242614 409.51737494 360.33544922 409.53065491 C364.14812341 409.54160601 367.95994752 409.52784984 371.77256775 409.50793457 C372.87345716 409.51685746 373.97434657 409.52578034 375.10859627 409.53497362 C386.29262303 409.42187702 394.20616907 405.93849601 402 398 C409.13396364 390.67322653 409.44104666 381.54779722 409.39440918 371.82362366 C409.40354584 370.02182582 409.40354584 370.02182582 409.41286707 368.18362802 C409.4265783 364.87103624 409.42696593 361.55894315 409.4214921 358.2463609 C409.41881163 354.66548796 409.43337258 351.08467735 409.44558716 347.50382996 C409.46659941 340.49721507 409.47118447 333.49068301 409.46939927 326.48404033 C409.46808971 320.78734336 409.47190567 315.09067215 409.47932434 309.39398003 C409.48142361 307.75072605 409.48352121 306.10747206 409.48561716 304.46421808 C409.48666069 303.64623754 409.48770422 302.82825701 409.48877937 301.98548918 C409.50766422 286.52998435 409.50663671 271.07452703 409.49981004 255.61901545 C409.49423386 241.49044189 409.51506631 227.36204962 409.54817051 213.23351843 C409.58192928 198.71251026 409.59707325 184.19158889 409.59245348 169.67054075 C409.59021126 161.52356494 409.59541591 153.37675674 409.62034607 145.22981453 C409.64138731 138.29495221 409.64492316 131.36034946 409.62604648 124.42547638 C409.61690648 120.8899109 409.61569144 117.35482903 409.63640213 113.81930161 C409.65864051 109.98042248 409.64185147 106.14226148 409.62145996 102.30335999 C409.63397781 101.19468868 409.64649566 100.08601737 409.65939283 98.94374996 C409.56237885 90.40973544 407.18569739 84.20944446 402.04296875 77.4140625 C394.82738983 70.45672535 388.05184071 66.88310341 377.89648056 66.86857224 C376.37982115 66.86281052 376.37982115 66.86281052 374.83252215 66.8569324 C373.72874138 66.85779888 372.62496061 66.85866537 371.48773193 66.85955811 C369.72062894 66.85510142 369.72062894 66.85510142 367.91782689 66.8505547 C364.65143589 66.84338292 361.38507696 66.84069605 358.11867929 66.83995724 C354.59435708 66.83810384 351.07004622 66.83055509 347.54573059 66.82382202 C339.84112421 66.81025007 332.13652304 66.80421583 324.4319067 66.79981136 C319.61975685 66.79704716 314.807609 66.79280949 309.99546051 66.78830719 C296.66793824 66.77611628 283.34041758 66.76581644 270.01288986 66.7624321 C269.16018987 66.76221253 268.30748989 66.76199297 267.4289505 66.76176675 C266.57423017 66.76154847 265.71950983 66.76133019 264.83888888 66.7611053 C263.10694806 66.76066184 261.37500723 66.76021527 259.64306641 66.75976562 C258.35441735 66.75943348 258.35441735 66.75943348 257.03973499 66.75909463 C243.12044403 66.75514692 229.20120544 66.73769294 215.28193471 66.7144061 C200.98594399 66.69068235 186.68997954 66.67822979 172.39396882 66.67706418 C164.3694055 66.67614803 156.34491041 66.67041065 148.32036591 66.65224457 C141.48717777 66.6368298 134.65407897 66.63173124 127.82087675 66.63998267 C124.33620117 66.64388425 120.85170542 66.64298384 117.36705208 66.62892532 C113.58461422 66.6162352 109.80263726 66.62206733 106.02020264 66.63250732 C104.92534475 66.62445092 103.83048687 66.61639452 102.70245147 66.60809398 C90.53591989 66.68657917 82.58433233 70.50279045 73.7109375 78.73046875 Z " fill="#FEFEFE" transform="translate(0,0)"/>
<path d="M0 0 C14.85 0 29.7 0 45 0 C47.58701081 5.17402162 49.63539948 9.42379741 51.3671875 14.78125 C51.77493408 16.02777344 52.18268066 17.27429688 52.6027832 18.55859375 C52.81069489 19.20296387 53.01860657 19.84733398 53.2328186 20.51123047 C54.31953885 23.87669096 55.42720582 27.23522969 56.53515625 30.59375 C56.75034409 31.24698242 56.96553192 31.90021484 57.1872406 32.57324219 C59.1964886 38.64652223 61.39858285 44.62484808 63.6953125 50.59375 C65.51756326 55.351243 67.20975562 60.15071555 68.91015625 64.953125 C69.78508137 67.39915222 70.68964137 69.82679111 71.625 72.25 C72.70032916 75.18271589 73.62908007 78.06815159 74.5 81.0625 C75.71597295 85.21972689 77.24932324 89.0419482 79 93 C79.66 94.98 80.32 96.96 81 99 C81.33 66.66 81.66 34.32 82 1 C96.85 1 111.7 1 127 1 C127 77.23 127 153.46 127 232 C111.25 230.875 111.25 230.875 104.4140625 230.24609375 C103.70140228 230.18092056 102.98874207 230.11574738 102.25448608 230.04859924 C100.0445352 229.84620433 97.83476615 229.64190094 95.625 229.4375 C94.09897013 229.29739747 92.57292851 229.15742285 91.046875 229.01757812 C87.36444731 228.67985336 83.68217956 228.34042067 80 228 C78.51842692 223.87586051 77.03980173 219.75067144 75.5625 215.625 C75.33791107 214.9979718 75.11332214 214.3709436 74.88192749 213.72491455 C71.62662118 204.63016154 68.44370519 195.51336911 65.3125 186.375 C62.78981265 179.02137737 60.18167981 171.72572708 57.3125 164.5 C54.90133419 158.42609213 52.65482749 152.31654317 50.5625 146.125 C50.17348511 144.99094727 50.17348511 144.99094727 49.77661133 143.83398438 C48.61898593 140.34797596 48 137.71227553 48 134 C47.34 134 46.68 134 46 134 C45.67 165.02 45.34 196.04 45 228 C9 231 9 231 0 231 C0 154.77 0 78.54 0 0 Z " fill="#E30913" transform="translate(175,122)"/>
<path d="M0 0 C14.85 0 29.7 0 45 0 C45 76.23 45 152.46 45 231 C29.25 229.875 29.25 229.875 22.4140625 229.24609375 C21.70140228 229.18092056 20.98874207 229.11574738 20.25448608 229.04859924 C18.0445352 228.84620433 15.83476615 228.64190094 13.625 228.4375 C12.09897013 228.29739747 10.57292851 228.15742285 9.046875 228.01757812 C5.36444731 227.67985336 1.68217956 227.34042067 -2 227 C-3.03205859 224.2328864 -4.05090829 221.46208746 -5.0625 218.6875 C-5.35705078 217.90181641 -5.65160156 217.11613281 -5.95507812 216.30664062 C-6.22900391 215.54931641 -6.50292969 214.79199219 -6.78515625 214.01171875 C-7.04176025 213.31522217 -7.29836426 212.61872559 -7.56274414 211.90112305 C-8 210 -8 210 -7 207 C-7 207.66 -7 208.32 -7 209 C-6.01 209.33 -5.02 209.66 -4 210 C-3.68623479 211.54140966 -3.37405535 213.08314215 -3.0625 214.625 C-2.88847656 215.48351562 -2.71445313 216.34203125 -2.53515625 217.2265625 C-1.97265778 220.14170057 -1.48808602 223.07148391 -1 226 C11.375 225.505 11.375 225.505 24 225 C24.33 225.66 24.66 226.32 25 227 C33.415 227.495 33.415 227.495 42 228 C41.0080432 220.75871539 39.14347968 214.47202186 36.31616211 207.77026367 C34.53255903 203.49015759 33.1419015 199.23823905 31.9375 194.75 C30.49857629 189.41574726 28.63663145 184.62415528 26.1484375 179.6953125 C24.99533289 176.98904657 24.34326479 174.32735112 23.66992188 171.47167969 C22.15776383 165.89256597 20.03722682 160.49086161 18.0625 155.0625 C12.84325262 140.63549742 12.84325262 140.63549742 10.64624023 133.94702148 C9.65006852 130.9457108 8.57401109 127.97418457 7.5 125 C5.83669686 120.37860684 4.22983775 115.75324367 2.7734375 111.0625 C2.02077088 108.85580859 2.02077088 108.85580859 0.46720886 106.50460815 C-1.49086567 101.82750719 -1.35601642 97.87800986 -1.2487793 92.86376953 C-1.23946381 91.8582756 -1.23014832 90.85278168 -1.22055054 89.81681824 C-1.18627372 86.50513443 -1.13036239 83.19419171 -1.07421875 79.8828125 C-1.04617593 77.58211834 -1.01948656 75.28140732 -0.99409485 72.98068237 C-0.9237282 66.93392725 -0.83499513 60.88757612 -0.74243164 54.84112549 C-0.63512284 47.58168503 -0.55063356 40.32194745 -0.46231842 33.06225586 C-0.32569072 22.0411774 -0.16008622 11.02087515 0 0 Z " fill="#AF060F" transform="translate(257,123)"/>
<path d="M0 0 C14.85 0 29.7 0 45 0 C49.60162602 9.20325203 49.60162602 9.20325203 51.3125 14.25 C51.65925781 15.24515625 52.00601563 16.2403125 52.36328125 17.265625 C53.00499718 20.02146029 52.96563544 21.38343945 52 24 C49.89711911 20.84567867 49.06147554 18.24894384 48 14.625 C46.82270625 10.62404078 45.554289 6.88572251 44 3 C30.14 3 16.28 3 2 3 C5.30662388 13.78476074 5.30662388 13.78476074 9.25 24.25 C12.68416714 32.8051275 15.50269056 41.52368385 18.24707031 50.32128906 C20.00596752 55.95371269 21.86453968 61.49996488 24 67 C24.50161645 68.33272605 25.00159432 69.66606988 25.5 71 C25.87125 71.99 25.87125 71.99 26.25 73 C27 75 27.75 77 28.5 79 C28.7460498 79.65605225 28.99209961 80.31210449 29.24560547 80.98803711 C29.76046669 82.36116698 30.2751055 83.73438026 30.78955078 85.10766602 C31.04720215 85.79530029 31.30485352 86.48293457 31.5703125 87.19140625 C31.81813477 87.85285645 32.06595703 88.51430664 32.32128906 89.19580078 C32.8730231 90.66246068 33.43158898 92.12654918 33.9921875 93.58984375 C36.44472425 100.11185519 38.44422559 106.72403277 40.33740234 113.42553711 C41.1193174 117.00016554 41.1193174 117.00016554 43 120 C43.04080783 121.99958364 43.04254356 124.00045254 43 126 C43.66 126 44.32 126 45 126 C45.66 128.64 46.32 131.28 47 134 C46.67 134 46.34 134 46 134 C45.67 165.02 45.34 196.04 45 228 C9 231 9 231 0 231 C0 154.77 0 78.54 0 0 Z " fill="#AF050F" transform="translate(175,122)"/>
<path d="M0 0 C14.85 0 29.7 0 45 0 C49.60162602 9.20325203 49.60162602 9.20325203 51.3125 14.25 C51.65925781 15.24515625 52.00601563 16.2403125 52.36328125 17.265625 C53.00499718 20.02146029 52.96563544 21.38343945 52 24 C49.89711911 20.84567867 49.06147554 18.24894384 48 14.625 C46.82270625 10.62404078 45.554289 6.88572251 44 3 C30.14 3 16.28 3 2 3 C4.75554067 12.08633751 4.75554067 12.08633751 8 21 C7.81667819 24.48311437 6.88653824 26.17653366 4.97774887 29.14639378 C2.69345497 33.10624318 2.43393884 36.77986273 2.48101807 41.28269958 C2.47351681 42.08905682 2.46601556 42.89541406 2.458287 43.72620636 C2.43807579 46.41335811 2.44609941 49.09966077 2.45410156 51.78686523 C2.44536297 53.71891613 2.43487619 55.65095979 2.42277527 57.58299255 C2.39492981 62.81800594 2.39151027 68.05278299 2.39249516 73.28785968 C2.38936483 78.76252194 2.36374408 84.23707795 2.34051514 89.71168518 C2.2999609 100.07416269 2.27961574 110.43657728 2.26654124 120.79912192 C2.25066929 132.59839069 2.21225278 144.39755243 2.17194796 156.1967591 C2.08955685 180.46447014 2.03545977 204.73217822 2 229 C9.3165297 228.6143854 15.94890424 228.03380831 23 226 C26.483873 225.76589735 29.94791108 225.80968012 33.4375 225.875 C34.35982422 225.88402344 35.28214844 225.89304687 36.23242188 225.90234375 C38.48855809 225.9257234 40.74413684 225.95849084 43 226 C42.91548831 214.66427792 42.8205629 203.3286949 42.71247292 191.99317169 C42.6626027 186.72919838 42.61627193 181.46524423 42.578125 176.20117188 C42.54115494 171.1176911 42.49476341 166.03437439 42.44193649 160.95103455 C42.42345472 159.01507963 42.408324 157.07908963 42.39665604 155.14308167 C42.37968685 152.42399421 42.35062671 149.70527743 42.31884766 146.98632812 C42.31668747 146.19222534 42.31452728 145.39812256 42.31230164 144.57995605 C42.23556666 139.41472632 41.38722446 134.97797367 40 130 C39.6435691 128.00398694 39.30077325 126.005155 39 124 C40.98 123.01 40.98 123.01 43 122 C43 123.32 43 124.64 43 126 C43.66 126 44.32 126 45 126 C45.66 128.64 46.32 131.28 47 134 C46.67 134 46.34 134 46 134 C45.67 165.02 45.34 196.04 45 228 C9 231 9 231 0 231 C0 154.77 0 78.54 0 0 Z " fill="#A10B16" transform="translate(175,122)"/>
<path d="M0 0 C14.85 0 29.7 0 45 0 C49.60162602 9.20325203 49.60162602 9.20325203 51.3125 14.25 C51.65925781 15.24515625 52.00601563 16.2403125 52.36328125 17.265625 C53.00499718 20.02146029 52.96563544 21.38343945 52 24 C49.89711911 20.84567867 49.06147554 18.24894384 48 14.625 C46.82270625 10.62404078 45.554289 6.88572251 44 3 C30.14 3 16.28 3 2 3 C1.67 77.91 1.34 152.82 1 230 C3.64 230 6.28 230 9 230 C9 230.33 9 230.66 9 231 C6.03 231 3.06 231 0 231 C0 154.77 0 78.54 0 0 Z " fill="#8B1621" transform="translate(175,122)"/>
<path d="M0 0 C0.99 0.33 1.98 0.66 3 1 C4.203125 3.58203125 4.203125 3.58203125 5.25 6.8125 C5.78367188 8.39998047 5.78367188 8.39998047 6.328125 10.01953125 C6.9784667 12.90447728 7.02681757 14.28156631 6 17 C6 16.34 6 15.68 6 15 C5.34 15 4.68 15 4 15 C3.19871955 18.50441896 2.89165273 21.69410483 2.9375 25.28515625 C2.94587891 26.35290283 2.95425781 27.42064941 2.96289062 28.52075195 C2.97513672 29.68952881 2.98738281 30.85830566 3 32.0625 C3.07858065 45.6524876 2.82726115 59.22663218 2.5 72.8125 C2.46398682 74.31467575 2.46398682 74.31467575 2.42724609 75.84719849 C2.28931007 81.56491647 2.14665259 87.28249923 2 93 C2.66 93 3.32 93 4 93 C4 93.66 4 94.32 4 95 C0.74610012 97.16926659 -0.13395957 97.24080049 -3.88671875 97.1953125 C-4.82451172 97.18886719 -5.76230469 97.18242187 -6.72851562 97.17578125 C-8.19321289 97.15064453 -8.19321289 97.15064453 -9.6875 97.125 C-11.16959961 97.11146484 -11.16959961 97.11146484 -12.68164062 97.09765625 C-15.12133765 97.0740843 -17.56054697 97.04118022 -20 97 C-20 96.67 -20 96.34 -20 96 C-10.1 95.505 -10.1 95.505 0 95 C0 63.65 0 32.3 0 0 Z " fill="#1E0001" transform="translate(220,255)"/>
<path d="M0 0 C13.53 0 27.06 0 41 0 C41 0.66 41 1.32 41 2 C28.46 1.67 15.92 1.34 3 1 C2.67 34 2.34 67 2 101 C1.34 101 0.68 101 0 101 C0 67.67 0 34.34 0 0 Z " fill="#93101D" transform="translate(257,123)"/>
<path d="M0 0 C0.33 0 0.66 0 1 0 C1 33.33 1 66.66 1 101 C-0.98209951 98.02685074 -1.86788896 95.63495383 -2.9375 92.25 C-4.03946086 88.84170469 -5.13848146 85.5097767 -6.625 82.25 C-8.20094802 78.52503195 -9.10159618 74.9391552 -10 71 C-7 73 -7 73 -6.48828125 74.9453125 C-6.32552083 76.96354167 -6.16276042 78.98177083 -6 81 C-5.34 81 -4.68 81 -4 81 C-4 81.99 -4 82.98 -4 84 C-3.34 84 -2.68 84 -2 84 C-1.21001578 64.93957616 -0.7379251 45.88642833 -0.4375 26.8125 C-0.3941317 24.18944895 -0.35051294 21.56640204 -0.30664062 18.94335938 C-0.20155707 12.62895063 -0.09949872 6.31449909 0 0 Z " fill="#440000" transform="translate(256,123)"/>
<path d="M0 0 C0.33 1.32 0.66 2.64 1 4 C1.66 4 2.32 4 3 4 C3.66 6.64 4.32 9.28 5 12 C4.67 12 4.34 12 4 12 C3.67 43.02 3.34 74.04 3 106 C-2.10086797 106.6376085 -6.46665034 107.11969716 -11.5 107.0625 C-13.06234375 107.04896484 -13.06234375 107.04896484 -14.65625 107.03515625 C-15.4296875 107.02355469 -16.203125 107.01195312 -17 107 C-16.505 106.01 -16.505 106.01 -16 105 C-10.06 105 -4.12 105 2 105 C2 75.63 2 46.26 2 16 C1.34 16 0.68 16 0 16 C-1.20465156 11.34201396 -2.28547412 6.76350585 -3 2 C-2.01 1.34 -1.02 0.68 0 0 Z " fill="#8D151F" transform="translate(217,244)"/>
<path d="M0 0 C14.85 0 29.7 0 45 0 C49.60162602 9.20325203 49.60162602 9.20325203 51.3125 14.25 C51.65925781 15.24515625 52.00601563 16.2403125 52.36328125 17.265625 C53.00499718 20.02146029 52.96563544 21.38343945 52 24 C49.89711911 20.84567867 49.06147554 18.24894384 48 14.625 C46.82270625 10.62404078 45.554289 6.88572251 44 3 C30.14 3 16.28 3 2 3 C1.67 16.86 1.34 30.72 1 45 C0.67 45 0.34 45 0 45 C0 30.15 0 15.3 0 0 Z " fill="#921823" transform="translate(175,122)"/>
<path d="M0 0 C0.33 0.66 0.66 1.32 1 2 C1.99 2.33 2.98 2.66 4 3 C4.31376521 4.54140966 4.62594465 6.08314215 4.9375 7.625 C5.19853516 8.91277344 5.19853516 8.91277344 5.46484375 10.2265625 C6.02734222 13.14170057 6.51191398 16.07148391 7 19 C19.375 18.505 19.375 18.505 32 18 C32.495 18.99 32.495 18.99 33 20 C35.79117245 20.24803781 38.58115074 20.47414334 41.375 20.6875 C42.1690625 20.76033203 42.963125 20.83316406 43.78125 20.90820312 C46.35167167 21.12839777 46.35167167 21.12839777 50 21 C50.66 20.01 51.32 19.02 52 18 C52 19.65 52 21.3 52 23 C41.79489018 23.24077594 31.8266127 22.49118281 21.6875 21.5 C20.15695355 21.35491374 18.6263547 21.21037924 17.09570312 21.06640625 C13.3965115 20.71727492 9.69807817 20.36075691 6 20 C4.99422987 17.23113877 3.99519853 14.46015896 3 11.6875 C2.71382812 10.90181641 2.42765625 10.11613281 2.1328125 9.30664062 C1.86210937 8.54931641 1.59140625 7.79199219 1.3125 7.01171875 C1.06113281 6.31522217 0.80976563 5.61872559 0.55078125 4.90112305 C0 3 0 3 0 0 Z " fill="#BB1823" transform="translate(249,330)"/>
<path d="M0 0 C0.99 0.33 1.98 0.66 3 1 C4.33599181 4.00598158 5.14345053 6.09147996 4.625 9.375 C4.41875 9.91125 4.2125 10.4475 4 11 C3.67 9.35 3.34 7.7 3 6 C2.34 6 1.68 6 1 6 C1 35.37 1 64.74 1 95 C0.67 95 0.34 95 0 95 C0 63.65 0 32.3 0 0 Z " fill="#400003" transform="translate(220,255)"/>
<path d="M0 0 C3.00617269 3.00617269 2.59585316 5.82381598 3 10 C3.66 10 4.32 10 5 10 C6.539221 13.88151384 7.88754458 17.31277244 8.5625 21.4375 C8.706875 22.283125 8.85125 23.12875 9 24 C9.66 24.33 10.32 24.66 11 25 C11.74609375 27.37109375 11.74609375 27.37109375 12.4375 30.4375 C13.58441338 35.36628674 14.93993205 40.14420892 16.546875 44.94140625 C17 47 17 47 16 50 C14.23537317 46.91190305 14 45.76687864 14 42 C13.34 42 12.68 42 12 42 C11.61134766 40.6078125 11.61134766 40.6078125 11.21484375 39.1875 C9.75868918 34.09544144 8.16065108 29.04893588 6.5625 24 C6.26279297 23.0409375 5.96308594 22.081875 5.65429688 21.09375 C4.35454249 16.9886689 3.04858111 12.96066054 1.2890625 9.02734375 C-0.09734382 5.77138951 -0.25615345 3.50076386 0 0 Z " fill="#D0101A" transform="translate(206,206)"/>
<path d="M0 0 C0.99 0.33 1.98 0.66 3 1 C3.75407101 3.30657014 4.411438 5.645752 5 8 C5.391875 8.886875 5.78375 9.77375 6.1875 10.6875 C7.12573335 13.35785645 7.11689594 14.42254783 6 17 C4.4375 18.75 4.4375 18.75 3 20 C0 18 0 18 -0.73046875 15.79296875 C-0.88128906 14.93316406 -1.03210938 14.07335937 -1.1875 13.1875 C-1.34605469 12.33542969 -1.50460938 11.48335937 -1.66796875 10.60546875 C-1.99513977 8.03813852 -2.06032912 5.58487096 -2 3 C-1.34 3 -0.68 3 0 3 C0 2.01 0 1.02 0 0 Z " fill="#960509" transform="translate(194,181)"/>
<path d="M0 0 C0.33 0 0.66 0 1 0 C1 12.54 1 25.08 1 38 C-5.07783851 31.92216149 -7.21432895 22.27902034 -9 14 C-6 16 -6 16 -5.48828125 17.9453125 C-5.32552083 19.96354167 -5.16276042 21.98177083 -5 24 C-4.34 24 -3.68 24 -3 24 C-3 24.99 -3 25.98 -3 27 C-2.34 27 -1.68 27 -1 27 C-0.67 18.09 -0.34 9.18 0 0 Z " fill="#270000" transform="translate(255,180)"/>
<path d="M0 0 C1.66964386 3.33928773 2.99830584 6.55528139 4.265625 10.046875 C4.85772287 11.62160339 5.54049527 13.16206484 6.25 14.6875 C7.19960644 17.61545318 7.03778501 19.10902747 6 22 C3.9375 24.3125 3.9375 24.3125 2 26 C1.67 22.37 1.34 18.74 1 15 C0.67 15 0.34 15 0 15 C0 10.05 0 5.1 0 0 Z " fill="#9E040D" transform="translate(176,126)"/>
<path d="M0 0 C14.85 0 29.7 0 45 0 C46.65 4.62 48.3 9.24 50 14 C50.66 15.65 51.32 17.3 52 19 C51.625 21.3125 51.625 21.3125 51 23 C48.89711911 19.84567867 48.06147554 17.24894384 47 13.625 C45.82270625 9.62404078 44.554289 5.88572251 43 2 C28.81 2 14.62 2 0 2 C0 1.34 0 0.68 0 0 Z " fill="#CC1724" transform="translate(176,123)"/>
<path d="M0 0 C2.24269478 3.36404218 3.38655744 6.75716923 4.625 10.5625 C4.85445312 11.24763672 5.08390625 11.93277344 5.3203125 12.63867188 C7 17.73272414 7 17.73272414 7 20 C15.25 20.33 23.5 20.66 32 21 C32 21.33 32 21.66 32 22 C23.42 22 14.84 22 6 22 C5.67 20.35 5.34 18.7 5 17 C4.34 17 3.68 17 3 17 C2.87625 15.865625 2.7525 14.73125 2.625 13.5625 C2.41875 12.386875 2.2125 11.21125 2 10 C1.34 9.67 0.68 9.34 0 9 C0 6.03 0 3.06 0 0 Z " fill="#430304" transform="translate(248,330)"/>
<path d="M0 0 C0.66 0 1.32 0 2 0 C2.66 2.64 3.32 5.28 4 8 C4.66 8 5.32 8 6 8 C6.33 10.64 6.66 13.28 7 16 C7.66 16 8.32 16 9 16 C9.50806447 17.72681437 10.00610467 19.45657979 10.5 21.1875 C10.7784375 22.15042969 11.056875 23.11335938 11.34375 24.10546875 C11.96677608 26.85345876 12.12302812 29.19598416 12 32 C9.60616598 27.3798209 7.8457635 22.54600429 6 17.6875 C5.64421875 16.76259766 5.2884375 15.83769531 4.921875 14.88476562 C3.04822817 9.96644269 1.34754363 5.08838091 0 0 Z " fill="#D2101B" transform="translate(177,128)"/>
<path d="M0 0 C0.33 1.32 0.66 2.64 1 4 C1.66 4 2.32 4 3 4 C3.66 6.64 4.32 9.28 5 12 C4.01 11.67 3.02 11.34 2 11 C2 12.65 2 14.3 2 16 C1.34 16 0.68 16 0 16 C-1.20465156 11.34201396 -2.28547412 6.76350585 -3 2 C-2.01 1.34 -1.02 0.68 0 0 Z " fill="#8E0506" transform="translate(217,244)"/>
<path d="M0 0 C0.99 0.495 0.99 0.495 2 1 C2.89477211 3.72565893 3.69456108 6.42045504 4.4375 9.1875 C5.5987072 13.48433293 6.71523145 17.43369157 8.72265625 21.42578125 C9.14417969 22.27527344 9.56570313 23.12476563 10 24 C9.67 24.66 9.34 25.32 9 26 C5.37255052 23.58170035 5.20828506 22.05638557 4 18 C3.67 17.67 3.34 17.34 3 17 C2.66666667 14.66666667 2.33333333 12.33333333 2 10 C1.67 9.67 1.34 9.34 1 9 C0.76807135 7.48530552 0.58784762 5.96245438 0.4375 4.4375 C0.35371094 3.61121094 0.26992188 2.78492188 0.18359375 1.93359375 C0.12300781 1.29550781 0.06242187 0.65742188 0 0 Z " fill="#D21017" transform="translate(286,310)"/>
<path d="M0 0 C3.18090933 3.18090933 4.16244483 7.32519968 5.6875 11.5 C6.02072266 12.38042969 6.35394531 13.26085937 6.69726562 14.16796875 C7.00728516 15.00972656 7.31730469 15.85148437 7.63671875 16.71875 C8.06537231 17.87793945 8.06537231 17.87793945 8.50268555 19.06054688 C9 21 9 21 8 23 C5.29373109 21.64686554 4.7774755 19.76511712 3.6640625 17.0546875 C2.58981309 13.73083344 2.30473772 10.47401 2 7 C1.34 7 0.68 7 0 7 C0 4.69 0 2.38 0 0 Z " fill="#360104" transform="translate(229,278)"/>
<path d="M0 0 C0.66 0 1.32 0 2 0 C4.82667292 5.06171663 6.30120459 9.17670494 7 15 C7.66 15.66 8.32 16.32 9 17 C9.125 20.625 9.125 20.625 9 24 C7.17130348 21.25695523 6.28510799 19.20449662 5.2734375 16.11328125 C4.9640625 15.17548828 4.6546875 14.23769531 4.3359375 13.27148438 C4.01882812 12.29501953 3.70171875 11.31855469 3.375 10.3125 C3.05015625 9.32443359 2.7253125 8.33636719 2.390625 7.31835938 C1.58968568 4.88020584 0.79298249 2.44075067 0 0 Z " fill="#3D0104" transform="translate(224,133)"/>
<path d="M0 0 C5.82051942 6.92918979 7.17100394 15.37388383 9 24 C8.34 24 7.68 24 7 24 C6.2054739 21.81353696 5.4145142 19.62577779 4.625 17.4375 C4.18414062 16.21933594 3.74328125 15.00117188 3.2890625 13.74609375 C0 4.18787879 0 4.18787879 0 0 Z " fill="#B3141F" transform="translate(240,180)"/>
<path d="M0 0 C0.99 0.33 1.98 0.66 3 1 C3 3.64 3 6.28 3 9 C3.66 9 4.32 9 5 9 C5.99 12.3 6.98 15.6 8 19 C7.34 19.33 6.68 19.66 6 20 C0 5.26213592 0 5.26213592 0 0 Z " fill="#C31727" transform="translate(240,304)"/>
<path d="M0 0 C2.36775721 2.36775721 2.99896496 4.29711338 4.125 7.4375 C4.47820312 8.40558594 4.83140625 9.37367188 5.1953125 10.37109375 C6 13 6 13 6 16 C5.34 16 4.68 16 4 16 C2.74335022 13.09399739 2 11.20395416 2 8 C1.34 8 0.68 8 0 8 C0 5.36 0 2.72 0 0 Z " fill="#B61724" transform="translate(233,160)"/>
<path d="M0 0 C2.38125464 2.38125464 3.00186241 4.33857567 4.125 7.5 C4.47820312 8.4796875 4.83140625 9.459375 5.1953125 10.46875 C6 13 6 13 6 15 C5.34 15 4.68 15 4 15 C0.40621058 9.60931587 -0.45356243 6.46326465 0 0 Z " fill="#CF0A14" transform="translate(276,281)"/>
<path d="M0 0 C2.46968633 2.46968633 3.06997969 4.57488587 4.1875 7.875 C4.55230469 8.92429688 4.91710937 9.97359375 5.29296875 11.0546875 C5.98462433 13.93594885 6.03230681 15.27786612 5 18 C3.03723564 15.05585347 2.28266038 12.94101364 1.375 9.5625 C0.98441406 8.14130859 0.98441406 8.14130859 0.5859375 6.69140625 C0 4 0 4 0 0 Z " fill="#B21721" transform="translate(222,128)"/>
<path d="M0 0 C0.66 0 1.32 0 2 0 C2.75 2.6875 2.75 2.6875 3 6 C1.0625 8.875 1.0625 8.875 -1 11 C-1.0270043 9.54176788 -1.04639787 8.08339325 -1.0625 6.625 C-1.07410156 5.81289062 -1.08570313 5.00078125 -1.09765625 4.1640625 C-1 2 -1 2 0 0 Z " fill="#960607" transform="translate(201,200)"/>
<path d="M0 0 C0.99 0.33 1.98 0.66 3 1 C4.33599181 4.00598158 5.14345053 6.09147996 4.625 9.375 C4.41875 9.91125 4.2125 10.4475 4 11 C3.67 9.35 3.34 7.7 3 6 C2.34 6 1.68 6 1 6 C0.67 6.66 0.34 7.32 0 8 C0 5.36 0 2.72 0 0 Z " fill="#540103" transform="translate(220,255)"/>
<path d="M0 0 C0.66 0.33 1.32 0.66 2 1 C2.4140625 3.72265625 2.4140625 3.72265625 2.625 7.0625 C2.69976562 8.16722656 2.77453125 9.27195313 2.8515625 10.41015625 C2.90054688 11.26480469 2.94953125 12.11945313 3 13 C0.0306795 10.0306795 -0.9383686 8.04773382 -1.1875 3.8125 C-1 1 -1 1 0 0 Z " fill="#D11117" transform="translate(198,181)"/>
<path d="M0 0 C0.33 0.66 0.66 1.32 1 2 C1.99 2.33 2.98 2.66 4 3 C4.625 5.875 4.625 5.875 5 9 C4.34 9.66 3.68 10.32 3 11 C2.49384702 9.73160474 1.99530901 8.46016898 1.5 7.1875 C1.2215625 6.47980469 0.943125 5.77210938 0.65625 5.04296875 C0 3 0 3 0 0 Z " fill="#CE1429" transform="translate(249,330)"/>
<path d="M0 0 C2.02196167 2.02196167 2.67551358 3.25864486 3.6875 5.875 C3.95949219 6.55304688 4.23148438 7.23109375 4.51171875 7.9296875 C5.07336741 10.31107782 4.76694846 11.70430191 4 14 C1.3184721 10.92307254 0.57912193 8.80265337 0.3125 4.75 C0.24675781 3.85796875 0.18101562 2.9659375 0.11328125 2.046875 C0.07589844 1.37140625 0.03851563 0.6959375 0 0 Z " fill="#440103" transform="translate(242,314)"/>
<path d="M0 0 C0.99 0.495 0.99 0.495 2 1 C2 2.32 2 3.64 2 5 C2.99 5 3.98 5 5 5 C5.33 7.64 5.66 10.28 6 13 C5.34 13 4.68 13 4 13 C3.566875 11.63875 3.566875 11.63875 3.125 10.25 C2.12804594 7.1223223 2.12804594 7.1223223 0.875 4.8125 C0 3 0 3 0 0 Z " fill="#D10E1C" transform="translate(235,171)"/>
<path d="M0 0 C0.33 0.66 0.66 1.32 1 2 C1.99 2.33 2.98 2.66 4 3 C3.34 4.32 2.68 5.64 2 7 C1.34 7 0.68 7 0 7 C0 4.69 0 2.38 0 0 Z " fill="#8E0912" transform="translate(176,134)"/>
</svg>
