<?xml version="1.0" encoding="UTF-8"?>
<svg version="1.1" xmlns="http://www.w3.org/2000/svg" width="356" height="203">
<path d="M0 0 C117.48 0 234.96 0 356 0 C356 66.99 356 133.98 356 203 C238.52 203 121.04 203 0 203 C0 136.01 0 69.02 0 0 Z " fill="#FCFCFC" transform="translate(0,0)"/>
<path d="M0 0 C7.39325323 5.53285944 11.70691142 12.01013504 14.390625 20.7890625 C14.58140625 21.38847656 14.7721875 21.98789063 14.96875 22.60546875 C17.04476379 33.35076233 15.82999848 43.67583006 10.03515625 52.9609375 C4.11257985 61.40815102 -4.22558963 68.2103912 -14.49609375 70.40625 C-24.2558069 71.60631511 -32.85592013 71.55153541 -41.609375 66.7890625 C-42.78113281 66.15291016 -42.78113281 66.15291016 -43.9765625 65.50390625 C-52.68478713 60.24085467 -58.35490822 52.3774915 -61.609375 42.7890625 C-64.44088178 31.14213127 -62.50040372 20.43451305 -56.609375 10.1640625 C-50.99798483 1.77075432 -42.1340558 -4.43968542 -32.26953125 -6.76171875 C-20.43577778 -8.76007653 -10.0433496 -6.41132065 0 0 Z " fill="#047DBB" transform="translate(117.609375,62.2109375)"/>
<path d="M0 0 C1.2684375 0.99 1.2684375 0.99 2.5625 2 C3.51640625 2.55816406 4.4703125 3.11632812 5.453125 3.69140625 C9.11281073 6.40858498 10.76343022 8.98507451 12.875 12.9375 C13.22111328 13.54529297 13.56722656 14.15308594 13.92382812 14.77929688 C18.92441315 23.81544175 18.79483325 34.7421692 16.5625 44.6875 C13.63275121 54.01317923 7.08076778 62.19879452 -1.4375 67 C-11.50328104 71.71358326 -22.13446099 74.21141363 -33.125 70.875 C-44.1180658 66.53828597 -52.74228089 59.90986481 -57.66015625 48.9765625 C-61.26735992 39.80447677 -62.32132559 29.05898835 -58.8125 19.6875 C-58.06679421 18.1025504 -57.27461792 16.53862795 -56.4375 15 C-56.01339844 14.21882813 -55.58929688 13.43765625 -55.15234375 12.6328125 C-49.88929217 3.92458787 -42.025929 -1.74553322 -32.4375 -5 C-21.17069289 -7.67317557 -10.01108541 -5.82463151 0 0 Z " fill="#C9391C" transform="translate(200.4375,61)"/>
<path d="M0 0 C2.93944432 2.50442578 4.06882712 5.11410639 5.48828125 8.671875 C5.94485107 9.8050415 6.4014209 10.93820801 6.87182617 12.10571289 C7.34724854 13.30832764 7.8226709 14.51094238 8.3125 15.75 C8.80016846 16.96743896 9.28783691 18.18487793 9.7902832 19.43920898 C10.75814061 21.85716185 11.72297247 24.27632829 12.68457031 26.69677734 C13.79560479 29.48673585 14.91906766 32.27076998 16.0546875 35.05078125 C20 44.7440156 20 44.7440156 20 47 C23.35130377 45.32434812 23.99686349 41.52812542 25.3125 38.1875 C25.93465372 36.6405276 26.55705127 35.09365325 27.1796875 33.546875 C27.48616211 32.77923828 27.79263672 32.01160156 28.10839844 31.22070312 C29.35578973 28.11383806 30.64459228 25.02570243 31.9375 21.9375 C32.33839844 20.97714844 32.73929687 20.01679687 33.15234375 19.02734375 C33.43207031 18.35832031 33.71179688 17.68929687 34 17 C34.66 17 35.32 17 36 17 C37.64692393 21.27041358 39.29235282 25.54140166 40.9375 29.8125 C41.40607422 31.02744141 41.87464844 32.24238281 42.35742188 33.49414062 C42.80537109 34.65751953 43.25332031 35.82089844 43.71484375 37.01953125 C44.12855225 38.09307861 44.54226074 39.16662598 44.96850586 40.27270508 C45.68508637 42.16736092 46.35943709 44.07831127 47 46 C47.99 46.495 47.99 46.495 49 47 C49.12455566 46.28755127 49.24911133 45.57510254 49.37744141 44.84106445 C50.01333527 41.93914411 50.90629131 39.31882258 51.9609375 36.54296875 C52.35023438 35.51236328 52.73953125 34.48175781 53.140625 33.41992188 C53.54796875 32.35322266 53.9553125 31.28652344 54.375 30.1875 C54.77460938 29.13240234 55.17421875 28.07730469 55.5859375 26.99023438 C56.3668808 24.92869819 57.1499428 22.86796314 57.93530273 20.80810547 C58.84650529 18.40483746 59.73660845 15.99519676 60.62109375 13.58203125 C61.82944525 10.44305582 63.15165038 7.48868035 64.6875 4.5 C65.12449219 3.6440625 65.56148438 2.788125 66.01171875 1.90625 C66.33785156 1.2771875 66.66398437 0.648125 67 0 C73.29786859 8.07961852 73.95813153 15.98317034 73 26 C70.79906158 36.79507893 65.35763226 46.4411663 56.18359375 52.75390625 C45.68136492 58.74712807 34.50026785 60.90188641 22.578125 58.234375 C11.69404123 54.53691114 3.64313829 47.87346856 -1.625 37.625 C-5.82351313 28.42710129 -6.70216371 17.54559316 -4.140625 7.6953125 C-1.77083333 1.77083333 -1.77083333 1.77083333 0 0 Z " fill="#5F3078" transform="translate(230,74)"/>
<path d="M0 0 C-0.33 0.66 -0.66 1.32 -1 2 C-3.35878867 1.5933123 -4.67337236 1.35764273 -6.31640625 -0.44140625 C-8.45882583 -2.42475987 -10.31807074 -2.88030448 -13.125 -3.625 C-17.91666667 -4.91666667 -17.91666667 -4.91666667 -19 -6 C-32.48016963 -6.88394555 -42.29421029 -4.63056324 -52.6875 4.3125 C-58.85771371 11.48328891 -61.09191452 17.53873102 -62 27 C-62.09539063 27.85980469 -62.19078125 28.71960938 -62.2890625 29.60546875 C-62.821936 38.42592748 -58.65286213 45.74049243 -54 53 C-53.67 53 -53.34 53 -53 53 C-52.67 50.03 -52.34 47.06 -52 44 C-51.34 45.32 -50.68 46.64 -50 48 C-47.9664052 49.26804566 -47.9664052 49.26804566 -46 50 C-47.32 50 -48.64 50 -50 50 C-50 51.32 -50 52.64 -50 54 C-46.7 54 -43.4 54 -40 54 C-40 52.68 -40 51.36 -40 50 C-41.32 49.67 -42.64 49.34 -44 49 C-43.38125 48.95875 -42.7625 48.9175 -42.125 48.875 C-39.74989096 48.17226831 -39.74989096 48.17226831 -38.8125 45.5625 C-37.78590553 41.06127811 -37.34530158 36.59796313 -37 32 C-35.02 31.505 -35.02 31.505 -33 31 C-32.505 33.475 -32.505 33.475 -32 36 C-30.35 36 -28.7 36 -27 36 C-26.79375 36.94875 -26.5875 37.8975 -26.375 38.875 C-25.29166667 42.29166667 -25.29166667 42.29166667 -21.875 43.375 C-20.92625 43.58125 -19.9775 43.7875 -19 44 C-19 45.32 -19 46.64 -19 48 C-17.35 48 -15.7 48 -14 48 C-13.505 51.465 -13.505 51.465 -13 55 C-11.02 55 -9.04 55 -7 55 C-7 53.35 -7 51.7 -7 50 C-8.65 50 -10.3 50 -12 50 C-11.38125 49.7525 -10.7625 49.505 -10.125 49.25 C-7.64931313 47.79371361 -7.04874998 46.62187494 -6 44 C-6 45.32 -6 46.64 -6 48 C-4.35 48 -2.7 48 -1 48 C-1 46.35 -1 44.7 -1 43 C-1.804375 43.020625 -2.60875 43.04125 -3.4375 43.0625 C-6 43 -6 43 -7 42 C-7.04063832 40.33382885 -7.042721 38.66611905 -7 37 C-8.65 37 -10.3 37 -12 37 C-12 38.65 -12 40.3 -12 42 C-12.66 42 -13.32 42 -14 42 C-14 40.35 -14 38.7 -14 37 C-15.32 36.67 -16.64 36.34 -18 36 C-16.68 36 -15.36 36 -14 36 C-14 34.35 -14 32.7 -14 31 C-15.65 31 -17.3 31 -19 31 C-19 32.65 -19 34.3 -19 36 C-19.33 36 -19.66 36 -20 36 C-21.23076923 29.6 -21.23076923 29.6 -20.0625 26.5625 C-19.5365625 25.7890625 -19.5365625 25.7890625 -19 25 C-19 26.32 -19 27.64 -19 29 C-17.68 29 -16.36 29 -15 29 C-14.67 26.69 -14.34 24.38 -14 22 C-12 25 -12 25 -12 29 C-10.68 29 -9.36 29 -8 29 C-8 29.66 -8 30.32 -8 31 C-9.32 31 -10.64 31 -12 31 C-12 32.65 -12 34.3 -12 36 C-10.35 36 -8.7 36 -7 36 C-7 34.35 -7 32.7 -7 31 C-6.67 31 -6.34 31 -6 31 C-6 32.65 -6 34.3 -6 36 C-4.35 36 -2.7 36 -1 36 C-1 34.35 -1 32.7 -1 31 C-2.32 30.67 -3.64 30.34 -5 30 C-3.02 29.505 -3.02 29.505 -1 29 C-1 27.35 -1 25.7 -1 24 C-2.65 24 -4.3 24 -6 24 C-6 25.65 -6 27.3 -6 29 C-6.2475 28.38125 -6.495 27.7625 -6.75 27.125 C-8.20628639 24.64931313 -9.37812506 24.04874998 -12 23 C-10.68 23 -9.36 23 -8 23 C-8 21.35 -8 19.7 -8 18 C-7.67 18 -7.34 18 -7 18 C-7 19.65 -7 21.3 -7 23 C-5.02 23 -3.04 23 -1 23 C-0.67 17.72 -0.34 12.44 0 7 C0.66 7 1.32 7 2 7 C2 6.34 2 5.68 2 5 C2.99 5 3.98 5 5 5 C13.16575248 15.13966211 13.99573236 26.52845215 13 39 C10.73065657 48.82522553 4.21365553 57.28755588 -4 63 C-14.04620916 68.9095348 -25.2639194 71.12040791 -36.81640625 68.31640625 C-39.33313367 67.36721797 -41.6378371 66.28517676 -44 65 C-45.17175781 64.36384766 -45.17175781 64.36384766 -46.3671875 63.71484375 C-55.07541213 58.45179217 -60.74553322 50.588429 -64 41 C-66.83150678 29.35306877 -64.89102872 18.64545055 -59 8.375 C-53.38860983 -0.01830818 -44.5246808 -6.22874792 -34.66015625 -8.55078125 C-21.28976987 -10.80862917 -11.07105959 -7.2786328 0 0 Z " fill="#0A5799" transform="translate(120,64)"/>
<path d="M0 0 C4.29450418 2.86856202 7.37972612 6.4477721 9.01171875 11.34375 C9.59337637 17.27665775 8.42873163 21.5369429 5.01171875 26.34375 C-0.4185999 30.66584035 -4.7659361 31.67422081 -11.53515625 31.64453125 C-14.92247875 31.22920668 -16.69003122 29.7952167 -18.98828125 27.34375 C-18.65828125 26.68375 -18.32828125 26.02375 -17.98828125 25.34375 C-16.95703125 25.42625 -15.92578125 25.50875 -14.86328125 25.59375 C-10.15328628 25.28987936 -7.32636851 23.68183726 -3.98828125 20.34375 C-3.38029293 15.17197725 -3.38029293 15.17197725 -5.23046875 10.609375 C-8.4789674 8.27045597 -12.16186355 8.85197449 -15.98828125 9.34375 C-20.26510897 11.1102658 -21.92595453 13.27108799 -23.98828125 17.34375 C-24.8014999 22.72124988 -24.90970522 28.42137396 -22.36328125 33.34375 C-19.13172967 37.42570989 -15.91484859 39.70156089 -10.98828125 41.34375 C-2.59298287 42.14766342 4.77277147 42.3297631 11.91796875 37.328125 C17.35919306 32.17114375 20.7075903 25.81794737 21.21484375 18.35546875 C21.30685602 11.83026546 21.14079078 7.10124254 18.01171875 1.34375 C17.51671875 -0.14125 17.51671875 -0.14125 17.01171875 -1.65625 C17.67171875 -1.65625 18.33171875 -1.65625 19.01171875 -1.65625 C20.33888232 0.52344233 21.64812197 2.71106621 22.94921875 4.90625 C23.32240234 5.51533203 23.69558594 6.12441406 24.08007812 6.75195312 C28.85360812 14.87985555 28.31813899 22.4248343 26.01171875 31.34375 C21.78174105 42.31092855 15.66127681 48.47129944 5.01171875 53.34375 C-3.1992347 56.1550159 -13.79415993 55.46219914 -21.55078125 51.84375 C-28.89376353 47.58940342 -34.17243696 41.81399756 -37.328125 33.890625 C-39.37428072 25.99658046 -38.73680738 17.94634474 -35.30859375 10.5625 C-27.82187779 -2.01872681 -13.21303471 -6.64210004 0 0 Z " fill="#FDC50D" transform="translate(189.98828125,68.65625)"/>
<path d="M0 0 C3.3273969 2.62661074 5.27910071 5.28421866 7.4296875 8.91796875 C5.7796875 9.24796875 4.1296875 9.57796875 2.4296875 9.91796875 C2.7596875 10.24796875 3.0896875 10.57796875 3.4296875 10.91796875 C3.20805428 17.67778189 1.43082154 22.80670918 -1.29296875 28.96484375 C-2.98648569 32.88013063 -4.28314948 36.85324342 -5.5703125 40.91796875 C-6.2303125 40.91796875 -6.8903125 40.91796875 -7.5703125 40.91796875 C-9.25113983 36.86118471 -10.91245938 32.79668958 -12.5703125 28.73046875 C-13.04726563 27.57998047 -13.52421875 26.42949219 -14.015625 25.24414062 C-14.46679688 24.13232422 -14.91796875 23.02050781 -15.3828125 21.875 C-15.80175781 20.8538208 -16.22070312 19.8326416 -16.65234375 18.78051758 C-17.55535204 15.9646207 -17.75870923 13.8498929 -17.5703125 10.91796875 C-15.9203125 10.58796875 -14.2703125 10.25796875 -12.5703125 9.91796875 C-12.5703125 9.25796875 -12.5703125 8.59796875 -12.5703125 7.91796875 C-20.1603125 7.91796875 -27.7503125 7.91796875 -35.5703125 7.91796875 C-35.5703125 8.57796875 -35.5703125 9.23796875 -35.5703125 9.91796875 C-34.8071875 10.00046875 -34.0440625 10.08296875 -33.2578125 10.16796875 C-29.94828193 11.09155868 -29.2778807 11.99070897 -27.5703125 14.91796875 C-25.39935008 19.25989359 -24.66284586 23.18649752 -26.22973633 27.90283203 C-27.12501195 30.0604187 -28.07956104 32.17758051 -29.0703125 34.29296875 C-29.40417969 35.02902344 -29.73804688 35.76507813 -30.08203125 36.5234375 C-30.90146454 38.32619073 -31.73452799 40.12273774 -32.5703125 41.91796875 C-36.20512248 37.40205209 -38.0804954 32.36992956 -40.2578125 27.04296875 C-40.67353516 26.06199219 -41.08925781 25.08101562 -41.51757812 24.0703125 C-41.91009766 23.11511719 -42.30261719 22.15992187 -42.70703125 21.17578125 C-43.06498779 20.31098145 -43.42294434 19.44618164 -43.79174805 18.55517578 C-44.5703125 15.91796875 -44.5703125 15.91796875 -44.5703125 9.91796875 C-48.5303125 9.58796875 -52.4903125 9.25796875 -56.5703125 8.91796875 C-52.50936896 0.79608167 -44.85932495 -3.80969681 -36.5703125 -7.08203125 C-23.21203799 -10.49725353 -11.21880077 -7.4527161 0 0 Z " fill="#724F8F" transform="translate(288.5703125,63.08203125)"/>
<path d="M0 0 C5.28 0.33 10.56 0.66 16 1 C15.01 1.33 14.02 1.66 13 2 C14.33895393 9.17296748 16.66207632 15.40981043 19.625 22.0625 C20.04523438 23.02349609 20.46546875 23.98449219 20.8984375 24.97460938 C21.925131 27.31967067 22.95905727 29.66123776 24 32 C26.40685793 29.59314207 27.29355801 27.38005661 28.625 24.25 C29.29402344 22.71085937 29.29402344 22.71085937 29.9765625 21.140625 C31.56228533 16.27451371 31.60546377 12.35405373 29.3125 7.75 C27.78275251 4.87692586 27.20292176 4.11068459 24.25 2.5 C23.13625 2.2525 23.13625 2.2525 22 2 C22 1.34 22 0.68 22 0 C29.59 0 37.18 0 45 0 C45 0.66 45 1.32 45 2 C43.68 2.33 42.36 2.66 41 3 C41.54046345 9.27967053 43.61802176 14.47444519 46.0625 20.25 C46.80807213 22.02407931 47.54917051 23.80004733 48.28515625 25.578125 C48.61394775 26.35575195 48.94273926 27.13337891 49.28149414 27.93457031 C50 30 50 30 50 33 C50.66 33 51.32 33 52 33 C52.11472656 32.15566406 52.22945313 31.31132813 52.34765625 30.44140625 C53.04618518 26.75635245 54.14677855 23.45730124 55.4375 19.9375 C55.86933594 18.75027344 56.30117188 17.56304687 56.74609375 16.33984375 C57.51446474 14.29324813 58.3071269 12.25532244 59.140625 10.234375 C60.14623565 7.61978731 60.37515239 5.77612767 60 3 C59.01 2.34 58.02 1.68 57 1 C60.3 0.67 63.6 0.34 67 0 C66.16269834 3.34920665 65.17059061 6.1030975 63.8125 9.25 C61.80441844 14.0026515 59.91936846 18.78826638 58.125 23.625 C54.84874887 32.45541076 51.43130085 41.22886409 48 50 C47.01 49.67 46.02 49.34 45 49 C43.74145508 46.43969727 43.74145508 46.43969727 42.51953125 43.06640625 C41.85727539 41.2575293 41.85727539 41.2575293 41.18164062 39.41210938 C40.95710205 38.78071045 40.73256348 38.14931152 40.5012207 37.4987793 C39.8150541 35.56968063 39.11327016 33.64687067 38.40820312 31.72460938 C35 22.32318897 35 22.32318897 35 20 C34.34 20 33.68 20 33 20 C32.82984375 20.70125 32.6596875 21.4025 32.484375 22.125 C31.14675126 27.36165466 29.67655251 32.11339067 27.1171875 36.875 C24.87078722 41.14787325 22.97500537 45.59670934 21 50 C20.34 50 19.68 50 19 50 C18.6376123 49.10394043 18.27522461 48.20788086 17.90185547 47.28466797 C16.52781298 43.88824817 15.15185855 40.49260545 13.77539062 37.09716797 C13.18536886 35.64099169 12.59583277 34.1846185 12.00683594 32.72802734 C5.90502828 17.18552165 5.90502828 17.18552165 -1 2 C-0.67 1.34 -0.34 0.68 0 0 Z " fill="#E7E1EB" transform="translate(231,71)"/>
<path d="M0 0 C0.9075 0.00257812 1.815 0.00515625 2.75 0.0078125 C4.11125 0.00394531 4.11125 0.00394531 5.5 0 C7.75 0.1328125 7.75 0.1328125 8.75 1.1328125 C8.79063832 2.79898365 8.792721 4.46669345 8.75 6.1328125 C10.73 6.1328125 12.71 6.1328125 14.75 6.1328125 C14.75 8.1128125 14.75 10.0928125 14.75 12.1328125 C17.72 12.6278125 17.72 12.6278125 20.75 13.1328125 C20.75 16.7628125 20.75 20.3928125 20.75 24.1328125 C15.14 24.1328125 9.53 24.1328125 3.75 24.1328125 C3.75 20.1728125 3.75 16.2128125 3.75 12.1328125 C2.76 12.6278125 2.76 12.6278125 1.75 13.1328125 C1.75 16.7628125 1.75 20.3928125 1.75 24.1328125 C0.43 24.1328125 -0.89 24.1328125 -2.25 24.1328125 C-2.25 24.7928125 -2.25 25.4528125 -2.25 26.1328125 C-0.93 26.1328125 0.39 26.1328125 1.75 26.1328125 C1.75 31.7428125 1.75 37.3528125 1.75 43.1328125 C2.41 43.1328125 3.07 43.1328125 3.75 43.1328125 C3.75 37.5228125 3.75 31.9128125 3.75 26.1328125 C6.39 26.1328125 9.03 26.1328125 11.75 26.1328125 C11.42 31.7428125 11.09 37.3528125 10.75 43.1328125 C9.265 43.6278125 9.265 43.6278125 7.75 44.1328125 C7.75 45.7828125 7.75 47.4328125 7.75 49.1328125 C4.08694766 49.88207321 1.32644848 50.3708139 -2.25 49.1328125 C-2.229375 48.4109375 -2.20875 47.6890625 -2.1875 46.9453125 C-2.24886732 44.18378317 -2.51098193 41.79327757 -3.25 39.1328125 C-3.91 38.8028125 -4.57 38.4728125 -5.25 38.1328125 C-4.755 37.6378125 -4.755 37.6378125 -4.25 37.1328125 C-4.17452322 35.32306799 -4.1669068 33.51041941 -4.1875 31.69921875 C-4.19523437 30.57451172 -4.20296875 29.44980469 -4.2109375 28.29101562 C-4.23659729 25.92903228 -4.26262742 23.56705292 -4.2890625 21.20507812 C-4.38166261 7.60057867 -4.38166261 7.60057867 -3.25 1.1328125 C-2.25 0.1328125 -2.25 0.1328125 0 0 Z " fill="#78BAD3" transform="translate(72.25,68.8671875)"/>
<path d="M0 0 C0.33 0 0.66 0 1 0 C1 1.65 1 3.3 1 5 C2.98 5 4.96 5 7 5 C7.061875 5.94875 7.12375 6.8975 7.1875 7.875 C7.455625 8.90625 7.72375 9.9375 8 11 C10.46255685 12.45291273 10.46255685 12.45291273 13 13 C13 14.98 13 16.96 13 19 C14.98 19 16.96 19 19 19 C19 22.63 19 26.26 19 30 C19.66 30 20.32 30 21 30 C21 28.35 21 26.7 21 25 C22.65 25 24.3 25 26 25 C26.495 27.475 26.495 27.475 27 30 C28.65 30.33 30.3 30.66 32 31 C32 32.65 32 34.3 32 36 C30.02 36 28.04 36 26 36 C26 36.66 26 37.32 26 38 C26 39.66666667 26 41.33333333 26 43 C24.0085944 43.38133299 22.00720923 43.71325582 20 44 C19 43 19 43 18.9375 40.4375 C18.958125 39.633125 18.97875 38.82875 19 38 C17.35 38 15.7 38 14 38 C13.67 36.02 13.34 34.04 13 32 C11.02 31.34 9.04 30.68 7 30 C6.505 27.525 6.505 27.525 6 25 C4.824375 25.0928125 4.824375 25.0928125 3.625 25.1875 C2.75875 25.125625 1.8925 25.06375 1 25 C0.34 24.01 -0.32 23.02 -1 22 C-0.67 21.01 -0.34 20.02 0 19 C-1.65 19 -3.3 19 -5 19 C-5.33 20.32 -5.66 21.64 -6 23 C-6 21.68 -6 20.36 -6 19 C-7.65 19 -9.3 19 -11 19 C-11 20.65 -11 22.3 -11 24 C-9.68 24.33 -8.36 24.66 -7 25 C-8.32 25 -9.64 25 -11 25 C-11 26.65 -11 28.3 -11 30 C-9.68 30.33 -8.36 30.66 -7 31 C-8.32 31 -9.64 31 -11 31 C-11 32.65 -11 34.3 -11 36 C-11.66 36 -12.32 36 -13 36 C-13 34.35 -13 32.7 -13 31 C-14.32 30.67 -15.64 30.34 -17 30 C-15.68 30 -14.36 30 -13 30 C-13 28.35 -13 26.7 -13 25 C-14.32 24.67 -15.64 24.34 -17 24 C-15.68 24 -14.36 24 -13 24 C-13 22.35 -13 20.7 -13 19 C-14.32 19 -15.64 19 -17 19 C-17 18.34 -17 17.68 -17 17 C-15.68 17 -14.36 17 -13 17 C-13 15.35 -13 13.7 -13 12 C-14.32 11.67 -15.64 11.34 -17 11 C-15.68 11 -14.36 11 -13 11 C-13 9.35 -13 7.7 -13 6 C-14.32 5.67 -15.64 5.34 -17 5 C-11.58461538 3.76923077 -11.58461538 3.76923077 -8.625 4.9375 C-8.08875 5.288125 -7.5525 5.63875 -7 6 C-8.32 6 -9.64 6 -11 6 C-11 7.65 -11 9.3 -11 11 C-9.68 11.33 -8.36 11.66 -7 12 C-8.32 12 -9.64 12 -11 12 C-11 13.65 -11 15.3 -11 17 C-9.35 17 -7.7 17 -6 17 C-5.67 15.68 -5.34 14.36 -5 13 C-5 14.32 -5 15.64 -5 17 C-3.35 17 -1.7 17 0 17 C0.33 15.68 0.66 14.36 1 13 C1 14.32 1 15.64 1 17 C2.65 17 4.3 17 6 17 C6 15.35 6 13.7 6 12 C4.68 11.67 3.36 11.34 2 11 C3.32 11 4.64 11 6 11 C6 9.35 6 7.7 6 6 C2.7 6 -0.6 6 -4 6 C-2.68 5.67 -1.36 5.34 0 5 C0 3.35 0 1.7 0 0 Z " fill="#206589" transform="translate(87,76)"/>
<path d="M0 0 C0.66 0 1.32 0 2 0 C3.32716357 2.17969233 4.63640322 4.36731621 5.9375 6.5625 C6.49727539 7.47612305 6.49727539 7.47612305 7.06835938 8.40820312 C11.84188937 16.53610555 11.30642024 24.0810843 9 33 C4.7700223 43.96717855 -1.35044194 50.12754944 -12 55 C-20.21095345 57.8112659 -30.80587868 57.11844914 -38.5625 53.5 C-44.07246439 50.33214582 -49.76940988 46.08299845 -51.67578125 39.7578125 C-51.78277344 39.17773438 -51.88976562 38.59765625 -52 38 C-51.01 38.66 -50.02 39.32 -49 40 C-49 40.99 -49 41.98 -49 43 C-48.34 43 -47.68 43 -47 43 C-47 43.66 -47 44.32 -47 45 C-45.68 45.33 -44.36 45.66 -43 46 C-43 46.66 -43 47.32 -43 48 C-42.195625 48.268125 -41.39125 48.53625 -40.5625 48.8125 C-38.68983503 49.43672166 -36.81886418 50.07196288 -34.984375 50.80078125 C-28.16282846 53.38953362 -21.42092789 54.47146269 -14.359375 52.12109375 C-6.31380194 48.38212345 0.71655477 42.85298293 5 35 C5 34.01 5 33.02 5 32 C2.46716796 33.01313282 1.24508396 33.50983207 0 36 C-1.26422764 38.52845528 -2.52845528 38.76422764 -5 40 C-5.309375 40.66 -5.61875 41.32 -5.9375 42 C-7 44 -7 44 -9.0390625 45.109375 C-12.90643769 46.2726488 -16.42292083 46.29185487 -20.4375 46.25 C-21.17548828 46.25773437 -21.91347656 46.26546875 -22.67382812 46.2734375 C-27.14498889 46.25754004 -30.83164936 45.80355262 -35 44 C-36.875 41.875 -36.875 41.875 -38 40 C-37.67 39.34 -37.34 38.68 -37 38 C-35.6078125 38.9590625 -35.6078125 38.9590625 -34.1875 39.9375 C-27.66356765 44.15886799 -20.49424973 43.76302341 -13 43 C-5.62727516 40.57122476 -1.72192062 36.02966866 1.94140625 29.3671875 C4.85581568 22.85009483 5.26536462 14.57239118 3.36328125 7.69921875 C2.658527 6.09375419 1.83724237 4.54052596 1 3 C0.505 1.515 0.505 1.515 0 0 Z " fill="#F4A737" transform="translate(207,67)"/>
<path d="M0 0 C3.875 1.75 3.875 1.75 5 4 C4.34 4 3.68 4 3 4 C3 4.66 3 5.32 3 6 C2.34 6 1.68 6 1 6 C1.01160156 6.90363281 1.02320312 7.80726562 1.03515625 8.73828125 C1.04417969 9.91777344 1.05320312 11.09726563 1.0625 12.3125 C1.07410156 13.48425781 1.08570312 14.65601562 1.09765625 15.86328125 C1 19 1 19 0 22 C-2.31 22 -4.62 22 -7 22 C-6.67 22.66 -6.34 23.32 -6 24 C-5.67 23.67 -5.34 23.34 -5 23 C-3.33382885 22.95936168 -1.66611905 22.957279 0 23 C0 24.65 0 26.3 0 28 C-0.99 28.33 -1.98 28.66 -3 29 C-2.01 29.33 -1.02 29.66 0 30 C0 31.65 0 33.3 0 35 C-3.63 35 -7.26 35 -11 35 C-11 33.35 -11 31.7 -11 30 C-9.68 30 -8.36 30 -7 30 C-7 29.34 -7 28.68 -7 28 C-8.32 28 -9.64 28 -11 28 C-14.66438107 20.51855531 -14.52020519 13.18322784 -14 5 C-13.67 4.34 -13.34 3.68 -13 3 C-10.16215907 2.18918831 -7.77109623 2.00448831 -4.8125 2.0625 C-1.86024997 2.32106506 -1.86024997 2.32106506 0 0 Z " fill="#165588" transform="translate(119,65)"/>
<path d="M0 0 C-0.33 0.66 -0.66 1.32 -1 2 C-3.35878867 1.5933123 -4.67337236 1.35764273 -6.31640625 -0.44140625 C-8.45882583 -2.42475987 -10.31807074 -2.88030448 -13.125 -3.625 C-17.91666667 -4.91666667 -17.91666667 -4.91666667 -19 -6 C-32.48016963 -6.88394555 -42.29421029 -4.63056324 -52.6875 4.3125 C-58.85771371 11.48328891 -61.09191452 17.53873102 -62 27 C-62.09539063 27.85980469 -62.19078125 28.71960938 -62.2890625 29.60546875 C-62.7157882 36.66890205 -60.37058566 41.89360741 -57 48 C-56.56558594 48.80824219 -56.13117187 49.61648437 -55.68359375 50.44921875 C-52.37015289 56.00938019 -48.44711732 59.17679848 -42.9765625 62.58984375 C-42.32429688 63.05519531 -41.67203125 63.52054687 -41 64 C-41 64.66 -41 65.32 -41 66 C-50.99429277 62.36411493 -57.25284759 55.34735767 -61.99609375 46.046875 C-66.17622971 36.84657577 -66.40356689 26.01749848 -63.08984375 16.50390625 C-58.29968846 5.4985674 -51.10223307 -1.92823862 -40.125 -6.9375 C-25.35405595 -11.95962098 -12.59732556 -8.28207148 0 0 Z " fill="#2D87AD" transform="translate(120,64)"/>
<path d="M0 0 C2.475 0.495 2.475 0.495 5 1 C5 2.65 5 4.3 5 6 C6.98 6 8.96 6 11 6 C11 7.98 11 9.96 11 12 C13.97 12.495 13.97 12.495 17 13 C17 16.63 17 20.26 17 24 C11.39 24 5.78 24 0 24 C0 18.39 0 12.78 0 7 C1.32 7 2.64 7 4 7 C4 6.34 4 5.68 4 5 C2.68 5 1.36 5 0 5 C0 3.35 0 1.7 0 0 Z " fill="#67BDD5" transform="translate(76,69)"/>
<path d="M0 0 C1.54018459 4.62055378 -0.58655018 7.67360123 -2.49609375 11.9921875 C-6.81402238 20.62804476 -13.71759798 25.51667044 -22.8671875 28.63671875 C-32.66882328 30.30622814 -41.69994576 29.87056933 -50.4296875 24.8515625 C-55.43121383 21.24863928 -59.84761692 17.24786005 -61 11 C-59.515 11.99 -59.515 11.99 -58 13 C-58 13.99 -58 14.98 -58 16 C-57.34 16 -56.68 16 -56 16 C-56 16.66 -56 17.32 -56 18 C-54.68 18.33 -53.36 18.66 -52 19 C-52 19.66 -52 20.32 -52 21 C-51.195625 21.268125 -50.39125 21.53625 -49.5625 21.8125 C-47.68983503 22.43672166 -45.81886418 23.07196288 -43.984375 23.80078125 C-37.16282846 26.38953362 -30.42092789 27.47146269 -23.359375 25.12109375 C-14.97907697 21.22656874 -8.90490631 15.73465994 -4 8 C-3.34 8 -2.68 8 -2 8 C-1.855625 6.865625 -1.71125 5.73125 -1.5625 4.5625 C-1 1 -1 1 0 0 Z " fill="#FBA12C" transform="translate(216,94)"/>
<path d="M0 0 C1.37671875 -0.00386719 1.37671875 -0.00386719 2.78125 -0.0078125 C5.45004454 0.12255965 7.89865153 0.53121394 10.5 1.125 C10.5 1.455 10.5 1.785 10.5 2.125 C9.90461426 2.13958252 9.30922852 2.15416504 8.69580078 2.16918945 C6.00486949 2.24354344 3.31519667 2.34024187 0.625 2.4375 C-0.78072266 2.47133789 -0.78072266 2.47133789 -2.21484375 2.50585938 C-3.11074219 2.54130859 -4.00664062 2.57675781 -4.9296875 2.61328125 C-5.75710449 2.63946533 -6.58452148 2.66564941 -7.43701172 2.69262695 C-9.89327932 2.95596637 -9.89327932 2.95596637 -11.5 6.125 C-12.82824155 6.47807687 -14.16248568 6.80886025 -15.5 7.125 C-25.28425727 13.42250377 -31.54035213 20.94117358 -34.8359375 32.04296875 C-36.11797054 37.99311033 -36.26528837 44.05487164 -36.5 50.125 C-36.83 50.125 -37.16 50.125 -37.5 50.125 C-39.8221114 40.06251728 -39.46481522 30.25036132 -34.5 21.125 C-34.07589844 20.34382813 -33.65179688 19.56265625 -33.21484375 18.7578125 C-27.95179217 10.04958787 -20.088429 4.37946678 -10.5 1.125 C-6.94927056 0.25449859 -3.65179733 -0.01025786 0 0 Z " fill="#D1642B" transform="translate(178.5,54.875)"/>
<path d="M0 0 C0 0.66 0 1.32 0 2 C2.31 2.33 4.62 2.66 7 3 C7.495 4.485 7.495 4.485 8 6 C7.33613281 5.79503906 6.67226562 5.59007812 5.98828125 5.37890625 C5.10527344 5.10949219 4.22226563 4.84007812 3.3125 4.5625 C2.44238281 4.29566406 1.57226562 4.02882813 0.67578125 3.75390625 C-11.38140481 0.35677208 -22.20775597 1.65414222 -33.1875 7.625 C-41.03484155 12.60196387 -46.92302052 20.90028427 -49.53930664 29.84350586 C-50.01632784 32.0764302 -50.11394624 34.04752675 -50.09765625 36.328125 C-50.09443359 37.12734375 -50.09121094 37.9265625 -50.08789062 38.75 C-50.07951172 39.575 -50.07113281 40.4 -50.0625 41.25 C-50.05798828 42.09046875 -50.05347656 42.9309375 -50.04882812 43.796875 C-50.03707961 45.86461401 -50.01914522 47.93231624 -50 50 C-52.93649404 45.59525894 -54.68067519 41.3220802 -55 36 C-53.8125 32.75 -53.8125 32.75 -52.96875 31.01171875 C-51.79397909 28.57217431 -50.80696288 26.08062208 -49.8125 23.5625 C-49.46832031 22.69753906 -49.12414062 21.83257812 -48.76953125 20.94140625 C-48.51558594 20.30074219 -48.26164063 19.66007812 -48 19 C-47.34 19 -46.68 19 -46 19 C-45.9175 18.443125 -45.835 17.88625 -45.75 17.3125 C-44.77298983 14.30005197 -43.02625404 12.40617667 -41 10 C-40.67 9.34 -40.34 8.68 -40 8 C-39.01 8.33 -38.02 8.66 -37 9 C-37 8.01 -37 7.02 -37 6 C-36.01 6 -35.02 6 -34 6 C-33.67 5.01 -33.34 4.02 -33 3 C-31.21484375 2.375 -31.21484375 2.375 -28.9375 2 C-25.75095243 1.41287234 -23.06711981 0.65868733 -20.125 -0.6875 C-13.67035271 -3.26159782 -6.58214051 -1.37572667 0 0 Z " fill="#FBE6D8" transform="translate(191,54)"/>
<path d="M0 0 C2.5625 1.5 2.5625 1.5 4 4 C4.79952969 9.03703704 4.79952969 9.03703704 4 12 C1.81329568 14.72004684 -0.88054075 16.44027037 -4 18 C-6.3329866 18.04022391 -8.66706666 18.04320247 -11 18 C-10.67 18.99 -10.34 19.98 -10 21 C-10.99 21 -11.98 21 -13 21 C-13 19.35 -13 17.7 -13 16 C-11.60974609 15.69255859 -11.60974609 15.69255859 -10.19140625 15.37890625 C-8.99386719 15.10949219 -7.79632813 14.84007813 -6.5625 14.5625 C-5.36753906 14.29566406 -4.17257813 14.02882813 -2.94140625 13.75390625 C-0.1295314 13.29933252 -0.1295314 13.29933252 1 12 C1.16053815 10.12678052 1.16053815 10.12678052 1.125 8 C1.12757813 7.278125 1.13015625 6.55625 1.1328125 5.8125 C1.19695276 3.97910585 1.19695276 3.97910585 0 3 C-3.0523991 2.56659648 -5.95273291 2.51885257 -9 3 C-11.5517286 5.12685929 -11.5517286 5.12685929 -13 8 C-13.35835937 8.62390625 -13.71671875 9.2478125 -14.0859375 9.890625 C-15.11709297 12.27021455 -15.2361127 13.91910766 -15.1875 16.5 C-15.18105469 17.2528125 -15.17460937 18.005625 -15.16796875 18.78125 C-15.00303563 20.95990143 -14.59600906 22.90204811 -14 25 C-13.34 25 -12.68 25 -12 25 C-11.236875 25.804375 -10.47375 26.60875 -9.6875 27.4375 C-6.92345437 30.07298537 -5.71162552 30.68186067 -2 31 C-2.99 31.66 -3.98 32.32 -5 33 C-10.11519493 31.65389607 -13.7385981 28.73986469 -16.8125 24.5 C-18.7438951 18.80746706 -19.47366941 12.38593091 -17.015625 6.73828125 C-12.60347483 0.24261572 -7.46774104 -1.06877762 0 0 Z " fill="#C75F05" transform="translate(183,77)"/>
<path d="M0 0 C7.46348943 -0.50221611 13.63940784 -0.24862855 20 4 C24.26137953 7.94738314 26.73269253 11.27346384 27.3125 17.1875 C26.92862564 21.87076724 25.71945673 25.17446454 23 29 C17.56968135 33.32209035 13.22234515 34.33047081 6.453125 34.30078125 C3.0658025 33.88545668 1.29825003 32.4514667 -1 30 C-0.67 29.34 -0.34 28.68 0 28 C1.0725 28.020625 2.145 28.04125 3.25 28.0625 C6.14790424 28.0142016 8.28612141 27.86844115 11 27 C11 27.66 11 28.32 11 29 C9.02 29.33 7.04 29.66 5 30 C5 30.66 5 31.32 5 32 C13.0763302 30.89232468 13.0763302 30.89232468 20 27 C23.30414853 21.49308579 23.45990893 17.20169315 22 11 C20.91564826 7.74694478 19.89409096 6.48934477 16.89453125 4.84765625 C11.27511942 2.39950939 6.0946172 1.39320111 0 1 C0 0.67 0 0.34 0 0 Z " fill="#FAAE2A" transform="translate(172,66)"/>
<path d="M0 0 C1.32 0.66 2.64 1.32 4 2 C3.67 4.64 3.34 7.28 3 10 C3.66 10 4.32 10 5 10 C5 9.34 5 8.68 5 8 C5.99 7.67 6.98 7.34 8 7 C8.05391993 8.79133978 8.09275571 10.58313899 8.125 12.375 C8.14820313 13.37273437 8.17140625 14.37046875 8.1953125 15.3984375 C8 18 8 18 6 20 C6 19.34 6 18.68 6 18 C5.01 18.33 4.02 18.66 3 19 C2.11959804 21.54698226 1.4240961 23.95191274 0.8125 26.5625 C0.63525391 27.27341797 0.45800781 27.98433594 0.27539062 28.71679688 C-0.16122323 30.47505269 -0.58210434 32.23720155 -1 34 C-1.66 34 -2.32 34 -3 34 C-3 34.66 -3 35.32 -3 36 C-3.66 36 -4.32 36 -5 36 C-5.268125 36.598125 -5.53625 37.19625 -5.8125 37.8125 C-7.79191929 41.4587987 -9.24031579 42.71698039 -13.1875 44.1875 C-14.115625 44.455625 -15.04375 44.72375 -16 45 C-15.29875 44.34 -14.5975 43.68 -13.875 43 C-4.83170109 33.87984586 0.14011073 24.06047574 0.08789062 11.16210938 C0.07951172 10.34548828 0.07113281 9.52886719 0.0625 8.6875 C0.05798828 7.85154297 0.05347656 7.01558594 0.04882812 6.15429688 C0.03710548 4.10283351 0.01917203 2.05140727 0 0 Z " fill="#FEF2E9" transform="translate(217,82)"/>
<path d="M0 0 C2.64 0 5.28 0 8 0 C7.67 5.61 7.34 11.22 7 17 C6.01 17.33 5.02 17.66 4 18 C4 19.65 4 21.3 4 23 C0.33694766 23.74926071 -2.42355152 24.2380014 -6 23 C-6 21.02 -6 19.04 -6 17 C-4.02 17 -2.04 17 0 17 C0 11.39 0 5.78 0 0 Z " fill="#7AB8D4" transform="translate(76,95)"/>
<path d="M0 0 C0.66 0 1.32 0 2 0 C6.74206891 6.82857923 6.67124905 13.89839692 6 22 C3.99291703 29.99560769 0.01856965 36.23186397 -6.875 40.875 C-13.1411909 44.20491129 -20.12239491 43.40776315 -27 43 C-27.33 42.34 -27.66 41.68 -28 41 C-22.06 40.67 -16.12 40.34 -10 40 C-10 39.34 -10 38.68 -10 38 C-9.13375 37.71125 -8.2675 37.4225 -7.375 37.125 C-2.12558615 33.8198135 1.13884266 28.42915948 2.65234375 22.40234375 C3.81026845 14.40095399 2.15667008 7.70239314 0 0 Z " fill="#AF2608" transform="translate(206,68)"/>
<path d="M0 0 C1.65 0 3.3 0 5 0 C5 3.63 5 7.26 5 11 C5.66 11 6.32 11 7 11 C7 9.35 7 7.7 7 6 C8.65 6 10.3 6 12 6 C12.33 7.65 12.66 9.3 13 11 C14.65 11.33 16.3 11.66 18 12 C18 13.65 18 15.3 18 17 C14.37 17 10.74 17 7 17 C7 15.68 7 14.36 7 13 C4.69 12.34 2.38 11.68 0 11 C-0.84098656 6.98195309 -1.05404945 3.98196457 0 0 Z " fill="#84ACC3" transform="translate(101,95)"/>
<path d="M0 0 C0.99 0 1.98 0 3 0 C1.86267264 2.29113773 0.70492903 4.56900953 -0.47265625 6.83984375 C-0.99730469 7.86207031 -1.52195312 8.88429688 -2.0625 9.9375 C-2.58972656 10.95714844 -3.11695313 11.97679688 -3.66015625 13.02734375 C-8.0246216 22.71060362 -6.51995403 33.31583379 -3 43 C-2.608125 44.19625 -2.21625 45.3925 -1.8125 46.625 C-1.544375 47.40875 -1.27625 48.1925 -1 49 C-4 48 -4 48 -5.3515625 45.91015625 C-9.8920042 35.75683724 -10 25.94866751 -10 15 C-8.125 12.3125 -8.125 12.3125 -6 10 C-5.34 10 -4.68 10 -4 10 C-3.896875 9.0925 -3.79375 8.185 -3.6875 7.25 C-2.99095383 3.95723628 -2.3594032 2.3594032 0 0 Z " fill="#E4FAFC" transform="translate(62,67)"/>
<path d="M0 0 C3 3.75 3 3.75 3 6 C3.66 6 4.32 6 5 6 C5.103125 6.639375 5.20625 7.27875 5.3125 7.9375 C5.539375 8.618125 5.76625 9.29875 6 10 C6.99 10.33 7.98 10.66 9 11 C9.33 12.65 9.66 14.3 10 16 C10.928125 16.2165625 10.928125 16.2165625 11.875 16.4375 C14 17 14 17 16 18 C16 18.66 16 19.32 16 20 C16.969375 20.268125 17.93875 20.53625 18.9375 20.8125 C21.82834451 21.62263586 24.6192904 22.59263502 27.4375 23.625 C31.84236539 25.12070981 35.36472346 25.14952505 40 25 C42.35768296 25.2420435 44.66050142 25.61008357 47 26 C41.29886552 29.46485413 33.85749202 28.71725242 27.5 27.53515625 C17.0336299 24.37655527 8.34115522 18.20090732 2.68359375 8.81640625 C1.00635632 5.63140833 0 3.65019932 0 0 Z " fill="#A73331" transform="translate(142,105)"/>
<path d="M0 0 C1.98 0 3.96 0 6 0 C6.33 1.65 6.66 3.3 7 5 C8.98 5.66 10.96 6.32 13 7 C13 8.32 13 9.64 13 11 C13.9590625 11.2165625 13.9590625 11.2165625 14.9375 11.4375 C17 12 17 12 18 13 C18.04063832 14.66617115 18.042721 16.33388095 18 18 C16.0085944 18.38133299 14.00720923 18.71325582 12 19 C11 18 11 18 10.9375 15.4375 C10.958125 14.633125 10.97875 13.82875 11 13 C9.35 13 7.7 13 6 13 C5.67 11.02 5.34 9.04 5 7 C3.35 6.67 1.7 6.34 0 6 C0 4.02 0 2.04 0 0 Z " fill="#75A5C1" transform="translate(95,101)"/>
<path d="M0 0 C1.50433594 0.01353516 1.50433594 0.01353516 3.0390625 0.02734375 C3.80992187 0.03894531 4.58078125 0.05054687 5.375 0.0625 C5.705 1.0525 6.035 2.0425 6.375 3.0625 C7.365 3.3925 8.355 3.7225 9.375 4.0625 C10.61776305 7.79078916 11.00049983 11.1632803 10.375 15.0625 C8.375 17.0625 8.375 17.0625 6.375 18.0625 C5.715 17.7325 5.055 17.4025 4.375 17.0625 C4.87 16.7325 5.365 16.4025 5.875 16.0625 C7.90590033 13.35463289 7.73588859 11.30430366 7.7734375 8 C7.25027141 5.45597668 6.46522534 4.58351219 4.375 3.0625 C0.21134331 2.26719479 -3.60111936 2.63959278 -7.5 4.25 C-10.74511282 7.01789035 -12.43174477 9.67182021 -13.0234375 13.9296875 C-12.97546966 20.08556041 -12.59039127 24.62594934 -9.625 30.0625 C-11.5 29.9375 -11.5 29.9375 -13.625 29.0625 C-16.16813473 24.10338728 -16.44252969 18.50740651 -15.625 13.0625 C-14.24889856 9.54313256 -12.55740215 6.30617503 -10.625 3.0625 C-9.635 3.0625 -8.645 3.0625 -7.625 3.0625 C-7.625 2.4025 -7.625 1.7425 -7.625 1.0625 C-4.98041621 -0.25979189 -2.94738699 -0.03427194 0 0 Z " fill="#FABC1E" transform="translate(178.625,74.9375)"/>
<path d="M0 0 C0.66 0.33 1.32 0.66 2 1 C1.01 1.680625 1.01 1.680625 0 2.375 C-0.99 3.179375 -0.99 3.179375 -2 4 C-2 4.66 -2 5.32 -2 6 C-0.02 6 1.96 6 4 6 C4.28875 6.639375 4.5775 7.27875 4.875 7.9375 C5.82823451 10.15206079 5.82823451 10.15206079 8 11 C9.32860925 11.35169068 10.66158328 11.68770276 12 12 C11.67 12.99 11.34 13.98 11 15 C8.03 14.505 8.03 14.505 5 14 C4.67 12.35 4.34 10.7 4 9 C0.7 9 -2.6 9 -6 9 C-6.144375 10.546875 -6.28875 12.09375 -6.4375 13.6875 C-6.78408405 17.17809654 -7.20162921 20.57841089 -8 24 C-8.33 24 -8.66 24 -9 24 C-9 20.04 -9 16.08 -9 12 C-12.74568157 15.69928131 -12.74568157 15.69928131 -15 20 C-15.66 20 -16.32 20 -17 20 C-14.76697698 11.06790793 -9.38024258 5.76067857 -1.7578125 1.03125 C-1.17773438 0.6909375 -0.59765625 0.350625 0 0 Z " fill="#108EC2" transform="translate(76,61)"/>
<path d="M0 0 C4.68317784 1.73451031 7.79620379 5.59240757 10 10 C10.78402692 15.89508848 10.85138144 20.62087075 7.1875 25.5 C6.15993826 26.69755344 5.09829474 27.86696601 4 29 C3.49339844 29.55300781 2.98679688 30.10601562 2.46484375 30.67578125 C-1.08264246 33.88270879 -7.29645857 33.26531109 -11.875 33.234375 C-14.7841492 32.91351296 -16.70976847 31.77308247 -19 30 C-18.34 29.67 -17.68 29.34 -17 29 C-16.34 29.33 -15.68 29.66 -15 30 C-9.11805249 30.66691226 -3.89420855 30.3728462 1.3046875 27.39453125 C5.45551246 23.98014298 6.77436771 19.60763006 7.5 14.4375 C6.66385723 8.68901843 3.60299833 4.50374791 0 0 Z " fill="#B93808" transform="translate(191,69)"/>
<path d="M0 0 C0.33 0 0.66 0 1 0 C1.01417969 0.88300781 1.02835938 1.76601562 1.04296875 2.67578125 C1.3825635 11.22071947 2.77455 17.5710159 7 25 C7.433125 25.80308594 7.86625 26.60617188 8.3125 27.43359375 C11.61999691 33.00559848 15.54777533 36.17361204 21.0234375 39.58984375 C21.67570312 40.05519531 22.32796875 40.52054688 23 41 C23 41.66 23 42.32 23 43 C13.00570723 39.36411493 6.74715241 32.34735767 2.00390625 23.046875 C-0.4668272 17.60889706 -1.1396026 12.67865435 -1.125 6.75 C-1.12757812 5.69296875 -1.13015625 4.6359375 -1.1328125 3.546875 C-1 1 -1 1 0 0 Z " fill="#276D98" transform="translate(56,87)"/>
<path d="M0 0 C-1.32 0.33 -2.64 0.66 -4 1 C-4 2.65 -4 4.3 -4 6 C-2.68 6.33 -1.36 6.66 0 7 C-1.32 7 -2.64 7 -4 7 C-4 8.65 -4 10.3 -4 12 C-2.68 12 -1.36 12 0 12 C0 12.66 0 13.32 0 14 C-1.32 14 -2.64 14 -4 14 C-4 15.65 -4 17.3 -4 19 C-2.68 19.33 -1.36 19.66 0 20 C-1.32 20 -2.64 20 -4 20 C-4 21.65 -4 23.3 -4 25 C-2.68 25.33 -1.36 25.66 0 26 C-1.32 26 -2.64 26 -4 26 C-4 27.65 -4 29.3 -4 31 C-4.66 31 -5.32 31 -6 31 C-6 29.35 -6 27.7 -6 26 C-7.32 25.67 -8.64 25.34 -10 25 C-8.68 25 -7.36 25 -6 25 C-6 23.35 -6 21.7 -6 20 C-7.32 19.67 -8.64 19.34 -10 19 C-8.68 19 -7.36 19 -6 19 C-6 17.35 -6 15.7 -6 14 C-7.32 14 -8.64 14 -10 14 C-10 13.34 -10 12.68 -10 12 C-8.68 12 -7.36 12 -6 12 C-6 10.35 -6 8.7 -6 7 C-7.32 6.67 -8.64 6.34 -10 6 C-8.68 6 -7.36 6 -6 6 C-6 4.35 -6 2.7 -6 1 C-7.32 0.67 -8.64 0.34 -10 0 C-6.42355152 -1.2380014 -3.66305234 -0.74926071 0 0 Z " fill="#2C829F" transform="translate(80,81)"/>
<path d="M0 0 C1.2065625 0.0309375 1.2065625 0.0309375 2.4375 0.0625 C2.4375 1.7125 2.4375 3.3625 2.4375 5.0625 C1.4475 5.3925 0.4575 5.7225 -0.5625 6.0625 C0.4275 6.3925 1.4175 6.7225 2.4375 7.0625 C2.4375 8.7125 2.4375 10.3625 2.4375 12.0625 C-1.1925 12.0625 -4.8225 12.0625 -8.5625 12.0625 C-8.5625 10.4125 -8.5625 8.7625 -8.5625 7.0625 C-7.2425 7.0625 -5.9225 7.0625 -4.5625 7.0625 C-4.5625 6.4025 -4.5625 5.7425 -4.5625 5.0625 C-5.8825 5.0625 -7.2025 5.0625 -8.5625 5.0625 C-8.5625 3.7425 -8.5625 2.4225 -8.5625 1.0625 C-7.3559375 1.0934375 -7.3559375 1.0934375 -6.125 1.125 C-3.0866539 1.050894 -3.0383461 0.074106 0 0 Z " fill="#A6CFDF" transform="translate(116.5625,87.9375)"/>
<path d="M0 0 C0.33 0 0.66 0 1 0 C1 1.65 1 3.3 1 5 C0.34 5 -0.32 5 -1 5 C-1.2475 5.61875 -1.495 6.2375 -1.75 6.875 C-3.23740369 9.40358627 -4.43678009 9.71839004 -7 11 C-7.309375 11.66 -7.61875 12.32 -7.9375 13 C-9 15 -9 15 -11.0390625 16.109375 C-14.90643769 17.2726488 -18.42292083 17.29185487 -22.4375 17.25 C-23.54448242 17.26160156 -23.54448242 17.26160156 -24.67382812 17.2734375 C-29.14498889 17.25754004 -32.83164936 16.80355262 -37 15 C-38.875 12.875 -38.875 12.875 -40 11 C-39.67 10.34 -39.34 9.68 -39 9 C-38.071875 9.639375 -37.14375 10.27875 -36.1875 10.9375 C-29.67025409 15.15454147 -22.48830636 14.77673268 -15 14 C-8.26149445 11.6497619 -4.13533413 7.801667 -0.83984375 1.5390625 C-0.56269531 1.03117187 -0.28554687 0.52328125 0 0 Z " fill="#FAA92A" transform="translate(209,96)"/>
<path d="M0 0 C-0.33 0.66 -0.66 1.32 -1 2 C-1.9075 1.835 -2.815 1.67 -3.75 1.5 C-17.89002845 -0.44246855 -28.1680945 2.22115149 -40 10 C-40 8.68 -40 7.36 -40 6 C-39.01 6 -38.02 6 -37 6 C-37 5.34 -37 4.68 -37 4 C-35.68 4 -34.36 4 -33 4 C-32.75894531 3.36449219 -32.51789063 2.72898437 -32.26953125 2.07421875 C-31 0 -31 0 -29.01171875 -0.79296875 C-28.24472656 -0.92316406 -27.47773437 -1.05335937 -26.6875 -1.1875 C-25.87925781 -1.33316406 -25.07101563 -1.47882812 -24.23828125 -1.62890625 C-23.13033203 -1.81259766 -23.13033203 -1.81259766 -22 -2 C-21.13375 -2.20625 -20.2675 -2.4125 -19.375 -2.625 C-12.29858653 -3.74232844 -6.65269351 -2.24879781 0 0 Z " fill="#E0F9FC" transform="translate(108,55)"/>
<path d="M0 0 C1.65 0 3.3 0 5 0 C5.061875 0.78375 5.12375 1.5675 5.1875 2.375 C5.455625 3.24125 5.72375 4.1075 6 5 C8.47636012 6.37466625 8.47636012 6.37466625 11 7 C11 8.65 11 10.3 11 12 C9.33388095 12.042721 7.66617115 12.04063832 6 12 C5.67 11.67 5.34 11.34 5 11 C3.35 11 1.7 11 0 11 C0 7.37 0 3.74 0 0 Z " fill="#96C5D8" transform="translate(108,69)"/>
<path d="M0 0 C-1.59721796 1.06481197 -3.20479036 2.11824715 -4.8671875 3.078125 C-11.53482304 6.96974107 -15.91155092 11.44256682 -18.44140625 18.83203125 C-19.38893953 22.50952055 -19.74613692 26.21831556 -20 30 C-20.33 30 -20.66 30 -21 30 C-22.7272922 22.88762037 -22.05339986 17.85263168 -18.8125 11.4375 C-18.50884521 10.83019043 -18.20519043 10.22288086 -17.89233398 9.59716797 C-16.04826456 6.19399104 -14.62007872 4.3865726 -11 3 C-10.34 2.34 -9.68 1.68 -9 1 C-6.04335481 -0.4783226 -3.25770263 -0.06032783 0 0 Z " fill="#E27F0C" transform="translate(172,66)"/>
<path d="M0 0 C0.66 0.33 1.32 0.66 2 1 C1.01 1.33 0.02 1.66 -1 2 C-1 5.63 -1 9.26 -1 13 C0.32 13.33 1.64 13.66 3 14 C3 16.64 3 19.28 3 22 C1.35 22 -0.3 22 -2 22 C-4.40815803 18.28781964 -4.2652309 14.64610851 -4.1875 10.375 C-4.18685547 9.694375 -4.18621094 9.01375 -4.18554688 8.3125 C-4.14080577 3.28161154 -4.14080577 3.28161154 -3 1 C-2.01 0.67 -1.02 0.34 0 0 Z " fill="#1B71A2" transform="translate(109,67)"/>
<path d="M0 0 C1.32 0 2.64 0 4 0 C3.66206207 6.75875868 2.00869931 11.87163634 -0.72265625 18.046875 C-2.41617319 21.96216188 -3.71283698 25.93527467 -5 30 C-5.66 30 -6.32 30 -7 30 C-7.53229326 28.73392393 -8.05044544 27.46189588 -8.5625 26.1875 C-8.85253906 25.47980469 -9.14257812 24.77210937 -9.44140625 24.04296875 C-10 22 -10 22 -9 19 C-8.01 20.32 -7.02 21.64 -6 23 C-5.34 21.02 -4.68 19.04 -4 17 C-3.34 17 -2.68 17 -2 17 C-2.061875 15.88625 -2.061875 15.88625 -2.125 14.75 C-2 12 -2 12 -1 10.1875 C0.546865 6.80373281 0.12318095 3.69542851 0 0 Z " fill="#553067" transform="translate(288,74)"/>
<path d="M0 0 C1.65 0 3.3 0 5 0 C5.33 1.65 5.66 3.3 6 5 C7.65 5.33 9.3 5.66 11 6 C11 7.65 11 9.3 11 11 C7.37 11 3.74 11 0 11 C0 7.37 0 3.74 0 0 Z " fill="#87CDDE" transform="translate(76,82)"/>
<path d="M0 0 C2 3 2 3 2 7 C3.32 7 4.64 7 6 7 C6 7.66 6 8.32 6 9 C4.68 9 3.36 9 2 9 C2 12.63 2 16.26 2 20 C1.34 20 0.68 20 0 20 C0 18.35 0 16.7 0 15 C-1.32 14.67 -2.64 14.34 -4 14 C-2.68 14 -1.36 14 0 14 C0 12.35 0 10.7 0 9 C-1.65 9 -3.3 9 -5 9 C-5 10.65 -5 12.3 -5 14 C-5.33 14 -5.66 14 -6 14 C-7.23076923 7.6 -7.23076923 7.6 -6.0625 4.5625 C-5.711875 4.046875 -5.36125 3.53125 -5 3 C-5 4.32 -5 5.64 -5 7 C-3.68 7 -2.36 7 -1 7 C-0.67 4.69 -0.34 2.38 0 0 Z " fill="#1D5F88" transform="translate(106,86)"/>
<path d="M0 0 C0.33 1.32 0.66 2.64 1 4 C2.65 4 4.3 4 6 4 C6.33 2.68 6.66 1.36 7 0 C7 1.32 7 2.64 7 4 C8.98 4 10.96 4 13 4 C13 5.98 13 7.96 13 10 C11.02 10.66 9.04 11.32 7 12 C6.34 11.01 5.68 10.02 5 9 C5.33 8.01 5.66 7.02 6 6 C4.35 6 2.7 6 1 6 C0.67 7.32 0.34 8.64 0 10 C-0.74926071 6.33694766 -1.2380014 3.57644848 0 0 Z " fill="#4A99B6" transform="translate(81,89)"/>
<path d="M0 0 C0.9075 0.86625 1.815 1.7325 2.75 2.625 C11.22332005 9.90513825 20.38478803 12.84760296 31.3125 13.5625 C32.56675781 13.64628906 33.82101563 13.73007813 35.11328125 13.81640625 C36.06589844 13.87699219 37.01851562 13.93757813 38 14 C33.05347194 16.56215513 29.47807282 17.40463406 24 16 C21.89218038 15.47082166 19.7846586 14.94986189 17.66796875 14.45703125 C10.03891642 12.47467907 4.17921011 8.88340488 0 2 C0 1.34 0 0.68 0 0 Z " fill="#AF2004" transform="translate(156,110)"/>
<path d="M0 0 C12.79887 -0.59376201 21.32414524 1.98119336 32 9 C31.67 9.66 31.34 10.32 31 11 C28.64121133 10.5933123 27.32662764 10.35764273 25.68359375 8.55859375 C23.54117417 6.57524013 21.68192926 6.11969552 18.875 5.375 C14.08333333 4.08333333 14.08333333 4.08333333 13 3 C10.65012738 2.76472227 8.29443961 2.58613583 5.9375 2.4375 C4.64714844 2.35371094 3.35679688 2.26992188 2.02734375 2.18359375 C0.52880859 2.09271484 0.52880859 2.09271484 -1 2 C-0.67 1.34 -0.34 0.68 0 0 Z " fill="#26739D" transform="translate(88,55)"/>
<path d="M0 0 C0 0.66 0 1.32 0 2 C-1.65848177 3.01351664 -3.32665961 4.01120795 -5 5 C-9.20510253 8.46302561 -11.50688076 12.80698082 -12.33398438 18.16259766 C-12.51334031 20.42277802 -12.61953399 22.67131906 -12.6875 24.9375 C-12.72166016 25.71673828 -12.75582031 26.49597656 -12.79101562 27.29882812 C-12.8726071 29.19874393 -12.93799885 31.09934403 -13 33 C-12.01 33.33 -11.02 33.66 -10 34 C-10.33 34.99 -10.66 35.98 -11 37 C-13.97079493 34.28753507 -14.88927455 32.29421712 -15.23828125 28.21484375 C-15.43023737 19.73846547 -14.7782341 12.60288208 -9.24609375 5.86328125 C-3.54931542 0 -3.54931542 0 0 0 Z " fill="#FDC320" transform="translate(167,69)"/>
<path d="M0 0 C3.46566672 2.73714819 4.65796074 6.57059135 6.1875 10.5625 C6.46013672 11.24763672 6.73277344 11.93277344 7.01367188 12.63867188 C9 17.71152491 9 17.71152491 9 20 C8.34 20 7.68 20 7 20 C6.16260219 17.8765984 5.33019717 15.7512272 4.5 13.625 C4.0359375 12.44164063 3.571875 11.25828125 3.09375 10.0390625 C2 7 2 7 2 5 C-0.2328113 5.82546793 -0.2328113 5.82546793 -0.78125 8.25 C-1.0184375 9.1575 -1.255625 10.065 -1.5 11 C-2.21875 13.75 -2.21875 13.75 -3 16 C-3.66 16.33 -4.32 16.66 -5 17 C-4.69343615 10.37822074 -3.25711277 5.77874846 0 0 Z " fill="#7E6892" transform="translate(230,74)"/>
<path d="M0 0 C0.33 0 0.66 0 1 0 C1.42550014 3.10007246 1.61227369 5.91787653 1 9 C-0.66591101 10.71716981 -2.26050787 11.71917687 -4.37109375 12.83203125 C-6.48842659 14.35021475 -6.47741552 15.5152587 -7 18 C-10.50031113 20.70024001 -13.64980938 21.49416388 -18 22 C-16.140128 20.06263333 -14.28041909 18.21956218 -12.1640625 16.5625 C-6.31137427 11.89828869 -3.20496546 6.71343143 0 0 Z " fill="#E1F7FC" transform="translate(131,107)"/>
<path d="M0 0 C0.33 0 0.66 0 1 0 C1.20674944 5.78898419 0.59162079 10.42932723 -1 16 C-1.66 16 -2.32 16 -3 16 C-3 16.66 -3 17.32 -3 18 C-3.66 18 -4.32 18 -5 18 C-5.268125 18.598125 -5.53625 19.19625 -5.8125 19.8125 C-7.79191929 23.4587987 -9.24031579 24.71698039 -13.1875 26.1875 C-14.115625 26.455625 -15.04375 26.72375 -16 27 C-15.29875 26.34 -14.5975 25.68 -13.875 25 C-7.05631444 18.12336527 -1.26711127 9.82011231 0 0 Z " fill="#FAD8D9" transform="translate(217,100)"/>
<path d="M0 0 C4.55555556 0.55555556 4.55555556 0.55555556 6 2 C5.71269945 4.33944736 5.38063221 6.6739143 5 9 C3.35 9.33 1.7 9.66 0 10 C-2.14915785 6.77626323 -2.38286803 5.73296326 -2 2 C-1.34 1.34 -0.68 0.68 0 0 Z " fill="#9A9B9B" transform="translate(251,151)"/>
<path d="M0 0 C0.66 0 1.32 0 2 0 C10.21845816 10.89839017 10.28355878 21.01930923 10 34 C9.01 34.495 9.01 34.495 8 35 C7.94392578 33.081875 7.94392578 33.081875 7.88671875 31.125 C7.82101258 29.4166396 7.75456689 27.70830753 7.6875 26 C7.66494141 25.16082031 7.64238281 24.32164063 7.61914062 23.45703125 C7.25927384 15.01651943 4.77641523 8.91756688 0 2 C0 1.34 0 0.68 0 0 Z " fill="#235A86" transform="translate(123,69)"/>
<path d="M0 0 C0.99 0.33 1.98 0.66 3 1 C3 2.32 3 3.64 3 5 C3.66 5 4.32 5 5 5 C5.33 3.35 5.66 1.7 6 0 C6.66 0 7.32 0 8 0 C8.33 3.3 8.66 6.6 9 10 C8.34 10 7.68 10 7 10 C6.67 8.68 6.34 7.36 6 6 C5.67 7.32 5.34 8.64 5 10 C4.34 10 3.68 10 3 10 C2.67 9.01 2.34 8.02 2 7 C1.67 7.99 1.34 8.98 1 10 C0.34 10 -0.32 10 -1 10 C-1.125 2.25 -1.125 2.25 0 0 Z " fill="#9A9B9B" transform="translate(193,151)"/>
<path d="M0 0 C1.98 0 3.96 0 6 0 C6 3.63 6 7.26 6 11 C4.35 11 2.7 11 1 11 C0.67 9.68 0.34 8.36 0 7 C-1.65 6.67 -3.3 6.34 -5 6 C-5 5.67 -5 5.34 -5 5 C-3.35 5 -1.7 5 0 5 C0 3.35 0 1.7 0 0 Z " fill="#71B8CA" transform="translate(87,82)"/>
<path d="M0 0 C1.37671875 -0.00386719 1.37671875 -0.00386719 2.78125 -0.0078125 C5.45004454 0.12255965 7.89865153 0.53121394 10.5 1.125 C10.5 1.455 10.5 1.785 10.5 2.125 C9.90461426 2.13958252 9.30922852 2.15416504 8.69580078 2.16918945 C6.00486949 2.24354344 3.31519667 2.34024187 0.625 2.4375 C-0.78072266 2.47133789 -0.78072266 2.47133789 -2.21484375 2.50585938 C-3.11074219 2.54130859 -4.00664062 2.57675781 -4.9296875 2.61328125 C-5.75710449 2.63946533 -6.58452148 2.66564941 -7.43701172 2.69262695 C-9.89327932 2.95596637 -9.89327932 2.95596637 -11.5 6.125 C-14.1015625 6.85546875 -14.1015625 6.85546875 -17.125 7.3125 C-18.12789062 7.47105469 -19.13078125 7.62960938 -20.1640625 7.79296875 C-21.32035156 7.95732422 -21.32035156 7.95732422 -22.5 8.125 C-20.26637233 5.63528763 -18.18553017 4.32657792 -15.125 3 C-14.37476563 2.66742188 -13.62453125 2.33484375 -12.8515625 1.9921875 C-8.5531584 0.40706174 -4.56339695 -0.01281853 0 0 Z " fill="#BE6842" transform="translate(178.5,54.875)"/>
<path d="M0 0 C-1.50362259 3.78716158 -3.05487001 7.55245187 -4.625 11.3125 C-5.07101562 12.38113281 -5.51703125 13.44976562 -5.9765625 14.55078125 C-6.48316406 15.76314453 -6.48316406 15.76314453 -7 17 C-7.66 16.67 -8.32 16.34 -9 16 C-8.855625 15.360625 -8.71125 14.72125 -8.5625 14.0625 C-7.82763202 10.06155212 -7.41418889 6.04495104 -7 2 C-7.99 1.34 -8.98 0.68 -10 0 C-2.25 -1.125 -2.25 -1.125 0 0 Z " fill="#EDD7F1" transform="translate(298,72)"/>
<path d="M0 0 C-1.20268681 0.65628849 -2.41252554 1.29947505 -3.625 1.9375 C-4.63433594 2.47697266 -4.63433594 2.47697266 -5.6640625 3.02734375 C-10.63376753 5.09666909 -15.80052154 5.18100028 -21.125 5.25 C-22.32382813 5.27578125 -23.52265625 5.3015625 -24.7578125 5.328125 C-28.29023149 4.97062717 -29.33898802 4.19040106 -32 2 C-31.40574219 2.01571045 -30.81148438 2.0314209 -30.19921875 2.04760742 C-27.46624546 2.11056569 -24.73342545 2.14918095 -22 2.1875 C-21.06542969 2.21263672 -20.13085938 2.23777344 -19.16796875 2.26367188 C-13.17894411 2.32649381 -5.02880169 -1.67626723 0 0 Z " fill="#2A648D" transform="translate(114,128)"/>
<path d="M0 0 C2.00720923 0.28674418 4.0085944 0.61866701 6 1 C6 2.32 6 3.64 6 5 C7.32 5 8.64 5 10 5 C10 5.66 10 6.32 10 7 C8.68 7 7.36 7 6 7 C6 8.32 6 9.64 6 11 C5.34 11 4.68 11 4 11 C4 9.68 4 8.36 4 7 C2.68 7 1.36 7 0 7 C-0.38133299 5.0085944 -0.71325582 3.00720923 -1 1 C-0.67 0.67 -0.34 0.34 0 0 Z " fill="#3597B3" transform="translate(70,69)"/>
<path d="M0 0 C0.66 0 1.32 0 2 0 C2 1.65 2 3.3 2 5 C2.66 5 3.32 5 4 5 C4 3.35 4 1.7 4 0 C4.66 0 5.32 0 6 0 C6.33 0.99 6.66 1.98 7 3 C7.66 2.01 8.32 1.02 9 0 C9.66 0 10.32 0 11 0 C10.34 3.3 9.68 6.6 9 10 C8.01 9.67 7.02 9.34 6 9 C5.67 8.34 5.34 7.68 5 7 C4.67 7.99 4.34 8.98 4 10 C3.34 10 2.68 10 2 10 C1.34 6.7 0.68 3.4 0 0 Z " fill="#969799" transform="translate(236,151)"/>
<path d="M0 0 C0.66 0.33 1.32 0.66 2 1 C-1.92393376 4.68611959 -4.68364878 5.52532578 -10 6 C-10.845625 6.185625 -11.69125 6.37125 -12.5625 6.5625 C-19.76723549 7.85565765 -19.76723549 7.85565765 -23.18359375 5.484375 C-24.08271484 4.74960938 -24.08271484 4.74960938 -25 4 C-24.42032471 3.9498877 -23.84064941 3.89977539 -23.2434082 3.84814453 C-20.59900423 3.61502466 -17.95581713 3.37012422 -15.3125 3.125 C-13.94448242 3.00705078 -13.94448242 3.00705078 -12.54882812 2.88671875 C-7.97448979 2.45423585 -4.24305487 1.85790568 0 0 Z " fill="#EAFDFE" transform="translate(111,129)"/>
<path d="M0 0 C0.66 0 1.32 0 2 0 C2 1.32 2 2.64 2 4 C2.9590625 4.2165625 2.9590625 4.2165625 3.9375 4.4375 C6 5 6 5 7 6 C7.04063832 7.66617115 7.042721 9.33388095 7 11 C5.0085944 11.38133299 3.00720923 11.71325582 1 12 C0 11 0 11 -0.0625 8.4375 C-0.041875 7.633125 -0.02125 6.82875 0 6 C-1.65 6 -3.3 6 -5 6 C-5 5.67 -5 5.34 -5 5 C-3.35 5 -1.7 5 0 5 C0 3.35 0 1.7 0 0 Z " fill="#5B89AC" transform="translate(106,108)"/>
<path d="M0 0 C0.33 0 0.66 0 1 0 C1 1.65 1 3.3 1 5 C2.98 5 4.96 5 7 5 C7.061875 5.94875 7.12375 6.8975 7.1875 7.875 C7.455625 8.90625 7.72375 9.9375 8 11 C10.46255685 12.45291273 10.46255685 12.45291273 13 13 C13 14.32 13 15.64 13 17 C10.69 17 8.38 17 6 17 C6 15.35 6 13.7 6 12 C4.68 11.67 3.36 11.34 2 11 C3.32 11 4.64 11 6 11 C6 9.35 6 7.7 6 6 C2.7 6 -0.6 6 -4 6 C-2.68 5.67 -1.36 5.34 0 5 C0 3.35 0 1.7 0 0 Z " fill="#2E8AB0" transform="translate(87,76)"/>
<path d="M0 0 C1.485 0.99 1.485 0.99 3 2 C3 2.99 3 3.98 3 5 C3.66 5 4.32 5 5 5 C5 5.66 5 6.32 5 7 C6.32 7.33 7.64 7.66 9 8 C9 8.66 9 9.32 9 10 C9.804375 10.268125 10.60875 10.53625 11.4375 10.8125 C17.71875 12.90625 17.71875 12.90625 24 15 C24 15.33 24 15.66 24 16 C15.89667679 15.97020837 10.85581279 14.717704 5 9 C2.31233082 6.10558704 0.58430427 3.94405383 0 0 Z " fill="#FCB02B" transform="translate(155,105)"/>
<path d="M0 0 C3.3 0 6.6 0 10 0 C10 1.98 10 3.96 10 6 C6.33694766 6.74926071 3.57644848 7.2380014 0 6 C0 4.02 0 2.04 0 0 Z " fill="#8DB9CD" transform="translate(70,112)"/>
<path d="M0 0 C1.65 0 3.3 0 5 0 C5 3.63 5 7.26 5 11 C3.35 11 1.7 11 0 11 C-1.28571429 3.57142857 -1.28571429 3.57142857 0 0 Z " fill="#85D6E9" transform="translate(69,76)"/>
<path d="M0 0 C3 1 3 1 5 4 C5.33 2.68 5.66 1.36 6 0 C6.66 0 7.32 0 8 0 C8 3.3 8 6.6 8 10 C5 9 5 9 3 6 C2.67 7.32 2.34 8.64 2 10 C1.34 10 0.68 10 0 10 C0 6.7 0 3.4 0 0 Z " fill="#9B9C9D" transform="translate(123,151)"/>
<path d="M0 0 C1.65 0 3.3 0 5 0 C5 3.63 5 7.26 5 11 C3.35 11 1.7 11 0 11 C-0.84098656 6.98195309 -1.05404945 3.98196457 0 0 Z " fill="#A7D2E3" transform="translate(101,95)"/>
<path d="M0 0 C1.65 0 3.3 0 5 0 C7.10852713 3.47286822 7.10852713 3.47286822 6.5625 6.125 C6.376875 6.74375 6.19125 7.3625 6 8 C6.33 8.66 6.66 9.32 7 10 C6.01 9.67 5.02 9.34 4 9 C3.67 8.34 3.34 7.68 3 7 C2.67 7.99 2.34 8.98 2 10 C1.34 10 0.68 10 0 10 C0 6.7 0 3.4 0 0 Z " fill="#A7A8A9" transform="translate(149,151)"/>
<path d="M0 0 C1.06513937 3.36653887 0.97679383 6.13898592 0.66015625 9.640625 C0.56669922 10.71054688 0.47324219 11.78046875 0.37695312 12.8828125 C0.22129883 14.54957031 0.22129883 14.54957031 0.0625 16.25 C-0.08735352 17.93996094 -0.08735352 17.93996094 -0.24023438 19.6640625 C-0.48753932 22.44329908 -0.74101284 25.22183173 -1 28 C-1.33 28 -1.66 28 -2 28 C-4.22725453 18.44435961 -3.73969357 9.0375928 0 0 Z " fill="#BA6446" transform="translate(143,77)"/>
<path d="M0 0 C1.65 0 3.3 0 5 0 C5.33 1.65 5.66 3.3 6 5 C5.34 5 4.68 5 4 5 C4.66 6.65 5.32 8.3 6 10 C4 10 2 10 0 10 C0 6.7 0 3.4 0 0 Z " fill="#949496" transform="translate(260,151)"/>
<path d="M0 0 C4 5 4 5 5.6875 7.4375 C8.49777164 10.55158479 11.60940598 12.49026591 15.171875 14.66796875 C15.77515625 15.10753906 16.3784375 15.54710938 17 16 C17 16.66 17 17.32 17 18 C13.29130091 16.67640068 10.46612569 15.05753534 7.375 12.625 C6.24191406 11.74714844 6.24191406 11.74714844 5.0859375 10.8515625 C2.09026394 8.19248147 0.09062715 6.32919826 -0.1875 2.25 C-0.125625 1.5075 -0.06375 0.765 0 0 Z " fill="#275C8B" transform="translate(62,112)"/>
<path d="M0 0 C0 0.33 0 0.66 0 1 C-4.77979241 1.73535268 -9.28526353 2.02801876 -14.125 1.9375 C-18.49355018 1.88773171 -21.94366417 2.19718407 -26 4 C-26.66 3.34 -27.32 2.68 -28 2 C-18.82471431 -1.47956658 -9.60677578 -2.20192273 0 0 Z " fill="#7D6790" transform="translate(275,56)"/>
<path d="M0 0 C0.33 0 0.66 0 1 0 C1.13277344 0.67546875 1.26554688 1.3509375 1.40234375 2.046875 C1.57894531 2.93890625 1.75554687 3.8309375 1.9375 4.75 C2.11152344 5.63171875 2.28554687 6.5134375 2.46484375 7.421875 C2.92368488 9.63235053 3.43336074 11.81512068 4 14 C4.66 14 5.32 14 6 14 C6.763125 14.804375 7.52625 15.60875 8.3125 16.4375 C11.07654563 19.07298537 12.28837448 19.68186067 16 20 C15.01 20.66 14.02 21.32 13 22 C7.84212755 20.64266514 4.1903588 17.72396791 1.1875 13.375 C-0.4048895 8.84926143 -0.25334665 4.74790386 0 0 Z " fill="#C05005" transform="translate(165,88)"/>
<path d="M0 0 C3.63 0 7.26 0 11 0 C11 0.33 11 0.66 11 1 C10.09121094 1.22042969 10.09121094 1.22042969 9.1640625 1.4453125 C2.35624211 3.26771365 -3.12651383 6.13849526 -9 10 C-9 8.68 -9 7.36 -9 6 C-8.01 6 -7.02 6 -6 6 C-6 5.34 -6 4.68 -6 4 C-4.68 4 -3.36 4 -2 4 C-1.34 2.68 -0.68 1.36 0 0 Z " fill="#D6F7FC" transform="translate(77,55)"/>
<path d="M0 0 C0.66 0 1.32 0 2 0 C2.66 0.99 3.32 1.98 4 3 C4.33 2.01 4.66 1.02 5 0 C5.66 0 6.32 0 7 0 C7 3.3 7 6.6 7 10 C6.34 10 5.68 10 5 10 C3.375 7.5 3.375 7.5 2 5 C1.67 6.65 1.34 8.3 1 10 C0.67 10 0.34 10 0 10 C0 6.7 0 3.4 0 0 Z " fill="#939496" transform="translate(182,151)"/>
<path d="M0 0 C0.66 0 1.32 0 2 0 C2.99 3.3 3.98 6.6 5 10 C4.34 10 3.68 10 3 10 C3 9.34 3 8.68 3 8 C1.02 8.66 -0.96 9.32 -3 10 C-2.69201674 8.51988629 -2.378482 7.04092675 -2.0625 5.5625 C-1.88847656 4.73878906 -1.71445313 3.91507813 -1.53515625 3.06640625 C-1 1 -1 1 0 0 Z " fill="#999A9B" transform="translate(169,151)"/>
<path d="M0 0 C1.54539521 4.63618562 -0.6415328 7.75638961 -2.51953125 12.1015625 C-4.28810651 15.56405022 -5.99029162 17.5922333 -9 20 C-9 15.19784004 -7.17360194 11.57030218 -4 8 C-3.34 8 -2.68 8 -2 8 C-1.855625 6.865625 -1.71125 5.73125 -1.5625 4.5625 C-1 1 -1 1 0 0 Z " fill="#F79A32" transform="translate(216,94)"/>
<path d="M0 0 C0.66 0 1.32 0 2 0 C2.18175781 0.92941406 2.36351562 1.85882813 2.55078125 2.81640625 C3.84925594 9.20223816 5.07804288 15.15608576 8 21 C7.34 21.33 6.68 21.66 6 22 C5.32645501 20.56570999 4.66140299 19.12742943 4 17.6875 C3.62875 16.88699219 3.2575 16.08648437 2.875 15.26171875 C2 13 2 13 2 10 C1.34 10 0.68 10 0 10 C0 6.7 0 3.4 0 0 Z " fill="#C55208" transform="translate(149,89)"/>
<path d="M0 0 C0.33 0 0.66 0 1 0 C1 1.65 1 3.3 1 5 C2.98 5 4.96 5 7 5 C7.33 4.01 7.66 3.02 8 2 C8 6.95 8 11.9 8 17 C7.67 15.68 7.34 14.36 7 13 C5.68 12.67 4.36 12.34 3 12 C4.32 11.67 5.64 11.34 7 11 C7 9.35 7 7.7 7 6 C5.35 6 3.7 6 2 6 C2 7.65 2 9.3 2 11 C1.7525 10.38125 1.505 9.7625 1.25 9.125 C-0.20628639 6.64931313 -1.37812506 6.04874998 -4 5 C-2.68 5 -1.36 5 0 5 C0 3.35 0 1.7 0 0 Z " fill="#174E7C" transform="translate(112,82)"/>
<path d="M0 0 C5.28 0.33 10.56 0.66 16 1 C16 4 16 4 15.4375 6.4375 C14.99291293 9.04150999 15.17512961 10.52538884 16 13 C15.01 13.495 15.01 13.495 14 14 C12.02896975 9.81156072 12 8.00147987 12 3 C8.04 2.67 4.08 2.34 0 2 C0 1.34 0 0.68 0 0 Z " fill="#9F8EB5" transform="translate(232,70)"/>
<path d="M0 0 C0.66 0 1.32 0 2 0 C2.66 0.99 3.32 1.98 4 3 C4.33 2.01 4.66 1.02 5 0 C5.66 0 6.32 0 7 0 C7 3.3 7 6.6 7 10 C6.34 10 5.68 10 5 10 C3.375 7.5 3.375 7.5 2 5 C1.67 6.65 1.34 8.3 1 10 C0.67 10 0.34 10 0 10 C0 6.7 0 3.4 0 0 Z " fill="#939394" transform="translate(213,151)"/>
<path d="M0 0 C3 1 3 1 4.1875 3.0625 C4.455625 3.701875 4.72375 4.34125 5 5 C5.33 3.35 5.66 1.7 6 0 C6.33 0 6.66 0 7 0 C7 3.3 7 6.6 7 10 C5.68 8.68 4.36 7.36 3 6 C2.67 7.32 2.34 8.64 2 10 C1.34 10 0.68 10 0 10 C0 6.7 0 3.4 0 0 Z " fill="#929294" transform="translate(75,151)"/>
<path d="M0 0 C0.66 0.99 1.32 1.98 2 3 C-1.26088959 8.14346502 -4.35996808 13.00441696 -9 17 C-9.66 17 -10.32 17 -11 17 C-9.59449154 12.52792762 -7.3635857 10.19950835 -4 7 C-1.98187649 4.54942146 -1.0143456 3.04303681 0 0 Z " fill="#22638E" transform="translate(128,108)"/>
<path d="M0 0 C1.37236617 4.1170985 0.03716609 5.84030146 -1.74609375 9.63671875 C-3.54958936 13.03583041 -5.61952276 15.97615053 -8 19 C-8.33 19 -8.66 19 -9 19 C-9.29503183 15.8967022 -9.24497413 14.38252646 -7.5390625 11.71875 C-6.90742188 10.9865625 -6.27578125 10.254375 -5.625 9.5 C-3.00548018 6.43850359 -1.33050965 3.81681557 0 0 Z " fill="#AF3D38" transform="translate(216,102)"/>
<path d="M0 0 C1.02480469 0.15984375 2.04960937 0.3196875 3.10546875 0.484375 C5.91511343 1.27902198 7.01629431 2.00319976 8.8125 4.25 C8.4825 4.91 8.1525 5.57 7.8125 6.25 C6.94625 5.775625 6.08 5.30125 5.1875 4.8125 C-0.57239319 2.28434812 -6.99506195 2.49907171 -13.1875 2.25 C-12.8575 1.59 -12.5275 0.93 -12.1875 0.25 C-7.89964495 -0.82665849 -4.33574562 -0.72537189 0 0 Z " fill="#CF5E0A" transform="translate(182.1875,63.75)"/>
<path d="M0 0 C-1.32 0.33 -2.64 0.66 -4 1 C-4 2.65 -4 4.3 -4 6 C-2.68 6.33 -1.36 6.66 0 7 C-1.32 7 -2.64 7 -4 7 C-4 8.65 -4 10.3 -4 12 C-4.66 12 -5.32 12 -6 12 C-6 10.35 -6 8.7 -6 7 C-7.32 6.67 -8.64 6.34 -10 6 C-8.68 6 -7.36 6 -6 6 C-6 4.35 -6 2.7 -6 1 C-7.32 0.67 -8.64 0.34 -10 0 C-6.42355152 -1.2380014 -3.66305234 -0.74926071 0 0 Z " fill="#226185" transform="translate(80,100)"/>
<path d="M0 0 C0.99 0.66 1.98 1.32 3 2 C1.46527032 6.72224516 -0.23945126 11.35855331 -2 16 C-2.99 15.67 -3.98 15.34 -5 15 C-1.92482916 4.44191344 -1.92482916 4.44191344 0 0 Z " fill="#E5CEEA" transform="translate(288,87)"/>
<path d="M0 0 C7.76742641 0.48546415 13.00300467 4.2523787 19 9 C18.67 9.99 18.34 10.98 18 12 C17.67 11.34 17.34 10.68 17 10 C16.34 10 15.68 10 15 10 C15 9.34 15 8.68 15 8 C14.28457031 7.72414063 13.56914062 7.44828125 12.83203125 7.1640625 C10.04261145 6.01751478 7.37709642 4.73772885 4.6875 3.375 C3.80449219 2.92898437 2.92148438 2.48296875 2.01171875 2.0234375 C1.34785156 1.68570313 0.68398437 1.34796875 0 1 C0 0.67 0 0.34 0 0 Z " fill="#A93E33" transform="translate(188,57)"/>
<path d="M0 0 C2.97 0.99 5.94 1.98 9 3 C9 4.65 9 6.3 9 8 C9.99 8.33 10.98 8.66 12 9 C12.73046875 11.06640625 12.73046875 11.06640625 13.1875 13.5625 C13.34605469 14.38878906 13.50460938 15.21507813 13.66796875 16.06640625 C13.77753906 16.70449219 13.88710937 17.34257813 14 18 C6 7.89473684 6 7.89473684 6 4 C5.195625 3.71125 4.39125 3.4225 3.5625 3.125 C1 2 1 2 0 0 Z " fill="#FCECD4" transform="translate(203,63)"/>
<path d="M0 0 C0.99 0.33 1.98 0.66 3 1 C2.071875 2.3303125 2.071875 2.3303125 1.125 3.6875 C-1.96450924 8.99006195 -2.31455293 15.00233814 -3 21 C-3.33 21 -3.66 21 -4 21 C-5.63163781 12.5025595 -4.59168193 7.32444765 0 0 Z " fill="#DA7808" transform="translate(155,75)"/>
<path d="M0 0 C0 0.66 0 1.32 0 2 C-1.71484375 3.65625 -1.71484375 3.65625 -3.9375 5.5 C-6.92045179 7.88926999 -6.92045179 7.88926999 -9 11 C-10.65 11 -12.3 11 -14 11 C-5.28651685 0 -5.28651685 0 0 0 Z " fill="#86729C" transform="translate(247,59)"/>
<path d="M0 0 C0.886875 0.165 1.77375 0.33 2.6875 0.5 C11.05975127 1.69117396 19.66935599 1.30676769 28 0 C27.67 0.99 27.34 1.98 27 3 C23.4375692 3.05827558 19.87526181 3.09368885 16.3125 3.125 C14.80139648 3.15013672 14.80139648 3.15013672 13.25976562 3.17578125 C12.28330078 3.18222656 11.30683594 3.18867188 10.30078125 3.1953125 C9.40528564 3.20578613 8.50979004 3.21625977 7.5871582 3.22705078 C4.73831743 2.97703456 2.59105457 2.18016512 0 1 C0 0.67 0 0.34 0 0 Z " fill="#FBD6D8" transform="translate(165,131)"/>
<path d="M0 0 C0.928125 0.2784375 0.928125 0.2784375 1.875 0.5625 C4.04160178 1.23686176 4.04160178 1.23686176 6 0 C5.979375 1.093125 5.95875 2.18625 5.9375 3.3125 C5.81455548 6.94384191 5.81455548 6.94384191 7 10 C5.68 9.34 4.36 8.68 3 8 C2.67 8.66 2.34 9.32 2 10 C1.34 10 0.68 10 0 10 C0.185625 8.906875 0.37125 7.81375 0.5625 6.6875 C1.2578068 3.06375867 1.2578068 3.06375867 0 0 Z " fill="#979798" transform="translate(93,151)"/>
<path d="M0 0 C-3.51635959 2.17515642 -6.34982397 2.23948201 -10.4375 2.1875 C-11.54996094 2.18105469 -12.66242188 2.17460937 -13.80859375 2.16796875 C-16.65100884 2.01836796 -19.23401547 1.64625807 -22 1 C-22 0.67 -22 0.34 -22 0 C-14.57161355 -1.33710956 -7.48595793 -0.68340908 0 0 Z " fill="#AE4247" transform="translate(189,131)"/>
<path d="M0 0 C0.99 0.33 1.98 0.66 3 1 C-6.02464482 8.07770368 -6.02464482 8.07770368 -11 10 C-13.171875 9.56640625 -13.171875 9.56640625 -15 9 C-10.11429181 6.15543212 -5.47932789 3.54545146 0 2 C0 1.34 0 0.68 0 0 Z " fill="#BA373C" transform="translate(204,121)"/>
<path d="M0 0 C0.66 0 1.32 0 2 0 C2 1.32 2 2.64 2 4 C1.01 4 0.02 4 -1 4 C-1 4.66 -1 5.32 -1 6 C-4.3125 7.125 -4.3125 7.125 -8 8 C-8.99 7.34 -9.98 6.68 -11 6 C-10.28972656 5.65066406 -9.57945312 5.30132812 -8.84765625 4.94140625 C-7.92855469 4.48636719 -7.00945312 4.03132813 -6.0625 3.5625 C-4.68771484 2.88380859 -4.68771484 2.88380859 -3.28515625 2.19140625 C-1.09471096 1.19474606 -1.09471096 1.19474606 0 0 Z " fill="#CD2120" transform="translate(205,117)"/>
<path d="M0 0 C2 1 2 1 3.0703125 3.72265625 C3.41835938 4.82480469 3.76640625 5.92695312 4.125 7.0625 C4.47820312 8.16722656 4.83140625 9.27195312 5.1953125 10.41015625 C5.46085937 11.26480469 5.72640625 12.11945313 6 13 C6.99 12.67 7.98 12.34 9 12 C8.67 13.98 8.34 15.96 8 18 C7.01 17.67 6.02 17.34 5 17 C3.95308833 14.69384528 3.10255004 12.51663184 2.3125 10.125 C2.08755859 9.48691406 1.86261719 8.84882812 1.63085938 8.19140625 C0.649565 5.33402021 0 3.04143468 0 0 Z " fill="#F2E1F7" transform="translate(271,103)"/>
<path d="M0 0 C1.65 0 3.3 0 5 0 C5 0.66 5 1.32 5 2 C4.01 2 3.02 2 2 2 C2 2.66 2 3.32 2 4 C2.99 4 3.98 4 5 4 C5 4.66 5 5.32 5 6 C4.01 6 3.02 6 2 6 C2 6.99 2 7.98 2 9 C2.99 9.33 3.98 9.66 5 10 C3.35 10 1.7 10 0 10 C0 6.7 0 3.4 0 0 Z " fill="#9E9FA0" transform="translate(115,151)"/>
<path d="M0 0 C0.99 0 1.98 0 3 0 C0.33333333 5.33333333 -2.33333333 10.66666667 -5 16 C-6.32527172 12.3702749 -5.66675274 10.37711779 -4.1875 6.875 C-3.83042969 6.00617188 -3.47335938 5.13734375 -3.10546875 4.2421875 C-2 2 -2 2 0 0 Z " fill="#CFF5FA" transform="translate(62,67)"/>
<path d="M0 0 C1.65 0 3.3 0 5 0 C3.515 1.98 3.515 1.98 2 4 C2.99 4 3.98 4 5 4 C5 4.66 5 5.32 5 6 C4.01 6 3.02 6 2 6 C2.99 7.32 3.98 8.64 5 10 C3.35 10 1.7 10 0 10 C0 6.7 0 3.4 0 0 Z " fill="#9FA0A1" transform="translate(141,151)"/>
<path d="M0 0 C0.33 0 0.66 0 1 0 C1 1.65 1 3.3 1 5 C0.34 5 -0.32 5 -1 5 C-1.2475 5.61875 -1.495 6.2375 -1.75 6.875 C-3.22770762 9.38710296 -4.43955177 9.76107344 -7 11 C-7.33 11.99 -7.66 12.98 -8 14 C-9.65 14 -11.3 14 -13 14 C-12.278125 13.443125 -11.55625 12.88625 -10.8125 12.3125 C-6.30272399 8.60446195 -2.89978281 5.07461991 0 0 Z " fill="#F79A33" transform="translate(209,96)"/>
<path d="M0 0 C2.00720923 0.28674418 4.0085944 0.61866701 6 1 C6 2.98 6 4.96 6 7 C5.71125 6.360625 5.4225 5.72125 5.125 5.0625 C4.17176549 2.84793921 4.17176549 2.84793921 2 2 C1.67 4.31 1.34 6.62 1 9 C1.66 9.33 2.32 9.66 3 10 C1.68 9.67 0.36 9.34 -1 9 C-1.09765625 2.84765625 -1.09765625 2.84765625 -1 1 C-0.67 0.67 -0.34 0.34 0 0 Z " fill="#979898" transform="translate(277,151)"/>
<path d="M0 0 C0.268125 0.61875 0.53625 1.2375 0.8125 1.875 C1.95556848 4.2995233 1.95556848 4.2995233 5 6 C3.68 6 2.36 6 1 6 C1 7.65 1 9.3 1 11 C2.65 11 4.3 11 6 11 C6 11.33 6 11.66 6 12 C2.37 12 -1.26 12 -5 12 C-5 11.67 -5 11.34 -5 11 C-3.35 11 -1.7 11 0 11 C0 9.35 0 7.7 0 6 C-1.65 6 -3.3 6 -5 6 C-4.360625 5.7525 -3.72125 5.505 -3.0625 5.25 C-0.81258459 4.18437567 -0.81258459 4.18437567 -0.25 1.875 C-0.1675 1.25625 -0.085 0.6375 0 0 Z " fill="#0F4171" transform="translate(113,108)"/>
<path d="M0 0 C2.64 0 5.28 0 8 0 C7.67 1.98 7.34 3.96 7 6 C4.69 5.67 2.38 5.34 0 5 C0 3.35 0 1.7 0 0 Z " fill="#7DC6DE" transform="translate(76,95)"/>
<path d="M0 0 C0.33 0 0.66 0 1 0 C1.33 1.65 1.66 3.3 2 5 C3.32 5.33 4.64 5.66 6 6 C6 7.65 6 9.3 6 11 C4.35 11 2.7 11 1 11 C-0.17571451 7.32589215 -0.07366746 3.83070817 0 0 Z " fill="#7BCBDF" transform="translate(68,82)"/>
<path d="M0 0 C0.33 0.99 0.66 1.98 1 3 C3.00032373 4.00016187 4.83125748 4.49396008 7 5 C6.67 5.99 6.34 6.98 6 8 C3.03 7.505 3.03 7.505 0 7 C-0.33 5.35 -0.66 3.7 -1 2 C-2.98 2 -4.96 2 -7 2 C-7 1.34 -7 0.68 -7 0 C-3.89953913 -1.03348696 -2.94389782 -1.17755913 0 0 Z " fill="#1296C9" transform="translate(81,68)"/>
<path d="M0 0 C3 2 3 2 3.6875 5.125 C3.790625 6.07375 3.89375 7.0225 4 8 C3.01 8.33 2.02 8.66 1 9 C0.34 8.67 -0.32 8.34 -1 8 C-1.04241723 5.66705225 -1.04092937 3.33297433 -1 1 C-0.67 0.67 -0.34 0.34 0 0 Z " fill="#D2D3D4" transform="translate(279,152)"/>
<path d="M0 0 C0.42410156 0.38671875 0.84820312 0.7734375 1.28515625 1.171875 C5.30304806 4.7394097 9.25403771 7.48173429 14 10 C13.34 10.66 12.68 11.32 12 12 C7.0187842 9.78612631 2.933076 6.63117263 0 2 C0 1.34 0 0.68 0 0 Z " fill="#B33204" transform="translate(156,110)"/>
<path d="M0 0 C1.65 0 3.3 0 5 0 C5 0.66 5 1.32 5 2 C4.01 2 3.02 2 2 2 C2 2.66 2 3.32 2 4 C2.66 4.33 3.32 4.66 4 5 C3.34 5 2.68 5 2 5 C2 6.32 2 7.64 2 9 C2.99 9.33 3.98 9.66 5 10 C3.35 10 1.7 10 0 10 C0 6.7 0 3.4 0 0 Z " fill="#939394" transform="translate(205,151)"/>
<path d="M0 0 C0 0.66 0 1.32 0 2 C-1.32 2 -2.64 2 -4 2 C-4 3.32 -4 4.64 -4 6 C-4.66 6 -5.32 6 -6 6 C-6 4.68 -6 3.36 -6 2 C-7.32 2 -8.64 2 -10 2 C-10 1.34 -10 0.68 -10 0 C-6.42355152 -1.2380014 -3.66305234 -0.74926071 0 0 Z " fill="#2C7B93" transform="translate(80,93)"/>
<path d="M0 0 C-0.66 1.65 -1.32 3.3 -2 5 C-2.99 5 -3.98 5 -5 5 C-5.66 4.01 -6.32 3.02 -7 2 C-7.99 1.34 -8.98 0.68 -10 0 C-2.25 -1.125 -2.25 -1.125 0 0 Z " fill="#F1E3F5" transform="translate(298,72)"/>
<path d="M0 0 C5.15464734 0.48324819 8.81550319 3.18610761 13 6 C12.67 6.66 12.34 7.32 12 8 C8.66135596 7.42437172 7.30897368 6.40936384 5 4 C4.01 3.67 3.02 3.34 2 3 C2 2.34 2 1.68 2 1 C1.34 0.67 0.68 0.34 0 0 Z " fill="#256391" transform="translate(107,58)"/>
<path d="M0 0 C1.32 0.33 2.64 0.66 4 1 C3.34 1 2.68 1 2 1 C2 1.99 2 2.98 2 4 C2.66 4 3.32 4 4 4 C4 4.66 4 5.32 4 6 C3.34 6 2.68 6 2 6 C2 6.99 2 7.98 2 9 C2.66 9.33 3.32 9.66 4 10 C2.68 10 1.36 10 0 10 C0 6.7 0 3.4 0 0 Z " fill="#979799" transform="translate(86,151)"/>
<path d="M0 0 C1.98 0 3.96 0 6 0 C6 0.66 6 1.32 6 2 C5.34 2 4.68 2 4 2 C4 4.64 4 7.28 4 10 C3.34 10 2.68 10 2 10 C2 7.36 2 4.72 2 2 C1.34 2 0.68 2 0 2 C0 1.34 0 0.68 0 0 Z " fill="#969698" transform="translate(133,151)"/>
<path d="M0 0 C1.98 0 3.96 0 6 0 C6 0.66 6 1.32 6 2 C5.34 2 4.68 2 4 2 C4 4.64 4 7.28 4 10 C3.34 10 2.68 10 2 10 C2 7.36 2 4.72 2 2 C1.34 2 0.68 2 0 2 C0 1.34 0 0.68 0 0 Z " fill="#959697" transform="translate(158,151)"/>
<path d="M0 0 C0.33 0 0.66 0 1 0 C1.12117187 0.81984375 1.24234375 1.6396875 1.3671875 2.484375 C1.53476563 3.56203125 1.70234375 4.6396875 1.875 5.75 C2.03742188 6.81734375 2.19984375 7.8846875 2.3671875 8.984375 C2.93223882 11.67708871 3.63422914 13.63572439 5 16 C3.0625 15.625 3.0625 15.625 1 15 C-0.44207941 12.11584117 -0.09394887 9.58278472 -0.0625 6.375 C-0.05347656 5.18648438 -0.04445312 3.99796875 -0.03515625 2.7734375 C-0.02355469 1.85820313 -0.01195312 0.94296875 0 0 Z " fill="#F6AF1F" transform="translate(164,89)"/>
<path d="M0 0 C5.28 0 10.56 0 16 0 C16 0.33 16 0.66 16 1 C12.7 1 9.4 1 6 1 C6.66 2.98 7.32 4.96 8 7 C7.236875 6.21625 6.47375 5.4325 5.6875 4.625 C3.09108195 1.92742283 3.09108195 1.92742283 0 0 Z " fill="#EFE4F9" transform="translate(254,72)"/>
<path d="M0 0 C-3.63 3.3 -7.26 6.6 -11 10 C-11 7 -11 7 -9.0625 5 C-8.381875 4.34 -7.70125 3.68 -7 3 C-6.67 2.01 -6.34 1.02 -6 0 C-3 -1 -3 -1 0 0 Z " fill="#DB6E2A" transform="translate(161,63)"/>
<path d="M0 0 C2.48421811 3.72632716 2.42240263 6.68661935 2 11 C1 14.5 1 14.5 0 17 C-0.66 16.67 -1.32 16.34 -2 16 C-1.505 14.2675 -1.505 14.2675 -1 12.5 C0.08401934 8.22499413 0.15701377 4.39638547 0 0 Z " fill="#FDBB20" transform="translate(195,77)"/>
<path d="M0 0 C0.66 0 1.32 0 2 0 C0.55575365 3.23861303 -1.25772247 5.61969163 -3.625 8.25 C-4.25664062 8.95640625 -4.88828125 9.6628125 -5.5390625 10.390625 C-6.02117187 10.92171875 -6.50328125 11.4528125 -7 12 C-7.33 11.34 -7.66 10.68 -8 10 C-6.85500893 8.52018126 -5.708983 7.04116318 -4.5625 5.5625 C-3.60537109 4.32693359 -3.60537109 4.32693359 -2.62890625 3.06640625 C-1 1 -1 1 0 0 Z " fill="#CA7D4C" transform="translate(153,64)"/>
<path d="M0 0 C1.65 0 3.3 0 5 0 C4.67 3.3 4.34 6.6 4 10 C3.34 10 2.68 10 2 10 C2 7.36 2 4.72 2 2 C1.34 2 0.68 2 0 2 C0 1.34 0 0.68 0 0 Z " fill="#9E9F9F" transform="translate(223,151)"/>
<path d="M0 0 C1.65 0 3.3 0 5 0 C5 1.65 5 3.3 5 5 C3.35 5 1.7 5 0 5 C0 3.35 0 1.7 0 0 Z " fill="#ABD2E9" transform="translate(114,114)"/>
<path d="M0 0 C1.65 0 3.3 0 5 0 C5 1.65 5 3.3 5 5 C3.35 5 1.7 5 0 5 C0 3.35 0 1.7 0 0 Z " fill="#ABD8ED" transform="translate(95,101)"/>
<path d="M0 0 C1.65 0 3.3 0 5 0 C5 1.65 5 3.3 5 5 C3.35 5 1.7 5 0 5 C0 3.35 0 1.7 0 0 Z " fill="#B0D1E8" transform="translate(114,101)"/>
<path d="M0 0 C1.65 0 3.3 0 5 0 C5 1.65 5 3.3 5 5 C3.35 5 1.7 5 0 5 C0 3.35 0 1.7 0 0 Z " fill="#A9DAEA" transform="translate(95,95)"/>
<path d="M0 0 C0 0.66 0 1.32 0 2 C-2.31 2 -4.62 2 -7 2 C-6.67 2.99 -6.34 3.98 -6 5 C-6.99 5 -7.98 5 -9 5 C-9 3.35 -9 1.7 -9 0 C-5.62182575 -0.84454356 -3.32534757 -1.10844919 0 0 Z " fill="#CE600D" transform="translate(179,93)"/>
<path d="M0 0 C1.65 0 3.3 0 5 0 C5 1.65 5 3.3 5 5 C3.35 5 1.7 5 0 5 C0 3.35 0 1.7 0 0 Z " fill="#ADD5EA" transform="translate(114,82)"/>
<path d="M0 0 C1.65 0 3.3 0 5 0 C5 1.65 5 3.3 5 5 C3.35 5 1.7 5 0 5 C0 3.35 0 1.7 0 0 Z " fill="#A2E5F5" transform="translate(82,82)"/>
<path d="M0 0 C1.65 0 3.3 0 5 0 C5 1.65 5 3.3 5 5 C3.35 5 1.7 5 0 5 C0 3.35 0 1.7 0 0 Z " fill="#ADD7EC" transform="translate(114,69)"/>
<path d="M0 0 C2.475 0.495 2.475 0.495 5 1 C5 2.32 5 3.64 5 5 C3.35 5 1.7 5 0 5 C0 3.35 0 1.7 0 0 Z " fill="#9DECF8" transform="translate(76,69)"/>
<path d="M0 0 C1.32 0 2.64 0 4 0 C4 1.65 4 3.3 4 5 C2.35 5 0.7 5 -1 5 C-0.67 3.35 -0.34 1.7 0 0 Z " fill="#9FEAF6" transform="translate(70,69)"/>
<path d="M0 0 C0.66 0.33 1.32 0.66 2 1 C-1.85623679 4.97674419 -1.85623679 4.97674419 -5.11328125 5.04296875 C-7.08863015 4.7798228 -9.04718291 4.39718314 -11 4 C-11 3.67 -11 3.34 -11 3 C-9.01432292 2.51171875 -7.02864583 2.0234375 -5.04296875 1.53515625 C-3.34316798 1.08989295 -1.66698046 0.55566015 0 0 Z " fill="#D6EFF7" transform="translate(111,129)"/>
<path d="M0 0 C0.66 0 1.32 0 2 0 C2.33 1.32 2.66 2.64 3 4 C2.34 4 1.68 4 1 4 C0.34 5.65 -0.32 7.3 -1 9 C-1.66 9 -2.32 9 -3 9 C-2.01 6.03 -1.02 3.06 0 0 Z " fill="#735C84" transform="translate(264,91)"/>
<path d="M0 0 C1.32 0.33 2.64 0.66 4 1 C3.67 2.65 3.34 4.3 3 6 C2.01 6 1.02 6 0 6 C0 4.02 0 2.04 0 0 Z " fill="#EBECEC" transform="translate(251,153)"/>
<path d="M0 0 C3.80635497 3.20760251 7.54563567 6.40746109 11 10 C6.36108575 9.72712269 4.2649533 7.70642674 1.13671875 4.5703125 C0 3 0 3 0 0 Z " fill="#F8D8D7" transform="translate(148,118)"/>
<path d="M0 0 C0.33 0 0.66 0 1 0 C1 1.65 1 3.3 1 5 C2.65 5 4.3 5 6 5 C6 5.33 6 5.66 6 6 C4.35 6 2.7 6 1 6 C1 7.65 1 9.3 1 11 C0.67 11 0.34 11 0 11 C0 9.35 0 7.7 0 6 C-1.65 6 -3.3 6 -5 6 C-4.360625 5.7525 -3.72125 5.505 -3.0625 5.25 C-0.81258459 4.18437567 -0.81258459 4.18437567 -0.25 1.875 C-0.1675 1.25625 -0.085 0.6375 0 0 Z " fill="#184C74" transform="translate(113,76)"/>
<path d="M0 0 C2 1 2 1 2.6328125 2.84765625 C2.79523438 3.57855469 2.95765625 4.30945313 3.125 5.0625 C3.29257812 5.79597656 3.46015625 6.52945313 3.6328125 7.28515625 C3.75398438 7.85105469 3.87515625 8.41695312 4 9 C2.68 9 1.36 9 0 9 C-1.10844919 5.67465243 -0.84454356 3.37817425 0 0 Z " fill="#BCBDBE" transform="translate(262,152)"/>
<path d="M0 0 C0.66 0 1.32 0 2 0 C3.125 3.75 3.125 3.75 2 6 C0.68 6 -0.64 6 -2 6 C-1.34 4.02 -0.68 2.04 0 0 Z " fill="#A9AAAB" transform="translate(169,151)"/>
<path d="M0 0 C2.08379509 3.84700632 3.49686624 7.90054429 5 12 C4.01 12 3.02 12 2 12 C0.40861915 7.82262526 -0.21278058 4.46839215 0 0 Z " fill="#F0E3F3" transform="translate(225,102)"/>
<path d="M0 0 C2.22825644 2.22825644 2.69239369 3.65761628 3.625 6.625 C4.01558594 7.85089844 4.01558594 7.85089844 4.4140625 9.1015625 C4.60742188 9.72804688 4.80078125 10.35453125 5 11 C2 10 2 10 0.8125 7.75 C0.00061706 5.00208853 -0.16260121 2.84552111 0 0 Z " fill="#D2EDF5" transform="translate(56,105)"/>
<path d="M0 0 C0.33 0 0.66 0 1 0 C1 1.65 1 3.3 1 5 C2.65 5 4.3 5 6 5 C6 5.33 6 5.66 6 6 C4.35 6 2.7 6 1 6 C1 7.65 1 9.3 1 11 C0.67 11 0.34 11 0 11 C0 9.35 0 7.7 0 6 C-1.65 6 -3.3 6 -5 6 C-5 5.67 -5 5.34 -5 5 C-3.35 5 -1.7 5 0 5 C0 3.35 0 1.7 0 0 Z " fill="#0F3A62" transform="translate(113,95)"/>
<path d="M0 0 C0.66 0 1.32 0 2 0 C3.2890625 1.6796875 3.2890625 1.6796875 4.625 3.875 C5.29402344 4.95394531 5.29402344 4.95394531 5.9765625 6.0546875 C7 8 7 8 7 10 C6.01 10 5.02 10 4 10 C1.125 3.375 1.125 3.375 0 0 Z " fill="#EBA875" transform="translate(207,67)"/>
<path d="M0 0 C7.50769231 -0.36923077 7.50769231 -0.36923077 10 1.5 C10.495 2.2425 10.495 2.2425 11 3 C10.67 3.66 10.34 4.32 10 5 C5.05 3.02 5.05 3.02 0 1 C0 0.67 0 0.34 0 0 Z " fill="#C45306" transform="translate(180,65)"/>
<path d="M0 0 C1.65 0 3.3 0 5 0 C5 1.32 5 2.64 5 4 C3.35 4 1.7 4 0 4 C0 2.68 0 1.36 0 0 Z " fill="#C3E4F2" transform="translate(114,108)"/>
<path d="M0 0 C1.32 0 2.64 0 4 0 C4 1.65 4 3.3 4 5 C2.68 5 1.36 5 0 5 C0 3.35 0 1.7 0 0 Z " fill="#B9EAF6" transform="translate(70,101)"/>
<path d="M0 0 C0.33 0 0.66 0 1 0 C1.05391993 1.79133978 1.09275571 3.58313899 1.125 5.375 C1.14820313 6.37273437 1.17140625 7.37046875 1.1953125 8.3984375 C1 11 1 11 -1 13 C-1 12.34 -1 11.68 -1 11 C-1.66 10.67 -2.32 10.34 -3 10 C-2.34 10 -1.68 10 -1 10 C-0.67 6.7 -0.34 3.4 0 0 Z " fill="#EFE4F7" transform="translate(224,89)"/>
<path d="M0 0 C1.65 0 3.3 0 5 0 C5 1.32 5 2.64 5 4 C3.35 4 1.7 4 0 4 C0 2.68 0 1.36 0 0 Z " fill="#B3ECF8" transform="translate(95,89)"/>
<path d="M0 0 C1.65 0 3.3 0 5 0 C5 1.32 5 2.64 5 4 C3.35 4 1.7 4 0 4 C0 2.68 0 1.36 0 0 Z " fill="#B0F0FA" transform="translate(82,89)"/>
<path d="M0 0 C1.32 0 2.64 0 4 0 C4 1.65 4 3.3 4 5 C2.68 5 1.36 5 0 5 C0 3.35 0 1.7 0 0 Z " fill="#B0F0FB" transform="translate(89,82)"/>
<path d="M0 0 C1.32 0 2.64 0 4 0 C4 1.65 4 3.3 4 5 C2.68 5 1.36 5 0 5 C0 3.35 0 1.7 0 0 Z " fill="#AEF1FB" transform="translate(70,82)"/>
<path d="M0 0 C1.32 0 2.64 0 4 0 C4 1.65 4 3.3 4 5 C2.68 5 1.36 5 0 5 C0 3.35 0 1.7 0 0 Z " fill="#BCE9F4" transform="translate(108,82)"/>
<path d="M0 0 C1.32 0 2.64 0 4 0 C4 1.65 4 3.3 4 5 C2.68 5 1.36 5 0 5 C0 3.35 0 1.7 0 0 Z " fill="#AEF1FA" transform="translate(76,82)"/>
<path d="M0 0 C-1.32 0.33 -2.64 0.66 -4 1 C-4 2.32 -4 3.64 -4 5 C-4.66 5 -5.32 5 -6 5 C-6 3.68 -6 2.36 -6 1 C-7.32 0.67 -8.64 0.34 -10 0 C-6.42355152 -1.2380014 -3.66305234 -0.74926071 0 0 Z " fill="#2E8BAC" transform="translate(80,81)"/>
<path d="M0 0 C1.65 0 3.3 0 5 0 C5 1.32 5 2.64 5 4 C3.35 4 1.7 4 0 4 C0 2.68 0 1.36 0 0 Z " fill="#AFF3FB" transform="translate(82,76)"/>
<path d="M0 0 C3.3721049 1.44518781 5.69880363 3.12350453 8 6 C8.25 8.75 8.25 8.75 8 11 C5.25498003 7.38813161 2.62987986 3.69604737 0 0 Z " fill="#B73F02" transform="translate(191,69)"/>
<path d="M0 0 C0.33 0.66 0.66 1.32 1 2 C0.22265625 3.9453125 0.22265625 3.9453125 -0.9375 6.125 C-1.31777344 6.84945312 -1.69804687 7.57390625 -2.08984375 8.3203125 C-2.39019531 8.87460938 -2.69054687 9.42890625 -3 10 C-3.33 10 -3.66 10 -4 10 C-4.41176754 6.39703406 -4.1535853 5.21597933 -2 2.1875 C-1.34 1.465625 -0.68 0.74375 0 0 Z " fill="#C0312D" transform="translate(211,111)"/>
<path d="M0 0 C0.33 0 0.66 0 1 0 C1.35233161 5.37305699 1.35233161 5.37305699 1 8 C-1 10 -1 10 -3 11 C-3.66 10.67 -4.32 10.34 -5 10 C-4.360625 9.278125 -3.72125 8.55625 -3.0625 7.8125 C-1.01326465 5.01808816 -0.38667054 3.38336726 0 0 Z " fill="#FEB927" transform="translate(188,82)"/>
<path d="M0 0 C0.33 0.66 0.66 1.32 1 2 C0.22265625 3.9453125 0.22265625 3.9453125 -0.9375 6.125 C-1.31777344 6.84945312 -1.69804688 7.57390625 -2.08984375 8.3203125 C-2.39019531 8.87460938 -2.69054688 9.42890625 -3 10 C-3.66 10 -4.32 10 -5 10 C-3.84414715 6.08788267 -2.64465038 3.1254959 0 0 Z " fill="#0C86BB" transform="translate(64,71)"/>
<path d="M0 0 C1.65 0 3.3 0 5 0 C2.38485683 2.12038635 -0.19637616 4.13091744 -3 6 C-3 4.68 -3 3.36 -3 2 C-2.01 2 -1.02 2 0 2 C0 1.34 0 0.68 0 0 Z " fill="#CCF3F9" transform="translate(71,59)"/>
<path d="M0 0 C3.96 0 7.92 0 12 0 C8.68620328 1.65689836 6.57608127 2.54152804 3 3 C2.01 2.67 1.02 2.34 0 2 C0 1.34 0 0.68 0 0 Z " fill="#BB1B0C" transform="translate(182,124)"/>
<path d="M0 0 C0.99 0.33 1.98 0.66 3 1 C0.16569547 4.2542015 -1.68607774 5.5206753 -6 6 C-4 4 -2 2 0 0 Z " fill="#F8A82D" transform="translate(192,93)"/>
<path d="M0 0 C0.99 0.66 1.98 1.32 3 2 C2.34 3.65 1.68 5.3 1 7 C0.01 7 -0.98 7 -2 7 C-1.34 4.69 -0.68 2.38 0 0 Z " fill="#DAC3E0" transform="translate(288,87)"/>
<path d="M0 0 C0.33 0 0.66 0 1 0 C1 1.65 1 3.3 1 5 C1.66 5.33 2.32 5.66 3 6 C2.67 7.65 2.34 9.3 2 11 C1.7525 10.38125 1.505 9.7625 1.25 9.125 C-0.20628639 6.64931313 -1.37812506 6.04874998 -4 5 C-2.68 5 -1.36 5 0 5 C0 3.35 0 1.7 0 0 Z " fill="#2E6086" transform="translate(112,82)"/>
<path d="M0 0 C0.66 0.66 1.32 1.32 2 2 C1.01 3.485 1.01 3.485 0 5 C-0.39387788 7.32387947 -0.73486085 9.65793749 -1 12 C-1.33 12 -1.66 12 -2 12 C-2.28571429 3.42857143 -2.28571429 3.42857143 0 0 Z " fill="#D65E13" transform="translate(168,84)"/>
<path d="M0 0 C2 2 2 2 2 5 C0.02 5.99 0.02 5.99 -2 7 C-1.125 1.125 -1.125 1.125 0 0 Z " fill="#4C285B" transform="translate(297,74)"/>
</svg>
