<?xml version="1.0" encoding="UTF-8"?>
<svg version="1.1" xmlns="http://www.w3.org/2000/svg" width="256" height="256">
<path d="M0 0 C1.36882576 0.00067978 1.36882576 0.00067978 2.76530457 0.00137329 C3.72164795 -0.00198532 4.67799133 -0.00534393 5.66331482 -0.00880432 C8.85040056 -0.01836085 12.03743386 -0.02026096 15.22453308 -0.02133179 C17.44442771 -0.02454537 19.66432213 -0.02790952 21.88421631 -0.03141785 C26.55763742 -0.03742378 31.23104002 -0.03925667 35.90446472 -0.03866577 C41.84739076 -0.03856503 47.79019493 -0.05211814 53.73309231 -0.06943798 C58.33096848 -0.08065814 62.92881634 -0.0825818 67.52670479 -0.08205605 C69.71399918 -0.08322495 71.90129458 -0.08758438 74.08857536 -0.09538841 C111.62112872 -0.21657011 111.62112872 -0.21657011 119.66593933 5.14663696 C121.10966891 5.68735965 122.57007599 6.18479591 124.04093933 6.64663696 C125.23203308 7.03335571 125.23203308 7.03335571 126.44718933 7.42788696 C127.17937683 7.66507446 127.91156433 7.90226196 128.66593933 8.14663696 C134.54640057 10.19201478 137.24566558 13.78549751 141.06828308 18.52554321 C142.80051166 20.28318346 144.47769136 21.05483596 146.66593933 22.14663696 C147.05523134 23.80112801 147.37471533 25.47209898 147.66593933 27.14663696 C148.58534478 29.07202864 149.58730705 30.93036874 150.63078308 32.79116821 C153.55529083 39.44580284 153.96013329 45.74252622 153.85343933 52.89663696 C153.85247253 54.15153931 153.85247253 54.15153931 153.85148621 55.43179321 C153.82449578 59.19245957 153.69323025 62.50884866 152.66593933 66.14663696 C153.24343933 65.89913696 153.82093933 65.65163696 154.41593933 65.39663696 C156.66593933 65.14663696 156.66593933 65.14663696 158.54093933 66.58413696 C171.65512105 82.39829727 175.10568205 95.74382814 173.66593933 116.14663696 C172.36054247 126.64544522 169.32203058 136.6487821 164.66593933 146.14663696 C164.28695496 146.93167603 163.90797058 147.71671509 163.51750183 148.52554321 C160.78089844 153.80590211 157.31303673 158.27105138 153.52531433 162.84194946 C151.98650466 164.74929758 150.64485567 166.63293684 149.35343933 168.70913696 C147.66593933 171.14663696 147.66593933 171.14663696 144.66593933 172.14663696 C144.06781433 172.78601196 143.46968933 173.42538696 142.85343933 174.08413696 C140.24919201 176.53957015 138.07310561 177.15288013 134.66593933 178.14663696 C133.32503174 178.79793494 131.99001602 179.46176971 130.66593933 180.14663696 C119.85181816 183.75134402 108.02457439 185.69319844 96.66593933 186.14663696 C96.99593933 186.80663696 97.32593933 187.46663696 97.66593933 188.14663696 C96.47355652 188.2072229 95.28117371 188.26780884 94.05265808 188.33023071 C92.48624008 188.41464845 90.91983445 188.49929584 89.35343933 188.58413696 C88.56775574 188.62345337 87.78207214 188.66276978 86.97257996 188.70327759 C85.83659363 188.76611938 85.83659363 188.76611938 84.67765808 188.83023071 C83.9811615 188.86688843 83.28466492 188.90354614 82.56706238 188.9413147 C80.44428213 189.10244849 80.44428213 189.10244849 77.66593933 190.14663696 C75.40944023 196.10518889 74.76448205 202.4614869 73.86125183 208.74038696 C73.52198361 211.01000432 73.18212172 213.279533 72.84172058 215.54898071 C72.31336726 219.10295544 71.78938628 222.65739055 71.27580261 226.21353149 C70.77552833 229.66203801 70.25724688 233.10745843 69.73625183 236.55288696 C69.58818085 237.61036133 69.44010986 238.66783569 69.28755188 239.75735474 C68.36979352 245.72745329 67.23951085 250.21909304 63.66593933 255.14663696 C60.77593341 256.10997227 58.88293978 256.28899619 55.87492371 256.32363892 C54.90381653 256.33647415 53.93270935 256.34930939 52.93217468 256.36253357 C51.88525452 256.3699205 50.83833435 256.37730743 49.75968933 256.38491821 C48.68344299 256.39298996 47.60719666 256.40106171 46.49833679 256.40937805 C44.22202666 256.42320944 41.94569586 256.43393582 39.6693573 256.44180298 C36.17954214 256.45906966 32.69066119 256.50297115 29.20109558 256.54702759 C26.99146714 256.55714981 24.78183064 256.56566738 22.57218933 256.57241821 C21.00180908 256.59868034 21.00180908 256.59868034 19.39970398 256.62547302 C18.4285968 256.62254745 17.45748962 256.61962189 16.45695496 256.61660767 C15.17480103 256.62540703 15.17480103 256.62540703 13.866745 256.63438416 C11.66593933 256.14663696 11.66593933 256.14663696 9.88204956 254.24494934 C8.49042417 251.84379794 8.36901417 250.69515532 8.59172058 247.95913696 C8.64650574 247.17796509 8.70129089 246.39679321 8.75773621 245.59194946 C8.86698425 244.38151978 8.86698425 244.38151978 8.97843933 243.14663696 C9.10015766 241.54251757 9.22127208 239.93835221 9.34172058 238.33413696 C9.40270935 237.62644165 9.46369812 236.91874634 9.52653503 236.18960571 C9.66370225 234.17942133 9.66593933 232.16149579 9.66593933 230.14663696 C8.78057243 230.16662247 8.78057243 230.16662247 7.87731934 230.18701172 C1.72936311 230.31983942 -4.41818515 230.41028311 -10.56721497 230.47622681 C-12.86132871 230.50638478 -15.15532729 230.54731812 -17.4490509 230.59927368 C-20.74824939 230.6721289 -24.04592284 230.70610389 -27.34577942 230.73257446 C-28.88198189 230.77902603 -28.88198189 230.77902603 -30.44921875 230.82641602 C-37.2164379 230.82960855 -37.2164379 230.82960855 -40.12498474 229.05221558 C-42.77511383 226.31407525 -43.33055267 224.21510905 -43.52247429 220.46902561 C-43.41667199 216.09164498 -42.83057688 211.84227732 -42.13267517 207.52503967 C-41.93878136 206.27875332 -41.93878136 206.27875332 -41.74097049 205.00728947 C-41.3092422 202.24216118 -40.86878762 199.47849739 -40.42829895 196.7147522 C-40.11576189 194.72503609 -39.80375366 192.73523686 -39.49223328 190.74536133 C-38.64656957 185.35413416 -37.7932005 179.96415283 -36.93819284 174.57440066 C-36.04369798 168.92885149 -35.15550175 163.28231107 -34.2664032 157.63591003 C-32.77257839 148.15548671 -31.27381675 138.67585393 -29.77204895 129.19668579 C-28.03664935 118.24248492 -26.30871403 107.28712678 -24.58485234 96.3311047 C-22.92520878 85.78416083 -21.26060843 75.23800523 -19.59363937 64.69221687 C-18.88479334 60.20738867 -18.17762271 55.72230105 -17.47179031 51.2369976 C-16.64025845 45.95453471 -15.80436668 40.67277958 -14.96512222 35.39153671 C-14.65805865 33.4548038 -14.35247316 31.51783588 -14.0484848 29.5806179 C-13.63284176 26.93350161 -13.2118074 24.28729683 -12.78941345 21.64125061 C-12.67072879 20.87723495 -12.55204413 20.1132193 -12.42976296 19.32605165 C-9.32189796 0.04818003 -9.32189796 0.04818003 0 0 Z M10.66593933 228.14663696 C10.66593933 230.12663696 10.66593933 232.10663696 10.66593933 234.14663696 C10.99593933 234.14663696 11.32593933 234.14663696 11.66593933 234.14663696 C11.66593933 232.16663696 11.66593933 230.18663696 11.66593933 228.14663696 C11.33593933 228.14663696 11.00593933 228.14663696 10.66593933 228.14663696 Z " fill="#27346A" transform="translate(62.33406066894531,-0.146636962890625)"/>
<path d="M0 0 C3.13805061 1.72592783 3.79328283 3.23464041 5.5 6.375 C6.46956901 7.61175138 7.44977972 8.84019615 8.4375 10.0625 C17.84071975 22.38960648 17.98801102 38.15861322 16.18359375 52.97265625 C14.59859725 62.55957684 11.78237928 71.63947171 7.5 80.375 C7.12101563 81.16003906 6.74203125 81.94507813 6.3515625 82.75390625 C3.61495911 88.03426515 0.1470974 92.49941441 -3.640625 97.0703125 C-5.17943467 98.97766062 -6.52108366 100.86129988 -7.8125 102.9375 C-9.5 105.375 -9.5 105.375 -12.5 106.375 C-13.098125 107.014375 -13.69625 107.65375 -14.3125 108.3125 C-16.91674732 110.76793319 -19.09283372 111.38124317 -22.5 112.375 C-23.84090759 113.02629797 -25.17592331 113.69013275 -26.5 114.375 C-37.31412117 117.97970706 -49.14136494 119.92156147 -60.5 120.375 C-60.17 121.035 -59.84 121.695 -59.5 122.375 C-60.69238281 122.43558594 -61.88476562 122.49617188 -63.11328125 122.55859375 C-64.67969925 122.64301149 -66.24610488 122.72765887 -67.8125 122.8125 C-68.59818359 122.85181641 -69.38386719 122.89113281 -70.19335938 122.93164062 C-70.95068359 122.97353516 -71.70800781 123.01542969 -72.48828125 123.05859375 C-73.18477783 123.09525146 -73.88127441 123.13190918 -74.59887695 123.16967773 C-76.7216572 123.33081153 -76.7216572 123.33081153 -79.5 124.375 C-81.7564991 130.33355192 -82.40145729 136.68984994 -83.3046875 142.96875 C-83.64395572 145.23836736 -83.98381761 147.50789603 -84.32421875 149.77734375 C-84.85257207 153.33131848 -85.37655305 156.88575359 -85.89013672 160.44189453 C-86.390411 163.89040104 -86.90869245 167.33582146 -87.4296875 170.78125 C-87.57775848 171.83872437 -87.72582947 172.89619873 -87.87838745 173.98571777 C-88.79614581 179.95581632 -89.92642848 184.44745607 -93.5 189.375 C-96.39000592 190.33833531 -98.28299955 190.51735923 -101.29101562 190.55200195 C-102.74767639 190.57125481 -102.74767639 190.57125481 -104.23376465 190.59089661 C-105.8041449 190.60197701 -105.8041449 190.60197701 -107.40625 190.61328125 C-109.02061951 190.62538887 -109.02061951 190.62538887 -110.66760254 190.63774109 C-112.94391268 190.65157248 -115.22024347 190.66229886 -117.49658203 190.67016602 C-120.98639719 190.6874327 -124.47527814 190.73133418 -127.96484375 190.77539062 C-130.17447219 190.78551285 -132.38410869 190.79403042 -134.59375 190.80078125 C-136.16413025 190.82704338 -136.16413025 190.82704338 -137.76623535 190.85383606 C-138.73734253 190.85091049 -139.70844971 190.84798492 -140.70898438 190.8449707 C-141.56375366 190.85083694 -142.41852295 190.85670319 -143.29919434 190.86274719 C-145.5 190.375 -145.5 190.375 -147.28875732 188.48458862 C-148.78871724 185.87214899 -148.72844287 184.61471771 -148.359375 181.64453125 C-148.24013672 180.67080566 -148.12089844 179.69708008 -147.99804688 178.69384766 C-147.125865 172.88186709 -146.16985682 167.08980583 -145.1461792 161.302948 C-144.60068928 158.21812726 -144.06551516 155.13153975 -143.5295105 152.0450592 C-143.25439429 150.46158837 -142.97877899 148.87820416 -142.70266724 147.29490662 C-141.39691906 139.80570292 -140.12863328 132.31061827 -138.875 124.8125 C-138.66963623 123.60223145 -138.46427246 122.39196289 -138.25268555 121.14501953 C-137.23740573 115.09898948 -136.30520519 109.05593888 -135.51171875 102.9765625 C-135.35074707 101.7913501 -135.18977539 100.6061377 -135.02392578 99.38500977 C-134.72634707 97.1616717 -134.4484733 94.93556422 -134.19482422 92.70678711 C-133.29329557 86.07104198 -131.68195856 81.78834691 -126.5 77.375 C-123.14123291 75.69561646 -119.34144042 76.17370928 -115.64453125 76.12890625 C-113.80533489 76.09590601 -111.96614229 76.06269563 -110.12695312 76.02929688 C-107.24002317 75.98236086 -104.35310089 75.93806066 -101.46606445 75.89819336 C-79.91578224 75.81529185 -79.91578224 75.81529185 -59.1875 70.5625 C-58.52145752 70.29606689 -57.85541504 70.02963379 -57.16918945 69.75512695 C-55.27033694 68.98384047 -53.38463638 68.18040016 -51.5 67.375 C-50.5615625 66.983125 -49.623125 66.59125 -48.65625 66.1875 C-31.33092812 58.29241661 -19.41148127 42.8372761 -12.6875 25.4375 C-11.95431749 23.41812019 -11.22480686 21.39740115 -10.5 19.375 C-10.15453125 18.57449219 -9.8090625 17.77398437 -9.453125 16.94921875 C-7.82960798 12.56439204 -7.21206612 7.94889568 -6.37890625 3.359375 C-6.08886719 2.37453125 -5.79882812 1.3896875 -5.5 0.375 C-2.5 -0.625 -2.5 -0.625 0 0 Z " fill="#2790C2" transform="translate(219.5,65.625)"/>
<path d="M0 0 C1.1854969 0.01441132 1.1854969 0.01441132 2.39494324 0.02911377 C5.01387277 0.06216155 7.63263847 0.10247179 10.25146484 0.14282227 C12.06464048 0.16711774 13.87782222 0.19096158 15.69100952 0.21437073 C20.46849508 0.27726866 25.24587289 0.34631911 30.02325439 0.41662598 C34.89614953 0.48725791 39.7691212 0.55210562 44.64208984 0.61743164 C54.20727812 0.74651755 63.77236257 0.88209951 73.33740234 1.02172852 C73.33740234 1.68172852 73.33740234 2.34172852 73.33740234 3.02172852 C74.94615234 2.92891602 74.94615234 2.92891602 76.58740234 2.83422852 C82.37984347 2.80297434 87.79846971 4.47082738 93.33740234 6.02172852 C93.33740234 6.68172852 93.33740234 7.34172852 93.33740234 8.02172852 C94.98740234 8.02172852 96.63740234 8.02172852 98.33740234 8.02172852 C99.28030634 11.75966937 99.30931692 14.55511511 98.58740234 18.33422852 C98.42755859 19.21723633 98.26771484 20.10024414 98.10302734 21.01000977 C97.13682531 24.81073307 95.7743317 28.37756162 94.33740234 32.02172852 C93.97219482 32.97631958 93.97219482 32.97631958 93.59960938 33.95019531 C86.28801527 52.81216483 74.13355993 68.38639235 55.33740234 77.02172852 C52.79343274 78.12763815 50.24585907 79.17309481 47.64990234 80.15063477 C46.23884499 80.68216482 44.83851258 81.24518955 43.46240234 81.86157227 C33.70580279 86.08803026 22.40280279 86.16350284 11.93115234 86.26000977 C11.02846115 86.26889221 10.12576996 86.27777466 9.19572449 86.28692627 C5.4589717 86.31654326 1.72271483 86.33642664 -2.01416016 86.32714844 C-4.78300356 86.32452643 -7.55022249 86.35260768 -10.31884766 86.38500977 C-11.15436157 86.37480301 -11.98987549 86.36459625 -12.85070801 86.3540802 C-18.97427812 86.45605404 -21.98430622 88.07471388 -26.66259766 92.02172852 C-26.71659502 90.56379967 -26.75538942 89.1053014 -26.78759766 87.64672852 C-26.81080078 86.83461914 -26.83400391 86.02250977 -26.85791016 85.18579102 C-26.66259766 83.02172852 -26.66259766 83.02172852 -24.66259766 81.02172852 C-24.30608184 78.4396213 -24.30608184 78.4396213 -24.22509766 75.39672852 C-23.87564889 69.84169806 -23.07028005 64.56979977 -21.96411133 59.12011719 C-20.25768542 50.4037305 -19.18018815 41.58769539 -18.02075195 32.78540039 C-17.85873291 31.56788086 -17.69671387 30.35036133 -17.52978516 29.09594727 C-17.38653809 27.99855225 -17.24329102 26.90115723 -17.09570312 25.77050781 C-16.66259766 23.02172852 -16.66259766 23.02172852 -15.66259766 20.02172852 C-15.56176472 18.10590277 -15.48072391 16.18899594 -15.41259766 14.27172852 C-14.97190597 8.31155402 -13.66414518 5.41367092 -9.66259766 1.02172852 C-6.58488276 -0.51712893 -3.37234186 -0.05819417 0 0 Z " fill="#1E264F" transform="translate(114.66259765625,55.978271484375)"/>
<path d="M0 0 C1.1854969 0.01441132 1.1854969 0.01441132 2.39494324 0.02911377 C5.01387277 0.06216155 7.63263847 0.10247179 10.25146484 0.14282227 C12.06464048 0.16711774 13.87782222 0.19096158 15.69100952 0.21437073 C20.46849508 0.27726866 25.24587289 0.34631911 30.02325439 0.41662598 C34.89614953 0.48725791 39.7691212 0.55210562 44.64208984 0.61743164 C54.20727812 0.74651755 63.77236257 0.88209951 73.33740234 1.02172852 C73.33740234 1.35172852 73.33740234 1.68172852 73.33740234 2.02172852 C72.32929001 2.03203598 71.32117767 2.04234344 70.28251648 2.05296326 C60.79147706 2.15063296 51.30050415 2.25336096 41.80957317 2.36106777 C36.9299566 2.41628027 32.05033401 2.46969766 27.1706543 2.51904297 C22.46330818 2.56671111 17.75603534 2.61905491 13.04877663 2.67466927 C11.25102369 2.69508169 9.45325066 2.71379662 7.65546227 2.73080254 C5.14140932 2.7548711 2.62749487 2.78492238 0.11352539 2.81640625 C-0.6330986 2.82216171 -1.3797226 2.82791718 -2.14897156 2.83384705 C-5.24972695 2.87811427 -7.69831771 3.0336352 -10.66259766 4.02172852 C-10.33259766 3.03172852 -10.00259766 2.04172852 -9.66259766 1.02172852 C-6.58488276 -0.51712893 -3.37234186 -0.05819417 0 0 Z " fill="#222B5D" transform="translate(114.66259765625,55.978271484375)"/>
<path d="M0 0 C2.4375 0.375 2.4375 0.375 5 1 C5.495 1.99 5.495 1.99 6 3 C1.00796339 4.28340557 -3.99284627 4.22504217 -9.11328125 4.31640625 C-10.56760811 4.3475779 -10.56760811 4.3475779 -12.05131531 4.37937927 C-15.13830707 4.44458941 -18.22538152 4.5036268 -21.3125 4.5625 C-23.40951364 4.60571237 -25.50651903 4.64932752 -27.60351562 4.69335938 C-32.73559307 4.80024151 -37.86775341 4.90158896 -43 5 C-43 4.34 -43 3.68 -43 3 C-28.81 3 -14.62 3 0 3 C0 2.01 0 1.02 0 0 Z " fill="#0F2A53" transform="translate(136,138)"/>
<path d="M0 0 C1.125 3.75 1.125 3.75 0 6 C-0.99 6.33 -1.98 6.66 -3 7 C-3.33 7.66 -3.66 8.32 -4 9 C-4.66 9 -5.32 9 -6 9 C-6.12375 9.61875 -6.2475 10.2375 -6.375 10.875 C-7 13 -7 13 -9 15 C-11.625 15.125 -11.625 15.125 -14 15 C-13.360625 14.38125 -12.72125 13.7625 -12.0625 13.125 C-7.85331938 8.92798464 -3.95343601 4.43577243 0 0 Z " fill="#3183AF" transform="translate(196,111)"/>
<path d="M0 0 C0.33 0 0.66 0 1 0 C1 7.59 1 15.18 1 23 C0.67 23 0.34 23 0 23 C0 15.41 0 7.82 0 0 Z " fill="#2E80B5" transform="translate(237,94)"/>
<path d="M0 0 C0.33 0 0.66 0 1 0 C1 6.6 1 13.2 1 20 C0.67 20 0.34 20 0 20 C0 13.4 0 6.8 0 0 Z " fill="#203059" transform="translate(217,43)"/>
<path d="M0 0 C3.3 0 6.6 0 10 0 C10 0.33 10 0.66 10 1 C6.7 1 3.4 1 0 1 C0 0.67 0 0.34 0 0 Z " fill="#2495BC" transform="translate(161,186)"/>
<path d="M0 0 C2.97 0.33 5.94 0.66 9 1 C5.16380575 1.95904856 3.67568464 1.91892116 0 1 C0 0.67 0 0.34 0 0 Z " fill="#1C1D4B" transform="translate(166,0)"/>
<path d="M0 0 C0.33 0 0.66 0 1 0 C1 2.97 1 5.94 1 9 C0.67 9 0.34 9 0 9 C0 6.03 0 3.06 0 0 Z " fill="#1B2756" transform="translate(17,215)"/>
<path d="M0 0 C0.33 0 0.66 0 1 0 C1 2.31 1 4.62 1 7 C0.67 7 0.34 7 0 7 C0 4.69 0 2.38 0 0 Z " fill="#418AA5" transform="translate(70,240)"/>
<path d="M0 0 C0.33 0 0.66 0 1 0 C1 2.31 1 4.62 1 7 C0.67 7 0.34 7 0 7 C0 4.69 0 2.38 0 0 Z " fill="#266C9C" transform="translate(133,229)"/>
<path d="M0 0 C0.33 0 0.66 0 1 0 C1 2.31 1 4.62 1 7 C0.67 7 0.34 7 0 7 C0 4.69 0 2.38 0 0 Z " fill="#2178AE" transform="translate(136,210)"/>
<path d="M0 0 C0.33 0 0.66 0 1 0 C1 2.31 1 4.62 1 7 C0.67 7 0.34 7 0 7 C0 4.69 0 2.38 0 0 Z " fill="#16203B" transform="translate(20,196)"/>
<path d="M0 0 C0.33 0 0.66 0 1 0 C1 2.31 1 4.62 1 7 C0.67 7 0.34 7 0 7 C0 4.69 0 2.38 0 0 Z " fill="#1C2147" transform="translate(23,177)"/>
<path d="M0 0 C0.33 0 0.66 0 1 0 C1 2.31 1 4.62 1 7 C0.67 7 0.34 7 0 7 C0 4.69 0 2.38 0 0 Z " fill="#191F37" transform="translate(26,158)"/>
<path d="M0 0 C0.33 0 0.66 0 1 0 C1 2.31 1 4.62 1 7 C0.67 7 0.34 7 0 7 C0 4.69 0 2.38 0 0 Z " fill="#0F2044" transform="translate(29,139)"/>
<path d="M0 0 C0.33 0 0.66 0 1 0 C1 2.31 1 4.62 1 7 C0.67 7 0.34 7 0 7 C0 4.69 0 2.38 0 0 Z " fill="#10223A" transform="translate(32,120)"/>
<path d="M0 0 C0.33 0 0.66 0 1 0 C1 1.98 1 3.96 1 6 C0.67 6 0.34 6 0 6 C0 4.02 0 2.04 0 0 Z " fill="#3B779C" transform="translate(131,242)"/>
<path d="M0 0 C0.33 0 0.66 0 1 0 C1 1.98 1 3.96 1 6 C0.67 6 0.34 6 0 6 C0 4.02 0 2.04 0 0 Z " fill="#2185AE" transform="translate(132,236)"/>
<path d="M0 0 C0.33 0 0.66 0 1 0 C1 1.98 1 3.96 1 6 C0.67 6 0.34 6 0 6 C0 4.02 0 2.04 0 0 Z " fill="#207AA7" transform="translate(71,234)"/>
<path d="M0 0 C0.33 0 0.66 0 1 0 C1 1.98 1 3.96 1 6 C0.67 6 0.34 6 0 6 C0 4.02 0 2.04 0 0 Z " fill="#257CC2" transform="translate(134,223)"/>
<path d="M0 0 C0.33 0 0.66 0 1 0 C1 1.98 1 3.96 1 6 C0.67 6 0.34 6 0 6 C0 4.02 0 2.04 0 0 Z " fill="#2C86AC" transform="translate(135,217)"/>
<path d="M0 0 C0.33 0 0.66 0 1 0 C1 1.98 1 3.96 1 6 C0.67 6 0.34 6 0 6 C0 4.02 0 2.04 0 0 Z " fill="#132645" transform="translate(18,209)"/>
<path d="M0 0 C0.33 0 0.66 0 1 0 C1 1.98 1 3.96 1 6 C0.67 6 0.34 6 0 6 C0 4.02 0 2.04 0 0 Z " fill="#3079B5" transform="translate(137,204)"/>
<path d="M0 0 C0.33 0 0.66 0 1 0 C1 1.98 1 3.96 1 6 C0.67 6 0.34 6 0 6 C0 4.02 0 2.04 0 0 Z " fill="#191660" transform="translate(19,203)"/>
<path d="M0 0 C0.33 0 0.66 0 1 0 C1 1.98 1 3.96 1 6 C0.67 6 0.34 6 0 6 C0 4.02 0 2.04 0 0 Z " fill="#217FAC" transform="translate(138,198)"/>
<path d="M0 0 C0.33 0 0.66 0 1 0 C1 1.98 1 3.96 1 6 C0.67 6 0.34 6 0 6 C0 4.02 0 2.04 0 0 Z " fill="#16274B" transform="translate(21,190)"/>
<path d="M0 0 C0.33 0 0.66 0 1 0 C1 1.98 1 3.96 1 6 C0.67 6 0.34 6 0 6 C0 4.02 0 2.04 0 0 Z " fill="#1A5682" transform="translate(139,192)"/>
<path d="M0 0 C0.33 0 0.66 0 1 0 C1 1.98 1 3.96 1 6 C0.67 6 0.34 6 0 6 C0 4.02 0 2.04 0 0 Z " fill="#161B4F" transform="translate(22,184)"/>
<path d="M0 0 C1.98 0 3.96 0 6 0 C6 0.33 6 0.66 6 1 C4.02 1 2.04 1 0 1 C0 0.67 0 0.34 0 0 Z " fill="#268EA4" transform="translate(171,185)"/>
<path d="M0 0 C0.33 0 0.66 0 1 0 C1 1.98 1 3.96 1 6 C0.67 6 0.34 6 0 6 C0 4.02 0 2.04 0 0 Z " fill="#17254C" transform="translate(24,171)"/>
<path d="M0 0 C0.33 0 0.66 0 1 0 C1 1.98 1 3.96 1 6 C0.67 6 0.34 6 0 6 C0 4.02 0 2.04 0 0 Z " fill="#182D62" transform="translate(25,165)"/>
<path d="M0 0 C0.33 0 0.66 0 1 0 C1 1.98 1 3.96 1 6 C0.67 6 0.34 6 0 6 C0 4.02 0 2.04 0 0 Z " fill="#1B2545" transform="translate(27,152)"/>
<path d="M0 0 C0.33 0 0.66 0 1 0 C1 1.98 1 3.96 1 6 C0.67 6 0.34 6 0 6 C0 4.02 0 2.04 0 0 Z " fill="#1A3062" transform="translate(28,146)"/>
<path d="M0 0 C0.33 0 0.66 0 1 0 C1 1.98 1 3.96 1 6 C0.67 6 0.34 6 0 6 C0 4.02 0 2.04 0 0 Z " fill="#1F2C53" transform="translate(30,133)"/>
<path d="M0 0 C0.33 0 0.66 0 1 0 C1 1.98 1 3.96 1 6 C0.67 6 0.34 6 0 6 C0 4.02 0 2.04 0 0 Z " fill="#192B61" transform="translate(31,127)"/>
<path d="M0 0 C0.33 0 0.66 0 1 0 C1 1.98 1 3.96 1 6 C0.67 6 0.34 6 0 6 C0 4.02 0 2.04 0 0 Z " fill="#191D45" transform="translate(33,114)"/>
<path d="M0 0 C0.33 0 0.66 0 1 0 C1 1.98 1 3.96 1 6 C0.67 6 0.34 6 0 6 C0 4.02 0 2.04 0 0 Z " fill="#202A5D" transform="translate(34,108)"/>
<path d="M0 0 C0.33 0 0.66 0 1 0 C1 1.98 1 3.96 1 6 C0.67 6 0.34 6 0 6 C0 4.02 0 2.04 0 0 Z " fill="#1E2553" transform="translate(35,101)"/>
<path d="M0 0 C0.33 0 0.66 0 1 0 C1 1.98 1 3.96 1 6 C0.67 6 0.34 6 0 6 C0 4.02 0 2.04 0 0 Z " fill="#181A57" transform="translate(36,95)"/>
<path d="M0 0 C0.33 0 0.66 0 1 0 C1 1.98 1 3.96 1 6 C0.67 6 0.34 6 0 6 C0 4.02 0 2.04 0 0 Z " fill="#1E1F53" transform="translate(37,89)"/>
<path d="M0 0 C0.33 0 0.66 0 1 0 C1 1.98 1 3.96 1 6 C0.67 6 0.34 6 0 6 C0 4.02 0 2.04 0 0 Z " fill="#1B2743" transform="translate(38,82)"/>
<path d="M0 0 C0.33 0 0.66 0 1 0 C1 1.98 1 3.96 1 6 C0.67 6 0.34 6 0 6 C0 4.02 0 2.04 0 0 Z " fill="#181B49" transform="translate(39,76)"/>
<path d="M0 0 C0.33 0 0.66 0 1 0 C1 1.98 1 3.96 1 6 C0.67 6 0.34 6 0 6 C0 4.02 0 2.04 0 0 Z " fill="#222956" transform="translate(40,70)"/>
<path d="M0 0 C0.33 0 0.66 0 1 0 C1 1.98 1 3.96 1 6 C0.67 6 0.34 6 0 6 C0 4.02 0 2.04 0 0 Z " fill="#0E264B" transform="translate(41,63)"/>
<path d="M0 0 C0.33 0 0.66 0 1 0 C1 1.98 1 3.96 1 6 C0.67 6 0.34 6 0 6 C0 4.02 0 2.04 0 0 Z " fill="#1F1B62" transform="translate(42,57)"/>
<path d="M0 0 C0.33 0 0.66 0 1 0 C1 1.98 1 3.96 1 6 C0.67 6 0.34 6 0 6 C0 4.02 0 2.04 0 0 Z " fill="#1A2458" transform="translate(43,51)"/>
<path d="M0 0 C0.33 0 0.66 0 1 0 C1 1.98 1 3.96 1 6 C0.67 6 0.34 6 0 6 C0 4.02 0 2.04 0 0 Z " fill="#12233C" transform="translate(44,44)"/>
<path d="M0 0 C0.33 0 0.66 0 1 0 C1 1.98 1 3.96 1 6 C0.67 6 0.34 6 0 6 C0 4.02 0 2.04 0 0 Z " fill="#1F2160" transform="translate(45,38)"/>
<path d="M0 0 C0.33 0 0.66 0 1 0 C1 1.98 1 3.96 1 6 C0.67 6 0.34 6 0 6 C0 4.02 0 2.04 0 0 Z " fill="#212A54" transform="translate(46,32)"/>
<path d="M0 0 C0.33 0 0.66 0 1 0 C1 1.98 1 3.96 1 6 C0.67 6 0.34 6 0 6 C0 4.02 0 2.04 0 0 Z " fill="#0E274E" transform="translate(47,25)"/>
<path d="M0 0 C0.33 0 0.66 0 1 0 C1 1.98 1 3.96 1 6 C0.67 6 0.34 6 0 6 C0 4.02 0 2.04 0 0 Z " fill="#1E1F5B" transform="translate(48,19)"/>
<path d="M0 0 C0.33 0 0.66 0 1 0 C1 1.98 1 3.96 1 6 C0.67 6 0.34 6 0 6 C0 4.02 0 2.04 0 0 Z " fill="#172341" transform="translate(49,13)"/>
<path d="M0 0 C0.33 0 0.66 0 1 0 C1 1.65 1 3.3 1 5 C0.67 5 0.34 5 0 5 C0 3.35 0 1.7 0 0 Z " fill="#1169BF" transform="translate(69,247)"/>
<path d="M0 0 C0.33 0 0.66 0 1 0 C1 1.65 1 3.3 1 5 C0.67 5 0.34 5 0 5 C0 3.35 0 1.7 0 0 Z " fill="#1A6195" transform="translate(235,122)"/>
<path d="M0 0 C0.33 0 0.66 0 1 0 C1 1.65 1 3.3 1 5 C0.67 5 0.34 5 0 5 C0 3.35 0 1.7 0 0 Z " fill="#146BA2" transform="translate(236,117)"/>
<path d="M0 0 C0.33 0 0.66 0 1 0 C1 1.65 1 3.3 1 5 C0.67 5 0.34 5 0 5 C0 3.35 0 1.7 0 0 Z " fill="#2E90AE" transform="translate(236,89)"/>
<path d="M0 0 C0.33 0 0.66 0 1 0 C1 1.65 1 3.3 1 5 C0.67 5 0.34 5 0 5 C0 3.35 0 1.7 0 0 Z " fill="#1E1A3C" transform="translate(216,38)"/>
<path d="M0 0 C4 1 4 1 4 1 Z " fill="#1558B9" transform="translate(177,184)"/>
<path d="M0 0 C4 1 4 1 4 1 Z " fill="#226392" transform="translate(181,183)"/>
<path d="M0 0 C1 4 1 4 1 4 Z " fill="#196596" transform="translate(234,127)"/>
<path d="M0 0 C1 4 1 4 1 4 Z " fill="#193D4A" transform="translate(50,8)"/>
<path d="M0 0 C3 1 3 1 3 1 Z " fill="#1A769E" transform="translate(185,182)"/>
<path d="" fill="#0C538A" transform="translate(0,0)"/>
<path d="" fill="#13B3E2" transform="translate(0,0)"/>
<path d="" fill="#3CB5D3" transform="translate(0,0)"/>
<path d="" fill="#27598F" transform="translate(0,0)"/>
<path d="" fill="#0F363D" transform="translate(0,0)"/>
<path d="" fill="#0B1F33" transform="translate(0,0)"/>
<path d="M0 0 C3 1 3 1 3 1 Z " fill="#0E4341" transform="translate(182,4)"/>
<path d="M0 0 C3 1 3 1 3 1 Z " fill="#1C3C5D" transform="translate(179,3)"/>
<path d="" fill="#32B2B7" transform="translate(0,0)"/>
<path d="" fill="#139A9D" transform="translate(0,0)"/>
<path d="" fill="#2EC6DF" transform="translate(0,0)"/>
<path d="M0 0 C2 1 2 1 2 1 Z " fill="#2894A1" transform="translate(188,181)"/>
<path d="M0 0 C2 1 2 1 2 1 Z " fill="#21B6DC" transform="translate(193,179)"/>
<path d="M0 0 C2 1 2 1 2 1 Z " fill="#0DC0E8" transform="translate(195,178)"/>
<path d="" fill="#2CAEE5" transform="translate(0,0)"/>
<path d="" fill="#2EACB7" transform="translate(0,0)"/>
<path d="" fill="#33ACE4" transform="translate(0,0)"/>
<path d="" fill="#24B1E4" transform="translate(0,0)"/>
<path d="" fill="#2FC0DA" transform="translate(0,0)"/>
<path d="" fill="#1578CB" transform="translate(0,0)"/>
<path d="" fill="#3491C1" transform="translate(0,0)"/>
<path d="" fill="#2074A7" transform="translate(0,0)"/>
<path d="" fill="#1A75C7" transform="translate(0,0)"/>
<path d="" fill="#127ABF" transform="translate(0,0)"/>
<path d="" fill="#146C91" transform="translate(0,0)"/>
<path d="" fill="#2EE9F6" transform="translate(0,0)"/>
<path d="" fill="#103277" transform="translate(0,0)"/>
<path d="" fill="#0B266D" transform="translate(0,0)"/>
<path d="" fill="#000544" transform="translate(0,0)"/>
<path d="" fill="#00013A" transform="translate(0,0)"/>
<path d="M0 0 C2 1 2 1 2 1 Z " fill="#1D7180" transform="translate(189,7)"/>
<path d="" fill="#1C3673" transform="translate(0,0)"/>
<path d="M0 0 C2 1 2 1 2 1 Z " fill="#1A5070" transform="translate(187,6)"/>
<path d="M0 0 C2 1 2 1 2 1 Z " fill="#0D235E" transform="translate(185,5)"/>
<path d="" fill="#060B57" transform="translate(0,0)"/>
<path d="" fill="#57C8EB" transform="translate(0,0)"/>
<path d="" fill="#0B9EBC" transform="translate(0,0)"/>
<path d="" fill="#02858B" transform="translate(0,0)"/>
<path d="" fill="#0881B6" transform="translate(0,0)"/>
<path d="" fill="#1189F2" transform="translate(0,0)"/>
<path d="" fill="#2186D4" transform="translate(0,0)"/>
<path d="" fill="#040B42" transform="translate(0,0)"/>
<path d="" fill="#406098" transform="translate(0,0)"/>
<path d="" fill="#00164C" transform="translate(0,0)"/>
<path d="" fill="#001946" transform="translate(0,0)"/>
<path d="" fill="#1C3C65" transform="translate(0,0)"/>
<path d="" fill="#4AA9CB" transform="translate(0,0)"/>
<path d="" fill="#1479CB" transform="translate(0,0)"/>
<path d="" fill="#107BCD" transform="translate(0,0)"/>
<path d="" fill="#0E7CCD" transform="translate(0,0)"/>
<path d="" fill="#117DC8" transform="translate(0,0)"/>
<path d="" fill="#1A7FA6" transform="translate(0,0)"/>
<path d="" fill="#0D7799" transform="translate(0,0)"/>
<path d="" fill="#1796D2" transform="translate(0,0)"/>
<path d="" fill="#0CAEE4" transform="translate(0,0)"/>
<path d="" fill="#219ABF" transform="translate(0,0)"/>
<path d="" fill="#1082A9" transform="translate(0,0)"/>
<path d="" fill="#11A4AE" transform="translate(0,0)"/>
<path d="" fill="#1E9EB5" transform="translate(0,0)"/>
<path d="" fill="#0AA2B5" transform="translate(0,0)"/>
<path d="" fill="#0898B2" transform="translate(0,0)"/>
<path d="" fill="#1898AF" transform="translate(0,0)"/>
<path d="" fill="#2295B7" transform="translate(0,0)"/>
<path d="" fill="#00598A" transform="translate(0,0)"/>
<path d="" fill="#3892C1" transform="translate(0,0)"/>
<path d="" fill="#00536E" transform="translate(0,0)"/>
<path d="" fill="#144549" transform="translate(0,0)"/>
<path d="" fill="#353965" transform="translate(0,0)"/>
<path d="" fill="#17375E" transform="translate(0,0)"/>
<path d="" fill="#001631" transform="translate(0,0)"/>
<path d="" fill="#19324E" transform="translate(0,0)"/>
<path d="" fill="#114254" transform="translate(0,0)"/>
<path d="" fill="#124A5E" transform="translate(0,0)"/>
<path d="" fill="#103E5A" transform="translate(0,0)"/>
<path d="" fill="#163E5E" transform="translate(0,0)"/>
<path d="" fill="#395C90" transform="translate(0,0)"/>
<path d="" fill="#000572" transform="translate(0,0)"/>
</svg>
