<?xml version="1.0" encoding="UTF-8"?>
<svg version="1.1" xmlns="http://www.w3.org/2000/svg" width="100" height="100">
<path d="M0 0 C33 0 66 0 100 0 C100 33 100 66 100 100 C67 100 34 100 0 100 C0 67 0 34 0 0 Z " fill="#FEFEFE" transform="translate(0,0)"/>
<path d="M0 0 C1.10690689 -0.00570007 2.21381378 -0.01140015 3.35426331 -0.01727295 C5.6900233 -0.02669735 8.02579645 -0.03324673 10.36157227 -0.03710938 C13.92552885 -0.04683169 17.48891253 -0.07788682 21.05273438 -0.109375 C23.32681951 -0.11590417 25.60090874 -0.12115498 27.875 -0.125 C29.46591713 -0.1435202 29.46591713 -0.1435202 31.088974 -0.16241455 C37.00315221 -0.14468615 41.31396922 0.2730178 46.50390625 3.203125 C51.73230865 10.00004811 50.68727138 17.89934389 50.69140625 26.078125 C50.70365234 27.34527344 50.71589844 28.61242187 50.72851562 29.91796875 C50.73044922 31.14386719 50.73238281 32.36976562 50.734375 33.6328125 C50.73848389 34.74897949 50.74259277 35.86514648 50.74682617 37.01513672 C50.38248092 41.79666472 49.26947389 45.18987372 46.37890625 49.015625 C40.46698032 53.51382951 31.60405797 52.36303229 24.43359375 52.37109375 C23.39373322 52.37442215 22.35387268 52.37775055 21.28250122 52.38117981 C19.09572794 52.38621893 16.90894705 52.38858907 14.72216797 52.38842773 C11.38235895 52.39062273 8.04287608 52.40883383 4.703125 52.42773438 C2.57161571 52.43066725 0.44010485 52.43265275 -1.69140625 52.43359375 C-2.68528351 52.44077927 -3.67916077 52.44796478 -4.70315552 52.45536804 C-16.28196228 52.41725647 -16.28196228 52.41725647 -20.80859375 47.890625 C-24.77712511 41.57037136 -23.71643101 33.66116963 -23.74609375 26.453125 C-23.76671875 25.215625 -23.78734375 23.978125 -23.80859375 22.703125 C-23.86621152 9.16294905 -23.86621152 9.16294905 -20.49609375 3.203125 C-14.43591818 -0.83699204 -7.04869901 0.02819039 0 0 Z " fill="#F90303" transform="translate(36.49609375,23.796875)"/>
<path d="M0 0 C1.98 0.66 3.96 1.32 6 2 C6 2.66 6 3.32 6 4 C7.2684375 4.37125 7.2684375 4.37125 8.5625 4.75 C12.38427474 6.13973627 15.51868063 7.91120838 19 10 C17.99540849 12.73979504 17.40512998 13.79743501 14.75 15.125 C12.759088 15.758472 10.7574126 16.35843867 8.75 16.9375 C7.8425 17.288125 6.935 17.63875 6 18 C5.67 18.99 5.34 19.98 5 21 C3.35 21.33 1.7 21.66 0 22 C0 14.74 0 7.48 0 0 Z " fill="#FDEBEA" transform="translate(42,39)"/>
<path d="M0 0 C0.495 0.99 0.495 0.99 1 2 C1.66 2 2.32 2 3 2 C3.22786458 4.05078125 3.45572917 6.1015625 3.68359375 8.15234375 C3.81886614 10.01140229 3.81886614 10.01140229 5 11 C5.24403475 15.28946541 5.22860225 19.58496809 5.24023438 23.88061523 C5.24985248 26.02954119 5.28081779 28.1774743 5.3125 30.32617188 C5.43078957 45.33120383 5.43078957 45.33120383 0.76754761 51.67718506 C-1.80592886 53.60314909 -3.76313927 53.36721491 -6.95263672 53.35644531 C-8.17755829 53.35944641 -9.40247986 53.36244751 -10.66452026 53.36553955 C-12.00291357 53.35353034 -13.3413027 53.34104718 -14.6796875 53.328125 C-16.05347487 53.32506602 -17.42726534 53.32319096 -18.80105591 53.32244873 C-21.68113063 53.31784597 -24.56092571 53.30342518 -27.44091797 53.28125 C-31.12511658 53.25302093 -34.80909456 53.24204346 -38.49339104 53.2375679 C-41.33133127 53.23340099 -44.16922733 53.2235721 -47.00714493 53.21169281 C-48.36505915 53.20601071 -49.72297754 53.20124529 -51.08089828 53.19742584 C-52.98348284 53.19051572 -54.88603503 53.17597877 -56.78857422 53.16113281 C-57.86984589 53.15430481 -58.95111755 53.14747681 -60.06515503 53.14044189 C-62.81558639 53.00882479 -65.32205381 52.62127701 -68 52 C-68.33 50.35 -68.66 48.7 -69 47 C-68.443125 47.474375 -67.88625 47.94875 -67.3125 48.4375 C-63.53232779 50.99167041 -59.62523518 51.12504212 -55.15307617 51.12939453 C-54.21827927 51.13254669 -53.28348236 51.13569885 -52.32035828 51.13894653 C-51.32131973 51.1369223 -50.32228119 51.13489807 -49.29296875 51.1328125 C-48.25360672 51.13376923 -47.21424469 51.13472595 -46.14338684 51.13571167 C-43.94707173 51.13639126 -41.75075459 51.1345524 -39.55444336 51.13037109 C-36.21007718 51.12503602 -32.8658463 51.13031523 -29.52148438 51.13671875 C-27.38281221 51.13605761 -25.24414012 51.13477571 -23.10546875 51.1328125 C-22.1125029 51.13483673 -21.11953705 51.13686096 -20.09648132 51.13894653 C-9.99143079 51.4876661 -9.99143079 51.4876661 -1.0625 47.75 C3.49417806 41.67442926 2.22017879 33.46014794 2.25 26.1875 C2.270625 24.94162109 2.29125 23.69574219 2.3125 22.41210938 C2.34599446 14.5199773 1.52910455 9.0582091 -2 2 C-1.34 2 -0.68 2 0 2 C0 1.34 0 0.68 0 0 Z " fill="#FEC7C6" transform="translate(84,24)"/>
<path d="M0 0 C0.33 0 0.66 0 1 0 C1.05823729 4.5416125 1.09367675 9.0831284 1.125 13.625 C1.14175781 14.91019531 1.15851563 16.19539063 1.17578125 17.51953125 C1.18222656 18.76347656 1.18867187 20.00742187 1.1953125 21.2890625 C1.20578613 22.43068848 1.21625977 23.57231445 1.22705078 24.74853516 C0.89048042 29.56836751 -0.21306021 32.95846204 -3.125 36.8125 C-9.03692593 41.31070451 -17.89984828 40.15990729 -25.0703125 40.16796875 C-26.11017303 40.17129715 -27.15003357 40.17462555 -28.22140503 40.17805481 C-30.40817831 40.18309393 -32.5949592 40.18546407 -34.78173828 40.18530273 C-38.1215473 40.18749773 -41.46103017 40.20570883 -44.80078125 40.22460938 C-46.93229054 40.22754225 -49.0638014 40.22952775 -51.1953125 40.23046875 C-52.18918976 40.23765427 -53.18306702 40.24483978 -54.20706177 40.25224304 C-65.23004881 40.21596095 -65.23004881 40.21596095 -69.875 36.5 C-71 35 -71 35 -71 33 C-70.34 33 -69.68 33 -69 33 C-69 33.66 -69 34.32 -69 35 C-67.35 35 -65.7 35 -64 35 C-64 35.66 -64 36.32 -64 37 C-57.00743729 37.05083907 -50.01492252 37.08579201 -43.0222168 37.10986328 C-40.64492003 37.11990158 -38.26763555 37.13353504 -35.89038086 37.15087891 C-32.46725424 37.17522241 -29.04429134 37.18650505 -25.62109375 37.1953125 C-24.56353378 37.20563507 -23.50597382 37.21595764 -22.41636658 37.22659302 C-16.90030643 37.22742586 -12.1662079 37.02173197 -7 35 C-5.50256112 33.01432266 -5.50256112 33.01432266 -5 31 C-4.01 31.66 -3.02 32.32 -2 33 C-0.98057785 26.0096767 -0.68400077 19.05557945 -0.4375 12 C-0.37272461 10.26556641 -0.37272461 10.26556641 -0.30664062 8.49609375 C-0.20132083 5.66416146 -0.09918913 2.83215253 0 0 Z " fill="#DB2526" transform="translate(86,36)"/>
<path d="M0 0 C0.69778564 0.00088623 1.39557129 0.00177246 2.11450195 0.00268555 C12.51982907 0.01819274 22.8764247 0.25012016 33.25 1.125 C33.25 2.115 33.25 3.105 33.25 4.125 C32.49565674 3.96346436 31.74131348 3.80192871 30.96411133 3.63549805 C25.90764386 2.94049552 20.92259791 2.96240213 15.82421875 2.95703125 C14.72205521 2.95370285 13.61989166 2.95037445 12.48432922 2.94694519 C10.15695613 2.94189269 7.82957583 2.93953635 5.50219727 2.93969727 C1.9603264 2.93751407 -1.58123118 2.91934925 -5.12304688 2.90039062 C-7.39062394 2.89745562 -9.65820248 2.89547154 -11.92578125 2.89453125 C-12.9760701 2.88734573 -14.02635895 2.88016022 -15.10847473 2.87275696 C-21.30013821 2.89178715 -26.75606856 3.55424367 -32.75 5.125 C-35.18162255 13.61653231 -34.97729244 21.94535627 -34.875 30.6875 C-34.86494923 32.18814506 -34.85582709 33.68879665 -34.84765625 35.18945312 C-34.82581091 38.83477281 -34.7913969 42.47984376 -34.75 46.125 C-37.27561648 42.33657527 -37.00391573 39.33966671 -36.9453125 34.95703125 C-36.9424826 34.16221848 -36.93965271 33.3674057 -36.93673706 32.54850769 C-36.92554705 30.01135162 -36.90044491 27.47454928 -36.875 24.9375 C-36.86496866 23.21680198 -36.85584308 21.49609841 -36.84765625 19.77539062 C-36.82561161 15.55845757 -36.79109006 11.34178875 -36.75 7.125 C-35.76 7.125 -34.77 7.125 -33.75 7.125 C-33.42 5.475 -33.09 3.825 -32.75 2.125 C-22.33733339 -0.83011354 -10.71963911 -0.03938708 0 0 Z " fill="#FEEBF0" transform="translate(48.75,21.875)"/>
<path d="M0 0 C0.33 0 0.66 0 1 0 C1.05823729 4.5416125 1.09367675 9.0831284 1.125 13.625 C1.14175781 14.91019531 1.15851563 16.19539063 1.17578125 17.51953125 C1.18222656 18.76347656 1.18867187 20.00742187 1.1953125 21.2890625 C1.20578613 22.43068848 1.21625977 23.57231445 1.22705078 24.74853516 C0.88452829 29.65360454 -0.21914902 33.00224597 -3.25 36.875 C-6 39 -6 39 -9.1875 39.4375 C-12 39 -12 39 -14 37 C-12.88625 36.7525 -11.7725 36.505 -10.625 36.25 C-6.95384802 35.38994661 -6.95384802 35.38994661 -5.5625 32.875 C-5.376875 32.25625 -5.19125 31.6375 -5 31 C-4.01 31.66 -3.02 32.32 -2 33 C-0.98057785 26.0096767 -0.68400077 19.05557945 -0.4375 12 C-0.39431641 10.84371094 -0.35113281 9.68742187 -0.30664062 8.49609375 C-0.20132083 5.66416146 -0.09918913 2.83215253 0 0 Z " fill="#D31C1E" transform="translate(86,36)"/>
<path d="M0 0 C2.97 0 5.94 0 9 0 C9 0.33 9 0.66 9 1 C6.03 1.66 3.06 2.32 0 3 C-2.43162255 11.49153231 -2.22729244 19.82035627 -2.125 28.5625 C-2.11494923 30.06314506 -2.10582709 31.56379665 -2.09765625 33.06445312 C-2.07581091 36.70977281 -2.0413969 40.35484376 -2 44 C-4.52561648 40.21157527 -4.25391573 37.21466671 -4.1953125 32.83203125 C-4.1924826 32.03721848 -4.18965271 31.2424057 -4.18673706 30.42350769 C-4.17554705 27.88635162 -4.15044491 25.34954928 -4.125 22.8125 C-4.11496866 21.09180198 -4.10584308 19.37109841 -4.09765625 17.65039062 C-4.07561161 13.43345757 -4.04109006 9.21678875 -4 5 C-3.01 5 -2.02 5 -1 5 C-0.67 3.35 -0.34 1.7 0 0 Z " fill="#FCB5B4" transform="translate(16,24)"/>
<path d="M0 0 C0.33 0.99 0.66 1.98 1 3 C0.67 3.66 0.34 4.32 0 5 C-0.66 5 -1.32 5 -2 5 C-2.33 5.99 -2.66 6.98 -3 8 C-4.97416268 9.05008653 -6.97582866 10.04987876 -9 11 C-9.66 11.66 -10.32 12.32 -11 13 C-13.68839385 13.26991906 -16.29141936 13.08737357 -19 13 C-18.01 12.34 -17.02 11.68 -16 11 C-15.21625 10.360625 -14.4325 9.72125 -13.625 9.0625 C-10.32632443 6.47068348 -7.16864993 4.45152384 -3.25 2.9375 C-0.83767007 2.22002336 -0.83767007 2.22002336 0 0 Z " fill="#E31B1D" transform="translate(61,49)"/>
<path d="M0 0 C0.33 0.66 0.66 1.32 1 2 C1.66 2 2.32 2 3 2 C3.22786458 4.05078125 3.45572917 6.1015625 3.68359375 8.15234375 C3.81886614 10.01140229 3.81886614 10.01140229 5 11 C5.08790975 13.29151417 5.10694038 15.58572524 5.09765625 17.87890625 C5.0962413 18.5655687 5.09482635 19.25223114 5.09336853 19.95970154 C5.08775479 22.16067801 5.07520007 24.36155409 5.0625 26.5625 C5.05748676 28.05143083 5.05292355 29.54036324 5.04882812 31.02929688 C5.03778093 34.68623075 5.02050713 38.34310558 5 42 C4.67 42 4.34 42 4 42 C3.97812622 40.90498169 3.97812622 40.90498169 3.95581055 39.7878418 C3.88048563 36.42057858 3.78410856 33.05421721 3.6875 29.6875 C3.66494141 28.53958984 3.64238281 27.39167969 3.61914062 26.20898438 C3.35605003 17.76616803 2.79611858 9.19417787 -2 2 C-1.34 2 -0.68 2 0 2 C0 1.34 0 0.68 0 0 Z " fill="#FFECEB" transform="translate(84,24)"/>
<path d="M0 0 C0.33 0 0.66 0 1 0 C1.02906612 4.56248659 1.04682113 9.1249493 1.0625 13.6875 C1.07087891 14.98107422 1.07925781 16.27464844 1.08789062 17.60742188 C1.09111328 18.85458984 1.09433594 20.10175781 1.09765625 21.38671875 C1.10289307 22.53358154 1.10812988 23.68044434 1.11352539 24.86206055 C1.01075807 27.70263777 0.65316416 30.24043792 0 33 C-2.31 33.66 -4.62 34.32 -7 35 C-5.73046875 33.60026042 -4.4609375 32.20052083 -3.19140625 30.80078125 C-0.74163377 27.09801039 -0.84543759 22.58526131 -0.68359375 18.26171875 C-0.64169922 17.19501953 -0.59980469 16.12832031 -0.55664062 15.02929688 C-0.51732422 13.92650391 -0.47800781 12.82371094 -0.4375 11.6875 C-0.37272461 10.00430664 -0.37272461 10.00430664 -0.30664062 8.28710938 C-0.20085213 5.52485431 -0.09876328 2.7625137 0 0 Z " fill="#FBB1AD" transform="translate(87,40)"/>
<path d="M0 0 C13.86 0 27.72 0 42 0 C42 0.99 42 1.98 42 3 C41.18450684 2.84152588 40.36901367 2.68305176 39.52880859 2.51977539 C35.52623816 1.93021731 31.57590595 1.77277651 27.5390625 1.68359375 C26.3532106 1.6524221 26.3532106 1.6524221 25.1434021 1.62062073 C22.63734983 1.55564418 20.13119976 1.49648357 17.625 1.4375 C15.91795895 1.39426532 14.21092751 1.35064951 12.50390625 1.30664062 C8.33603574 1.2000166 4.16806761 1.09860559 0 1 C0 0.67 0 0.34 0 0 Z " fill="#FECFD2" transform="translate(40,23)"/>
<path d="M0 0 C4.23561851 -0.33884948 6.60776636 -0.19968258 10.4375 1.75 C11.283125 2.4925 12.12875 3.235 13 4 C13 5.32 13 6.64 13 8 C8.50202887 6.31326082 4.27113698 4.18326108 0 2 C0 1.34 0 0.68 0 0 Z " fill="#E22B26" transform="translate(48,41)"/>
<path d="M0 0 C0.66 0 1.32 0 2 0 C2 6.93 2 13.86 2 21 C0.01907722 17.03815443 -0.38465846 14.82914466 -0.6875 10.5 C-0.77386719 9.3759375 -0.86023437 8.251875 -0.94921875 7.09375 C-0.99280247 4.43849575 -0.81502696 2.50023307 0 0 Z " fill="#E30F12" transform="translate(40,39)"/>
<path d="M0 0 C0.99 0.495 0.99 0.495 2 1 C2 7.27 2 13.54 2 20 C3.32 19.67 4.64 19.34 6 19 C4.6875 20.5 4.6875 20.5 3 22 C2.01 22 1.02 22 0 22 C0 14.74 0 7.48 0 0 Z " fill="#F48984" transform="translate(42,39)"/>
<path d="M0 0 C0.66 0.33 1.32 0.66 2 1 C0.94921875 2.48828125 0.94921875 2.48828125 -1 4 C-4.35546875 4.29296875 -4.35546875 4.29296875 -8.1875 4.1875 C-9.45980469 4.16042969 -10.73210937 4.13335937 -12.04296875 4.10546875 C-13.01878906 4.07066406 -13.99460937 4.03585938 -15 4 C-11.84274244 1.89516163 -10.60149717 1.69111983 -6.9375 1.4375 C-3.33239957 1.22366554 -3.33239957 1.22366554 0 0 Z " fill="#FDDAD7" transform="translate(84,73)"/>
<path d="M0 0 C0.66 0 1.32 0 2 0 C2 0.66 2 1.32 2 2 C3.65 2 5.3 2 7 2 C7 2.66 7 3.32 7 4 C9.31 4.33 11.62 4.66 14 5 C10.6484259 6.13508688 8.64324324 5.87309359 5.3125 4.75 C4.52488281 4.49734375 3.73726562 4.2446875 2.92578125 3.984375 C1 3 1 3 0 0 Z " fill="#D71715" transform="translate(15,69)"/>
<path d="M0 0 C0.33 0.66 0.66 1.32 1 2 C1.66 2 2.32 2 3 2 C3.95024979 5.69541586 3.95024979 8.30458414 3 12 C1.33333333 8.66666667 -0.33333333 5.33333333 -2 2 C-1.34 2 -0.68 2 0 2 C0 1.34 0 0.68 0 0 Z " fill="#F9CDC7" transform="translate(84,24)"/>
<path d="M0 0 C-2.83430453 3.2542015 -4.68607774 4.5206753 -9 5 C-9 4.01 -9 3.02 -9 2 C-5.5647952 -0.29013653 -4.014669 -0.17842973 0 0 Z " fill="#D52B2B" transform="translate(25,25)"/>
<path d="M0 0 C2.475 0.99 2.475 0.99 5 2 C5 3.32 5 4.64 5 6 C2.525 5.01 2.525 5.01 0 4 C0 2.68 0 1.36 0 0 Z " fill="#E51B23" transform="translate(56,43)"/>
<path d="M0 0 C0 0.99 0 1.98 0 3 C-2.64 3 -5.28 3 -8 3 C-5.53387212 -0.1151089 -3.89156016 -0.31553191 0 0 Z " fill="#EA0C0B" transform="translate(30,25)"/>
<path d="M0 0 C1.98 0.99 3.96 1.98 6 3 C3 5 3 5 0 5 C0 3.35 0 1.7 0 0 Z " fill="#FEE6DB" transform="translate(51,44)"/>
</svg>
